<?xml version="1.0" encoding="utf-8"?>
<!-- Generator: Adobe Illustrator 25.4.8, SVG Export Plug-In . SVG Version: 6.00 Build 0)  -->
<svg version="1.1" id="Слой_1" xmlns="http://www.w3.org/2000/svg" xmlns:xlink="http://www.w3.org/1999/xlink" x="0px" y="0px"
	 viewBox="0 0 864 864" style="enable-background:new 0 0 864 864;" xml:space="preserve">
<g>
	<path d="M229.72,57.51c25.73,8.56,55.36,16.74,83.58,28.36c20.3,8.36,33.55,5.08,46.82-12.13c15.23-19.75,33.6-37.07,49.33-56.47
		c15.13-18.65,28.09-19.77,43.69-0.48c16.42,20.31,35.1,38.79,51.58,59.06c11.58,14.24,22.86,18.83,41.07,11.22
		c25.05-10.47,51.59-17.36,77.25-26.44c18.63-6.59,28.86-3.61,34.18,18.24c8.53,35,2.09,80.96,27.92,102.35
		c24.04,19.92,66.24,18.75,100.8,24.83c20.79,3.66,22.96,14.94,18.53,31.66c-0.58,2.18-1.24,4.45-2.39,6.35
		c-43.36,71.93-23,125.59,46.41,166.54c21.57,12.73,19.98,29.93-0.64,42.07c-69.93,41.17-86.89,95.24-45.73,167.08
		c10.94,19.09,6.08,37.2-20.54,37.04c-84-0.48-123.55,41.99-124.71,124.44c-0.33,23.26-14.78,31.21-34.41,19.92
		c-72.3-41.57-128.41-27.73-170.49,45.08c-11.1,19.21-28.67,20.48-40.29,0.63c-42.04-71.85-97.43-88.33-170.26-46.01
		c-18.74,10.89-31.72,5.26-35.61-18.74c-4.53-27.94-13.1-55.24-17.38-83.21c-2.57-16.77-10.67-22.76-26.07-25.41
		c-27.93-4.82-55.39-12.54-83.41-16.55c-22.62-3.24-25.62-15.41-19.92-33.48c8.53-27.03,16.63-54.28,27.01-80.61
		c6.03-15.29,3.5-25.1-8.86-35.32c-21.88-18.1-42.3-37.97-64.12-56.15c-15.32-12.77-18.58-23.55-2.09-38.53
		c26.76-24.3,69.18-42.44,75.67-74.85c6.04-30.13-17.52-66.14-27.86-99.61c-5.86-18.99-0.69-29.67,20.98-32.85
		c28-4.11,55.41-12.15,83.38-16.64c16.2-2.6,22.75-9.94,25.38-25.99c4.76-29.06,12.42-57.63,18.25-86.53
		C209.04,65.14,212.91,56.85,229.72,57.51z M771.6,247.75c0.11-20.32-14.84-20.54-26.39-20.84c-69.66-1.8-108.28-33.88-108.3-106.45
		c-0.01-26.32-13.94-36.12-37.02-22.41c-64.25,38.16-111.93,20.63-148.53-40.62c-13.22-22.13-27.64-20.41-40.06,0.57
		c-36.73,62.06-85.08,77.32-148.78,39.83c-20.52-12.08-35.46-6.21-35.92,19.99c-1.24,72.02-36.25,109.1-109.52,108.96
		c-26.13-0.05-31.81,15.34-20.2,36.1c35.84,64.1,20.57,112.57-42.01,148.83c-19.03,11.03-22.03,25.8-1.03,38.27
		c62.73,37.25,80.02,86.24,42.4,151.72c-11.54,20.08-3.6,33.83,19.69,33.78c75-0.16,110,38.12,111.11,111.41
		c0.38,25.33,15.91,28.72,34.24,17.91c65.42-38.6,114.18-20.46,151.64,41.63c12.7,21.05,26.75,18.18,37.98-0.95
		c37.51-63.93,87.43-77.41,151.79-40.11c20.06,11.62,33.38,4.37,33.49-19.24c0.33-74.66,38.11-110.14,111.85-110.62
		c20.58-0.13,30.66-11.66,19.67-31.21c-38.18-67.87-20.86-118.79,44.64-157.02c15.45-9.02,15.47-20.24,0.69-31.78
		c-13.41-10.47-24.62-24.07-38.79-33.23c-32.79-21.21-37.1-47.45-20.8-81.26C761.75,283.77,766,264.59,771.6,247.75z"/>
	<path d="M432.23,691.7c-141.17,0.33-256.57-114.34-256.63-254.99c-0.05-140.65,114.97-256.61,255.24-257.33
		c139.68-0.72,255.24,114.53,256.65,255.95C688.89,575.19,573.22,691.36,432.23,691.7z M657.42,436.61
		c0.06-125.06-99.28-225.4-224.48-226.75c-125.26-1.35-227.62,101.04-227.27,227.35c0.34,124.12,102.34,225.88,226.17,225.63
		C555.83,662.59,657.37,560.76,657.42,436.61z"/>
</g>
</svg>
