<?xml version="1.0" encoding="utf-8"?>
<!-- Generator: Adobe Illustrator 25.4.8, SVG Export Plug-In . SVG Version: 6.00 Build 0)  -->
<svg version="1.1" id="Слой_1" xmlns="http://www.w3.org/2000/svg" xmlns:xlink="http://www.w3.org/1999/xlink" x="0px" y="0px"
	 viewBox="0 0 864 864" style="enable-background:new 0 0 864 864;" xml:space="preserve">
<g>
	<path d="M369.81,838.86c14.62,3.9,26.59,8.98,39.98,7.05c23.78-3.42,40.69-20.6,39.45-43.12c-4.81-87.15-1-174.34-2.06-261.5
		c-0.55-45.22-0.66-90.47,0.17-135.68c0.3-16.39-4.52-24.82-21.81-22.82c-24.78,2.86-44.21-4.57-63.68-21.97
		c-24.45-21.84-61.09-19.18-85.55,4.39c-14.83,14.28-29.9,18.92-48.94,17.59c-9.65-0.67-19.38-0.04-29.07-0.14
		c-35.23-0.36-37.34-2.34-26.68-37.37c36.62-120.3,117.47-192.26,240.44-216.89c27.45-5.5,27.46-4.6,28.77-33.71
		c0.49-10.88-4.31-24.8,15.25-25.36c14.64-0.42,22.97,3.36,21.03,19.69c-0.51,4.25,0.41,8.66-0.1,12.9
		c-2.12,17.61,5.43,23.87,23.15,26.17c72.22,9.36,132.68,42.32,181.2,96.5c35.17,39.27,58.79,84.77,68.81,136.77
		c3.78,19.61,3.04,20.23-16.69,21.1c-15.05,0.66-30.17-0.3-45.22,0.34c-16.77,0.71-29.93-3.1-43.16-15.79
		c-27.86-26.73-65.92-27.77-93.24-2.11c-14.9,14-29.66,18.41-48.85,18.09c-28.36-0.47-28.8,0.41-28.85,28.38
		c-0.19,108.77-0.08,217.53-0.08,326.3c0,34.46,0.34,68.93-0.19,103.38c-0.35,22.47-0.92,22.62-24.11,22.79
		c-21.54,0.16-43.09,0.35-64.61-0.27C369.73,863.13,369.75,862.55,369.81,838.86z"/>
	<path d="M84.33,143.39c5,0.78,7.77,4.06,9.34,8.04c20.61,52.04,41.12,104.12,61.56,156.23c1.94,4.94,4.35,10.89-2.07,14
		c-6.22,3.02-9.87-1.4-12.06-6.86c-20.85-51.95-41.75-103.87-62.38-155.91C76.23,152.61,75.99,146.03,84.33,143.39z"/>
	<path d="M714.29,108.11c6.36,1,8.7,5.67,10.7,10.82c19.81,51.05,39.64,102.09,59.53,153.11c2.01,5.16,4.4,11.29-1.16,14.42
		c-7.85,4.42-11.42-2.19-13.88-8.39c-20.64-51.88-41.2-103.79-61.76-155.71C704.91,115.3,705.55,109.69,714.29,108.11z"/>
	<path d="M671.46,181.45c0.17,5.42-1.49,7.89-4.74,9.1c-3.64,1.35-6.53-0.68-8.12-3.36c-2.71-4.56-4.85-9.51-6.82-14.46
		c-17.81-44.79-35.53-89.62-53.24-134.44c-1.57-3.98-3.18-7.98-4.27-12.11c-1.34-5.09-3-11.25,3.8-13.33
		c6.72-2.05,9.21,3.95,11.16,8.82c20.25,50.74,40.39,101.52,60.46,152.33C670.83,176.91,671.16,180.15,671.46,181.45z"/>
	<path d="M177.08,0c4.75,1.94,7.46,4.98,9.14,9.19c20.72,52.01,41.52,103.99,62.18,156.03c2.02,5.08,3.4,10.9-3.43,13.5
		c-6.57,2.49-9.87-2.29-11.94-7.47c-20.74-52.01-41.36-104.06-62.01-156.09C168.15,7.91,170.08,2.82,177.08,0z"/>
</g>
</svg>
