<?xml version="1.0" encoding="utf-8"?>
<!-- Generator: Adobe Illustrator 25.4.8, SVG Export Plug-In . SVG Version: 6.00 Build 0)  -->
<svg version="1.1" id="Слой_1" xmlns="http://www.w3.org/2000/svg" xmlns:xlink="http://www.w3.org/1999/xlink" x="0px" y="0px"
	 viewBox="0 0 864 864" style="enable-background:new 0 0 864 864;" xml:space="preserve">
<g>
	<path d="M649.96,381.38c13.03,7.12,23.55,12.81,34.01,18.6c3.59,1.99,7.34,3.85,10.53,6.39c9.53,7.58,11.54,18.32,5.58,27.76
		c-5.47,8.66-16.46,11.67-26.93,6.53c-10.79-5.3-21.16-11.46-31.8-17.09c-3.01-1.59-5.79-3.93-10.96-3.98
		c4.57,13.2,8.94,25.9,13.35,38.58c3.12,8.97,6.52,17.86,9.4,26.91c3.41,10.71-0.83,19.7-10.47,23.22
		c-8.63,3.15-17.98-1.41-21.72-11.71c-11.58-31.84-22.87-63.8-33.98-95.81c-2.12-6.12-5.56-10.11-11.28-13.15
		c-20.7-10.97-41.27-22.21-61.69-33.7c-5.93-3.34-10.54-2.31-16.72,0c-26.29,9.79-36.53,27.29-32.19,55.37
		c2.34,15.16,0.61,30.98,0.33,46.5c-0.12,6.7,1.61,12.02,6.28,17.13c21.35,23.37,42.31,47.11,63.47,70.65
		c6.01,6.68,10.69,13.61,6.14,23.01c-5.51,11.39-20.37,12.87-29.34,2.87c-12.68-14.14-25.33-28.32-37.87-42.58
		c-1.87-2.12-3.1-4.79-5.43-8.47c-4.38,7.42-2.97,12.52-3.1,17.3c-0.24,8.55,0.14,17.11-0.17,25.65
		c-0.55,15.47-9.11,25.32-21.54,25.24c-12.57-0.08-20.18-9.7-20.19-25.91c-0.03-140.33-0.15-280.66,0.21-420.99
		c0.03-11.74-3.62-20.2-11.47-28.62c-21.81-23.37-42.86-47.45-64.11-71.34c-7.34-8.26-7.18-17.55,0.04-24.55
		c7.14-6.92,16.93-6.95,24.45,1.06c16.43,17.52,32.36,35.5,48.5,53.31c3.62-1.44,2.25-4.39,2.28-6.55
		c0.16-13.62-0.14-27.25,0.2-40.86c0.31-12.71,7.93-21.14,19.16-22.08c10.95-0.91,20.3,6.68,21.62,19.37
		c1.21,11.6,0.72,23.39,0.94,35.09c0.07,3.66,0.01,7.33,2.23,11.71c11.76-13.01,23.53-26.01,35.28-39.02
		c3.18-3.52,6.18-7.23,9.54-10.57c8.2-8.15,18.03-8.74,25.32-1.73c7.14,6.86,7.42,16.09-0.07,24.57
		c-21.17,23.96-42.42,47.86-64.05,71.4c-5.76,6.27-8.51,12.66-8.37,21.21c0.4,24.07,0.33,48.15,0.03,72.22
		c-0.09,6.9,2.31,11.32,8.41,14.43c6.48,3.3,13.02,6.71,18.87,10.98c7.95,5.79,14.91,5.63,23.43,0.63
		c19.11-11.21,38.72-21.59,58.28-32.02c6.49-3.46,10.65-7.98,13.1-15.2c10.31-30.28,21.21-60.35,31.89-90.5
		c1.48-4.19,2.86-8.52,6.12-11.69c5.59-5.44,12.28-6.51,19.29-3.41c7.31,3.23,9.97,9.53,9.26,17.12c-0.81,8.61-4.66,16.4-7.46,24.46
		c-5.28,15.22-10.7,30.39-17.13,48.58c11.94-6.34,21.44-11.38,30.95-16.43c4.75-2.52,9.31-5.52,14.29-7.48
		c10.94-4.32,21.28-0.65,26.18,8.72c5.25,10.04,2.55,20.9-7.7,27.21c-10.77,6.64-22.07,12.43-33.11,18.64
		c-2.16,1.21-4.2,2.63-6.42,4.04c2.19,4.15,6.07,3.72,9.19,4.49c18.46,4.51,37.03,8.57,55.42,13.29
		c11.86,3.05,17.25,11.79,14.36,21.69c-2.85,9.75-11.22,14.27-22.59,11.63c-30.85-7.17-61.7-14.32-92.42-22
		c-8.79-2.2-16.17-1.8-24.27,2.91c-20.81,12.08-42.14,23.25-63.27,34.78c-1.11,0.61-2.29,1.13-3.29,1.89
		c-7.12,5.43-5.52,40.06,2.34,44.42c23.26,12.9,46.75,25.4,70.02,38.27c5,2.77,9.71,1.83,14.69,0.65
		c31.74-7.5,63.47-15.08,95.25-22.4c12.7-2.92,21.17,1.7,23.77,12.24c2.51,10.17-3.45,18.09-16.33,21.23
		C695.34,370.64,674.1,375.63,649.96,381.38z"/>
	<path d="M393.35,382.02c0,63.66,0.12,127.33-0.15,190.99c-0.03,8.15,2.39,13.01,9.52,17.62c41.04,26.51,64.57,63.82,69.1,113.07
		c7.14,77.47-48.24,147.45-123.52,158.48c-102.55,15.02-172.28-65.19-172.01-143.73c0.19-54.94,23.57-96.91,68.37-127.17
		c8.88-6,11.82-12,11.79-22.22c-0.29-127.32-0.24-254.65-0.15-381.97c0.02-33.8,21.1-60.78,52.55-67.97
		c44.63-10.21,84.2,23.25,84.41,71.93C393.56,254.69,393.35,318.36,393.35,382.02z M382.09,381.14c0-64.3,0.01-128.61-0.01-192.91
		c0-5.69,0.03-11.36-1.56-16.96c-8.01-28.35-35.13-47.07-63.2-43.46c-29.17,3.75-51.06,28.97-51.17,59.25
		c-0.12,32.94-0.03,65.89-0.03,98.83c0,97.88-0.03,195.76,0.06,293.64c0.01,6.68-0.79,11.77-7.75,15.59
		c-52.75,28.99-80.29,84.14-70.03,143.72c9.36,54.36,41.62,91.55,93.81,108.31c52.66,16.91,101.18,4.93,140.17-34.11
		c64.32-64.42,49.64-169.99-28.79-215.95c-8.4-4.92-11.8-10.27-11.73-20.19C382.31,511.65,382.09,446.39,382.09,381.14z"/>
	<path d="M180.26,217.27c-13.6,0.01-27.2-0.31-40.78,0.12c-8.48,0.27-8.94-4.63-8.89-10.93c0.05-6.15,0.14-11.27,8.7-11.19
		c27.5,0.26,55.01,0.24,82.52,0.02c8.71-0.07,8.43,5.5,8.46,11.45c0.02,5.79-0.23,10.78-8.27,10.61
		C208.09,217.05,194.17,217.26,180.26,217.27z"/>
	<path d="M181.43,307.36c13.28,0,26.57,0.31,39.83-0.11c8.35-0.26,9.12,4.49,9.03,10.88c-0.08,6.11-0.14,11.33-8.71,11.25
		c-27.5-0.25-55.01-0.24-82.52-0.02c-8.71,0.07-8.31-5.42-8.48-11.39c-0.18-6.53,0.85-10.98,9.11-10.73
		C153.6,307.68,167.52,307.37,181.43,307.36z"/>
	<path d="M180.6,440.88c-13.57,0-27.14-0.18-40.7,0.07c-7.39,0.14-8.98-3.77-8.91-10.14c0.07-6.32,0.65-11.15,8.94-11.08
		c27.13,0.23,54.27,0.18,81.41,0.03c6.84-0.04,8.64,3.49,8.57,9.5c-0.07,6.1-0.3,11.65-8.61,11.6c-13.57-0.08-27.14-0.02-40.7-0.02
		C180.6,440.86,180.6,440.87,180.6,440.88z"/>
	<path d="M180.11,551.5c-13.26,0-26.52-0.19-39.77,0.08c-7.06,0.14-9.39-3.02-9.36-9.73c0.03-6.5,1.86-10.02,9.12-9.97
		c26.83,0.2,53.66,0.2,80.49-0.01c7.07-0.05,9.4,3.06,9.37,9.74c-0.03,6.48-1.86,10.12-9.14,9.97
		C207.26,551.31,193.68,551.5,180.11,551.5z"/>
	<path d="M203.25,273.99c-5.38,0.01-10.79-0.35-16.13,0.09c-8.53,0.7-10.82-3.3-10.86-11.24c-0.04-8.12,1.78-12.54,11.06-12.07
		c11.36,0.58,22.79,0.37,34.17,0.1c9.24-0.21,8.71,5.89,8.82,12.16c0.11,6.41-0.74,11.43-9.02,11
		C215.29,273.73,209.27,273.98,203.25,273.99z"/>
	<path d="M204.04,362.78c4.75-0.01,9.5-0.05,14.24,0c11.33,0.11,11.89,1.04,12.07,12.7c0.11,7.03-1.98,10.68-9.65,10.47
		c-11.7-0.32-23.43-0.35-35.13-0.01c-8.97,0.26-9.14-5.26-9.22-11.83c-0.08-6.9,0.96-11.95,9.64-11.39
		C191.99,363.11,198.03,362.79,204.04,362.78z"/>
	<path d="M203.16,475.19c5.99-0.01,11.99,0.23,17.96-0.06c8.37-0.4,8.79,4.86,8.84,11.11c0.05,6.3-1.46,10.29-8.91,10.09
		c-11.97-0.31-23.95-0.27-35.92-0.03c-7.88,0.16-8.3-4.78-8.34-10.62c-0.04-5.94,0.64-10.83,8.42-10.53
		C191.18,475.37,197.17,475.19,203.16,475.19z"/>
	<path d="M301.95,544.72c0.01-19-0.09-38.01,0.04-57.01c0.09-13.13,7.67-21.85,20.05-23.55c10.85-1.49,21.5,6.08,24.47,17.95
		c1.06,4.23,1.24,8.77,1.26,13.16c0.1,35.15,0.25,70.31-0.08,105.46c-0.07,7.93,2.24,12.8,9.65,16.39
		c22.78,11.02,43.07,24.84,56.37,47.64c24.45,41.92,15.28,99.1-21.67,129.58c-41.29,34.06-97.29,33.44-135.71-0.47
		C200.29,744.4,214.6,655,278.35,623.8c23.79-11.64,23.59-12.04,23.6-38.23C301.95,571.95,301.95,558.34,301.95,544.72z
		 M262.29,666.63c13.96-3.89,26.47-11.75,34-26.01c3.42-6.47,0.13-9.42-6.53-9.48c-10.75-0.11-32.3,14.97-35.91,25.1
		C251.44,663.01,254.23,667.1,262.29,666.63z"/>
</g>
</svg>
