<?xml version="1.0" encoding="utf-8"?>
<!-- Generator: Adobe Illustrator 25.4.8, SVG Export Plug-In . SVG Version: 6.00 Build 0)  -->
<svg version="1.1" id="Слой_1" xmlns="http://www.w3.org/2000/svg" xmlns:xlink="http://www.w3.org/1999/xlink" x="0px" y="0px"
	 viewBox="0 0 864 864" style="enable-background:new 0 0 864 864;" xml:space="preserve">
<g>
	<path d="M315.78,165.23c-3.33-29.08-6.48-52.39-8.43-75.79c-0.79-9.45-2.16-20.79,10.17-25.1c11.08-3.88,19.33,2.78,26.08,10.02
		c11.77,12.64,22.59,26.15,33.92,39.2c3.66,4.21,6.53,10.76,13.21,9.56c7.94-1.42,5.19-9.04,6.09-14.24
		c3.22-18.58,6.08-37.22,9.32-55.8c1.65-9.46,5.83-17.41,16.33-19.17c10.99-1.85,17.09,5.95,21.15,13.91
		c10.73,21.04,20.39,42.63,31.46,66.09c15.42-12,16.66-29.43,24.54-42.84c3.73-6.35,6.16-13.46,9.76-19.9
		c5.25-9.4,10.5-19.25,24.11-17.04c12.58,2.04,14.43,12.94,16.32,22.1c3.49,16.84,5.06,34.08,7.62,51.12
		c0.81,5.42-1.35,12.75,5.27,15.28c8.26,3.17,11.16-5.28,15.19-9.7c11.64-12.75,22.35-26.35,33.93-39.16
		c6.84-7.56,15.52-13.8,26.1-9.11c10.93,4.84,10.72,16.14,9.88,25.81c-1.98,22.76-5.11,45.42-8.08,70.75
		c23.02-6.13,37.53-21.14,54.92-30.8c11.54-6.41,23.95-15.62,36.02-4.55c10.86,9.95,3.84,22.89-0.25,34.49
		c-6.71,19.03-19.89,35.49-24.37,57.07c18.78,1.17,33.24-7.66,48.9-10.94c9.61-2.01,19.21-5.12,28.89-5.45
		c19.88-0.68,27.65,11.66,16.57,28.48c-10.77,16.36-25.11,30.35-37.55,45.64c-3.39,4.17-9.5,8.18-6.09,14.76
		c3.18,6.15,9.87,4.92,15.48,4.96c18.92,0.13,37.84-0.19,56.75,0.14c8.63,0.15,16.57,2.87,19.37,12.27
		c2.71,9.09-1.39,16.79-8.31,21.69c-16.74,11.86-34.27,22.59-51.22,34.15c-3.68,2.51-10.01,4.11-8.64,10.38
		c1.3,5.99,7.36,5.4,11.97,6.76c18.08,5.33,36.25,10.41,54.08,16.49c8.42,2.87,17.2,6.65,17.74,18.04
		c0.58,12.23-7.37,18.07-17.09,21.27c-17.92,5.89-36.26,10.5-54.28,16.13c-4.5,1.41-10.91,3.84-12.07,7.27
		c-2.27,6.73,5.28,9.29,9.76,12.28c15.73,10.51,31.91,20.33,47.6,30.9c7.89,5.31,13.44,12.59,10.49,22.97
		c-3.01,10.55-12.58,13.15-21.35,13.75c-16.25,1.1-32.62,0.32-47.74,0.32c-3.72,8.06,0.01,12.07,2.4,16.1
		c61.36,103.58,2.12,231.68-120.08,260.6c-61.09,14.45-118.01,3.16-167.99-34.96c-14.43-11-21.7-9.54-34.66,1.83
		c-80.4,70.56-195.47,60.84-262.59-22.27c-10.18-12.6-21.1-12.83-34.34-13.22C43.38,744.21-34.78,621.3,15.5,517.56
		c15.6-32.19,40.15-56,71.11-73.12c9.29-5.14,13.87-7.74,6.31-19.34c-8.22-12.63,0.81-21.9,12.83-26.55
		c13.74-5.31,27.84-9.86,42.05-13.77c9.31-2.56,14.12-8.78,15.65-17.11c1.51-8.21-6.76-10.4-11.85-14
		c-12.73-9.01-25.91-17.4-38.57-26.5c-6.41-4.61-10.16-11.27-7.21-19.36c2.75-7.54,8.73-11.36,16.91-12.32
		c19.72-2.33,39.4-2.34,59.16-0.66c5.6,0.48,12.39,1.58,15.95-3.94c5.01-7.77-2.96-11.79-6.75-16.46
		c-11.91-14.68-24.6-28.74-36.33-43.55c-5.24-6.61-7.89-14.97-3.2-23.01c4.9-8.4,13.54-7.98,21.98-7.25
		c18.23,1.59,34.98,8.52,52.18,13.95c6.68,2.11,15.16,7.26,20.61,0.88c4.7-5.51-2.07-12.24-4.58-18.03
		c-5.88-13.57-12.78-26.7-18.54-40.32c-4.47-10.58-9.97-22.8,0.83-31.88c10.21-8.58,21.89-3.68,32.07,2.6
		C274.68,139.25,293.09,150.98,315.78,165.23z M276.75,235.15c-32.93,21.53-61.7-9.15-96.26-8.29
		c17.69,27.39,45.31,44.51,53.59,79.61c16.14-27.07,29.36-49.24,42.58-71.41c21.74-14.15,42.09-29.97,59.22-49.61
		c9.35,2.86,15.26-4.52,22.33-7.88c70.47-33.55,142.98-37.81,215.26-9.46c125.99,49.41,192.64,179.11,159.75,310.47
		c-6.1,24.38,5.88,34.1,22.21,37.94c18.05,4.24,37.87,0.97,60.92,0.97c-14.62-16.65-31.07-21.32-43.65-31.41
		c-10.54-8.46-26.64-14.66-23.15-31.57c3.07-14.89,18.55-16.32,30.79-21.05c15.65-6.05,34.15-4.7,49.83-19.04
		c-19.25-5.73-36.37-10.69-53.39-15.95c-11.87-3.67-25.48-7.35-27.71-21.27c-2.29-14.34,11.04-20.78,20.61-28.2
		c13.71-10.64,31.65-15.76,43.74-31.74c-19.64-7.84-37.77,0.02-55.25-2.98c-10.72-1.84-24.48,2.7-29.83-11.73
		c-5.01-13.51,2.94-23.79,10.57-33.61c10.81-13.92,26.06-24.37,35.39-44.86c-20.44,5.71-37.53,10.2-54.43,15.31
		c-11.96,3.62-25.02,9.15-34.18-2.56c-8.38-10.72-3.07-23.48,1.26-35.26c6.04-16.42,17.58-30.8,20.53-52.92
		c-20.47,12.88-37.2,24.52-54.95,34.32c-22.91,12.64-32.25,5.76-34.15-20.46c-1.53-21.12,9.11-41.33,3.69-67.46
		c-15.27,17.64-27.08,33.04-40.71,46.62c-21.19,21.11-33.93,16.19-42.29-12.68c-5.52-19.04-0.22-40.46-13.51-61.74
		c-8.5,18.87-14.96,34.71-22.7,49.9c-5.41,10.62-9.44,23.73-25.09,23.98c-15.7,0.25-19.76-12.82-25.76-23.21
		c-8.79-15.23-11.57-33.7-24.54-48.69c-8.24,17.21-6.83,33.87-9.71,49.75c-2.4,13.22-2.79,30.32-19,34.67
		c-14.98,4.01-22.74-10.49-32.19-19.06c-12.08-10.94-18.18-28.07-37.63-37.09c4.43,31.55,9.3,59.81,7.41,88.46
		c-37.51,11.55-56.69-25.53-90.85-35.03C256.03,181.28,274.24,205.58,276.75,235.15z M304.47,311.42
		c-66.11-2.27-124.22,39.81-134.82,102.52c-4,23.67-13.84,29.1-34.84,33.6C53.52,464.95,3.92,543.97,24.13,620.16
		c16.92,63.76,80.3,108.65,153.85,108.07c12.16-0.1,20.34,1.01,28.52,12.62c62.88,89.13,184.54,93.18,256.12,9.08
		c7.66-9,11.8-12.63,22.31-2c42.69,43.16,95.07,58.82,155.18,52.07c74.45-8.36,134.52-66.5,145.79-142.52
		c9.27-62.55-34.07-134.74-101.8-158.25c-34.64-12.02-61.09-26.29-84.61-56.78c-34.43-44.64-86.25-58.25-142.28-46.15
		c-18.32,3.96-27.54,1.14-37.29-17.3C396.06,333.86,355.18,313.15,304.47,311.42z M267.53,292.52c4.8,0.98,7.26,2.14,9.54,1.85
		c67.84-8.5,120.75,15.48,157.25,73.37c6.84,10.84,13.74,10.12,24.51,8.64c59.94-8.23,115,5.31,153.55,52.99
		c21.85,27.02,45.51,42.75,77.86,52.51c19.25,5.81,23.78-0.05,25.97-15.24c4.09-28.38,7.9-56.31,3.1-85.63
		c-15.43-94.26-66.65-160.48-154.69-194.78c-87.49-34.08-169.79-18.4-243.06,40.11C299.4,244.05,279.08,264.3,267.53,292.52z
		 M139.55,316.39c33.86,29.87,44.63,37.53,63.7-1.96C182.63,316.09,162.8,310.52,139.55,316.39z"/>
	<path d="M57.64,560.63c5.03,18.14-2.67,34.23,2.64,51.82c16.33,54.16,80.23,87.68,137.06,66.64c24.73-9.16,29.01-2.25,34.27,19.8
		c16.65,69.74,123.34,109.4,174.17,54.86c1.3-1.4,4.03-1.47,10.3-3.57c-7.77,26.33-27.22,33.08-46.49,36.87
		c-68.08,13.4-126.99-20.25-149.64-85.97c-4.97-14.43-10.86-11.84-21.6-9.47c-37.54,8.27-73.64,4.47-106.66-16.89
		c-35.19-22.76-52.72-66.17-41.13-102.26C51.94,568.2,55.24,564.56,57.64,560.63z"/>
</g>
</svg>
