<?xml version="1.0" encoding="utf-8"?>
<!-- Generator: Adobe Illustrator 25.4.8, SVG Export Plug-In . SVG Version: 6.00 Build 0)  -->
<svg version="1.1" id="Слой_1" xmlns="http://www.w3.org/2000/svg" xmlns:xlink="http://www.w3.org/1999/xlink" x="0px" y="0px"
	 viewBox="0 0 864 864" style="enable-background:new 0 0 864 864;" xml:space="preserve">
<g>
	<path d="M431.62,770.29c-17.32,20.83-21.81,45.03-33.34,65.6c-6.83,12.2-13.41,26.14-30.37,23.1
		c-15.77-2.82-16.64-18.27-19.03-30.38c-3.19-16.15-4.27-32.72-6.25-49.1c-0.87-7.19,0.45-16.54-7.06-19.69
		c-9.01-3.78-11.66,6.73-16.18,11.58c-11.27,12.09-21.55,25.1-32.46,37.53c-9.35,10.65-20.18,21.75-35.33,14.77
		c-15.81-7.28-10.23-23.45-10.22-36.76c0.02-22.6,11.54-44.38,5.51-68.96c-24.68,6.88-40.93,25.87-62.02,36.33
		c-11.35,5.63-23.56,15.18-35.48,4.79c-12.46-10.86-6.76-25.61-1.52-38.29c7.35-17.81,15.79-35.18,24.14-52.56
		c6.63-13.79,0.69-17.11-11.59-13.7c-20.33,5.65-40.37,12.36-60.61,18.35c-10.97,3.24-22.68,4.81-30.42-5.54
		c-8.68-11.61-2.98-23.08,4.8-32.7c15.98-19.77,32.63-39,54.23-64.64c-29.95,0-53.15,0.09-76.36-0.04
		c-13.91-0.08-29.52,0.07-34.52-15.86c-5.1-16.24,8.69-24.2,19.63-32.8c18.46-14.5,42.14-21.78,59.13-41.44
		c-22.7-12.45-47.06-13.99-69-22.52c-12.46-4.85-28.18-8.09-27.28-26.37c0.8-16.16,14.67-19.75,26.77-23.74
		c17.38-5.73,35.06-10.6,52.66-15.66c5.25-1.51,12.03-1.56,13.46-7.81c1.92-8.36-6.6-10.03-11.4-13.22
		c-16.07-10.65-32.87-20.21-48.91-30.92c-10.18-6.79-18.96-15.26-15.59-29.48c3.79-15.97,18.19-14.47,29.11-15.13
		c19.2-1.15,38.56,0.7,57.86,0.99c6.27,0.1,14.02,1.09,16.57-6.47c1.94-5.76-3.47-10.02-7-14.09
		c-12.02-13.9-24.46-27.45-36.32-41.48c-8.52-10.08-16.49-21.63-8.66-34.86c8.42-14.24,23.33-9.08,35.19-6.42
		c23,5.16,45.49,12.58,71.05,19.89c-1.14-21.34-12.53-35.01-18.67-50.49c-3.03-7.65-7.82-14.72-10.03-22.56
		c-3.2-11.35-7.92-24.9,2.67-33.62c10.24-8.43,22.89-3.88,33.5,2.75c15.58,9.73,30.78,20.07,46.37,29.78
		c5.2,3.24,10.43,10.43,16.79,6.9c7.92-4.39,4.08-13.68,2.82-20.08c-3.9-19.91-6.76-39.85-6.8-60.1
		c-0.02-9.94-1.25-21.51,10.31-26.31c11.96-4.96,21.56,1.7,29.25,10.17c12.97,14.28,25.04,29.38,38.13,43.54
		c4.44,4.8,6.82,15.12,16.49,10.92c6.73-2.92,5.98-10.72,6.75-17.04c2-16.39,3.15-32.94,6.25-49.12
		c2.49-13.03,3.09-29.28,20.29-32.34c17.38-3.09,23.87,11.49,29.91,23.63c8.56,17.23,15.37,35.32,23.37,52.85
		c1.78,3.9,4.86,9.1,8.29,9.96c6.9,1.74,8.38-5.67,10.45-10.19c8.01-17.51,14.93-35.54,23.33-52.85
		c5.52-11.37,11.32-24.98,27.06-23.59c16.03,1.42,19.04,15.47,21.34,28.28c3.4,18.92,5.88,38.01,9.03,56.97
		c0.84,5.07-1.48,12.29,4.95,14.42c7.75,2.56,11.12-5.19,15.13-9.65c13.51-15.04,26.36-30.68,39.72-45.86
		c7.7-8.75,17.16-15.03,29.12-9.98c11.14,4.71,12.09,15.57,11.12,25.86c-1.9,20.06-4.66,40.03-6.91,60.05
		c-0.76,6.77-7.26,15.22,1.48,19.8c7.37,3.87,13.52-3.73,19.51-7.43c14.07-8.7,27.35-18.72,41.7-26.89
		c11.67-6.65,24.9-15.83,37.77-3.74c11.63,10.94,4.23,24.01-0.06,35.96c-8,22.25-22.78,41.73-28.26,66.82
		c20.99,2.22,37.69-8.8,55.89-12.49c8.98-1.82,17.82-4.44,26.85-5.86c10.33-1.63,21.25-1.43,26.89,9
		c4.88,9.03,0.53,18.44-5.23,25.66c-12.59,15.8-26.27,30.72-39.24,46.22c-4.49,5.36-12.94,9.95-9.43,18.28
		c3.55,8.44,12.75,5.56,19.69,5.69c20.2,0.4,40.4,0.21,60.61,0.16c11.13-0.02,20.29,3.87,23.68,14.96
		c3.13,10.24-3.18,18.24-10.75,23.52c-18.8,13.12-38.45,25.02-57.47,37.85c-4.01,2.71-11.09,4.53-8.68,11.89
		c1.63,4.96,6.74,5.53,11.15,6.85c21.06,6.29,42.15,12.48,63.06,19.22c10.01,3.23,19.41,9.15,19.99,20.46
		c0.68,13.03-9.94,19.43-20.45,23.05c-24.97,8.58-50.34,15.99-76.08,24.04c5.64,15.45,19.64,18.1,29.64,25.35
		c11.14,8.08,23.48,14.53,34.36,22.91c8.55,6.59,18.75,14.08,15.26,27.05c-3.82,14.18-16.82,16.03-28.79,16.34
		c-25.39,0.67-50.82,0.21-84.21,0.21c19.58,22.69,34.66,39.26,48.64,56.7c8.85,11.04,22.91,22.51,12.72,38.51
		c-9.95,15.63-25.79,9.89-40.07,5.54c-17.53-5.34-34.95-11.11-52.62-15.94c-12.16-3.33-18.35-0.26-11.84,13.66
		c8.92,19.1,17.46,38.37,26.17,57.58c5.17,11.41,8.44,23.27-2.53,32.78c-11.25,9.76-22.68,3.52-33.01-2.76
		c-14.91-9.07-29.19-19.17-44.11-28.22c-6.73-4.08-13.79-12.92-21.93-7.52c-7.25,4.81-0.72,13.53,0.06,20.51
		c2.23,20.03,4.86,40.02,6.66,60.09c0.84,9.35-0.24,18.93-10.55,23.34c-9.52,4.07-18.77,1.34-25.38-5.61
		c-15.18-15.94-29.28-32.89-44.18-49.1c-4-4.35-7.02-12.37-15.11-8.99c-6.01,2.51-4.55,9.39-5.29,14.53
		c-2.35,16.34-2.92,33.07-6.78,49.02c-3.22,13.28-1.68,31.71-21.65,34.26c-19.2,2.45-23.7-13.87-30.65-26.5
		C451.7,812.51,447.58,790.16,431.62,770.29z M512.12,141.26c-18.78-28.65-11.63-64.57-26.51-101.46
		c-10.72,24.06-18.4,42.42-27.04,60.32c-5.59,11.59-11.92,24.02-26.97,24.78c-15.83,0.8-21.44-12.42-27.06-23.78
		c-9.19-18.53-17.37-37.55-27.46-59.62c-14.51,22.71-7.16,45.28-13.7,65.17c-4.04,12.28-4.33,27.25-18.37,31.45
		c-15.47,4.62-25.12-7.97-34.33-18.16c-13.14-14.53-25.88-29.43-40.56-46.19c-4.84,15.08-1.55,25.72-0.43,36.33
		c1.25,11.83,3.93,23.6,4.13,35.43c0.54,32.65-11.76,39.67-40.6,24.37c-19-10.08-34.53-26.41-61.55-34.57
		c10.79,24.17,20.27,43.53,28.04,63.56c4.27,11.02,7.3,23.7-2.33,33.88c-8.96,9.48-20.34,6.18-31.06,3.19
		c-20.81-5.8-41.56-11.83-66.05-18.83c9.79,24.4,28.99,35.64,40.5,52.76c7.23,10.75,16.36,21.26,10.54,35.15
		c-5.81,13.86-19.89,10.56-31.27,12.47c-20.37,3.42-41.53-5.22-65.51,3.71c12.26,13.94,26.71,19.7,38.98,28.25
		c14.68,10.23,37.03,17.58,33.83,38.93c-2.93,19.63-25.29,21.01-41.5,26.92c-14.94,5.45-31.86,5.56-46.75,16.48
		c13.7,11.67,30.16,10.85,44.35,16.06c16.85,6.19,40.84,7.2,44.06,28.03c3.27,21.1-19.17,28.77-34.08,38.84
		c-12.44,8.4-25.2,16.33-37.82,24.46c20.63,6.28,39.47,6.14,58.32,6.33c13.78,0.14,29.41-1.15,36.66,13.33
		c7.98,15.92-3.6,27.92-12.99,39.22c-12.04,14.5-24.65,28.54-40.03,46.26c28.64-0.1,48.59-13.7,71.1-16.23
		c31.81-3.57,41.61,7.48,30.96,37.58c-4.88,13.78-13.12,26.35-18.3,40.05c-2.46,6.49-12.07,13.13-2.01,22.59
		c8.37-5.3,16.78-10.63,25.19-15.96c9.32-5.9,18.34-12.37,28.02-17.6c27.93-15.09,42.82-6.72,41.35,24.29
		c-1.07,22.49-4.9,44.86-7.5,67.28c17.2-11.47,29.41-25.76,41.97-39.73c9.84-10.93,19.83-24.11,36.76-19.19
		c16.05,4.67,14.53,21.14,18.74,33.97c5.96,18.13-1.46,39.61,14.19,59.58c8.78-19.34,15.4-35.33,23.2-50.71
		c6.82-13.45,10.74-31.66,30.76-30.74c19.09,0.89,22.91,18.74,30.24,32.06c8.59,15.58,11.36,34.37,27.61,51.54
		c3.15-23.23,4.94-42.14,8.5-60.72c2.5-13.04,2.28-29.1,18.08-34.63c17.4-6.09,26.39,8.05,37.13,17.88
		c14.16,12.96,21.54,32.92,44.32,43.6c-3.99-25.38-7.23-46.89-10.81-68.34c-1.95-11.7,0.03-23.14,9.25-29.94
		c8.53-6.29,19.75-3.89,28.85,1.34c13.53,7.78,26.39,16.71,39.77,24.77c7.03,4.24,12.91,12.99,24.32,7.98
		c-9.5-22.02-19.41-42.67-27.37-64.03c-9.73-26.16-1.27-36.76,26.69-33.09c15.29,2,30.03,7.88,45.22,11.07
		c8.05,1.69,15.96,10.32,26.88,0.44c-12.17-13.86-24.98-26.86-35.83-41.33c-8.37-11.16-23.2-22.2-14.46-38.48
		c7.94-14.79,24.17-14.43,39.23-14.18c18.6,0.31,37.22,0.07,55.82,0.07c-15.52-17.37-32.63-27.55-48.84-38.99
		c-10.94-7.72-24.5-15.05-20.94-32.24c3.17-15.32,17.3-17.57,28.95-22.16c18.96-7.47,41.03-6.72,60.93-22.49
		c-21.44-6.45-39.72-11.91-57.98-17.44c-14.13-4.28-30.22-7.65-32.16-25.53c-1.78-16.38,13.22-22.44,23.71-31.01
		c14.86-12.14,35.76-16.66,47.65-35.71c-24.98-6.95-47.95,0.6-70.65-2.61c-29.05-4.11-34.61-15.36-19.62-39.89
		c12.41-20.31,33.63-33.78,44.5-57.62c-22.41-0.02-40.21,10.96-59.71,14.87c-13.71,2.75-27.21,8.76-38.33-3.88
		c-11.48-13.06-1.99-26.06,2.35-38.69c6.33-18.43,19.45-34.34,23.51-57.72c-34.36,14.96-57.8,43.6-93.79,45.57
		c-18.37-33.46,3.25-67.89-0.53-108.84c-14.02,16.43-23.79,27.83-33.5,39.29C547.95,125.83,534.58,140.74,512.12,141.26z"/>
	<path d="M512.69,140.64c27.64,12.9,55.28,25.8,82.92,38.71c8.79,14.54,24.58,21.36,36.22,32.86
		c86.09,85.01,116.44,187.16,81.39,302.24c-34.99,114.89-116.19,183.4-235.65,205.59c-142.47,26.46-309.36-66.68-337.59-242.75
		c-27.03-168.55,83.34-308.58,236.04-338.24c36.97-7.18,74.98-6.69,112.38,0.64C496.52,141.28,504.44,143.97,512.69,140.64z
		 M702,429.6c0.26-149.63-122.03-272.82-270.86-272.88c-147.1-0.05-273.45,126.46-272.63,273
		c0.82,147.11,124.39,270.32,271.26,270.49C580.46,700.39,701.74,579.83,702,429.6z"/>
</g>
</svg>
