<?xml version="1.0" encoding="utf-8"?>
<!-- Generator: Adobe Illustrator 25.4.8, SVG Export Plug-In . SVG Version: 6.00 Build 0)  -->
<svg version="1.1" id="Слой_1" xmlns="http://www.w3.org/2000/svg" xmlns:xlink="http://www.w3.org/1999/xlink" x="0px" y="0px"
	 viewBox="0 0 864 864" style="enable-background:new 0 0 864 864;" xml:space="preserve">
<g>
	<path d="M444.34,698.09c-13.18,0-26.38,0.16-39.57-0.04c-13.42-0.2-16.81-6.57-9.97-18.62c19.95-35.16,40-70.26,59.95-105.42
		c1.61-2.84,4.18-5.38,3.76-10c-3.66,0-7.27,0-10.87,0c-108.42-0.11-216.84,0.13-325.26-0.46C64.86,563.23,11.42,516.22,2.02,459.28
		c-9.81-59.45,16.57-111.82,70.65-139.69c4.38-2.26,6.29-4.97,6.96-9.73c12.91-91.09,86.81-156.24,178.68-157.42
		c5.65-0.07,8.59-1.73,11.42-6.76C312.76,69.28,377.34,21.71,463.71,6.93c143.9-24.63,279.18,68.25,310.77,209.23
		c6.81,30.39,8.05,61.09,4.11,91.94c-0.7,5.52,2.03,6.73,5.97,8.5c43.06,19.4,69.28,52.03,77.62,98.82
		c11.88,66.65-36.28,135.09-102.91,146.44c-16,2.72-32.01,1.82-48.03,1.94c-28.11,0.22-56.22,0.11-84.33,0.01
		c-4.5-0.02-8.23,0.51-11.42,4.39c-22.17,26.95-44.54,53.74-66.82,80.6c-0.56,0.68-0.8,1.62-2,4.16c12.32,0,23.8,0,35.29,0
		c3.4,0,6.8,0.02,10.19,0c4.49-0.02,7.87,2.01,9.47,6.1c1.57,4.03,0.52,7.68-2.5,11.04c-8.49,9.45-17.78,18.06-27.53,26.12
		c-39.25,32.44-76.88,66.74-114.24,101.27c-21.53,19.9-44.76,37.81-65.7,58.31c-4.55,4.45-9.72,7.45-15.56,3.09
		c-6-4.48-3.85-10.29-1.11-15.84c21.97-44.54,43.95-89.08,65.79-133.68C442.34,706.21,445.06,703.29,444.34,698.09z"/>
</g>
</svg>
