<?xml version="1.0" encoding="utf-8"?>
<!-- Generator: Adobe Illustrator 25.4.8, SVG Export Plug-In . SVG Version: 6.00 Build 0)  -->
<svg version="1.1" id="Слой_1" xmlns="http://www.w3.org/2000/svg" xmlns:xlink="http://www.w3.org/1999/xlink" x="0px" y="0px"
	 viewBox="0 0 864 864" style="enable-background:new 0 0 864 864;" xml:space="preserve">
<g>
	<path d="M512.1,512.81c-16.46-5.09-33.21-9.36-48.73-17.14c-4.34-2.18-8.2-0.32-11.98,1.44c-26.68,12.43-54.98,19.1-84.14,20.1
		c-34.84,1.19-68.7-5.06-100.71-19.56c-25.25-11.44-48.01-26.57-67.6-46.22c-4.17-4.18-8.15-3.3-12.87-2.25
		c-46.66,10.37-89.65,1.83-127.42-27.46c-35.39-27.44-55.8-63.8-58.34-109.09c-3.53-62.92,23.01-110.31,76.48-142.28
		c29.11-17.41,61.4-23.07,95.18-18.07c4.48,0.66,7.39-0.36,10.17-3.77c18.51-22.76,40.5-41.43,66.2-55.64
		c27.08-14.97,55.89-24.15,86.78-27.59c34.25-3.81,67.21,1.03,99.54,11.94c5.19,1.75,10.51,3.53,15.19,6.28
		c6.73,3.95,12.61,2.42,19.23-0.27c85.67-34.9,164.74-22.89,236.84,34.51c18.25,14.53,33.44,32.25,45.45,52.41
		c3.56,5.97,8.03,9.37,15.11,10.98c61.25,13.93,101.16,67.56,97.25,130.06c-3.8,60.66-54.14,110.71-114.74,113.9
		c-4.86,0.26-8.36,2.01-11.36,5.75c-19.36,24.15-42.47,44-69.73,58.68c-27.2,14.65-56.21,23.35-87.09,26.87
		c-23.26,2.65-45.83-1.07-68.63-3.51L512.1,512.81z"/>
	<path d="M375.1,569.06c1.25,5.64-1.06,9.76-2.72,14c-14.99,38.27-22.35,78.22-26.48,118.91c-0.71,7.01-1.52,14.02-2.77,20.95
		c-4.12,22.82-25.2,37.76-50.99,36.36c-21.2-1.15-38.91-19.49-40.65-41.8c-1.36-17.45,4.33-31.22,18.3-42.51
		c21.3-17.21,42.7-34.36,61.71-54.29c13-13.63,25.72-27.41,36.72-42.72C370.41,574.92,372.8,572.03,375.1,569.06z"/>
	<path d="M571.86,604.82c-6.25,17.7-12.45,33.47-17.02,49.8c-8.5,30.3-12.47,61.35-15.85,92.52c-0.53,4.93-1.11,9.87-2.07,14.73
		c-3.72,18.73-21.01,32.42-42.14,33.55c-23.49,1.26-38.05-8-46.21-29.39c-7.82-20.49-2.12-40.54,15.32-54.71
		c20.67-16.79,41.59-33.26,60.17-52.5c13.99-14.49,27.62-29.21,39.44-45.56C565.4,610.6,566.81,607.34,571.86,604.82z"/>
	<path d="M231.64,485.54c-5.68,16.68-11.41,31.21-15.83,46.21c-9.72,33.01-14.1,66.88-17.48,100.94
		c-3.36,33.85-36.64,54.08-67.15,40.7c-26.98-11.83-34.98-52.81-14.49-73.8c14.46-14.81,31.55-26.54,47.01-40.19
		c22.24-19.65,41.93-41.46,59.51-65.27C225.18,491.49,226.71,488.37,231.64,485.54z"/>
	<path d="M512.18,512.88c-4.07,12.64-8.26,25.24-12.17,37.92c-8.2,26.58-10.52,54.19-14.16,81.58
		c-2.4,18.03-14.11,28.11-34.13,30.79c-13.15,1.76-27.76-6.18-33.69-18.32c-8.28-16.94-6.08-33.69,6.67-45.25
		c8.88-8.05,18.47-15.31,27.63-23.05c20.02-16.89,38.06-35.66,53.48-56.88c1.83-2.52,3.44-5.27,6.29-6.87
		C512.1,512.81,512.18,512.88,512.18,512.88z"/>
	<path d="M210.99,696.99c-5.72,17.39-10.79,34.61-13.38,52.45c-1.5,10.31-2.39,20.72-4.08,31c-1.74,10.58-9.71,17.72-20.72,19.46
		c-11.75,1.86-22.04-2.68-26.76-11.8c-5.06-9.77-3.89-23.8,3.02-30.77c11.58-11.67,25.74-20.42,37.06-32.43
		C194.66,715.86,202.49,706.23,210.99,696.99z"/>
</g>
</svg>
