  0
SECTION
  2
HEADER
  9
$ACADVER
  1
AC1027
  9
$ACADMAINTVER
 70
   125
  9
$DWGCODEPAGE
  3
ANSI_1251
  9
$REQUIREDVERSIONS
160
                 0
  9
$INSBASE
 10
0.0
 20
0.0
 30
0.0
  9
$EXTMIN
 10
1.000000000000000E+20
 20
1.000000000000000E+20
 30
1.000000000000000E+20
  9
$EXTMAX
 10
-1.000000000000000E+20
 20
-1.000000000000000E+20
 30
-1.000000000000000E+20
  9
$LIMMIN
 10
0.0
 20
0.0
  9
$LIMMAX
 10
12.0
 20
9.0
  9
$ORTHOMODE
 70
     0
  9
$REGENMODE
 70
     1
  9
$FILLMODE
 70
     1
  9
$QTEXTMODE
 70
     0
  9
$MIRRTEXT
 70
     0
  9
$LTSCALE
 40
1.0
  9
$ATTMODE
 70
     1
  9
$TEXTSIZE
 40
0.2
  9
$TRACEWID
 40
0.05
  9
$TEXTSTYLE
  7
Standard
  9
$CLAYER
  8
0
  9
$CELTYPE
  6
ByLayer
  9
$CECOLOR
 62
   256
  9
$CELTSCALE
 40
1.0
  9
$DISPSILH
 70
     0
  9
$DIMSCALE
 40
1.0
  9
$DIMASZ
 40
0.18
  9
$DIMEXO
 40
0.0625
  9
$DIMDLI
 40
0.38
  9
$DIMRND
 40
0.0
  9
$DIMDLE
 40
0.0
  9
$DIMEXE
 40
0.18
  9
$DIMTP
 40
0.0
  9
$DIMTM
 40
0.0
  9
$DIMTXT
 40
0.18
  9
$DIMCEN
 40
0.09
  9
$DIMTSZ
 40
0.0
  9
$DIMTOL
 70
     0
  9
$DIMLIM
 70
     0
  9
$DIMTIH
 70
     1
  9
$DIMTOH
 70
     1
  9
$DIMSE1
 70
     0
  9
$DIMSE2
 70
     0
  9
$DIMTAD
 70
     0
  9
$DIMZIN
 70
     0
  9
$DIMBLK
  1

  9
$DIMASO
 70
     1
  9
$DIMSHO
 70
     1
  9
$DIMPOST
  1

  9
$DIMAPOST
  1

  9
$DIMALT
 70
     0
  9
$DIMALTD
 70
     2
  9
$DIMALTF
 40
25.4
  9
$DIMLFAC
 40
1.0
  9
$DIMTOFL
 70
     0
  9
$DIMTVP
 40
0.0
  9
$DIMTIX
 70
     0
  9
$DIMSOXD
 70
     0
  9
$DIMSAH
 70
     0
  9
$DIMBLK1
  1

  9
$DIMBLK2
  1

  9
$DIMSTYLE
  2
Standard
  9
$DIMCLRD
 70
     0
  9
$DIMCLRE
 70
     0
  9
$DIMCLRT
 70
     0
  9
$DIMTFAC
 40
1.0
  9
$DIMGAP
 40
0.09
  9
$DIMJUST
 70
     0
  9
$DIMSD1
 70
     0
  9
$DIMSD2
 70
     0
  9
$DIMTOLJ
 70
     1
  9
$DIMTZIN
 70
     0
  9
$DIMALTZ
 70
     0
  9
$DIMALTTZ
 70
     0
  9
$DIMUPT
 70
     0
  9
$DIMDEC
 70
     4
  9
$DIMTDEC
 70
     4
  9
$DIMALTU
 70
     2
  9
$DIMALTTD
 70
     2
  9
$DIMTXSTY
  7
Standard
  9
$DIMAUNIT
 70
     0
  9
$DIMADEC
 70
     0
  9
$DIMALTRND
 40
0.0
  9
$DIMAZIN
 70
     0
  9
$DIMDSEP
 70
    46
  9
$DIMATFIT
 70
     3
  9
$DIMFRAC
 70
     0
  9
$DIMLDRBLK
  1

  9
$DIMLUNIT
 70
     2
  9
$DIMLWD
 70
    -2
  9
$DIMLWE
 70
    -2
  9
$DIMTMOVE
 70
     0
  9
$DIMFXL
 40
1.0
  9
$DIMFXLON
 70
     0
  9
$DIMJOGANG
 40
0.7853981633974483
  9
$DIMTFILL
 70
     0
  9
$DIMTFILLCLR
 70
     0
  9
$DIMARCSYM
 70
     0
  9
$DIMLTYPE
  6

  9
$DIMLTEX1
  6

  9
$DIMLTEX2
  6

  9
$DIMTXTDIRECTION
 70
     0
  9
$LUNITS
 70
     2
  9
$LUPREC
 70
     4
  9
$SKETCHINC
 40
0.1
  9
$FILLETRAD
 40
0.0
  9
$AUNITS
 70
     0
  9
$AUPREC
 70
     0
  9
$MENU
  1
.
  9
$ELEVATION
 40
0.0
  9
$PELEVATION
 40
0.0
  9
$THICKNESS
 40
0.0
  9
$LIMCHECK
 70
     0
  9
$CHAMFERA
 40
0.0
  9
$CHAMFERB
 40
0.0
  9
$CHAMFERC
 40
0.0
  9
$CHAMFERD
 40
0.0
  9
$SKPOLY
 70
     0
  9
$TDCREATE
 40
2459954.679953704
  9
$TDUCREATE
 40
2459954.596620370
  9
$TDUPDATE
 40
2459954.679953704
  9
$TDUUPDATE
 40
2459954.596620370
  9
$TDINDWG
 40
0.0000000000
  9
$TDUSRTIMER
 40
0.0000000000
  9
$USRTIMER
 70
     1
  9
$ANGBASE
 50
0.0
  9
$ANGDIR
 70
     0
  9
$PDMODE
 70
     0
  9
$PDSIZE
 40
0.0
  9
$PLINEWID
 40
0.0
  9
$SPLFRAME
 70
     0
  9
$SPLINETYPE
 70
     6
  9
$SPLINESEGS
 70
     8
  9
$HANDSEED
  5
A3
  9
$SURFTAB1
 70
     6
  9
$SURFTAB2
 70
     6
  9
$SURFTYPE
 70
     6
  9
$SURFU
 70
     6
  9
$SURFV
 70
     6
  9
$UCSBASE
  2

  9
$UCSNAME
  2

  9
$UCSORG
 10
0.0
 20
0.0
 30
0.0
  9
$UCSXDIR
 10
1.0
 20
0.0
 30
0.0
  9
$UCSYDIR
 10
0.0
 20
1.0
 30
0.0
  9
$UCSORTHOREF
  2

  9
$UCSORTHOVIEW
 70
     0
  9
$UCSORGTOP
 10
0.0
 20
0.0
 30
0.0
  9
$UCSORGBOTTOM
 10
0.0
 20
0.0
 30
0.0
  9
$UCSORGLEFT
 10
0.0
 20
0.0
 30
0.0
  9
$UCSORGRIGHT
 10
0.0
 20
0.0
 30
0.0
  9
$UCSORGFRONT
 10
0.0
 20
0.0
 30
0.0
  9
$UCSORGBACK
 10
0.0
 20
0.0
 30
0.0
  9
$PUCSBASE
  2

  9
$PUCSNAME
  2

  9
$PUCSORG
 10
0.0
 20
0.0
 30
0.0
  9
$PUCSXDIR
 10
1.0
 20
0.0
 30
0.0
  9
$PUCSYDIR
 10
0.0
 20
1.0
 30
0.0
  9
$PUCSORTHOREF
  2

  9
$PUCSORTHOVIEW
 70
     0
  9
$PUCSORGTOP
 10
0.0
 20
0.0
 30
0.0
  9
$PUCSORGBOTTOM
 10
0.0
 20
0.0
 30
0.0
  9
$PUCSORGLEFT
 10
0.0
 20
0.0
 30
0.0
  9
$PUCSORGRIGHT
 10
0.0
 20
0.0
 30
0.0
  9
$PUCSORGFRONT
 10
0.0
 20
0.0
 30
0.0
  9
$PUCSORGBACK
 10
0.0
 20
0.0
 30
0.0
  9
$USERI1
 70
     0
  9
$USERI2
 70
     0
  9
$USERI3
 70
     0
  9
$USERI4
 70
     0
  9
$USERI5
 70
     0
  9
$USERR1
 40
0.0
  9
$USERR2
 40
0.0
  9
$USERR3
 40
0.0
  9
$USERR4
 40
0.0
  9
$USERR5
 40
0.0
  9
$WORLDVIEW
 70
     1
  9
$SHADEDGE
 70
     3
  9
$SHADEDIF
 70
    70
  9
$TILEMODE
 70
     1
  9
$MAXACTVP
 70
    64
  9
$PINSBASE
 10
0.0
 20
0.0
 30
0.0
  9
$PLIMCHECK
 70
     0
  9
$PEXTMIN
 10
1.000000000000000E+20
 20
1.000000000000000E+20
 30
1.000000000000000E+20
  9
$PEXTMAX
 10
-1.000000000000000E+20
 20
-1.000000000000000E+20
 30
-1.000000000000000E+20
  9
$PLIMMIN
 10
0.0
 20
0.0
  9
$PLIMMAX
 10
12.0
 20
9.0
  9
$UNITMODE
 70
     0
  9
$VISRETAIN
 70
     1
  9
$PLINEGEN
 70
     0
  9
$PSLTSCALE
 70
     1
  9
$TREEDEPTH
 70
  3020
  9
$CMLSTYLE
  2
Standard
  9
$CMLJUST
 70
     0
  9
$CMLSCALE
 40
1.0
  9
$PROXYGRAPHICS
 70
     1
  9
$MEASUREMENT
 70
     0
  9
$CELWEIGHT
370
    -1
  9
$ENDCAPS
280
     0
  9
$JOINSTYLE
280
     0
  9
$LWDISPLAY
290
     1
  9
$INSUNITS
 70
     1
  9
$HYPERLINKBASE
  1

  9
$STYLESHEET
  1

  9
$XEDIT
290
     1
  9
$CEPSNTYPE
380
     0
  9
$PSTYLEMODE
290
     1
  9
$FINGERPRINTGUID
  2
{AA13B7FE-E945-8747-8A7F-1DFA4BF08789}
  9
$VERSIONGUID
  2
{C35F4EAE-764B-F345-957A-CA080945A158}
  9
$EXTNAMES
290
     1
  9
$PSVPSCALE
 40
0.0
  9
$OLESTARTUP
290
     0
  9
$SORTENTS
280
   127
  9
$INDEXCTL
280
     0
  9
$HIDETEXT
280
     1
  9
$XCLIPFRAME
280
     2
  9
$HALOGAP
280
     0
  9
$OBSCOLOR
 70
   257
  9
$OBSLTYPE
280
     0
  9
$INTERSECTIONDISPLAY
280
     0
  9
$INTERSECTIONCOLOR
 70
   257
  9
$DIMASSOC
280
     2
  9
$PROJECTNAME
  1

  9
$CAMERADISPLAY
290
     0
  9
$LENSLENGTH
 40
50.0
  9
$CAMERAHEIGHT
 40
0.0
  9
$STEPSPERSEC
 40
2.0
  9
$STEPSIZE
 40
6.0
  9
$3DDWFPREC
 40
2.0
  9
$PSOLWIDTH
 40
0.25
  9
$PSOLHEIGHT
 40
4.0
  9
$LOFTANG1
 40
1.570796326794896
  9
$LOFTANG2
 40
1.570796326794896
  9
$LOFTMAG1
 40
0.0
  9
$LOFTMAG2
 40
0.0
  9
$LOFTPARAM
 70
     7
  9
$LOFTNORMALS
280
     1
  9
$LATITUDE
 40
37.795
  9
$LONGITUDE
 40
-122.394
  9
$NORTHDIRECTION
 40
0.0
  9
$TIMEZONE
 70
 -8000
  9
$LIGHTGLYPHDISPLAY
280
     1
  9
$TILEMODELIGHTSYNCH
280
     1
  9
$CMATERIAL
347
11
  9
$SOLIDHIST
280
     0
  9
$SHOWHIST
280
     1
  9
$DWFFRAME
280
     2
  9
$DGNFRAME
280
     0
  9
$REALWORLDSCALE
290
     1
  9
$INTERFERECOLOR
 62
     1
  9
$INTERFEREOBJVS
345
33
  9
$INTERFEREVPVS
346
30
  9
$CSHADOW
280
     0
  9
$SHADOWPLANELOCATION
 40
0.0
  0
ENDSEC
  0
SECTION
  2
CLASSES
  0
CLASS
  1
ACDBDICTIONARYWDFLT
  2
AcDbDictionaryWithDefault
  3
ObjectDBX Classes
 90
        0
 91
        1
280
     0
281
     0
  0
CLASS
  1
MATERIAL
  2
AcDbMaterial
  3
ObjectDBX Classes
 90
     1153
 91
        3
280
     0
281
     0
  0
CLASS
  1
VISUALSTYLE
  2
AcDbVisualStyle
  3
ObjectDBX Classes
 90
     4095
 91
       24
280
     0
281
     0
  0
CLASS
  1
SCALE
  2
AcDbScale
  3
ObjectDBX Classes
 90
     1153
 91
       17
280
     0
281
     0
  0
CLASS
  1
TABLESTYLE
  2
AcDbTableStyle
  3
ObjectDBX Classes
 90
     4095
 91
        1
280
     0
281
     0
  0
CLASS
  1
MLEADERSTYLE
  2
AcDbMLeaderStyle
  3
ACDB_MLEADERSTYLE_CLASS
 90
     4095
 91
        1
280
     0
281
     0
  0
CLASS
  1
ACDBSECTIONVIEWSTYLE
  2
AcDbSectionViewStyle
  3
ObjectDBX Classes
 90
     1025
 91
        1
280
     0
281
     0
  0
CLASS
  1
ACDBDETAILVIEWSTYLE
  2
AcDbDetailViewStyle
  3
ObjectDBX Classes
 90
     1025
 91
        1
280
     0
281
     0
  0
CLASS
  1
DICTIONARYVAR
  2
AcDbDictionaryVar
  3
ObjectDBX Classes
 90
        0
 91
        5
280
     0
281
     0
  0
CLASS
  1
CELLSTYLEMAP
  2
AcDbCellStyleMap
  3
ObjectDBX Classes
 90
     1152
 91
        1
280
     0
281
     0
  0
ENDSEC
  0
SECTION
  2
TABLES
  0
TABLE
  2
VPORT
  5
8
330
0
100
AcDbSymbolTable
 70
     1
1001
ACAD
1000
DbSaveVer
1071
      278
  0
VPORT
  5
57
330
8
100
AcDbSymbolTableRecord
100
AcDbViewportTableRecord
  2
*Active
 70
     0
 10
0.0
 20
0.0
 11
1.0
 21
1.0
 12
0.0
 22
0.0
 13
0.0
 23
0.0
 14
1.0
 24
1.0
 15
0.0
 25
0.0
 16
0.0
 26
0.0
 36
1.0
 17
35.55555555555555
 27
-6.0
 37
0.0
 40
12.24
 41
0.9999999999999996
 42
50.0
 43
0.0
 44
0.0
 50
0.0
 51
0.0
 71
     0
 72
   100
 73
     1
 74
     1
 75
     0
 76
     0
 77
     0
 78
     0
281
     0
 65
     1
110
0.0
120
0.0
130
0.0
111
1.0
121
0.0
131
0.0
112
0.0
122
1.0
132
0.0
 79
     0
146
0.0
 60
     3
 61
     5
292
     1
282
     1
141
0.0
142
0.0
 63
   250
421
  3355443
  0
ENDTAB
  0
TABLE
  2
LTYPE
  5
5
330
0
100
AcDbSymbolTable
 70
     1
  0
LTYPE
  5
5B
330
5
100
AcDbSymbolTableRecord
100
AcDbLinetypeTableRecord
  2
ByBlock
 70
     0
  3

 72
    65
 73
     0
 40
0.0
  0
LTYPE
  5
5C
330
5
100
AcDbSymbolTableRecord
100
AcDbLinetypeTableRecord
  2
ByLayer
 70
     0
  3

 72
    65
 73
     0
 40
0.0
  0
LTYPE
  5
5D
330
5
100
AcDbSymbolTableRecord
100
AcDbLinetypeTableRecord
  2
Continuous
 70
     0
  3
Solid line
 72
    65
 73
     0
 40
0.0
  0
ENDTAB
  0
TABLE
  2
LAYER
  5
2
330
0
100
AcDbSymbolTable
 70
     2
  0
LAYER
  5
54
330
2
100
AcDbSymbolTableRecord
100
AcDbLayerTableRecord
  2
0
 70
     0
 62
     7
  6
Continuous
370
    -3
390
F
347
21
348
0
  0
LAYER
  5
78
330
2
100
AcDbSymbolTableRecord
100
AcDbLayerTableRecord
  2
Слой 1
 70
     0
 62
     7
  6
Continuous
370
     0
390
F
347
21
348
0
  0
ENDTAB
  0
TABLE
  2
STYLE
  5
3
330
0
100
AcDbSymbolTable
 70
     2
  0
STYLE
  5
55
330
3
100
AcDbSymbolTableRecord
100
AcDbTextStyleTableRecord
  2
Standard
 70
     0
 40
0.0
 41
1.0
 50
0.0
 71
     0
 42
0.2
  3
txt
  4

  0
STYLE
  5
5A
330
3
100
AcDbSymbolTableRecord
100
AcDbTextStyleTableRecord
  2
Annotative
 70
     0
 40
0.0
 41
1.0
 50
0.0
 71
     0
 42
0.2
  3
txt
  4

1001
AcadAnnotative
1000
AnnotativeData
1002
{
1070
     1
1070
     1
1002
}
  0
ENDTAB
  0
TABLE
  2
VIEW
  5
6
330
0
100
AcDbSymbolTable
 70
     0
  0
ENDTAB
  0
TABLE
  2
UCS
  5
7
330
0
100
AcDbSymbolTable
 70
     0
  0
ENDTAB
  0
TABLE
  2
APPID
  5
9
330
0
100
AcDbSymbolTable
 70
     2
  0
APPID
  5
56
330
9
100
AcDbSymbolTableRecord
100
AcDbRegAppTableRecord
  2
ACAD
 70
     0
  0
APPID
  5
5E
330
9
100
AcDbSymbolTableRecord
100
AcDbRegAppTableRecord
  2
AcadAnnotative
 70
     0
  0
ENDTAB
  0
TABLE
  2
DIMSTYLE
  5
A
330
0
100
AcDbSymbolTable
 70
     2
100
AcDbDimStyleTable
 71
     0
  0
DIMSTYLE
105
58
330
A
100
AcDbSymbolTableRecord
100
AcDbDimStyleTableRecord
  2
Standard
 70
     0
340
55
  0
DIMSTYLE
105
59
330
A
100
AcDbSymbolTableRecord
100
AcDbDimStyleTableRecord
  2
Annotative
 70
     0
340
55
1001
AcadAnnotative
1000
AnnotativeData
1002
{
1070
     1
1070
     1
1002
}
  0
ENDTAB
  0
TABLE
  2
BLOCK_RECORD
  5
1
330
0
100
AcDbSymbolTable
 70
     2
  0
BLOCK_RECORD
  5
70
330
1
100
AcDbSymbolTableRecord
100
AcDbBlockTableRecord
  2
*Model_Space
340
73
 70
     0
280
     1
281
     0
  0
BLOCK_RECORD
  5
6C
330
1
100
AcDbSymbolTableRecord
100
AcDbBlockTableRecord
  2
*Paper_Space
340
6F
 70
     0
280
     1
281
     0
  0
BLOCK_RECORD
  5
74
330
1
100
AcDbSymbolTableRecord
100
AcDbBlockTableRecord
  2
*Paper_Space0
340
77
 70
     0
280
     1
281
     0
  0
BLOCK_RECORD
  5
79
330
1
100
AcDbSymbolTableRecord
100
AcDbBlockTableRecord
  2
Block_0
340
0
102
{BLKREFS
331
7A
102
}
 70
     0
280
     1
281
     0
  0
ENDTAB
  0
ENDSEC
  0
SECTION
  2
BLOCKS
  0
BLOCK
  5
71
330
70
100
AcDbEntity
  8
0
100
AcDbBlockBegin
  2
*Model_Space
 70
     0
 10
0.0
 20
0.0
 30
0.0
  3
*Model_Space
  1

  0
ENDBLK
  5
72
330
70
100
AcDbEntity
  8
0
100
AcDbBlockEnd
  0
BLOCK
  5
6D
330
6C
100
AcDbEntity
 67
     1
  8
0
100
AcDbBlockBegin
  2
*Paper_Space
 70
     0
 10
0.0
 20
0.0
 30
0.0
  3
*Paper_Space
  1

  0
ENDBLK
  5
6E
330
6C
100
AcDbEntity
 67
     1
  8
0
100
AcDbBlockEnd
  0
BLOCK
  5
75
330
74
100
AcDbEntity
 67
     1
  8
0
100
AcDbBlockBegin
  2
*Paper_Space0
 70
     0
 10
0.0
 20
0.0
 30
0.0
  3
*Paper_Space0
  1

  0
ENDBLK
  5
76
330
74
100
AcDbEntity
 67
     1
  8
0
100
AcDbBlockEnd
  0
BLOCK
  5
7B
330
79
100
AcDbEntity
  8
0
100
AcDbBlockBegin
  2
Block_0
 70
     0
 10
0.0
 20
0.0
 30
0.0
  3
Block_0
  1

  0
SPLINE
  5
7D
330
79
100
AcDbEntity
  8
Слой 1
100
AcDbSpline
210
0.0
220
0.0
230
1.0
 70
     9
 71
     3
 72
    77
 73
    73
 74
     0
 42
0.0000000001
 43
0.0000000001
 40
0.0
 40
0.0
 40
0.0
 40
0.0
 40
1.0
 40
1.0
 40
1.0
 40
2.0
 40
2.0
 40
2.0
 40
3.0
 40
3.0
 40
3.0
 40
4.0
 40
4.0
 40
4.0
 40
5.0
 40
5.0
 40
5.0
 40
6.0
 40
6.0
 40
6.0
 40
7.0
 40
7.0
 40
7.0
 40
8.0
 40
8.0
 40
8.0
 40
9.0
 40
9.0
 40
9.0
 40
10.0
 40
10.0
 40
10.0
 40
11.0
 40
11.0
 40
11.0
 40
12.0
 40
12.0
 40
12.0
 40
13.0
 40
13.0
 40
13.0
 40
14.0
 40
14.0
 40
14.0
 40
15.0
 40
15.0
 40
15.0
 40
16.0
 40
16.0
 40
16.0
 40
17.0
 40
17.0
 40
17.0
 40
18.0
 40
18.0
 40
18.0
 40
19.0
 40
19.0
 40
19.0
 40
20.0
 40
20.0
 40
20.0
 40
21.0
 40
21.0
 40
21.0
 40
22.0
 40
22.0
 40
22.0
 40
23.0
 40
23.0
 40
23.0
 40
24.0
 40
24.0
 40
24.0
 40
24.0
 10
29.94098077366958
 20
-4.558318844046614
 30
0.0
 10
30.1974517456218
 20
-4.559183414373124
 30
0.0
 10
30.45392254611112
 20
-4.560116231227071
 30
0.0
 10
30.71039420391445
 20
-4.560700613550011
 30
0.0
 10
30.72267067098695
 20
-4.560728392287235
 30
0.0
 10
30.74005389528293
 20
-4.564455544333958
 30
0.0
 10
30.74282455991167
 20
-4.547025930010881
 30
0.0
 10
30.74547202864096
 20
-4.530371033802313
 30
0.0
 10
30.72906708437737
 20
-4.521596725271225
 30
0.0
 10
30.71880770367708
 20
-4.511324765564065
 30
0.0
 10
30.51634197318791
 20
-4.30860377229131
 30
0.0
 10
30.3136731452139
 20
-4.106086146810538
 30
0.0
 10
30.11104238194389
 20
-3.903530111224249
 30
0.0
 10
30.00728558679389
 20
-3.799811851400527
 30
0.0
 10
30.00718610096166
 20
-3.799717540873113
 30
0.0
 10
30.1097655426082
 20
-3.697496589278317
 30
0.0
 10
30.2317934169818
 20
-3.575894309862544
 30
0.0
 10
30.35515046965848
 20
-3.455593515725846
 30
0.0
 10
30.47537899376625
 20
-3.332240489972352
 30
0.0
 10
30.50734078526264
 20
-3.299448548088788
 30
0.0
 10
30.52469850449292
 20
-3.297897740069288
 30
0.0
 10
30.55830119335249
 20
-3.331715094597218
 30
0.0
 10
30.94899551209179
 20
-3.72490219972667
 30
0.0
 10
31.34187940860834
 20
-4.115912274933344
 30
0.0
 10
31.73276645134249
 20
-4.508908701323004
 30
0.0
 10
31.76986650632054
 20
-4.546209029368784
 30
0.0
 10
31.80697376272931
 20
-4.562528865993852
 30
0.0
 10
31.86033379031763
 20
-4.562247306200902
 30
0.0
 10
32.26666712975472
 20
-4.560100112700575
 30
0.0
 10
32.67301710106694
 20
-4.561048019238821
 30
0.0
 10
33.0793617570375
 20
-4.561095688923513
 30
0.0
 10
33.15534062031095
 20
-4.561104605555012
 30
0.0
 10
33.15461396168737
 20
-4.561113865134175
 30
0.0
 10
33.14230911755013
 20
-4.634083463520647
 30
0.0
 10
33.10966091828222
 20
-4.827700232889898
 30
0.0
 10
33.10697169840207
 20
-5.021584158262852
 30
0.0
 10
33.14631105532028
 20
-5.214374424463736
 30
0.0
 10
33.15661527349832
 20
-5.264873425095768
 30
0.0
 10
33.14145763413209
 20
-5.275642658493678
 30
0.0
 10
33.09426906096415
 20
-5.27550033533416
 30
0.0
 10
32.68043766074278
 20
-5.274250978055015
 30
0.0
 10
32.26659854470305
 20
-5.27548215912293
 30
0.0
 10
31.85277005934596
 20
-5.273834982892089
 30
0.0
 10
31.8056449273514
 20
-5.273647047731527
 30
0.0
 10
31.77261522373278
 20
-5.288222654019275
 30
0.0
 10
31.73970691565596
 20
-5.321282437801388
 30
0.0
 10
31.34734443699598
 20
-5.715453801889919
 30
0.0
 10
30.95319943283973
 20
-6.107851099219512
 30
0.0
 10
30.56125313684639
 20
-6.502434686050264
 30
0.0
 10
30.52684324479236
 20
-6.537075114273041
 30
0.0
 10
30.50908220259278
 20
-6.540195935364685
 30
0.0
 10
30.47372240757221
 20
-6.503954628806139
 30
0.0
 10
30.33251131565168
 20
-6.359218491416489
 30
0.0
 10
30.18865299076277
 20
-6.217024279953546
 30
0.0
 10
30.04376958726096
 20
-6.075947391031073
 30
0.0
 10
30.01350767627264
 20
-6.046480666872841
 30
0.0
 10
30.01386003197568
 20
-6.02961314329362
 30
0.0
 10
30.04360851955347
 20
-6.000105951345479
 30
0.0
 10
30.26696192400666
 20
-5.778566063942762
 30
0.0
 10
30.48880087406931
 20
-5.555496288309692
 30
0.0
 10
30.71048379313861
 20
-5.332280074149277
 30
0.0
 10
30.72371504986318
 20
-5.318956911667075
 30
0.0
 10
30.75158561442459
 20
-5.308045355109356
 30
0.0
 10
30.73986888710598
 20
-5.284310996286067
 30
0.0
 10
30.73084017942847
 20
-5.266020584057147
 30
0.0
 10
30.70573402110959
 20
-5.275115891329164
 30
0.0
 10
30.68791948256972
 20
-5.275144355961224
 30
0.0
 10
30.43893932710555
 20
-5.275543889650255
 30
0.0
 10
30.18996017898416
 20
-5.276620401453087
 30
0.0
 10
29.94098077366958
 20
-5.277531612622586
 30
0.0
 10
29.94098077366958
 20
-5.037793908781345
 30
0.0
 10
29.94098077366958
 20
-4.798056547887299
 30
0.0
 10
29.94098077366958
 20
-4.558318844046614
 30
0.0
  0
HATCH
  5
7E
330
79
100
AcDbEntity
  8
Слой 1
 62
    18
420
        0
440
 33554687
100
AcDbHatch
 10
0.0
 20
0.0
 30
0.0
210
0.0
220
0.0
230
1.0
  2
SOLID
 70
     1
 71
     1
 91
        1
 92
        1
 93
        1
 72
     4
 94
        3
 73
     0
 74
     0
 95
       77
 96
       73
 40
0.0
 40
0.0
 40
0.0
 40
0.0
 40
1.0
 40
1.0
 40
1.0
 40
2.0
 40
2.0
 40
2.0
 40
3.0
 40
3.0
 40
3.0
 40
4.0
 40
4.0
 40
4.0
 40
5.0
 40
5.0
 40
5.0
 40
6.0
 40
6.0
 40
6.0
 40
7.0
 40
7.0
 40
7.0
 40
8.0
 40
8.0
 40
8.0
 40
9.0
 40
9.0
 40
9.0
 40
10.0
 40
10.0
 40
10.0
 40
11.0
 40
11.0
 40
11.0
 40
12.0
 40
12.0
 40
12.0
 40
13.0
 40
13.0
 40
13.0
 40
14.0
 40
14.0
 40
14.0
 40
15.0
 40
15.0
 40
15.0
 40
16.0
 40
16.0
 40
16.0
 40
17.0
 40
17.0
 40
17.0
 40
18.0
 40
18.0
 40
18.0
 40
19.0
 40
19.0
 40
19.0
 40
20.0
 40
20.0
 40
20.0
 40
21.0
 40
21.0
 40
21.0
 40
22.0
 40
22.0
 40
22.0
 40
23.0
 40
23.0
 40
23.0
 40
24.0
 40
24.0
 40
24.0
 40
24.0
 10
29.94098077366958
 20
-4.558318844046614
 10
30.1974517456218
 20
-4.559183414373124
 10
30.45392254611112
 20
-4.560116231227071
 10
30.71039420391445
 20
-4.560700613550011
 10
30.72267067098695
 20
-4.560728392287235
 10
30.74005389528293
 20
-4.564455544333958
 10
30.74282455991167
 20
-4.547025930010881
 10
30.74547202864096
 20
-4.530371033802313
 10
30.72906708437737
 20
-4.521596725271225
 10
30.71880770367708
 20
-4.511324765564065
 10
30.51634197318791
 20
-4.30860377229131
 10
30.3136731452139
 20
-4.106086146810538
 10
30.11104238194389
 20
-3.903530111224249
 10
30.00728558679389
 20
-3.799811851400527
 10
30.00718610096166
 20
-3.799717540873113
 10
30.1097655426082
 20
-3.697496589278317
 10
30.2317934169818
 20
-3.575894309862544
 10
30.35515046965848
 20
-3.455593515725846
 10
30.47537899376625
 20
-3.332240489972352
 10
30.50734078526264
 20
-3.299448548088788
 10
30.52469850449292
 20
-3.297897740069288
 10
30.55830119335249
 20
-3.331715094597218
 10
30.94899551209179
 20
-3.72490219972667
 10
31.34187940860834
 20
-4.115912274933344
 10
31.73276645134249
 20
-4.508908701323004
 10
31.76986650632054
 20
-4.546209029368784
 10
31.80697376272931
 20
-4.562528865993852
 10
31.86033379031763
 20
-4.562247306200902
 10
32.26666712975472
 20
-4.560100112700575
 10
32.67301710106694
 20
-4.561048019238821
 10
33.0793617570375
 20
-4.561095688923513
 10
33.15534062031095
 20
-4.561104605555012
 10
33.15461396168737
 20
-4.561113865134175
 10
33.14230911755013
 20
-4.634083463520647
 10
33.10966091828222
 20
-4.827700232889898
 10
33.10697169840207
 20
-5.021584158262852
 10
33.14631105532028
 20
-5.214374424463736
 10
33.15661527349832
 20
-5.264873425095768
 10
33.14145763413209
 20
-5.275642658493678
 10
33.09426906096415
 20
-5.27550033533416
 10
32.68043766074278
 20
-5.274250978055015
 10
32.26659854470305
 20
-5.27548215912293
 10
31.85277005934596
 20
-5.273834982892089
 10
31.8056449273514
 20
-5.273647047731527
 10
31.77261522373278
 20
-5.288222654019275
 10
31.73970691565596
 20
-5.321282437801388
 10
31.34734443699598
 20
-5.715453801889919
 10
30.95319943283973
 20
-6.107851099219512
 10
30.56125313684639
 20
-6.502434686050264
 10
30.52684324479236
 20
-6.537075114273041
 10
30.50908220259278
 20
-6.540195935364685
 10
30.47372240757221
 20
-6.503954628806139
 10
30.33251131565168
 20
-6.359218491416489
 10
30.18865299076277
 20
-6.217024279953546
 10
30.04376958726096
 20
-6.075947391031073
 10
30.01350767627264
 20
-6.046480666872841
 10
30.01386003197568
 20
-6.02961314329362
 10
30.04360851955347
 20
-6.000105951345479
 10
30.26696192400666
 20
-5.778566063942762
 10
30.48880087406931
 20
-5.555496288309692
 10
30.71048379313861
 20
-5.332280074149277
 10
30.72371504986318
 20
-5.318956911667075
 10
30.75158561442459
 20
-5.308045355109356
 10
30.73986888710598
 20
-5.284310996286067
 10
30.73084017942847
 20
-5.266020584057147
 10
30.70573402110959
 20
-5.275115891329164
 10
30.68791948256972
 20
-5.275144355961224
 10
30.43893932710555
 20
-5.275543889650255
 10
30.18996017898416
 20
-5.276620401453087
 10
29.94098077366958
 20
-5.277531612622586
 10
29.94098077366958
 20
-5.037793908781345
 10
29.94098077366958
 20
-4.798056547887299
 10
29.94098077366958
 20
-4.558318844046614
 97
        0
 97
        1
330
7D
 75
     2
 76
     1
 98
        1
 10
0.0
 20
0.0
450
        0
451
        0
460
0.0
461
0.0
452
        0
462
0.0
453
        0
470

  0
SPLINE
  5
7F
330
79
100
AcDbEntity
  8
Слой 1
100
AcDbSpline
210
0.0
220
0.0
230
1.0
 70
     9
 71
     3
 72
    47
 73
    43
 74
     0
 42
0.0000000001
 43
0.0000000001
 40
0.0
 40
0.0
 40
0.0
 40
0.0
 40
1.0
 40
1.0
 40
1.0
 40
2.0
 40
2.0
 40
2.0
 40
3.0
 40
3.0
 40
3.0
 40
4.0
 40
4.0
 40
4.0
 40
5.0
 40
5.0
 40
5.0
 40
6.0
 40
6.0
 40
6.0
 40
7.0
 40
7.0
 40
7.0
 40
8.0
 40
8.0
 40
8.0
 40
9.0
 40
9.0
 40
9.0
 40
10.0
 40
10.0
 40
10.0
 40
11.0
 40
11.0
 40
11.0
 40
12.0
 40
12.0
 40
12.0
 40
13.0
 40
13.0
 40
13.0
 40
14.0
 40
14.0
 40
14.0
 40
14.0
 10
39.26699161927139
 20
-5.384453343854602
 30
0.0
 10
39.26699161927139
 20
-4.496851357593552
 30
0.0
 10
39.26755813179943
 20
-3.609248685437945
 30
0.0
 10
39.26632017161473
 20
-2.721648070965733
 30
0.0
 10
39.26615350993916
 20
-2.602154917892183
 30
0.0
 10
39.26074352105555
 20
-2.482559566501385
 30
0.0
 10
39.23764133221819
 20
-2.364329488601368
 30
0.0
 10
39.17919863790571
 20
-2.065249371702255
 30
0.0
 10
39.02572655341499
 20
-1.901306809651575
 30
0.0
 10
38.74846805239151
 20
-1.86354727507392
 30
0.0
 10
38.5178000628836
 20
-1.832132952786158
 30
0.0
 10
38.27328543727445
 20
-1.919204718612364
 30
0.0
 10
38.16199521717276
 20
-2.187025696910078
 30
0.0
 10
38.09683941799347
 20
-2.343824665187172
 30
0.0
 10
38.07590863189486
 20
-2.50845175019381
 30
0.0
 10
38.07580026751293
 20
-2.675391500808283
 30
0.0
 10
38.07462471972611
 20
-4.480555870231998
 30
0.0
 10
38.07474131431361
 20
-6.285721439970984
 30
0.0
 10
38.07642850658709
 20
-8.090885294973178
 30
0.0
 10
38.07648748973181
 20
-8.153730401022333
 30
0.0
 10
38.06119302318722
 20
-8.184251345404087
 30
0.0
 10
37.99876896661999
 20
-8.208294699810469
 30
0.0
 10
37.79937164561554
 20
-8.285092276770985
 30
0.0
 10
37.6182446965511
 20
-8.394829948880516
 30
0.0
 10
37.47712340818305
 20
-8.558332852399619
 30
0.0
 10
37.165983205735
 20
-8.918817867856153
 30
0.0
 10
37.06977963947055
 20
-9.341357838615596
 30
0.0
 10
37.15755890382626
 20
-9.800546537412401
 30
0.0
 10
37.3167235476139
 20
-10.63316788677525
 30
0.0
 10
38.11868992963625
 20
-11.18500519009947
 30
0.0
 10
38.94880978955889
 20
-11.04415739002178
 30
0.0
 10
39.83485870164653
 20
-10.89381955024626
 30
0.0
 10
40.4264685572422
 20
-10.02620728044568
 30
0.0
 10
40.21376573619484
 20
-9.15684323546543
 30
0.0
 10
40.09670476983763
 20
-8.678384323795903
 30
0.0
 10
39.81655472303055
 20
-8.337332764161576
 30
0.0
 10
39.34136113430557
 20
-8.176043928880591
 30
0.0
 10
39.28105635583764
 20
-8.155576829677102
 30
0.0
 10
39.26574337132958
 20
-8.128894838185562
 30
0.0
 10
39.26585242156181
 20
-8.069732301024561
 30
0.0
 10
39.26749709110292
 20
-7.174641715932643
 30
0.0
 10
39.2669936768232
 20
-6.279547015472644
 30
0.0
 10
39.26699161927139
 20
-5.384453343854602
 30
0.0
  0
SPLINE
  5
80
330
79
100
AcDbEntity
  8
Слой 1
100
AcDbSpline
210
0.0
220
0.0
230
1.0
 70
     9
 71
     3
 72
    44
 73
    40
 74
     0
 42
0.0000000001
 43
0.0000000001
 40
0.0
 40
0.0
 40
0.0
 40
0.0
 40
1.0
 40
1.0
 40
1.0
 40
2.0
 40
2.0
 40
2.0
 40
3.0
 40
3.0
 40
3.0
 40
4.0
 40
4.0
 40
4.0
 40
5.0
 40
5.0
 40
5.0
 40
6.0
 40
6.0
 40
6.0
 40
7.0
 40
7.0
 40
7.0
 40
8.0
 40
8.0
 40
8.0
 40
9.0
 40
9.0
 40
9.0
 40
10.0
 40
10.0
 40
10.0
 40
11.0
 40
11.0
 40
11.0
 40
12.0
 40
12.0
 40
12.0
 40
13.0
 40
13.0
 40
13.0
 40
13.0
 10
39.94214012547207
 20
-4.709995893312717
 30
0.0
 10
39.94214286887457
 20
-5.573405343060281
 30
0.0
 10
39.94267646057723
 20
-6.436816507545194
 30
0.0
 10
39.94099955606152
 20
-7.300222184872356
 30
0.0
 10
39.94088158977194
 20
-7.36090672247312
 30
0.0
 10
39.95836254776721
 20
-7.396211782704439
 30
0.0
 10
40.01163187162471
 20
-7.430684852609399
 30
0.0
 10
40.63057904300431
 20
-7.831244640356771
 30
0.0
 10
41.01743096994929
 20
-8.393651581707823
 30
0.0
 10
41.13649393396763
 20
-9.121735027026462
 30
0.0
 10
41.35757373323818
 20
-10.47367129446446
 30
0.0
 10
40.46381448963082
 20
-11.6918944389664
 30
0.0
 10
39.19126617776404
 20
-11.94919825018511
 30
0.0
 10
37.88182322314984
 20
-12.21396185265497
 30
0.0
 10
36.61075429084973
 20
-11.42002976819733
 30
0.0
 10
36.2919058144336
 20
-10.12218590396211
 30
0.0
 10
36.0837666427307
 20
-9.274974887469674
 30
0.0
 10
36.29163147422638
 20
-8.518675104113929
 30
0.0
 10
36.86337224032513
 20
-7.862229249586435
 30
0.0
 10
36.99674616124543
 20
-7.709095702829067
 30
0.0
 10
37.1492806880782
 20
-7.575949128952919
 30
0.0
 10
37.31976940976291
 20
-7.465190159567377
 30
0.0
 10
37.36163509706264
 20
-7.437991689332218
 30
0.0
 10
37.37391182132917
 20
-7.407993396746607
 30
0.0
 10
37.37387890050445
 20
-7.359962245408925
 30
0.0
 10
37.37270746782014
 20
-5.648127402521494
 30
0.0
 10
37.37288441725389
 20
-3.93629221668665
 30
0.0
 10
37.37290567861999
 20
-2.224456687904143
 30
0.0
 10
37.37291390882597
 20
-1.571382006050738
 30
0.0
 10
37.82372345409625
 20
-1.033599371954905
 30
0.0
 10
38.4693728436807
 20
-0.9361473607887091
 30
0.0
 10
39.14025535966167
 20
-0.8348868333112907
 30
0.0
 10
39.77098612878583
 20
-1.270799522448505
 30
0.0
 10
39.91539744208722
 20
-1.936566943776647
 30
0.0
 10
39.93653947014486
 20
-2.034039960469676
 30
0.0
 10
39.9421805906532
 20
-2.132786683705313
 30
0.0
 10
39.94217304629693
 20
-2.232141795579662
 30
0.0
 10
39.9421106339
 20
-3.058093161490508
 30
0.0
 10
39.94213738207054
 20
-3.884044527401341
 30
0.0
 10
39.94214012547207
 20
-4.709995893312717
 30
0.0
  0
HATCH
  5
81
330
79
100
AcDbEntity
  8
Слой 1
 62
    18
420
        0
440
 33554687
100
AcDbHatch
 10
0.0
 20
0.0
 30
0.0
210
0.0
220
0.0
230
1.0
  2
SOLID
 70
     1
 71
     1
 91
        2
 92
        1
 93
        1
 72
     4
 94
        3
 73
     0
 74
     0
 95
       47
 96
       43
 40
0.0
 40
0.0
 40
0.0
 40
0.0
 40
1.0
 40
1.0
 40
1.0
 40
2.0
 40
2.0
 40
2.0
 40
3.0
 40
3.0
 40
3.0
 40
4.0
 40
4.0
 40
4.0
 40
5.0
 40
5.0
 40
5.0
 40
6.0
 40
6.0
 40
6.0
 40
7.0
 40
7.0
 40
7.0
 40
8.0
 40
8.0
 40
8.0
 40
9.0
 40
9.0
 40
9.0
 40
10.0
 40
10.0
 40
10.0
 40
11.0
 40
11.0
 40
11.0
 40
12.0
 40
12.0
 40
12.0
 40
13.0
 40
13.0
 40
13.0
 40
14.0
 40
14.0
 40
14.0
 40
14.0
 10
39.26699161927139
 20
-5.384453343854602
 10
39.26699161927139
 20
-4.496851357593552
 10
39.26755813179943
 20
-3.609248685437945
 10
39.26632017161473
 20
-2.721648070965733
 10
39.26615350993916
 20
-2.602154917892183
 10
39.26074352105555
 20
-2.482559566501385
 10
39.23764133221819
 20
-2.364329488601368
 10
39.17919863790571
 20
-2.065249371702255
 10
39.02572655341499
 20
-1.901306809651575
 10
38.74846805239151
 20
-1.86354727507392
 10
38.5178000628836
 20
-1.832132952786158
 10
38.27328543727445
 20
-1.919204718612364
 10
38.16199521717276
 20
-2.187025696910078
 10
38.09683941799347
 20
-2.343824665187172
 10
38.07590863189486
 20
-2.50845175019381
 10
38.07580026751293
 20
-2.675391500808283
 10
38.07462471972611
 20
-4.480555870231998
 10
38.07474131431361
 20
-6.285721439970984
 10
38.07642850658709
 20
-8.090885294973178
 10
38.07648748973181
 20
-8.153730401022333
 10
38.06119302318722
 20
-8.184251345404087
 10
37.99876896661999
 20
-8.208294699810469
 10
37.79937164561554
 20
-8.285092276770985
 10
37.6182446965511
 20
-8.394829948880516
 10
37.47712340818305
 20
-8.558332852399619
 10
37.165983205735
 20
-8.918817867856153
 10
37.06977963947055
 20
-9.341357838615596
 10
37.15755890382626
 20
-9.800546537412401
 10
37.3167235476139
 20
-10.63316788677525
 10
38.11868992963625
 20
-11.18500519009947
 10
38.94880978955889
 20
-11.04415739002178
 10
39.83485870164653
 20
-10.89381955024626
 10
40.4264685572422
 20
-10.02620728044568
 10
40.21376573619484
 20
-9.15684323546543
 10
40.09670476983763
 20
-8.678384323795903
 10
39.81655472303055
 20
-8.337332764161576
 10
39.34136113430557
 20
-8.176043928880591
 10
39.28105635583764
 20
-8.155576829677102
 10
39.26574337132958
 20
-8.128894838185562
 10
39.26585242156181
 20
-8.069732301024561
 10
39.26749709110292
 20
-7.174641715932643
 10
39.2669936768232
 20
-6.279547015472644
 10
39.26699161927139
 20
-5.384453343854602
 97
        0
 97
        1
330
7F
 92
        1
 93
        1
 72
     4
 94
        3
 73
     0
 74
     0
 95
       44
 96
       40
 40
0.0
 40
0.0
 40
0.0
 40
0.0
 40
1.0
 40
1.0
 40
1.0
 40
2.0
 40
2.0
 40
2.0
 40
3.0
 40
3.0
 40
3.0
 40
4.0
 40
4.0
 40
4.0
 40
5.0
 40
5.0
 40
5.0
 40
6.0
 40
6.0
 40
6.0
 40
7.0
 40
7.0
 40
7.0
 40
8.0
 40
8.0
 40
8.0
 40
9.0
 40
9.0
 40
9.0
 40
10.0
 40
10.0
 40
10.0
 40
11.0
 40
11.0
 40
11.0
 40
12.0
 40
12.0
 40
12.0
 40
13.0
 40
13.0
 40
13.0
 40
13.0
 10
39.94214012547207
 20
-4.709995893312717
 10
39.94214286887457
 20
-5.573405343060281
 10
39.94267646057723
 20
-6.436816507545194
 10
39.94099955606152
 20
-7.300222184872356
 10
39.94088158977194
 20
-7.36090672247312
 10
39.95836254776721
 20
-7.396211782704439
 10
40.01163187162471
 20
-7.430684852609399
 10
40.63057904300431
 20
-7.831244640356771
 10
41.01743096994929
 20
-8.393651581707823
 10
41.13649393396763
 20
-9.121735027026462
 10
41.35757373323818
 20
-10.47367129446446
 10
40.46381448963082
 20
-11.6918944389664
 10
39.19126617776404
 20
-11.94919825018511
 10
37.88182322314984
 20
-12.21396185265497
 10
36.61075429084973
 20
-11.42002976819733
 10
36.2919058144336
 20
-10.12218590396211
 10
36.0837666427307
 20
-9.274974887469674
 10
36.29163147422638
 20
-8.518675104113929
 10
36.86337224032513
 20
-7.862229249586435
 10
36.99674616124543
 20
-7.709095702829067
 10
37.1492806880782
 20
-7.575949128952919
 10
37.31976940976291
 20
-7.465190159567377
 10
37.36163509706264
 20
-7.437991689332218
 10
37.37391182132917
 20
-7.407993396746607
 10
37.37387890050445
 20
-7.359962245408925
 10
37.37270746782014
 20
-5.648127402521494
 10
37.37288441725389
 20
-3.93629221668665
 10
37.37290567861999
 20
-2.224456687904143
 10
37.37291390882597
 20
-1.571382006050738
 10
37.82372345409625
 20
-1.033599371954905
 10
38.4693728436807
 20
-0.9361473607887091
 10
39.14025535966167
 20
-0.8348868333112907
 10
39.77098612878583
 20
-1.270799522448505
 10
39.91539744208722
 20
-1.936566943776647
 10
39.93653947014486
 20
-2.034039960469676
 10
39.9421805906532
 20
-2.132786683705313
 10
39.94217304629693
 20
-2.232141795579662
 10
39.9421106339
 20
-3.058093161490508
 10
39.94213738207054
 20
-3.884044527401341
 10
39.94214012547207
 20
-4.709995893312717
 97
        0
 97
        1
330
80
 75
     2
 76
     1
 98
        1
 10
0.0
 20
0.0
450
        0
451
        0
460
0.0
461
0.0
452
        0
462
0.0
453
        0
470

  0
SPLINE
  5
82
330
79
100
AcDbEntity
  8
Слой 1
100
AcDbSpline
210
0.0
220
0.0
230
1.0
 70
     9
 71
     3
 72
    17
 73
    13
 74
     0
 42
0.0000000001
 43
0.0000000001
 40
0.0
 40
0.0
 40
0.0
 40
0.0
 40
1.0
 40
1.0
 40
1.0
 40
2.0
 40
2.0
 40
2.0
 40
3.0
 40
3.0
 40
3.0
 40
4.0
 40
4.0
 40
4.0
 40
4.0
 10
33.54654392586541
 20
-4.917312724326759
 30
0.0
 10
33.54769478303417
 20
-4.184956154744516
 30
0.0
 10
34.13722033890639
 20
-3.591898291957452
 30
0.0
 10
34.86806367932083
 20
-3.597716051188058
 30
0.0
 10
35.64052614377318
 20
-3.603864754633554
 30
0.0
 10
36.18950147363888
 20
-4.22930782372042
 30
0.0
 10
36.18587401025098
 20
-4.922216871756518
 30
0.0
 10
36.18205588041903
 20
-5.651575052459469
 30
0.0
 10
35.5912412684982
 20
-6.244776953142793
 30
0.0
 10
34.86036946528793
 20
-6.238822700858058
 30
0.0
 10
34.10340276450612
 20
-6.232655821201888
 30
0.0
 10
33.54158934172513
 20
-5.621600080294809
 30
0.0
 10
33.54654392586541
 20
-4.917312724326759
 30
0.0
  0
HATCH
  5
83
330
79
100
AcDbEntity
  8
Слой 1
 62
    18
420
        0
440
 33554687
100
AcDbHatch
 10
0.0
 20
0.0
 30
0.0
210
0.0
220
0.0
230
1.0
  2
SOLID
 70
     1
 71
     1
 91
        1
 92
        1
 93
        1
 72
     4
 94
        3
 73
     0
 74
     0
 95
       17
 96
       13
 40
0.0
 40
0.0
 40
0.0
 40
0.0
 40
1.0
 40
1.0
 40
1.0
 40
2.0
 40
2.0
 40
2.0
 40
3.0
 40
3.0
 40
3.0
 40
4.0
 40
4.0
 40
4.0
 40
4.0
 10
33.54654392586541
 20
-4.917312724326759
 10
33.54769478303417
 20
-4.184956154744516
 10
34.13722033890639
 20
-3.591898291957452
 10
34.86806367932083
 20
-3.597716051188058
 10
35.64052614377318
 20
-3.603864754633554
 10
36.18950147363888
 20
-4.22930782372042
 10
36.18587401025098
 20
-4.922216871756518
 10
36.18205588041903
 20
-5.651575052459469
 10
35.5912412684982
 20
-6.244776953142793
 10
34.86036946528793
 20
-6.238822700858058
 10
34.10340276450612
 20
-6.232655821201888
 10
33.54158934172513
 20
-5.621600080294809
 10
33.54654392586541
 20
-4.917312724326759
 97
        0
 97
        1
330
82
 75
     2
 76
     1
 98
        1
 10
0.0
 20
0.0
450
        0
451
        0
460
0.0
461
0.0
452
        0
462
0.0
453
        0
470

  0
SPLINE
  5
84
330
79
100
AcDbEntity
  8
Слой 1
100
AcDbSpline
210
0.0
220
0.0
230
1.0
 70
     9
 71
     3
 72
    86
 73
    82
 74
     0
 42
0.0000000001
 43
0.0000000001
 40
0.0
 40
0.0
 40
0.0
 40
0.0
 40
1.0
 40
1.0
 40
1.0
 40
2.0
 40
2.0
 40
2.0
 40
3.0
 40
3.0
 40
3.0
 40
4.0
 40
4.0
 40
4.0
 40
5.0
 40
5.0
 40
5.0
 40
6.0
 40
6.0
 40
6.0
 40
7.0
 40
7.0
 40
7.0
 40
8.0
 40
8.0
 40
8.0
 40
9.0
 40
9.0
 40
9.0
 40
10.0
 40
10.0
 40
10.0
 40
11.0
 40
11.0
 40
11.0
 40
12.0
 40
12.0
 40
12.0
 40
13.0
 40
13.0
 40
13.0
 40
14.0
 40
14.0
 40
14.0
 40
15.0
 40
15.0
 40
15.0
 40
16.0
 40
16.0
 40
16.0
 40
17.0
 40
17.0
 40
17.0
 40
18.0
 40
18.0
 40
18.0
 40
19.0
 40
19.0
 40
19.0
 40
20.0
 40
20.0
 40
20.0
 40
21.0
 40
21.0
 40
21.0
 40
22.0
 40
22.0
 40
22.0
 40
23.0
 40
23.0
 40
23.0
 40
24.0
 40
24.0
 40
24.0
 40
25.0
 40
25.0
 40
25.0
 40
26.0
 40
26.0
 40
26.0
 40
27.0
 40
27.0
 40
27.0
 40
27.0
 10
32.1932614061607
 20
-8.072858609273932
 30
0.0
 10
32.10613129932027
 20
-8.158917137087225
 30
0.0
 10
32.0211244142193
 20
-8.242690263608766
 30
0.0
 10
31.93633134301818
 20
-8.326680132870377
 30
0.0
 10
31.84319644343224
 20
-8.418931604340084
 30
0.0
 10
31.74952778068124
 20
-8.510664539382231
 30
0.0
 10
31.65773989151277
 20
-8.604241159500158
 30
0.0
 10
31.63426442853084
 20
-8.628174770747111
 30
0.0
 10
31.62010693068237
 20
-8.630919721518163
 30
0.0
 10
31.5951148807436
 20
-8.605225418460021
 30
0.0
 10
31.44888486333179
 20
-8.454883463316162
 30
0.0
 10
31.30159014872305
 20
-8.305555260605892
 30
0.0
 10
31.15291361678318
 20
-8.157634513913409
 30
0.0
 10
31.12449145694291
 20
-8.129358503033421
 30
0.0
 10
31.12675544950195
 20
-8.113051355461088
 30
0.0
 10
31.15431815291236
 20
-8.086181428809267
 30
0.0
 10
31.31924917065819
 20
-7.92539741206095
 30
0.0
 10
31.48260264648181
 20
-7.762994683713587
 30
0.0
 10
31.64608729121735
 20
-7.600733249683798
 30
0.0
 10
31.65879095743111
 20
-7.588124446578704
 30
0.0
 10
31.68298862100806
 20
-7.576394960536996
 30
0.0
 10
31.6759283043161
 20
-7.557256439455764
 30
0.0
 10
31.66710346570514
 20
-7.533335174314363
 30
0.0
 10
31.63975363314888
 20
-7.544869180353644
 30
0.0
 10
31.62089102928682
 20
-7.544804706247354
 30
0.0
 10
31.31001393624334
 20
-7.543746370655171
 30
0.0
 10
30.99912904165098
 20
-7.5427099836949
 30
0.0
 10
30.68825932150099
 20
-7.544303317188526
 30
0.0
 10
30.64089294158624
 20
-7.544545438033714
 30
0.0
 10
30.62835023591651
 20
-7.529933822271989
 30
0.0
 10
30.62895695643028
 20
-7.483574882323737
 30
0.0
 10
30.63155474386306
 20
-7.285081744261433
 30
0.0
 10
30.63233532748333
 20
-7.086505612935575
 30
0.0
 10
30.62922619562429
 20
-6.888031679926193
 30
0.0
 10
30.62835713728666
 20
-6.832553769337764
 30
0.0
 10
30.64638021724972
 20
-6.819938107285072
 30
0.0
 10
30.69911256301763
 20
-6.82043606687014
 30
0.0
 10
31.25143818693111
 20
-6.825646123356565
 30
0.0
 10
31.80379141632708
 20
-6.827898601700503
 30
0.0
 10
32.35611986937334
 20
-6.83287819755224
 30
0.0
 10
32.40338714388847
 20
-6.833304824084178
 30
0.0
 10
32.43599950746668
 20
-6.818398273581806
 30
0.0
 10
32.46894828072348
 20
-6.785562434434218
 30
0.0
 10
32.76474789318015
 20
-6.490782020220371
 30
0.0
 10
33.06250320838737
 20
-6.197964636767791
 30
0.0
 10
33.35840004015472
 20
-5.903280933713227
 30
0.0
 10
33.38927737338612
 20
-5.872530214591821
 30
0.0
 10
33.40443947077999
 20
-5.867165145892891
 30
0.0
 10
33.43196745300818
 20
-5.907979312719437
 30
0.0
 10
33.54723251978526
 20
-6.0788706744361
 30
0.0
 10
33.69064386303166
 20
-6.223371549927858
 30
0.0
 10
33.85995703692917
 20
-6.340915390134871
 30
0.0
 10
33.89715962655916
 20
-6.366742756774151
 30
0.0
 10
33.90106623110806
 20
-6.381562884538147
 30
0.0
 10
33.86738582681098
 20
-6.414692972531636
 30
0.0
 10
33.57767433793738
 20
-6.699671950833235
 30
0.0
 10
33.29048094923974
 20
-6.987214803693404
 30
0.0
 10
33.00012956183319
 20
-7.271534637144945
 30
0.0
 10
32.95020204462263
 20
-7.320424528703723
 30
0.0
 10
32.9253337907021
 20
-7.368318501092162
 30
0.0
 10
32.92578233694111
 20
-7.441468489796786
 30
0.0
 10
32.92861970053251
 20
-7.90403933558332
 30
0.0
 10
32.92608136776681
 20
-8.366645847896405
 30
0.0
 10
32.92464999773597
 20
-8.829238642314773
 30
0.0
 10
32.92438937453959
 20
-8.913427421052093
 30
0.0
 10
32.9198963677982
 20
-8.99760385368409
 30
0.0
 10
32.91967243760402
 20
-9.081791946526612
 30
0.0
 10
32.91957538975612
 20
-9.11830143793059
 30
0.0
 10
32.90489853160291
 20
-9.130799126086886
 30
0.0
 10
32.8692010409332
 20
-9.130568665452756
 30
0.0
 10
32.66320755257473
 20
-9.12923665785691
 30
0.0
 10
32.45719366016349
 20
-9.128132367316815
 30
0.0
 10
32.25121251711446
 20
-9.129919809023249
 30
0.0
 10
32.20215637298667
 20
-9.130345063765616
 30
0.0
 10
32.20312496538069
 20
-9.103833174170604
 30
0.0
 10
32.20323161513597
 20
-9.069314149317985
 30
0.0
 10
32.20420895212388
 20
-8.75280253188488
 30
0.0
 10
32.20448980791096
 20
-8.43628954266243
 30
0.0
 10
32.20470413619763
 20
-8.119776553439981
 30
0.0
 10
32.20471270932917
 20
-8.10718764128233
 30
0.0
 10
32.20974702359126
 20
-8.093676886586939
 30
0.0
 10
32.1932614061607
 20
-8.072858609273932
 30
0.0
  0
HATCH
  5
85
330
79
100
AcDbEntity
  8
Слой 1
 62
    18
420
        0
440
 33554687
100
AcDbHatch
 10
0.0
 20
0.0
 30
0.0
210
0.0
220
0.0
230
1.0
  2
SOLID
 70
     1
 71
     1
 91
        1
 92
        1
 93
        1
 72
     4
 94
        3
 73
     0
 74
     0
 95
       86
 96
       82
 40
0.0
 40
0.0
 40
0.0
 40
0.0
 40
1.0
 40
1.0
 40
1.0
 40
2.0
 40
2.0
 40
2.0
 40
3.0
 40
3.0
 40
3.0
 40
4.0
 40
4.0
 40
4.0
 40
5.0
 40
5.0
 40
5.0
 40
6.0
 40
6.0
 40
6.0
 40
7.0
 40
7.0
 40
7.0
 40
8.0
 40
8.0
 40
8.0
 40
9.0
 40
9.0
 40
9.0
 40
10.0
 40
10.0
 40
10.0
 40
11.0
 40
11.0
 40
11.0
 40
12.0
 40
12.0
 40
12.0
 40
13.0
 40
13.0
 40
13.0
 40
14.0
 40
14.0
 40
14.0
 40
15.0
 40
15.0
 40
15.0
 40
16.0
 40
16.0
 40
16.0
 40
17.0
 40
17.0
 40
17.0
 40
18.0
 40
18.0
 40
18.0
 40
19.0
 40
19.0
 40
19.0
 40
20.0
 40
20.0
 40
20.0
 40
21.0
 40
21.0
 40
21.0
 40
22.0
 40
22.0
 40
22.0
 40
23.0
 40
23.0
 40
23.0
 40
24.0
 40
24.0
 40
24.0
 40
25.0
 40
25.0
 40
25.0
 40
26.0
 40
26.0
 40
26.0
 40
27.0
 40
27.0
 40
27.0
 40
27.0
 10
32.1932614061607
 20
-8.072858609273932
 10
32.10613129932027
 20
-8.158917137087225
 10
32.0211244142193
 20
-8.242690263608766
 10
31.93633134301818
 20
-8.326680132870377
 10
31.84319644343224
 20
-8.418931604340084
 10
31.74952778068124
 20
-8.510664539382231
 10
31.65773989151277
 20
-8.604241159500158
 10
31.63426442853084
 20
-8.628174770747111
 10
31.62010693068237
 20
-8.630919721518163
 10
31.5951148807436
 20
-8.605225418460021
 10
31.44888486333179
 20
-8.454883463316162
 10
31.30159014872305
 20
-8.305555260605892
 10
31.15291361678318
 20
-8.157634513913409
 10
31.12449145694291
 20
-8.129358503033421
 10
31.12675544950195
 20
-8.113051355461088
 10
31.15431815291236
 20
-8.086181428809267
 10
31.31924917065819
 20
-7.92539741206095
 10
31.48260264648181
 20
-7.762994683713587
 10
31.64608729121735
 20
-7.600733249683798
 10
31.65879095743111
 20
-7.588124446578704
 10
31.68298862100806
 20
-7.576394960536996
 10
31.6759283043161
 20
-7.557256439455764
 10
31.66710346570514
 20
-7.533335174314363
 10
31.63975363314888
 20
-7.544869180353644
 10
31.62089102928682
 20
-7.544804706247354
 10
31.31001393624334
 20
-7.543746370655171
 10
30.99912904165098
 20
-7.5427099836949
 10
30.68825932150099
 20
-7.544303317188526
 10
30.64089294158624
 20
-7.544545438033714
 10
30.62835023591651
 20
-7.529933822271989
 10
30.62895695643028
 20
-7.483574882323737
 10
30.63155474386306
 20
-7.285081744261433
 10
30.63233532748333
 20
-7.086505612935575
 10
30.62922619562429
 20
-6.888031679926193
 10
30.62835713728666
 20
-6.832553769337764
 10
30.64638021724972
 20
-6.819938107285072
 10
30.69911256301763
 20
-6.82043606687014
 10
31.25143818693111
 20
-6.825646123356565
 10
31.80379141632708
 20
-6.827898601700503
 10
32.35611986937334
 20
-6.83287819755224
 10
32.40338714388847
 20
-6.833304824084178
 10
32.43599950746668
 20
-6.818398273581806
 10
32.46894828072348
 20
-6.785562434434218
 10
32.76474789318015
 20
-6.490782020220371
 10
33.06250320838737
 20
-6.197964636767791
 10
33.35840004015472
 20
-5.903280933713227
 10
33.38927737338612
 20
-5.872530214591821
 10
33.40443947077999
 20
-5.867165145892891
 10
33.43196745300818
 20
-5.907979312719437
 10
33.54723251978526
 20
-6.0788706744361
 10
33.69064386303166
 20
-6.223371549927858
 10
33.85995703692917
 20
-6.340915390134871
 10
33.89715962655916
 20
-6.366742756774151
 10
33.90106623110806
 20
-6.381562884538147
 10
33.86738582681098
 20
-6.414692972531636
 10
33.57767433793738
 20
-6.699671950833235
 10
33.29048094923974
 20
-6.987214803693404
 10
33.00012956183319
 20
-7.271534637144945
 10
32.95020204462263
 20
-7.320424528703723
 10
32.9253337907021
 20
-7.368318501092162
 10
32.92578233694111
 20
-7.441468489796786
 10
32.92861970053251
 20
-7.90403933558332
 10
32.92608136776681
 20
-8.366645847896405
 10
32.92464999773597
 20
-8.829238642314773
 10
32.92438937453959
 20
-8.913427421052093
 10
32.9198963677982
 20
-8.99760385368409
 10
32.91967243760402
 20
-9.081791946526612
 10
32.91957538975612
 20
-9.11830143793059
 10
32.90489853160291
 20
-9.130799126086886
 10
32.8692010409332
 20
-9.130568665452756
 10
32.66320755257473
 20
-9.12923665785691
 10
32.45719366016349
 20
-9.128132367316815
 10
32.25121251711446
 20
-9.129919809023249
 10
32.20215637298667
 20
-9.130345063765616
 10
32.20312496538069
 20
-9.103833174170604
 10
32.20323161513597
 20
-9.069314149317985
 10
32.20420895212388
 20
-8.75280253188488
 10
32.20448980791096
 20
-8.43628954266243
 10
32.20470413619763
 20
-8.119776553439981
 10
32.20471270932917
 20
-8.10718764128233
 10
32.20974702359126
 20
-8.093676886586939
 10
32.1932614061607
 20
-8.072858609273932
 97
        0
 97
        1
330
84
 75
     2
 76
     1
 98
        1
 10
0.0
 20
0.0
450
        0
451
        0
460
0.0
461
0.0
452
        0
462
0.0
453
        0
470

  0
SPLINE
  5
86
330
79
100
AcDbEntity
  8
Слой 1
100
AcDbSpline
210
0.0
220
0.0
230
1.0
 70
     9
 71
     3
 72
    86
 73
    82
 74
     0
 42
0.0000000001
 43
0.0000000001
 40
0.0
 40
0.0
 40
0.0
 40
0.0
 40
1.0
 40
1.0
 40
1.0
 40
2.0
 40
2.0
 40
2.0
 40
3.0
 40
3.0
 40
3.0
 40
4.0
 40
4.0
 40
4.0
 40
5.0
 40
5.0
 40
5.0
 40
6.0
 40
6.0
 40
6.0
 40
7.0
 40
7.0
 40
7.0
 40
8.0
 40
8.0
 40
8.0
 40
9.0
 40
9.0
 40
9.0
 40
10.0
 40
10.0
 40
10.0
 40
11.0
 40
11.0
 40
11.0
 40
12.0
 40
12.0
 40
12.0
 40
13.0
 40
13.0
 40
13.0
 40
14.0
 40
14.0
 40
14.0
 40
15.0
 40
15.0
 40
15.0
 40
16.0
 40
16.0
 40
16.0
 40
17.0
 40
17.0
 40
17.0
 40
18.0
 40
18.0
 40
18.0
 40
19.0
 40
19.0
 40
19.0
 40
20.0
 40
20.0
 40
20.0
 40
21.0
 40
21.0
 40
21.0
 40
22.0
 40
22.0
 40
22.0
 40
23.0
 40
23.0
 40
23.0
 40
24.0
 40
24.0
 40
24.0
 40
25.0
 40
25.0
 40
25.0
 40
26.0
 40
26.0
 40
26.0
 40
27.0
 40
27.0
 40
27.0
 40
27.0
 10
32.20471888198404
 20
-1.75780785490906
 30
0.0
 10
32.20471888198404
 20
-1.639201906688425
 30
0.0
 10
32.2048500508954
 20
-1.522091551960468
 30
0.0
 10
32.20469059064999
 20
-1.404981368705825
 30
0.0
 10
32.20439979003029
 20
-1.191492170877621
 30
0.0
 10
32.20495995844069
 20
-0.9779921702065369
 30
0.0
 10
32.2026933939425
 20
-0.7645230347996201
 30
0.0
 10
32.20223267385695
 20
-0.7211223588883639
 30
0.0
 10
32.21372409928083
 20
-0.705968714803766
 30
0.0
 10
32.25925771514944
 20
-0.7063720209142225
 30
0.0
 10
32.45773085258166
 20
-0.7081298834100381
 30
0.0
 10
32.6562693172757
 20
-0.7080585503564281
 30
0.0
 10
32.85470867656987
 20
-0.7044775796273749
 30
0.0
 10
32.90919264169376
 20
-0.7034944352466507
 30
0.0
 10
32.91934974493526
 20
-0.7245729238788828
 30
0.0
 10
32.9202070580825
 20
-0.7732596191192317
 30
0.0
 10
32.92990292685097
 20
-1.323726504742328
 30
0.0
 10
32.92445967421736
 20
-1.874246204260164
 30
0.0
 10
32.92672023752375
 20
-2.424731437567528
 30
0.0
 10
32.9269215346507
 20
-2.473738445654261
 30
0.0
 10
32.94182369469902
 20
-2.507623189341264
 30
0.0
 10
32.97685145233749
 20
-2.541989259666113
 30
0.0
 10
33.27492894582598
 20
-2.834434716692587
 30
0.0
 10
33.57077228125263
 20
-3.12915665837934
 30
0.0
 10
33.86816495299902
 20
-3.422303614256722
 30
0.0
 10
33.89656430830986
 20
-3.450297036501814
 30
0.0
 10
33.9043555701907
 20
-3.464852751841855
 30
0.0
 10
33.86450251123501
 20
-3.492292314079993
 30
0.0
 10
33.69320482886458
 20
-3.610232944397289
 30
0.0
 10
33.54837034579388
 20
-3.756018843694757
 30
0.0
 10
33.43194996381986
 20
-3.928467529431094
 30
0.0
 10
33.40441100798376
 20
-3.96926043352006
 30
0.0
 10
33.38935110231624
 20
-3.963582596817142
 30
0.0
 10
33.35835408817027
 20
-3.932697442325737
 30
0.0
 10
33.06122581179791
 20
-3.636639892096076
 30
0.0
 10
32.76225414069793
 20
-3.342433914731448
 30
0.0
 10
32.46486506966653
 20
-3.046636661557347
 30
0.0
 10
32.43502885752097
 20
-3.016960053607489
 30
0.0
 10
32.40528026277959
 20
-3.002584042690778
 30
0.0
 10
32.3619463409836
 20
-3.002906756168486
 30
0.0
 10
31.97808712277265
 20
-3.005766594309458
 30
0.0
 10
31.59415554733207
 20
-3.002939336168891
 30
0.0
 10
31.21036577148584
 20
-3.009185093720803
 30
0.0
 10
31.04193485854792
 20
-3.011926615018283
 30
0.0
 10
30.87351080411554
 20
-3.011278444483637
 30
0.0
 10
30.70510621069194
 20
-3.014128680098299
 30
0.0
 10
30.63064513461374
 20
-3.015389354640521
 30
0.0
 10
30.63059446740693
 20
-3.014291923047747
 30
0.0
 10
30.63051722349277
 20
-2.942426615201396
 30
0.0
 10
30.63030576720472
 20
-2.745788308004661
 30
0.0
 10
30.63169405724958
 20
-2.549127023334348
 30
0.0
 10
30.62881121319528
 20
-2.352528155085337
 30
0.0
 10
30.62810290107306
 20
-2.30422161700729
 30
0.0
 10
30.6443350967379
 20
-2.292651258547202
 30
0.0
 10
30.68970380842236
 20
-2.292788608969721
 30
0.0
 10
31.00054772344679
 20
-2.29373017098136
 30
0.0
 10
31.31139926855818
 20
-2.292432286649664
 30
0.0
 10
31.62224661283487
 20
-2.291342228425214
 30
0.0
 10
31.64015159791193
 20
-2.291279469056235
 30
0.0
 10
31.66544919425668
 20
-2.300311845484922
 30
0.0
 10
31.67437776775874
 20
-2.2826325654745
 30
0.0
 10
31.6861954865664
 20
-2.259231894444825
 30
0.0
 10
31.65849295538138
 20
-2.247911201671273
 30
0.0
 10
31.6451648222707
 20
-2.234641367505547
 30
0.0
 10
31.48327117927417
 20
-2.073454216120593
 30
0.0
 10
31.32141671548819
 20
-1.912206534524683
 30
0.0
 10
31.15743834411124
 20
-1.753153887587611
 30
0.0
 10
31.12531996436807
 20
-1.722000376777221
 30
0.0
 10
31.12638757643041
 20
-1.704340987713963
 30
0.0
 10
31.1576269530032
 20
-1.67353728322319
 30
0.0
 10
31.302954476865
 20
-1.530237409430785
 30
0.0
 10
31.44681136575415
 20
-1.385401645829574
 30
0.0
 10
31.58882237370653
 20
-1.23881719357482
 30
0.0
 10
31.61896378933208
 20
-1.207705007922527
 30
0.0
 10
31.63491530067262
 20
-1.210481681325568
 30
0.0
 10
31.6637695463389
 20
-1.239500687688342
 30
0.0
 10
31.82484359796737
 20
-1.40149479424138
 30
0.0
 10
31.98786340751429
 20
-1.561556906769876
 30
0.0
 10
32.15066220173195
 20
-1.7218280457219
 30
0.0
 10
32.16450918075834
 20
-1.735459860840036
 30
0.0
 10
32.17481854281472
 20
-1.75530228140398
 30
0.0
 10
32.20471888198404
 20
-1.75780785490906
 30
0.0
  0
HATCH
  5
87
330
79
100
AcDbEntity
  8
Слой 1
 62
    18
420
        0
440
 33554687
100
AcDbHatch
 10
0.0
 20
0.0
 30
0.0
210
0.0
220
0.0
230
1.0
  2
SOLID
 70
     1
 71
     1
 91
        1
 92
        1
 93
        1
 72
     4
 94
        3
 73
     0
 74
     0
 95
       86
 96
       82
 40
0.0
 40
0.0
 40
0.0
 40
0.0
 40
1.0
 40
1.0
 40
1.0
 40
2.0
 40
2.0
 40
2.0
 40
3.0
 40
3.0
 40
3.0
 40
4.0
 40
4.0
 40
4.0
 40
5.0
 40
5.0
 40
5.0
 40
6.0
 40
6.0
 40
6.0
 40
7.0
 40
7.0
 40
7.0
 40
8.0
 40
8.0
 40
8.0
 40
9.0
 40
9.0
 40
9.0
 40
10.0
 40
10.0
 40
10.0
 40
11.0
 40
11.0
 40
11.0
 40
12.0
 40
12.0
 40
12.0
 40
13.0
 40
13.0
 40
13.0
 40
14.0
 40
14.0
 40
14.0
 40
15.0
 40
15.0
 40
15.0
 40
16.0
 40
16.0
 40
16.0
 40
17.0
 40
17.0
 40
17.0
 40
18.0
 40
18.0
 40
18.0
 40
19.0
 40
19.0
 40
19.0
 40
20.0
 40
20.0
 40
20.0
 40
21.0
 40
21.0
 40
21.0
 40
22.0
 40
22.0
 40
22.0
 40
23.0
 40
23.0
 40
23.0
 40
24.0
 40
24.0
 40
24.0
 40
25.0
 40
25.0
 40
25.0
 40
26.0
 40
26.0
 40
26.0
 40
27.0
 40
27.0
 40
27.0
 40
27.0
 10
32.20471888198404
 20
-1.75780785490906
 10
32.20471888198404
 20
-1.639201906688425
 10
32.2048500508954
 20
-1.522091551960468
 10
32.20469059064999
 20
-1.404981368705825
 10
32.20439979003029
 20
-1.191492170877621
 10
32.20495995844069
 20
-0.9779921702065369
 10
32.2026933939425
 20
-0.7645230347996201
 10
32.20223267385695
 20
-0.7211223588883639
 10
32.21372409928083
 20
-0.705968714803766
 10
32.25925771514944
 20
-0.7063720209142225
 10
32.45773085258166
 20
-0.7081298834100381
 10
32.6562693172757
 20
-0.7080585503564281
 10
32.85470867656987
 20
-0.7044775796273749
 10
32.90919264169376
 20
-0.7034944352466507
 10
32.91934974493526
 20
-0.7245729238788828
 10
32.9202070580825
 20
-0.7732596191192317
 10
32.92990292685097
 20
-1.323726504742328
 10
32.92445967421736
 20
-1.874246204260164
 10
32.92672023752375
 20
-2.424731437567528
 10
32.9269215346507
 20
-2.473738445654261
 10
32.94182369469902
 20
-2.507623189341264
 10
32.97685145233749
 20
-2.541989259666113
 10
33.27492894582598
 20
-2.834434716692587
 10
33.57077228125263
 20
-3.12915665837934
 10
33.86816495299902
 20
-3.422303614256722
 10
33.89656430830986
 20
-3.450297036501814
 10
33.9043555701907
 20
-3.464852751841855
 10
33.86450251123501
 20
-3.492292314079993
 10
33.69320482886458
 20
-3.610232944397289
 10
33.54837034579388
 20
-3.756018843694757
 10
33.43194996381986
 20
-3.928467529431094
 10
33.40441100798376
 20
-3.96926043352006
 10
33.38935110231624
 20
-3.963582596817142
 10
33.35835408817027
 20
-3.932697442325737
 10
33.06122581179791
 20
-3.636639892096076
 10
32.76225414069793
 20
-3.342433914731448
 10
32.46486506966653
 20
-3.046636661557347
 10
32.43502885752097
 20
-3.016960053607489
 10
32.40528026277959
 20
-3.002584042690778
 10
32.3619463409836
 20
-3.002906756168486
 10
31.97808712277265
 20
-3.005766594309458
 10
31.59415554733207
 20
-3.002939336168891
 10
31.21036577148584
 20
-3.009185093720803
 10
31.04193485854792
 20
-3.011926615018283
 10
30.87351080411554
 20
-3.011278444483637
 10
30.70510621069194
 20
-3.014128680098299
 10
30.63064513461374
 20
-3.015389354640521
 10
30.63059446740693
 20
-3.014291923047747
 10
30.63051722349277
 20
-2.942426615201396
 10
30.63030576720472
 20
-2.745788308004661
 10
30.63169405724958
 20
-2.549127023334348
 10
30.62881121319528
 20
-2.352528155085337
 10
30.62810290107306
 20
-2.30422161700729
 10
30.6443350967379
 20
-2.292651258547202
 10
30.68970380842236
 20
-2.292788608969721
 10
31.00054772344679
 20
-2.29373017098136
 10
31.31139926855818
 20
-2.292432286649664
 10
31.62224661283487
 20
-2.291342228425214
 10
31.64015159791193
 20
-2.291279469056235
 10
31.66544919425668
 20
-2.300311845484922
 10
31.67437776775874
 20
-2.2826325654745
 10
31.6861954865664
 20
-2.259231894444825
 10
31.65849295538138
 20
-2.247911201671273
 10
31.6451648222707
 20
-2.234641367505547
 10
31.48327117927417
 20
-2.073454216120593
 10
31.32141671548819
 20
-1.912206534524683
 10
31.15743834411124
 20
-1.753153887587611
 10
31.12531996436807
 20
-1.722000376777221
 10
31.12638757643041
 20
-1.704340987713963
 10
31.1576269530032
 20
-1.67353728322319
 10
31.302954476865
 20
-1.530237409430785
 10
31.44681136575415
 20
-1.385401645829574
 10
31.58882237370653
 20
-1.23881719357482
 10
31.61896378933208
 20
-1.207705007922527
 10
31.63491530067262
 20
-1.210481681325568
 10
31.6637695463389
 20
-1.239500687688342
 10
31.82484359796737
 20
-1.40149479424138
 10
31.98786340751429
 20
-1.561556906769876
 10
32.15066220173195
 20
-1.7218280457219
 10
32.16450918075834
 20
-1.735459860840036
 10
32.17481854281472
 20
-1.75530228140398
 10
32.20471888198404
 20
-1.75780785490906
 97
        0
 97
        1
330
86
 75
     2
 76
     1
 98
        1
 10
0.0
 20
0.0
450
        0
451
        0
460
0.0
461
0.0
452
        0
462
0.0
453
        0
470

  0
SPLINE
  5
88
330
79
100
AcDbEntity
  8
Слой 1
100
AcDbSpline
210
0.0
220
0.0
230
1.0
 70
     9
 71
     3
 72
    86
 73
    82
 74
     0
 42
0.0000000001
 43
0.0000000001
 40
0.0
 40
0.0
 40
0.0
 40
0.0
 40
1.0
 40
1.0
 40
1.0
 40
2.0
 40
2.0
 40
2.0
 40
3.0
 40
3.0
 40
3.0
 40
4.0
 40
4.0
 40
4.0
 40
5.0
 40
5.0
 40
5.0
 40
6.0
 40
6.0
 40
6.0
 40
7.0
 40
7.0
 40
7.0
 40
8.0
 40
8.0
 40
8.0
 40
9.0
 40
9.0
 40
9.0
 40
10.0
 40
10.0
 40
10.0
 40
11.0
 40
11.0
 40
11.0
 40
12.0
 40
12.0
 40
12.0
 40
13.0
 40
13.0
 40
13.0
 40
14.0
 40
14.0
 40
14.0
 40
15.0
 40
15.0
 40
15.0
 40
16.0
 40
16.0
 40
16.0
 40
17.0
 40
17.0
 40
17.0
 40
18.0
 40
18.0
 40
18.0
 40
19.0
 40
19.0
 40
19.0
 40
20.0
 40
20.0
 40
20.0
 40
21.0
 40
21.0
 40
21.0
 40
22.0
 40
22.0
 40
22.0
 40
23.0
 40
23.0
 40
23.0
 40
24.0
 40
24.0
 40
24.0
 40
25.0
 40
25.0
 40
25.0
 40
26.0
 40
26.0
 40
26.0
 40
27.0
 40
27.0
 40
27.0
 40
27.0
 10
34.50685433153083
 20
-2.512930814355323
 30
0.0
 10
34.50684541547361
 20
-2.308803565380609
 30
0.0
 10
34.50557693494153
 20
-2.104662598511203
 30
0.0
 10
34.50782549586403
 20
-1.900560041747313
 30
0.0
 10
34.50832582381612
 20
-1.855140091705783
 30
0.0
 10
34.49268054473181
 20
-1.824099067633255
 30
0.0
 10
34.46140953330362
 20
-1.792967333980628
 30
0.0
 10
34.06725226956986
 20
-1.400570551072013
 30
0.0
 10
33.6748007160736
 20
-1.006457916720768
 30
0.0
 10
33.27978476749111
 20
-0.6149313627704612
 30
0.0
 10
33.24273683715223
 20
-0.5782108729954542
 30
0.0
 10
33.24712387998862
 20
-0.5609816256746095
 30
0.0
 10
33.28097780446665
 20
-0.5278232445228923
 30
0.0
 10
33.4254470721368
 20
-0.3863205435685207
 30
0.0
 10
33.56796646678499
 20
-0.2427908950362128
 30
0.0
 10
33.70923932811749
 20
-0.0980889773644423
 30
0.0
 10
33.7388121736639
 20
-0.0677985793540125
 30
0.0
 10
33.75562408447861
 20
-0.0689607101120247
 30
0.0
 10
33.78501723718917
 20
-0.0986643251676974
 30
0.0
 10
34.00630313454055
 20
-0.322287982241341
 30
0.0
 10
34.22925736327597
 20
-0.5442615694652331
 30
0.0
 10
34.45216221077418
 20
-0.7662771248742122
 30
0.0
 10
34.4645915367807
 20
-0.7786565819237314
 30
0.0
 10
34.47503223921139
 20
-0.803330788021905
 30
0.0
 10
34.49547607144223
 20
-0.7954604030286419
 30
0.0
 10
34.51646515483485
 20
-0.787380134243209
 30
0.0
 10
34.50638692440266
 20
-0.762409278667835
 30
0.0
 10
34.50643390516304
 20
-0.7450630005562289
 30
0.0
 10
34.5070535711061
 20
-0.5165920181455779
 30
0.0
 10
34.50808646198541
 20
-0.2881067176821009
 30
0.0
 10
34.50585127514834
 20
-0.0596559691663035
 30
0.0
 10
34.50538523972151
 20
-0.0119964066656293
 30
0.0
 10
34.52114608461791
 20
0.0004911055989396
 30
0.0
 10
34.56690568823251
 20
-0.0000146024530699
 30
0.0
 10
34.76163305306222
 20
-0.0021666106133075
 30
0.0
 10
34.95639779674487
 20
-0.0008841321203161
 30
0.0
 10
35.15114882341749
 20
-0.0009504308135699
 30
0.0
 10
35.22376358990209
 20
-0.0009751498171353
 30
0.0
 10
35.22398169036652
 20
-0.0010932335639558
 30
0.0
 10
35.22402249847278
 20
-0.0771388582207414
 30
0.0
 10
35.22414149353764
 20
-0.2981205451889082
 30
0.0
 10
35.22387435476084
 20
-0.5191028215981533
 30
0.0
 10
35.22440554598668
 20
-0.7400833189675874
 30
0.0
 10
35.22445286967208
 20
-0.759730173792415
 30
0.0
 10
35.21523983966846
 20
-0.7883075496761319
 30
0.0
 10
35.23662603051055
 20
-0.7962678726177046
 30
0.0
 10
35.2571850856282
 20
-0.8039201430818188
 30
0.0
 10
35.26998202751277
 20
-0.7767052113732563
 30
0.0
 10
35.28395520303459
 20
-0.7627812050936756
 30
0.0
 10
35.50415745656778
 20
-0.5433614183486068
 30
0.0
 10
35.72456889450889
 20
-0.3241410983696242
 30
0.0
 10
35.94302668725055
 20
-0.1029922674258235
 30
0.0
 10
35.97494822789486
 20
-0.0706773224690475
 30
0.0
 10
35.99275496488528
 20
-0.0667479386433898
 30
0.0
 10
36.02646863293236
 20
-0.101486707025275
 30
0.0
 10
36.16730597918596
 20
-0.2466074063075388
 30
0.0
 10
36.31036479526584
 20
-0.3896219693204885
 30
0.0
 10
36.45493248248555
 20
-0.5310330175892659
 30
0.0
 10
36.48698227717707
 20
-0.56238273716575
 30
0.0
 10
36.48561469124416
 20
-0.5794754485638502
 30
0.0
 10
36.45451822877291
 20
-0.6103978557138387
 30
0.0
 10
36.06279127634793
 20
-0.9999284559548488
 30
0.0
 10
35.6731012999614
 20
-1.391508852642901
 30
0.0
 10
35.2807656552018
 20
-1.780421804665492
 30
0.0
 10
35.23818771213918
 20
-1.822628166351415
 30
0.0
 10
35.22278659583973
 20
-1.865293220148714
 30
0.0
 10
35.2230643652993
 20
-1.923562207930192
 30
0.0
 10
35.22497480191598
 20
-2.324316618311639
 30
0.0
 10
35.22409485570167
 20
-2.725084403640607
 30
0.0
 10
35.22404135936154
 20
-3.125847902127373
 30
0.0
 10
35.22403072867862
 20
-3.207055439353843
 30
0.0
 10
35.22376256112612
 20
-3.207846961890241
 30
0.0
 10
35.14597785343944
 20
-3.195328696891389
 30
0.0
 10
34.94838089004376
 20
-3.163527872914755
 30
0.0
 10
34.75111587829848
 20
-3.162076519633235
 30
0.0
 10
34.55470543629834
 20
-3.202902003722846
 30
0.0
 10
34.50728058762737
 20
-3.212759340056714
 30
0.0
 10
34.50646922646471
 20
-3.187413471529099
 30
0.0
 10
34.50656353091126
 20
-3.153402694682616
 30
0.0
 10
34.50715576283291
 20
-2.939913153906773
 30
0.0
 10
34.50686324758708
 20
-2.726421726920307
 30
0.0
 10
34.50685433153083
 20
-2.512930814355323
 30
0.0
  0
HATCH
  5
89
330
79
100
AcDbEntity
  8
Слой 1
 62
    18
420
        0
440
 33554687
100
AcDbHatch
 10
0.0
 20
0.0
 30
0.0
210
0.0
220
0.0
230
1.0
  2
SOLID
 70
     1
 71
     1
 91
        1
 92
        1
 93
        1
 72
     4
 94
        3
 73
     0
 74
     0
 95
       86
 96
       82
 40
0.0
 40
0.0
 40
0.0
 40
0.0
 40
1.0
 40
1.0
 40
1.0
 40
2.0
 40
2.0
 40
2.0
 40
3.0
 40
3.0
 40
3.0
 40
4.0
 40
4.0
 40
4.0
 40
5.0
 40
5.0
 40
5.0
 40
6.0
 40
6.0
 40
6.0
 40
7.0
 40
7.0
 40
7.0
 40
8.0
 40
8.0
 40
8.0
 40
9.0
 40
9.0
 40
9.0
 40
10.0
 40
10.0
 40
10.0
 40
11.0
 40
11.0
 40
11.0
 40
12.0
 40
12.0
 40
12.0
 40
13.0
 40
13.0
 40
13.0
 40
14.0
 40
14.0
 40
14.0
 40
15.0
 40
15.0
 40
15.0
 40
16.0
 40
16.0
 40
16.0
 40
17.0
 40
17.0
 40
17.0
 40
18.0
 40
18.0
 40
18.0
 40
19.0
 40
19.0
 40
19.0
 40
20.0
 40
20.0
 40
20.0
 40
21.0
 40
21.0
 40
21.0
 40
22.0
 40
22.0
 40
22.0
 40
23.0
 40
23.0
 40
23.0
 40
24.0
 40
24.0
 40
24.0
 40
25.0
 40
25.0
 40
25.0
 40
26.0
 40
26.0
 40
26.0
 40
27.0
 40
27.0
 40
27.0
 40
27.0
 10
34.50685433153083
 20
-2.512930814355323
 10
34.50684541547361
 20
-2.308803565380609
 10
34.50557693494153
 20
-2.104662598511203
 10
34.50782549586403
 20
-1.900560041747313
 10
34.50832582381612
 20
-1.855140091705783
 10
34.49268054473181
 20
-1.824099067633255
 10
34.46140953330362
 20
-1.792967333980628
 10
34.06725226956986
 20
-1.400570551072013
 10
33.6748007160736
 20
-1.006457916720768
 10
33.27978476749111
 20
-0.6149313627704612
 10
33.24273683715223
 20
-0.5782108729954542
 10
33.24712387998862
 20
-0.5609816256746095
 10
33.28097780446665
 20
-0.5278232445228923
 10
33.4254470721368
 20
-0.3863205435685207
 10
33.56796646678499
 20
-0.2427908950362128
 10
33.70923932811749
 20
-0.0980889773644423
 10
33.7388121736639
 20
-0.0677985793540125
 10
33.75562408447861
 20
-0.0689607101120247
 10
33.78501723718917
 20
-0.0986643251676974
 10
34.00630313454055
 20
-0.322287982241341
 10
34.22925736327597
 20
-0.5442615694652331
 10
34.45216221077418
 20
-0.7662771248742122
 10
34.4645915367807
 20
-0.7786565819237314
 10
34.47503223921139
 20
-0.803330788021905
 10
34.49547607144223
 20
-0.7954604030286419
 10
34.51646515483485
 20
-0.787380134243209
 10
34.50638692440266
 20
-0.762409278667835
 10
34.50643390516304
 20
-0.7450630005562289
 10
34.5070535711061
 20
-0.5165920181455779
 10
34.50808646198541
 20
-0.2881067176821009
 10
34.50585127514834
 20
-0.0596559691663035
 10
34.50538523972151
 20
-0.0119964066656293
 10
34.52114608461791
 20
0.0004911055989396
 10
34.56690568823251
 20
-0.0000146024530699
 10
34.76163305306222
 20
-0.0021666106133075
 10
34.95639779674487
 20
-0.0008841321203161
 10
35.15114882341749
 20
-0.0009504308135699
 10
35.22376358990209
 20
-0.0009751498171353
 10
35.22398169036652
 20
-0.0010932335639558
 10
35.22402249847278
 20
-0.0771388582207414
 10
35.22414149353764
 20
-0.2981205451889082
 10
35.22387435476084
 20
-0.5191028215981533
 10
35.22440554598668
 20
-0.7400833189675874
 10
35.22445286967208
 20
-0.759730173792415
 10
35.21523983966846
 20
-0.7883075496761319
 10
35.23662603051055
 20
-0.7962678726177046
 10
35.2571850856282
 20
-0.8039201430818188
 10
35.26998202751277
 20
-0.7767052113732563
 10
35.28395520303459
 20
-0.7627812050936756
 10
35.50415745656778
 20
-0.5433614183486068
 10
35.72456889450889
 20
-0.3241410983696242
 10
35.94302668725055
 20
-0.1029922674258235
 10
35.97494822789486
 20
-0.0706773224690475
 10
35.99275496488528
 20
-0.0667479386433898
 10
36.02646863293236
 20
-0.101486707025275
 10
36.16730597918596
 20
-0.2466074063075388
 10
36.31036479526584
 20
-0.3896219693204885
 10
36.45493248248555
 20
-0.5310330175892659
 10
36.48698227717707
 20
-0.56238273716575
 10
36.48561469124416
 20
-0.5794754485638502
 10
36.45451822877291
 20
-0.6103978557138387
 10
36.06279127634793
 20
-0.9999284559548488
 10
35.6731012999614
 20
-1.391508852642901
 10
35.2807656552018
 20
-1.780421804665492
 10
35.23818771213918
 20
-1.822628166351415
 10
35.22278659583973
 20
-1.865293220148714
 10
35.2230643652993
 20
-1.923562207930192
 10
35.22497480191598
 20
-2.324316618311639
 10
35.22409485570167
 20
-2.725084403640607
 10
35.22404135936154
 20
-3.125847902127373
 10
35.22403072867862
 20
-3.207055439353843
 10
35.22376256112612
 20
-3.207846961890241
 10
35.14597785343944
 20
-3.195328696891389
 10
34.94838089004376
 20
-3.163527872914755
 10
34.75111587829848
 20
-3.162076519633235
 10
34.55470543629834
 20
-3.202902003722846
 10
34.50728058762737
 20
-3.212759340056714
 10
34.50646922646471
 20
-3.187413471529099
 10
34.50656353091126
 20
-3.153402694682616
 10
34.50715576283291
 20
-2.939913153906773
 10
34.50686324758708
 20
-2.726421726920307
 10
34.50685433153083
 20
-2.512930814355323
 97
        0
 97
        1
330
88
 75
     2
 76
     1
 98
        1
 10
0.0
 20
0.0
450
        0
451
        0
460
0.0
461
0.0
452
        0
462
0.0
453
        0
470

  0
SPLINE
  5
8A
330
79
100
AcDbEntity
  8
Слой 1
100
AcDbSpline
210
0.0
220
0.0
230
1.0
 70
     9
 71
     3
 72
    86
 73
    82
 74
     0
 42
0.0000000001
 43
0.0000000001
 40
0.0
 40
0.0
 40
0.0
 40
0.0
 40
1.0
 40
1.0
 40
1.0
 40
2.0
 40
2.0
 40
2.0
 40
3.0
 40
3.0
 40
3.0
 40
4.0
 40
4.0
 40
4.0
 40
5.0
 40
5.0
 40
5.0
 40
6.0
 40
6.0
 40
6.0
 40
7.0
 40
7.0
 40
7.0
 40
8.0
 40
8.0
 40
8.0
 40
9.0
 40
9.0
 40
9.0
 40
10.0
 40
10.0
 40
10.0
 40
11.0
 40
11.0
 40
11.0
 40
12.0
 40
12.0
 40
12.0
 40
13.0
 40
13.0
 40
13.0
 40
14.0
 40
14.0
 40
14.0
 40
15.0
 40
15.0
 40
15.0
 40
16.0
 40
16.0
 40
16.0
 40
17.0
 40
17.0
 40
17.0
 40
18.0
 40
18.0
 40
18.0
 40
19.0
 40
19.0
 40
19.0
 40
20.0
 40
20.0
 40
20.0
 40
21.0
 40
21.0
 40
21.0
 40
22.0
 40
22.0
 40
22.0
 40
23.0
 40
23.0
 40
23.0
 40
24.0
 40
24.0
 40
24.0
 40
25.0
 40
25.0
 40
25.0
 40
26.0
 40
26.0
 40
26.0
 40
27.0
 40
27.0
 40
27.0
 40
27.0
 10
35.76717598621846
 20
-9.543593904303708
 30
0.0
 10
35.74300249887235
 20
-9.539894188046572
 30
0.0
 10
35.73388960304429
 20
-9.521868188242125
 30
0.0
 10
35.72132619326153
 20
-9.509370500085525
 30
0.0
 10
35.57399212797888
 20
-9.362798222462489
 30
0.0
 10
35.42728047204097
 20
-9.215599037042414
 30
0.0
 10
35.27997212615264
 20
-9.069000695419187
 30
0.0
 10
35.26730343831584
 20
-9.056393264103714
 30
0.0
 10
35.25565701067514
 20
-9.032223705064374
 30
0.0
 10
35.23640415786819
 20
-9.039563464735238
 30
0.0
 10
35.21674528155432
 20
-9.047058236618365
 30
0.0
 10
35.22440177380874
 20
-9.072610559464665
 30
0.0
 10
35.22436679543221
 20
-9.090502809793379
 30
0.0
 10
35.2239278511011
 20
-9.315185466919855
 30
0.0
 10
35.22229998489765
 20
-9.539891444467304
 30
0.0
 10
35.22528172002305
 20
-9.764535005593465
 30
0.0
 10
35.22604472872373
 20
-9.822023273680921
 30
0.0
 10
35.20805486964527
 20
-9.837613661244505
 30
0.0
 10
35.1516385206868
 20
-9.836624601021766
 30
0.0
 10
34.96072894276404
 20
-9.833277434663765
 30
0.0
 10
34.76972403161888
 20
-9.835376958479653
 30
0.0
 10
34.57875581347652
 20
-9.835334433005527
 30
0.0
 10
34.50694452087388
 20
-9.835318657426164
 30
0.0
 10
34.50687627874721
 20
-9.835243894899045
 30
0.0
 10
34.50686359051277
 20
-9.760593168491393
 30
0.0
 10
34.50682552580904
 20
-9.537782318125385
 30
0.0
 10
34.50705734328403
 20
-9.314971467759328
 30
0.0
 10
34.5064373344157
 20
-9.092162675077208
 30
0.0
 10
34.50638863902875
 20
-9.074638750226414
 30
0.0
 10
34.51628957710263
 20
-9.049953398338983
 30
0.0
 10
34.4965751468968
 20
-9.040943484962907
 30
0.0
 10
34.47571466047652
 20
-9.031408862106747
 30
0.0
 10
34.46528321702764
 20
-9.056426872946101
 30
0.0
 10
34.4530123224911
 20
-9.06864608783591
 30
0.0
 10
34.23277817690847
 20
-9.2879499583688
 30
0.0
 10
34.01193362436556
 20
-9.506667388894102
 30
0.0
 10
33.79430914000277
 20
-9.728540621143261
 30
0.0
 10
33.75484838754291
 20
-9.768772463330806
 30
0.0
 10
33.73467306578972
 20
-9.764711280543021
 30
0.0
 10
33.69811586149651
 20
-9.727011761755647
 30
0.0
 10
33.56257842511832
 20
-9.587240816428497
 30
0.0
 10
33.42497897915834
 20
-9.4493746008091
 30
0.0
 10
33.28491767276541
 20
-9.314145650485771
 30
0.0
 10
33.24460989491611
 20
-9.275229354419908
 30
0.0
 10
33.24967901609252
 20
-9.253625727623557
 30
0.0
 10
33.28688023402194
 20
-9.216681378950674
 30
0.0
 10
33.67878036370222
 20
-8.827480008187523
 30
0.0
 10
34.06859036392959
 20
-8.436175684134443
 30
0.0
 10
34.46025593273334
 20
-8.046737679684104
 30
0.0
 10
34.49336982450237
 20
-8.013811988325086
 30
0.0
 10
34.50804291047777
 20
-7.981217584127888
 30
0.0
 10
34.50784607137889
 20
-7.933997160378971
 30
0.0
 10
34.50612218610278
 20
-7.520212636045142
 30
0.0
 10
34.50761871193249
 20
-7.106415079710687
 30
0.0
 10
34.50590065638557
 20
-6.692631241271404
 30
0.0
 10
34.50568084129486
 20
-6.639711718083339
 30
0.0
 10
34.5155505731696
 20
-6.626479436654739
 30
0.0
 10
34.57218982354584
 20
-6.637433861633957
 30
0.0
 10
34.76675498472807
 20
-6.675066162735825
 30
0.0
 10
34.96325561607111
 20
-6.67480209325903
 30
0.0
 10
35.15782729283334
 20
-6.63755457910876
 30
0.0
 10
35.21579400688638
 20
-6.626458859812499
 30
0.0
 10
35.22487706821736
 20
-6.643565760657893
 30
0.0
 10
35.22471966552376
 20
-6.694262984871076
 30
0.0
 10
35.22351016813584
 20
-7.083710591847748
 30
0.0
 10
35.2273797367568
 20
-7.473210326825411
 30
0.0
 10
35.22175370496002
 20
-7.862579741801381
 30
0.0
 10
35.22033365146318
 20
-7.960863657557283
 30
0.0
 10
35.24813631682375
 20
-8.029598541785667
 30
0.0
 10
35.31956593361348
 20
-8.096805938415551
 30
0.0
 10
35.48857253232917
 20
-8.255824462089018
 30
0.0
 10
35.64909961816971
 20
-8.4238364376644
 30
0.0
 10
35.81406209930805
 20
-8.587195303286964
 30
0.0
 10
35.83887617103763
 20
-8.61176885433133
 30
0.0
 10
35.84818110501096
 20
-8.632904700911517
 30
0.0
 10
35.83890977771319
 20
-8.670106946008393
 30
0.0
 10
35.78485241161054
 20
-8.887014986195101
 30
0.0
 10
35.76774661384944
 20
-9.108742122863809
 30
0.0
 10
35.76177285584027
 20
-9.331453518491596
 30
0.0
 10
35.75989019616959
 20
-9.401658275159585
 30
0.0
 10
35.77416137374126
 20
-9.471829422984683
 30
0.0
 10
35.76717598621846
 20
-9.543593904303708
 30
0.0
  0
HATCH
  5
8B
330
79
100
AcDbEntity
  8
Слой 1
 62
    18
420
        0
440
 33554687
100
AcDbHatch
 10
0.0
 20
0.0
 30
0.0
210
0.0
220
0.0
230
1.0
  2
SOLID
 70
     1
 71
     1
 91
        1
 92
        1
 93
        1
 72
     4
 94
        3
 73
     0
 74
     0
 95
       86
 96
       82
 40
0.0
 40
0.0
 40
0.0
 40
0.0
 40
1.0
 40
1.0
 40
1.0
 40
2.0
 40
2.0
 40
2.0
 40
3.0
 40
3.0
 40
3.0
 40
4.0
 40
4.0
 40
4.0
 40
5.0
 40
5.0
 40
5.0
 40
6.0
 40
6.0
 40
6.0
 40
7.0
 40
7.0
 40
7.0
 40
8.0
 40
8.0
 40
8.0
 40
9.0
 40
9.0
 40
9.0
 40
10.0
 40
10.0
 40
10.0
 40
11.0
 40
11.0
 40
11.0
 40
12.0
 40
12.0
 40
12.0
 40
13.0
 40
13.0
 40
13.0
 40
14.0
 40
14.0
 40
14.0
 40
15.0
 40
15.0
 40
15.0
 40
16.0
 40
16.0
 40
16.0
 40
17.0
 40
17.0
 40
17.0
 40
18.0
 40
18.0
 40
18.0
 40
19.0
 40
19.0
 40
19.0
 40
20.0
 40
20.0
 40
20.0
 40
21.0
 40
21.0
 40
21.0
 40
22.0
 40
22.0
 40
22.0
 40
23.0
 40
23.0
 40
23.0
 40
24.0
 40
24.0
 40
24.0
 40
25.0
 40
25.0
 40
25.0
 40
26.0
 40
26.0
 40
26.0
 40
27.0
 40
27.0
 40
27.0
 40
27.0
 10
35.76717598621846
 20
-9.543593904303708
 10
35.74300249887235
 20
-9.539894188046572
 10
35.73388960304429
 20
-9.521868188242125
 10
35.72132619326153
 20
-9.509370500085525
 10
35.57399212797888
 20
-9.362798222462489
 10
35.42728047204097
 20
-9.215599037042414
 10
35.27997212615264
 20
-9.069000695419187
 10
35.26730343831584
 20
-9.056393264103714
 10
35.25565701067514
 20
-9.032223705064374
 10
35.23640415786819
 20
-9.039563464735238
 10
35.21674528155432
 20
-9.047058236618365
 10
35.22440177380874
 20
-9.072610559464665
 10
35.22436679543221
 20
-9.090502809793379
 10
35.2239278511011
 20
-9.315185466919855
 10
35.22229998489765
 20
-9.539891444467304
 10
35.22528172002305
 20
-9.764535005593465
 10
35.22604472872373
 20
-9.822023273680921
 10
35.20805486964527
 20
-9.837613661244505
 10
35.1516385206868
 20
-9.836624601021766
 10
34.96072894276404
 20
-9.833277434663765
 10
34.76972403161888
 20
-9.835376958479653
 10
34.57875581347652
 20
-9.835334433005527
 10
34.50694452087388
 20
-9.835318657426164
 10
34.50687627874721
 20
-9.835243894899045
 10
34.50686359051277
 20
-9.760593168491393
 10
34.50682552580904
 20
-9.537782318125385
 10
34.50705734328403
 20
-9.314971467759328
 10
34.5064373344157
 20
-9.092162675077208
 10
34.50638863902875
 20
-9.074638750226414
 10
34.51628957710263
 20
-9.049953398338983
 10
34.4965751468968
 20
-9.040943484962907
 10
34.47571466047652
 20
-9.031408862106747
 10
34.46528321702764
 20
-9.056426872946101
 10
34.4530123224911
 20
-9.06864608783591
 10
34.23277817690847
 20
-9.2879499583688
 10
34.01193362436556
 20
-9.506667388894102
 10
33.79430914000277
 20
-9.728540621143261
 10
33.75484838754291
 20
-9.768772463330806
 10
33.73467306578972
 20
-9.764711280543021
 10
33.69811586149651
 20
-9.727011761755647
 10
33.56257842511832
 20
-9.587240816428497
 10
33.42497897915834
 20
-9.4493746008091
 10
33.28491767276541
 20
-9.314145650485771
 10
33.24460989491611
 20
-9.275229354419908
 10
33.24967901609252
 20
-9.253625727623557
 10
33.28688023402194
 20
-9.216681378950674
 10
33.67878036370222
 20
-8.827480008187523
 10
34.06859036392959
 20
-8.436175684134443
 10
34.46025593273334
 20
-8.046737679684104
 10
34.49336982450237
 20
-8.013811988325086
 10
34.50804291047777
 20
-7.981217584127888
 10
34.50784607137889
 20
-7.933997160378971
 10
34.50612218610278
 20
-7.520212636045142
 10
34.50761871193249
 20
-7.106415079710687
 10
34.50590065638557
 20
-6.692631241271404
 10
34.50568084129486
 20
-6.639711718083339
 10
34.5155505731696
 20
-6.626479436654739
 10
34.57218982354584
 20
-6.637433861633957
 10
34.76675498472807
 20
-6.675066162735825
 10
34.96325561607111
 20
-6.67480209325903
 10
35.15782729283334
 20
-6.63755457910876
 10
35.21579400688638
 20
-6.626458859812499
 10
35.22487706821736
 20
-6.643565760657893
 10
35.22471966552376
 20
-6.694262984871076
 10
35.22351016813584
 20
-7.083710591847748
 10
35.2273797367568
 20
-7.473210326825411
 10
35.22175370496002
 20
-7.862579741801381
 10
35.22033365146318
 20
-7.960863657557283
 10
35.24813631682375
 20
-8.029598541785667
 10
35.31956593361348
 20
-8.096805938415551
 10
35.48857253232917
 20
-8.255824462089018
 10
35.64909961816971
 20
-8.4238364376644
 10
35.81406209930805
 20
-8.587195303286964
 10
35.83887617103763
 20
-8.61176885433133
 10
35.84818110501096
 20
-8.632904700911517
 10
35.83890977771319
 20
-8.670106946008393
 10
35.78485241161054
 20
-8.887014986195101
 10
35.76774661384944
 20
-9.108742122863809
 10
35.76177285584027
 20
-9.331453518491596
 10
35.75989019616959
 20
-9.401658275159585
 10
35.77416137374126
 20
-9.471829422984683
 10
35.76717598621846
 20
-9.543593904303708
 97
        0
 97
        1
330
8A
 75
     2
 76
     1
 98
        1
 10
0.0
 20
0.0
450
        0
451
        0
460
0.0
461
0.0
452
        0
462
0.0
453
        0
470

  0
SPLINE
  5
8C
330
79
100
AcDbEntity
  8
Слой 1
100
AcDbSpline
210
0.0
220
0.0
230
1.0
 70
     9
 71
     3
 72
    59
 73
    55
 74
     0
 42
0.0000000001
 43
0.0000000001
 40
0.0
 40
0.0
 40
0.0
 40
0.0
 40
1.0
 40
1.0
 40
1.0
 40
2.0
 40
2.0
 40
2.0
 40
3.0
 40
3.0
 40
3.0
 40
4.0
 40
4.0
 40
4.0
 40
5.0
 40
5.0
 40
5.0
 40
6.0
 40
6.0
 40
6.0
 40
7.0
 40
7.0
 40
7.0
 40
8.0
 40
8.0
 40
8.0
 40
9.0
 40
9.0
 40
9.0
 40
10.0
 40
10.0
 40
10.0
 40
11.0
 40
11.0
 40
11.0
 40
12.0
 40
12.0
 40
12.0
 40
13.0
 40
13.0
 40
13.0
 40
14.0
 40
14.0
 40
14.0
 40
15.0
 40
15.0
 40
15.0
 40
16.0
 40
16.0
 40
16.0
 40
17.0
 40
17.0
 40
17.0
 40
18.0
 40
18.0
 40
18.0
 40
18.0
 10
36.81004118992084
 20
-1.282596569122347
 30
0.0
 10
36.81004118992084
 20
-1.110324501283217
 30
0.0
 10
36.81141014755417
 20
-0.9380343429700889
 30
0.0
 10
36.80912969458319
 20
-0.7657924544997866
 30
0.0
 10
36.80851860177166
 20
-0.7196237646064674
 30
0.0
 10
36.82236386617195
 20
-0.7041093398858039
 30
0.0
 10
36.86936245874654
 20
-0.7047659983676214
 30
0.0
 10
37.06406101785443
 20
-0.7074866856123788
 30
0.0
 10
37.2588137591532
 20
-0.7061619656484734
 30
0.0
 10
37.45352740697305
 20
-0.708161348831292
 30
0.0
 10
37.4779793496293
 20
-0.7084123863085349
 30
0.0
 10
37.51731356266861
 20
-0.6905459427689872
 30
0.0
 10
37.52294919637249
 20
-0.7325698564525535
 30
0.0
 10
37.52857042721514
 20
-0.7744911431345701
 30
0.0
 10
37.53991576647847
 20
-0.8192975603268324
 30
0.0
 10
37.48428574513903
 20
-0.848286816005346
 30
0.0
 10
37.36705331615207
 20
-0.9093775747694001
 30
0.0
 10
37.26668800894696
 20
-0.9936105079812149
 30
0.0
 10
37.18050677629708
 20
-1.094180167976017
 30
0.0
 10
37.02366785161583
 20
-1.277205007739401
 30
0.0
 10
36.93830963958764
 20
-1.491340661365484
 30
0.0
 10
36.90365429877971
 20
-1.727938682009039
 30
0.0
 10
36.88677757509152
 20
-1.843157339029378
 30
0.0
 10
36.88486405214667
 20
-1.958915795214314
 30
0.0
 10
36.88498613353916
 20
-2.075000051403106
 30
0.0
 10
36.88543605147846
 20
-2.503815787609444
 30
0.0
 10
36.88458011003291
 20
-2.932634438868591
 30
0.0
 10
36.88602382537263
 20
-3.361445888232512
 30
0.0
 10
36.88617471248598
 20
-3.406303747530664
 30
0.0
 10
36.87281022929874
 20
-3.438056558874942
 30
0.0
 10
36.84069596465903
 20
-3.469336102845305
 30
0.0
 10
36.68242772749874
 20
-3.62349094687896
 30
0.0
 10
36.52556822730154
 20
-3.779121493457321
 30
0.0
 10
36.370220341645
 20
-3.936219168896286
 30
0.0
 10
36.33962180664945
 20
-3.967162624441167
 30
0.0
 10
36.32593977467195
 20
-3.9679020189766
 30
0.0
 10
36.30054821680694
 20
-3.930451822929373
 30
0.0
 10
36.18276916495723
 20
-3.756739376124679
 30
0.0
 10
36.03705199227029
 20
-3.609488405651038
 30
0.0
 10
35.86422452032055
 20
-3.490272011107006
 30
0.0
 10
35.82940251783707
 20
-3.466251634175263
 30
0.0
 10
35.83098408913098
 20
-3.453301941381558
 30
0.0
 10
35.85983850626013
 20
-3.424937107132121
 30
0.0
 10
36.16160107457972
 20
-3.128296889315745
 30
0.0
 10
36.46180539052334
 20
-2.83007328348026
 30
0.0
 10
36.76307140306805
 20
-2.532926189447342
 30
0.0
 10
36.78690333685666
 20
-2.509419890627175
 30
0.0
 10
36.80128767976402
 20
-2.486511177603587
 30
0.0
 10
36.80117382857805
 20
-2.450691867786884
 30
0.0
 10
36.79993518254307
 20
-2.061329997653286
 30
0.0
 10
36.80039950334374
 20
-1.671962640361723
 30
0.0
 10
36.80039950334374
 20
-1.282596826333108
 30
0.0
 10
36.8036133988693
 20
-1.282596740596444
 30
0.0
 10
36.80682729439473
 20
-1.282596654859263
 30
0.0
 10
36.81004118992084
 20
-1.282596569122347
 30
0.0
  0
HATCH
  5
8D
330
79
100
AcDbEntity
  8
Слой 1
 62
    18
420
        0
440
 33554687
100
AcDbHatch
 10
0.0
 20
0.0
 30
0.0
210
0.0
220
0.0
230
1.0
  2
SOLID
 70
     1
 71
     1
 91
        1
 92
        1
 93
        1
 72
     4
 94
        3
 73
     0
 74
     0
 95
       59
 96
       55
 40
0.0
 40
0.0
 40
0.0
 40
0.0
 40
1.0
 40
1.0
 40
1.0
 40
2.0
 40
2.0
 40
2.0
 40
3.0
 40
3.0
 40
3.0
 40
4.0
 40
4.0
 40
4.0
 40
5.0
 40
5.0
 40
5.0
 40
6.0
 40
6.0
 40
6.0
 40
7.0
 40
7.0
 40
7.0
 40
8.0
 40
8.0
 40
8.0
 40
9.0
 40
9.0
 40
9.0
 40
10.0
 40
10.0
 40
10.0
 40
11.0
 40
11.0
 40
11.0
 40
12.0
 40
12.0
 40
12.0
 40
13.0
 40
13.0
 40
13.0
 40
14.0
 40
14.0
 40
14.0
 40
15.0
 40
15.0
 40
15.0
 40
16.0
 40
16.0
 40
16.0
 40
17.0
 40
17.0
 40
17.0
 40
18.0
 40
18.0
 40
18.0
 40
18.0
 10
36.81004118992084
 20
-1.282596569122347
 10
36.81004118992084
 20
-1.110324501283217
 10
36.81141014755417
 20
-0.9380343429700889
 10
36.80912969458319
 20
-0.7657924544997866
 10
36.80851860177166
 20
-0.7196237646064674
 10
36.82236386617195
 20
-0.7041093398858039
 10
36.86936245874654
 20
-0.7047659983676214
 10
37.06406101785443
 20
-0.7074866856123788
 10
37.2588137591532
 20
-0.7061619656484734
 10
37.45352740697305
 20
-0.708161348831292
 10
37.4779793496293
 20
-0.7084123863085349
 10
37.51731356266861
 20
-0.6905459427689872
 10
37.52294919637249
 20
-0.7325698564525535
 10
37.52857042721514
 20
-0.7744911431345701
 10
37.53991576647847
 20
-0.8192975603268324
 10
37.48428574513903
 20
-0.848286816005346
 10
37.36705331615207
 20
-0.9093775747694001
 10
37.26668800894696
 20
-0.9936105079812149
 10
37.18050677629708
 20
-1.094180167976017
 10
37.02366785161583
 20
-1.277205007739401
 10
36.93830963958764
 20
-1.491340661365484
 10
36.90365429877971
 20
-1.727938682009039
 10
36.88677757509152
 20
-1.843157339029378
 10
36.88486405214667
 20
-1.958915795214314
 10
36.88498613353916
 20
-2.075000051403106
 10
36.88543605147846
 20
-2.503815787609444
 10
36.88458011003291
 20
-2.932634438868591
 10
36.88602382537263
 20
-3.361445888232512
 10
36.88617471248598
 20
-3.406303747530664
 10
36.87281022929874
 20
-3.438056558874942
 10
36.84069596465903
 20
-3.469336102845305
 10
36.68242772749874
 20
-3.62349094687896
 10
36.52556822730154
 20
-3.779121493457321
 10
36.370220341645
 20
-3.936219168896286
 10
36.33962180664945
 20
-3.967162624441167
 10
36.32593977467195
 20
-3.9679020189766
 10
36.30054821680694
 20
-3.930451822929373
 10
36.18276916495723
 20
-3.756739376124679
 10
36.03705199227029
 20
-3.609488405651038
 10
35.86422452032055
 20
-3.490272011107006
 10
35.82940251783707
 20
-3.466251634175263
 10
35.83098408913098
 20
-3.453301941381558
 10
35.85983850626013
 20
-3.424937107132121
 10
36.16160107457972
 20
-3.128296889315745
 10
36.46180539052334
 20
-2.83007328348026
 10
36.76307140306805
 20
-2.532926189447342
 10
36.78690333685666
 20
-2.509419890627175
 10
36.80128767976402
 20
-2.486511177603587
 10
36.80117382857805
 20
-2.450691867786884
 10
36.79993518254307
 20
-2.061329997653286
 10
36.80039950334374
 20
-1.671962640361723
 10
36.80039950334374
 20
-1.282596826333108
 10
36.8036133988693
 20
-1.282596740596444
 10
36.80682729439473
 20
-1.282596654859263
 10
36.81004118992084
 20
-1.282596569122347
 97
        0
 97
        1
330
8C
 75
     2
 76
     1
 98
        1
 10
0.0
 20
0.0
450
        0
451
        0
460
0.0
461
0.0
452
        0
462
0.0
453
        0
470

  0
SPLINE
  5
8E
330
79
100
AcDbEntity
  8
Слой 1
100
AcDbSpline
210
0.0
220
0.0
230
1.0
 70
     9
 71
     3
 72
    38
 73
    34
 74
     0
 42
0.0000000001
 43
0.0000000001
 40
0.0
 40
0.0
 40
0.0
 40
0.0
 40
1.0
 40
1.0
 40
1.0
 40
2.0
 40
2.0
 40
2.0
 40
3.0
 40
3.0
 40
3.0
 40
4.0
 40
4.0
 40
4.0
 40
5.0
 40
5.0
 40
5.0
 40
6.0
 40
6.0
 40
6.0
 40
7.0
 40
7.0
 40
7.0
 40
8.0
 40
8.0
 40
8.0
 40
9.0
 40
9.0
 40
9.0
 40
10.0
 40
10.0
 40
10.0
 40
11.0
 40
11.0
 40
11.0
 40
11.0
 10
36.8851404499057
 20
-6.773774647339273
 30
0.0
 10
36.88515691031819
 20
-6.872949540369265
 30
0.0
 10
36.88333460549252
 20
-6.972172446031663
 30
0.0
 10
36.88599707720209
 20
-7.071276006008322
 30
0.0
 10
36.88716439478334
 20
-7.114744585499111
 30
0.0
 10
36.87575115631848
 20
-7.14629300020945
 30
0.0
 10
36.83809316194402
 20
-7.170030445559177
 30
0.0
 10
36.79729328634847
 20
-7.1957480690388
 30
0.0
 10
36.76707059743681
 20
-7.25544766178541
 30
0.0
 10
36.72342169879109
 20
-7.252729460909423
 30
0.0
 10
36.68014041602181
 20
-7.250035266349463
 30
0.0
 10
36.65134292448612
 20
-7.19279666394934
 30
0.0
 10
36.61692831720986
 20
-7.158840758682319
 30
0.0
 10
36.36787267532332
 20
-6.913103876450399
 30
0.0
 10
36.11999669632708
 20
-6.666167364309027
 30
0.0
 10
35.87013243668
 20
-6.421258357034856
 30
0.0
 10
35.83562935468722
 20
-6.387438944821951
 30
0.0
 10
35.8283970609782
 20
-6.370330672187214
 30
0.0
 10
35.87413231689945
 20
-6.338828212424787
 30
0.0
 10
36.0437644112868
 20
-6.221989472015517
 30
0.0
 10
36.18535825066182
 20
-6.075906237346012
 30
0.0
 10
36.30113941995334
 20
-5.905650014163913
 30
0.0
 10
36.32374848226861
 20
-5.872404009958535
 30
0.0
 10
36.33702106148667
 20
-5.868509499594008
 30
0.0
 10
36.36683566934057
 20
-5.898444689862988
 30
0.0
 10
36.52923409831818
 20
-6.061498332324011
 30
0.0
 10
36.69325250621917
 20
-6.222947666975136
 30
0.0
 10
36.85774003587403
 20
-6.383898356146446
 30
0.0
 10
36.88032372172013
 20
-6.405996513054307
 30
0.0
 10
36.88556979232973
 20
-6.430240148726296
 30
0.0
 10
36.88538529854082
 20
-6.459411938143526
 30
0.0
 10
36.88472070938903
 20
-6.564196078401841
 30
0.0
 10
36.8851239894932
 20
-6.668986391712627
 30
0.0
 10
36.8851404499057
 20
-6.773774647339273
 30
0.0
  0
HATCH
  5
8F
330
79
100
AcDbEntity
  8
Слой 1
 62
    18
420
        0
440
 33554687
100
AcDbHatch
 10
0.0
 20
0.0
 30
0.0
210
0.0
220
0.0
230
1.0
  2
SOLID
 70
     1
 71
     1
 91
        1
 92
        1
 93
        1
 72
     4
 94
        3
 73
     0
 74
     0
 95
       38
 96
       34
 40
0.0
 40
0.0
 40
0.0
 40
0.0
 40
1.0
 40
1.0
 40
1.0
 40
2.0
 40
2.0
 40
2.0
 40
3.0
 40
3.0
 40
3.0
 40
4.0
 40
4.0
 40
4.0
 40
5.0
 40
5.0
 40
5.0
 40
6.0
 40
6.0
 40
6.0
 40
7.0
 40
7.0
 40
7.0
 40
8.0
 40
8.0
 40
8.0
 40
9.0
 40
9.0
 40
9.0
 40
10.0
 40
10.0
 40
10.0
 40
11.0
 40
11.0
 40
11.0
 40
11.0
 10
36.8851404499057
 20
-6.773774647339273
 10
36.88515691031819
 20
-6.872949540369265
 10
36.88333460549252
 20
-6.972172446031663
 10
36.88599707720209
 20
-7.071276006008322
 10
36.88716439478334
 20
-7.114744585499111
 10
36.87575115631848
 20
-7.14629300020945
 10
36.83809316194402
 20
-7.170030445559177
 10
36.79729328634847
 20
-7.1957480690388
 10
36.76707059743681
 20
-7.25544766178541
 10
36.72342169879109
 20
-7.252729460909423
 10
36.68014041602181
 20
-7.250035266349463
 10
36.65134292448612
 20
-7.19279666394934
 10
36.61692831720986
 20
-7.158840758682319
 10
36.36787267532332
 20
-6.913103876450399
 10
36.11999669632708
 20
-6.666167364309027
 10
35.87013243668
 20
-6.421258357034856
 10
35.83562935468722
 20
-6.387438944821951
 10
35.8283970609782
 20
-6.370330672187214
 10
35.87413231689945
 20
-6.338828212424787
 10
36.0437644112868
 20
-6.221989472015517
 10
36.18535825066182
 20
-6.075906237346012
 10
36.30113941995334
 20
-5.905650014163913
 10
36.32374848226861
 20
-5.872404009958535
 10
36.33702106148667
 20
-5.868509499594008
 10
36.36683566934057
 20
-5.898444689862988
 10
36.52923409831818
 20
-6.061498332324011
 10
36.69325250621917
 20
-6.222947666975136
 10
36.85774003587403
 20
-6.383898356146446
 10
36.88032372172013
 20
-6.405996513054307
 10
36.88556979232973
 20
-6.430240148726296
 10
36.88538529854082
 20
-6.459411938143526
 10
36.88472070938903
 20
-6.564196078401841
 10
36.8851239894932
 20
-6.668986391712627
 10
36.8851404499057
 20
-6.773774647339273
 97
        0
 97
        1
330
8E
 75
     2
 76
     1
 98
        1
 10
0.0
 20
0.0
450
        0
451
        0
460
0.0
461
0.0
452
        0
462
0.0
453
        0
470

  0
SPLINE
  5
90
330
79
100
AcDbEntity
  8
Слой 1
100
AcDbSpline
210
0.0
220
0.0
230
1.0
 70
     9
 71
     3
 72
    32
 73
    28
 74
     0
 42
0.0000000001
 43
0.0000000001
 40
0.0
 40
0.0
 40
0.0
 40
0.0
 40
1.0
 40
1.0
 40
1.0
 40
2.0
 40
2.0
 40
2.0
 40
3.0
 40
3.0
 40
3.0
 40
4.0
 40
4.0
 40
4.0
 40
5.0
 40
5.0
 40
5.0
 40
6.0
 40
6.0
 40
6.0
 40
7.0
 40
7.0
 40
7.0
 40
8.0
 40
8.0
 40
8.0
 40
9.0
 40
9.0
 40
9.0
 40
9.0
 10
36.88509655547234
 20
-4.917951292334818
 30
0.0
 10
36.88509724132306
 20
-5.01891739949249
 30
0.0
 10
36.88385173678332
 20
-5.119906827071682
 30
0.0
 10
36.88570901998487
 20
-5.220838639492209
 30
0.0
 10
36.88645385364695
 20
-5.261336951788355
 30
0.0
 10
36.87317098667111
 20
-5.278283353263279
 30
0.0
 10
36.8309884364318
 20
-5.276841602508599
 30
0.0
 10
36.76002485506888
 20
-5.274415935741217
 30
0.0
 10
36.68890764318945
 20
-5.275377560174383
 30
0.0
 10
36.61787959187778
 20
-5.276488023767266
 30
0.0
 10
36.58544503504625
 20
-5.276994557036421
 30
0.0
 10
36.57667437862639
 20
-5.267068288280774
 30
0.0
 10
36.5828573210432
 20
-5.233236187015474
 30
0.0
 10
36.6211579573525
 20
-5.02362949639362
 30
0.0
 10
36.62111337706847
 20
-4.813407558185202
 30
0.0
 10
36.58236488037139
 20
-4.603939075354029
 30
0.0
 10
36.57480817936751
 20
-4.563085126632371
 30
0.0
 10
36.59178023627793
 20
-4.560349092493096
 30
0.0
 10
36.62280056934237
 20
-4.560796295867046
 30
0.0
 10
36.6919624213957
 20
-4.561793929774163
 30
0.0
 10
36.76121823496944
 20
-4.56298567189463
 30
0.0
 10
36.8302977849607
 20
-4.560399162809365
 30
0.0
 10
36.87171698357376
 20
-4.558848697737276
 30
0.0
 10
36.88660748416333
 20
-4.573516213921126
 30
0.0
 10
36.88576320217528
 20
-4.615066345809041
 30
0.0
 10
36.88371250912819
 20
-4.715990613387134
 30
0.0
 10
36.88509518377138
 20
-4.816985185177145
 30
0.0
 10
36.88509655547234
 20
-4.917951292334818
 30
0.0
  0
HATCH
  5
91
330
79
100
AcDbEntity
  8
Слой 1
 62
    18
420
        0
440
 33554687
100
AcDbHatch
 10
0.0
 20
0.0
 30
0.0
210
0.0
220
0.0
230
1.0
  2
SOLID
 70
     1
 71
     1
 91
        1
 92
        1
 93
        1
 72
     4
 94
        3
 73
     0
 74
     0
 95
       32
 96
       28
 40
0.0
 40
0.0
 40
0.0
 40
0.0
 40
1.0
 40
1.0
 40
1.0
 40
2.0
 40
2.0
 40
2.0
 40
3.0
 40
3.0
 40
3.0
 40
4.0
 40
4.0
 40
4.0
 40
5.0
 40
5.0
 40
5.0
 40
6.0
 40
6.0
 40
6.0
 40
7.0
 40
7.0
 40
7.0
 40
8.0
 40
8.0
 40
8.0
 40
9.0
 40
9.0
 40
9.0
 40
9.0
 10
36.88509655547234
 20
-4.917951292334818
 10
36.88509724132306
 20
-5.01891739949249
 10
36.88385173678332
 20
-5.119906827071682
 10
36.88570901998487
 20
-5.220838639492209
 10
36.88645385364695
 20
-5.261336951788355
 10
36.87317098667111
 20
-5.278283353263279
 10
36.8309884364318
 20
-5.276841602508599
 10
36.76002485506888
 20
-5.274415935741217
 10
36.68890764318945
 20
-5.275377560174383
 10
36.61787959187778
 20
-5.276488023767266
 10
36.58544503504625
 20
-5.276994557036421
 10
36.57667437862639
 20
-5.267068288280774
 10
36.5828573210432
 20
-5.233236187015474
 10
36.6211579573525
 20
-5.02362949639362
 10
36.62111337706847
 20
-4.813407558185202
 10
36.58236488037139
 20
-4.603939075354029
 10
36.57480817936751
 20
-4.563085126632371
 10
36.59178023627793
 20
-4.560349092493096
 10
36.62280056934237
 20
-4.560796295867046
 10
36.6919624213957
 20
-4.561793929774163
 10
36.76121823496944
 20
-4.56298567189463
 10
36.8302977849607
 20
-4.560399162809365
 10
36.87171698357376
 20
-4.558848697737276
 10
36.88660748416333
 20
-4.573516213921126
 10
36.88576320217528
 20
-4.615066345809041
 10
36.88371250912819
 20
-4.715990613387134
 10
36.88509518377138
 20
-4.816985185177145
 10
36.88509655547234
 20
-4.917951292334818
 97
        0
 97
        1
330
90
 75
     2
 76
     1
 98
        1
 10
0.0
 20
0.0
450
        0
451
        0
460
0.0
461
0.0
452
        0
462
0.0
453
        0
470

  0
SPLINE
  5
92
330
79
100
AcDbEntity
  8
Слой 1
100
AcDbSpline
210
0.0
220
0.0
230
1.0
 70
     9
 71
     3
 72
    35
 73
    31
 74
     0
 42
0.0000000001
 43
0.0000000001
 40
0.0
 40
0.0
 40
0.0
 40
0.0
 40
1.0
 40
1.0
 40
1.0
 40
2.0
 40
2.0
 40
2.0
 40
3.0
 40
3.0
 40
3.0
 40
4.0
 40
4.0
 40
4.0
 40
5.0
 40
5.0
 40
5.0
 40
6.0
 40
6.0
 40
6.0
 40
7.0
 40
7.0
 40
7.0
 40
8.0
 40
8.0
 40
8.0
 40
9.0
 40
9.0
 40
9.0
 40
10.0
 40
10.0
 40
10.0
 40
10.0
 10
39.04360256130791
 20
-3.911081126476422
 30
0.0
 10
39.04360324715874
 20
-4.362420788754219
 30
0.0
 10
39.04364371233876
 20
-4.813760108084086
 30
0.0
 10
39.04356415367917
 20
-5.265099770361327
 30
0.0
 10
39.04355043666874
 20
-5.344907739360134
 30
0.0
 10
39.04331999089471
 20
-5.345066523993295
 30
0.0
 10
38.96231144285
 20
-5.345104248204531
 30
0.0
 10
38.76193678485778
 20
-5.345197529890001
 30
0.0
 10
38.56154909570473
 20
-5.343851804399504
 30
0.0
 10
38.36119775663054
 20
-5.346031920847647
 30
0.0
 10
38.31130556072223
 20
-5.346574806538657
 30
0.0
 10
38.29344669909195
 20
-5.333818536063504
 30
0.0
 10
38.29355163422125
 20
-5.280064278970093
 30
0.0
 10
38.29523333969069
 20
-4.418589738298793
 30
0.0
 10
38.29423817058945
 20
-3.557110053417204
 30
0.0
 10
38.29527380487126
 20
-2.695633455061738
 30
0.0
 10
38.29543155049055
 20
-2.564629616370186
 30
0.0
 10
38.30392237989918
 20
-2.433799651996852
 30
0.0
 10
38.34809732589236
 20
-2.308340414953704
 30
0.0
 10
38.40721558296501
 20
-2.140442469379624
 30
0.0
 10
38.5021050596368
 20
-2.076370126157055
 30
0.0
 10
38.68880523000778
 20
-2.078255822285983
 30
0.0
 10
38.84641916577458
 20
-2.079848126937665
 30
0.0
 10
38.94306784902472
 20
-2.15532518503955
 30
0.0
 10
38.99680423708499
 20
-2.315047436721922
 30
0.0
 10
39.03685104881181
 20
-2.434079840000132
 30
0.0
 10
39.04327952571417
 20
-2.556970744169209
 30
0.0
 10
39.04342286847279
 20
-2.680665859927128
 30
0.0
 10
39.04389816288082
 20
-3.090803824846741
 30
0.0
 10
39.04360256130791
 20
-3.50094247566172
 30
0.0
 10
39.04360256130791
 20
-3.911081126476422
 30
0.0
  0
HATCH
  5
93
330
79
100
AcDbEntity
  8
Слой 1
 62
    18
420
        0
440
 33554687
100
AcDbHatch
 10
0.0
 20
0.0
 30
0.0
210
0.0
220
0.0
230
1.0
  2
SOLID
 70
     1
 71
     1
 91
        1
 92
        1
 93
        1
 72
     4
 94
        3
 73
     0
 74
     0
 95
       35
 96
       31
 40
0.0
 40
0.0
 40
0.0
 40
0.0
 40
1.0
 40
1.0
 40
1.0
 40
2.0
 40
2.0
 40
2.0
 40
3.0
 40
3.0
 40
3.0
 40
4.0
 40
4.0
 40
4.0
 40
5.0
 40
5.0
 40
5.0
 40
6.0
 40
6.0
 40
6.0
 40
7.0
 40
7.0
 40
7.0
 40
8.0
 40
8.0
 40
8.0
 40
9.0
 40
9.0
 40
9.0
 40
10.0
 40
10.0
 40
10.0
 40
10.0
 10
39.04360256130791
 20
-3.911081126476422
 10
39.04360324715874
 20
-4.362420788754219
 10
39.04364371233876
 20
-4.813760108084086
 10
39.04356415367917
 20
-5.265099770361327
 10
39.04355043666874
 20
-5.344907739360134
 10
39.04331999089471
 20
-5.345066523993295
 10
38.96231144285
 20
-5.345104248204531
 10
38.76193678485778
 20
-5.345197529890001
 10
38.56154909570473
 20
-5.343851804399504
 10
38.36119775663054
 20
-5.346031920847647
 10
38.31130556072223
 20
-5.346574806538657
 10
38.29344669909195
 20
-5.333818536063504
 10
38.29355163422125
 20
-5.280064278970093
 10
38.29523333969069
 20
-4.418589738298793
 10
38.29423817058945
 20
-3.557110053417204
 10
38.29527380487126
 20
-2.695633455061738
 10
38.29543155049055
 20
-2.564629616370186
 10
38.30392237989918
 20
-2.433799651996852
 10
38.34809732589236
 20
-2.308340414953704
 10
38.40721558296501
 20
-2.140442469379624
 10
38.5021050596368
 20
-2.076370126157055
 10
38.68880523000778
 20
-2.078255822285983
 10
38.84641916577458
 20
-2.079848126937665
 10
38.94306784902472
 20
-2.15532518503955
 10
38.99680423708499
 20
-2.315047436721922
 10
39.03685104881181
 20
-2.434079840000132
 10
39.04327952571417
 20
-2.556970744169209
 10
39.04342286847279
 20
-2.680665859927128
 10
39.04389816288082
 20
-3.090803824846741
 10
39.04360256130791
 20
-3.50094247566172
 10
39.04360256130791
 20
-3.911081126476422
 97
        0
 97
        1
330
92
 75
     2
 76
     1
 98
        1
 10
0.0
 20
0.0
450
        0
451
        0
460
0.0
461
0.0
452
        0
462
0.0
453
        0
470

  0
SPLINE
  5
94
330
79
100
AcDbEntity
  8
Слой 1
100
AcDbSpline
210
0.0
220
0.0
230
1.0
 70
     9
 71
     3
 72
    32
 73
    28
 74
     0
 42
0.0000000001
 43
0.0000000001
 40
0.0
 40
0.0
 40
0.0
 40
0.0
 40
1.0
 40
1.0
 40
1.0
 40
2.0
 40
2.0
 40
2.0
 40
3.0
 40
3.0
 40
3.0
 40
4.0
 40
4.0
 40
4.0
 40
5.0
 40
5.0
 40
5.0
 40
6.0
 40
6.0
 40
6.0
 40
7.0
 40
7.0
 40
7.0
 40
8.0
 40
8.0
 40
8.0
 40
9.0
 40
9.0
 40
9.0
 40
9.0
 10
39.85982708974276
 20
-9.446015088345802
 30
0.0
 10
39.85946358896833
 20
-9.844960279862712
 30
0.0
 10
39.71556734940542
 20
-10.18950372964617
 30
0.0
 10
39.45799138653764
 20
-10.48903465086687
 30
0.0
 10
39.34476020947125
 20
-10.62070860872472
 30
0.0
 10
39.10785029440222
 20
-10.6202524887187
 30
0.0
 10
38.98993132904722
 20
-10.4922316062753
 30
0.0
 10
38.93188505633389
 20
-10.42921228296073
 30
0.0
 10
38.92967387426486
 20
-10.3577989797515
 30
0.0
 10
38.9852462841611
 20
-10.28405363440803
 30
0.0
 10
39.01448340587901
 20
-10.24525736992293
 30
0.0
 10
39.04734661928375
 20
-10.20917656273458
 30
0.0
 10
39.07625178935166
 20
-10.17015052350934
 30
0.0
 10
39.26266938930945
 20
-9.918465562045462
 30
0.0
 10
39.34638224594568
 20
-9.636466796412756
 30
0.0
 10
39.32679641271167
 20
-9.323364075864143
 30
0.0
 10
39.31816429809666
 20
-9.185358623611616
 30
0.0
 10
39.38562661256721
 20
-9.111541259319714
 30
0.0
 10
39.52454632077307
 20
-9.100199303809377
 30
0.0
 10
39.56953537133126
 20
-9.096524965658165
 30
0.0
 10
39.6147390931007
 20
-9.09589051301873
 30
0.0
 10
39.65856905628346
 20
-9.105814038195349
 30
0.0
 10
39.79330576218237
 20
-9.136321264682489
 30
0.0
 10
39.85656655638139
 20
-9.216130605470096
 30
0.0
 10
39.85972901311834
 20
-9.356254786591181
 30
0.0
 10
39.86040457587862
 20
-9.386160483386648
 30
0.0
 10
39.85982708974276
 20
-9.416094301866248
 30
0.0
 10
39.85982708974276
 20
-9.446015088345802
 30
0.0
  0
HATCH
  5
95
330
79
100
AcDbEntity
  8
Слой 1
 62
    18
420
        0
440
 33554687
100
AcDbHatch
 10
0.0
 20
0.0
 30
0.0
210
0.0
220
0.0
230
1.0
  2
SOLID
 70
     1
 71
     1
 91
        1
 92
        1
 93
        1
 72
     4
 94
        3
 73
     0
 74
     0
 95
       32
 96
       28
 40
0.0
 40
0.0
 40
0.0
 40
0.0
 40
1.0
 40
1.0
 40
1.0
 40
2.0
 40
2.0
 40
2.0
 40
3.0
 40
3.0
 40
3.0
 40
4.0
 40
4.0
 40
4.0
 40
5.0
 40
5.0
 40
5.0
 40
6.0
 40
6.0
 40
6.0
 40
7.0
 40
7.0
 40
7.0
 40
8.0
 40
8.0
 40
8.0
 40
9.0
 40
9.0
 40
9.0
 40
9.0
 10
39.85982708974276
 20
-9.446015088345802
 10
39.85946358896833
 20
-9.844960279862712
 10
39.71556734940542
 20
-10.18950372964617
 10
39.45799138653764
 20
-10.48903465086687
 10
39.34476020947125
 20
-10.62070860872472
 10
39.10785029440222
 20
-10.6202524887187
 10
38.98993132904722
 20
-10.4922316062753
 10
38.93188505633389
 20
-10.42921228296073
 10
38.92967387426486
 20
-10.3577989797515
 10
38.9852462841611
 20
-10.28405363440803
 10
39.01448340587901
 20
-10.24525736992293
 10
39.04734661928375
 20
-10.20917656273458
 10
39.07625178935166
 20
-10.17015052350934
 10
39.26266938930945
 20
-9.918465562045462
 10
39.34638224594568
 20
-9.636466796412756
 10
39.32679641271167
 20
-9.323364075864143
 10
39.31816429809666
 20
-9.185358623611616
 10
39.38562661256721
 20
-9.111541259319714
 10
39.52454632077307
 20
-9.100199303809377
 10
39.56953537133126
 20
-9.096524965658165
 10
39.6147390931007
 20
-9.09589051301873
 10
39.65856905628346
 20
-9.105814038195349
 10
39.79330576218237
 20
-9.136321264682489
 10
39.85656655638139
 20
-9.216130605470096
 10
39.85972901311834
 20
-9.356254786591181
 10
39.86040457587862
 20
-9.386160483386648
 10
39.85982708974276
 20
-9.416094301866248
 10
39.85982708974276
 20
-9.446015088345802
 97
        0
 97
        1
330
94
 75
     2
 76
     1
 98
        1
 10
0.0
 20
0.0
450
        0
451
        0
460
0.0
461
0.0
452
        0
462
0.0
453
        0
470

  0
ENDBLK
  5
7C
330
79
100
AcDbEntity
  8
0
100
AcDbBlockEnd
  0
ENDSEC
  0
SECTION
  2
ENTITIES
  0
INSERT
  5
7A
330
70
100
AcDbEntity
  8
Слой 1
100
AcDbBlockReference
  2
Block_0
 10
0.0
 20
0.0
 30
0.0
  0
ENDSEC
  0
SECTION
  2
OBJECTS
  0
DICTIONARY
  5
C
330
0
100
AcDbDictionary
281
     1
  3
ACAD_COLOR
350
63
  3
ACAD_DETAILVIEWSTYLE
350
6A
  3
ACAD_GROUP
350
D
  3
ACAD_LAYOUT
350
62
  3
ACAD_MATERIAL
350
10
  3
ACAD_MLEADERSTYLE
350
66
  3
ACAD_MLINESTYLE
350
5F
  3
ACAD_PLOTSETTINGS
350
61
  3
ACAD_PLOTSTYLENAME
350
E
  3
ACAD_SCALELIST
350
42
  3
ACAD_SECTIONVIEWSTYLE
350
68
  3
ACAD_TABLESTYLE
350
64
  3
ACAD_VISUALSTYLE
350
29
  3
ACDB_RECOMPOSE_DATA
350
9E
  3
AcDbVariableDictionary
350
96
  0
DICTIONARY
  5
63
102
{ACAD_REACTORS
330
C
102
}
330
C
100
AcDbDictionary
281
     1
  0
DICTIONARY
  5
6A
102
{ACAD_REACTORS
330
C
102
}
330
C
100
AcDbDictionary
281
     1
  3
Imperial24
350
6B
  0
DICTIONARY
  5
D
102
{ACAD_REACTORS
330
C
102
}
330
C
100
AcDbDictionary
281
     1
  0
DICTIONARY
  5
62
102
{ACAD_REACTORS
330
C
102
}
330
C
100
AcDbDictionary
281
     1
  3
Layout1
350
6F
  3
Layout2
350
77
  3
Model
350
73
  0
DICTIONARY
  5
10
102
{ACAD_REACTORS
330
C
102
}
330
C
100
AcDbDictionary
281
     1
  3
ByBlock
350
19
  3
ByLayer
350
11
  3
Global
350
21
  0
DICTIONARY
  5
66
102
{ACAD_REACTORS
330
C
102
}
330
C
100
AcDbDictionary
281
     1
  3
Standard
350
67
  0
DICTIONARY
  5
5F
102
{ACAD_REACTORS
330
C
102
}
330
C
100
AcDbDictionary
281
     1
  3
Standard
350
60
  0
DICTIONARY
  5
61
102
{ACAD_REACTORS
330
C
102
}
330
C
100
AcDbDictionary
281
     1
  0
ACDBDICTIONARYWDFLT
  5
E
102
{ACAD_REACTORS
330
C
102
}
330
C
100
AcDbDictionary
281
     1
  3
Normal
350
F
100
AcDbDictionaryWithDefault
340
F
  0
DICTIONARY
  5
42
102
{ACAD_REACTORS
330
C
102
}
330
C
100
AcDbDictionary
281
     1
  3
A0
350
43
  3
A1
350
44
  3
A2
350
45
  3
A3
350
46
  3
A4
350
47
  3
A5
350
48
  3
A6
350
49
  3
A7
350
4A
  3
A8
350
4B
  3
A9
350
4C
  3
B0
350
4D
  3
B1
350
4E
  3
B2
350
4F
  3
B3
350
50
  3
B4
350
51
  3
B5
350
52
  3
B6
350
53
  0
DICTIONARY
  5
68
102
{ACAD_REACTORS
330
C
102
}
330
C
100
AcDbDictionary
281
     1
  3
Imperial24
350
69
  0
DICTIONARY
  5
64
102
{ACAD_REACTORS
330
C
102
}
330
C
100
AcDbDictionary
281
     1
  3
Standard
350
65
  0
DICTIONARY
  5
29
102
{ACAD_REACTORS
330
C
102
}
330
C
100
AcDbDictionary
281
     1
  3
2dWireframe
350
2F
  3
Basic
350
2E
  3
Brighten
350
35
  3
ColorChange
350
39
  3
Conceptual
350
32
  3
Dim
350
34
  3
EdgeColorOff
350
41
  3
Facepattern
350
38
  3
Flat
350
2A
  3
FlatWithEdges
350
2B
  3
Gouraud
350
2C
  3
GouraudWithEdges
350
2D
  3
Hidden
350
31
  3
JitterOff
350
3F
  3
Linepattern
350
37
  3
OverhangOff
350
40
  3
Realistic
350
33
  3
Shaded
350
3E
  3
Shaded with edges
350
3D
  3
Shades of Gray
350
3A
  3
Sketchy
350
3B
  3
Thicken
350
36
  3
Wireframe
350
30
  3
X-Ray
350
3C
  0
XRECORD
  5
9E
102
{ACAD_REACTORS
330
C
102
}
330
C
100
AcDbXrecord
280
     1
 90
        1
330
65
  0
DICTIONARY
  5
96
102
{ACAD_REACTORS
330
C
102
}
330
C
100
AcDbDictionary
281
     1
  3
CANNOSCALE
350
9B
  3
CMLEADERSTYLE
350
98
  3
CTABLESTYLE
350
97
  3
CVIEWDETAILSTYLE
350
99
  3
CVIEWSECTIONSTYLE
350
9A
  0
ACDBDETAILVIEWSTYLE
  5
6B
102
{ACAD_XDICTIONARY
360
A1
102
}
102
{ACAD_REACTORS
330
6A
102
}
330
6A
100
AcDbModelDocViewStyle
 70
     0
  3
Imperial24
290
     0
100
AcDbDetailViewStyle
 70
     0
 71
     0
 90
        3
 71
     1
340
55
 62
   256
 40
0.24
340
0
 62
   256
 40
0.24
300

 40
0.36
280
     3
 71
     2
340
5D
 90
       25
 62
   256
 71
     3
340
55
 62
   256
 40
0.24
 90
        1
 40
0.75
 90
        1
300
%<\AcVar ViewType \f "%tc1">% %<\AcVar ViewDetailId>%\PSCALE %<\AcVar ViewScale \f "%sn">%
 71
     4
340
5D
 90
       25
 62
   256
340
5D
 90
       25
 62
   256
280
     0
  0
LAYOUT
  5
6F
102
{ACAD_REACTORS
330
62
102
}
330
62
100
AcDbPlotSettings
  1

  2

  4

  6

 40
0.0
 41
0.0
 42
0.0
 43
0.0
 44
0.0
 45
0.0
 46
0.0
 47
0.0
 48
0.0
 49
0.0
140
0.0
141
0.0
142
1.0
143
1.0
 70
   688
 72
     0
 73
     0
 74
     5
  7

 75
    16
147
1.0
 76
     0
 77
     2
 78
   300
148
0.0
149
0.0
100
AcDbLayout
  1
Layout1
 70
     1
 71
     1
 10
0.0
 20
0.0
 11
12.0
 21
9.0
 12
0.0
 22
0.0
 32
0.0
 14
0.0
 24
0.0
 34
0.0
 15
0.0
 25
0.0
 35
0.0
146
0.0
 13
0.0
 23
0.0
 33
0.0
 16
1.0
 26
0.0
 36
0.0
 17
0.0
 27
1.0
 37
0.0
 76
     0
330
6C
  0
LAYOUT
  5
77
102
{ACAD_REACTORS
330
62
102
}
330
62
100
AcDbPlotSettings
  1

  2

  4

  6

 40
0.0
 41
0.0
 42
0.0
 43
0.0
 44
0.0
 45
0.0
 46
0.0
 47
0.0
 48
0.0
 49
0.0
140
0.0
141
0.0
142
1.0
143
1.0
 70
   688
 72
     0
 73
     0
 74
     5
  7

 75
    16
147
1.0
 76
     0
 77
     2
 78
   300
148
0.0
149
0.0
100
AcDbLayout
  1
Layout2
 70
     1
 71
     2
 10
0.0
 20
0.0
 11
12.0
 21
9.0
 12
0.0
 22
0.0
 32
0.0
 14
0.0
 24
0.0
 34
0.0
 15
0.0
 25
0.0
 35
0.0
146
0.0
 13
0.0
 23
0.0
 33
0.0
 16
1.0
 26
0.0
 36
0.0
 17
0.0
 27
1.0
 37
0.0
 76
     0
330
74
  0
LAYOUT
  5
73
102
{ACAD_REACTORS
330
62
102
}
330
62
100
AcDbPlotSettings
  1

  2

  4

  6

 40
0.0
 41
0.0
 42
0.0
 43
0.0
 44
0.0
 45
0.0
 46
0.0
 47
0.0
 48
0.0
 49
0.0
140
0.0
141
0.0
142
1.0
143
1.0
 70
  1712
 72
     0
 73
     0
 74
     0
  7

 75
     0
147
1.0
 76
     0
 77
     2
 78
   300
148
0.0
149
0.0
100
AcDbLayout
  1
Model
 70
     1
 71
     0
 10
0.0
 20
0.0
 11
12.0
 21
9.0
 12
0.0
 22
0.0
 32
0.0
 14
0.0
 24
0.0
 34
0.0
 15
0.0
 25
0.0
 35
0.0
146
0.0
 13
0.0
 23
0.0
 33
0.0
 16
1.0
 26
0.0
 36
0.0
 17
0.0
 27
1.0
 37
0.0
 76
     0
330
70
  0
MATERIAL
  5
19
102
{ACAD_XDICTIONARY
360
1A
102
}
102
{ACAD_REACTORS
330
10
102
}
330
10
100
AcDbMaterial
  1
ByBlock
 72
     0
 43
0.0208333333333333
 43
0.0
 43
0.0
 43
0.0
 43
0.0
 43
0.0208333333333333
 43
0.0
 43
0.0
 43
0.0
 43
0.0
 43
1.0
 43
0.0
 43
0.0
 43
0.0
 43
0.0
 43
1.0
 77
     0
 47
0.0208333333333333
 47
0.0
 47
0.0
 47
0.0
 47
0.0
 47
0.0208333333333333
 47
0.0
 47
0.0
 47
0.0
 47
0.0
 47
1.0
 47
0.0
 47
0.0
 47
0.0
 47
0.0
 47
1.0
171
     0
 49
0.0208333333333333
 49
0.0
 49
0.0
 49
0.0
 49
0.0
 49
0.0208333333333333
 49
0.0
 49
0.0
 49
0.0
 49
0.0
 49
1.0
 49
0.0
 49
0.0
 49
0.0
 49
0.0
 49
1.0
175
     0
142
0.0208333333333333
142
0.0
142
0.0
142
0.0
142
0.0
142
0.0208333333333333
142
0.0
142
0.0
142
0.0
142
0.0
142
1.0
142
0.0
142
0.0
142
0.0
142
0.0
142
1.0
179
     0
144
0.0208333333333333
144
0.0
144
0.0
144
0.0
144
0.0
144
0.0208333333333333
144
0.0
144
0.0
144
0.0
144
0.0
144
1.0
144
0.0
144
0.0
144
0.0
144
0.0
144
1.0
147
0.0208333333333333
147
0.0
147
0.0
147
0.0
147
0.0
147
0.0208333333333333
147
0.0
147
0.0
147
0.0
147
0.0
147
1.0
147
0.0
147
0.0
147
0.0
147
0.0
147
1.0
  0
MATERIAL
  5
11
102
{ACAD_XDICTIONARY
360
12
102
}
102
{ACAD_REACTORS
330
10
102
}
330
10
100
AcDbMaterial
  1
ByLayer
 72
     0
 43
0.0208333333333333
 43
0.0
 43
0.0
 43
0.0
 43
0.0
 43
0.0208333333333333
 43
0.0
 43
0.0
 43
0.0
 43
0.0
 43
1.0
 43
0.0
 43
0.0
 43
0.0
 43
0.0
 43
1.0
 77
     0
 47
0.0208333333333333
 47
0.0
 47
0.0
 47
0.0
 47
0.0
 47
0.0208333333333333
 47
0.0
 47
0.0
 47
0.0
 47
0.0
 47
1.0
 47
0.0
 47
0.0
 47
0.0
 47
0.0
 47
1.0
171
     0
 49
0.0208333333333333
 49
0.0
 49
0.0
 49
0.0
 49
0.0
 49
0.0208333333333333
 49
0.0
 49
0.0
 49
0.0
 49
0.0
 49
1.0
 49
0.0
 49
0.0
 49
0.0
 49
0.0
 49
1.0
175
     0
142
0.0208333333333333
142
0.0
142
0.0
142
0.0
142
0.0
142
0.0208333333333333
142
0.0
142
0.0
142
0.0
142
0.0
142
1.0
142
0.0
142
0.0
142
0.0
142
0.0
142
1.0
179
     0
144
0.0208333333333333
144
0.0
144
0.0
144
0.0
144
0.0
144
0.0208333333333333
144
0.0
144
0.0
144
0.0
144
0.0
144
1.0
144
0.0
144
0.0
144
0.0
144
0.0
144
1.0
147
0.0208333333333333
147
0.0
147
0.0
147
0.0
147
0.0
147
0.0208333333333333
147
0.0
147
0.0
147
0.0
147
0.0
147
1.0
147
0.0
147
0.0
147
0.0
147
0.0
147
1.0
  0
MATERIAL
  5
21
102
{ACAD_XDICTIONARY
360
22
102
}
102
{ACAD_REACTORS
330
10
102
}
330
10
100
AcDbMaterial
  1
Global
 72
     0
 43
0.0208333333333333
 43
0.0
 43
0.0
 43
0.0
 43
0.0
 43
0.0208333333333333
 43
0.0
 43
0.0
 43
0.0
 43
0.0
 43
1.0
 43
0.0
 43
0.0
 43
0.0
 43
0.0
 43
1.0
 77
     0
 47
0.0208333333333333
 47
0.0
 47
0.0
 47
0.0
 47
0.0
 47
0.0208333333333333
 47
0.0
 47
0.0
 47
0.0
 47
0.0
 47
1.0
 47
0.0
 47
0.0
 47
0.0
 47
0.0
 47
1.0
171
     0
 49
0.0208333333333333
 49
0.0
 49
0.0
 49
0.0
 49
0.0
 49
0.0208333333333333
 49
0.0
 49
0.0
 49
0.0
 49
0.0
 49
1.0
 49
0.0
 49
0.0
 49
0.0
 49
0.0
 49
1.0
175
     0
142
0.0208333333333333
142
0.0
142
0.0
142
0.0
142
0.0
142
0.0208333333333333
142
0.0
142
0.0
142
0.0
142
0.0
142
1.0
142
0.0
142
0.0
142
0.0
142
0.0
142
1.0
179
     0
144
0.0208333333333333
144
0.0
144
0.0
144
0.0
144
0.0
144
0.0208333333333333
144
0.0
144
0.0
144
0.0
144
0.0
144
1.0
144
0.0
144
0.0
144
0.0
144
0.0
144
1.0
147
0.0208333333333333
147
0.0
147
0.0
147
0.0
147
0.0
147
0.0208333333333333
147
0.0
147
0.0
147
0.0
147
0.0
147
1.0
147
0.0
147
0.0
147
0.0
147
0.0
147
1.0
  0
MLEADERSTYLE
  5
67
102
{ACAD_REACTORS
330
66
102
}
330
66
100
AcDbMLeaderStyle
179
     2
170
     2
171
     1
172
     0
 90
        2
 40
0.0
 41
0.0
173
     1
 91
-1056964608
340
5B
 92
       -2
290
     1
 42
0.09
291
     1
 43
0.36
  3
Standard
 44
0.18
300

342
55
174
     1
178
     6
175
     1
176
     0
 93
-1056964608
 45
0.18
292
     0
297
     0
 46
0.18
 94
-1056964608
 47
1.0
 49
1.0
140
1.0
293
     1
141
0.0
294
     1
177
     0
142
1.0
295
     0
296
     0
143
0.125
271
     0
272
     9
273
     9
298
     1
  0
MLINESTYLE
  5
60
102
{ACAD_REACTORS
330
5F
102
}
330
5F
100
AcDbMlineStyle
  2
STANDARD
 70
     0
  3

 62
   256
 51
90.0
 52
90.0
 71
     2
 49
0.5
 62
   256
  6
BYLAYER
 49
-0.5
 62
   256
  6
BYLAYER
  0
ACDBPLACEHOLDER
  5
F
102
{ACAD_REACTORS
330
E
102
}
330
E
  0
SCALE
  5
43
102
{ACAD_REACTORS
330
42
102
}
330
42
100
AcDbScale
 70
     0
300
1:1
140
1.0
141
1.0
290
     1
  0
SCALE
  5
44
102
{ACAD_REACTORS
330
42
102
}
330
42
100
AcDbScale
 70
     0
300
1/128" = 1'-0"
140
0.0078125
141
12.0
290
     0
  0
SCALE
  5
45
102
{ACAD_REACTORS
330
42
102
}
330
42
100
AcDbScale
 70
     0
300
1/64" = 1'-0"
140
0.015625
141
12.0
290
     0
  0
SCALE
  5
46
102
{ACAD_REACTORS
330
42
102
}
330
42
100
AcDbScale
 70
     0
300
1/32" = 1'-0"
140
0.03125
141
12.0
290
     0
  0
SCALE
  5
47
102
{ACAD_REACTORS
330
42
102
}
330
42
100
AcDbScale
 70
     0
300
1/16" = 1'-0"
140
0.0625
141
12.0
290
     0
  0
SCALE
  5
48
102
{ACAD_REACTORS
330
42
102
}
330
42
100
AcDbScale
 70
     0
300
3/32" = 1'-0"
140
0.09375
141
12.0
290
     0
  0
SCALE
  5
49
102
{ACAD_REACTORS
330
42
102
}
330
42
100
AcDbScale
 70
     0
300
1/8" = 1'-0"
140
0.125
141
12.0
290
     0
  0
SCALE
  5
4A
102
{ACAD_REACTORS
330
42
102
}
330
42
100
AcDbScale
 70
     0
300
3/16" = 1'-0"
140
0.1875
141
12.0
290
     0
  0
SCALE
  5
4B
102
{ACAD_REACTORS
330
42
102
}
330
42
100
AcDbScale
 70
     0
300
1/4" = 1'-0"
140
0.25
141
12.0
290
     0
  0
SCALE
  5
4C
102
{ACAD_REACTORS
330
42
102
}
330
42
100
AcDbScale
 70
     0
300
3/8" = 1'-0"
140
0.375
141
12.0
290
     0
  0
SCALE
  5
4D
102
{ACAD_REACTORS
330
42
102
}
330
42
100
AcDbScale
 70
     0
300
1/2" = 1'-0"
140
0.5
141
12.0
290
     0
  0
SCALE
  5
4E
102
{ACAD_REACTORS
330
42
102
}
330
42
100
AcDbScale
 70
     0
300
3/4" = 1'-0"
140
0.75
141
12.0
290
     0
  0
SCALE
  5
4F
102
{ACAD_REACTORS
330
42
102
}
330
42
100
AcDbScale
 70
     0
300
1" = 1'-0"
140
1.0
141
12.0
290
     0
  0
SCALE
  5
50
102
{ACAD_REACTORS
330
42
102
}
330
42
100
AcDbScale
 70
     0
300
1-1/2" = 1'-0"
140
1.5
141
12.0
290
     0
  0
SCALE
  5
51
102
{ACAD_REACTORS
330
42
102
}
330
42
100
AcDbScale
 70
     0
300
3" = 1'-0"
140
3.0
141
12.0
290
     0
  0
SCALE
  5
52
102
{ACAD_REACTORS
330
42
102
}
330
42
100
AcDbScale
 70
     0
300
6" = 1'-0"
140
6.0
141
12.0
290
     0
  0
SCALE
  5
53
102
{ACAD_REACTORS
330
42
102
}
330
42
100
AcDbScale
 70
     0
300
1'-0" = 1'-0"
140
12.0
141
12.0
290
     0
  0
ACDBSECTIONVIEWSTYLE
  5
69
102
{ACAD_XDICTIONARY
360
9F
102
}
102
{ACAD_REACTORS
330
68
102
}
330
68
100
AcDbModelDocViewStyle
 70
     0
  3
Imperial24
290
     0
100
AcDbSectionViewStyle
 70
     0
 71
     0
 90
       78
 71
     1
340
55
 62
   256
 40
0.24
340
0
340
0
 62
   256
 40
0.24
300
I, O, Q, S, X, Z
 40
0.48
 90
        3
 40
0.18
 90
        1
 71
     2
340
5D
 90
       25
 62
   256
340
5D
 90
       50
 62
   256
 40
0.24
 40
0.0
 40
0.24
 71
     3
340
55
 62
   256
 40
0.24
 90
        1
 40
0.75
 90
        1
300
%<\AcVar ViewType \f "%tc1">% %<\AcVar ViewSectionStartId>%-%<\AcVar ViewSectionEndId>%\PSCALE %<\AcVar ViewScale \f "%sn">%
 71
     4
 62
   256
 62
   257
300
ANSI31
 40
1.0
 90
        0
290
     0
290
     0
 90
        6
 40
0.0
 40
1.570796326794896
 40
0.2617993877991494
 40
1.308996938995747
 40
-0.2617993877991494
 40
1.832595714594046
  0
TABLESTYLE
  5
65
102
{ACAD_XDICTIONARY
360
9C
102
}
102
{ACAD_REACTORS
330
64
102
}
330
64
100
AcDbTableStyle
280
     0
  3
Standard
 70
     0
 71
     0
 40
0.06
 41
0.06
280
     0
281
     0
  7
Standard
140
0.18
170
     2
 62
     0
 63
     7
283
     0
 90
      512
 91
        0
  1

274
    -2
284
     1
 64
     0
275
    -2
285
     1
 65
     0
276
    -2
286
     1
 66
     0
277
    -2
287
     1
 67
     0
278
    -2
288
     1
 68
     0
279
    -2
289
     1
 69
     0
  7
Standard
140
0.25
170
     5
 62
     0
 63
     7
283
     0
 90
      512
 91
        0
  1

274
    -2
284
     1
 64
     0
275
    -2
285
     1
 65
     0
276
    -2
286
     1
 66
     0
277
    -2
287
     1
 67
     0
278
    -2
288
     1
 68
     0
279
    -2
289
     1
 69
     0
  7
Standard
140
0.18
170
     5
 62
     0
 63
     7
283
     0
 90
      512
 91
        0
  1

274
    -2
284
     1
 64
     0
275
    -2
285
     1
 65
     0
276
    -2
286
     1
 66
     0
277
    -2
287
     1
 67
     0
278
    -2
288
     1
 68
     0
279
    -2
289
     1
 69
     0
  0
VISUALSTYLE
  5
2F
102
{ACAD_REACTORS
330
29
102
}
330
29
100
AcDbVisualStyle
  2
2dWireframe
 70
     4
177
     3
291
     0
 70
    58
 90
        0
176
     1
 90
        2
176
     1
 90
        0
176
     1
 90
        0
176
     1
 40
0.6
176
     1
 40
30.0
176
     1
 62
     7
420
 16777215
176
     1
 90
        1
176
     1
 90
        4
176
     1
 62
     7
176
     1
 62
   257
176
     1
 90
        1
176
     1
 90
        1
176
     1
 40
1.0
176
     1
 90
        0
176
     1
 62
   257
176
     1
 40
1.0
176
     1
 90
        1
176
     1
 90
        6
176
     1
 90
        2
176
     1
 62
     7
176
     1
 90
        5
176
     1
 90
        0
176
     1
 90
        0
176
     1
290
     0
176
     1
 90
        1
176
     1
 40
0.0
176
     1
 90
        0
176
     1
290
     1
176
     1
290
     1
176
     1
290
     0
176
     1
290
     0
176
     1
290
     0
176
     1
290
     0
176
     1
290
     0
176
     1
290
     0
176
     1
290
     0
176
     1
 90
       50
176
     1
 40
0.0
176
     1
 40
1.0
176
     1
 90
        0
176
     1
 62
    18
420
        0
176
     1
 90
       50
176
     1
 90
        3
176
     1
 62
     5
420
      255
176
     1
290
     0
176
     1
 90
       50
176
     1
 90
       50
176
     1
 90
       50
176
     1
290
     0
176
     1
 90
       50
176
     1
 62
   256
176
     0
 40
1.0
176
     0
 90
        2
176
     1
  1
strokes_ogs.tif
176
     1
290
     0
176
     1
 40
1.0
176
     1
 40
1.0
176
     1
1001
ACAD
1000
AcDbSavedByObjectVersion
1070
     0
  0
VISUALSTYLE
  5
2E
102
{ACAD_REACTORS
330
29
102
}
330
29
100
AcDbVisualStyle
  2
Basic
 70
     7
177
     3
291
     1
 70
    58
 90
        1
176
     1
 90
        0
176
     1
 90
        1
176
     1
 90
        0
176
     1
 40
0.6
176
     1
 40
30.0
176
     1
 62
     7
420
 16777215
176
     1
 90
        0
176
     1
 90
        4
176
     1
 62
     7
176
     1
 62
   257
176
     1
 90
        1
176
     1
 90
        1
176
     1
 40
1.0
176
     1
 90
        8
176
     1
 62
     7
176
     1
 40
1.0
176
     1
 90
        1
176
     1
 90
        6
176
     1
 90
        2
176
     1
 62
     7
176
     1
 90
        5
176
     1
 90
        0
176
     1
 90
        0
176
     1
290
     0
176
     1
 90
        1
176
     1
 40
0.0
176
     1
 90
        0
176
     1
290
     0
176
     1
290
     1
176
     1
290
     1
176
     1
290
     0
176
     1
290
     0
176
     1
290
     0
176
     1
290
     0
176
     1
290
     0
176
     1
290
     0
176
     1
 90
       50
176
     1
 40
0.0
176
     1
 40
1.0
176
     1
 90
        0
176
     1
 62
    18
420
        0
176
     1
 90
       50
176
     1
 90
        3
176
     1
 62
     5
420
      255
176
     1
290
     0
176
     1
 90
       50
176
     1
 90
       50
176
     1
 90
       50
176
     1
290
     0
176
     1
 90
       50
176
     1
 62
   256
176
     0
 40
1.0
176
     0
 90
        2
176
     1
  1
strokes_ogs.tif
176
     1
290
     0
176
     1
 40
1.0
176
     1
 40
1.0
176
     1
1001
ACAD
1000
AcDbSavedByObjectVersion
1070
     0
  0
VISUALSTYLE
  5
35
102
{ACAD_REACTORS
330
29
102
}
330
29
100
AcDbVisualStyle
  2
Brighten
 70
    12
177
     3
291
     1
 70
    58
 90
        2
176
     1
 90
        2
176
     1
 90
        0
176
     1
 90
        0
176
     1
 40
0.6
176
     1
 40
30.0
176
     1
 62
     7
420
 16777215
176
     1
 90
        1
176
     1
 90
        4
176
     1
 62
     7
176
     1
 62
   257
176
     1
 90
        1
176
     1
 90
        1
176
     1
 40
1.0
176
     1
 90
        8
176
     1
 62
     7
176
     1
 40
1.0
176
     1
 90
        1
176
     1
 90
        6
176
     1
 90
        2
176
     1
 62
     7
176
     1
 90
        5
176
     1
 90
        0
176
     1
 90
        0
176
     1
290
     0
176
     1
 90
        1
176
     1
 40
50.0
176
     1
 90
        0
176
     1
290
     0
176
     1
290
     1
176
     1
290
     1
176
     1
290
     0
176
     1
290
     0
176
     1
290
     0
176
     1
290
     0
176
     1
290
     0
176
     1
290
     0
176
     1
 90
       50
176
     1
 40
0.0
176
     1
 40
1.0
176
     1
 90
        0
176
     1
 62
    18
420
        0
176
     1
 90
       50
176
     1
 90
        3
176
     1
 62
     5
420
      255
176
     1
290
     0
176
     1
 90
       50
176
     1
 90
       50
176
     1
 90
       50
176
     1
290
     0
176
     1
 90
       50
176
     1
 62
   256
176
     0
 40
1.0
176
     0
 90
        2
176
     1
  1
strokes_ogs.tif
176
     1
290
     0
176
     1
 40
1.0
176
     1
 40
1.0
176
     1
1001
ACAD
1000
AcDbSavedByObjectVersion
1070
     0
  0
VISUALSTYLE
  5
39
102
{ACAD_REACTORS
330
29
102
}
330
29
100
AcDbVisualStyle
  2
ColorChange
 70
    16
177
     3
291
     1
 70
    58
 90
        2
176
     1
 90
        2
176
     1
 90
        3
176
     1
 90
        0
176
     1
 40
0.6
176
     1
 40
30.0
176
     1
 62
     8
420
  8421504
176
     1
 90
        1
176
     1
 90
        4
176
     1
 62
     7
176
     1
 62
   257
176
     1
 90
        1
176
     1
 90
        1
176
     1
 40
1.0
176
     1
 90
        8
176
     1
 62
     8
420
  8421504
176
     1
 40
1.0
176
     1
 90
        1
176
     1
 90
        6
176
     1
 90
        2
176
     1
 62
     7
176
     1
 90
        5
176
     1
 90
        0
176
     1
 90
        0
176
     1
290
     0
176
     1
 90
        1
176
     1
 40
0.0
176
     1
 90
        0
176
     1
290
     0
176
     1
290
     1
176
     1
290
     1
176
     1
290
     0
176
     1
290
     0
176
     1
290
     0
176
     1
290
     0
176
     1
290
     0
176
     1
290
     0
176
     1
 90
       50
176
     1
 40
0.0
176
     1
 40
1.0
176
     1
 90
        0
176
     1
 62
    18
420
        0
176
     1
 90
       50
176
     1
 90
        3
176
     1
 62
     5
420
      255
176
     1
290
     0
176
     1
 90
       50
176
     1
 90
       50
176
     1
 90
       50
176
     1
290
     0
176
     1
 90
       50
176
     1
 62
   256
176
     0
 40
1.0
176
     0
 90
        2
176
     1
  1
strokes_ogs.tif
176
     1
290
     0
176
     1
 40
1.0
176
     1
 40
1.0
176
     1
1001
ACAD
1000
AcDbSavedByObjectVersion
1070
     0
  0
VISUALSTYLE
  5
32
102
{ACAD_REACTORS
330
29
102
}
330
29
100
AcDbVisualStyle
  2
Conceptual
 70
     9
177
     3
291
     0
 70
    58
 90
        3
176
     1
 90
        2
176
     1
 90
        0
176
     1
 90
        0
176
     1
 40
0.6
176
     1
 40
30.0
176
     1
 62
     7
420
 16777215
176
     1
 90
        2
176
     1
 90
        2
176
     1
 62
     7
176
     1
 62
   257
176
     1
 90
        1
176
     1
 90
        1
176
     1
 40
179.0
176
     1
 90
        8
176
     1
 62
     7
176
     1
 40
1.0
176
     1
 90
        1
176
     1
 90
        6
176
     1
 90
        2
176
     1
 62
     7
176
     1
 90
        3
176
     1
 90
        0
176
     1
 90
        0
176
     1
290
     0
176
     1
 90
        1
176
     1
 40
0.0
176
     1
 90
        0
176
     1
290
     0
176
     1
290
     1
176
     1
290
     1
176
     1
290
     0
176
     1
290
     0
176
     1
290
     0
176
     1
290
     0
176
     1
290
     0
176
     1
290
     0
176
     1
 90
       50
176
     1
 40
0.0
176
     1
 40
1.0
176
     1
 90
        0
176
     1
 62
    18
420
        0
176
     1
 90
       50
176
     1
 90
        3
176
     1
 62
     5
420
      255
176
     1
290
     0
176
     1
 90
       50
176
     1
 90
       50
176
     1
 90
       50
176
     1
290
     0
176
     1
 90
       50
176
     1
 62
   256
176
     0
 40
1.0
176
     0
 90
        2
176
     1
  1
strokes_ogs.tif
176
     1
290
     0
176
     1
 40
1.0
176
     1
 40
1.0
176
     1
1001
ACAD
1000
AcDbSavedByObjectVersion
1070
     0
  0
VISUALSTYLE
  5
34
102
{ACAD_REACTORS
330
29
102
}
330
29
100
AcDbVisualStyle
  2
Dim
 70
    11
177
     3
291
     1
 70
    58
 90
        2
176
     1
 90
        2
176
     1
 90
        0
176
     1
 90
        0
176
     1
 40
0.6
176
     1
 40
30.0
176
     1
 62
     7
420
 16777215
176
     1
 90
        1
176
     1
 90
        4
176
     1
 62
     7
176
     1
 62
   257
176
     1
 90
        1
176
     1
 90
        1
176
     1
 40
1.0
176
     1
 90
        8
176
     1
 62
     7
176
     1
 40
1.0
176
     1
 90
        1
176
     1
 90
        6
176
     1
 90
        2
176
     1
 62
     7
176
     1
 90
        5
176
     1
 90
        0
176
     1
 90
        0
176
     1
290
     0
176
     1
 90
        1
176
     1
 40
-50.0
176
     1
 90
        0
176
     1
290
     0
176
     1
290
     1
176
     1
290
     1
176
     1
290
     0
176
     1
290
     0
176
     1
290
     0
176
     1
290
     0
176
     1
290
     0
176
     1
290
     0
176
     1
 90
       50
176
     1
 40
0.0
176
     1
 40
1.0
176
     1
 90
        0
176
     1
 62
    18
420
        0
176
     1
 90
       50
176
     1
 90
        3
176
     1
 62
     5
420
      255
176
     1
290
     0
176
     1
 90
       50
176
     1
 90
       50
176
     1
 90
       50
176
     1
290
     0
176
     1
 90
       50
176
     1
 62
   256
176
     0
 40
1.0
176
     0
 90
        2
176
     1
  1
strokes_ogs.tif
176
     1
290
     0
176
     1
 40
1.0
176
     1
 40
1.0
176
     1
1001
ACAD
1000
AcDbSavedByObjectVersion
1070
     0
  0
VISUALSTYLE
  5
41
102
{ACAD_REACTORS
330
29
102
}
330
29
100
AcDbVisualStyle
  2
EdgeColorOff
 70
    22
177
     3
291
     1
 70
    58
 90
        2
176
     0
 90
        2
176
     0
 90
        0
176
     0
 90
        0
176
     0
 40
0.6
176
     0
 40
30.0
176
     0
 62
     7
420
 16777215
176
     0
 90
        1
176
     0
 90
        4
176
     0
 62
     7
176
     0
 62
   257
176
     0
 90
        1
176
     0
 90
        1
176
     0
 40
1.0
176
     0
 90
        8
176
     2
 62
     7
176
     0
 40
1.0
176
     0
 90
        1
176
     0
 90
        6
176
     0
 90
        2
176
     0
 62
     7
176
     0
 90
        5
176
     0
 90
        0
176
     0
 90
        0
176
     0
290
     0
176
     0
 90
        1
176
     0
 40
0.0
176
     0
 90
        0
176
     0
290
     0
176
     0
290
     1
176
     0
290
     1
176
     0
290
     0
176
     0
290
     0
176
     0
290
     0
176
     0
290
     0
176
     0
290
     0
176
     0
290
     0
176
     0
 90
       50
176
     0
 40
0.0
176
     0
 40
1.0
176
     0
 90
        0
176
     0
 62
    18
420
        0
176
     0
 90
       50
176
     0
 90
        3
176
     0
 62
     5
420
      255
176
     0
290
     0
176
     0
 90
       50
176
     0
 90
       50
176
     0
 90
       50
176
     0
290
     0
176
     0
 90
       50
176
     0
 62
   256
176
     0
 40
1.0
176
     0
 90
        2
176
     0
  1
strokes_ogs.tif
176
     0
290
     0
176
     0
 40
1.0
176
     0
 40
1.0
176
     0
1001
ACAD
1000
AcDbSavedByObjectVersion
1070
     0
  0
VISUALSTYLE
  5
38
102
{ACAD_REACTORS
330
29
102
}
330
29
100
AcDbVisualStyle
  2
Facepattern
 70
    15
177
     3
291
     1
 70
    58
 90
        2
176
     1
 90
        2
176
     1
 90
        0
176
     1
 90
        0
176
     1
 40
0.6
176
     1
 40
30.0
176
     1
 62
     7
420
 16777215
176
     1
 90
        1
176
     1
 90
        4
176
     1
 62
     7
176
     1
 62
   257
176
     1
 90
        1
176
     1
 90
        1
176
     1
 40
1.0
176
     1
 90
        8
176
     1
 62
     7
176
     1
 40
1.0
176
     1
 90
        1
176
     1
 90
        6
176
     1
 90
        2
176
     1
 62
     7
176
     1
 90
        5
176
     1
 90
        0
176
     1
 90
        0
176
     1
290
     0
176
     1
 90
        1
176
     1
 40
0.0
176
     1
 90
        0
176
     1
290
     0
176
     1
290
     1
176
     1
290
     1
176
     1
290
     0
176
     1
290
     0
176
     1
290
     0
176
     1
290
     0
176
     1
290
     0
176
     1
290
     0
176
     1
 90
       50
176
     1
 40
0.0
176
     1
 40
1.0
176
     1
 90
        0
176
     1
 62
    18
420
        0
176
     1
 90
       50
176
     1
 90
        3
176
     1
 62
     5
420
      255
176
     1
290
     0
176
     1
 90
       50
176
     1
 90
       50
176
     1
 90
       50
176
     1
290
     0
176
     1
 90
       50
176
     1
 62
   256
176
     0
 40
1.0
176
     0
 90
        2
176
     1
  1
strokes_ogs.tif
176
     1
290
     0
176
     1
 40
1.0
176
     1
 40
1.0
176
     1
1001
ACAD
1000
AcDbSavedByObjectVersion
1070
     0
  0
VISUALSTYLE
  5
2A
102
{ACAD_REACTORS
330
29
102
}
330
29
100
AcDbVisualStyle
  2
Flat
 70
     0
177
     3
291
     1
 70
    58
 90
        2
176
     1
 90
        1
176
     1
 90
        1
176
     1
 90
        2
176
     1
 40
0.6
176
     1
 40
30.0
176
     1
 62
     7
420
 16777215
176
     1
 90
        0
176
     1
 90
        0
176
     1
 62
     7
176
     1
 62
   257
176
     1
 90
        1
176
     1
 90
        1
176
     1
 40
1.0
176
     1
 90
        8
176
     1
 62
     7
176
     1
 40
1.0
176
     1
 90
        1
176
     1
 90
        6
176
     1
 90
        2
176
     1
 62
     7
176
     1
 90
        5
176
     1
 90
        0
176
     1
 90
        0
176
     1
290
     0
176
     1
 90
       13
176
     1
 40
0.0
176
     1
 90
        0
176
     1
290
     0
176
     1
290
     1
176
     1
290
     1
176
     1
290
     0
176
     1
290
     0
176
     1
290
     0
176
     1
290
     0
176
     1
290
     0
176
     1
290
     0
176
     1
 90
       50
176
     1
 40
0.0
176
     1
 40
1.0
176
     1
 90
        0
176
     1
 62
    18
420
        0
176
     1
 90
       50
176
     1
 90
        3
176
     1
 62
     5
420
      255
176
     1
290
     0
176
     1
 90
       50
176
     1
 90
       50
176
     1
 90
       50
176
     1
290
     0
176
     1
 90
       50
176
     1
 62
   256
176
     0
 40
1.0
176
     0
 90
        2
176
     1
  1
strokes_ogs.tif
176
     1
290
     0
176
     1
 40
1.0
176
     1
 40
1.0
176
     1
1001
ACAD
1000
AcDbSavedByObjectVersion
1070
     0
  0
VISUALSTYLE
  5
2B
102
{ACAD_REACTORS
330
29
102
}
330
29
100
AcDbVisualStyle
  2
FlatWithEdges
 70
     1
177
     3
291
     1
 70
    58
 90
        2
176
     1
 90
        1
176
     1
 90
        1
176
     1
 90
        2
176
     1
 40
0.6
176
     1
 40
30.0
176
     1
 62
     7
420
 16777215
176
     1
 90
        1
176
     1
 90
        0
176
     1
 62
     7
176
     1
 62
   257
176
     1
 90
        1
176
     1
 90
        1
176
     1
 40
1.0
176
     1
 90
        0
176
     1
 62
   257
176
     1
 40
1.0
176
     1
 90
        1
176
     1
 90
        6
176
     1
 90
        2
176
     1
 62
     7
176
     1
 90
        5
176
     1
 90
        0
176
     1
 90
        0
176
     1
290
     0
176
     1
 90
       13
176
     1
 40
0.0
176
     1
 90
        0
176
     1
290
     0
176
     1
290
     1
176
     1
290
     1
176
     1
290
     0
176
     1
290
     0
176
     1
290
     0
176
     1
290
     0
176
     1
290
     0
176
     1
290
     0
176
     1
 90
       50
176
     1
 40
0.0
176
     1
 40
1.0
176
     1
 90
        0
176
     1
 62
    18
420
        0
176
     1
 90
       50
176
     1
 90
        3
176
     1
 62
     5
420
      255
176
     1
290
     0
176
     1
 90
       50
176
     1
 90
       50
176
     1
 90
       50
176
     1
290
     0
176
     1
 90
       50
176
     1
 62
   256
176
     0
 40
1.0
176
     0
 90
        2
176
     1
  1
strokes_ogs.tif
176
     1
290
     0
176
     1
 40
1.0
176
     1
 40
1.0
176
     1
1001
ACAD
1000
AcDbSavedByObjectVersion
1070
     0
  0
VISUALSTYLE
  5
2C
102
{ACAD_REACTORS
330
29
102
}
330
29
100
AcDbVisualStyle
  2
Gouraud
 70
     2
177
     3
291
     1
 70
    58
 90
        2
176
     1
 90
        2
176
     1
 90
        1
176
     1
 90
        2
176
     1
 40
0.6
176
     1
 40
30.0
176
     1
 62
     7
420
 16777215
176
     1
 90
        0
176
     1
 90
        0
176
     1
 62
     7
176
     1
 62
   257
176
     1
 90
        1
176
     1
 90
        1
176
     1
 40
1.0
176
     1
 90
        0
176
     1
 62
     7
176
     1
 40
1.0
176
     1
 90
        1
176
     1
 90
        6
176
     1
 90
        2
176
     1
 62
     7
176
     1
 90
        5
176
     1
 90
        0
176
     1
 90
        0
176
     1
290
     0
176
     1
 90
       13
176
     1
 40
0.0
176
     1
 90
        0
176
     1
290
     0
176
     1
290
     1
176
     1
290
     1
176
     1
290
     0
176
     1
290
     0
176
     1
290
     0
176
     1
290
     0
176
     1
290
     0
176
     1
290
     0
176
     1
 90
       50
176
     1
 40
0.0
176
     1
 40
1.0
176
     1
 90
        0
176
     1
 62
    18
420
        0
176
     1
 90
       50
176
     1
 90
        3
176
     1
 62
     5
420
      255
176
     1
290
     0
176
     1
 90
       50
176
     1
 90
       50
176
     1
 90
       50
176
     1
290
     0
176
     1
 90
       50
176
     1
 62
   256
176
     0
 40
1.0
176
     0
 90
        2
176
     1
  1
strokes_ogs.tif
176
     1
290
     0
176
     1
 40
1.0
176
     1
 40
1.0
176
     1
1001
ACAD
1000
AcDbSavedByObjectVersion
1070
     0
  0
VISUALSTYLE
  5
2D
102
{ACAD_REACTORS
330
29
102
}
330
29
100
AcDbVisualStyle
  2
GouraudWithEdges
 70
     3
177
     3
291
     1
 70
    58
 90
        2
176
     1
 90
        2
176
     1
 90
        1
176
     1
 90
        2
176
     1
 40
0.6
176
     1
 40
30.0
176
     1
 62
     7
420
 16777215
176
     1
 90
        1
176
     1
 90
        0
176
     1
 62
     7
176
     1
 62
   257
176
     1
 90
        1
176
     1
 90
        1
176
     1
 40
1.0
176
     1
 90
        0
176
     1
 62
   257
176
     1
 40
1.0
176
     1
 90
        1
176
     1
 90
        6
176
     1
 90
        2
176
     1
 62
     7
176
     1
 90
        5
176
     1
 90
        0
176
     1
 90
        0
176
     1
290
     0
176
     1
 90
       13
176
     1
 40
0.0
176
     1
 90
        0
176
     1
290
     0
176
     1
290
     1
176
     1
290
     1
176
     1
290
     0
176
     1
290
     0
176
     1
290
     0
176
     1
290
     0
176
     1
290
     0
176
     1
290
     0
176
     1
 90
       50
176
     1
 40
0.0
176
     1
 40
1.0
176
     1
 90
        0
176
     1
 62
    18
420
        0
176
     1
 90
       50
176
     1
 90
        3
176
     1
 62
     5
420
      255
176
     1
290
     0
176
     1
 90
       50
176
     1
 90
       50
176
     1
 90
       50
176
     1
290
     0
176
     1
 90
       50
176
     1
 62
   256
176
     0
 40
1.0
176
     0
 90
        2
176
     1
  1
strokes_ogs.tif
176
     1
290
     0
176
     1
 40
1.0
176
     1
 40
1.0
176
     1
1001
ACAD
1000
AcDbSavedByObjectVersion
1070
     0
  0
VISUALSTYLE
  5
31
102
{ACAD_REACTORS
330
29
102
}
330
29
100
AcDbVisualStyle
  2
Hidden
 70
     6
177
     3
291
     0
 70
    58
 90
        1
176
     1
 90
        2
176
     1
 90
        2
176
     1
 90
        0
176
     1
 40
0.6
176
     1
 40
30.0
176
     1
 62
     7
420
 16777215
176
     1
 90
        2
176
     1
 90
        2
176
     1
 62
     7
176
     1
 62
   257
176
     1
 90
        2
176
     1
 90
        1
176
     1
 40
40.0
176
     1
 90
        0
176
     1
 62
   257
176
     1
 40
1.0
176
     1
 90
        1
176
     1
 90
        6
176
     1
 90
        2
176
     1
 62
     7
176
     1
 90
        3
176
     1
 90
        0
176
     1
 90
        0
176
     1
290
     0
176
     1
 90
        1
176
     1
 40
0.0
176
     1
 90
        0
176
     1
290
     0
176
     1
290
     1
176
     1
290
     1
176
     1
290
     0
176
     1
290
     0
176
     1
290
     0
176
     1
290
     0
176
     1
290
     0
176
     1
290
     0
176
     1
 90
       50
176
     1
 40
0.0
176
     1
 40
1.0
176
     1
 90
        0
176
     1
 62
    18
420
        0
176
     1
 90
       50
176
     1
 90
        3
176
     1
 62
     5
420
      255
176
     1
290
     0
176
     1
 90
       50
176
     1
 90
       50
176
     1
 90
       50
176
     1
290
     0
176
     1
 90
       50
176
     1
 62
   256
176
     0
 40
1.0
176
     0
 90
        2
176
     1
  1
strokes_ogs.tif
176
     1
290
     0
176
     1
 40
1.0
176
     1
 40
1.0
176
     1
1001
ACAD
1000
AcDbSavedByObjectVersion
1070
     0
  0
VISUALSTYLE
  5
3F
102
{ACAD_REACTORS
330
29
102
}
330
29
100
AcDbVisualStyle
  2
JitterOff
 70
    20
177
     3
291
     1
 70
    58
 90
        2
176
     0
 90
        2
176
     0
 90
        0
176
     0
 90
        0
176
     0
 40
0.6
176
     0
 40
30.0
176
     0
 62
     7
420
 16777215
176
     0
 90
        1
176
     0
 90
        4
176
     0
 62
     7
176
     0
 62
   257
176
     0
 90
        1
176
     0
 90
        1
176
     0
 40
1.0
176
     0
 90
       10
176
     2
 62
     7
176
     0
 40
1.0
176
     0
 90
        1
176
     0
 90
        6
176
     0
 90
        2
176
     0
 62
     7
176
     0
 90
        5
176
     0
 90
        0
176
     0
 90
        0
176
     0
290
     0
176
     0
 90
        1
176
     0
 40
0.0
176
     0
 90
        0
176
     0
290
     0
176
     0
290
     1
176
     0
290
     1
176
     0
290
     0
176
     0
290
     0
176
     0
290
     0
176
     0
290
     0
176
     0
290
     0
176
     0
290
     0
176
     0
 90
       50
176
     0
 40
0.0
176
     0
 40
1.0
176
     0
 90
        0
176
     0
 62
    18
420
        0
176
     0
 90
       50
176
     0
 90
        3
176
     0
 62
     5
420
      255
176
     0
290
     0
176
     0
 90
       50
176
     0
 90
       50
176
     0
 90
       50
176
     0
290
     0
176
     0
 90
       50
176
     0
 62
   256
176
     0
 40
1.0
176
     0
 90
        2
176
     0
  1
strokes_ogs.tif
176
     0
290
     0
176
     0
 40
1.0
176
     0
 40
1.0
176
     0
1001
ACAD
1000
AcDbSavedByObjectVersion
1070
     0
  0
VISUALSTYLE
  5
37
102
{ACAD_REACTORS
330
29
102
}
330
29
100
AcDbVisualStyle
  2
Linepattern
 70
    14
177
     3
291
     1
 70
    58
 90
        2
176
     1
 90
        2
176
     1
 90
        0
176
     1
 90
        0
176
     1
 40
0.6
176
     1
 40
30.0
176
     1
 62
     7
420
 16777215
176
     1
 90
        1
176
     1
 90
        4
176
     1
 62
     7
176
     1
 62
   257
176
     1
 90
        7
176
     1
 90
        7
176
     1
 40
1.0
176
     1
 90
        8
176
     1
 62
     7
176
     1
 40
1.0
176
     1
 90
        1
176
     1
 90
        6
176
     1
 90
        2
176
     1
 62
     7
176
     1
 90
        5
176
     1
 90
        0
176
     1
 90
        0
176
     1
290
     0
176
     1
 90
        1
176
     1
 40
0.0
176
     1
 90
        0
176
     1
290
     0
176
     1
290
     1
176
     1
290
     1
176
     1
290
     0
176
     1
290
     0
176
     1
290
     0
176
     1
290
     0
176
     1
290
     0
176
     1
290
     0
176
     1
 90
       50
176
     1
 40
0.0
176
     1
 40
1.0
176
     1
 90
        0
176
     1
 62
    18
420
        0
176
     1
 90
       50
176
     1
 90
        3
176
     1
 62
     5
420
      255
176
     1
290
     0
176
     1
 90
       50
176
     1
 90
       50
176
     1
 90
       50
176
     1
290
     0
176
     1
 90
       50
176
     1
 62
   256
176
     0
 40
1.0
176
     0
 90
        2
176
     1
  1
strokes_ogs.tif
176
     1
290
     0
176
     1
 40
1.0
176
     1
 40
1.0
176
     1
1001
ACAD
1000
AcDbSavedByObjectVersion
1070
     0
  0
VISUALSTYLE
  5
40
102
{ACAD_REACTORS
330
29
102
}
330
29
100
AcDbVisualStyle
  2
OverhangOff
 70
    21
177
     3
291
     1
 70
    58
 90
        2
176
     0
 90
        2
176
     0
 90
        0
176
     0
 90
        0
176
     0
 40
0.6
176
     0
 40
30.0
176
     0
 62
     7
420
 16777215
176
     0
 90
        1
176
     0
 90
        4
176
     0
 62
     7
176
     0
 62
   257
176
     0
 90
        1
176
     0
 90
        1
176
     0
 40
1.0
176
     0
 90
        9
176
     2
 62
     7
176
     0
 40
1.0
176
     0
 90
        1
176
     0
 90
        6
176
     0
 90
        2
176
     0
 62
     7
176
     0
 90
        5
176
     0
 90
        0
176
     0
 90
        0
176
     0
290
     0
176
     0
 90
        1
176
     0
 40
0.0
176
     0
 90
        0
176
     0
290
     0
176
     0
290
     1
176
     0
290
     1
176
     0
290
     0
176
     0
290
     0
176
     0
290
     0
176
     0
290
     0
176
     0
290
     0
176
     0
290
     0
176
     0
 90
       50
176
     0
 40
0.0
176
     0
 40
1.0
176
     0
 90
        0
176
     0
 62
    18
420
        0
176
     0
 90
       50
176
     0
 90
        3
176
     0
 62
     5
420
      255
176
     0
290
     0
176
     0
 90
       50
176
     0
 90
       50
176
     0
 90
       50
176
     0
290
     0
176
     0
 90
       50
176
     0
 62
   256
176
     0
 40
1.0
176
     0
 90
        2
176
     0
  1
strokes_ogs.tif
176
     0
290
     0
176
     0
 40
1.0
176
     0
 40
1.0
176
     0
1001
ACAD
1000
AcDbSavedByObjectVersion
1070
     0
  0
VISUALSTYLE
  5
33
102
{ACAD_REACTORS
330
29
102
}
330
29
100
AcDbVisualStyle
  2
Realistic
 70
     8
177
     3
291
     0
 70
    58
 90
        2
176
     1
 90
        3
176
     1
 90
        0
176
     1
 90
        2
176
     1
 40
0.6
176
     1
 40
30.0
176
     1
 62
     7
420
 16777215
176
     1
 90
        0
176
     1
 90
        0
176
     1
 62
     7
176
     1
 62
   257
176
     1
 90
        1
176
     1
 90
        1
176
     1
 40
1.0
176
     1
 90
        8
176
     1
 62
   257
176
     1
 40
1.0
176
     1
 90
        1
176
     1
 90
        6
176
     1
 90
        2
176
     1
 62
     7
176
     1
 90
        3
176
     1
 90
        0
176
     1
 90
        0
176
     1
290
     0
176
     1
 90
       13
176
     1
 40
0.0
176
     1
 90
        0
176
     1
290
     0
176
     1
290
     1
176
     1
290
     1
176
     1
290
     0
176
     1
290
     0
176
     1
290
     0
176
     1
290
     0
176
     1
290
     0
176
     1
290
     0
176
     1
 90
       50
176
     1
 40
0.0
176
     1
 40
1.0
176
     1
 90
        0
176
     1
 62
    18
420
        0
176
     1
 90
       50
176
     1
 90
        3
176
     1
 62
     5
420
      255
176
     1
290
     0
176
     1
 90
       50
176
     1
 90
       50
176
     1
 90
       50
176
     1
290
     0
176
     1
 90
       50
176
     1
 62
   256
176
     0
 40
1.0
176
     0
 90
        2
176
     1
  1
strokes_ogs.tif
176
     1
290
     0
176
     1
 40
1.0
176
     1
 40
1.0
176
     1
1001
ACAD
1000
AcDbSavedByObjectVersion
1070
     0
  0
VISUALSTYLE
  5
3E
102
{ACAD_REACTORS
330
29
102
}
330
29
100
AcDbVisualStyle
  2
Shaded
 70
    27
177
     3
291
     0
 70
    58
 90
        2
176
     1
 90
        2
176
     1
 90
        1
176
     1
 90
        2
176
     1
 40
0.6
176
     1
 40
30.0
176
     1
 62
     7
420
 16777215
176
     1
 90
        0
176
     1
 90
        4
176
     1
 62
     7
176
     1
 62
   257
176
     1
 90
        1
176
     1
 90
        1
176
     1
 40
1.0
176
     1
 90
        8
176
     1
 62
   257
176
     1
 40
1.0
176
     1
 90
        1
176
     1
 90
        6
176
     1
 90
        2
176
     1
 62
     8
420
  7895160
176
     1
 90
        3
176
     1
 90
        0
176
     1
 90
        0
176
     1
290
     0
176
     1
 90
        5
176
     1
 40
0.0
176
     1
 90
        0
176
     1
290
     0
176
     1
290
     1
176
     1
290
     1
176
     1
290
     0
176
     1
290
     0
176
     1
290
     0
176
     1
290
     0
176
     1
290
     0
176
     1
290
     0
176
     1
 90
       50
176
     1
 40
0.0
176
     1
 40
1.0
176
     1
 90
        0
176
     1
 62
    18
420
        0
176
     1
 90
       50
176
     1
 90
        3
176
     1
 62
     5
420
      255
176
     1
290
     0
176
     1
 90
       50
176
     1
 90
       50
176
     1
 90
       50
176
     1
290
     0
176
     1
 90
       50
176
     1
 62
   256
176
     0
 40
1.0
176
     0
 90
        2
176
     1
  1
strokes_ogs.tif
176
     1
290
     0
176
     1
 40
1.0
176
     1
 40
1.0
176
     1
1001
ACAD
1000
AcDbSavedByObjectVersion
1070
     0
  0
VISUALSTYLE
  5
3D
102
{ACAD_REACTORS
330
29
102
}
330
29
100
AcDbVisualStyle
  2
Shaded with edges
 70
    26
177
     3
291
     0
 70
    58
 90
        2
176
     1
 90
        2
176
     1
 90
        1
176
     1
 90
        2
176
     1
 40
0.6
176
     1
 40
30.0
176
     1
 62
     7
420
 16777215
176
     1
 90
        1
176
     1
 90
        2
176
     1
 62
     7
176
     1
 62
   257
176
     1
 90
        2
176
     1
 90
        1
176
     1
 40
1.0
176
     1
 90
        8
176
     1
 62
   257
176
     1
 40
1.0
176
     1
 90
        1
176
     1
 90
        6
176
     1
 90
        2
176
     1
 62
     7
176
     1
 90
        3
176
     1
 90
        0
176
     1
 90
        0
176
     1
290
     0
176
     1
 90
        5
176
     1
 40
0.0
176
     1
 90
        0
176
     1
290
     0
176
     1
290
     1
176
     1
290
     1
176
     1
290
     0
176
     1
290
     0
176
     1
290
     0
176
     1
290
     0
176
     1
290
     0
176
     1
290
     0
176
     1
 90
       50
176
     1
 40
0.0
176
     1
 40
1.0
176
     1
 90
        0
176
     1
 62
    18
420
        0
176
     1
 90
       50
176
     1
 90
        3
176
     1
 62
     5
420
      255
176
     1
290
     0
176
     1
 90
       50
176
     1
 90
       50
176
     1
 90
       50
176
     1
290
     0
176
     1
 90
       50
176
     1
 62
   256
176
     0
 40
1.0
176
     0
 90
        2
176
     1
  1
strokes_ogs.tif
176
     1
290
     0
176
     1
 40
1.0
176
     1
 40
1.0
176
     1
1001
ACAD
1000
AcDbSavedByObjectVersion
1070
     0
  0
VISUALSTYLE
  5
3A
102
{ACAD_REACTORS
330
29
102
}
330
29
100
AcDbVisualStyle
  2
Shades of Gray
 70
    23
177
     3
291
     0
 70
    58
 90
        2
176
     1
 90
        2
176
     1
 90
        3
176
     1
 90
        0
176
     1
 40
0.6
176
     1
 40
30.0
176
     1
 62
     7
420
 16777215
176
     1
 90
        2
176
     1
 90
        2
176
     1
 62
     7
176
     1
 62
     7
176
     1
 90
        1
176
     1
 90
        1
176
     1
 40
40.0
176
     1
 90
        8
176
     1
 62
     7
176
     1
 40
1.0
176
     1
 90
        1
176
     1
 90
        6
176
     1
 90
        2
176
     1
 62
     7
176
     1
 90
        3
176
     1
 90
        0
176
     1
 90
        0
176
     1
290
     0
176
     1
 90
        1
176
     1
 40
0.0
176
     1
 90
        0
176
     1
290
     0
176
     1
290
     1
176
     1
290
     1
176
     1
290
     0
176
     1
290
     0
176
     1
290
     0
176
     1
290
     0
176
     1
290
     0
176
     1
290
     0
176
     1
 90
       50
176
     1
 40
0.0
176
     1
 40
1.0
176
     1
 90
        0
176
     1
 62
    18
420
        0
176
     1
 90
       50
176
     1
 90
        3
176
     1
 62
     5
420
      255
176
     1
290
     0
176
     1
 90
       50
176
     1
 90
       50
176
     1
 90
       50
176
     1
290
     0
176
     1
 90
       50
176
     1
 62
   256
176
     0
 40
1.0
176
     0
 90
        2
176
     1
  1
strokes_ogs.tif
176
     1
290
     0
176
     1
 40
1.0
176
     1
 40
1.0
176
     1
1001
ACAD
1000
AcDbSavedByObjectVersion
1070
     0
  0
VISUALSTYLE
  5
3B
102
{ACAD_REACTORS
330
29
102
}
330
29
100
AcDbVisualStyle
  2
Sketchy
 70
    24
177
     3
291
     0
 70
    58
 90
        1
176
     1
 90
        2
176
     1
 90
        2
176
     1
 90
        0
176
     1
 40
0.6
176
     1
 40
30.0
176
     1
 62
     7
420
 16777215
176
     1
 90
        2
176
     1
 90
        2
176
     1
 62
     7
176
     1
 62
     7
176
     1
 90
        1
176
     1
 90
        1
176
     1
 40
40.0
176
     1
 90
       11
176
     1
 62
     7
176
     1
 40
1.0
176
     1
 90
        1
176
     1
 90
        6
176
     1
 90
        2
176
     1
 62
     7
176
     1
 90
        6
176
     1
 90
        0
176
     1
 90
        0
176
     1
290
     0
176
     1
 90
        1
176
     1
 40
0.0
176
     1
 90
        0
176
     1
290
     0
176
     1
290
     1
176
     1
290
     1
176
     1
290
     0
176
     1
290
     0
176
     1
290
     0
176
     1
290
     0
176
     1
290
     0
176
     1
290
     0
176
     1
 90
       50
176
     1
 40
0.0
176
     1
 40
1.0
176
     1
 90
        0
176
     1
 62
    18
420
        0
176
     1
 90
       50
176
     1
 90
        3
176
     1
 62
     5
420
      255
176
     1
290
     0
176
     1
 90
       50
176
     1
 90
       50
176
     1
 90
       50
176
     1
290
     0
176
     1
 90
       50
176
     1
 62
   256
176
     0
 40
1.0
176
     0
 90
        2
176
     1
  1
strokes_ogs.tif
176
     1
290
     0
176
     1
 40
1.0
176
     1
 40
1.0
176
     1
1001
ACAD
1000
AcDbSavedByObjectVersion
1070
     0
  0
VISUALSTYLE
  5
36
102
{ACAD_REACTORS
330
29
102
}
330
29
100
AcDbVisualStyle
  2
Thicken
 70
    13
177
     3
291
     1
 70
    58
 90
        2
176
     1
 90
        2
176
     1
 90
        0
176
     1
 90
        0
176
     1
 40
0.6
176
     1
 40
30.0
176
     1
 62
     7
420
 16777215
176
     1
 90
        1
176
     1
 90
        4
176
     1
 62
     7
176
     1
 62
   257
176
     1
 90
        1
176
     1
 90
        1
176
     1
 40
1.0
176
     1
 90
       12
176
     1
 62
     7
176
     1
 40
1.0
176
     1
 90
        1
176
     1
 90
        6
176
     1
 90
        2
176
     1
 62
     7
176
     1
 90
        5
176
     1
 90
        0
176
     1
 90
        0
176
     1
290
     0
176
     1
 90
        1
176
     1
 40
0.0
176
     1
 90
        0
176
     1
290
     0
176
     1
290
     1
176
     1
290
     1
176
     1
290
     0
176
     1
290
     0
176
     1
290
     0
176
     1
290
     0
176
     1
290
     0
176
     1
290
     0
176
     1
 90
       50
176
     1
 40
0.0
176
     1
 40
1.0
176
     1
 90
        0
176
     1
 62
    18
420
        0
176
     1
 90
       50
176
     1
 90
        3
176
     1
 62
     5
420
      255
176
     1
290
     0
176
     1
 90
       50
176
     1
 90
       50
176
     1
 90
       50
176
     1
290
     0
176
     1
 90
       50
176
     1
 62
   256
176
     0
 40
1.0
176
     0
 90
        2
176
     1
  1
strokes_ogs.tif
176
     1
290
     0
176
     1
 40
1.0
176
     1
 40
1.0
176
     1
1001
ACAD
1000
AcDbSavedByObjectVersion
1070
     0
  0
VISUALSTYLE
  5
30
102
{ACAD_REACTORS
330
29
102
}
330
29
100
AcDbVisualStyle
  2
Wireframe
 70
     5
177
     3
291
     0
 70
    58
 90
        0
176
     1
 90
        2
176
     1
 90
        0
176
     1
 90
        0
176
     1
 40
0.6
176
     1
 40
30.0
176
     1
 62
     7
420
 16777215
176
     1
 90
        1
176
     1
 90
        4
176
     1
 62
     7
176
     1
 62
   257
176
     1
 90
        1
176
     1
 90
        1
176
     1
 40
1.0
176
     1
 90
        0
176
     1
 62
   257
176
     1
 40
1.0
176
     1
 90
        1
176
     1
 90
        6
176
     1
 90
        2
176
     1
 62
     7
176
     1
 90
        3
176
     1
 90
        0
176
     1
 90
        0
176
     1
290
     0
176
     1
 90
        1
176
     1
 40
0.0
176
     1
 90
        0
176
     1
290
     0
176
     1
290
     1
176
     1
290
     1
176
     1
290
     0
176
     1
290
     0
176
     1
290
     0
176
     1
290
     0
176
     1
290
     0
176
     1
290
     0
176
     1
 90
       50
176
     1
 40
0.0
176
     1
 40
1.0
176
     1
 90
        0
176
     1
 62
    18
420
        0
176
     1
 90
       50
176
     1
 90
        3
176
     1
 62
     5
420
      255
176
     1
290
     0
176
     1
 90
       50
176
     1
 90
       50
176
     1
 90
       50
176
     1
290
     0
176
     1
 90
       50
176
     1
 62
   256
176
     0
 40
1.0
176
     0
 90
        2
176
     1
  1
strokes_ogs.tif
176
     1
290
     0
176
     1
 40
1.0
176
     1
 40
1.0
176
     1
1001
ACAD
1000
AcDbSavedByObjectVersion
1070
     0
  0
VISUALSTYLE
  5
3C
102
{ACAD_REACTORS
330
29
102
}
330
29
100
AcDbVisualStyle
  2
X-Ray
 70
    25
177
     3
291
     0
 70
    58
 90
        2
176
     1
 90
        2
176
     1
 90
        1
176
     1
 90
        1
176
     1
 40
0.5
176
     1
 40
30.0
176
     1
 62
     7
420
 16777215
176
     1
 90
        1
176
     1
 90
        0
176
     1
 62
     7
176
     1
 62
   257
176
     1
 90
        1
176
     1
 90
        1
176
     1
 40
1.0
176
     1
 90
        8
176
     1
 62
     7
176
     1
 40
1.0
176
     1
 90
        1
176
     1
 90
        6
176
     1
 90
        2
176
     1
 62
     7
176
     1
 90
        3
176
     1
 90
        0
176
     1
 90
        0
176
     1
290
     0
176
     1
 90
       13
176
     1
 40
0.0
176
     1
 90
        0
176
     1
290
     0
176
     1
290
     1
176
     1
290
     1
176
     1
290
     0
176
     1
290
     0
176
     1
290
     0
176
     1
290
     0
176
     1
290
     0
176
     1
290
     0
176
     1
 90
       50
176
     1
 40
0.0
176
     1
 40
1.0
176
     1
 90
        0
176
     1
 62
    18
420
        0
176
     1
 90
       50
176
     1
 90
        3
176
     1
 62
     5
420
      255
176
     1
290
     0
176
     1
 90
       50
176
     1
 90
       50
176
     1
 90
       50
176
     1
290
     0
176
     1
 90
       50
176
     1
 62
   256
176
     0
 40
1.0
176
     0
 90
        2
176
     1
  1
strokes_ogs.tif
176
     1
290
     0
176
     1
 40
1.0
176
     1
 40
1.0
176
     1
1001
ACAD
1000
AcDbSavedByObjectVersion
1070
     0
  0
DICTIONARYVAR
  5
9B
102
{ACAD_REACTORS
330
96
102
}
330
96
100
DictionaryVariables
280
     0
  1
1:1
  0
DICTIONARYVAR
  5
98
102
{ACAD_REACTORS
330
96
102
}
330
96
100
DictionaryVariables
280
     0
  1
STANDARD
  0
DICTIONARYVAR
  5
97
102
{ACAD_REACTORS
330
96
102
}
330
96
100
DictionaryVariables
280
     0
  1
STANDARD
  0
DICTIONARYVAR
  5
99
102
{ACAD_REACTORS
330
96
102
}
330
96
100
DictionaryVariables
280
     0
  1
Imperial24
  0
DICTIONARYVAR
  5
9A
102
{ACAD_REACTORS
330
96
102
}
330
96
100
DictionaryVariables
280
     0
  1
Imperial24
  0
DICTIONARY
  5
A1
330
6B
100
AcDbDictionary
280
     1
281
     1
  3
ACAD_XREC_ROUNDTRIP
360
A2
  0
DICTIONARY
  5
1A
330
19
100
AcDbDictionary
280
     1
281
     1
  3
BUMPTILE
360
1C
  3
DIFFUSETILE
360
1B
  3
OPACITYTILE
360
1F
  3
REFLECTIONTILE
360
1E
  3
REFRACTIONTILE
360
20
  3
SPECULARTILE
360
1D
  0
DICTIONARY
  5
12
330
11
100
AcDbDictionary
280
     1
281
     1
  3
BUMPTILE
360
14
  3
DIFFUSETILE
360
13
  3
OPACITYTILE
360
17
  3
REFLECTIONTILE
360
16
  3
REFRACTIONTILE
360
18
  3
SPECULARTILE
360
15
  0
DICTIONARY
  5
22
330
21
100
AcDbDictionary
280
     1
281
     1
  3
BUMPTILE
360
24
  3
DIFFUSETILE
360
23
  3
OPACITYTILE
360
27
  3
REFLECTIONTILE
360
26
  3
REFRACTIONTILE
360
28
  3
SPECULARTILE
360
25
  0
DICTIONARY
  5
9F
330
69
100
AcDbDictionary
280
     1
281
     1
  3
ACAD_XREC_ROUNDTRIP
360
A0
  0
DICTIONARY
  5
9C
330
65
100
AcDbDictionary
280
     1
281
     1
  3
ACAD_ROUNDTRIP_2008_TABLESTYLE_CELLSTYLEMAP
360
9D
  0
XRECORD
  5
A2
102
{ACAD_REACTORS
330
A1
102
}
330
A1
100
AcDbXrecord
280
     1
102
DISPLAYNAME
  1
Imperial24
102
FLAGS
 90
        0
  0
XRECORD
  5
1C
102
{ACAD_REACTORS
330
1A
102
}
330
1A
100
AcDbXrecord
280
     1
270
     1
271
     1
  0
XRECORD
  5
1B
102
{ACAD_REACTORS
330
1A
102
}
330
1A
100
AcDbXrecord
280
     1
270
     1
271
     1
  0
XRECORD
  5
1F
102
{ACAD_REACTORS
330
1A
102
}
330
1A
100
AcDbXrecord
280
     1
270
     1
271
     1
  0
XRECORD
  5
1E
102
{ACAD_REACTORS
330
1A
102
}
330
1A
100
AcDbXrecord
280
     1
270
     1
271
     1
  0
XRECORD
  5
20
102
{ACAD_REACTORS
330
1A
102
}
330
1A
100
AcDbXrecord
280
     1
270
     1
271
     1
  0
XRECORD
  5
1D
102
{ACAD_REACTORS
330
1A
102
}
330
1A
100
AcDbXrecord
280
     1
270
     1
271
     1
  0
XRECORD
  5
14
102
{ACAD_REACTORS
330
12
102
}
330
12
100
AcDbXrecord
280
     1
270
     1
271
     1
  0
XRECORD
  5
13
102
{ACAD_REACTORS
330
12
102
}
330
12
100
AcDbXrecord
280
     1
270
     1
271
     1
  0
XRECORD
  5
17
102
{ACAD_REACTORS
330
12
102
}
330
12
100
AcDbXrecord
280
     1
270
     1
271
     1
  0
XRECORD
  5
16
102
{ACAD_REACTORS
330
12
102
}
330
12
100
AcDbXrecord
280
     1
270
     1
271
     1
  0
XRECORD
  5
18
102
{ACAD_REACTORS
330
12
102
}
330
12
100
AcDbXrecord
280
     1
270
     1
271
     1
  0
XRECORD
  5
15
102
{ACAD_REACTORS
330
12
102
}
330
12
100
AcDbXrecord
280
     1
270
     1
271
     1
  0
XRECORD
  5
24
102
{ACAD_REACTORS
330
22
102
}
330
22
100
AcDbXrecord
280
     1
270
     1
271
     1
  0
XRECORD
  5
23
102
{ACAD_REACTORS
330
22
102
}
330
22
100
AcDbXrecord
280
     1
270
     1
271
     1
  0
XRECORD
  5
27
102
{ACAD_REACTORS
330
22
102
}
330
22
100
AcDbXrecord
280
     1
270
     1
271
     1
  0
XRECORD
  5
26
102
{ACAD_REACTORS
330
22
102
}
330
22
100
AcDbXrecord
280
     1
270
     1
271
     1
  0
XRECORD
  5
28
102
{ACAD_REACTORS
330
22
102
}
330
22
100
AcDbXrecord
280
     1
270
     1
271
     1
  0
XRECORD
  5
25
102
{ACAD_REACTORS
330
22
102
}
330
22
100
AcDbXrecord
280
     1
270
     1
271
     1
  0
XRECORD
  5
A0
102
{ACAD_REACTORS
330
9F
102
}
330
9F
100
AcDbXrecord
280
     1
102
DISPLAYNAME
  1
Imperial24
102
FLAGS
 90
        0
  0
CELLSTYLEMAP
  5
9D
102
{ACAD_REACTORS
330
9C
102
}
330
9C
100
AcDbCellStyleMap
 90
        3
300
CELLSTYLE
  1
TABLEFORMAT_BEGIN
 90
        5
170
     1
 91
        0
 92
    32768
 62
   257
 93
        1
300
CONTENTFORMAT
  1
CONTENTFORMAT_BEGIN
 90
        0
 91
        0
 92
      512
 93
        0
300

 40
0.0
140
1.0
 94
        5
 62
     0
340
55
144
0.25
309
CONTENTFORMAT_END
171
     0
 94
        0
309
TABLEFORMAT_END
  1
CELLSTYLE_BEGIN
 90
        1
 91
        1
300
_TITLE
309
CELLSTYLE_END
300
CELLSTYLE
  1
TABLEFORMAT_BEGIN
 90
        5
170
     1
 91
        0
 92
        0
 62
   257
 93
        1
300
CONTENTFORMAT
  1
CONTENTFORMAT_BEGIN
 90
        0
 91
        0
 92
      512
 93
        0
300

 40
0.0
140
1.0
 94
        5
 62
     0
340
55
144
0.18
309
CONTENTFORMAT_END
171
     0
 94
        0
309
TABLEFORMAT_END
  1
CELLSTYLE_BEGIN
 90
        2
 91
        1
300
_HEADER
309
CELLSTYLE_END
300
CELLSTYLE
  1
TABLEFORMAT_BEGIN
 90
        5
170
     1
 91
        0
 92
        0
 62
   257
 93
        1
300
CONTENTFORMAT
  1
CONTENTFORMAT_BEGIN
 90
        0
 91
        0
 92
      512
 93
        0
300

 40
0.0
140
1.0
 94
        2
 62
     0
340
55
144
0.18
309
CONTENTFORMAT_END
171
     0
 94
        0
309
TABLEFORMAT_END
  1
CELLSTYLE_BEGIN
 90
        3
 91
        2
300
_DATA
309
CELLSTYLE_END
  0
ENDSEC
  0
EOF
