<?xml version="1.0" encoding="utf-8"?>
<!-- Generator: Adobe Illustrator 25.4.8, SVG Export Plug-In . SVG Version: 6.00 Build 0)  -->
<svg version="1.1" id="Слой_1" xmlns="http://www.w3.org/2000/svg" xmlns:xlink="http://www.w3.org/1999/xlink" x="0px" y="0px"
	 viewBox="0 0 864 864" style="enable-background:new 0 0 864 864;" xml:space="preserve">
<g>
	<path d="M450.48,0c67.72,2.34,146.94,42.45,204.06,123.39c11.66,16.52,23.3,26.84,44.49,32.42
		c121.32,31.95,186.92,155.35,147.81,273.64c-37.56,113.6-166.62,171.94-281.66,126.22c-17.9-7.11-31.92-8.75-50.94-1.2
		c-74.05,29.39-147.58,23.01-217.85-13.22c-17.22-8.88-28.88-8.94-46.11,0.62c-83.21,46.18-185.09,14.41-226.89-68.91
		c-42.04-83.81-6.11-184.01,82.1-221.95c21.47-9.23,31.24-21.13,37.11-42.75C177.75,78.92,283.72-0.18,450.48,0z"/>
	<path d="M181,697.27c-1.06-3.3-3.02-7.74-3.9-12.4c-2.74-14.45,2.02-26.71,17.19-28.11c16.32-1.51,24.79,12.67,22.75,25.62
		c-2.08,13.19-9.49,29.85,1.51,36.47c11.61,6.98,22.62-5.17,30.84-17.44c6.95-10.36,19.35-0.12,29.32-0.15
		c7.46-0.02,9.23,8.57,7.63,14.03c-2.77,9.45-2.18,22.58-16.06,24.39c-13.87,1.81-30.86,5.61-29.91,19.8
		c0.77,11.41,16.22,17.84,31.59,17.46c13.92-0.34,10.76,15.03,14.04,23.34c4.04,10.22-6.09,18.19-13.32,16.89
		c-8.21-1.48-19.14,13.7-25.08-3.68c-4.42-12.92-17.79-21.29-27.92-16.75c-12.21,5.48-9.68,22.9-3.26,31.94
		c11.95,16.83-6.95,19.8-10.63,29.07c-2.99,7.53-13.62,8.38-18.25,1.84c-6.47-9.12-21.08-16.23-9.24-32.81
		c5.76-8.07,6.74-24.29-3.27-29.85c-11.71-6.51-28.59,3.84-29.65,13.01c-2.56,22.22-15.05,8.4-22.26,8.3
		c-9.83-0.12-21.29-5.1-20.04-16.22c0.94-8.33,8.73-16.74,15.33-23.23c3.61-3.55,11.63-2.14,16.68-4.82
		c7.04-3.74,17.21-6.6,15.2-17.51c-1.76-9.58-12.97-15.82-18.7-14.64c-22.63,4.65-22.16-14.45-28.82-25.48
		c-3.69-6.11,1.75-12.84,7.33-14.38c14.82-4.1,30.35-10.67,40.33,10.36c2.73,5.75,13.08,11.6,22.46,8.34
		C183.97,716.8,179.27,706.55,181,697.27z M200.07,738.45c-20.7,1.04-25.55,10.02-24.37,22.31c1.22,12.66,9.51,20,22.15,18.37
		c12-1.56,19.88-9.69,18.4-22.49C214.8,744.01,206.05,738.32,200.07,738.45z"/>
	<path d="M648.72,702.66c-0.69-5.15,0.16-10.93-2.25-14.54c-8.42-12.59,0.71-20.55,7.28-28.22c5.18-6.04,15.02-6.11,19.95-1.15
		c7.78,7.82,17.3,15.68,9.14,30.73c-4.63,8.54-6.9,23.73,3.68,29.84c10.4,6,23.71-2.02,27.3-11.53c8.09-21.44,21.85-4.88,32.39-6.65
		c6.83-1.15,9.91,7.88,8.5,13.44c-2.98,11.71-3.22,25.53-22.3,25.94c-9.86,0.21-24.1,5.86-23.45,18.52
		c0.6,11.79,15.48,19,24.29,17.87c21.79-2.8,18.08,13.93,21.15,24c3.04,9.95-5.66,17.12-14.22,17.02
		c-9.04-0.1-24.39,13.51-27.2-10.56c-0.82-7-16.99-16.79-27.54-10.13c-8.34,5.27-8.04,20.47-3.07,26.95
		c13.31,17.33-1.56,25.5-9.14,35.32c-4.88,6.32-14.38,5.94-18.93-1.08c-6.37-9.83-21.92-17.41-7.48-34.2
		c4.6-5.35,7.08-23.06-5.46-28.47c-9.13-3.94-22.86,4.11-24.61,11.2c-5.07,20.55-17.44,13.57-28.84,10.66
		c-8.76-2.24-16.62-8.08-13.71-18.14c3.15-10.88,3.01-25.12,22.94-23.05c8.15,0.85,23.23-5.34,22.29-19.11
		c-0.75-11.01-13.03-16.14-21.63-16.17c-18.75-0.05-20.93-13.31-23.88-25.57c-1.76-7.29,1.76-15.53,11.09-15.3
		c10.73,0.27,24.71-11.91,31.27,9.25c2.35,7.58,14.38,13.61,24.85,11.17C650.92,718.41,646.6,708.81,648.72,702.66z M665.56,738.67
		c-12.41,0.21-20.69,5.34-21.19,18.79c-0.48,12.82,6.17,20.82,18.72,21.59c12.48,0.77,20.57-6.38,21.41-19
		C685.33,747.35,678.54,739.97,665.56,738.67z"/>
	<path d="M446.99,694.51c-0.65,2.55-5.52,18.78,4.55,24.57c12.77,7.34,23.87-4.62,31.96-16.4c8.28-12.06,19.37-1.18,29.06-1.43
		c7.15-0.18,9.12,8.43,7.67,14.06c-2.48,9.62-2.25,22.07-16.31,24.2c-13.49,2.04-30.72,5.93-29.24,20.42
		c1.16,11.39,16.88,16.66,31.97,17c11.69,0.26,11.35,14.85,13.26,23.96c2.26,10.75-6.83,16.28-15.06,16.6
		c-7.22,0.28-17.48,12.21-23.02-4.04c-4.35-12.76-17.82-21.05-28.15-16.87c-12.96,5.25-9.91,22.6-4,31.61
		c11.8,18-6.09,22.41-11.84,31.82c-3.41,5.59-12.71,4.88-15.92-0.17c-5.9-9.28-22.82-14.41-10.92-31.86
		c6.15-9.02,9.16-25.32-4.69-31.37c-10.01-4.37-26.01,4.58-27.19,12.8c-3.41,23.92-17.94,6.76-25.8,7.95
		c-7.82,1.19-16.35-8.06-12.95-17.6c3.11-8.74-1.48-24.26,18.76-22.51c10.18,0.88,26.35-5.59,26.51-19.36
		c0.14-11.87-14.52-18.22-24.29-17.62c-18.87,1.17-17.23-13.28-20.97-22.95c-2.7-6.98,0.53-17.24,8.86-16.25
		c9.57,1.14,22-13.41,29.83,5.77c3.82,9.35,16.68,17.71,27.29,13c14.17-6.29,10.31-22.41,5.04-31.61
		c-7.89-13.79,1.83-20.37,7.33-28.1c4.54-6.37,14.26-6.1,19.93-1.6C446.64,664.88,455.08,672.72,446.99,694.51z M450.74,757.21
		c-1.67-13.37-9.68-19.13-22.29-18.48c-13.42,0.7-19.68,9.52-18.73,21.69c0.97,12.38,9.68,19.72,22.15,18.7
		C444.36,778.09,450.66,769.71,450.74,757.21z"/>
</g>
</svg>
