<?xml version="1.0" encoding="utf-8"?>
<!-- Generator: Adobe Illustrator 25.4.8, SVG Export Plug-In . SVG Version: 6.00 Build 0)  -->
<svg version="1.1" id="Слой_1" xmlns="http://www.w3.org/2000/svg" xmlns:xlink="http://www.w3.org/1999/xlink" x="0px" y="0px"
	 viewBox="0 0 864 864" style="enable-background:new 0 0 864 864;" xml:space="preserve">
<g>
	<path d="M255.8,507.38c-46.5-0.02-93,0.33-139.49-0.12c-44.99-0.43-56.17-13.71-49.65-59.01c9.62-66.88,39.17-124.09,85.9-172.53
		c148.51-153.94,417.98-151.68,563.89,4.61c43.88,47,71.38,102.04,80.67,165.73c7.01,48-3.99,61.02-51.66,61.22
		c-78.46,0.34-156.95,1.16-235.38-0.46c-26.89-0.56-35.13,7.82-34.64,34.52c1.4,75.53,1.64,151.14-0.4,226.65
		c-1.54,57.1-45.19,95.8-103.02,96.02c-57.01,0.22-101.39-36.84-105.16-89.28c-1.18-16.49-6.06-39.4,18.06-42.41
		c26.27-3.28,22.2,20.28,24.47,36.82c5.57,40.55,29.2,62.47,65.97,59.37c38.29-3.22,56.79-26.12,57.1-63.67
		c0.61-75.55-0.1-151.12,1.28-226.66c0.47-25.86-10.86-31.78-34.1-31.16C351.73,508.28,303.75,507.4,255.8,507.38z M429.53,447.22
		c87.01,0,174.02,0.16,261.03-0.06c48.72-0.12,51.75-3.28,30.72-48.46C667.33,282.8,569.31,231.78,447.46,221.48
		c-125.3-10.6-256.41,65.59-303.06,172.19c-22.11,50.52-20.43,53.43,32.8,53.52C261.31,447.33,345.42,447.22,429.53,447.22z"/>
	<path d="M196.23,76.9c-0.05,9.14,0.04,18.29,0.26,27.43c0.15,6.41,0.17,13.44-3.9,18.39c-4.27,5.2-11.74,6.42-18.46,6.06
		c-5.77-0.31-11.93-1.78-15.72-6.14c-4.16-4.8-4.4-11.74-4.43-18.09c-0.07-15.36-0.6-30.8-0.22-46.16
		c0.26-10.45-0.64-24.67,6.89-32.88c6.5-7.08,18.22-9.45,26.14-4.01c9.73,6.68,10.17,20.6,9.83,32.39
		C196.4,61.56,196.27,69.23,196.23,76.9z"/>
	<path d="M327.55,55.7c0.06,5.73,0.23,11.47,0.03,17.2c-0.6,16.95,2.17,39.59-21.94,38.77c-23.23-0.79-20.39-23.5-20.93-40.35
		c-0.46-14.31-0.41-28.68,0.34-42.98c0.7-13.35,3.57-27.73,19.97-28.32c19.3-0.69,21.93,14.7,22.42,29.89
		C327.71,38.5,327.48,47.11,327.55,55.7z"/>
	<path d="M476.37,57.5c-0.02,10.41-0.05,20.82-0.07,31.23c-0.01,5.73-0.22,12-3.98,16.33c-3.76,4.32-10.01,5.41-15.74,5.46
		c-6.33,0.06-13.24-1.09-17.48-5.79c-4.42-4.89-4.7-12.14-4.74-18.73c-0.09-15.15-0.18-30.31-0.27-45.46
		c-0.07-11.61-3.51-28.25,8.32-35.44c4.34-2.64,9.57-3.5,14.65-3.38c6.86,0.15,14.42,2.57,17.56,8.67
		c1.81,3.51,1.84,7.64,1.83,11.59C476.43,33.82,476.4,45.66,476.37,57.5z"/>
	<path d="M738.14,77.67c0.05,5.8,0.19,11.61,0.02,17.41c-0.47,15.92,1.45,35.51-21.43,35.24c-19.51-0.24-19.58-18.42-20.16-32.8
		c-0.71-17.37-0.67-34.85,0.38-52.2c0.82-13.47,4.46-27.8,21.7-26.82c16.72,0.94,19.35,14.76,19.43,28.7
		C738.14,57.35,738.09,67.51,738.14,77.67z"/>
	<path d="M753.35,224.36c-0.01-7.64-0.03-15.28-0.04-22.91c-0.03-15.75-0.38-31.16,19.83-31.27c5.74-0.03,11.79,1.13,16.11,4.91
		c4.54,3.98,6.43,10.26,6.67,16.29s-0.97,12.01-1.61,18.01c-1.28,12.01-0.27,24.14,0.95,36.15c0.98,9.69,1.57,20.91-5.53,27.58
		c-5.08,4.77-12.71,5.62-19.64,4.95c-4.87-0.47-10.05-1.79-13.18-5.56c-3.32-4-3.49-9.66-3.5-14.85
		C753.39,246.56,753.37,235.46,753.35,224.36z"/>
	<path d="M644.28,95.73c0.02,4.31,0.5,8.7-0.07,12.93c-2.13,15.73,5.79,39.82-20.48,39.31c-25.97-0.51-17.9-24.39-19.31-40.16
		c-1.02-11.41-0.5-23.01-0.09-34.5c0.55-15.38-2.65-35.91,20.16-35.46c22.3,0.44,18.86,21,19.71,36.31
		C644.59,81.33,644.26,88.54,644.28,95.73z"/>
	<path d="M120.64,206.58c-0.06,11.03-0.11,22.07-0.17,33.1c-0.03,5.19-0.24,10.89-3.7,14.77c-3.15,3.53-8.21,4.59-12.92,4.98
		C97,260,89.4,259.3,84.51,254.47c-6.4-6.32-5.55-16.65-4.69-25.6c2.19-22.76-14.06-78.35,22.07-77.23
		c5.59,0.17,11.61,1.58,15.16,5.9c3.64,4.42,3.79,10.67,3.76,16.4C120.75,184.82,120.7,195.7,120.64,206.58z"/>
</g>
</svg>
