<?xml version="1.0" encoding="utf-8"?>
<!-- Generator: Adobe Illustrator 25.4.8, SVG Export Plug-In . SVG Version: 6.00 Build 0)  -->
<svg version="1.1" id="Слой_1" xmlns="http://www.w3.org/2000/svg" xmlns:xlink="http://www.w3.org/1999/xlink" x="0px" y="0px"
	 viewBox="0 0 864 864" style="enable-background:new 0 0 864 864;" xml:space="preserve">
<g>
	<path d="M224.94,427.8c0.4-117.45,91.64-207.46,209.76-206.93c114.14,0.51,206.64,93.18,207.14,207.53
		c0.51,116.19-95.55,210.59-212.99,209.29C314.96,636.43,224.55,543.37,224.94,427.8z"/>
	<path d="M81.86,457.66c-17.28,0.02-34.57,0.45-51.83-0.1C13.18,457.03,0.07,449.79,0,431.28c-0.06-16.21,11.47-26.14,26.59-26.6
		c37.93-1.16,75.97-1.21,113.88,0.3c15.4,0.62,25.36,11.95,24.65,28.14c-0.74,16.75-12.23,24.02-27.96,24.41
		C118.73,457.98,100.29,457.63,81.86,457.66z"/>
	<path d="M783.95,457.24c-19.5,0-39.05,0.87-58.48-0.27c-15.62-0.92-25.9-10.21-25.98-26.51c-0.07-14.89,10.03-23.68,23.68-25.15
		c38.84-4.19,77.89-4.32,116.71,0.08c15.31,1.73,25.18,11.8,24.01,28.35c-1.2,16.92-12.92,23.41-28.32,23.85
		c-17.2,0.49-34.42,0.11-51.63,0.11C783.95,457.54,783.95,457.39,783.95,457.24z"/>
	<path d="M406.36,778.91c0-18.36-0.86-36.77,0.28-55.05c0.89-14.24,9.35-23.22,24.46-23.8c14.74-0.56,25.64,7.08,27.47,20.91
		c5.3,39.89,4.92,80.13,0.16,120.05c-1.61,13.48-11.58,23.01-26.21,22.87c-16.57-0.16-25.15-11.01-26.02-26.46
		c-1.1-19.45-0.26-39-0.26-58.51C406.28,778.91,406.32,778.91,406.36,778.91z"/>
	<path d="M406.07,80.35c0-17.2-0.61-34.42,0.18-51.58c0.71-15.2,7.8-26.87,24.28-28.49c16.82-1.65,26.67,9.09,28.41,23.88
		c4.57,38.76,4.51,77.82-0.02,116.59c-1.55,13.26-10.25,23.57-25.36,23.56c-16.42-0.02-25.86-9.95-26.87-25.54
		c-1.26-19.4-0.3-38.94-0.3-58.42C406.29,80.35,406.18,80.35,406.07,80.35z"/>
	<path d="M146.48,744c-11.99-1.48-20.14-5.22-24.81-14.21c-5.47-10.53-3.28-21.06,4.29-28.82c27.29-27.97,54.84-55.73,83.38-82.4
		c10.41-9.72,23.79-8.19,34.48,1.67c9.67,8.92,12.14,21.24,4.05,31.17c-26.15,32.12-55.8,61.02-87.5,87.69
		C156.35,742.5,149.82,742.89,146.48,744z"/>
	<path d="M143.02,118.21c18.58-1.12,110.11,90.72,108.25,108.61c-2.09,20.09-27.7,30.62-45.5,15.25
		c-28.58-24.67-55.56-51.64-80.29-80.17C110.2,144.26,121.92,119.48,143.02,118.21z"/>
	<path d="M639.2,612.31c2.25,0.38,5.03,0.06,6.66,1.28c37.56,28.36,71.2,60.8,98.38,99.26c5.3,7.5,1.08,18.02-6.89,24.57
		c-10.04,8.25-22.23,9.64-32,2.37c-33.2-24.7-62.82-53.75-87.1-87.03C605.83,635.77,619.91,612.6,639.2,612.31z"/>
	<path d="M745.5,143.69c0.82,20.36-87.2,106.47-107.5,105.16c-20.82-1.34-32.58-23.58-17.88-40.52
		c26.36-30.38,55.2-58.99,85.63-85.3C721.38,109.51,744.69,123.43,745.5,143.69z"/>
</g>
</svg>
