<?xml version="1.0" encoding="utf-8"?>
<!-- Generator: Adobe Illustrator 25.4.8, SVG Export Plug-In . SVG Version: 6.00 Build 0)  -->
<svg version="1.1" id="Слой_1" xmlns="http://www.w3.org/2000/svg" xmlns:xlink="http://www.w3.org/1999/xlink" x="0px" y="0px"
	 viewBox="0 0 864 864" style="enable-background:new 0 0 864 864;" xml:space="preserve">
<g>
	<path d="M237.75,220.82c-6.6-12.92-16.45-18.38-24.49-25.62c-19.76-17.77-19.96-17.8-4.97-41.28
		c15.73-24.64,34.26-46.98,54.99-67.64c62.7-62.47,137.2-83.65,223.47-65.11c93.49,20.09,158.53,92.57,175.31,195.78
		c2.31,14.21,2.38,28.88,9.26,45.43c14.65-14.12,20.7-31.12,28.41-46.54c7.22-14.44,16.33-19.56,31.95-14.96
		c54.97,16.18,98.41,46.59,122.69,99.97c13.8,30.34,11.85,61.3-0.03,92.01c-6.17,15.96-15.33,30.16-24.36,44.59
		c-18.19,29.06-41.5,40.73-77.88,40.4c-220.84-1.97-441.7-0.96-662.56-1c-50.86-0.01-66.9-11.79-80.38-60.16
		c-8.89-31.87-12.58-64.19-5.31-97.11c18.1-81.91,88.04-129.55,170.8-115.15C194.74,207.91,214.26,214.61,237.75,220.82z"/>
	<path d="M512.13,849.18c-35.32-1.42-69.85-7.2-102.4-21.46c-51.5-22.56-66.88-59.63-47.44-112.09
		c7.65-20.64,18.94-39.23,31.72-56.94c32.11-44.47,70.76-82.83,112.46-118.16c17.97-15.23,19.33-15.19,29.88,3.23
		c30.78,53.73,57.52,109.35,71.74,170.03c3.56,15.19,5.02,31.16,5.23,46.81c0.73,56.03-27.13,85.33-83.02,88.53
		C524.26,849.48,518.19,849.18,512.13,849.18z"/>
</g>
</svg>
