<?xml version="1.0" encoding="utf-8"?>
<!-- Generator: Adobe Illustrator 25.4.8, SVG Export Plug-In . SVG Version: 6.00 Build 0)  -->
<svg version="1.1" id="Слой_1" xmlns="http://www.w3.org/2000/svg" xmlns:xlink="http://www.w3.org/1999/xlink" x="0px" y="0px"
	 viewBox="0 0 864 864" style="enable-background:new 0 0 864 864;" xml:space="preserve">
<g>
	<path d="M444.55,795.85c-83.8,0-167.6-0.06-251.4,0.04c-22.81,0.03-44.36-4.91-64.39-15.77c-30.82-16.73-52.67-41.51-64.13-74.72
		c-14.25-41.32-9.32-80.84,14.51-117.36c21.35-32.72,51.85-52.41,90.43-59.37c6.85-1.23,13.75-1.69,20.69-1.84
		c0.55-0.01,1.11,0.07,1.66,0.03c1.99-0.17,4.3,1.9,5.73,0.33c1.21-1.32,1.14-3.8,1.65-5.76c11.81-45.62,37.18-81.41,77.49-106.15
		c19.94-12.24,41.74-19.22,65.01-22.06c14.41-1.76,28.36-0.66,42.12,3.67c2.24,0.71,3.39,0.22,4.59-1.9
		c15.95-28.09,37.04-51.54,63.76-69.78c23.59-16.1,49.45-26.71,77.7-31.21c43.08-6.86,84.13-0.46,122.75,19.82
		c40.67,21.35,70.35,53.32,89.64,94.97c9.55,20.62,15.29,42.28,17.56,64.86c0.17,1.72,1.16,2.07,2.34,2.6
		c15.63,6.95,30.09,15.79,43.07,26.94c31.78,27.32,52.18,61.31,57.21,103.16c7.2,59.85-12.94,109.74-58.03,149.43
		c-22.68,19.96-49.39,32.07-79.08,37.54c-10.2,1.88-20.52,2.56-30.89,2.56C611.23,795.84,527.89,795.85,444.55,795.85z
		 M262.87,615.61c-1.12,0.38-1.85-0.18-2.59-0.45c-14.63-5.38-29.27-10.72-43.84-16.24c-11.67-4.42-23.65-6.08-35.93-3.95
		c-32.02,5.56-54.44,30.61-56.08,63.04c-1.15,22.71,7.34,41.56,24.99,55.96c12.74,10.39,27.61,14.69,44.01,14.69
		c166.4-0.06,332.8-0.04,499.2-0.04c4.53,0,9.05-0.03,13.58-0.5c22.63-2.31,42.58-10.92,58.92-26.68
		c26.53-25.6,36.76-57.11,29.74-93.18c-7.35-37.79-30.34-63-66.45-76.1c-9.97-3.62-20.52-5.3-30.82-7.8
		c-1.96-0.48-2.76-1.24-2.53-3.29c0.25-2.29,0.21-4.62,0.32-6.93c0.61-12.75,1.37-25.51-0.39-38.22
		c-4.69-33.83-19.38-62.51-45.51-84.63c-35.1-29.71-75.67-39.24-120.21-28.55c-40.29,9.68-69.21,34.47-87.72,71.36
		c-6.41,12.79-10.58,26.53-15.73,39.86c-0.7,1.81-1.35,2.37-3.39,1.65c-8.18-2.88-16.5-5.39-24.66-8.33
		c-16.64-6-33.54-9.34-51.35-6.87c-20.84,2.89-39.42,10.84-54.64,25.3c-22.76,21.62-35.05,47.71-31.94,79.92
		c1.13,11.68,1.53,23.43,2.23,35.15C262.38,605.72,262.62,610.7,262.87,615.61z"/>
	<path d="M125.08,375.51c-3.73,4.31-8.3,3.55-12.81,3.13c-0.73-0.07-1.48-0.02-2.22-0.02c-28.12,0-56.23,0-84.35,0
		c-3.31,0-6.61,0.48-9.94-0.25c-9.68-2.12-16.57-11.38-15.68-21.27c0.94-10.43,8.84-18.38,19-18.43c29.5-0.14,59.01-0.04,88.51-0.03
		c5.88,0,11.83-0.88,17.5,1.63c1.82,0.81,1.42-0.97,1.51-1.71c0.62-5.14,1.4-10.24,2.33-15.33c1.92-10.47,4.71-20.68,8.97-30.44
		c0.87-1.98,0.8-2.67-1.61-2.8c-2.29-0.12-4.47-1.07-6.49-2.26c-26.8-15.79-54.04-30.8-81.04-46.23
		c-7.34-4.2-11.04-10.65-10.45-19.04c0.62-8.89,5.54-14.79,13.93-17.87c6.39-2.34,12.04-1.7,18.12,1.92
		c25.36,15.14,50.95,29.88,76.57,44.58c3.72,2.13,7.5,3.97,10.08,7.52c1.19,1.63,1.62,0.14,2.15-0.52
		c3.84-4.74,7.54-9.59,11.49-14.23c6.48-7.61,13.58-14.6,21.66-20.67c-6.94-6.21-9.94-14.88-14.48-22.5
		c-12.66-21.25-24.89-42.76-37.4-64.11c-4.73-8.07-4.98-15.97,0.51-23.63c5.5-7.69,19.33-12.63,28.89-4.28
		c3.34,2.92,5.43,6.34,7.49,9.96c13.73,24.15,27.38,48.34,41.13,72.48c2.47,4.33,5.37,8.38,5.56,13.66
		c0.07,1.93,1.43,0.81,2.22,0.46c8.97-3.93,18.12-7.34,27.61-9.78c6.26-1.61,12.58-2.94,19.03-3.61c0.72-0.08,1.43-0.27,2.56-0.5
		c-4.16-6.52-2.97-13.63-2.99-20.56c-0.06-26.91,0.04-53.83-0.06-80.74c-0.04-10.56,5.26-17.99,15.63-21.26
		c6.23-1.96,12.04,0.49,17.09,4.32c5.78,4.39,7.15,10.82,7.17,17.53c0.1,28.67-0.03,57.34,0.11,86.02
		c0.03,5.07-0.58,9.93-2.17,14.68c-0.68,2.05,0.91,1.45,1.59,1.53c10.03,1.13,19.85,3.28,29.5,6.23c5.73,1.75,11.41,3.67,16.88,6.12
		c2.1,0.94,2.66,0.46,2.83-1.74c0.32-4.08,2.57-7.47,4.52-10.91c12.67-22.42,25.41-44.8,38.13-67.2c2.05-3.61,4.03-7.26,6.17-10.83
		c4.02-6.71,13.94-11.4,21.4-10.22c8.2,1.3,14.61,7.22,16.52,15.53c1.21,5.25,0.38,10.25-2.35,14.95
		c-14.96,25.68-29.9,51.38-44.84,77.08c-2.13,3.66-3.98,7.51-7.29,10.31c-1.32,1.12-0.14,1.5,0.54,2
		c11.3,8.35,21.16,18.17,29.92,29.13c1.37,1.72,2.73,3.45,4.12,5.21c6.25-6.97,14.92-9.96,22.55-14.51
		c21.17-12.61,42.54-24.89,63.89-37.2c4.92-2.84,10.25-4.79,16.05-4.54c8.23,0.35,16.28,7.51,18.13,15.88
		c2,9.06-2.17,18.26-10.3,22.51c-18.41,9.61-36.22,20.29-54.31,30.48c-9.89,5.57-19.84,11.03-29.52,16.97
		c-7.24,4.44-17.62,2.46-23.71-4.36c-1.33-1.49-2.17-1.61-3.85-0.65c-14.5,8.3-29.08,16.45-43.56,24.78
		c-2.03,1.17-2.81,0.85-3.97-1.05c-15.37-25.11-37.49-41.12-66.29-46.95c-29.99-6.07-57.87-0.12-82.18,18.73
		c-26.73,20.73-39.55,48.57-39.19,82.38c0.2,18.97,6,36.29,16.3,52.14c1.15,1.77,1.16,2.54-0.71,3.78
		c-14.76,9.82-29.42,19.8-44.16,29.65c-1.45,0.97-2.15,2.07-2.43,3.73c-1.08,6.45-4.63,11.28-10.36,14.24
		c-12.06,6.23-23.56,13.44-35.33,20.17c-14.98,8.57-29.85,17.33-44.8,25.96c-10.19,5.89-22.63,2.6-28.34-7.41
		c-5.65-9.9-2.19-22.2,7.98-27.99c25.42-14.48,50.88-28.88,76.28-43.39c3.62-2.07,7.18-4.18,11.34-4.93
		c2.23-0.4,0.78-1.67,0.46-2.43c-3.82-9.03-6.89-18.29-9.06-27.85c-1.39-6.12-2.53-12.29-3.16-18.54
		C125.56,377.42,125.34,376.73,125.08,375.51z"/>
</g>
</svg>
