<?xml version="1.0" encoding="utf-8"?>
<!-- Generator: Adobe Illustrator 25.4.8, SVG Export Plug-In . SVG Version: 6.00 Build 0)  -->
<svg version="1.1" id="Слой_1" xmlns="http://www.w3.org/2000/svg" xmlns:xlink="http://www.w3.org/1999/xlink" x="0px" y="0px"
	 viewBox="0 0 864 864" style="enable-background:new 0 0 864 864;" xml:space="preserve">
<g>
	<path d="M864,672.91c-3.05,6.15-2.58,13.06-4.2,19.54c-18.77,75.39-79.53,122.99-159.39,123.14
		c-178.76,0.35-357.52,0.49-536.28-0.08c-68.16-0.22-119.18-30.57-149.08-92.8c-36.1-75.11-4.92-168.75,68.91-207.26
		c9.44-4.92,12.65-10.09,12.92-20.86c2.19-85.69,39.71-151.62,114.31-194.34c44.72-25.61,93.44-34.54,144.67-24.11
		c8.59,1.75,13.27,1.07,18.15-8c34.49-64.25,107.87-101.43,176.94-90.75c76.85,11.89,136.35,68.56,150.35,143.04
		c2.93,15.58,2.94,31.3,2.73,47.03c-0.06,4.57,1.21,7.82,4.66,10.96c36.92,33.52,57.25,75.02,59.04,125.09
		c0.2,5.71,3.9,6.92,7.51,8.74c36.01,18.24,62.03,45.71,77.56,83.1c5.86,14.11,7.92,29.12,11.21,43.84
		C864,650.43,864,661.67,864,672.91z M432.35,783.79c83.48,0,166.97,0.03,250.45-0.04c10.67-0.01,21.37-0.11,32.01-0.87
		c60.26-4.32,109.77-52.71,116.86-113.96c6.97-60.17-31.14-118.74-88.81-136.01c-5.39-1.61-6.89-4.09-6.72-9.42
		c0.45-13.77,0.22-27.58-2.7-41.11c-23.4-108.66-151.71-151.22-234.81-77.84c-4.17,3.68-5.88,4.05-8.96-1.29
		c-49.38-85.75-146.92-120.64-239.6-85.94c-80.45,30.13-133.36,120.49-119.92,205.24c1.01,6.39-0.09,8.69-6.82,10.81
		c-45.66,14.37-75.56,45.07-86.91,91.4c-11.68,47.68,1.23,89.63,36.56,123.88c25.72,24.93,57.41,35.21,92.89,35.18
		C254.7,783.73,343.52,783.79,432.35,783.79z M671.48,354.08c1.16-11.2-0.35-21.69-2.49-32.06
		c-14.98-72.62-82.88-120.66-153.16-113.21c-47.91,5.08-85.08,27.44-111.3,68.15c-4.45,6.91-2.38,8.67,3.95,11.49
		c31.46,14.05,58.54,34.18,80.99,60.37c10.44,12.17,10.25,12.15,24.95,5.11c41.76-20.01,84.8-23.63,129.31-10.32
		C653.1,346.42,661.71,351.13,671.48,354.08z"/>
	<path d="M784.26,367.74c-10.37-0.01-20.75,0.18-31.12-0.06c-10.58-0.25-17.27-6.64-17.04-15.75c0.21-8.43,8.05-16.08,17.33-16.17
		c20.46-0.2,40.94-0.28,61.4,0.03c11.18,0.17,17.37,6.6,17.05,16.54c-0.3,9.47-6.52,15-17.35,15.42c-0.56,0.02-1.12,0.02-1.68,0.02
		C803.32,367.75,793.79,367.75,784.26,367.74z"/>
	<path d="M544.07,96.23c0.01,10.12,0.26,20.24-0.06,30.35c-0.36,11.17-5.86,16.88-15.59,16.97c-9.74,0.1-15.95-5.4-16.24-16.49
		c-0.55-20.78-0.52-41.59-0.03-62.37c0.26-10.98,6.55-16.69,16.14-16.59c9.71,0.1,15.35,5.89,15.7,16.94
		C544.32,75.43,544.07,85.84,544.07,96.23z"/>
	<path d="M747.27,148.54c-0.43,5.14-2.74,9.19-6.21,12.67c-13.87,13.88-27.63,27.86-41.64,41.61c-8.07,7.92-17.06,8.38-23.84,1.76
		c-6.73-6.57-6.47-15.9,1.29-23.83c13.91-14.23,28.1-28.19,42.2-42.23c5.2-5.17,11.34-7.35,18.36-4.35
		C743.66,136.82,746.63,142.06,747.27,148.54z"/>
	<path d="M309.24,147.81c0.72-11.91,14.22-18.92,24.17-12.29c3.68,2.45,6.78,5.83,9.95,8.97c12.14,12.03,24.32,24.03,36.25,36.27
		c7.67,7.88,7.92,17.29,1.19,23.84c-6.58,6.4-15.53,6.22-23.2-1.26c-14.45-14.08-28.6-28.46-42.8-42.8
		C311.36,157.07,309.14,152.91,309.24,147.81z"/>
</g>
</svg>
