  0
SECTION
  2
HEADER
  9
$ACADVER
  1
AC1027
  9
$ACADMAINTVER
 70
   125
  9
$DWGCODEPAGE
  3
ANSI_1251
  9
$REQUIREDVERSIONS
160
                 0
  9
$INSBASE
 10
0.0
 20
0.0
 30
0.0
  9
$EXTMIN
 10
1.000000000000000E+20
 20
1.000000000000000E+20
 30
1.000000000000000E+20
  9
$EXTMAX
 10
-1.000000000000000E+20
 20
-1.000000000000000E+20
 30
-1.000000000000000E+20
  9
$LIMMIN
 10
0.0
 20
0.0
  9
$LIMMAX
 10
12.0
 20
9.0
  9
$ORTHOMODE
 70
     0
  9
$REGENMODE
 70
     1
  9
$FILLMODE
 70
     1
  9
$QTEXTMODE
 70
     0
  9
$MIRRTEXT
 70
     0
  9
$LTSCALE
 40
1.0
  9
$ATTMODE
 70
     1
  9
$TEXTSIZE
 40
0.2
  9
$TRACEWID
 40
0.05
  9
$TEXTSTYLE
  7
Standard
  9
$CLAYER
  8
0
  9
$CELTYPE
  6
ByLayer
  9
$CECOLOR
 62
   256
  9
$CELTSCALE
 40
1.0
  9
$DISPSILH
 70
     0
  9
$DIMSCALE
 40
1.0
  9
$DIMASZ
 40
0.18
  9
$DIMEXO
 40
0.0625
  9
$DIMDLI
 40
0.38
  9
$DIMRND
 40
0.0
  9
$DIMDLE
 40
0.0
  9
$DIMEXE
 40
0.18
  9
$DIMTP
 40
0.0
  9
$DIMTM
 40
0.0
  9
$DIMTXT
 40
0.18
  9
$DIMCEN
 40
0.09
  9
$DIMTSZ
 40
0.0
  9
$DIMTOL
 70
     0
  9
$DIMLIM
 70
     0
  9
$DIMTIH
 70
     1
  9
$DIMTOH
 70
     1
  9
$DIMSE1
 70
     0
  9
$DIMSE2
 70
     0
  9
$DIMTAD
 70
     0
  9
$DIMZIN
 70
     0
  9
$DIMBLK
  1

  9
$DIMASO
 70
     1
  9
$DIMSHO
 70
     1
  9
$DIMPOST
  1

  9
$DIMAPOST
  1

  9
$DIMALT
 70
     0
  9
$DIMALTD
 70
     2
  9
$DIMALTF
 40
25.4
  9
$DIMLFAC
 40
1.0
  9
$DIMTOFL
 70
     0
  9
$DIMTVP
 40
0.0
  9
$DIMTIX
 70
     0
  9
$DIMSOXD
 70
     0
  9
$DIMSAH
 70
     0
  9
$DIMBLK1
  1

  9
$DIMBLK2
  1

  9
$DIMSTYLE
  2
Standard
  9
$DIMCLRD
 70
     0
  9
$DIMCLRE
 70
     0
  9
$DIMCLRT
 70
     0
  9
$DIMTFAC
 40
1.0
  9
$DIMGAP
 40
0.09
  9
$DIMJUST
 70
     0
  9
$DIMSD1
 70
     0
  9
$DIMSD2
 70
     0
  9
$DIMTOLJ
 70
     1
  9
$DIMTZIN
 70
     0
  9
$DIMALTZ
 70
     0
  9
$DIMALTTZ
 70
     0
  9
$DIMUPT
 70
     0
  9
$DIMDEC
 70
     4
  9
$DIMTDEC
 70
     4
  9
$DIMALTU
 70
     2
  9
$DIMALTTD
 70
     2
  9
$DIMTXSTY
  7
Standard
  9
$DIMAUNIT
 70
     0
  9
$DIMADEC
 70
     0
  9
$DIMALTRND
 40
0.0
  9
$DIMAZIN
 70
     0
  9
$DIMDSEP
 70
    46
  9
$DIMATFIT
 70
     3
  9
$DIMFRAC
 70
     0
  9
$DIMLDRBLK
  1

  9
$DIMLUNIT
 70
     2
  9
$DIMLWD
 70
    -2
  9
$DIMLWE
 70
    -2
  9
$DIMTMOVE
 70
     0
  9
$DIMFXL
 40
1.0
  9
$DIMFXLON
 70
     0
  9
$DIMJOGANG
 40
0.7853981633974483
  9
$DIMTFILL
 70
     0
  9
$DIMTFILLCLR
 70
     0
  9
$DIMARCSYM
 70
     0
  9
$DIMLTYPE
  6

  9
$DIMLTEX1
  6

  9
$DIMLTEX2
  6

  9
$DIMTXTDIRECTION
 70
     0
  9
$LUNITS
 70
     2
  9
$LUPREC
 70
     4
  9
$SKETCHINC
 40
0.1
  9
$FILLETRAD
 40
0.0
  9
$AUNITS
 70
     0
  9
$AUPREC
 70
     0
  9
$MENU
  1
.
  9
$ELEVATION
 40
0.0
  9
$PELEVATION
 40
0.0
  9
$THICKNESS
 40
0.0
  9
$LIMCHECK
 70
     0
  9
$CHAMFERA
 40
0.0
  9
$CHAMFERB
 40
0.0
  9
$CHAMFERC
 40
0.0
  9
$CHAMFERD
 40
0.0
  9
$SKPOLY
 70
     0
  9
$TDCREATE
 40
2459954.680115741
  9
$TDUCREATE
 40
2459954.596782407
  9
$TDUPDATE
 40
2459954.680115741
  9
$TDUUPDATE
 40
2459954.596782407
  9
$TDINDWG
 40
0.0000000000
  9
$TDUSRTIMER
 40
0.0000000000
  9
$USRTIMER
 70
     1
  9
$ANGBASE
 50
0.0
  9
$ANGDIR
 70
     0
  9
$PDMODE
 70
     0
  9
$PDSIZE
 40
0.0
  9
$PLINEWID
 40
0.0
  9
$SPLFRAME
 70
     0
  9
$SPLINETYPE
 70
     6
  9
$SPLINESEGS
 70
     8
  9
$HANDSEED
  5
96
  9
$SURFTAB1
 70
     6
  9
$SURFTAB2
 70
     6
  9
$SURFTYPE
 70
     6
  9
$SURFU
 70
     6
  9
$SURFV
 70
     6
  9
$UCSBASE
  2

  9
$UCSNAME
  2

  9
$UCSORG
 10
0.0
 20
0.0
 30
0.0
  9
$UCSXDIR
 10
1.0
 20
0.0
 30
0.0
  9
$UCSYDIR
 10
0.0
 20
1.0
 30
0.0
  9
$UCSORTHOREF
  2

  9
$UCSORTHOVIEW
 70
     0
  9
$UCSORGTOP
 10
0.0
 20
0.0
 30
0.0
  9
$UCSORGBOTTOM
 10
0.0
 20
0.0
 30
0.0
  9
$UCSORGLEFT
 10
0.0
 20
0.0
 30
0.0
  9
$UCSORGRIGHT
 10
0.0
 20
0.0
 30
0.0
  9
$UCSORGFRONT
 10
0.0
 20
0.0
 30
0.0
  9
$UCSORGBACK
 10
0.0
 20
0.0
 30
0.0
  9
$PUCSBASE
  2

  9
$PUCSNAME
  2

  9
$PUCSORG
 10
0.0
 20
0.0
 30
0.0
  9
$PUCSXDIR
 10
1.0
 20
0.0
 30
0.0
  9
$PUCSYDIR
 10
0.0
 20
1.0
 30
0.0
  9
$PUCSORTHOREF
  2

  9
$PUCSORTHOVIEW
 70
     0
  9
$PUCSORGTOP
 10
0.0
 20
0.0
 30
0.0
  9
$PUCSORGBOTTOM
 10
0.0
 20
0.0
 30
0.0
  9
$PUCSORGLEFT
 10
0.0
 20
0.0
 30
0.0
  9
$PUCSORGRIGHT
 10
0.0
 20
0.0
 30
0.0
  9
$PUCSORGFRONT
 10
0.0
 20
0.0
 30
0.0
  9
$PUCSORGBACK
 10
0.0
 20
0.0
 30
0.0
  9
$USERI1
 70
     0
  9
$USERI2
 70
     0
  9
$USERI3
 70
     0
  9
$USERI4
 70
     0
  9
$USERI5
 70
     0
  9
$USERR1
 40
0.0
  9
$USERR2
 40
0.0
  9
$USERR3
 40
0.0
  9
$USERR4
 40
0.0
  9
$USERR5
 40
0.0
  9
$WORLDVIEW
 70
     1
  9
$SHADEDGE
 70
     3
  9
$SHADEDIF
 70
    70
  9
$TILEMODE
 70
     1
  9
$MAXACTVP
 70
    64
  9
$PINSBASE
 10
0.0
 20
0.0
 30
0.0
  9
$PLIMCHECK
 70
     0
  9
$PEXTMIN
 10
1.000000000000000E+20
 20
1.000000000000000E+20
 30
1.000000000000000E+20
  9
$PEXTMAX
 10
-1.000000000000000E+20
 20
-1.000000000000000E+20
 30
-1.000000000000000E+20
  9
$PLIMMIN
 10
0.0
 20
0.0
  9
$PLIMMAX
 10
12.0
 20
9.0
  9
$UNITMODE
 70
     0
  9
$VISRETAIN
 70
     1
  9
$PLINEGEN
 70
     0
  9
$PSLTSCALE
 70
     1
  9
$TREEDEPTH
 70
  3020
  9
$CMLSTYLE
  2
Standard
  9
$CMLJUST
 70
     0
  9
$CMLSCALE
 40
1.0
  9
$PROXYGRAPHICS
 70
     1
  9
$MEASUREMENT
 70
     0
  9
$CELWEIGHT
370
    -1
  9
$ENDCAPS
280
     0
  9
$JOINSTYLE
280
     0
  9
$LWDISPLAY
290
     1
  9
$INSUNITS
 70
     1
  9
$HYPERLINKBASE
  1

  9
$STYLESHEET
  1

  9
$XEDIT
290
     1
  9
$CEPSNTYPE
380
     0
  9
$PSTYLEMODE
290
     1
  9
$FINGERPRINTGUID
  2
{91AC97A1-925C-6744-82BB-BC981DAE9E94}
  9
$VERSIONGUID
  2
{615419EA-8DDC-884D-8BC9-45E1FB73533F}
  9
$EXTNAMES
290
     1
  9
$PSVPSCALE
 40
0.0
  9
$OLESTARTUP
290
     0
  9
$SORTENTS
280
   127
  9
$INDEXCTL
280
     0
  9
$HIDETEXT
280
     1
  9
$XCLIPFRAME
280
     2
  9
$HALOGAP
280
     0
  9
$OBSCOLOR
 70
   257
  9
$OBSLTYPE
280
     0
  9
$INTERSECTIONDISPLAY
280
     0
  9
$INTERSECTIONCOLOR
 70
   257
  9
$DIMASSOC
280
     2
  9
$PROJECTNAME
  1

  9
$CAMERADISPLAY
290
     0
  9
$LENSLENGTH
 40
50.0
  9
$CAMERAHEIGHT
 40
0.0
  9
$STEPSPERSEC
 40
2.0
  9
$STEPSIZE
 40
6.0
  9
$3DDWFPREC
 40
2.0
  9
$PSOLWIDTH
 40
0.25
  9
$PSOLHEIGHT
 40
4.0
  9
$LOFTANG1
 40
1.570796326794896
  9
$LOFTANG2
 40
1.570796326794896
  9
$LOFTMAG1
 40
0.0
  9
$LOFTMAG2
 40
0.0
  9
$LOFTPARAM
 70
     7
  9
$LOFTNORMALS
280
     1
  9
$LATITUDE
 40
37.795
  9
$LONGITUDE
 40
-122.394
  9
$NORTHDIRECTION
 40
0.0
  9
$TIMEZONE
 70
 -8000
  9
$LIGHTGLYPHDISPLAY
280
     1
  9
$TILEMODELIGHTSYNCH
280
     1
  9
$CMATERIAL
347
11
  9
$SOLIDHIST
280
     0
  9
$SHOWHIST
280
     1
  9
$DWFFRAME
280
     2
  9
$DGNFRAME
280
     0
  9
$REALWORLDSCALE
290
     1
  9
$INTERFERECOLOR
 62
     1
  9
$INTERFEREOBJVS
345
33
  9
$INTERFEREVPVS
346
30
  9
$CSHADOW
280
     0
  9
$SHADOWPLANELOCATION
 40
0.0
  0
ENDSEC
  0
SECTION
  2
CLASSES
  0
CLASS
  1
ACDBDICTIONARYWDFLT
  2
AcDbDictionaryWithDefault
  3
ObjectDBX Classes
 90
        0
 91
        1
280
     0
281
     0
  0
CLASS
  1
MATERIAL
  2
AcDbMaterial
  3
ObjectDBX Classes
 90
     1153
 91
        3
280
     0
281
     0
  0
CLASS
  1
VISUALSTYLE
  2
AcDbVisualStyle
  3
ObjectDBX Classes
 90
     4095
 91
       24
280
     0
281
     0
  0
CLASS
  1
SCALE
  2
AcDbScale
  3
ObjectDBX Classes
 90
     1153
 91
       17
280
     0
281
     0
  0
CLASS
  1
TABLESTYLE
  2
AcDbTableStyle
  3
ObjectDBX Classes
 90
     4095
 91
        1
280
     0
281
     0
  0
CLASS
  1
MLEADERSTYLE
  2
AcDbMLeaderStyle
  3
ACDB_MLEADERSTYLE_CLASS
 90
     4095
 91
        1
280
     0
281
     0
  0
CLASS
  1
ACDBSECTIONVIEWSTYLE
  2
AcDbSectionViewStyle
  3
ObjectDBX Classes
 90
     1025
 91
        1
280
     0
281
     0
  0
CLASS
  1
ACDBDETAILVIEWSTYLE
  2
AcDbDetailViewStyle
  3
ObjectDBX Classes
 90
     1025
 91
        1
280
     0
281
     0
  0
CLASS
  1
DICTIONARYVAR
  2
AcDbDictionaryVar
  3
ObjectDBX Classes
 90
        0
 91
        5
280
     0
281
     0
  0
CLASS
  1
CELLSTYLEMAP
  2
AcDbCellStyleMap
  3
ObjectDBX Classes
 90
     1152
 91
        1
280
     0
281
     0
  0
ENDSEC
  0
SECTION
  2
TABLES
  0
TABLE
  2
VPORT
  5
8
330
0
100
AcDbSymbolTable
 70
     1
1001
ACAD
1000
DbSaveVer
1071
      278
  0
VPORT
  5
57
330
8
100
AcDbSymbolTableRecord
100
AcDbViewportTableRecord
  2
*Active
 70
     0
 10
0.0
 20
0.0
 11
1.0
 21
1.0
 12
0.0
 22
0.0
 13
0.0
 23
0.0
 14
1.0
 24
1.0
 15
0.0
 25
0.0
 16
0.0
 26
0.0
 36
1.0
 17
65.11111111111111
 27
-20.77777777777777
 37
0.0
 40
12.24
 41
1.000000000000005
 42
50.0
 43
0.0
 44
0.0
 50
0.0
 51
0.0
 71
     0
 72
   100
 73
     1
 74
     1
 75
     0
 76
     0
 77
     0
 78
     0
281
     0
 65
     1
110
0.0
120
0.0
130
0.0
111
1.0
121
0.0
131
0.0
112
0.0
122
1.0
132
0.0
 79
     0
146
0.0
 60
     3
 61
     5
292
     1
282
     1
141
0.0
142
0.0
 63
   250
421
  3355443
  0
ENDTAB
  0
TABLE
  2
LTYPE
  5
5
330
0
100
AcDbSymbolTable
 70
     1
  0
LTYPE
  5
5B
330
5
100
AcDbSymbolTableRecord
100
AcDbLinetypeTableRecord
  2
ByBlock
 70
     0
  3

 72
    65
 73
     0
 40
0.0
  0
LTYPE
  5
5C
330
5
100
AcDbSymbolTableRecord
100
AcDbLinetypeTableRecord
  2
ByLayer
 70
     0
  3

 72
    65
 73
     0
 40
0.0
  0
LTYPE
  5
5D
330
5
100
AcDbSymbolTableRecord
100
AcDbLinetypeTableRecord
  2
Continuous
 70
     0
  3
Solid line
 72
    65
 73
     0
 40
0.0
  0
ENDTAB
  0
TABLE
  2
LAYER
  5
2
330
0
100
AcDbSymbolTable
 70
     2
  0
LAYER
  5
54
330
2
100
AcDbSymbolTableRecord
100
AcDbLayerTableRecord
  2
0
 70
     0
 62
     7
  6
Continuous
370
    -3
390
F
347
21
348
0
  0
LAYER
  5
78
330
2
100
AcDbSymbolTableRecord
100
AcDbLayerTableRecord
  2
Слой 1
 70
     0
 62
     7
  6
Continuous
370
     0
390
F
347
21
348
0
  0
ENDTAB
  0
TABLE
  2
STYLE
  5
3
330
0
100
AcDbSymbolTable
 70
     2
  0
STYLE
  5
55
330
3
100
AcDbSymbolTableRecord
100
AcDbTextStyleTableRecord
  2
Standard
 70
     0
 40
0.0
 41
1.0
 50
0.0
 71
     0
 42
0.2
  3
txt
  4

  0
STYLE
  5
5A
330
3
100
AcDbSymbolTableRecord
100
AcDbTextStyleTableRecord
  2
Annotative
 70
     0
 40
0.0
 41
1.0
 50
0.0
 71
     0
 42
0.2
  3
txt
  4

1001
AcadAnnotative
1000
AnnotativeData
1002
{
1070
     1
1070
     1
1002
}
  0
ENDTAB
  0
TABLE
  2
VIEW
  5
6
330
0
100
AcDbSymbolTable
 70
     0
  0
ENDTAB
  0
TABLE
  2
UCS
  5
7
330
0
100
AcDbSymbolTable
 70
     0
  0
ENDTAB
  0
TABLE
  2
APPID
  5
9
330
0
100
AcDbSymbolTable
 70
     2
  0
APPID
  5
56
330
9
100
AcDbSymbolTableRecord
100
AcDbRegAppTableRecord
  2
ACAD
 70
     0
  0
APPID
  5
5E
330
9
100
AcDbSymbolTableRecord
100
AcDbRegAppTableRecord
  2
AcadAnnotative
 70
     0
  0
ENDTAB
  0
TABLE
  2
DIMSTYLE
  5
A
330
0
100
AcDbSymbolTable
 70
     2
100
AcDbDimStyleTable
 71
     0
  0
DIMSTYLE
105
58
330
A
100
AcDbSymbolTableRecord
100
AcDbDimStyleTableRecord
  2
Standard
 70
     0
340
55
  0
DIMSTYLE
105
59
330
A
100
AcDbSymbolTableRecord
100
AcDbDimStyleTableRecord
  2
Annotative
 70
     0
340
55
1001
AcadAnnotative
1000
AnnotativeData
1002
{
1070
     1
1070
     1
1002
}
  0
ENDTAB
  0
TABLE
  2
BLOCK_RECORD
  5
1
330
0
100
AcDbSymbolTable
 70
     2
  0
BLOCK_RECORD
  5
70
330
1
100
AcDbSymbolTableRecord
100
AcDbBlockTableRecord
  2
*Model_Space
340
73
 70
     0
280
     1
281
     0
  0
BLOCK_RECORD
  5
6C
330
1
100
AcDbSymbolTableRecord
100
AcDbBlockTableRecord
  2
*Paper_Space
340
6F
 70
     0
280
     1
281
     0
  0
BLOCK_RECORD
  5
74
330
1
100
AcDbSymbolTableRecord
100
AcDbBlockTableRecord
  2
*Paper_Space0
340
77
 70
     0
280
     1
281
     0
  0
BLOCK_RECORD
  5
79
330
1
100
AcDbSymbolTableRecord
100
AcDbBlockTableRecord
  2
Block_0
340
0
102
{BLKREFS
331
7A
102
}
 70
     0
280
     1
281
     0
  0
ENDTAB
  0
ENDSEC
  0
SECTION
  2
BLOCKS
  0
BLOCK
  5
71
330
70
100
AcDbEntity
  8
0
100
AcDbBlockBegin
  2
*Model_Space
 70
     0
 10
0.0
 20
0.0
 30
0.0
  3
*Model_Space
  1

  0
ENDBLK
  5
72
330
70
100
AcDbEntity
  8
0
100
AcDbBlockEnd
  0
BLOCK
  5
6D
330
6C
100
AcDbEntity
 67
     1
  8
0
100
AcDbBlockBegin
  2
*Paper_Space
 70
     0
 10
0.0
 20
0.0
 30
0.0
  3
*Paper_Space
  1

  0
ENDBLK
  5
6E
330
6C
100
AcDbEntity
 67
     1
  8
0
100
AcDbBlockEnd
  0
BLOCK
  5
75
330
74
100
AcDbEntity
 67
     1
  8
0
100
AcDbBlockBegin
  2
*Paper_Space0
 70
     0
 10
0.0
 20
0.0
 30
0.0
  3
*Paper_Space0
  1

  0
ENDBLK
  5
76
330
74
100
AcDbEntity
 67
     1
  8
0
100
AcDbBlockEnd
  0
BLOCK
  5
7B
330
79
100
AcDbEntity
  8
0
100
AcDbBlockBegin
  2
Block_0
 70
     0
 10
0.0
 20
0.0
 30
0.0
  3
Block_0
  1

  0
SPLINE
  5
7D
330
79
100
AcDbEntity
  8
Слой 1
100
AcDbSpline
210
0.0
220
0.0
230
1.0
 70
     9
 71
     3
 72
    20
 73
    16
 74
     0
 42
0.0000000001
 43
0.0000000001
 40
0.0
 40
0.0
 40
0.0
 40
0.0
 40
1.0
 40
1.0
 40
1.0
 40
2.0
 40
2.0
 40
2.0
 40
3.0
 40
3.0
 40
3.0
 40
4.0
 40
4.0
 40
4.0
 40
5.0
 40
5.0
 40
5.0
 40
5.0
 10
64.54491239089917
 20
-18.45498912840958
 30
0.0
 10
64.59391248728848
 20
-18.50783985825723
 30
0.0
 10
64.62844042271111
 20
-18.54583834137889
 30
0.0
 10
64.66397213319861
 20
-18.58287387940875
 30
0.0
 10
64.67287352606111
 20
-18.59215168792027
 30
0.0
 10
64.68289521997862
 20
-18.61442122680751
 30
0.0
 10
64.69791009845053
 20
-18.59742632403029
 30
0.0
 10
64.71194872768222
 20
-18.5815365831043
 30
0.0
 10
64.71864759582527
 20
-18.55856398878417
 30
0.0
 10
64.72638327002236
 20
-18.53788842451472
 30
0.0
 10
64.73292157085611
 20
-18.52041090228236
 30
0.0
 10
64.71718597454709
 20
-18.51700848099875
 30
0.0
 10
64.70604673215722
 20
-18.51535027945763
 30
0.0
 10
64.65512762703984
 20
-18.50777150245987
 30
0.0
 10
64.61065461124488
 20
-18.48125312318737
 30
0.0
 10
64.54491239089917
 20
-18.45498912840958
 30
0.0
  0
SPLINE
  5
7E
330
79
100
AcDbEntity
  8
Слой 1
100
AcDbSpline
210
0.0
220
0.0
230
1.0
 70
     9
 71
     3
 72
    23
 73
    19
 74
     0
 42
0.0000000001
 43
0.0000000001
 40
0.0
 40
0.0
 40
0.0
 40
0.0
 40
1.0
 40
1.0
 40
1.0
 40
2.0
 40
2.0
 40
2.0
 40
3.0
 40
3.0
 40
3.0
 40
4.0
 40
4.0
 40
4.0
 40
5.0
 40
5.0
 40
5.0
 40
6.0
 40
6.0
 40
6.0
 40
6.0
 10
63.70686710371223
 20
-24.43614135510971
 30
0.0
 10
63.58183104616139
 20
-24.68631623328932
 30
0.0
 10
63.43074041948026
 20
-24.90728070656582
 30
0.0
 10
63.33772928238222
 20
-25.15884472135236
 30
0.0
 10
63.31244543633667
 20
-25.22722712702626
 30
0.0
 10
63.29459264536404
 20
-25.29740513398138
 30
0.0
 10
63.28588072192653
 20
-25.36910715408362
 30
0.0
 10
63.27780556256109
 20
-25.4355737623761
 30
0.0
 10
63.26807793620138
 20
-25.50671517318708
 30
0.0
 10
63.31611784008151
 20
-25.56315228857847
 30
0.0
 10
63.39072658724514
 20
-25.65080277136485
 30
0.0
 10
63.49235376615872
 20
-25.66112587306015
 30
0.0
 10
63.59759508582222
 20
-25.64502601834124
 30
0.0
 10
63.6922302465625
 20
-25.63054926973695
 30
0.0
 10
63.76635820932581
 20
-25.58333789317279
 30
0.0
 10
63.80029112817666
 20
-25.48874447993292
 30
0.0
 10
63.92932072409095
 20
-25.12905810919056
 30
0.0
 10
63.85673879513418
 20
-24.78707267862306
 30
0.0
 10
63.70686710371223
 20
-24.43614135510971
 30
0.0
  0
SPLINE
  5
7F
330
79
100
AcDbEntity
  8
Слой 1
100
AcDbSpline
210
0.0
220
0.0
230
1.0
 70
     9
 71
     3
 72
    35
 73
    31
 74
     0
 42
0.0000000001
 43
0.0000000001
 40
0.0
 40
0.0
 40
0.0
 40
0.0
 40
1.0
 40
1.0
 40
1.0
 40
2.0
 40
2.0
 40
2.0
 40
3.0
 40
3.0
 40
3.0
 40
4.0
 40
4.0
 40
4.0
 40
5.0
 40
5.0
 40
5.0
 40
6.0
 40
6.0
 40
6.0
 40
7.0
 40
7.0
 40
7.0
 40
8.0
 40
8.0
 40
8.0
 40
9.0
 40
9.0
 40
9.0
 40
10.0
 40
10.0
 40
10.0
 40
10.0
 10
67.73328598207055
 20
-20.98416074219222
 30
0.0
 10
67.74700944061234
 20
-20.97712009506265
 30
0.0
 10
67.75648841702443
 20
-20.97364450096221
 30
0.0
 10
67.76441493693778
 20
-20.96799069662069
 30
0.0
 10
68.35402635434123
 20
-20.54749702709263
 30
0.0
 10
68.62974519760776
 20
-19.97250778639917
 30
0.0
 10
68.5451665968293
 20
-19.25592341093124
 30
0.0
 10
68.42422179431888
 20
-18.23123422467958
 30
0.0
 10
67.48516269533999
 20
-17.54585541762402
 30
0.0
 10
66.46725541346846
 20
-17.71134480307319
 30
0.0
 10
65.77440976776748
 20
-17.82398644063945
 30
0.0
 10
65.19579858734054
 20
-18.35963141477764
 30
0.0
 10
65.03016744389499
 20
-19.04106003664361
 30
0.0
 10
65.01918096983096
 20
-19.08625881667666
 30
0.0
 10
65.0193644753272
 20
-19.12801732741804
 30
0.0
 10
65.03854263474678
 20
-19.17229445109597
 30
0.0
 10
65.0832849448582
 20
-19.27559428260833
 30
0.0
 10
65.12095587066889
 20
-19.38195360950819
 30
0.0
 10
65.14429042958027
 20
-19.49219591270985
 30
0.0
 10
65.15452865998319
 20
-19.54056520895584
 30
0.0
 10
65.17546159071139
 20
-19.55609252652653
 30
0.0
 10
65.22492549724292
 20
-19.55552641207027
 30
0.0
 10
65.43531179618402
 20
-19.55311652614
 30
0.0
 10
65.64596234304012
 20
-19.5489064512907
 30
0.0
 10
65.85612522403986
 20
-19.55636961982582
 30
0.0
 10
66.56244751339014
 20
-19.5814529861168
 30
0.0
 10
67.10938381009832
 20
-19.89489826560695
 30
0.0
 10
67.50160662286457
 20
-20.48066157275278
 30
0.0
 10
67.60496609366332
 20
-20.63502318490582
 30
0.0
 10
67.67435869709429
 20
-20.80605581263515
 30
0.0
 10
67.73328598207055
 20
-20.98416074219222
 30
0.0
  0
SPLINE
  5
80
330
79
100
AcDbEntity
  8
Слой 1
100
AcDbSpline
210
0.0
220
0.0
230
1.0
 70
     9
 71
     3
 72
    65
 73
    61
 74
     0
 42
0.0000000001
 43
0.0000000001
 40
0.0
 40
0.0
 40
0.0
 40
0.0
 40
1.0
 40
1.0
 40
1.0
 40
2.0
 40
2.0
 40
2.0
 40
3.0
 40
3.0
 40
3.0
 40
4.0
 40
4.0
 40
4.0
 40
5.0
 40
5.0
 40
5.0
 40
6.0
 40
6.0
 40
6.0
 40
7.0
 40
7.0
 40
7.0
 40
8.0
 40
8.0
 40
8.0
 40
9.0
 40
9.0
 40
9.0
 40
10.0
 40
10.0
 40
10.0
 40
11.0
 40
11.0
 40
11.0
 40
12.0
 40
12.0
 40
12.0
 40
13.0
 40
13.0
 40
13.0
 40
14.0
 40
14.0
 40
14.0
 40
15.0
 40
15.0
 40
15.0
 40
16.0
 40
16.0
 40
16.0
 40
17.0
 40
17.0
 40
17.0
 40
18.0
 40
18.0
 40
18.0
 40
19.0
 40
19.0
 40
19.0
 40
20.0
 40
20.0
 40
20.0
 40
20.0
 10
63.46141703329901
 20
-23.09706321235376
 30
0.0
 10
63.46141703329901
 20
-23.09818534846403
 30
0.0
 10
63.46141749206264
 20
-23.09930840210098
 30
0.0
 10
63.46141795082639
 20
-23.10043053821098
 30
0.0
 10
64.21288259227029
 20
-23.10043053821098
 30
0.0
 10
64.96434723371347
 20
-23.10086544623737
 30
0.0
 10
65.7158109576297
 20
-23.09996076414068
 30
0.0
 10
65.8283273526943
 20
-23.09982497007334
 30
0.0
 10
65.94078502600041
 20
-23.09804680181403
 30
0.0
 10
66.05280549746137
 20
-23.08021006757235
 30
0.0
 10
66.80056424540694
 20
-22.96114619639932
 30
0.0
 10
67.33650856288611
 20
-22.34366579927028
 30
0.0
 10
67.35961190487195
 20
-21.57243532205515
 30
0.0
 10
67.38129766689876
 20
-20.84851531437223
 30
0.0
 10
66.85357990081957
 20
-20.1909036414907
 30
0.0
 10
66.12740139924054
 20
-20.04039243341418
 30
0.0
 10
65.82994403611708
 20
-19.97874009181765
 30
0.0
 10
65.5280201492132
 20
-20.0192425074364
 30
0.0
 10
65.22829511691917
 20
-20.00848633276999
 30
0.0
 10
65.2054018887264
 20
-20.00766468691027
 30
0.0
 10
65.19556782917902
 20
-20.01870070745862
 30
0.0
 10
65.18405652939513
 20
-20.03904412678
 30
0.0
 10
65.12030213233821
 20
-20.15171558398929
 30
0.0
 10
65.03067804793861
 20
-20.19659919333236
 30
0.0
 10
64.92658547268193
 20
-20.17257327746418
 30
0.0
 10
64.82028853765112
 20
-20.14803905137041
 30
0.0
 10
64.75658368707819
 20
-20.06042435215583
 30
0.0
 10
64.75136983716431
 20
-19.93159523599582
 30
0.0
 10
64.7121047073543
 20
-18.96140764091332
 30
0.0
 10
63.8525553285818
 20
-18.21627646229333
 30
0.0
 10
62.88610482293194
 20
-18.31462233355112
 30
0.0
 10
61.71408389070943
 20
-18.43388691386111
 30
0.0
 10
61.01465383841875
 20
-19.69008227600597
 30
0.0
 10
61.53007994759152
 20
-20.7488782525661
 30
0.0
 10
61.59075122292835
 20
-20.87351013926097
 30
0.0
 10
61.66917527874223
 20
-20.98567649759166
 30
0.0
 10
61.75186079094429
 20
-21.09615919299375
 30
0.0
 10
61.81128721087068
 20
-21.1755643150675
 30
0.0
 10
61.81448754672651
 20
-21.26448878476251
 30
0.0
 10
61.76129847861986
 20
-21.34941604598362
 30
0.0
 10
61.71159762061638
 20
-21.42877391539208
 30
0.0
 10
61.63600092573708
 20
-21.46248020495528
 30
0.0
 10
61.54306984291166
 20
-21.45182725213054
 30
0.0
 10
61.46824501802595
 20
-21.44324974646889
 30
0.0
 10
61.41677906653
 20
-21.39705407282695
 30
0.0
 10
61.37239917977389
 20
-21.3398063219057
 30
0.0
 10
61.08766929911098
 20
-20.97252052979737
 30
0.0
 10
60.93221949936471
 20
-20.5575448705432
 30
0.0
 10
60.91414489612361
 20
-20.09273095354542
 30
0.0
 10
60.91202437542263
 20
-20.03820091902472
 30
0.0
 10
60.90069245226138
 20
-20.01782584500501
 30
0.0
 10
60.84071196042749
 20
-20.02857789079763
 30
0.0
 10
60.05742482803167
 20
-20.16898712130208
 30
0.0
 10
59.5119786532986
 20
-20.87370144374139
 30
0.0
 10
59.56705903227208
 20
-21.67683756283708
 30
0.0
 10
59.62029902315387
 20
-22.4531396732064
 30
0.0
 10
60.27328658691014
 20
-23.08228367968084
 30
0.0
 10
61.06435469642249
 20
-23.09437210425055
 30
0.0
 10
61.86320252145095
 20
-23.10658072492028
 30
0.0
 10
62.66238249142791
 20
-23.09706321235376
 30
0.0
 10
63.46141703329901
 20
-23.09706321235376
 30
0.0
  0
SPLINE
  5
81
330
79
100
AcDbEntity
  8
Слой 1
100
AcDbSpline
210
0.0
220
0.0
230
1.0
 70
     9
 71
     3
 72
   317
 73
   313
 74
     0
 42
0.0000000001
 43
0.0000000001
 40
0.0
 40
0.0
 40
0.0
 40
0.0
 40
1.0
 40
1.0
 40
1.0
 40
2.0
 40
2.0
 40
2.0
 40
3.0
 40
3.0
 40
3.0
 40
4.0
 40
4.0
 40
4.0
 40
5.0
 40
5.0
 40
5.0
 40
6.0
 40
6.0
 40
6.0
 40
7.0
 40
7.0
 40
7.0
 40
8.0
 40
8.0
 40
8.0
 40
9.0
 40
9.0
 40
9.0
 40
10.0
 40
10.0
 40
10.0
 40
11.0
 40
11.0
 40
11.0
 40
12.0
 40
12.0
 40
12.0
 40
13.0
 40
13.0
 40
13.0
 40
14.0
 40
14.0
 40
14.0
 40
15.0
 40
15.0
 40
15.0
 40
16.0
 40
16.0
 40
16.0
 40
17.0
 40
17.0
 40
17.0
 40
18.0
 40
18.0
 40
18.0
 40
19.0
 40
19.0
 40
19.0
 40
20.0
 40
20.0
 40
20.0
 40
21.0
 40
21.0
 40
21.0
 40
22.0
 40
22.0
 40
22.0
 40
23.0
 40
23.0
 40
23.0
 40
24.0
 40
24.0
 40
24.0
 40
25.0
 40
25.0
 40
25.0
 40
26.0
 40
26.0
 40
26.0
 40
27.0
 40
27.0
 40
27.0
 40
28.0
 40
28.0
 40
28.0
 40
29.0
 40
29.0
 40
29.0
 40
30.0
 40
30.0
 40
30.0
 40
31.0
 40
31.0
 40
31.0
 40
32.0
 40
32.0
 40
32.0
 40
33.0
 40
33.0
 40
33.0
 40
34.0
 40
34.0
 40
34.0
 40
35.0
 40
35.0
 40
35.0
 40
36.0
 40
36.0
 40
36.0
 40
37.0
 40
37.0
 40
37.0
 40
38.0
 40
38.0
 40
38.0
 40
39.0
 40
39.0
 40
39.0
 40
40.0
 40
40.0
 40
40.0
 40
41.0
 40
41.0
 40
41.0
 40
42.0
 40
42.0
 40
42.0
 40
43.0
 40
43.0
 40
43.0
 40
44.0
 40
44.0
 40
44.0
 40
45.0
 40
45.0
 40
45.0
 40
46.0
 40
46.0
 40
46.0
 40
47.0
 40
47.0
 40
47.0
 40
48.0
 40
48.0
 40
48.0
 40
49.0
 40
49.0
 40
49.0
 40
50.0
 40
50.0
 40
50.0
 40
51.0
 40
51.0
 40
51.0
 40
52.0
 40
52.0
 40
52.0
 40
53.0
 40
53.0
 40
53.0
 40
54.0
 40
54.0
 40
54.0
 40
55.0
 40
55.0
 40
55.0
 40
56.0
 40
56.0
 40
56.0
 40
57.0
 40
57.0
 40
57.0
 40
58.0
 40
58.0
 40
58.0
 40
59.0
 40
59.0
 40
59.0
 40
60.0
 40
60.0
 40
60.0
 40
61.0
 40
61.0
 40
61.0
 40
62.0
 40
62.0
 40
62.0
 40
63.0
 40
63.0
 40
63.0
 40
64.0
 40
64.0
 40
64.0
 40
65.0
 40
65.0
 40
65.0
 40
66.0
 40
66.0
 40
66.0
 40
67.0
 40
67.0
 40
67.0
 40
68.0
 40
68.0
 40
68.0
 40
69.0
 40
69.0
 40
69.0
 40
70.0
 40
70.0
 40
70.0
 40
71.0
 40
71.0
 40
71.0
 40
72.0
 40
72.0
 40
72.0
 40
73.0
 40
73.0
 40
73.0
 40
74.0
 40
74.0
 40
74.0
 40
75.0
 40
75.0
 40
75.0
 40
76.0
 40
76.0
 40
76.0
 40
77.0
 40
77.0
 40
77.0
 40
78.0
 40
78.0
 40
78.0
 40
79.0
 40
79.0
 40
79.0
 40
80.0
 40
80.0
 40
80.0
 40
81.0
 40
81.0
 40
81.0
 40
82.0
 40
82.0
 40
82.0
 40
83.0
 40
83.0
 40
83.0
 40
84.0
 40
84.0
 40
84.0
 40
85.0
 40
85.0
 40
85.0
 40
86.0
 40
86.0
 40
86.0
 40
87.0
 40
87.0
 40
87.0
 40
88.0
 40
88.0
 40
88.0
 40
89.0
 40
89.0
 40
89.0
 40
90.0
 40
90.0
 40
90.0
 40
91.0
 40
91.0
 40
91.0
 40
92.0
 40
92.0
 40
92.0
 40
93.0
 40
93.0
 40
93.0
 40
94.0
 40
94.0
 40
94.0
 40
95.0
 40
95.0
 40
95.0
 40
96.0
 40
96.0
 40
96.0
 40
97.0
 40
97.0
 40
97.0
 40
98.0
 40
98.0
 40
98.0
 40
99.0
 40
99.0
 40
99.0
 40
100.0
 40
100.0
 40
100.0
 40
101.0
 40
101.0
 40
101.0
 40
102.0
 40
102.0
 40
102.0
 40
103.0
 40
103.0
 40
103.0
 40
104.0
 40
104.0
 40
104.0
 40
104.0
 10
63.72220770444028
 20
-17.9515762065532
 30
0.0
 10
63.56775571583042
 20
-17.8583035741232
 30
0.0
 10
63.41335969639693
 20
-17.76493827141722
 30
0.0
 10
63.25883063547861
 20
-17.67179363407098
 30
0.0
 10
63.16921893769984
 20
-17.61777902061279
 30
0.0
 10
63.07881495494095
 20
-17.56505376264805
 30
0.0
 10
62.98985699549277
 20
-17.50998789207806
 30
0.0
 10
62.92433681679778
 20
-17.46943088357403
 30
0.0
 10
62.87053162898736
 20
-17.41802411260015
 30
0.0
 10
62.85719330260596
 20
-17.33713076095152
 30
0.0
 10
62.82823888787016
 20
-17.16152999327333
 30
0.0
 10
62.98757326959123
 20
-17.02651949447042
 30
0.0
 10
63.15453207530248
 20
-17.08904922172153
 30
0.0
 10
63.2954431933393
 20
-17.14182356740623
 30
0.0
 10
63.4155975459243
 20
-17.23401512308098
 30
0.0
 10
63.54393211477124
 20
-17.31016187568598
 30
0.0
 10
63.95986429642501
 20
-17.55695199498569
 30
0.0
 10
64.37360404616139
 20
-17.80743814436333
 30
0.0
 10
64.78799019400874
 20
-18.05682968345569
 30
0.0
 10
64.81359333961833
 20
-18.07223841059916
 30
0.0
 10
64.83626590245139
 20
-18.09276877614514
 30
0.0
 10
64.86249938944057
 20
-18.1068099285775
 30
0.0
 10
64.89276862105763
 20
-18.12301117008319
 30
0.0
 10
64.90411843600458
 20
-18.17588621440902
 30
0.0
 10
64.93890694923208
 20
-18.16612234571388
 30
0.0
 10
64.96413574362903
 20
-18.15904201552083
 30
0.0
 10
64.97987179870179
 20
-18.11845289355445
 30
0.0
 10
65.00003492387278
 20
-18.09295916309737
 30
0.0
 10
65.12027368898639
 20
-17.94093541096764
 30
0.0
 10
65.25636090628889
 20
-17.80483007249735
 30
0.0
 10
65.41140791147054
 20
-17.6883884948661
 30
0.0
 10
65.44326171304833
 20
-17.664466488985
 30
0.0
 10
65.45289666913221
 20
-17.65360273422124
 30
0.0
 10
65.41644054970707
 20
-17.61935992046334
 30
0.0
 10
65.32206183789776
 20
-17.53070910333986
 30
0.0
 10
65.27924954684415
 20
-17.40716448671042
 30
0.0
 10
65.21767611261096
 20
-17.29679694100736
 30
0.0
 10
64.96407426928776
 20
-16.84222905339612
 30
0.0
 10
64.71316124024943
 20
-16.3861614671161
 30
0.0
 10
64.46062877520571
 20
-15.93099477813221
 30
0.0
 10
64.43970685480723
 20
-15.89328474271277
 30
0.0
 10
64.4235478195657
 20
-15.85468573785417
 30
0.0
 10
64.4180064123407
 20
-15.8119818297343
 30
0.0
 10
64.40525369787458
 20
-15.71370649340181
 30
0.0
 10
64.4515576397593
 20
-15.6238061185393
 30
0.0
 10
64.53678860257709
 20
-15.58060577070624
 30
0.0
 10
64.62386425439682
 20
-15.53647017564208
 30
0.0
 10
64.72869360422111
 20
-15.5545380121186
 30
0.0
 10
64.79944139574247
 20
-15.62580225692098
 30
0.0
 10
64.82608593504346
 20
-15.65264211488445
 30
0.0
 10
64.846149049719
 20
-15.68389946625348
 30
0.0
 10
64.86442069198695
 20
-15.71692231253402
 30
0.0
 10
65.15626003434082
 20
-16.2443699814607
 30
0.0
 10
65.44849574856693
 20
-16.77159801724681
 30
0.0
 10
65.74061631309374
 20
-17.29889005057485
 30
0.0
 10
65.76614376268612
 20
-17.34496873946278
 30
0.0
 10
65.78054802661917
 20
-17.39515932775985
 30
0.0
 10
65.79461601673042
 20
-17.45016899977152
 30
0.0
 10
65.98132597777359
 20
-17.36814273106498
 30
0.0
 10
66.1711991148093
 20
-17.30056362070111
 30
0.0
 10
66.37143526598584
 20
-17.26544525634431
 30
0.0
 10
66.4179254659496
 20
-17.25729164837902
 30
0.0
 10
66.48192897171762
 20
-17.27076576882778
 30
0.0
 10
66.50562457769291
 20
-17.23613071207195
 30
0.0
 10
66.52254653703529
 20
-17.21139554745971
 30
0.0
 10
66.49043399270805
 20
-17.15395763896777
 30
0.0
 10
66.48218129177485
 20
-17.11073452498415
 30
0.0
 10
66.47894425482
 20
-17.09377999341612
 30
0.0
 10
66.48036917499888
 20
-17.07577259906293
 30
0.0
 10
66.48090913992181
 20
-17.05828291959111
 30
0.0
 10
66.49835913632998
 20
-16.49248718957208
 30
0.0
 10
66.50725961166486
 20
-15.92653559457193
 30
0.0
 10
66.51185137794638
 20
-15.36050738602709
 30
0.0
 10
66.51229867259361
 20
-15.305412441305
 30
0.0
 10
66.51508795613764
 20
-15.25050702335319
 30
0.0
 10
66.52842697066484
 20
-15.19700307128389
 30
0.0
 10
66.55368650223237
 20
-15.09568317805876
 30
0.0
 10
66.6464884430643
 20
-15.02414006224694
 30
0.0
 10
66.74852988563583
 20
-15.02538328331194
 30
0.0
 10
66.85298442548388
 20
-15.02665592260167
 30
0.0
 10
66.93973114370137
 20
-15.09724466646874
 30
0.0
 10
66.96392267328042
 20
-15.20139344028333
 30
0.0
 10
66.98810227500222
 20
-15.30549238088666
 30
0.0
 10
66.97479445640945
 20
-15.41092311262971
 30
0.0
 10
66.97304473150224
 20
-15.51575292121778
 30
0.0
 10
66.96481175741013
 20
-16.00906042477375
 30
0.0
 10
66.95492172868639
 20
-16.50234063188749
 30
0.0
 10
66.94691813646471
 20
-16.99565157617139
 30
0.0
 10
66.94585839222331
 20
-17.06092448121027
 30
0.0
 10
66.9477035399889
 20
-17.1268123590439
 30
0.0
 10
66.92528650855888
 20
-17.18826651470443
 30
0.0
 10
66.90820581696224
 20
-17.23509138281709
 30
0.0
 10
66.93116877724347
 20
-17.23888811153597
 30
0.0
 10
66.96579901698012
 20
-17.24127230669667
 30
0.0
 10
67.19255492371999
 20
-17.25688472494097
 30
0.0
 10
67.40986947267487
 20
-17.31286858175667
 30
0.0
 10
67.61969424479734
 20
-17.39836081052471
 30
0.0
 10
67.65698439670334
 20
-17.41355437747388
 30
0.0
 10
67.67408068626764
 20
-17.41087083897236
 30
0.0
 10
67.6796785214325
 20
-17.36788857595249
 30
0.0
 10
67.68590945055985
 20
-17.32004938120917
 30
0.0
 10
67.71020741332667
 20
-17.2789361216693
 30
0.0
 10
67.73489440774584
 20
-17.23800659700765
 30
0.0
 10
68.03097869099318
 20
-16.74712113662111
 30
0.0
 10
68.32629225115596
 20
-16.25576980165568
 30
0.0
 10
68.62248388511847
 20
-15.76494971510166
 30
0.0
 10
68.69535942286987
 20
-15.64418950765154
 30
0.0
 10
68.79459827774886
 20
-15.59757498271389
 30
0.0
 10
68.90217103474292
 20
-15.62991467243874
 30
0.0
 10
69.0574065918221
 20
-15.67658315946098
 30
0.0
 10
69.10957536936904
 20
-15.83731224029957
 30
0.0
 10
69.01546641063944
 20
-15.99598726383445
 30
0.0
 10
68.8311415622847
 20
-16.30676941980917
 30
0.0
 10
68.64353104801844
 20
-16.61560389432222
 30
0.0
 10
68.45714359788499
 20
-16.92516206863638
 30
0.0
 10
68.34526304936485
 20
-17.11097560532999
 30
0.0
 10
68.23325312946986
 20
-17.29671206971541
 30
0.0
 10
68.12092666259387
 20
-17.48225677085694
 30
0.0
 10
68.1080904531268
 20
-17.50346151910139
 30
0.0
 10
68.09686450438985
 20
-17.5286203520282
 30
0.0
 10
68.0779854589289
 20
-17.54266196322401
 30
0.0
 10
68.00422634221319
 20
-17.59752322516568
 30
0.0
 10
68.03722154797778
 20
-17.62537064299527
 30
0.0
 10
68.09566529597137
 20
-17.66637678120138
 30
0.0
 10
68.28775517940264
 20
-17.80115537493346
 30
0.0
 10
68.44764627092335
 20
-17.9701802231514
 30
0.0
 10
68.5913411673393
 20
-18.16113053745041
 30
0.0
 10
68.63848923450707
 20
-18.09281534066473
 30
0.0
 10
68.70479802807277
 20
-18.05522699232708
 30
0.0
 10
68.7724601746736
 20
-18.01790495634125
 30
0.0
 10
69.24575755076597
 20
-17.75683673313668
 30
0.0
 10
69.71838421426959
 20
-17.49455347416473
 30
0.0
 10
70.19128521849001
 20
-17.2327675150882
 30
0.0
 10
70.2396077208343
 20
-17.20601746012653
 30
0.0
 10
70.28913034912458
 20
-17.1828959969732
 30
0.0
 10
70.34611798100485
 20
-17.181642883815
 30
0.0
 10
70.44164451969333
 20
-17.17954220464624
 30
0.0
 10
70.52413849803388
 20
-17.23170295382735
 30
0.0
 10
70.56007254432168
 20
-17.31780258578846
 30
0.0
 10
70.59689200462985
 20
-17.4060278995425
 30
0.0
 10
70.5750190669968
 20
-17.50743303680527
 30
0.0
 10
70.50231235430222
 20
-17.57128721497611
 30
0.0
 10
70.47632981107916
 20
-17.59410612344277
 30
0.0
 10
70.44681295199708
 20
-17.61384099266166
 30
0.0
 10
70.41650793680846
 20
-17.63065537190707
 30
0.0
 10
69.92855764683513
 20
-17.901384241965
 30
0.0
 10
69.44016694367097
 20
-18.17132036827903
 30
0.0
 10
68.95205058122347
 20
-18.44174966561445
 30
0.0
 10
68.90363907871346
 20
-18.46857082895513
 30
0.0
 10
68.85165105408042
 20
-18.48475830754902
 30
0.0
 10
68.79321648136182
 20
-18.49847557278013
 30
0.0
 10
68.91022325592125
 20
-18.75180399291402
 30
0.0
 10
68.98605231463541
 20
-19.01467699267472
 30
0.0
 10
69.00788855116928
 20
-19.29583080997806
 30
0.0
 10
69.08888145454986
 20
-19.26606988858612
 30
0.0
 10
69.16788882846029
 20
-19.26653002861806
 30
0.0
 10
69.24803210139291
 20
-19.26798614473124
 30
0.0
 10
69.78644273274236
 20
-19.27776928150347
 30
0.0
 10
70.32505430261043
 20
-19.27112775882834
 30
0.0
 10
70.86340804725608
 20
-19.28821579064485
 30
0.0
 10
71.04217176154512
 20
-19.29388978059096
 30
0.0
 10
71.15495515710723
 20
-19.44083731192917
 30
0.0
 10
71.09480756058042
 20
-19.59543656369985
 30
0.0
 10
71.05929924704359
 20
-19.68670164600015
 30
0.0
 10
70.98045335797014
 20
-19.73894290821848
 30
0.0
 10
70.87007847204723
 20
-19.73930533157376
 30
0.0
 10
70.48183314091359
 20
-19.74058069477304
 30
0.0
 10
70.09362084076943
 20
-19.7406889630157
 30
0.0
 10
69.7054645098015
 20
-19.72768117590959
 30
0.0
 10
69.54029488267956
 20
-19.72214573261347
 30
0.0
 10
69.37482797665335
 20
-19.72447487612529
 30
0.0
 10
69.20950420491443
 20
-19.72511393401626
 30
0.0
 10
69.15400663766402
 20
-19.72532863544681
 30
0.0
 10
69.09853384365582
 20
-19.72488684596472
 30
0.0
 10
69.04709633551182
 20
-19.70380665207555
 30
0.0
 10
69.01244315758777
 20
-19.68960516171556
 30
0.0
 10
69.00405970898873
 20
-19.70033564561292
 30
0.0
 10
69.00051438279984
 20
-19.73257297367763
 30
0.0
 10
68.97319408450875
 20
-19.98104400332375
 30
0.0
 10
68.90308764469692
 20
-20.21740137639472
 30
0.0
 10
68.79751968525013
 20
-20.44362695225027
 30
0.0
 10
68.7894096598404
 20
-20.4610049227514
 30
0.0
 10
68.77659455350557
 20
-20.47871549696432
 30
0.0
 10
68.81019532740821
 20
-20.488324303515
 30
0.0
 10
68.99076473578083
 20
-20.53995862130402
 30
0.0
 10
69.13612677963083
 20
-20.65845316667499
 30
0.0
 10
69.29516824070347
 20
-20.75008984760555
 30
0.0
 10
69.6428184859425
 20
-20.95039985974432
 30
0.0
 10
69.98608478487459
 20
-21.15832580874374
 30
0.0
 10
70.33083564327181
 20
-21.36365561373403
 30
0.0
 10
70.36508786168638
 20
-21.38405546099527
 30
0.0
 10
70.399300626419
 20
-21.40548660914651
 30
0.0
 10
70.42996164227055
 20
-21.43076816137348
 30
0.0
 10
70.51979492293608
 20
-21.50483923743307
 30
0.0
 10
70.54082098270374
 20
-21.62571797796487
 30
0.0
 10
70.48310483400306
 20
-21.72163813594291
 30
0.0
 10
70.42494827211138
 20
-21.8182881870325
 30
0.0
 10
70.31036009999318
 20
-21.85901677317598
 30
0.0
 10
70.20216801194874
 20
-21.81108330248362
 30
0.0
 10
70.06062104736738
 20
-21.74837305170096
 30
0.0
 10
69.93342696517984
 20
-21.65886457576403
 30
0.0
 10
69.80036896485749
 20
-21.58042331630971
 30
0.0
 10
69.43754740271096
 20
-21.36652976857027
 30
0.0
 10
69.07608928640193
 20
-21.15032175775807
 30
0.0
 10
68.7132970851346
 20
-20.93637820477097
 30
0.0
 10
68.66071358516582
 20
-20.90536898724
 30
0.0
 10
68.61666492583056
 20
-20.86669795647486
 30
0.0
 10
68.57633408785068
 20
-20.81506960261388
 30
0.0
 10
68.40616026584403
 20
-21.03236304843666
 30
0.0
 10
68.21248122481474
 20
-21.22165768439554
 30
0.0
 10
67.98004765801888
 20
-21.36846529279251
 30
0.0
 10
68.11833097734847
 20
-21.52330126665346
 30
0.0
 10
68.19527116184291
 20
-21.70951255151027
 30
0.0
 10
68.29451460435929
 20
-21.88146316548513
 30
0.0
 10
68.50243734201265
 20
-22.24171427439208
 30
0.0
 10
68.70296389063722
 20
-22.60623647372596
 30
0.0
 10
68.90638065082834
 20
-22.96908739675208
 30
0.0
 10
68.99771959409109
 20
-23.13201733929165
 30
0.0
 10
68.94401120542998
 20
-23.29543448892415
 30
0.0
 10
68.78522665205209
 20
-23.33870967259236
 30
0.0
 10
68.68008717793903
 20
-23.36736405584166
 30
0.0
 10
68.57696993439541
 20
-23.31784693271652
 30
0.0
 10
68.51201632891999
 20
-23.20276971845083
 30
0.0
 10
68.36880038184972
 20
-22.94904033880736
 30
0.0
 10
68.22763786128277
 20
-22.69415487453721
 30
0.0
 10
68.08503941020721
 20
-22.44007591692374
 30
0.0
 10
67.98669789720512
 20
-22.26485523500486
 30
0.0
 10
67.88735352666582
 20
-22.09019699743195
 30
0.0
 10
67.78120110221319
 20
-21.90245252415321
 30
0.0
 10
67.72610357694485
 20
-22.1656512461704
 30
0.0
 10
67.63978350900652
 20
-22.40033871922459
 30
0.0
 10
67.50351049238888
 20
-22.6152401709025
 30
0.0
 10
67.34829970855152
 20
-22.86000805963332
 30
0.0
 10
67.15089550594706
 20
-23.0634450054293
 30
0.0
 10
66.90741766085541
 20
-23.22064498884639
 30
0.0
 10
66.86884480553054
 20
-23.24554943727862
 30
0.0
 10
66.85519016154957
 20
-23.27132737187334
 30
0.0
 10
66.85488278984317
 20
-23.31660551803376
 30
0.0
 10
66.8540377470329
 20
-23.44139200810959
 30
0.0
 10
66.86743915342832
 20
-23.56696757181943
 30
0.0
 10
66.84174379630707
 20
-23.69085580249096
 30
0.0
 10
66.81829821657068
 20
-23.80389243563791
 30
0.0
 10
66.73056607383819
 20
-23.87637160151679
 30
0.0
 10
66.61938146991264
 20
-23.87547150705751
 30
0.0
 10
66.51127150057833
 20
-23.87459710336735
 30
0.0
 10
66.42916196625265
 20
-23.80262349513083
 30
0.0
 10
66.40165128100888
 20
-23.69371940576098
 30
0.0
 10
66.3830318958254
 20
-23.62001075305696
 30
0.0
 10
66.39877253853557
 20
-23.54479827281001
 30
0.0
 10
66.38485731674999
 20
-23.46489263949527
 30
0.0
 10
66.06337495528542
 20
-23.56899622508127
 30
0.0
 10
65.73413765154637
 20
-23.54853077460472
 30
0.0
 10
65.40677210386999
 20
-23.54913267263277
 30
0.0
 10
64.88318504651275
 20
-23.55009515896083
 30
0.0
 10
64.35959477780918
 20
-23.54921708516139
 30
0.0
 10
63.83600634416069
 20
-23.54985476676069
 30
0.0
 10
63.80716891417875
 20
-23.54989055033264
 30
0.0
 10
63.77633081552319
 20
-23.54089327584819
 30
0.0
 10
63.74380263124668
 20
-23.5626781308432
 30
0.0
 10
63.80279139056387
 20
-23.66176008852277
 30
0.0
 10
63.86226827450193
 20
-23.75952998190403
 30
0.0
 10
63.91968072160597
 20
-23.85849724864847
 30
0.0
 10
64.0913574536275
 20
-24.15443197491625
 30
0.0
 10
64.23307416079332
 20
-24.46273313658084
 30
0.0
 10
64.2930364167686
 20
-24.80250824344542
 30
0.0
 10
64.34263795242223
 20
-25.08357994203945
 30
0.0
 10
64.32896587541944
 20
-25.36083105619986
 30
0.0
 10
64.23015183576445
 20
-25.63130072474445
 30
0.0
 10
64.12058942042638
 20
-25.93118907693015
 30
0.0
 10
63.83079341177401
 20
-26.12246786606819
 30
0.0
 10
63.51126492508138
 20
-26.10558444287959
 30
0.0
 10
63.24592102381291
 20
-26.0915637054336
 30
0.0
 10
63.03183892417584
 20
-25.98680684028042
 30
0.0
 10
62.89702867574556
 20
-25.75030312157653
 30
0.0
 10
62.80325117381888
 20
-25.58578493896612
 30
0.0
 10
62.82001967669028
 20
-25.40695516269832
 30
0.0
 10
62.84947758463153
 20
-25.23032928744139
 30
0.0
 10
62.88236979793626
 20
-25.03311134291582
 30
0.0
 10
62.95954280502929
 20
-24.8500380020457
 30
0.0
 10
63.06006803343749
 20
-24.67939348844069
 30
0.0
 10
63.26130107822276
 20
-24.33779617199805
 30
0.0
 10
63.40876426000555
 20
-23.97055487997237
 30
0.0
 10
63.58213979415889
 20
-23.61571580691513
 30
0.0
 10
63.61331462540013
 20
-23.55191094584693
 30
0.0
 10
63.59177796158916
 20
-23.5485050838354
 30
0.0
 10
63.53575740367457
 20
-23.54859224894638
 30
0.0
 10
62.74661839569206
 20
-23.54981256049695
 30
0.0
 10
61.95744589795652
 20
-23.55386344432776
 30
0.0
 10
61.16834404983723
 20
-23.54832066081179
 30
0.0
 10
60.30637216913167
 20
-23.54226589696069
 30
0.0
 10
59.66354788525237
 20
-23.15954041115638
 30
0.0
 10
59.2964720492375
 20
-22.37657796879805
 30
0.0
 10
58.74999848744346
 20
-21.21096436036125
 30
0.0
 10
59.46644761362611
 20
-19.83646139906944
 30
0.0
 10
60.72977784150442
 20
-19.59288400224611
 30
0.0
 10
60.76415874314819
 20
-19.58625486619194
 30
0.0
 10
60.79937677392803
 20
-19.57537941295277
 30
0.0
 10
60.83348769311043
 20
-19.57758285519958
 30
0.0
 10
60.92749400345292
 20
-19.58365367578138
 30
0.0
 10
60.95814492650207
 20
-19.54042712106972
 30
0.0
 10
60.98536819626208
 20
-19.45062320128361
 30
0.0
 10
61.25217073684456
 20
-18.57049689244612
 30
0.0
 10
61.84024139622472
 20
-18.04272178089917
 30
0.0
 10
62.74724781954445
 20
-17.88223200269666
 30
0.0
 10
63.0519561729729
 20
-17.82831579406098
 30
0.0
 10
63.35628077053207
 20
-17.85715138898818
 30
0.0
 10
63.65426250061151
 20
-17.94280556135694
 30
0.0
 10
63.67536563268761
 20
-17.94887179430111
 30
0.0
 10
63.6963664604493
 20
-17.95529517481792
 30
0.0
 10
63.71741499964041
 20
-17.96155225347833
 30
0.0
 10
63.71901241498598
 20
-17.95822690450361
 30
0.0
 10
63.72061028909499
 20
-17.95490155552819
 30
0.0
 10
63.72220770444028
 20
-17.9515762065532
 30
0.0
  0
HATCH
  5
82
330
79
100
AcDbEntity
  8
Слой 1
 62
    18
420
        0
440
 33554687
100
AcDbHatch
 10
0.0
 20
0.0
 30
0.0
210
0.0
220
0.0
230
1.0
  2
SOLID
 70
     1
 71
     1
 91
        5
 92
        1
 93
        1
 72
     4
 94
        3
 73
     0
 74
     0
 95
       20
 96
       16
 40
0.0
 40
0.0
 40
0.0
 40
0.0
 40
1.0
 40
1.0
 40
1.0
 40
2.0
 40
2.0
 40
2.0
 40
3.0
 40
3.0
 40
3.0
 40
4.0
 40
4.0
 40
4.0
 40
5.0
 40
5.0
 40
5.0
 40
5.0
 10
64.54491239089917
 20
-18.45498912840958
 10
64.59391248728848
 20
-18.50783985825723
 10
64.62844042271111
 20
-18.54583834137889
 10
64.66397213319861
 20
-18.58287387940875
 10
64.67287352606111
 20
-18.59215168792027
 10
64.68289521997862
 20
-18.61442122680751
 10
64.69791009845053
 20
-18.59742632403029
 10
64.71194872768222
 20
-18.5815365831043
 10
64.71864759582527
 20
-18.55856398878417
 10
64.72638327002236
 20
-18.53788842451472
 10
64.73292157085611
 20
-18.52041090228236
 10
64.71718597454709
 20
-18.51700848099875
 10
64.70604673215722
 20
-18.51535027945763
 10
64.65512762703984
 20
-18.50777150245987
 10
64.61065461124488
 20
-18.48125312318737
 10
64.54491239089917
 20
-18.45498912840958
 97
        0
 97
        1
330
7D
 92
        1
 93
        1
 72
     4
 94
        3
 73
     0
 74
     0
 95
       23
 96
       19
 40
0.0
 40
0.0
 40
0.0
 40
0.0
 40
1.0
 40
1.0
 40
1.0
 40
2.0
 40
2.0
 40
2.0
 40
3.0
 40
3.0
 40
3.0
 40
4.0
 40
4.0
 40
4.0
 40
5.0
 40
5.0
 40
5.0
 40
6.0
 40
6.0
 40
6.0
 40
6.0
 10
63.70686710371223
 20
-24.43614135510971
 10
63.58183104616139
 20
-24.68631623328932
 10
63.43074041948026
 20
-24.90728070656582
 10
63.33772928238222
 20
-25.15884472135236
 10
63.31244543633667
 20
-25.22722712702626
 10
63.29459264536404
 20
-25.29740513398138
 10
63.28588072192653
 20
-25.36910715408362
 10
63.27780556256109
 20
-25.4355737623761
 10
63.26807793620138
 20
-25.50671517318708
 10
63.31611784008151
 20
-25.56315228857847
 10
63.39072658724514
 20
-25.65080277136485
 10
63.49235376615872
 20
-25.66112587306015
 10
63.59759508582222
 20
-25.64502601834124
 10
63.6922302465625
 20
-25.63054926973695
 10
63.76635820932581
 20
-25.58333789317279
 10
63.80029112817666
 20
-25.48874447993292
 10
63.92932072409095
 20
-25.12905810919056
 10
63.85673879513418
 20
-24.78707267862306
 10
63.70686710371223
 20
-24.43614135510971
 97
        0
 97
        1
330
7E
 92
        1
 93
        1
 72
     4
 94
        3
 73
     0
 74
     0
 95
       35
 96
       31
 40
0.0
 40
0.0
 40
0.0
 40
0.0
 40
1.0
 40
1.0
 40
1.0
 40
2.0
 40
2.0
 40
2.0
 40
3.0
 40
3.0
 40
3.0
 40
4.0
 40
4.0
 40
4.0
 40
5.0
 40
5.0
 40
5.0
 40
6.0
 40
6.0
 40
6.0
 40
7.0
 40
7.0
 40
7.0
 40
8.0
 40
8.0
 40
8.0
 40
9.0
 40
9.0
 40
9.0
 40
10.0
 40
10.0
 40
10.0
 40
10.0
 10
67.73328598207055
 20
-20.98416074219222
 10
67.74700944061234
 20
-20.97712009506265
 10
67.75648841702443
 20
-20.97364450096221
 10
67.76441493693778
 20
-20.96799069662069
 10
68.35402635434123
 20
-20.54749702709263
 10
68.62974519760776
 20
-19.97250778639917
 10
68.5451665968293
 20
-19.25592341093124
 10
68.42422179431888
 20
-18.23123422467958
 10
67.48516269533999
 20
-17.54585541762402
 10
66.46725541346846
 20
-17.71134480307319
 10
65.77440976776748
 20
-17.82398644063945
 10
65.19579858734054
 20
-18.35963141477764
 10
65.03016744389499
 20
-19.04106003664361
 10
65.01918096983096
 20
-19.08625881667666
 10
65.0193644753272
 20
-19.12801732741804
 10
65.03854263474678
 20
-19.17229445109597
 10
65.0832849448582
 20
-19.27559428260833
 10
65.12095587066889
 20
-19.38195360950819
 10
65.14429042958027
 20
-19.49219591270985
 10
65.15452865998319
 20
-19.54056520895584
 10
65.17546159071139
 20
-19.55609252652653
 10
65.22492549724292
 20
-19.55552641207027
 10
65.43531179618402
 20
-19.55311652614
 10
65.64596234304012
 20
-19.5489064512907
 10
65.85612522403986
 20
-19.55636961982582
 10
66.56244751339014
 20
-19.5814529861168
 10
67.10938381009832
 20
-19.89489826560695
 10
67.50160662286457
 20
-20.48066157275278
 10
67.60496609366332
 20
-20.63502318490582
 10
67.67435869709429
 20
-20.80605581263515
 10
67.73328598207055
 20
-20.98416074219222
 97
        0
 97
        1
330
7F
 92
        1
 93
        1
 72
     4
 94
        3
 73
     0
 74
     0
 95
       65
 96
       61
 40
0.0
 40
0.0
 40
0.0
 40
0.0
 40
1.0
 40
1.0
 40
1.0
 40
2.0
 40
2.0
 40
2.0
 40
3.0
 40
3.0
 40
3.0
 40
4.0
 40
4.0
 40
4.0
 40
5.0
 40
5.0
 40
5.0
 40
6.0
 40
6.0
 40
6.0
 40
7.0
 40
7.0
 40
7.0
 40
8.0
 40
8.0
 40
8.0
 40
9.0
 40
9.0
 40
9.0
 40
10.0
 40
10.0
 40
10.0
 40
11.0
 40
11.0
 40
11.0
 40
12.0
 40
12.0
 40
12.0
 40
13.0
 40
13.0
 40
13.0
 40
14.0
 40
14.0
 40
14.0
 40
15.0
 40
15.0
 40
15.0
 40
16.0
 40
16.0
 40
16.0
 40
17.0
 40
17.0
 40
17.0
 40
18.0
 40
18.0
 40
18.0
 40
19.0
 40
19.0
 40
19.0
 40
20.0
 40
20.0
 40
20.0
 40
20.0
 10
63.46141703329901
 20
-23.09706321235376
 10
63.46141703329901
 20
-23.09818534846403
 10
63.46141749206264
 20
-23.09930840210098
 10
63.46141795082639
 20
-23.10043053821098
 10
64.21288259227029
 20
-23.10043053821098
 10
64.96434723371347
 20
-23.10086544623737
 10
65.7158109576297
 20
-23.09996076414068
 10
65.8283273526943
 20
-23.09982497007334
 10
65.94078502600041
 20
-23.09804680181403
 10
66.05280549746137
 20
-23.08021006757235
 10
66.80056424540694
 20
-22.96114619639932
 10
67.33650856288611
 20
-22.34366579927028
 10
67.35961190487195
 20
-21.57243532205515
 10
67.38129766689876
 20
-20.84851531437223
 10
66.85357990081957
 20
-20.1909036414907
 10
66.12740139924054
 20
-20.04039243341418
 10
65.82994403611708
 20
-19.97874009181765
 10
65.5280201492132
 20
-20.0192425074364
 10
65.22829511691917
 20
-20.00848633276999
 10
65.2054018887264
 20
-20.00766468691027
 10
65.19556782917902
 20
-20.01870070745862
 10
65.18405652939513
 20
-20.03904412678
 10
65.12030213233821
 20
-20.15171558398929
 10
65.03067804793861
 20
-20.19659919333236
 10
64.92658547268193
 20
-20.17257327746418
 10
64.82028853765112
 20
-20.14803905137041
 10
64.75658368707819
 20
-20.06042435215583
 10
64.75136983716431
 20
-19.93159523599582
 10
64.7121047073543
 20
-18.96140764091332
 10
63.8525553285818
 20
-18.21627646229333
 10
62.88610482293194
 20
-18.31462233355112
 10
61.71408389070943
 20
-18.43388691386111
 10
61.01465383841875
 20
-19.69008227600597
 10
61.53007994759152
 20
-20.7488782525661
 10
61.59075122292835
 20
-20.87351013926097
 10
61.66917527874223
 20
-20.98567649759166
 10
61.75186079094429
 20
-21.09615919299375
 10
61.81128721087068
 20
-21.1755643150675
 10
61.81448754672651
 20
-21.26448878476251
 10
61.76129847861986
 20
-21.34941604598362
 10
61.71159762061638
 20
-21.42877391539208
 10
61.63600092573708
 20
-21.46248020495528
 10
61.54306984291166
 20
-21.45182725213054
 10
61.46824501802595
 20
-21.44324974646889
 10
61.41677906653
 20
-21.39705407282695
 10
61.37239917977389
 20
-21.3398063219057
 10
61.08766929911098
 20
-20.97252052979737
 10
60.93221949936471
 20
-20.5575448705432
 10
60.91414489612361
 20
-20.09273095354542
 10
60.91202437542263
 20
-20.03820091902472
 10
60.90069245226138
 20
-20.01782584500501
 10
60.84071196042749
 20
-20.02857789079763
 10
60.05742482803167
 20
-20.16898712130208
 10
59.5119786532986
 20
-20.87370144374139
 10
59.56705903227208
 20
-21.67683756283708
 10
59.62029902315387
 20
-22.4531396732064
 10
60.27328658691014
 20
-23.08228367968084
 10
61.06435469642249
 20
-23.09437210425055
 10
61.86320252145095
 20
-23.10658072492028
 10
62.66238249142791
 20
-23.09706321235376
 10
63.46141703329901
 20
-23.09706321235376
 97
        0
 97
        1
330
80
 92
        1
 93
        1
 72
     4
 94
        3
 73
     0
 74
     0
 95
      317
 96
      313
 40
0.0
 40
0.0
 40
0.0
 40
0.0
 40
1.0
 40
1.0
 40
1.0
 40
2.0
 40
2.0
 40
2.0
 40
3.0
 40
3.0
 40
3.0
 40
4.0
 40
4.0
 40
4.0
 40
5.0
 40
5.0
 40
5.0
 40
6.0
 40
6.0
 40
6.0
 40
7.0
 40
7.0
 40
7.0
 40
8.0
 40
8.0
 40
8.0
 40
9.0
 40
9.0
 40
9.0
 40
10.0
 40
10.0
 40
10.0
 40
11.0
 40
11.0
 40
11.0
 40
12.0
 40
12.0
 40
12.0
 40
13.0
 40
13.0
 40
13.0
 40
14.0
 40
14.0
 40
14.0
 40
15.0
 40
15.0
 40
15.0
 40
16.0
 40
16.0
 40
16.0
 40
17.0
 40
17.0
 40
17.0
 40
18.0
 40
18.0
 40
18.0
 40
19.0
 40
19.0
 40
19.0
 40
20.0
 40
20.0
 40
20.0
 40
21.0
 40
21.0
 40
21.0
 40
22.0
 40
22.0
 40
22.0
 40
23.0
 40
23.0
 40
23.0
 40
24.0
 40
24.0
 40
24.0
 40
25.0
 40
25.0
 40
25.0
 40
26.0
 40
26.0
 40
26.0
 40
27.0
 40
27.0
 40
27.0
 40
28.0
 40
28.0
 40
28.0
 40
29.0
 40
29.0
 40
29.0
 40
30.0
 40
30.0
 40
30.0
 40
31.0
 40
31.0
 40
31.0
 40
32.0
 40
32.0
 40
32.0
 40
33.0
 40
33.0
 40
33.0
 40
34.0
 40
34.0
 40
34.0
 40
35.0
 40
35.0
 40
35.0
 40
36.0
 40
36.0
 40
36.0
 40
37.0
 40
37.0
 40
37.0
 40
38.0
 40
38.0
 40
38.0
 40
39.0
 40
39.0
 40
39.0
 40
40.0
 40
40.0
 40
40.0
 40
41.0
 40
41.0
 40
41.0
 40
42.0
 40
42.0
 40
42.0
 40
43.0
 40
43.0
 40
43.0
 40
44.0
 40
44.0
 40
44.0
 40
45.0
 40
45.0
 40
45.0
 40
46.0
 40
46.0
 40
46.0
 40
47.0
 40
47.0
 40
47.0
 40
48.0
 40
48.0
 40
48.0
 40
49.0
 40
49.0
 40
49.0
 40
50.0
 40
50.0
 40
50.0
 40
51.0
 40
51.0
 40
51.0
 40
52.0
 40
52.0
 40
52.0
 40
53.0
 40
53.0
 40
53.0
 40
54.0
 40
54.0
 40
54.0
 40
55.0
 40
55.0
 40
55.0
 40
56.0
 40
56.0
 40
56.0
 40
57.0
 40
57.0
 40
57.0
 40
58.0
 40
58.0
 40
58.0
 40
59.0
 40
59.0
 40
59.0
 40
60.0
 40
60.0
 40
60.0
 40
61.0
 40
61.0
 40
61.0
 40
62.0
 40
62.0
 40
62.0
 40
63.0
 40
63.0
 40
63.0
 40
64.0
 40
64.0
 40
64.0
 40
65.0
 40
65.0
 40
65.0
 40
66.0
 40
66.0
 40
66.0
 40
67.0
 40
67.0
 40
67.0
 40
68.0
 40
68.0
 40
68.0
 40
69.0
 40
69.0
 40
69.0
 40
70.0
 40
70.0
 40
70.0
 40
71.0
 40
71.0
 40
71.0
 40
72.0
 40
72.0
 40
72.0
 40
73.0
 40
73.0
 40
73.0
 40
74.0
 40
74.0
 40
74.0
 40
75.0
 40
75.0
 40
75.0
 40
76.0
 40
76.0
 40
76.0
 40
77.0
 40
77.0
 40
77.0
 40
78.0
 40
78.0
 40
78.0
 40
79.0
 40
79.0
 40
79.0
 40
80.0
 40
80.0
 40
80.0
 40
81.0
 40
81.0
 40
81.0
 40
82.0
 40
82.0
 40
82.0
 40
83.0
 40
83.0
 40
83.0
 40
84.0
 40
84.0
 40
84.0
 40
85.0
 40
85.0
 40
85.0
 40
86.0
 40
86.0
 40
86.0
 40
87.0
 40
87.0
 40
87.0
 40
88.0
 40
88.0
 40
88.0
 40
89.0
 40
89.0
 40
89.0
 40
90.0
 40
90.0
 40
90.0
 40
91.0
 40
91.0
 40
91.0
 40
92.0
 40
92.0
 40
92.0
 40
93.0
 40
93.0
 40
93.0
 40
94.0
 40
94.0
 40
94.0
 40
95.0
 40
95.0
 40
95.0
 40
96.0
 40
96.0
 40
96.0
 40
97.0
 40
97.0
 40
97.0
 40
98.0
 40
98.0
 40
98.0
 40
99.0
 40
99.0
 40
99.0
 40
100.0
 40
100.0
 40
100.0
 40
101.0
 40
101.0
 40
101.0
 40
102.0
 40
102.0
 40
102.0
 40
103.0
 40
103.0
 40
103.0
 40
104.0
 40
104.0
 40
104.0
 40
104.0
 10
63.72220770444028
 20
-17.9515762065532
 10
63.56775571583042
 20
-17.8583035741232
 10
63.41335969639693
 20
-17.76493827141722
 10
63.25883063547861
 20
-17.67179363407098
 10
63.16921893769984
 20
-17.61777902061279
 10
63.07881495494095
 20
-17.56505376264805
 10
62.98985699549277
 20
-17.50998789207806
 10
62.92433681679778
 20
-17.46943088357403
 10
62.87053162898736
 20
-17.41802411260015
 10
62.85719330260596
 20
-17.33713076095152
 10
62.82823888787016
 20
-17.16152999327333
 10
62.98757326959123
 20
-17.02651949447042
 10
63.15453207530248
 20
-17.08904922172153
 10
63.2954431933393
 20
-17.14182356740623
 10
63.4155975459243
 20
-17.23401512308098
 10
63.54393211477124
 20
-17.31016187568598
 10
63.95986429642501
 20
-17.55695199498569
 10
64.37360404616139
 20
-17.80743814436333
 10
64.78799019400874
 20
-18.05682968345569
 10
64.81359333961833
 20
-18.07223841059916
 10
64.83626590245139
 20
-18.09276877614514
 10
64.86249938944057
 20
-18.1068099285775
 10
64.89276862105763
 20
-18.12301117008319
 10
64.90411843600458
 20
-18.17588621440902
 10
64.93890694923208
 20
-18.16612234571388
 10
64.96413574362903
 20
-18.15904201552083
 10
64.97987179870179
 20
-18.11845289355445
 10
65.00003492387278
 20
-18.09295916309737
 10
65.12027368898639
 20
-17.94093541096764
 10
65.25636090628889
 20
-17.80483007249735
 10
65.41140791147054
 20
-17.6883884948661
 10
65.44326171304833
 20
-17.664466488985
 10
65.45289666913221
 20
-17.65360273422124
 10
65.41644054970707
 20
-17.61935992046334
 10
65.32206183789776
 20
-17.53070910333986
 10
65.27924954684415
 20
-17.40716448671042
 10
65.21767611261096
 20
-17.29679694100736
 10
64.96407426928776
 20
-16.84222905339612
 10
64.71316124024943
 20
-16.3861614671161
 10
64.46062877520571
 20
-15.93099477813221
 10
64.43970685480723
 20
-15.89328474271277
 10
64.4235478195657
 20
-15.85468573785417
 10
64.4180064123407
 20
-15.8119818297343
 10
64.40525369787458
 20
-15.71370649340181
 10
64.4515576397593
 20
-15.6238061185393
 10
64.53678860257709
 20
-15.58060577070624
 10
64.62386425439682
 20
-15.53647017564208
 10
64.72869360422111
 20
-15.5545380121186
 10
64.79944139574247
 20
-15.62580225692098
 10
64.82608593504346
 20
-15.65264211488445
 10
64.846149049719
 20
-15.68389946625348
 10
64.86442069198695
 20
-15.71692231253402
 10
65.15626003434082
 20
-16.2443699814607
 10
65.44849574856693
 20
-16.77159801724681
 10
65.74061631309374
 20
-17.29889005057485
 10
65.76614376268612
 20
-17.34496873946278
 10
65.78054802661917
 20
-17.39515932775985
 10
65.79461601673042
 20
-17.45016899977152
 10
65.98132597777359
 20
-17.36814273106498
 10
66.1711991148093
 20
-17.30056362070111
 10
66.37143526598584
 20
-17.26544525634431
 10
66.4179254659496
 20
-17.25729164837902
 10
66.48192897171762
 20
-17.27076576882778
 10
66.50562457769291
 20
-17.23613071207195
 10
66.52254653703529
 20
-17.21139554745971
 10
66.49043399270805
 20
-17.15395763896777
 10
66.48218129177485
 20
-17.11073452498415
 10
66.47894425482
 20
-17.09377999341612
 10
66.48036917499888
 20
-17.07577259906293
 10
66.48090913992181
 20
-17.05828291959111
 10
66.49835913632998
 20
-16.49248718957208
 10
66.50725961166486
 20
-15.92653559457193
 10
66.51185137794638
 20
-15.36050738602709
 10
66.51229867259361
 20
-15.305412441305
 10
66.51508795613764
 20
-15.25050702335319
 10
66.52842697066484
 20
-15.19700307128389
 10
66.55368650223237
 20
-15.09568317805876
 10
66.6464884430643
 20
-15.02414006224694
 10
66.74852988563583
 20
-15.02538328331194
 10
66.85298442548388
 20
-15.02665592260167
 10
66.93973114370137
 20
-15.09724466646874
 10
66.96392267328042
 20
-15.20139344028333
 10
66.98810227500222
 20
-15.30549238088666
 10
66.97479445640945
 20
-15.41092311262971
 10
66.97304473150224
 20
-15.51575292121778
 10
66.96481175741013
 20
-16.00906042477375
 10
66.95492172868639
 20
-16.50234063188749
 10
66.94691813646471
 20
-16.99565157617139
 10
66.94585839222331
 20
-17.06092448121027
 10
66.9477035399889
 20
-17.1268123590439
 10
66.92528650855888
 20
-17.18826651470443
 10
66.90820581696224
 20
-17.23509138281709
 10
66.93116877724347
 20
-17.23888811153597
 10
66.96579901698012
 20
-17.24127230669667
 10
67.19255492371999
 20
-17.25688472494097
 10
67.40986947267487
 20
-17.31286858175667
 10
67.61969424479734
 20
-17.39836081052471
 10
67.65698439670334
 20
-17.41355437747388
 10
67.67408068626764
 20
-17.41087083897236
 10
67.6796785214325
 20
-17.36788857595249
 10
67.68590945055985
 20
-17.32004938120917
 10
67.71020741332667
 20
-17.2789361216693
 10
67.73489440774584
 20
-17.23800659700765
 10
68.03097869099318
 20
-16.74712113662111
 10
68.32629225115596
 20
-16.25576980165568
 10
68.62248388511847
 20
-15.76494971510166
 10
68.69535942286987
 20
-15.64418950765154
 10
68.79459827774886
 20
-15.59757498271389
 10
68.90217103474292
 20
-15.62991467243874
 10
69.0574065918221
 20
-15.67658315946098
 10
69.10957536936904
 20
-15.83731224029957
 10
69.01546641063944
 20
-15.99598726383445
 10
68.8311415622847
 20
-16.30676941980917
 10
68.64353104801844
 20
-16.61560389432222
 10
68.45714359788499
 20
-16.92516206863638
 10
68.34526304936485
 20
-17.11097560532999
 10
68.23325312946986
 20
-17.29671206971541
 10
68.12092666259387
 20
-17.48225677085694
 10
68.1080904531268
 20
-17.50346151910139
 10
68.09686450438985
 20
-17.5286203520282
 10
68.0779854589289
 20
-17.54266196322401
 10
68.00422634221319
 20
-17.59752322516568
 10
68.03722154797778
 20
-17.62537064299527
 10
68.09566529597137
 20
-17.66637678120138
 10
68.28775517940264
 20
-17.80115537493346
 10
68.44764627092335
 20
-17.9701802231514
 10
68.5913411673393
 20
-18.16113053745041
 10
68.63848923450707
 20
-18.09281534066473
 10
68.70479802807277
 20
-18.05522699232708
 10
68.7724601746736
 20
-18.01790495634125
 10
69.24575755076597
 20
-17.75683673313668
 10
69.71838421426959
 20
-17.49455347416473
 10
70.19128521849001
 20
-17.2327675150882
 10
70.2396077208343
 20
-17.20601746012653
 10
70.28913034912458
 20
-17.1828959969732
 10
70.34611798100485
 20
-17.181642883815
 10
70.44164451969333
 20
-17.17954220464624
 10
70.52413849803388
 20
-17.23170295382735
 10
70.56007254432168
 20
-17.31780258578846
 10
70.59689200462985
 20
-17.4060278995425
 10
70.5750190669968
 20
-17.50743303680527
 10
70.50231235430222
 20
-17.57128721497611
 10
70.47632981107916
 20
-17.59410612344277
 10
70.44681295199708
 20
-17.61384099266166
 10
70.41650793680846
 20
-17.63065537190707
 10
69.92855764683513
 20
-17.901384241965
 10
69.44016694367097
 20
-18.17132036827903
 10
68.95205058122347
 20
-18.44174966561445
 10
68.90363907871346
 20
-18.46857082895513
 10
68.85165105408042
 20
-18.48475830754902
 10
68.79321648136182
 20
-18.49847557278013
 10
68.91022325592125
 20
-18.75180399291402
 10
68.98605231463541
 20
-19.01467699267472
 10
69.00788855116928
 20
-19.29583080997806
 10
69.08888145454986
 20
-19.26606988858612
 10
69.16788882846029
 20
-19.26653002861806
 10
69.24803210139291
 20
-19.26798614473124
 10
69.78644273274236
 20
-19.27776928150347
 10
70.32505430261043
 20
-19.27112775882834
 10
70.86340804725608
 20
-19.28821579064485
 10
71.04217176154512
 20
-19.29388978059096
 10
71.15495515710723
 20
-19.44083731192917
 10
71.09480756058042
 20
-19.59543656369985
 10
71.05929924704359
 20
-19.68670164600015
 10
70.98045335797014
 20
-19.73894290821848
 10
70.87007847204723
 20
-19.73930533157376
 10
70.48183314091359
 20
-19.74058069477304
 10
70.09362084076943
 20
-19.7406889630157
 10
69.7054645098015
 20
-19.72768117590959
 10
69.54029488267956
 20
-19.72214573261347
 10
69.37482797665335
 20
-19.72447487612529
 10
69.20950420491443
 20
-19.72511393401626
 10
69.15400663766402
 20
-19.72532863544681
 10
69.09853384365582
 20
-19.72488684596472
 10
69.04709633551182
 20
-19.70380665207555
 10
69.01244315758777
 20
-19.68960516171556
 10
69.00405970898873
 20
-19.70033564561292
 10
69.00051438279984
 20
-19.73257297367763
 10
68.97319408450875
 20
-19.98104400332375
 10
68.90308764469692
 20
-20.21740137639472
 10
68.79751968525013
 20
-20.44362695225027
 10
68.7894096598404
 20
-20.4610049227514
 10
68.77659455350557
 20
-20.47871549696432
 10
68.81019532740821
 20
-20.488324303515
 10
68.99076473578083
 20
-20.53995862130402
 10
69.13612677963083
 20
-20.65845316667499
 10
69.29516824070347
 20
-20.75008984760555
 10
69.6428184859425
 20
-20.95039985974432
 10
69.98608478487459
 20
-21.15832580874374
 10
70.33083564327181
 20
-21.36365561373403
 10
70.36508786168638
 20
-21.38405546099527
 10
70.399300626419
 20
-21.40548660914651
 10
70.42996164227055
 20
-21.43076816137348
 10
70.51979492293608
 20
-21.50483923743307
 10
70.54082098270374
 20
-21.62571797796487
 10
70.48310483400306
 20
-21.72163813594291
 10
70.42494827211138
 20
-21.8182881870325
 10
70.31036009999318
 20
-21.85901677317598
 10
70.20216801194874
 20
-21.81108330248362
 10
70.06062104736738
 20
-21.74837305170096
 10
69.93342696517984
 20
-21.65886457576403
 10
69.80036896485749
 20
-21.58042331630971
 10
69.43754740271096
 20
-21.36652976857027
 10
69.07608928640193
 20
-21.15032175775807
 10
68.7132970851346
 20
-20.93637820477097
 10
68.66071358516582
 20
-20.90536898724
 10
68.61666492583056
 20
-20.86669795647486
 10
68.57633408785068
 20
-20.81506960261388
 10
68.40616026584403
 20
-21.03236304843666
 10
68.21248122481474
 20
-21.22165768439554
 10
67.98004765801888
 20
-21.36846529279251
 10
68.11833097734847
 20
-21.52330126665346
 10
68.19527116184291
 20
-21.70951255151027
 10
68.29451460435929
 20
-21.88146316548513
 10
68.50243734201265
 20
-22.24171427439208
 10
68.70296389063722
 20
-22.60623647372596
 10
68.90638065082834
 20
-22.96908739675208
 10
68.99771959409109
 20
-23.13201733929165
 10
68.94401120542998
 20
-23.29543448892415
 10
68.78522665205209
 20
-23.33870967259236
 10
68.68008717793903
 20
-23.36736405584166
 10
68.57696993439541
 20
-23.31784693271652
 10
68.51201632891999
 20
-23.20276971845083
 10
68.36880038184972
 20
-22.94904033880736
 10
68.22763786128277
 20
-22.69415487453721
 10
68.08503941020721
 20
-22.44007591692374
 10
67.98669789720512
 20
-22.26485523500486
 10
67.88735352666582
 20
-22.09019699743195
 10
67.78120110221319
 20
-21.90245252415321
 10
67.72610357694485
 20
-22.1656512461704
 10
67.63978350900652
 20
-22.40033871922459
 10
67.50351049238888
 20
-22.6152401709025
 10
67.34829970855152
 20
-22.86000805963332
 10
67.15089550594706
 20
-23.0634450054293
 10
66.90741766085541
 20
-23.22064498884639
 10
66.86884480553054
 20
-23.24554943727862
 10
66.85519016154957
 20
-23.27132737187334
 10
66.85488278984317
 20
-23.31660551803376
 10
66.8540377470329
 20
-23.44139200810959
 10
66.86743915342832
 20
-23.56696757181943
 10
66.84174379630707
 20
-23.69085580249096
 10
66.81829821657068
 20
-23.80389243563791
 10
66.73056607383819
 20
-23.87637160151679
 10
66.61938146991264
 20
-23.87547150705751
 10
66.51127150057833
 20
-23.87459710336735
 10
66.42916196625265
 20
-23.80262349513083
 10
66.40165128100888
 20
-23.69371940576098
 10
66.3830318958254
 20
-23.62001075305696
 10
66.39877253853557
 20
-23.54479827281001
 10
66.38485731674999
 20
-23.46489263949527
 10
66.06337495528542
 20
-23.56899622508127
 10
65.73413765154637
 20
-23.54853077460472
 10
65.40677210386999
 20
-23.54913267263277
 10
64.88318504651275
 20
-23.55009515896083
 10
64.35959477780918
 20
-23.54921708516139
 10
63.83600634416069
 20
-23.54985476676069
 10
63.80716891417875
 20
-23.54989055033264
 10
63.77633081552319
 20
-23.54089327584819
 10
63.74380263124668
 20
-23.5626781308432
 10
63.80279139056387
 20
-23.66176008852277
 10
63.86226827450193
 20
-23.75952998190403
 10
63.91968072160597
 20
-23.85849724864847
 10
64.0913574536275
 20
-24.15443197491625
 10
64.23307416079332
 20
-24.46273313658084
 10
64.2930364167686
 20
-24.80250824344542
 10
64.34263795242223
 20
-25.08357994203945
 10
64.32896587541944
 20
-25.36083105619986
 10
64.23015183576445
 20
-25.63130072474445
 10
64.12058942042638
 20
-25.93118907693015
 10
63.83079341177401
 20
-26.12246786606819
 10
63.51126492508138
 20
-26.10558444287959
 10
63.24592102381291
 20
-26.0915637054336
 10
63.03183892417584
 20
-25.98680684028042
 10
62.89702867574556
 20
-25.75030312157653
 10
62.80325117381888
 20
-25.58578493896612
 10
62.82001967669028
 20
-25.40695516269832
 10
62.84947758463153
 20
-25.23032928744139
 10
62.88236979793626
 20
-25.03311134291582
 10
62.95954280502929
 20
-24.8500380020457
 10
63.06006803343749
 20
-24.67939348844069
 10
63.26130107822276
 20
-24.33779617199805
 10
63.40876426000555
 20
-23.97055487997237
 10
63.58213979415889
 20
-23.61571580691513
 10
63.61331462540013
 20
-23.55191094584693
 10
63.59177796158916
 20
-23.5485050838354
 10
63.53575740367457
 20
-23.54859224894638
 10
62.74661839569206
 20
-23.54981256049695
 10
61.95744589795652
 20
-23.55386344432776
 10
61.16834404983723
 20
-23.54832066081179
 10
60.30637216913167
 20
-23.54226589696069
 10
59.66354788525237
 20
-23.15954041115638
 10
59.2964720492375
 20
-22.37657796879805
 10
58.74999848744346
 20
-21.21096436036125
 10
59.46644761362611
 20
-19.83646139906944
 10
60.72977784150442
 20
-19.59288400224611
 10
60.76415874314819
 20
-19.58625486619194
 10
60.79937677392803
 20
-19.57537941295277
 10
60.83348769311043
 20
-19.57758285519958
 10
60.92749400345292
 20
-19.58365367578138
 10
60.95814492650207
 20
-19.54042712106972
 10
60.98536819626208
 20
-19.45062320128361
 10
61.25217073684456
 20
-18.57049689244612
 10
61.84024139622472
 20
-18.04272178089917
 10
62.74724781954445
 20
-17.88223200269666
 10
63.0519561729729
 20
-17.82831579406098
 10
63.35628077053207
 20
-17.85715138898818
 10
63.65426250061151
 20
-17.94280556135694
 10
63.67536563268761
 20
-17.94887179430111
 10
63.6963664604493
 20
-17.95529517481792
 10
63.71741499964041
 20
-17.96155225347833
 10
63.71901241498598
 20
-17.95822690450361
 10
63.72061028909499
 20
-17.95490155552819
 10
63.72220770444028
 20
-17.9515762065532
 97
        0
 97
        1
330
81
 75
     2
 76
     1
 98
        1
 10
0.0
 20
0.0
450
        0
451
        0
460
0.0
461
0.0
452
        0
462
0.0
453
        0
470

  0
SPLINE
  5
83
330
79
100
AcDbEntity
  8
Слой 1
100
AcDbSpline
210
0.0
220
0.0
230
1.0
 70
     9
 71
     3
 72
    20
 73
    16
 74
     0
 42
0.0000000001
 43
0.0000000001
 40
0.0
 40
0.0
 40
0.0
 40
0.0
 40
1.0
 40
1.0
 40
1.0
 40
2.0
 40
2.0
 40
2.0
 40
3.0
 40
3.0
 40
3.0
 40
4.0
 40
4.0
 40
4.0
 40
5.0
 40
5.0
 40
5.0
 40
5.0
 10
65.26678722982554
 20
-24.85812417174083
 30
0.0
 10
65.15311429137056
 20
-25.07993185277236
 30
0.0
 10
65.02829935794276
 20
-25.27595976415458
 30
0.0
 10
64.93353666088236
 20
-25.48830498426916
 30
0.0
 10
64.89462156780681
 20
-25.5755067961175
 30
0.0
 10
64.86152222267278
 20
-25.66525107661735
 30
0.0
 10
64.85035086682096
 20
-25.75984265480237
 30
0.0
 10
64.84089620488723
 20
-25.83989784509653
 30
0.0
 10
64.81947423201123
 20
-25.92551141687459
 30
0.0
 10
64.88365206800067
 20
-25.99597660993138
 30
0.0
 10
64.99701946980472
 20
-26.1204520581911
 30
0.0
 10
65.30216525446014
 20
-26.09989301991138
 30
0.0
 10
65.36881078061139
 20
-25.8905848157607
 30
0.0
 10
65.4818487900496
 20
-25.53557691764723
 30
0.0
 10
65.41088308575111
 20
-25.20495506493876
 30
0.0
 10
65.26678722982554
 20
-24.85812417174083
 30
0.0
  0
SPLINE
  5
84
330
79
100
AcDbEntity
  8
Слой 1
100
AcDbSpline
210
0.0
220
0.0
230
1.0
 70
     9
 71
     3
 72
    29
 73
    25
 74
     0
 42
0.0000000001
 43
0.0000000001
 40
0.0
 40
0.0
 40
0.0
 40
0.0
 40
1.0
 40
1.0
 40
1.0
 40
2.0
 40
2.0
 40
2.0
 40
3.0
 40
3.0
 40
3.0
 40
4.0
 40
4.0
 40
4.0
 40
5.0
 40
5.0
 40
5.0
 40
6.0
 40
6.0
 40
6.0
 40
7.0
 40
7.0
 40
7.0
 40
8.0
 40
8.0
 40
8.0
 40
8.0
 10
65.22535719392307
 20
-23.86111403702598
 30
0.0
 10
65.49652647717208
 20
-24.30094459822792
 30
0.0
 10
65.76948448024651
 20
-24.72989695360916
 30
0.0
 10
65.855688022195
 20
-25.24447297356957
 30
0.0
 10
65.90207683537167
 20
-25.52138001492472
 30
0.0
 10
65.88340790370415
 20
-25.79262499419138
 30
0.0
 10
65.78849473213707
 20
-26.05790329224485
 30
0.0
 10
65.68245332850974
 20
-26.35428668945138
 30
0.0
 10
65.37455404388222
 20
-26.55192669661861
 30
0.0
 10
65.05893560055207
 20
-26.52827283814375
 30
0.0
 10
64.80028047462443
 20
-26.50888823504069
 30
0.0
 10
64.59004510895359
 20
-26.40651235370223
 30
0.0
 10
64.45794913619597
 20
-26.17593861511124
 30
0.0
 10
64.35960211802902
 20
-26.00427472847418
 30
0.0
 10
64.38016069754485
 20
-25.81778268020834
 30
0.0
 10
64.4121750664318
 20
-25.63415148262958
 30
0.0
 10
64.44117168743165
 20
-25.46782760593568
 30
0.0
 10
64.50211478028485
 20
-25.3102257454814
 30
0.0
 10
64.58629425660902
 20
-25.16496095954444
 30
0.0
 10
64.8162693085182
 20
-24.7681037154689
 30
0.0
 10
64.99241118802875
 20
-24.34536577372112
 30
0.0
 10
65.18934836914498
 20
-23.93261970624707
 30
0.0
 10
65.19899754690499
 20
-23.91239648302556
 30
0.0
 10
65.20948350972806
 20
-23.89257330178624
 30
0.0
 10
65.22535719392307
 20
-23.86111403702598
 30
0.0
  0
HATCH
  5
85
330
79
100
AcDbEntity
  8
Слой 1
 62
    18
420
        0
440
 33554687
100
AcDbHatch
 10
0.0
 20
0.0
 30
0.0
210
0.0
220
0.0
230
1.0
  2
SOLID
 70
     1
 71
     1
 91
        2
 92
        1
 93
        1
 72
     4
 94
        3
 73
     0
 74
     0
 95
       20
 96
       16
 40
0.0
 40
0.0
 40
0.0
 40
0.0
 40
1.0
 40
1.0
 40
1.0
 40
2.0
 40
2.0
 40
2.0
 40
3.0
 40
3.0
 40
3.0
 40
4.0
 40
4.0
 40
4.0
 40
5.0
 40
5.0
 40
5.0
 40
5.0
 10
65.26678722982554
 20
-24.85812417174083
 10
65.15311429137056
 20
-25.07993185277236
 10
65.02829935794276
 20
-25.27595976415458
 10
64.93353666088236
 20
-25.48830498426916
 10
64.89462156780681
 20
-25.5755067961175
 10
64.86152222267278
 20
-25.66525107661735
 10
64.85035086682096
 20
-25.75984265480237
 10
64.84089620488723
 20
-25.83989784509653
 10
64.81947423201123
 20
-25.92551141687459
 10
64.88365206800067
 20
-25.99597660993138
 10
64.99701946980472
 20
-26.1204520581911
 10
65.30216525446014
 20
-26.09989301991138
 10
65.36881078061139
 20
-25.8905848157607
 10
65.4818487900496
 20
-25.53557691764723
 10
65.41088308575111
 20
-25.20495506493876
 10
65.26678722982554
 20
-24.85812417174083
 97
        0
 97
        1
330
83
 92
        1
 93
        1
 72
     4
 94
        3
 73
     0
 74
     0
 95
       29
 96
       25
 40
0.0
 40
0.0
 40
0.0
 40
0.0
 40
1.0
 40
1.0
 40
1.0
 40
2.0
 40
2.0
 40
2.0
 40
3.0
 40
3.0
 40
3.0
 40
4.0
 40
4.0
 40
4.0
 40
5.0
 40
5.0
 40
5.0
 40
6.0
 40
6.0
 40
6.0
 40
7.0
 40
7.0
 40
7.0
 40
8.0
 40
8.0
 40
8.0
 40
8.0
 10
65.22535719392307
 20
-23.86111403702598
 10
65.49652647717208
 20
-24.30094459822792
 10
65.76948448024651
 20
-24.72989695360916
 10
65.855688022195
 20
-25.24447297356957
 10
65.90207683537167
 20
-25.52138001492472
 10
65.88340790370415
 20
-25.79262499419138
 10
65.78849473213707
 20
-26.05790329224485
 10
65.68245332850974
 20
-26.35428668945138
 10
65.37455404388222
 20
-26.55192669661861
 10
65.05893560055207
 20
-26.52827283814375
 10
64.80028047462443
 20
-26.50888823504069
 10
64.59004510895359
 20
-26.40651235370223
 10
64.45794913619597
 20
-26.17593861511124
 10
64.35960211802902
 20
-26.00427472847418
 10
64.38016069754485
 20
-25.81778268020834
 10
64.4121750664318
 20
-25.63415148262958
 10
64.44117168743165
 20
-25.46782760593568
 10
64.50211478028485
 20
-25.3102257454814
 10
64.58629425660902
 20
-25.16496095954444
 10
64.8162693085182
 20
-24.7681037154689
 10
64.99241118802875
 20
-24.34536577372112
 10
65.18934836914498
 20
-23.93261970624707
 10
65.19899754690499
 20
-23.91239648302556
 10
65.20948350972806
 20
-23.89257330178624
 10
65.22535719392307
 20
-23.86111403702598
 97
        0
 97
        1
330
84
 75
     2
 76
     1
 98
        1
 10
0.0
 20
0.0
450
        0
451
        0
460
0.0
461
0.0
452
        0
462
0.0
453
        0
470

  0
SPLINE
  5
86
330
79
100
AcDbEntity
  8
Слой 1
100
AcDbSpline
210
0.0
220
0.0
230
1.0
 70
     9
 71
     3
 72
    23
 73
    19
 74
     0
 42
0.0000000001
 43
0.0000000001
 40
0.0
 40
0.0
 40
0.0
 40
0.0
 40
1.0
 40
1.0
 40
1.0
 40
2.0
 40
2.0
 40
2.0
 40
3.0
 40
3.0
 40
3.0
 40
4.0
 40
4.0
 40
4.0
 40
5.0
 40
5.0
 40
5.0
 40
6.0
 40
6.0
 40
6.0
 40
6.0
 10
61.88789823238124
 20
-24.72856562123333
 30
0.0
 10
61.76701375730264
 20
-24.96863026409334
 30
0.0
 10
61.62375468644028
 20
-25.18375926258667
 30
0.0
 10
61.52821484360321
 20
-25.42398906039363
 30
0.0
 10
61.49850163364028
 20
-25.49870332321792
 30
0.0
 10
61.47754461781556
 20
-25.57608575595847
 30
0.0
 10
61.46753485175514
 20
-25.65558859470876
 30
0.0
 10
61.45913144693347
 20
-25.72233413135569
 30
0.0
 10
61.44818075644082
 20
-25.79379667678515
 30
0.0
 10
61.49378095474751
 20
-25.85098708223889
 30
0.0
 10
61.56101415725055
 20
-25.93531061037735
 30
0.0
 10
61.65716140328054
 20
-25.95563017398404
 30
0.0
 10
61.7581359907728
 20
-25.94227923160014
 30
0.0
 10
61.85970146596304
 20
-25.92884938185236
 30
0.0
 10
61.94463675555001
 20
-25.88424837097333
 30
0.0
 10
61.98204458035554
 20
-25.77916853614667
 30
0.0
 10
62.11037502032917
 20
-25.4186875866054
 30
0.0
 10
62.03686317726944
 20
-25.07654984647542
 30
0.0
 10
61.88789823238124
 20
-24.72856562123333
 30
0.0
  0
SPLINE
  5
87
330
79
100
AcDbEntity
  8
Слой 1
100
AcDbSpline
210
0.0
220
0.0
230
1.0
 70
     9
 71
     3
 72
    32
 73
    28
 74
     0
 42
0.0000000001
 43
0.0000000001
 40
0.0
 40
0.0
 40
0.0
 40
0.0
 40
1.0
 40
1.0
 40
1.0
 40
2.0
 40
2.0
 40
2.0
 40
3.0
 40
3.0
 40
3.0
 40
4.0
 40
4.0
 40
4.0
 40
5.0
 40
5.0
 40
5.0
 40
6.0
 40
6.0
 40
6.0
 40
7.0
 40
7.0
 40
7.0
 40
8.0
 40
8.0
 40
8.0
 40
9.0
 40
9.0
 40
9.0
 40
9.0
 10
61.84790642080567
 20
-23.73117563014097
 30
0.0
 10
61.88493691243444
 20
-23.7918012584857
 30
0.0
 10
61.91704211654193
 20
-23.84442145955361
 30
0.0
 10
61.94920374858945
 20
-23.89700862963251
 30
0.0
 10
62.1254759170025
 20
-24.18522419719792
 30
0.0
 10
62.29554926974985
 20
-24.47634373924221
 30
0.0
 10
62.39994600536652
 20
-24.8006190543607
 30
0.0
 10
62.52051324531834
 20
-25.17512257640305
 30
0.0
 10
62.54668961622195
 20
-25.55016193449417
 30
0.0
 10
62.40971125035278
 20
-25.92623259347485
 30
0.0
 10
62.29335637906888
 20
-26.24568171404043
 30
0.0
 10
61.9687865376289
 20
-26.43845790802806
 30
0.0
 10
61.63033542291999
 20
-26.39430006292251
 30
0.0
 10
61.39019072578708
 20
-26.36296741695459
 30
0.0
 10
61.19774071281916
 20
-26.25692601332695
 30
0.0
 10
61.07722577193374
 20
-26.04162084955654
 30
0.0
 10
60.98492801245305
 20
-25.87672648067931
 30
0.0
 10
61.0014655277807
 20
-25.69847107661528
 30
0.0
 10
61.03059037324626
 20
-25.52186079932514
 30
0.0
 10
61.05934591390056
 20
-25.34749112414528
 30
0.0
 10
61.12199216714154
 20
-25.18262978625709
 30
0.0
 10
61.20997984127777
 20
-25.03112489591805
 30
0.0
 10
61.43899561820472
 20
-24.63678809983417
 30
0.0
 10
61.61334900727196
 20
-24.21626965706403
 30
0.0
 10
61.80959781339541
 20
-23.80623947093555
 30
0.0
 10
61.82003193591569
 20
-23.78443901797389
 30
0.0
 10
61.83154621766374
 20
-23.76315421545612
 30
0.0
 10
61.84790642080567
 20
-23.73117563014097
 30
0.0
  0
HATCH
  5
88
330
79
100
AcDbEntity
  8
Слой 1
 62
    18
420
        0
440
 33554687
100
AcDbHatch
 10
0.0
 20
0.0
 30
0.0
210
0.0
220
0.0
230
1.0
  2
SOLID
 70
     1
 71
     1
 91
        2
 92
        1
 93
        1
 72
     4
 94
        3
 73
     0
 74
     0
 95
       23
 96
       19
 40
0.0
 40
0.0
 40
0.0
 40
0.0
 40
1.0
 40
1.0
 40
1.0
 40
2.0
 40
2.0
 40
2.0
 40
3.0
 40
3.0
 40
3.0
 40
4.0
 40
4.0
 40
4.0
 40
5.0
 40
5.0
 40
5.0
 40
6.0
 40
6.0
 40
6.0
 40
6.0
 10
61.88789823238124
 20
-24.72856562123333
 10
61.76701375730264
 20
-24.96863026409334
 10
61.62375468644028
 20
-25.18375926258667
 10
61.52821484360321
 20
-25.42398906039363
 10
61.49850163364028
 20
-25.49870332321792
 10
61.47754461781556
 20
-25.57608575595847
 10
61.46753485175514
 20
-25.65558859470876
 10
61.45913144693347
 20
-25.72233413135569
 10
61.44818075644082
 20
-25.79379667678515
 10
61.49378095474751
 20
-25.85098708223889
 10
61.56101415725055
 20
-25.93531061037735
 10
61.65716140328054
 20
-25.95563017398404
 10
61.7581359907728
 20
-25.94227923160014
 10
61.85970146596304
 20
-25.92884938185236
 10
61.94463675555001
 20
-25.88424837097333
 10
61.98204458035554
 20
-25.77916853614667
 10
62.11037502032917
 20
-25.4186875866054
 10
62.03686317726944
 20
-25.07654984647542
 10
61.88789823238124
 20
-24.72856562123333
 97
        0
 97
        1
330
86
 92
        1
 93
        1
 72
     4
 94
        3
 73
     0
 74
     0
 95
       32
 96
       28
 40
0.0
 40
0.0
 40
0.0
 40
0.0
 40
1.0
 40
1.0
 40
1.0
 40
2.0
 40
2.0
 40
2.0
 40
3.0
 40
3.0
 40
3.0
 40
4.0
 40
4.0
 40
4.0
 40
5.0
 40
5.0
 40
5.0
 40
6.0
 40
6.0
 40
6.0
 40
7.0
 40
7.0
 40
7.0
 40
8.0
 40
8.0
 40
8.0
 40
9.0
 40
9.0
 40
9.0
 40
9.0
 10
61.84790642080567
 20
-23.73117563014097
 10
61.88493691243444
 20
-23.7918012584857
 10
61.91704211654193
 20
-23.84442145955361
 10
61.94920374858945
 20
-23.89700862963251
 10
62.1254759170025
 20
-24.18522419719792
 10
62.29554926974985
 20
-24.47634373924221
 10
62.39994600536652
 20
-24.8006190543607
 10
62.52051324531834
 20
-25.17512257640305
 10
62.54668961622195
 20
-25.55016193449417
 10
62.40971125035278
 20
-25.92623259347485
 10
62.29335637906888
 20
-26.24568171404043
 10
61.9687865376289
 20
-26.43845790802806
 10
61.63033542291999
 20
-26.39430006292251
 10
61.39019072578708
 20
-26.36296741695459
 10
61.19774071281916
 20
-26.25692601332695
 10
61.07722577193374
 20
-26.04162084955654
 10
60.98492801245305
 20
-25.87672648067931
 10
61.0014655277807
 20
-25.69847107661528
 10
61.03059037324626
 20
-25.52186079932514
 10
61.05934591390056
 20
-25.34749112414528
 10
61.12199216714154
 20
-25.18262978625709
 10
61.20997984127777
 20
-25.03112489591805
 10
61.43899561820472
 20
-24.63678809983417
 10
61.61334900727196
 20
-24.21626965706403
 10
61.80959781339541
 20
-23.80623947093555
 10
61.82003193591569
 20
-23.78443901797389
 10
61.83154621766374
 20
-23.76315421545612
 10
61.84790642080567
 20
-23.73117563014097
 97
        0
 97
        1
330
87
 75
     2
 76
     1
 98
        1
 10
0.0
 20
0.0
450
        0
451
        0
460
0.0
461
0.0
452
        0
462
0.0
453
        0
470

  0
ENDBLK
  5
7C
330
79
100
AcDbEntity
  8
0
100
AcDbBlockEnd
  0
ENDSEC
  0
SECTION
  2
ENTITIES
  0
INSERT
  5
7A
330
70
100
AcDbEntity
  8
Слой 1
100
AcDbBlockReference
  2
Block_0
 10
0.0
 20
0.0
 30
0.0
  0
ENDSEC
  0
SECTION
  2
OBJECTS
  0
DICTIONARY
  5
C
330
0
100
AcDbDictionary
281
     1
  3
ACAD_COLOR
350
63
  3
ACAD_DETAILVIEWSTYLE
350
6A
  3
ACAD_GROUP
350
D
  3
ACAD_LAYOUT
350
62
  3
ACAD_MATERIAL
350
10
  3
ACAD_MLEADERSTYLE
350
66
  3
ACAD_MLINESTYLE
350
5F
  3
ACAD_PLOTSETTINGS
350
61
  3
ACAD_PLOTSTYLENAME
350
E
  3
ACAD_SCALELIST
350
42
  3
ACAD_SECTIONVIEWSTYLE
350
68
  3
ACAD_TABLESTYLE
350
64
  3
ACAD_VISUALSTYLE
350
29
  3
ACDB_RECOMPOSE_DATA
350
91
  3
AcDbVariableDictionary
350
89
  0
DICTIONARY
  5
63
102
{ACAD_REACTORS
330
C
102
}
330
C
100
AcDbDictionary
281
     1
  0
DICTIONARY
  5
6A
102
{ACAD_REACTORS
330
C
102
}
330
C
100
AcDbDictionary
281
     1
  3
Imperial24
350
6B
  0
DICTIONARY
  5
D
102
{ACAD_REACTORS
330
C
102
}
330
C
100
AcDbDictionary
281
     1
  0
DICTIONARY
  5
62
102
{ACAD_REACTORS
330
C
102
}
330
C
100
AcDbDictionary
281
     1
  3
Layout1
350
6F
  3
Layout2
350
77
  3
Model
350
73
  0
DICTIONARY
  5
10
102
{ACAD_REACTORS
330
C
102
}
330
C
100
AcDbDictionary
281
     1
  3
ByBlock
350
19
  3
ByLayer
350
11
  3
Global
350
21
  0
DICTIONARY
  5
66
102
{ACAD_REACTORS
330
C
102
}
330
C
100
AcDbDictionary
281
     1
  3
Standard
350
67
  0
DICTIONARY
  5
5F
102
{ACAD_REACTORS
330
C
102
}
330
C
100
AcDbDictionary
281
     1
  3
Standard
350
60
  0
DICTIONARY
  5
61
102
{ACAD_REACTORS
330
C
102
}
330
C
100
AcDbDictionary
281
     1
  0
ACDBDICTIONARYWDFLT
  5
E
102
{ACAD_REACTORS
330
C
102
}
330
C
100
AcDbDictionary
281
     1
  3
Normal
350
F
100
AcDbDictionaryWithDefault
340
F
  0
DICTIONARY
  5
42
102
{ACAD_REACTORS
330
C
102
}
330
C
100
AcDbDictionary
281
     1
  3
A0
350
43
  3
A1
350
44
  3
A2
350
45
  3
A3
350
46
  3
A4
350
47
  3
A5
350
48
  3
A6
350
49
  3
A7
350
4A
  3
A8
350
4B
  3
A9
350
4C
  3
B0
350
4D
  3
B1
350
4E
  3
B2
350
4F
  3
B3
350
50
  3
B4
350
51
  3
B5
350
52
  3
B6
350
53
  0
DICTIONARY
  5
68
102
{ACAD_REACTORS
330
C
102
}
330
C
100
AcDbDictionary
281
     1
  3
Imperial24
350
69
  0
DICTIONARY
  5
64
102
{ACAD_REACTORS
330
C
102
}
330
C
100
AcDbDictionary
281
     1
  3
Standard
350
65
  0
DICTIONARY
  5
29
102
{ACAD_REACTORS
330
C
102
}
330
C
100
AcDbDictionary
281
     1
  3
2dWireframe
350
2F
  3
Basic
350
2E
  3
Brighten
350
35
  3
ColorChange
350
39
  3
Conceptual
350
32
  3
Dim
350
34
  3
EdgeColorOff
350
41
  3
Facepattern
350
38
  3
Flat
350
2A
  3
FlatWithEdges
350
2B
  3
Gouraud
350
2C
  3
GouraudWithEdges
350
2D
  3
Hidden
350
31
  3
JitterOff
350
3F
  3
Linepattern
350
37
  3
OverhangOff
350
40
  3
Realistic
350
33
  3
Shaded
350
3E
  3
Shaded with edges
350
3D
  3
Shades of Gray
350
3A
  3
Sketchy
350
3B
  3
Thicken
350
36
  3
Wireframe
350
30
  3
X-Ray
350
3C
  0
XRECORD
  5
91
102
{ACAD_REACTORS
330
C
102
}
330
C
100
AcDbXrecord
280
     1
 90
        1
330
65
  0
DICTIONARY
  5
89
102
{ACAD_REACTORS
330
C
102
}
330
C
100
AcDbDictionary
281
     1
  3
CANNOSCALE
350
8E
  3
CMLEADERSTYLE
350
8B
  3
CTABLESTYLE
350
8A
  3
CVIEWDETAILSTYLE
350
8C
  3
CVIEWSECTIONSTYLE
350
8D
  0
ACDBDETAILVIEWSTYLE
  5
6B
102
{ACAD_XDICTIONARY
360
94
102
}
102
{ACAD_REACTORS
330
6A
102
}
330
6A
100
AcDbModelDocViewStyle
 70
     0
  3
Imperial24
290
     0
100
AcDbDetailViewStyle
 70
     0
 71
     0
 90
        3
 71
     1
340
55
 62
   256
 40
0.24
340
0
 62
   256
 40
0.24
300

 40
0.36
280
     3
 71
     2
340
5D
 90
       25
 62
   256
 71
     3
340
55
 62
   256
 40
0.24
 90
        1
 40
0.75
 90
        1
300
%<\AcVar ViewType \f "%tc1">% %<\AcVar ViewDetailId>%\PSCALE %<\AcVar ViewScale \f "%sn">%
 71
     4
340
5D
 90
       25
 62
   256
340
5D
 90
       25
 62
   256
280
     0
  0
LAYOUT
  5
6F
102
{ACAD_REACTORS
330
62
102
}
330
62
100
AcDbPlotSettings
  1

  2

  4

  6

 40
0.0
 41
0.0
 42
0.0
 43
0.0
 44
0.0
 45
0.0
 46
0.0
 47
0.0
 48
0.0
 49
0.0
140
0.0
141
0.0
142
1.0
143
1.0
 70
   688
 72
     0
 73
     0
 74
     5
  7

 75
    16
147
1.0
 76
     0
 77
     2
 78
   300
148
0.0
149
0.0
100
AcDbLayout
  1
Layout1
 70
     1
 71
     1
 10
0.0
 20
0.0
 11
12.0
 21
9.0
 12
0.0
 22
0.0
 32
0.0
 14
0.0
 24
0.0
 34
0.0
 15
0.0
 25
0.0
 35
0.0
146
0.0
 13
0.0
 23
0.0
 33
0.0
 16
1.0
 26
0.0
 36
0.0
 17
0.0
 27
1.0
 37
0.0
 76
     0
330
6C
  0
LAYOUT
  5
77
102
{ACAD_REACTORS
330
62
102
}
330
62
100
AcDbPlotSettings
  1

  2

  4

  6

 40
0.0
 41
0.0
 42
0.0
 43
0.0
 44
0.0
 45
0.0
 46
0.0
 47
0.0
 48
0.0
 49
0.0
140
0.0
141
0.0
142
1.0
143
1.0
 70
   688
 72
     0
 73
     0
 74
     5
  7

 75
    16
147
1.0
 76
     0
 77
     2
 78
   300
148
0.0
149
0.0
100
AcDbLayout
  1
Layout2
 70
     1
 71
     2
 10
0.0
 20
0.0
 11
12.0
 21
9.0
 12
0.0
 22
0.0
 32
0.0
 14
0.0
 24
0.0
 34
0.0
 15
0.0
 25
0.0
 35
0.0
146
0.0
 13
0.0
 23
0.0
 33
0.0
 16
1.0
 26
0.0
 36
0.0
 17
0.0
 27
1.0
 37
0.0
 76
     0
330
74
  0
LAYOUT
  5
73
102
{ACAD_REACTORS
330
62
102
}
330
62
100
AcDbPlotSettings
  1

  2

  4

  6

 40
0.0
 41
0.0
 42
0.0
 43
0.0
 44
0.0
 45
0.0
 46
0.0
 47
0.0
 48
0.0
 49
0.0
140
0.0
141
0.0
142
1.0
143
1.0
 70
  1712
 72
     0
 73
     0
 74
     0
  7

 75
     0
147
1.0
 76
     0
 77
     2
 78
   300
148
0.0
149
0.0
100
AcDbLayout
  1
Model
 70
     1
 71
     0
 10
0.0
 20
0.0
 11
12.0
 21
9.0
 12
0.0
 22
0.0
 32
0.0
 14
0.0
 24
0.0
 34
0.0
 15
0.0
 25
0.0
 35
0.0
146
0.0
 13
0.0
 23
0.0
 33
0.0
 16
1.0
 26
0.0
 36
0.0
 17
0.0
 27
1.0
 37
0.0
 76
     0
330
70
  0
MATERIAL
  5
19
102
{ACAD_XDICTIONARY
360
1A
102
}
102
{ACAD_REACTORS
330
10
102
}
330
10
100
AcDbMaterial
  1
ByBlock
 72
     0
 43
0.0208333333333333
 43
0.0
 43
0.0
 43
0.0
 43
0.0
 43
0.0208333333333333
 43
0.0
 43
0.0
 43
0.0
 43
0.0
 43
1.0
 43
0.0
 43
0.0
 43
0.0
 43
0.0
 43
1.0
 77
     0
 47
0.0208333333333333
 47
0.0
 47
0.0
 47
0.0
 47
0.0
 47
0.0208333333333333
 47
0.0
 47
0.0
 47
0.0
 47
0.0
 47
1.0
 47
0.0
 47
0.0
 47
0.0
 47
0.0
 47
1.0
171
     0
 49
0.0208333333333333
 49
0.0
 49
0.0
 49
0.0
 49
0.0
 49
0.0208333333333333
 49
0.0
 49
0.0
 49
0.0
 49
0.0
 49
1.0
 49
0.0
 49
0.0
 49
0.0
 49
0.0
 49
1.0
175
     0
142
0.0208333333333333
142
0.0
142
0.0
142
0.0
142
0.0
142
0.0208333333333333
142
0.0
142
0.0
142
0.0
142
0.0
142
1.0
142
0.0
142
0.0
142
0.0
142
0.0
142
1.0
179
     0
144
0.0208333333333333
144
0.0
144
0.0
144
0.0
144
0.0
144
0.0208333333333333
144
0.0
144
0.0
144
0.0
144
0.0
144
1.0
144
0.0
144
0.0
144
0.0
144
0.0
144
1.0
147
0.0208333333333333
147
0.0
147
0.0
147
0.0
147
0.0
147
0.0208333333333333
147
0.0
147
0.0
147
0.0
147
0.0
147
1.0
147
0.0
147
0.0
147
0.0
147
0.0
147
1.0
  0
MATERIAL
  5
11
102
{ACAD_XDICTIONARY
360
12
102
}
102
{ACAD_REACTORS
330
10
102
}
330
10
100
AcDbMaterial
  1
ByLayer
 72
     0
 43
0.0208333333333333
 43
0.0
 43
0.0
 43
0.0
 43
0.0
 43
0.0208333333333333
 43
0.0
 43
0.0
 43
0.0
 43
0.0
 43
1.0
 43
0.0
 43
0.0
 43
0.0
 43
0.0
 43
1.0
 77
     0
 47
0.0208333333333333
 47
0.0
 47
0.0
 47
0.0
 47
0.0
 47
0.0208333333333333
 47
0.0
 47
0.0
 47
0.0
 47
0.0
 47
1.0
 47
0.0
 47
0.0
 47
0.0
 47
0.0
 47
1.0
171
     0
 49
0.0208333333333333
 49
0.0
 49
0.0
 49
0.0
 49
0.0
 49
0.0208333333333333
 49
0.0
 49
0.0
 49
0.0
 49
0.0
 49
1.0
 49
0.0
 49
0.0
 49
0.0
 49
0.0
 49
1.0
175
     0
142
0.0208333333333333
142
0.0
142
0.0
142
0.0
142
0.0
142
0.0208333333333333
142
0.0
142
0.0
142
0.0
142
0.0
142
1.0
142
0.0
142
0.0
142
0.0
142
0.0
142
1.0
179
     0
144
0.0208333333333333
144
0.0
144
0.0
144
0.0
144
0.0
144
0.0208333333333333
144
0.0
144
0.0
144
0.0
144
0.0
144
1.0
144
0.0
144
0.0
144
0.0
144
0.0
144
1.0
147
0.0208333333333333
147
0.0
147
0.0
147
0.0
147
0.0
147
0.0208333333333333
147
0.0
147
0.0
147
0.0
147
0.0
147
1.0
147
0.0
147
0.0
147
0.0
147
0.0
147
1.0
  0
MATERIAL
  5
21
102
{ACAD_XDICTIONARY
360
22
102
}
102
{ACAD_REACTORS
330
10
102
}
330
10
100
AcDbMaterial
  1
Global
 72
     0
 43
0.0208333333333333
 43
0.0
 43
0.0
 43
0.0
 43
0.0
 43
0.0208333333333333
 43
0.0
 43
0.0
 43
0.0
 43
0.0
 43
1.0
 43
0.0
 43
0.0
 43
0.0
 43
0.0
 43
1.0
 77
     0
 47
0.0208333333333333
 47
0.0
 47
0.0
 47
0.0
 47
0.0
 47
0.0208333333333333
 47
0.0
 47
0.0
 47
0.0
 47
0.0
 47
1.0
 47
0.0
 47
0.0
 47
0.0
 47
0.0
 47
1.0
171
     0
 49
0.0208333333333333
 49
0.0
 49
0.0
 49
0.0
 49
0.0
 49
0.0208333333333333
 49
0.0
 49
0.0
 49
0.0
 49
0.0
 49
1.0
 49
0.0
 49
0.0
 49
0.0
 49
0.0
 49
1.0
175
     0
142
0.0208333333333333
142
0.0
142
0.0
142
0.0
142
0.0
142
0.0208333333333333
142
0.0
142
0.0
142
0.0
142
0.0
142
1.0
142
0.0
142
0.0
142
0.0
142
0.0
142
1.0
179
     0
144
0.0208333333333333
144
0.0
144
0.0
144
0.0
144
0.0
144
0.0208333333333333
144
0.0
144
0.0
144
0.0
144
0.0
144
1.0
144
0.0
144
0.0
144
0.0
144
0.0
144
1.0
147
0.0208333333333333
147
0.0
147
0.0
147
0.0
147
0.0
147
0.0208333333333333
147
0.0
147
0.0
147
0.0
147
0.0
147
1.0
147
0.0
147
0.0
147
0.0
147
0.0
147
1.0
  0
MLEADERSTYLE
  5
67
102
{ACAD_REACTORS
330
66
102
}
330
66
100
AcDbMLeaderStyle
179
     2
170
     2
171
     1
172
     0
 90
        2
 40
0.0
 41
0.0
173
     1
 91
-1056964608
340
5B
 92
       -2
290
     1
 42
0.09
291
     1
 43
0.36
  3
Standard
 44
0.18
300

342
55
174
     1
178
     6
175
     1
176
     0
 93
-1056964608
 45
0.18
292
     0
297
     0
 46
0.18
 94
-1056964608
 47
1.0
 49
1.0
140
1.0
293
     1
141
0.0
294
     1
177
     0
142
1.0
295
     0
296
     0
143
0.125
271
     0
272
     9
273
     9
298
     1
  0
MLINESTYLE
  5
60
102
{ACAD_REACTORS
330
5F
102
}
330
5F
100
AcDbMlineStyle
  2
STANDARD
 70
     0
  3

 62
   256
 51
90.0
 52
90.0
 71
     2
 49
0.5
 62
   256
  6
BYLAYER
 49
-0.5
 62
   256
  6
BYLAYER
  0
ACDBPLACEHOLDER
  5
F
102
{ACAD_REACTORS
330
E
102
}
330
E
  0
SCALE
  5
43
102
{ACAD_REACTORS
330
42
102
}
330
42
100
AcDbScale
 70
     0
300
1:1
140
1.0
141
1.0
290
     1
  0
SCALE
  5
44
102
{ACAD_REACTORS
330
42
102
}
330
42
100
AcDbScale
 70
     0
300
1/128" = 1'-0"
140
0.0078125
141
12.0
290
     0
  0
SCALE
  5
45
102
{ACAD_REACTORS
330
42
102
}
330
42
100
AcDbScale
 70
     0
300
1/64" = 1'-0"
140
0.015625
141
12.0
290
     0
  0
SCALE
  5
46
102
{ACAD_REACTORS
330
42
102
}
330
42
100
AcDbScale
 70
     0
300
1/32" = 1'-0"
140
0.03125
141
12.0
290
     0
  0
SCALE
  5
47
102
{ACAD_REACTORS
330
42
102
}
330
42
100
AcDbScale
 70
     0
300
1/16" = 1'-0"
140
0.0625
141
12.0
290
     0
  0
SCALE
  5
48
102
{ACAD_REACTORS
330
42
102
}
330
42
100
AcDbScale
 70
     0
300
3/32" = 1'-0"
140
0.09375
141
12.0
290
     0
  0
SCALE
  5
49
102
{ACAD_REACTORS
330
42
102
}
330
42
100
AcDbScale
 70
     0
300
1/8" = 1'-0"
140
0.125
141
12.0
290
     0
  0
SCALE
  5
4A
102
{ACAD_REACTORS
330
42
102
}
330
42
100
AcDbScale
 70
     0
300
3/16" = 1'-0"
140
0.1875
141
12.0
290
     0
  0
SCALE
  5
4B
102
{ACAD_REACTORS
330
42
102
}
330
42
100
AcDbScale
 70
     0
300
1/4" = 1'-0"
140
0.25
141
12.0
290
     0
  0
SCALE
  5
4C
102
{ACAD_REACTORS
330
42
102
}
330
42
100
AcDbScale
 70
     0
300
3/8" = 1'-0"
140
0.375
141
12.0
290
     0
  0
SCALE
  5
4D
102
{ACAD_REACTORS
330
42
102
}
330
42
100
AcDbScale
 70
     0
300
1/2" = 1'-0"
140
0.5
141
12.0
290
     0
  0
SCALE
  5
4E
102
{ACAD_REACTORS
330
42
102
}
330
42
100
AcDbScale
 70
     0
300
3/4" = 1'-0"
140
0.75
141
12.0
290
     0
  0
SCALE
  5
4F
102
{ACAD_REACTORS
330
42
102
}
330
42
100
AcDbScale
 70
     0
300
1" = 1'-0"
140
1.0
141
12.0
290
     0
  0
SCALE
  5
50
102
{ACAD_REACTORS
330
42
102
}
330
42
100
AcDbScale
 70
     0
300
1-1/2" = 1'-0"
140
1.5
141
12.0
290
     0
  0
SCALE
  5
51
102
{ACAD_REACTORS
330
42
102
}
330
42
100
AcDbScale
 70
     0
300
3" = 1'-0"
140
3.0
141
12.0
290
     0
  0
SCALE
  5
52
102
{ACAD_REACTORS
330
42
102
}
330
42
100
AcDbScale
 70
     0
300
6" = 1'-0"
140
6.0
141
12.0
290
     0
  0
SCALE
  5
53
102
{ACAD_REACTORS
330
42
102
}
330
42
100
AcDbScale
 70
     0
300
1'-0" = 1'-0"
140
12.0
141
12.0
290
     0
  0
ACDBSECTIONVIEWSTYLE
  5
69
102
{ACAD_XDICTIONARY
360
92
102
}
102
{ACAD_REACTORS
330
68
102
}
330
68
100
AcDbModelDocViewStyle
 70
     0
  3
Imperial24
290
     0
100
AcDbSectionViewStyle
 70
     0
 71
     0
 90
       78
 71
     1
340
55
 62
   256
 40
0.24
340
0
340
0
 62
   256
 40
0.24
300
I, O, Q, S, X, Z
 40
0.48
 90
        3
 40
0.18
 90
        1
 71
     2
340
5D
 90
       25
 62
   256
340
5D
 90
       50
 62
   256
 40
0.24
 40
0.0
 40
0.24
 71
     3
340
55
 62
   256
 40
0.24
 90
        1
 40
0.75
 90
        1
300
%<\AcVar ViewType \f "%tc1">% %<\AcVar ViewSectionStartId>%-%<\AcVar ViewSectionEndId>%\PSCALE %<\AcVar ViewScale \f "%sn">%
 71
     4
 62
   256
 62
   257
300
ANSI31
 40
1.0
 90
        0
290
     0
290
     0
 90
        6
 40
0.0
 40
1.570796326794896
 40
0.2617993877991494
 40
1.308996938995747
 40
-0.2617993877991494
 40
1.832595714594046
  0
TABLESTYLE
  5
65
102
{ACAD_XDICTIONARY
360
8F
102
}
102
{ACAD_REACTORS
330
64
102
}
330
64
100
AcDbTableStyle
280
     0
  3
Standard
 70
     0
 71
     0
 40
0.06
 41
0.06
280
     0
281
     0
  7
Standard
140
0.18
170
     2
 62
     0
 63
     7
283
     0
 90
      512
 91
        0
  1

274
    -2
284
     1
 64
     0
275
    -2
285
     1
 65
     0
276
    -2
286
     1
 66
     0
277
    -2
287
     1
 67
     0
278
    -2
288
     1
 68
     0
279
    -2
289
     1
 69
     0
  7
Standard
140
0.25
170
     5
 62
     0
 63
     7
283
     0
 90
      512
 91
        0
  1

274
    -2
284
     1
 64
     0
275
    -2
285
     1
 65
     0
276
    -2
286
     1
 66
     0
277
    -2
287
     1
 67
     0
278
    -2
288
     1
 68
     0
279
    -2
289
     1
 69
     0
  7
Standard
140
0.18
170
     5
 62
     0
 63
     7
283
     0
 90
      512
 91
        0
  1

274
    -2
284
     1
 64
     0
275
    -2
285
     1
 65
     0
276
    -2
286
     1
 66
     0
277
    -2
287
     1
 67
     0
278
    -2
288
     1
 68
     0
279
    -2
289
     1
 69
     0
  0
VISUALSTYLE
  5
2F
102
{ACAD_REACTORS
330
29
102
}
330
29
100
AcDbVisualStyle
  2
2dWireframe
 70
     4
177
     3
291
     0
 70
    58
 90
        0
176
     1
 90
        2
176
     1
 90
        0
176
     1
 90
        0
176
     1
 40
0.6
176
     1
 40
30.0
176
     1
 62
     7
420
 16777215
176
     1
 90
        1
176
     1
 90
        4
176
     1
 62
     7
176
     1
 62
   257
176
     1
 90
        1
176
     1
 90
        1
176
     1
 40
1.0
176
     1
 90
        0
176
     1
 62
   257
176
     1
 40
1.0
176
     1
 90
        1
176
     1
 90
        6
176
     1
 90
        2
176
     1
 62
     7
176
     1
 90
        5
176
     1
 90
        0
176
     1
 90
        0
176
     1
290
     0
176
     1
 90
        1
176
     1
 40
0.0
176
     1
 90
        0
176
     1
290
     1
176
     1
290
     1
176
     1
290
     0
176
     1
290
     0
176
     1
290
     0
176
     1
290
     0
176
     1
290
     0
176
     1
290
     0
176
     1
290
     0
176
     1
 90
       50
176
     1
 40
0.0
176
     1
 40
1.0
176
     1
 90
        0
176
     1
 62
    18
420
        0
176
     1
 90
       50
176
     1
 90
        3
176
     1
 62
     5
420
      255
176
     1
290
     0
176
     1
 90
       50
176
     1
 90
       50
176
     1
 90
       50
176
     1
290
     0
176
     1
 90
       50
176
     1
 62
   256
176
     0
 40
1.0
176
     0
 90
        2
176
     1
  1
strokes_ogs.tif
176
     1
290
     0
176
     1
 40
1.0
176
     1
 40
1.0
176
     1
1001
ACAD
1000
AcDbSavedByObjectVersion
1070
     0
  0
VISUALSTYLE
  5
2E
102
{ACAD_REACTORS
330
29
102
}
330
29
100
AcDbVisualStyle
  2
Basic
 70
     7
177
     3
291
     1
 70
    58
 90
        1
176
     1
 90
        0
176
     1
 90
        1
176
     1
 90
        0
176
     1
 40
0.6
176
     1
 40
30.0
176
     1
 62
     7
420
 16777215
176
     1
 90
        0
176
     1
 90
        4
176
     1
 62
     7
176
     1
 62
   257
176
     1
 90
        1
176
     1
 90
        1
176
     1
 40
1.0
176
     1
 90
        8
176
     1
 62
     7
176
     1
 40
1.0
176
     1
 90
        1
176
     1
 90
        6
176
     1
 90
        2
176
     1
 62
     7
176
     1
 90
        5
176
     1
 90
        0
176
     1
 90
        0
176
     1
290
     0
176
     1
 90
        1
176
     1
 40
0.0
176
     1
 90
        0
176
     1
290
     0
176
     1
290
     1
176
     1
290
     1
176
     1
290
     0
176
     1
290
     0
176
     1
290
     0
176
     1
290
     0
176
     1
290
     0
176
     1
290
     0
176
     1
 90
       50
176
     1
 40
0.0
176
     1
 40
1.0
176
     1
 90
        0
176
     1
 62
    18
420
        0
176
     1
 90
       50
176
     1
 90
        3
176
     1
 62
     5
420
      255
176
     1
290
     0
176
     1
 90
       50
176
     1
 90
       50
176
     1
 90
       50
176
     1
290
     0
176
     1
 90
       50
176
     1
 62
   256
176
     0
 40
1.0
176
     0
 90
        2
176
     1
  1
strokes_ogs.tif
176
     1
290
     0
176
     1
 40
1.0
176
     1
 40
1.0
176
     1
1001
ACAD
1000
AcDbSavedByObjectVersion
1070
     0
  0
VISUALSTYLE
  5
35
102
{ACAD_REACTORS
330
29
102
}
330
29
100
AcDbVisualStyle
  2
Brighten
 70
    12
177
     3
291
     1
 70
    58
 90
        2
176
     1
 90
        2
176
     1
 90
        0
176
     1
 90
        0
176
     1
 40
0.6
176
     1
 40
30.0
176
     1
 62
     7
420
 16777215
176
     1
 90
        1
176
     1
 90
        4
176
     1
 62
     7
176
     1
 62
   257
176
     1
 90
        1
176
     1
 90
        1
176
     1
 40
1.0
176
     1
 90
        8
176
     1
 62
     7
176
     1
 40
1.0
176
     1
 90
        1
176
     1
 90
        6
176
     1
 90
        2
176
     1
 62
     7
176
     1
 90
        5
176
     1
 90
        0
176
     1
 90
        0
176
     1
290
     0
176
     1
 90
        1
176
     1
 40
50.0
176
     1
 90
        0
176
     1
290
     0
176
     1
290
     1
176
     1
290
     1
176
     1
290
     0
176
     1
290
     0
176
     1
290
     0
176
     1
290
     0
176
     1
290
     0
176
     1
290
     0
176
     1
 90
       50
176
     1
 40
0.0
176
     1
 40
1.0
176
     1
 90
        0
176
     1
 62
    18
420
        0
176
     1
 90
       50
176
     1
 90
        3
176
     1
 62
     5
420
      255
176
     1
290
     0
176
     1
 90
       50
176
     1
 90
       50
176
     1
 90
       50
176
     1
290
     0
176
     1
 90
       50
176
     1
 62
   256
176
     0
 40
1.0
176
     0
 90
        2
176
     1
  1
strokes_ogs.tif
176
     1
290
     0
176
     1
 40
1.0
176
     1
 40
1.0
176
     1
1001
ACAD
1000
AcDbSavedByObjectVersion
1070
     0
  0
VISUALSTYLE
  5
39
102
{ACAD_REACTORS
330
29
102
}
330
29
100
AcDbVisualStyle
  2
ColorChange
 70
    16
177
     3
291
     1
 70
    58
 90
        2
176
     1
 90
        2
176
     1
 90
        3
176
     1
 90
        0
176
     1
 40
0.6
176
     1
 40
30.0
176
     1
 62
     8
420
  8421504
176
     1
 90
        1
176
     1
 90
        4
176
     1
 62
     7
176
     1
 62
   257
176
     1
 90
        1
176
     1
 90
        1
176
     1
 40
1.0
176
     1
 90
        8
176
     1
 62
     8
420
  8421504
176
     1
 40
1.0
176
     1
 90
        1
176
     1
 90
        6
176
     1
 90
        2
176
     1
 62
     7
176
     1
 90
        5
176
     1
 90
        0
176
     1
 90
        0
176
     1
290
     0
176
     1
 90
        1
176
     1
 40
0.0
176
     1
 90
        0
176
     1
290
     0
176
     1
290
     1
176
     1
290
     1
176
     1
290
     0
176
     1
290
     0
176
     1
290
     0
176
     1
290
     0
176
     1
290
     0
176
     1
290
     0
176
     1
 90
       50
176
     1
 40
0.0
176
     1
 40
1.0
176
     1
 90
        0
176
     1
 62
    18
420
        0
176
     1
 90
       50
176
     1
 90
        3
176
     1
 62
     5
420
      255
176
     1
290
     0
176
     1
 90
       50
176
     1
 90
       50
176
     1
 90
       50
176
     1
290
     0
176
     1
 90
       50
176
     1
 62
   256
176
     0
 40
1.0
176
     0
 90
        2
176
     1
  1
strokes_ogs.tif
176
     1
290
     0
176
     1
 40
1.0
176
     1
 40
1.0
176
     1
1001
ACAD
1000
AcDbSavedByObjectVersion
1070
     0
  0
VISUALSTYLE
  5
32
102
{ACAD_REACTORS
330
29
102
}
330
29
100
AcDbVisualStyle
  2
Conceptual
 70
     9
177
     3
291
     0
 70
    58
 90
        3
176
     1
 90
        2
176
     1
 90
        0
176
     1
 90
        0
176
     1
 40
0.6
176
     1
 40
30.0
176
     1
 62
     7
420
 16777215
176
     1
 90
        2
176
     1
 90
        2
176
     1
 62
     7
176
     1
 62
   257
176
     1
 90
        1
176
     1
 90
        1
176
     1
 40
179.0
176
     1
 90
        8
176
     1
 62
     7
176
     1
 40
1.0
176
     1
 90
        1
176
     1
 90
        6
176
     1
 90
        2
176
     1
 62
     7
176
     1
 90
        3
176
     1
 90
        0
176
     1
 90
        0
176
     1
290
     0
176
     1
 90
        1
176
     1
 40
0.0
176
     1
 90
        0
176
     1
290
     0
176
     1
290
     1
176
     1
290
     1
176
     1
290
     0
176
     1
290
     0
176
     1
290
     0
176
     1
290
     0
176
     1
290
     0
176
     1
290
     0
176
     1
 90
       50
176
     1
 40
0.0
176
     1
 40
1.0
176
     1
 90
        0
176
     1
 62
    18
420
        0
176
     1
 90
       50
176
     1
 90
        3
176
     1
 62
     5
420
      255
176
     1
290
     0
176
     1
 90
       50
176
     1
 90
       50
176
     1
 90
       50
176
     1
290
     0
176
     1
 90
       50
176
     1
 62
   256
176
     0
 40
1.0
176
     0
 90
        2
176
     1
  1
strokes_ogs.tif
176
     1
290
     0
176
     1
 40
1.0
176
     1
 40
1.0
176
     1
1001
ACAD
1000
AcDbSavedByObjectVersion
1070
     0
  0
VISUALSTYLE
  5
34
102
{ACAD_REACTORS
330
29
102
}
330
29
100
AcDbVisualStyle
  2
Dim
 70
    11
177
     3
291
     1
 70
    58
 90
        2
176
     1
 90
        2
176
     1
 90
        0
176
     1
 90
        0
176
     1
 40
0.6
176
     1
 40
30.0
176
     1
 62
     7
420
 16777215
176
     1
 90
        1
176
     1
 90
        4
176
     1
 62
     7
176
     1
 62
   257
176
     1
 90
        1
176
     1
 90
        1
176
     1
 40
1.0
176
     1
 90
        8
176
     1
 62
     7
176
     1
 40
1.0
176
     1
 90
        1
176
     1
 90
        6
176
     1
 90
        2
176
     1
 62
     7
176
     1
 90
        5
176
     1
 90
        0
176
     1
 90
        0
176
     1
290
     0
176
     1
 90
        1
176
     1
 40
-50.0
176
     1
 90
        0
176
     1
290
     0
176
     1
290
     1
176
     1
290
     1
176
     1
290
     0
176
     1
290
     0
176
     1
290
     0
176
     1
290
     0
176
     1
290
     0
176
     1
290
     0
176
     1
 90
       50
176
     1
 40
0.0
176
     1
 40
1.0
176
     1
 90
        0
176
     1
 62
    18
420
        0
176
     1
 90
       50
176
     1
 90
        3
176
     1
 62
     5
420
      255
176
     1
290
     0
176
     1
 90
       50
176
     1
 90
       50
176
     1
 90
       50
176
     1
290
     0
176
     1
 90
       50
176
     1
 62
   256
176
     0
 40
1.0
176
     0
 90
        2
176
     1
  1
strokes_ogs.tif
176
     1
290
     0
176
     1
 40
1.0
176
     1
 40
1.0
176
     1
1001
ACAD
1000
AcDbSavedByObjectVersion
1070
     0
  0
VISUALSTYLE
  5
41
102
{ACAD_REACTORS
330
29
102
}
330
29
100
AcDbVisualStyle
  2
EdgeColorOff
 70
    22
177
     3
291
     1
 70
    58
 90
        2
176
     0
 90
        2
176
     0
 90
        0
176
     0
 90
        0
176
     0
 40
0.6
176
     0
 40
30.0
176
     0
 62
     7
420
 16777215
176
     0
 90
        1
176
     0
 90
        4
176
     0
 62
     7
176
     0
 62
   257
176
     0
 90
        1
176
     0
 90
        1
176
     0
 40
1.0
176
     0
 90
        8
176
     2
 62
     7
176
     0
 40
1.0
176
     0
 90
        1
176
     0
 90
        6
176
     0
 90
        2
176
     0
 62
     7
176
     0
 90
        5
176
     0
 90
        0
176
     0
 90
        0
176
     0
290
     0
176
     0
 90
        1
176
     0
 40
0.0
176
     0
 90
        0
176
     0
290
     0
176
     0
290
     1
176
     0
290
     1
176
     0
290
     0
176
     0
290
     0
176
     0
290
     0
176
     0
290
     0
176
     0
290
     0
176
     0
290
     0
176
     0
 90
       50
176
     0
 40
0.0
176
     0
 40
1.0
176
     0
 90
        0
176
     0
 62
    18
420
        0
176
     0
 90
       50
176
     0
 90
        3
176
     0
 62
     5
420
      255
176
     0
290
     0
176
     0
 90
       50
176
     0
 90
       50
176
     0
 90
       50
176
     0
290
     0
176
     0
 90
       50
176
     0
 62
   256
176
     0
 40
1.0
176
     0
 90
        2
176
     0
  1
strokes_ogs.tif
176
     0
290
     0
176
     0
 40
1.0
176
     0
 40
1.0
176
     0
1001
ACAD
1000
AcDbSavedByObjectVersion
1070
     0
  0
VISUALSTYLE
  5
38
102
{ACAD_REACTORS
330
29
102
}
330
29
100
AcDbVisualStyle
  2
Facepattern
 70
    15
177
     3
291
     1
 70
    58
 90
        2
176
     1
 90
        2
176
     1
 90
        0
176
     1
 90
        0
176
     1
 40
0.6
176
     1
 40
30.0
176
     1
 62
     7
420
 16777215
176
     1
 90
        1
176
     1
 90
        4
176
     1
 62
     7
176
     1
 62
   257
176
     1
 90
        1
176
     1
 90
        1
176
     1
 40
1.0
176
     1
 90
        8
176
     1
 62
     7
176
     1
 40
1.0
176
     1
 90
        1
176
     1
 90
        6
176
     1
 90
        2
176
     1
 62
     7
176
     1
 90
        5
176
     1
 90
        0
176
     1
 90
        0
176
     1
290
     0
176
     1
 90
        1
176
     1
 40
0.0
176
     1
 90
        0
176
     1
290
     0
176
     1
290
     1
176
     1
290
     1
176
     1
290
     0
176
     1
290
     0
176
     1
290
     0
176
     1
290
     0
176
     1
290
     0
176
     1
290
     0
176
     1
 90
       50
176
     1
 40
0.0
176
     1
 40
1.0
176
     1
 90
        0
176
     1
 62
    18
420
        0
176
     1
 90
       50
176
     1
 90
        3
176
     1
 62
     5
420
      255
176
     1
290
     0
176
     1
 90
       50
176
     1
 90
       50
176
     1
 90
       50
176
     1
290
     0
176
     1
 90
       50
176
     1
 62
   256
176
     0
 40
1.0
176
     0
 90
        2
176
     1
  1
strokes_ogs.tif
176
     1
290
     0
176
     1
 40
1.0
176
     1
 40
1.0
176
     1
1001
ACAD
1000
AcDbSavedByObjectVersion
1070
     0
  0
VISUALSTYLE
  5
2A
102
{ACAD_REACTORS
330
29
102
}
330
29
100
AcDbVisualStyle
  2
Flat
 70
     0
177
     3
291
     1
 70
    58
 90
        2
176
     1
 90
        1
176
     1
 90
        1
176
     1
 90
        2
176
     1
 40
0.6
176
     1
 40
30.0
176
     1
 62
     7
420
 16777215
176
     1
 90
        0
176
     1
 90
        0
176
     1
 62
     7
176
     1
 62
   257
176
     1
 90
        1
176
     1
 90
        1
176
     1
 40
1.0
176
     1
 90
        8
176
     1
 62
     7
176
     1
 40
1.0
176
     1
 90
        1
176
     1
 90
        6
176
     1
 90
        2
176
     1
 62
     7
176
     1
 90
        5
176
     1
 90
        0
176
     1
 90
        0
176
     1
290
     0
176
     1
 90
       13
176
     1
 40
0.0
176
     1
 90
        0
176
     1
290
     0
176
     1
290
     1
176
     1
290
     1
176
     1
290
     0
176
     1
290
     0
176
     1
290
     0
176
     1
290
     0
176
     1
290
     0
176
     1
290
     0
176
     1
 90
       50
176
     1
 40
0.0
176
     1
 40
1.0
176
     1
 90
        0
176
     1
 62
    18
420
        0
176
     1
 90
       50
176
     1
 90
        3
176
     1
 62
     5
420
      255
176
     1
290
     0
176
     1
 90
       50
176
     1
 90
       50
176
     1
 90
       50
176
     1
290
     0
176
     1
 90
       50
176
     1
 62
   256
176
     0
 40
1.0
176
     0
 90
        2
176
     1
  1
strokes_ogs.tif
176
     1
290
     0
176
     1
 40
1.0
176
     1
 40
1.0
176
     1
1001
ACAD
1000
AcDbSavedByObjectVersion
1070
     0
  0
VISUALSTYLE
  5
2B
102
{ACAD_REACTORS
330
29
102
}
330
29
100
AcDbVisualStyle
  2
FlatWithEdges
 70
     1
177
     3
291
     1
 70
    58
 90
        2
176
     1
 90
        1
176
     1
 90
        1
176
     1
 90
        2
176
     1
 40
0.6
176
     1
 40
30.0
176
     1
 62
     7
420
 16777215
176
     1
 90
        1
176
     1
 90
        0
176
     1
 62
     7
176
     1
 62
   257
176
     1
 90
        1
176
     1
 90
        1
176
     1
 40
1.0
176
     1
 90
        0
176
     1
 62
   257
176
     1
 40
1.0
176
     1
 90
        1
176
     1
 90
        6
176
     1
 90
        2
176
     1
 62
     7
176
     1
 90
        5
176
     1
 90
        0
176
     1
 90
        0
176
     1
290
     0
176
     1
 90
       13
176
     1
 40
0.0
176
     1
 90
        0
176
     1
290
     0
176
     1
290
     1
176
     1
290
     1
176
     1
290
     0
176
     1
290
     0
176
     1
290
     0
176
     1
290
     0
176
     1
290
     0
176
     1
290
     0
176
     1
 90
       50
176
     1
 40
0.0
176
     1
 40
1.0
176
     1
 90
        0
176
     1
 62
    18
420
        0
176
     1
 90
       50
176
     1
 90
        3
176
     1
 62
     5
420
      255
176
     1
290
     0
176
     1
 90
       50
176
     1
 90
       50
176
     1
 90
       50
176
     1
290
     0
176
     1
 90
       50
176
     1
 62
   256
176
     0
 40
1.0
176
     0
 90
        2
176
     1
  1
strokes_ogs.tif
176
     1
290
     0
176
     1
 40
1.0
176
     1
 40
1.0
176
     1
1001
ACAD
1000
AcDbSavedByObjectVersion
1070
     0
  0
VISUALSTYLE
  5
2C
102
{ACAD_REACTORS
330
29
102
}
330
29
100
AcDbVisualStyle
  2
Gouraud
 70
     2
177
     3
291
     1
 70
    58
 90
        2
176
     1
 90
        2
176
     1
 90
        1
176
     1
 90
        2
176
     1
 40
0.6
176
     1
 40
30.0
176
     1
 62
     7
420
 16777215
176
     1
 90
        0
176
     1
 90
        0
176
     1
 62
     7
176
     1
 62
   257
176
     1
 90
        1
176
     1
 90
        1
176
     1
 40
1.0
176
     1
 90
        0
176
     1
 62
     7
176
     1
 40
1.0
176
     1
 90
        1
176
     1
 90
        6
176
     1
 90
        2
176
     1
 62
     7
176
     1
 90
        5
176
     1
 90
        0
176
     1
 90
        0
176
     1
290
     0
176
     1
 90
       13
176
     1
 40
0.0
176
     1
 90
        0
176
     1
290
     0
176
     1
290
     1
176
     1
290
     1
176
     1
290
     0
176
     1
290
     0
176
     1
290
     0
176
     1
290
     0
176
     1
290
     0
176
     1
290
     0
176
     1
 90
       50
176
     1
 40
0.0
176
     1
 40
1.0
176
     1
 90
        0
176
     1
 62
    18
420
        0
176
     1
 90
       50
176
     1
 90
        3
176
     1
 62
     5
420
      255
176
     1
290
     0
176
     1
 90
       50
176
     1
 90
       50
176
     1
 90
       50
176
     1
290
     0
176
     1
 90
       50
176
     1
 62
   256
176
     0
 40
1.0
176
     0
 90
        2
176
     1
  1
strokes_ogs.tif
176
     1
290
     0
176
     1
 40
1.0
176
     1
 40
1.0
176
     1
1001
ACAD
1000
AcDbSavedByObjectVersion
1070
     0
  0
VISUALSTYLE
  5
2D
102
{ACAD_REACTORS
330
29
102
}
330
29
100
AcDbVisualStyle
  2
GouraudWithEdges
 70
     3
177
     3
291
     1
 70
    58
 90
        2
176
     1
 90
        2
176
     1
 90
        1
176
     1
 90
        2
176
     1
 40
0.6
176
     1
 40
30.0
176
     1
 62
     7
420
 16777215
176
     1
 90
        1
176
     1
 90
        0
176
     1
 62
     7
176
     1
 62
   257
176
     1
 90
        1
176
     1
 90
        1
176
     1
 40
1.0
176
     1
 90
        0
176
     1
 62
   257
176
     1
 40
1.0
176
     1
 90
        1
176
     1
 90
        6
176
     1
 90
        2
176
     1
 62
     7
176
     1
 90
        5
176
     1
 90
        0
176
     1
 90
        0
176
     1
290
     0
176
     1
 90
       13
176
     1
 40
0.0
176
     1
 90
        0
176
     1
290
     0
176
     1
290
     1
176
     1
290
     1
176
     1
290
     0
176
     1
290
     0
176
     1
290
     0
176
     1
290
     0
176
     1
290
     0
176
     1
290
     0
176
     1
 90
       50
176
     1
 40
0.0
176
     1
 40
1.0
176
     1
 90
        0
176
     1
 62
    18
420
        0
176
     1
 90
       50
176
     1
 90
        3
176
     1
 62
     5
420
      255
176
     1
290
     0
176
     1
 90
       50
176
     1
 90
       50
176
     1
 90
       50
176
     1
290
     0
176
     1
 90
       50
176
     1
 62
   256
176
     0
 40
1.0
176
     0
 90
        2
176
     1
  1
strokes_ogs.tif
176
     1
290
     0
176
     1
 40
1.0
176
     1
 40
1.0
176
     1
1001
ACAD
1000
AcDbSavedByObjectVersion
1070
     0
  0
VISUALSTYLE
  5
31
102
{ACAD_REACTORS
330
29
102
}
330
29
100
AcDbVisualStyle
  2
Hidden
 70
     6
177
     3
291
     0
 70
    58
 90
        1
176
     1
 90
        2
176
     1
 90
        2
176
     1
 90
        0
176
     1
 40
0.6
176
     1
 40
30.0
176
     1
 62
     7
420
 16777215
176
     1
 90
        2
176
     1
 90
        2
176
     1
 62
     7
176
     1
 62
   257
176
     1
 90
        2
176
     1
 90
        1
176
     1
 40
40.0
176
     1
 90
        0
176
     1
 62
   257
176
     1
 40
1.0
176
     1
 90
        1
176
     1
 90
        6
176
     1
 90
        2
176
     1
 62
     7
176
     1
 90
        3
176
     1
 90
        0
176
     1
 90
        0
176
     1
290
     0
176
     1
 90
        1
176
     1
 40
0.0
176
     1
 90
        0
176
     1
290
     0
176
     1
290
     1
176
     1
290
     1
176
     1
290
     0
176
     1
290
     0
176
     1
290
     0
176
     1
290
     0
176
     1
290
     0
176
     1
290
     0
176
     1
 90
       50
176
     1
 40
0.0
176
     1
 40
1.0
176
     1
 90
        0
176
     1
 62
    18
420
        0
176
     1
 90
       50
176
     1
 90
        3
176
     1
 62
     5
420
      255
176
     1
290
     0
176
     1
 90
       50
176
     1
 90
       50
176
     1
 90
       50
176
     1
290
     0
176
     1
 90
       50
176
     1
 62
   256
176
     0
 40
1.0
176
     0
 90
        2
176
     1
  1
strokes_ogs.tif
176
     1
290
     0
176
     1
 40
1.0
176
     1
 40
1.0
176
     1
1001
ACAD
1000
AcDbSavedByObjectVersion
1070
     0
  0
VISUALSTYLE
  5
3F
102
{ACAD_REACTORS
330
29
102
}
330
29
100
AcDbVisualStyle
  2
JitterOff
 70
    20
177
     3
291
     1
 70
    58
 90
        2
176
     0
 90
        2
176
     0
 90
        0
176
     0
 90
        0
176
     0
 40
0.6
176
     0
 40
30.0
176
     0
 62
     7
420
 16777215
176
     0
 90
        1
176
     0
 90
        4
176
     0
 62
     7
176
     0
 62
   257
176
     0
 90
        1
176
     0
 90
        1
176
     0
 40
1.0
176
     0
 90
       10
176
     2
 62
     7
176
     0
 40
1.0
176
     0
 90
        1
176
     0
 90
        6
176
     0
 90
        2
176
     0
 62
     7
176
     0
 90
        5
176
     0
 90
        0
176
     0
 90
        0
176
     0
290
     0
176
     0
 90
        1
176
     0
 40
0.0
176
     0
 90
        0
176
     0
290
     0
176
     0
290
     1
176
     0
290
     1
176
     0
290
     0
176
     0
290
     0
176
     0
290
     0
176
     0
290
     0
176
     0
290
     0
176
     0
290
     0
176
     0
 90
       50
176
     0
 40
0.0
176
     0
 40
1.0
176
     0
 90
        0
176
     0
 62
    18
420
        0
176
     0
 90
       50
176
     0
 90
        3
176
     0
 62
     5
420
      255
176
     0
290
     0
176
     0
 90
       50
176
     0
 90
       50
176
     0
 90
       50
176
     0
290
     0
176
     0
 90
       50
176
     0
 62
   256
176
     0
 40
1.0
176
     0
 90
        2
176
     0
  1
strokes_ogs.tif
176
     0
290
     0
176
     0
 40
1.0
176
     0
 40
1.0
176
     0
1001
ACAD
1000
AcDbSavedByObjectVersion
1070
     0
  0
VISUALSTYLE
  5
37
102
{ACAD_REACTORS
330
29
102
}
330
29
100
AcDbVisualStyle
  2
Linepattern
 70
    14
177
     3
291
     1
 70
    58
 90
        2
176
     1
 90
        2
176
     1
 90
        0
176
     1
 90
        0
176
     1
 40
0.6
176
     1
 40
30.0
176
     1
 62
     7
420
 16777215
176
     1
 90
        1
176
     1
 90
        4
176
     1
 62
     7
176
     1
 62
   257
176
     1
 90
        7
176
     1
 90
        7
176
     1
 40
1.0
176
     1
 90
        8
176
     1
 62
     7
176
     1
 40
1.0
176
     1
 90
        1
176
     1
 90
        6
176
     1
 90
        2
176
     1
 62
     7
176
     1
 90
        5
176
     1
 90
        0
176
     1
 90
        0
176
     1
290
     0
176
     1
 90
        1
176
     1
 40
0.0
176
     1
 90
        0
176
     1
290
     0
176
     1
290
     1
176
     1
290
     1
176
     1
290
     0
176
     1
290
     0
176
     1
290
     0
176
     1
290
     0
176
     1
290
     0
176
     1
290
     0
176
     1
 90
       50
176
     1
 40
0.0
176
     1
 40
1.0
176
     1
 90
        0
176
     1
 62
    18
420
        0
176
     1
 90
       50
176
     1
 90
        3
176
     1
 62
     5
420
      255
176
     1
290
     0
176
     1
 90
       50
176
     1
 90
       50
176
     1
 90
       50
176
     1
290
     0
176
     1
 90
       50
176
     1
 62
   256
176
     0
 40
1.0
176
     0
 90
        2
176
     1
  1
strokes_ogs.tif
176
     1
290
     0
176
     1
 40
1.0
176
     1
 40
1.0
176
     1
1001
ACAD
1000
AcDbSavedByObjectVersion
1070
     0
  0
VISUALSTYLE
  5
40
102
{ACAD_REACTORS
330
29
102
}
330
29
100
AcDbVisualStyle
  2
OverhangOff
 70
    21
177
     3
291
     1
 70
    58
 90
        2
176
     0
 90
        2
176
     0
 90
        0
176
     0
 90
        0
176
     0
 40
0.6
176
     0
 40
30.0
176
     0
 62
     7
420
 16777215
176
     0
 90
        1
176
     0
 90
        4
176
     0
 62
     7
176
     0
 62
   257
176
     0
 90
        1
176
     0
 90
        1
176
     0
 40
1.0
176
     0
 90
        9
176
     2
 62
     7
176
     0
 40
1.0
176
     0
 90
        1
176
     0
 90
        6
176
     0
 90
        2
176
     0
 62
     7
176
     0
 90
        5
176
     0
 90
        0
176
     0
 90
        0
176
     0
290
     0
176
     0
 90
        1
176
     0
 40
0.0
176
     0
 90
        0
176
     0
290
     0
176
     0
290
     1
176
     0
290
     1
176
     0
290
     0
176
     0
290
     0
176
     0
290
     0
176
     0
290
     0
176
     0
290
     0
176
     0
290
     0
176
     0
 90
       50
176
     0
 40
0.0
176
     0
 40
1.0
176
     0
 90
        0
176
     0
 62
    18
420
        0
176
     0
 90
       50
176
     0
 90
        3
176
     0
 62
     5
420
      255
176
     0
290
     0
176
     0
 90
       50
176
     0
 90
       50
176
     0
 90
       50
176
     0
290
     0
176
     0
 90
       50
176
     0
 62
   256
176
     0
 40
1.0
176
     0
 90
        2
176
     0
  1
strokes_ogs.tif
176
     0
290
     0
176
     0
 40
1.0
176
     0
 40
1.0
176
     0
1001
ACAD
1000
AcDbSavedByObjectVersion
1070
     0
  0
VISUALSTYLE
  5
33
102
{ACAD_REACTORS
330
29
102
}
330
29
100
AcDbVisualStyle
  2
Realistic
 70
     8
177
     3
291
     0
 70
    58
 90
        2
176
     1
 90
        3
176
     1
 90
        0
176
     1
 90
        2
176
     1
 40
0.6
176
     1
 40
30.0
176
     1
 62
     7
420
 16777215
176
     1
 90
        0
176
     1
 90
        0
176
     1
 62
     7
176
     1
 62
   257
176
     1
 90
        1
176
     1
 90
        1
176
     1
 40
1.0
176
     1
 90
        8
176
     1
 62
   257
176
     1
 40
1.0
176
     1
 90
        1
176
     1
 90
        6
176
     1
 90
        2
176
     1
 62
     7
176
     1
 90
        3
176
     1
 90
        0
176
     1
 90
        0
176
     1
290
     0
176
     1
 90
       13
176
     1
 40
0.0
176
     1
 90
        0
176
     1
290
     0
176
     1
290
     1
176
     1
290
     1
176
     1
290
     0
176
     1
290
     0
176
     1
290
     0
176
     1
290
     0
176
     1
290
     0
176
     1
290
     0
176
     1
 90
       50
176
     1
 40
0.0
176
     1
 40
1.0
176
     1
 90
        0
176
     1
 62
    18
420
        0
176
     1
 90
       50
176
     1
 90
        3
176
     1
 62
     5
420
      255
176
     1
290
     0
176
     1
 90
       50
176
     1
 90
       50
176
     1
 90
       50
176
     1
290
     0
176
     1
 90
       50
176
     1
 62
   256
176
     0
 40
1.0
176
     0
 90
        2
176
     1
  1
strokes_ogs.tif
176
     1
290
     0
176
     1
 40
1.0
176
     1
 40
1.0
176
     1
1001
ACAD
1000
AcDbSavedByObjectVersion
1070
     0
  0
VISUALSTYLE
  5
3E
102
{ACAD_REACTORS
330
29
102
}
330
29
100
AcDbVisualStyle
  2
Shaded
 70
    27
177
     3
291
     0
 70
    58
 90
        2
176
     1
 90
        2
176
     1
 90
        1
176
     1
 90
        2
176
     1
 40
0.6
176
     1
 40
30.0
176
     1
 62
     7
420
 16777215
176
     1
 90
        0
176
     1
 90
        4
176
     1
 62
     7
176
     1
 62
   257
176
     1
 90
        1
176
     1
 90
        1
176
     1
 40
1.0
176
     1
 90
        8
176
     1
 62
   257
176
     1
 40
1.0
176
     1
 90
        1
176
     1
 90
        6
176
     1
 90
        2
176
     1
 62
     8
420
  7895160
176
     1
 90
        3
176
     1
 90
        0
176
     1
 90
        0
176
     1
290
     0
176
     1
 90
        5
176
     1
 40
0.0
176
     1
 90
        0
176
     1
290
     0
176
     1
290
     1
176
     1
290
     1
176
     1
290
     0
176
     1
290
     0
176
     1
290
     0
176
     1
290
     0
176
     1
290
     0
176
     1
290
     0
176
     1
 90
       50
176
     1
 40
0.0
176
     1
 40
1.0
176
     1
 90
        0
176
     1
 62
    18
420
        0
176
     1
 90
       50
176
     1
 90
        3
176
     1
 62
     5
420
      255
176
     1
290
     0
176
     1
 90
       50
176
     1
 90
       50
176
     1
 90
       50
176
     1
290
     0
176
     1
 90
       50
176
     1
 62
   256
176
     0
 40
1.0
176
     0
 90
        2
176
     1
  1
strokes_ogs.tif
176
     1
290
     0
176
     1
 40
1.0
176
     1
 40
1.0
176
     1
1001
ACAD
1000
AcDbSavedByObjectVersion
1070
     0
  0
VISUALSTYLE
  5
3D
102
{ACAD_REACTORS
330
29
102
}
330
29
100
AcDbVisualStyle
  2
Shaded with edges
 70
    26
177
     3
291
     0
 70
    58
 90
        2
176
     1
 90
        2
176
     1
 90
        1
176
     1
 90
        2
176
     1
 40
0.6
176
     1
 40
30.0
176
     1
 62
     7
420
 16777215
176
     1
 90
        1
176
     1
 90
        2
176
     1
 62
     7
176
     1
 62
   257
176
     1
 90
        2
176
     1
 90
        1
176
     1
 40
1.0
176
     1
 90
        8
176
     1
 62
   257
176
     1
 40
1.0
176
     1
 90
        1
176
     1
 90
        6
176
     1
 90
        2
176
     1
 62
     7
176
     1
 90
        3
176
     1
 90
        0
176
     1
 90
        0
176
     1
290
     0
176
     1
 90
        5
176
     1
 40
0.0
176
     1
 90
        0
176
     1
290
     0
176
     1
290
     1
176
     1
290
     1
176
     1
290
     0
176
     1
290
     0
176
     1
290
     0
176
     1
290
     0
176
     1
290
     0
176
     1
290
     0
176
     1
 90
       50
176
     1
 40
0.0
176
     1
 40
1.0
176
     1
 90
        0
176
     1
 62
    18
420
        0
176
     1
 90
       50
176
     1
 90
        3
176
     1
 62
     5
420
      255
176
     1
290
     0
176
     1
 90
       50
176
     1
 90
       50
176
     1
 90
       50
176
     1
290
     0
176
     1
 90
       50
176
     1
 62
   256
176
     0
 40
1.0
176
     0
 90
        2
176
     1
  1
strokes_ogs.tif
176
     1
290
     0
176
     1
 40
1.0
176
     1
 40
1.0
176
     1
1001
ACAD
1000
AcDbSavedByObjectVersion
1070
     0
  0
VISUALSTYLE
  5
3A
102
{ACAD_REACTORS
330
29
102
}
330
29
100
AcDbVisualStyle
  2
Shades of Gray
 70
    23
177
     3
291
     0
 70
    58
 90
        2
176
     1
 90
        2
176
     1
 90
        3
176
     1
 90
        0
176
     1
 40
0.6
176
     1
 40
30.0
176
     1
 62
     7
420
 16777215
176
     1
 90
        2
176
     1
 90
        2
176
     1
 62
     7
176
     1
 62
     7
176
     1
 90
        1
176
     1
 90
        1
176
     1
 40
40.0
176
     1
 90
        8
176
     1
 62
     7
176
     1
 40
1.0
176
     1
 90
        1
176
     1
 90
        6
176
     1
 90
        2
176
     1
 62
     7
176
     1
 90
        3
176
     1
 90
        0
176
     1
 90
        0
176
     1
290
     0
176
     1
 90
        1
176
     1
 40
0.0
176
     1
 90
        0
176
     1
290
     0
176
     1
290
     1
176
     1
290
     1
176
     1
290
     0
176
     1
290
     0
176
     1
290
     0
176
     1
290
     0
176
     1
290
     0
176
     1
290
     0
176
     1
 90
       50
176
     1
 40
0.0
176
     1
 40
1.0
176
     1
 90
        0
176
     1
 62
    18
420
        0
176
     1
 90
       50
176
     1
 90
        3
176
     1
 62
     5
420
      255
176
     1
290
     0
176
     1
 90
       50
176
     1
 90
       50
176
     1
 90
       50
176
     1
290
     0
176
     1
 90
       50
176
     1
 62
   256
176
     0
 40
1.0
176
     0
 90
        2
176
     1
  1
strokes_ogs.tif
176
     1
290
     0
176
     1
 40
1.0
176
     1
 40
1.0
176
     1
1001
ACAD
1000
AcDbSavedByObjectVersion
1070
     0
  0
VISUALSTYLE
  5
3B
102
{ACAD_REACTORS
330
29
102
}
330
29
100
AcDbVisualStyle
  2
Sketchy
 70
    24
177
     3
291
     0
 70
    58
 90
        1
176
     1
 90
        2
176
     1
 90
        2
176
     1
 90
        0
176
     1
 40
0.6
176
     1
 40
30.0
176
     1
 62
     7
420
 16777215
176
     1
 90
        2
176
     1
 90
        2
176
     1
 62
     7
176
     1
 62
     7
176
     1
 90
        1
176
     1
 90
        1
176
     1
 40
40.0
176
     1
 90
       11
176
     1
 62
     7
176
     1
 40
1.0
176
     1
 90
        1
176
     1
 90
        6
176
     1
 90
        2
176
     1
 62
     7
176
     1
 90
        6
176
     1
 90
        0
176
     1
 90
        0
176
     1
290
     0
176
     1
 90
        1
176
     1
 40
0.0
176
     1
 90
        0
176
     1
290
     0
176
     1
290
     1
176
     1
290
     1
176
     1
290
     0
176
     1
290
     0
176
     1
290
     0
176
     1
290
     0
176
     1
290
     0
176
     1
290
     0
176
     1
 90
       50
176
     1
 40
0.0
176
     1
 40
1.0
176
     1
 90
        0
176
     1
 62
    18
420
        0
176
     1
 90
       50
176
     1
 90
        3
176
     1
 62
     5
420
      255
176
     1
290
     0
176
     1
 90
       50
176
     1
 90
       50
176
     1
 90
       50
176
     1
290
     0
176
     1
 90
       50
176
     1
 62
   256
176
     0
 40
1.0
176
     0
 90
        2
176
     1
  1
strokes_ogs.tif
176
     1
290
     0
176
     1
 40
1.0
176
     1
 40
1.0
176
     1
1001
ACAD
1000
AcDbSavedByObjectVersion
1070
     0
  0
VISUALSTYLE
  5
36
102
{ACAD_REACTORS
330
29
102
}
330
29
100
AcDbVisualStyle
  2
Thicken
 70
    13
177
     3
291
     1
 70
    58
 90
        2
176
     1
 90
        2
176
     1
 90
        0
176
     1
 90
        0
176
     1
 40
0.6
176
     1
 40
30.0
176
     1
 62
     7
420
 16777215
176
     1
 90
        1
176
     1
 90
        4
176
     1
 62
     7
176
     1
 62
   257
176
     1
 90
        1
176
     1
 90
        1
176
     1
 40
1.0
176
     1
 90
       12
176
     1
 62
     7
176
     1
 40
1.0
176
     1
 90
        1
176
     1
 90
        6
176
     1
 90
        2
176
     1
 62
     7
176
     1
 90
        5
176
     1
 90
        0
176
     1
 90
        0
176
     1
290
     0
176
     1
 90
        1
176
     1
 40
0.0
176
     1
 90
        0
176
     1
290
     0
176
     1
290
     1
176
     1
290
     1
176
     1
290
     0
176
     1
290
     0
176
     1
290
     0
176
     1
290
     0
176
     1
290
     0
176
     1
290
     0
176
     1
 90
       50
176
     1
 40
0.0
176
     1
 40
1.0
176
     1
 90
        0
176
     1
 62
    18
420
        0
176
     1
 90
       50
176
     1
 90
        3
176
     1
 62
     5
420
      255
176
     1
290
     0
176
     1
 90
       50
176
     1
 90
       50
176
     1
 90
       50
176
     1
290
     0
176
     1
 90
       50
176
     1
 62
   256
176
     0
 40
1.0
176
     0
 90
        2
176
     1
  1
strokes_ogs.tif
176
     1
290
     0
176
     1
 40
1.0
176
     1
 40
1.0
176
     1
1001
ACAD
1000
AcDbSavedByObjectVersion
1070
     0
  0
VISUALSTYLE
  5
30
102
{ACAD_REACTORS
330
29
102
}
330
29
100
AcDbVisualStyle
  2
Wireframe
 70
     5
177
     3
291
     0
 70
    58
 90
        0
176
     1
 90
        2
176
     1
 90
        0
176
     1
 90
        0
176
     1
 40
0.6
176
     1
 40
30.0
176
     1
 62
     7
420
 16777215
176
     1
 90
        1
176
     1
 90
        4
176
     1
 62
     7
176
     1
 62
   257
176
     1
 90
        1
176
     1
 90
        1
176
     1
 40
1.0
176
     1
 90
        0
176
     1
 62
   257
176
     1
 40
1.0
176
     1
 90
        1
176
     1
 90
        6
176
     1
 90
        2
176
     1
 62
     7
176
     1
 90
        3
176
     1
 90
        0
176
     1
 90
        0
176
     1
290
     0
176
     1
 90
        1
176
     1
 40
0.0
176
     1
 90
        0
176
     1
290
     0
176
     1
290
     1
176
     1
290
     1
176
     1
290
     0
176
     1
290
     0
176
     1
290
     0
176
     1
290
     0
176
     1
290
     0
176
     1
290
     0
176
     1
 90
       50
176
     1
 40
0.0
176
     1
 40
1.0
176
     1
 90
        0
176
     1
 62
    18
420
        0
176
     1
 90
       50
176
     1
 90
        3
176
     1
 62
     5
420
      255
176
     1
290
     0
176
     1
 90
       50
176
     1
 90
       50
176
     1
 90
       50
176
     1
290
     0
176
     1
 90
       50
176
     1
 62
   256
176
     0
 40
1.0
176
     0
 90
        2
176
     1
  1
strokes_ogs.tif
176
     1
290
     0
176
     1
 40
1.0
176
     1
 40
1.0
176
     1
1001
ACAD
1000
AcDbSavedByObjectVersion
1070
     0
  0
VISUALSTYLE
  5
3C
102
{ACAD_REACTORS
330
29
102
}
330
29
100
AcDbVisualStyle
  2
X-Ray
 70
    25
177
     3
291
     0
 70
    58
 90
        2
176
     1
 90
        2
176
     1
 90
        1
176
     1
 90
        1
176
     1
 40
0.5
176
     1
 40
30.0
176
     1
 62
     7
420
 16777215
176
     1
 90
        1
176
     1
 90
        0
176
     1
 62
     7
176
     1
 62
   257
176
     1
 90
        1
176
     1
 90
        1
176
     1
 40
1.0
176
     1
 90
        8
176
     1
 62
     7
176
     1
 40
1.0
176
     1
 90
        1
176
     1
 90
        6
176
     1
 90
        2
176
     1
 62
     7
176
     1
 90
        3
176
     1
 90
        0
176
     1
 90
        0
176
     1
290
     0
176
     1
 90
       13
176
     1
 40
0.0
176
     1
 90
        0
176
     1
290
     0
176
     1
290
     1
176
     1
290
     1
176
     1
290
     0
176
     1
290
     0
176
     1
290
     0
176
     1
290
     0
176
     1
290
     0
176
     1
290
     0
176
     1
 90
       50
176
     1
 40
0.0
176
     1
 40
1.0
176
     1
 90
        0
176
     1
 62
    18
420
        0
176
     1
 90
       50
176
     1
 90
        3
176
     1
 62
     5
420
      255
176
     1
290
     0
176
     1
 90
       50
176
     1
 90
       50
176
     1
 90
       50
176
     1
290
     0
176
     1
 90
       50
176
     1
 62
   256
176
     0
 40
1.0
176
     0
 90
        2
176
     1
  1
strokes_ogs.tif
176
     1
290
     0
176
     1
 40
1.0
176
     1
 40
1.0
176
     1
1001
ACAD
1000
AcDbSavedByObjectVersion
1070
     0
  0
DICTIONARYVAR
  5
8E
102
{ACAD_REACTORS
330
89
102
}
330
89
100
DictionaryVariables
280
     0
  1
1:1
  0
DICTIONARYVAR
  5
8B
102
{ACAD_REACTORS
330
89
102
}
330
89
100
DictionaryVariables
280
     0
  1
STANDARD
  0
DICTIONARYVAR
  5
8A
102
{ACAD_REACTORS
330
89
102
}
330
89
100
DictionaryVariables
280
     0
  1
STANDARD
  0
DICTIONARYVAR
  5
8C
102
{ACAD_REACTORS
330
89
102
}
330
89
100
DictionaryVariables
280
     0
  1
Imperial24
  0
DICTIONARYVAR
  5
8D
102
{ACAD_REACTORS
330
89
102
}
330
89
100
DictionaryVariables
280
     0
  1
Imperial24
  0
DICTIONARY
  5
94
330
6B
100
AcDbDictionary
280
     1
281
     1
  3
ACAD_XREC_ROUNDTRIP
360
95
  0
DICTIONARY
  5
1A
330
19
100
AcDbDictionary
280
     1
281
     1
  3
BUMPTILE
360
1C
  3
DIFFUSETILE
360
1B
  3
OPACITYTILE
360
1F
  3
REFLECTIONTILE
360
1E
  3
REFRACTIONTILE
360
20
  3
SPECULARTILE
360
1D
  0
DICTIONARY
  5
12
330
11
100
AcDbDictionary
280
     1
281
     1
  3
BUMPTILE
360
14
  3
DIFFUSETILE
360
13
  3
OPACITYTILE
360
17
  3
REFLECTIONTILE
360
16
  3
REFRACTIONTILE
360
18
  3
SPECULARTILE
360
15
  0
DICTIONARY
  5
22
330
21
100
AcDbDictionary
280
     1
281
     1
  3
BUMPTILE
360
24
  3
DIFFUSETILE
360
23
  3
OPACITYTILE
360
27
  3
REFLECTIONTILE
360
26
  3
REFRACTIONTILE
360
28
  3
SPECULARTILE
360
25
  0
DICTIONARY
  5
92
330
69
100
AcDbDictionary
280
     1
281
     1
  3
ACAD_XREC_ROUNDTRIP
360
93
  0
DICTIONARY
  5
8F
330
65
100
AcDbDictionary
280
     1
281
     1
  3
ACAD_ROUNDTRIP_2008_TABLESTYLE_CELLSTYLEMAP
360
90
  0
XRECORD
  5
95
102
{ACAD_REACTORS
330
94
102
}
330
94
100
AcDbXrecord
280
     1
102
DISPLAYNAME
  1
Imperial24
102
FLAGS
 90
        0
  0
XRECORD
  5
1C
102
{ACAD_REACTORS
330
1A
102
}
330
1A
100
AcDbXrecord
280
     1
270
     1
271
     1
  0
XRECORD
  5
1B
102
{ACAD_REACTORS
330
1A
102
}
330
1A
100
AcDbXrecord
280
     1
270
     1
271
     1
  0
XRECORD
  5
1F
102
{ACAD_REACTORS
330
1A
102
}
330
1A
100
AcDbXrecord
280
     1
270
     1
271
     1
  0
XRECORD
  5
1E
102
{ACAD_REACTORS
330
1A
102
}
330
1A
100
AcDbXrecord
280
     1
270
     1
271
     1
  0
XRECORD
  5
20
102
{ACAD_REACTORS
330
1A
102
}
330
1A
100
AcDbXrecord
280
     1
270
     1
271
     1
  0
XRECORD
  5
1D
102
{ACAD_REACTORS
330
1A
102
}
330
1A
100
AcDbXrecord
280
     1
270
     1
271
     1
  0
XRECORD
  5
14
102
{ACAD_REACTORS
330
12
102
}
330
12
100
AcDbXrecord
280
     1
270
     1
271
     1
  0
XRECORD
  5
13
102
{ACAD_REACTORS
330
12
102
}
330
12
100
AcDbXrecord
280
     1
270
     1
271
     1
  0
XRECORD
  5
17
102
{ACAD_REACTORS
330
12
102
}
330
12
100
AcDbXrecord
280
     1
270
     1
271
     1
  0
XRECORD
  5
16
102
{ACAD_REACTORS
330
12
102
}
330
12
100
AcDbXrecord
280
     1
270
     1
271
     1
  0
XRECORD
  5
18
102
{ACAD_REACTORS
330
12
102
}
330
12
100
AcDbXrecord
280
     1
270
     1
271
     1
  0
XRECORD
  5
15
102
{ACAD_REACTORS
330
12
102
}
330
12
100
AcDbXrecord
280
     1
270
     1
271
     1
  0
XRECORD
  5
24
102
{ACAD_REACTORS
330
22
102
}
330
22
100
AcDbXrecord
280
     1
270
     1
271
     1
  0
XRECORD
  5
23
102
{ACAD_REACTORS
330
22
102
}
330
22
100
AcDbXrecord
280
     1
270
     1
271
     1
  0
XRECORD
  5
27
102
{ACAD_REACTORS
330
22
102
}
330
22
100
AcDbXrecord
280
     1
270
     1
271
     1
  0
XRECORD
  5
26
102
{ACAD_REACTORS
330
22
102
}
330
22
100
AcDbXrecord
280
     1
270
     1
271
     1
  0
XRECORD
  5
28
102
{ACAD_REACTORS
330
22
102
}
330
22
100
AcDbXrecord
280
     1
270
     1
271
     1
  0
XRECORD
  5
25
102
{ACAD_REACTORS
330
22
102
}
330
22
100
AcDbXrecord
280
     1
270
     1
271
     1
  0
XRECORD
  5
93
102
{ACAD_REACTORS
330
92
102
}
330
92
100
AcDbXrecord
280
     1
102
DISPLAYNAME
  1
Imperial24
102
FLAGS
 90
        0
  0
CELLSTYLEMAP
  5
90
102
{ACAD_REACTORS
330
8F
102
}
330
8F
100
AcDbCellStyleMap
 90
        3
300
CELLSTYLE
  1
TABLEFORMAT_BEGIN
 90
        5
170
     1
 91
        0
 92
    32768
 62
   257
 93
        1
300
CONTENTFORMAT
  1
CONTENTFORMAT_BEGIN
 90
        0
 91
        0
 92
      512
 93
        0
300

 40
0.0
140
1.0
 94
        5
 62
     0
340
55
144
0.25
309
CONTENTFORMAT_END
171
     0
 94
        0
309
TABLEFORMAT_END
  1
CELLSTYLE_BEGIN
 90
        1
 91
        1
300
_TITLE
309
CELLSTYLE_END
300
CELLSTYLE
  1
TABLEFORMAT_BEGIN
 90
        5
170
     1
 91
        0
 92
        0
 62
   257
 93
        1
300
CONTENTFORMAT
  1
CONTENTFORMAT_BEGIN
 90
        0
 91
        0
 92
      512
 93
        0
300

 40
0.0
140
1.0
 94
        5
 62
     0
340
55
144
0.18
309
CONTENTFORMAT_END
171
     0
 94
        0
309
TABLEFORMAT_END
  1
CELLSTYLE_BEGIN
 90
        2
 91
        1
300
_HEADER
309
CELLSTYLE_END
300
CELLSTYLE
  1
TABLEFORMAT_BEGIN
 90
        5
170
     1
 91
        0
 92
        0
 62
   257
 93
        1
300
CONTENTFORMAT
  1
CONTENTFORMAT_BEGIN
 90
        0
 91
        0
 92
      512
 93
        0
300

 40
0.0
140
1.0
 94
        2
 62
     0
340
55
144
0.18
309
CONTENTFORMAT_END
171
     0
 94
        0
309
TABLEFORMAT_END
  1
CELLSTYLE_BEGIN
 90
        3
 91
        2
300
_DATA
309
CELLSTYLE_END
  0
ENDSEC
  0
EOF
