  0
SECTION
  2
HEADER
  9
$ACADVER
  1
AC1027
  9
$ACADMAINTVER
 70
   125
  9
$DWGCODEPAGE
  3
ANSI_1251
  9
$REQUIREDVERSIONS
160
                 0
  9
$INSBASE
 10
0.0
 20
0.0
 30
0.0
  9
$EXTMIN
 10
1.000000000000000E+20
 20
1.000000000000000E+20
 30
1.000000000000000E+20
  9
$EXTMAX
 10
-1.000000000000000E+20
 20
-1.000000000000000E+20
 30
-1.000000000000000E+20
  9
$LIMMIN
 10
0.0
 20
0.0
  9
$LIMMAX
 10
12.0
 20
9.0
  9
$ORTHOMODE
 70
     0
  9
$REGENMODE
 70
     1
  9
$FILLMODE
 70
     1
  9
$QTEXTMODE
 70
     0
  9
$MIRRTEXT
 70
     0
  9
$LTSCALE
 40
1.0
  9
$ATTMODE
 70
     1
  9
$TEXTSIZE
 40
0.2
  9
$TRACEWID
 40
0.05
  9
$TEXTSTYLE
  7
Standard
  9
$CLAYER
  8
0
  9
$CELTYPE
  6
ByLayer
  9
$CECOLOR
 62
   256
  9
$CELTSCALE
 40
1.0
  9
$DISPSILH
 70
     0
  9
$DIMSCALE
 40
1.0
  9
$DIMASZ
 40
0.18
  9
$DIMEXO
 40
0.0625
  9
$DIMDLI
 40
0.38
  9
$DIMRND
 40
0.0
  9
$DIMDLE
 40
0.0
  9
$DIMEXE
 40
0.18
  9
$DIMTP
 40
0.0
  9
$DIMTM
 40
0.0
  9
$DIMTXT
 40
0.18
  9
$DIMCEN
 40
0.09
  9
$DIMTSZ
 40
0.0
  9
$DIMTOL
 70
     0
  9
$DIMLIM
 70
     0
  9
$DIMTIH
 70
     1
  9
$DIMTOH
 70
     1
  9
$DIMSE1
 70
     0
  9
$DIMSE2
 70
     0
  9
$DIMTAD
 70
     0
  9
$DIMZIN
 70
     0
  9
$DIMBLK
  1

  9
$DIMASO
 70
     1
  9
$DIMSHO
 70
     1
  9
$DIMPOST
  1

  9
$DIMAPOST
  1

  9
$DIMALT
 70
     0
  9
$DIMALTD
 70
     2
  9
$DIMALTF
 40
25.4
  9
$DIMLFAC
 40
1.0
  9
$DIMTOFL
 70
     0
  9
$DIMTVP
 40
0.0
  9
$DIMTIX
 70
     0
  9
$DIMSOXD
 70
     0
  9
$DIMSAH
 70
     0
  9
$DIMBLK1
  1

  9
$DIMBLK2
  1

  9
$DIMSTYLE
  2
Standard
  9
$DIMCLRD
 70
     0
  9
$DIMCLRE
 70
     0
  9
$DIMCLRT
 70
     0
  9
$DIMTFAC
 40
1.0
  9
$DIMGAP
 40
0.09
  9
$DIMJUST
 70
     0
  9
$DIMSD1
 70
     0
  9
$DIMSD2
 70
     0
  9
$DIMTOLJ
 70
     1
  9
$DIMTZIN
 70
     0
  9
$DIMALTZ
 70
     0
  9
$DIMALTTZ
 70
     0
  9
$DIMUPT
 70
     0
  9
$DIMDEC
 70
     4
  9
$DIMTDEC
 70
     4
  9
$DIMALTU
 70
     2
  9
$DIMALTTD
 70
     2
  9
$DIMTXSTY
  7
Standard
  9
$DIMAUNIT
 70
     0
  9
$DIMADEC
 70
     0
  9
$DIMALTRND
 40
0.0
  9
$DIMAZIN
 70
     0
  9
$DIMDSEP
 70
    46
  9
$DIMATFIT
 70
     3
  9
$DIMFRAC
 70
     0
  9
$DIMLDRBLK
  1

  9
$DIMLUNIT
 70
     2
  9
$DIMLWD
 70
    -2
  9
$DIMLWE
 70
    -2
  9
$DIMTMOVE
 70
     0
  9
$DIMFXL
 40
1.0
  9
$DIMFXLON
 70
     0
  9
$DIMJOGANG
 40
0.7853981633974483
  9
$DIMTFILL
 70
     0
  9
$DIMTFILLCLR
 70
     0
  9
$DIMARCSYM
 70
     0
  9
$DIMLTYPE
  6

  9
$DIMLTEX1
  6

  9
$DIMLTEX2
  6

  9
$DIMTXTDIRECTION
 70
     0
  9
$LUNITS
 70
     2
  9
$LUPREC
 70
     4
  9
$SKETCHINC
 40
0.1
  9
$FILLETRAD
 40
0.0
  9
$AUNITS
 70
     0
  9
$AUPREC
 70
     0
  9
$MENU
  1
.
  9
$ELEVATION
 40
0.0
  9
$PELEVATION
 40
0.0
  9
$THICKNESS
 40
0.0
  9
$LIMCHECK
 70
     0
  9
$CHAMFERA
 40
0.0
  9
$CHAMFERB
 40
0.0
  9
$CHAMFERC
 40
0.0
  9
$CHAMFERD
 40
0.0
  9
$SKPOLY
 70
     0
  9
$TDCREATE
 40
2459954.680023148
  9
$TDUCREATE
 40
2459954.596689815
  9
$TDUPDATE
 40
2459954.680023148
  9
$TDUUPDATE
 40
2459954.596689815
  9
$TDINDWG
 40
0.0000000000
  9
$TDUSRTIMER
 40
0.0000000000
  9
$USRTIMER
 70
     1
  9
$ANGBASE
 50
0.0
  9
$ANGDIR
 70
     0
  9
$PDMODE
 70
     0
  9
$PDSIZE
 40
0.0
  9
$PLINEWID
 40
0.0
  9
$SPLFRAME
 70
     0
  9
$SPLINETYPE
 70
     6
  9
$SPLINESEGS
 70
     8
  9
$HANDSEED
  5
8F
  9
$SURFTAB1
 70
     6
  9
$SURFTAB2
 70
     6
  9
$SURFTYPE
 70
     6
  9
$SURFU
 70
     6
  9
$SURFV
 70
     6
  9
$UCSBASE
  2

  9
$UCSNAME
  2

  9
$UCSORG
 10
0.0
 20
0.0
 30
0.0
  9
$UCSXDIR
 10
1.0
 20
0.0
 30
0.0
  9
$UCSYDIR
 10
0.0
 20
1.0
 30
0.0
  9
$UCSORTHOREF
  2

  9
$UCSORTHOVIEW
 70
     0
  9
$UCSORGTOP
 10
0.0
 20
0.0
 30
0.0
  9
$UCSORGBOTTOM
 10
0.0
 20
0.0
 30
0.0
  9
$UCSORGLEFT
 10
0.0
 20
0.0
 30
0.0
  9
$UCSORGRIGHT
 10
0.0
 20
0.0
 30
0.0
  9
$UCSORGFRONT
 10
0.0
 20
0.0
 30
0.0
  9
$UCSORGBACK
 10
0.0
 20
0.0
 30
0.0
  9
$PUCSBASE
  2

  9
$PUCSNAME
  2

  9
$PUCSORG
 10
0.0
 20
0.0
 30
0.0
  9
$PUCSXDIR
 10
1.0
 20
0.0
 30
0.0
  9
$PUCSYDIR
 10
0.0
 20
1.0
 30
0.0
  9
$PUCSORTHOREF
  2

  9
$PUCSORTHOVIEW
 70
     0
  9
$PUCSORGTOP
 10
0.0
 20
0.0
 30
0.0
  9
$PUCSORGBOTTOM
 10
0.0
 20
0.0
 30
0.0
  9
$PUCSORGLEFT
 10
0.0
 20
0.0
 30
0.0
  9
$PUCSORGRIGHT
 10
0.0
 20
0.0
 30
0.0
  9
$PUCSORGFRONT
 10
0.0
 20
0.0
 30
0.0
  9
$PUCSORGBACK
 10
0.0
 20
0.0
 30
0.0
  9
$USERI1
 70
     0
  9
$USERI2
 70
     0
  9
$USERI3
 70
     0
  9
$USERI4
 70
     0
  9
$USERI5
 70
     0
  9
$USERR1
 40
0.0
  9
$USERR2
 40
0.0
  9
$USERR3
 40
0.0
  9
$USERR4
 40
0.0
  9
$USERR5
 40
0.0
  9
$WORLDVIEW
 70
     1
  9
$SHADEDGE
 70
     3
  9
$SHADEDIF
 70
    70
  9
$TILEMODE
 70
     1
  9
$MAXACTVP
 70
    64
  9
$PINSBASE
 10
0.0
 20
0.0
 30
0.0
  9
$PLIMCHECK
 70
     0
  9
$PEXTMIN
 10
1.000000000000000E+20
 20
1.000000000000000E+20
 30
1.000000000000000E+20
  9
$PEXTMAX
 10
-1.000000000000000E+20
 20
-1.000000000000000E+20
 30
-1.000000000000000E+20
  9
$PLIMMIN
 10
0.0
 20
0.0
  9
$PLIMMAX
 10
12.0
 20
9.0
  9
$UNITMODE
 70
     0
  9
$VISRETAIN
 70
     1
  9
$PLINEGEN
 70
     0
  9
$PSLTSCALE
 70
     1
  9
$TREEDEPTH
 70
  3020
  9
$CMLSTYLE
  2
Standard
  9
$CMLJUST
 70
     0
  9
$CMLSCALE
 40
1.0
  9
$PROXYGRAPHICS
 70
     1
  9
$MEASUREMENT
 70
     0
  9
$CELWEIGHT
370
    -1
  9
$ENDCAPS
280
     0
  9
$JOINSTYLE
280
     0
  9
$LWDISPLAY
290
     1
  9
$INSUNITS
 70
     1
  9
$HYPERLINKBASE
  1

  9
$STYLESHEET
  1

  9
$XEDIT
290
     1
  9
$CEPSNTYPE
380
     0
  9
$PSTYLEMODE
290
     1
  9
$FINGERPRINTGUID
  2
{A56DEF21-72EF-2F4C-ACC6-3B7E1B5EDE74}
  9
$VERSIONGUID
  2
{B4DF3E09-9084-7D42-AACC-DF35F2492651}
  9
$EXTNAMES
290
     1
  9
$PSVPSCALE
 40
0.0
  9
$OLESTARTUP
290
     0
  9
$SORTENTS
280
   127
  9
$INDEXCTL
280
     0
  9
$HIDETEXT
280
     1
  9
$XCLIPFRAME
280
     2
  9
$HALOGAP
280
     0
  9
$OBSCOLOR
 70
   257
  9
$OBSLTYPE
280
     0
  9
$INTERSECTIONDISPLAY
280
     0
  9
$INTERSECTIONCOLOR
 70
   257
  9
$DIMASSOC
280
     2
  9
$PROJECTNAME
  1

  9
$CAMERADISPLAY
290
     0
  9
$LENSLENGTH
 40
50.0
  9
$CAMERAHEIGHT
 40
0.0
  9
$STEPSPERSEC
 40
2.0
  9
$STEPSIZE
 40
6.0
  9
$3DDWFPREC
 40
2.0
  9
$PSOLWIDTH
 40
0.25
  9
$PSOLHEIGHT
 40
4.0
  9
$LOFTANG1
 40
1.570796326794896
  9
$LOFTANG2
 40
1.570796326794896
  9
$LOFTMAG1
 40
0.0
  9
$LOFTMAG2
 40
0.0
  9
$LOFTPARAM
 70
     7
  9
$LOFTNORMALS
280
     1
  9
$LATITUDE
 40
37.795
  9
$LONGITUDE
 40
-122.394
  9
$NORTHDIRECTION
 40
0.0
  9
$TIMEZONE
 70
 -8000
  9
$LIGHTGLYPHDISPLAY
280
     1
  9
$TILEMODELIGHTSYNCH
280
     1
  9
$CMATERIAL
347
11
  9
$SOLIDHIST
280
     0
  9
$SHOWHIST
280
     1
  9
$DWFFRAME
280
     2
  9
$DGNFRAME
280
     0
  9
$REALWORLDSCALE
290
     1
  9
$INTERFERECOLOR
 62
     1
  9
$INTERFEREOBJVS
345
33
  9
$INTERFEREVPVS
346
30
  9
$CSHADOW
280
     0
  9
$SHADOWPLANELOCATION
 40
0.0
  0
ENDSEC
  0
SECTION
  2
CLASSES
  0
CLASS
  1
ACDBDICTIONARYWDFLT
  2
AcDbDictionaryWithDefault
  3
ObjectDBX Classes
 90
        0
 91
        1
280
     0
281
     0
  0
CLASS
  1
MATERIAL
  2
AcDbMaterial
  3
ObjectDBX Classes
 90
     1153
 91
        3
280
     0
281
     0
  0
CLASS
  1
VISUALSTYLE
  2
AcDbVisualStyle
  3
ObjectDBX Classes
 90
     4095
 91
       24
280
     0
281
     0
  0
CLASS
  1
SCALE
  2
AcDbScale
  3
ObjectDBX Classes
 90
     1153
 91
       17
280
     0
281
     0
  0
CLASS
  1
TABLESTYLE
  2
AcDbTableStyle
  3
ObjectDBX Classes
 90
     4095
 91
        1
280
     0
281
     0
  0
CLASS
  1
MLEADERSTYLE
  2
AcDbMLeaderStyle
  3
ACDB_MLEADERSTYLE_CLASS
 90
     4095
 91
        1
280
     0
281
     0
  0
CLASS
  1
ACDBSECTIONVIEWSTYLE
  2
AcDbSectionViewStyle
  3
ObjectDBX Classes
 90
     1025
 91
        1
280
     0
281
     0
  0
CLASS
  1
ACDBDETAILVIEWSTYLE
  2
AcDbDetailViewStyle
  3
ObjectDBX Classes
 90
     1025
 91
        1
280
     0
281
     0
  0
CLASS
  1
DICTIONARYVAR
  2
AcDbDictionaryVar
  3
ObjectDBX Classes
 90
        0
 91
        5
280
     0
281
     0
  0
CLASS
  1
CELLSTYLEMAP
  2
AcDbCellStyleMap
  3
ObjectDBX Classes
 90
     1152
 91
        1
280
     0
281
     0
  0
ENDSEC
  0
SECTION
  2
TABLES
  0
TABLE
  2
VPORT
  5
8
330
0
100
AcDbSymbolTable
 70
     1
1001
ACAD
1000
DbSaveVer
1071
      278
  0
VPORT
  5
57
330
8
100
AcDbSymbolTableRecord
100
AcDbViewportTableRecord
  2
*Active
 70
     0
 10
0.0
 20
0.0
 11
1.0
 21
1.0
 12
0.0
 22
0.0
 13
0.0
 23
0.0
 14
1.0
 24
1.0
 15
0.0
 25
0.0
 16
0.0
 26
0.0
 36
1.0
 17
79.88888888888888
 27
-50.33333333333333
 37
0.0
 40
12.24
 41
1.000000000000004
 42
50.0
 43
0.0
 44
0.0
 50
0.0
 51
0.0
 71
     0
 72
   100
 73
     1
 74
     1
 75
     0
 76
     0
 77
     0
 78
     0
281
     0
 65
     1
110
0.0
120
0.0
130
0.0
111
1.0
121
0.0
131
0.0
112
0.0
122
1.0
132
0.0
 79
     0
146
0.0
 60
     3
 61
     5
292
     1
282
     1
141
0.0
142
0.0
 63
   250
421
  3355443
  0
ENDTAB
  0
TABLE
  2
LTYPE
  5
5
330
0
100
AcDbSymbolTable
 70
     1
  0
LTYPE
  5
5B
330
5
100
AcDbSymbolTableRecord
100
AcDbLinetypeTableRecord
  2
ByBlock
 70
     0
  3

 72
    65
 73
     0
 40
0.0
  0
LTYPE
  5
5C
330
5
100
AcDbSymbolTableRecord
100
AcDbLinetypeTableRecord
  2
ByLayer
 70
     0
  3

 72
    65
 73
     0
 40
0.0
  0
LTYPE
  5
5D
330
5
100
AcDbSymbolTableRecord
100
AcDbLinetypeTableRecord
  2
Continuous
 70
     0
  3
Solid line
 72
    65
 73
     0
 40
0.0
  0
ENDTAB
  0
TABLE
  2
LAYER
  5
2
330
0
100
AcDbSymbolTable
 70
     2
  0
LAYER
  5
54
330
2
100
AcDbSymbolTableRecord
100
AcDbLayerTableRecord
  2
0
 70
     0
 62
     7
  6
Continuous
370
    -3
390
F
347
21
348
0
  0
LAYER
  5
78
330
2
100
AcDbSymbolTableRecord
100
AcDbLayerTableRecord
  2
Слой 1
 70
     0
 62
     7
  6
Continuous
370
     0
390
F
347
21
348
0
  0
ENDTAB
  0
TABLE
  2
STYLE
  5
3
330
0
100
AcDbSymbolTable
 70
     2
  0
STYLE
  5
55
330
3
100
AcDbSymbolTableRecord
100
AcDbTextStyleTableRecord
  2
Standard
 70
     0
 40
0.0
 41
1.0
 50
0.0
 71
     0
 42
0.2
  3
txt
  4

  0
STYLE
  5
5A
330
3
100
AcDbSymbolTableRecord
100
AcDbTextStyleTableRecord
  2
Annotative
 70
     0
 40
0.0
 41
1.0
 50
0.0
 71
     0
 42
0.2
  3
txt
  4

1001
AcadAnnotative
1000
AnnotativeData
1002
{
1070
     1
1070
     1
1002
}
  0
ENDTAB
  0
TABLE
  2
VIEW
  5
6
330
0
100
AcDbSymbolTable
 70
     0
  0
ENDTAB
  0
TABLE
  2
UCS
  5
7
330
0
100
AcDbSymbolTable
 70
     0
  0
ENDTAB
  0
TABLE
  2
APPID
  5
9
330
0
100
AcDbSymbolTable
 70
     2
  0
APPID
  5
56
330
9
100
AcDbSymbolTableRecord
100
AcDbRegAppTableRecord
  2
ACAD
 70
     0
  0
APPID
  5
5E
330
9
100
AcDbSymbolTableRecord
100
AcDbRegAppTableRecord
  2
AcadAnnotative
 70
     0
  0
ENDTAB
  0
TABLE
  2
DIMSTYLE
  5
A
330
0
100
AcDbSymbolTable
 70
     2
100
AcDbDimStyleTable
 71
     0
  0
DIMSTYLE
105
58
330
A
100
AcDbSymbolTableRecord
100
AcDbDimStyleTableRecord
  2
Standard
 70
     0
340
55
  0
DIMSTYLE
105
59
330
A
100
AcDbSymbolTableRecord
100
AcDbDimStyleTableRecord
  2
Annotative
 70
     0
340
55
1001
AcadAnnotative
1000
AnnotativeData
1002
{
1070
     1
1070
     1
1002
}
  0
ENDTAB
  0
TABLE
  2
BLOCK_RECORD
  5
1
330
0
100
AcDbSymbolTable
 70
     2
  0
BLOCK_RECORD
  5
70
330
1
100
AcDbSymbolTableRecord
100
AcDbBlockTableRecord
  2
*Model_Space
340
73
 70
     0
280
     1
281
     0
  0
BLOCK_RECORD
  5
6C
330
1
100
AcDbSymbolTableRecord
100
AcDbBlockTableRecord
  2
*Paper_Space
340
6F
 70
     0
280
     1
281
     0
  0
BLOCK_RECORD
  5
74
330
1
100
AcDbSymbolTableRecord
100
AcDbBlockTableRecord
  2
*Paper_Space0
340
77
 70
     0
280
     1
281
     0
  0
BLOCK_RECORD
  5
79
330
1
100
AcDbSymbolTableRecord
100
AcDbBlockTableRecord
  2
Block_0
340
0
102
{BLKREFS
331
7A
102
}
 70
     0
280
     1
281
     0
  0
ENDTAB
  0
ENDSEC
  0
SECTION
  2
BLOCKS
  0
BLOCK
  5
71
330
70
100
AcDbEntity
  8
0
100
AcDbBlockBegin
  2
*Model_Space
 70
     0
 10
0.0
 20
0.0
 30
0.0
  3
*Model_Space
  1

  0
ENDBLK
  5
72
330
70
100
AcDbEntity
  8
0
100
AcDbBlockEnd
  0
BLOCK
  5
6D
330
6C
100
AcDbEntity
 67
     1
  8
0
100
AcDbBlockBegin
  2
*Paper_Space
 70
     0
 10
0.0
 20
0.0
 30
0.0
  3
*Paper_Space
  1

  0
ENDBLK
  5
6E
330
6C
100
AcDbEntity
 67
     1
  8
0
100
AcDbBlockEnd
  0
BLOCK
  5
75
330
74
100
AcDbEntity
 67
     1
  8
0
100
AcDbBlockBegin
  2
*Paper_Space0
 70
     0
 10
0.0
 20
0.0
 30
0.0
  3
*Paper_Space0
  1

  0
ENDBLK
  5
76
330
74
100
AcDbEntity
 67
     1
  8
0
100
AcDbBlockEnd
  0
BLOCK
  5
7B
330
79
100
AcDbEntity
  8
0
100
AcDbBlockBegin
  2
Block_0
 70
     0
 10
0.0
 20
0.0
 30
0.0
  3
Block_0
  1

  0
SPLINE
  5
7D
330
79
100
AcDbEntity
  8
Слой 1
100
AcDbSpline
210
0.0
220
0.0
230
1.0
 70
     9
 71
     3
 72
    83
 73
    79
 74
     0
 42
0.0000000001
 43
0.0000000001
 40
0.0
 40
0.0
 40
0.0
 40
0.0
 40
1.0
 40
1.0
 40
1.0
 40
2.0
 40
2.0
 40
2.0
 40
3.0
 40
3.0
 40
3.0
 40
4.0
 40
4.0
 40
4.0
 40
5.0
 40
5.0
 40
5.0
 40
6.0
 40
6.0
 40
6.0
 40
7.0
 40
7.0
 40
7.0
 40
8.0
 40
8.0
 40
8.0
 40
9.0
 40
9.0
 40
9.0
 40
10.0
 40
10.0
 40
10.0
 40
11.0
 40
11.0
 40
11.0
 40
12.0
 40
12.0
 40
12.0
 40
13.0
 40
13.0
 40
13.0
 40
14.0
 40
14.0
 40
14.0
 40
15.0
 40
15.0
 40
15.0
 40
16.0
 40
16.0
 40
16.0
 40
17.0
 40
17.0
 40
17.0
 40
18.0
 40
18.0
 40
18.0
 40
19.0
 40
19.0
 40
19.0
 40
20.0
 40
20.0
 40
20.0
 40
21.0
 40
21.0
 40
21.0
 40
22.0
 40
22.0
 40
22.0
 40
23.0
 40
23.0
 40
23.0
 40
24.0
 40
24.0
 40
24.0
 40
25.0
 40
25.0
 40
25.0
 40
26.0
 40
26.0
 40
26.0
 40
26.0
 10
77.53990994233319
 20
-52.88343889073638
 30
0.0
 10
77.52434671977903
 20
-52.88874872098595
 30
0.0
 10
77.51424199895791
 20
-52.88094629099639
 30
0.0
 10
77.50395026258431
 20
-52.87715799105222
 30
0.0
 10
77.30081091146333
 20
-52.80238658557042
 30
0.0
 10
77.09740056422126
 20
-52.72831572388137
 30
0.0
 10
76.89499680760651
 20
-52.65159229946402
 30
0.0
 10
76.73295500627206
 20
-52.59016933486903
 30
0.0
 10
76.56648152444515
 20
-52.56709890813459
 30
0.0
 10
76.39595133418929
 20
-52.59670758677208
 30
0.0
 10
75.9512450526261
 20
-52.67392078022097
 30
0.0
 10
75.6397971145872
 20
-53.02183980909154
 30
0.0
 10
75.61708048834443
 20
-53.47222501197598
 30
0.0
 10
75.60116817009249
 20
-53.78770495827626
 30
0.0
 10
75.71898302806403
 20
-54.04950508956943
 30
0.0
 10
75.96423122439238
 20
-54.24944471044694
 30
0.0
 10
76.14120439447763
 20
-54.39372285718082
 30
0.0
 10
76.3477424886182
 20
-54.45349538012123
 30
0.0
 10
76.5754410984625
 20
-54.45340692999849
 30
0.0
 10
78.88655341852
 20
-54.4525130191818
 30
0.0
 10
81.19766573857734
 20
-54.45286776063221
 30
0.0
 10
83.50877805863486
 20
-54.45282353557068
 30
0.0
 10
83.57169714764914
 20
-54.45282259461181
 30
0.0
 10
83.63451179024179
 20
-54.45235587907
 30
0.0
 10
83.69732360995818
 20
-54.44593477653153
 30
0.0
 10
84.01163582644484
 20
-54.41380573987096
 30
0.0
 10
84.28864279216389
 20
-54.29431244672152
 30
0.0
 10
84.51560110270817
 20
-54.07535793133987
 30
0.0
 10
84.88411536631069
 20
-53.71983924909152
 30
0.0
 10
85.02609663272556
 20
-53.2821090004918
 30
0.0
 10
84.92869705112388
 20
-52.78112185868528
 30
0.0
 10
84.82664913327653
 20
-52.25623107116749
 30
0.0
 10
84.5072510347239
 20
-51.90612007887903
 30
0.0
 10
84.00582822901403
 20
-51.72412877575791
 30
0.0
 10
83.86732004136069
 20
-51.67385758383751
 30
0.0
 10
83.72077136115306
 20
-51.65057450042457
 30
0.0
 10
83.57771175600582
 20
-51.61576796562902
 30
0.0
 10
83.55047288199042
 20
-51.60914173408208
 30
0.0
 10
83.53936015910388
 20
-51.59861146466444
 30
0.0
 10
83.5425161347654
 20
-51.5700533664757
 30
0.0
 10
83.54603532050598
 20
-51.53821226319375
 30
0.0
 10
83.54548109579958
 20
-51.50593267313237
 30
0.0
 10
83.54701485856887
 20
-51.47385915303806
 30
0.0
 10
83.55548160543873
 20
-51.29679706235043
 30
0.0
 10
83.5660768010104
 20
-51.11953078361347
 30
0.0
 10
83.54161187340251
 20
-50.94301350804459
 30
0.0
 10
83.47649282282096
 20
-50.47314622463471
 30
0.0
 10
83.27239510520904
 20
-50.07478521982986
 30
0.0
 10
82.90946731372999
 20
-49.76758100577237
 30
0.0
 10
82.42190388951028
 20
-49.35487743715722
 30
0.0
 10
81.85853024134443
 20
-49.22251323968914
 30
0.0
 10
81.23990961136611
 20
-49.37110474135208
 30
0.0
 10
80.6803854254632
 20
-49.50550046877027
 30
0.0
 10
80.27862944147319
 20
-49.8499031347768
 30
0.0
 10
80.02158867955861
 20
-50.36225988120986
 30
0.0
 10
79.93249635231778
 20
-50.53984749736137
 30
0.0
 10
79.87459163250473
 20
-50.73075203228139
 30
0.0
 10
79.80315545532708
 20
-50.91584661737389
 30
0.0
 10
79.79343346947901
 20
-50.94103702418139
 30
0.0
 10
79.78438662153722
 20
-50.94875994315612
 30
0.0
 10
79.75606376303693
 20
-50.93877213645999
 30
0.0
 10
79.6424458163486
 20
-50.89870517174916
 30
0.0
 10
79.52692666249761
 20
-50.86397908892723
 30
0.0
 10
79.41360464733735
 20
-50.82313253988832
 30
0.0
 10
79.18248965149679
 20
-50.73982804994471
 30
0.0
 10
78.94778019321485
 20
-50.69338185535985
 30
0.0
 10
78.70040543010237
 20
-50.72769956208291
 30
0.0
 10
78.41101121286389
 20
-50.76784697876721
 30
0.0
 10
78.15295562693278
 20
-50.87828589630458
 30
0.0
 10
77.94158382767195
 20
-51.07902674356111
 30
0.0
 10
77.62546779325359
 20
-51.37924245695178
 30
0.0
 10
77.45479904682124
 20
-51.74168283179596
 30
0.0
 10
77.49799399367041
 20
-52.18898451284278
 30
0.0
 10
77.51365860453026
 20
-52.35119874486918
 30
0.0
 10
77.51918650197139
 20
-52.51439769023166
 30
0.0
 10
77.52897200253542
 20
-52.67716944031973
 30
0.0
 10
77.53311951348374
 20
-52.74616194761276
 30
0.0
 10
77.53632065516555
 20
-52.81521185338958
 30
0.0
 10
77.53990994233319
 20
-52.88343889073638
 30
0.0
  0
SPLINE
  5
7E
330
79
100
AcDbEntity
  8
Слой 1
100
AcDbSpline
210
0.0
220
0.0
230
1.0
 70
     9
 71
     3
 72
    80
 73
    76
 74
     0
 42
0.0000000001
 43
0.0000000001
 40
0.0
 40
0.0
 40
0.0
 40
0.0
 40
1.0
 40
1.0
 40
1.0
 40
2.0
 40
2.0
 40
2.0
 40
3.0
 40
3.0
 40
3.0
 40
4.0
 40
4.0
 40
4.0
 40
5.0
 40
5.0
 40
5.0
 40
6.0
 40
6.0
 40
6.0
 40
7.0
 40
7.0
 40
7.0
 40
8.0
 40
8.0
 40
8.0
 40
9.0
 40
9.0
 40
9.0
 40
10.0
 40
10.0
 40
10.0
 40
11.0
 40
11.0
 40
11.0
 40
12.0
 40
12.0
 40
12.0
 40
13.0
 40
13.0
 40
13.0
 40
14.0
 40
14.0
 40
14.0
 40
15.0
 40
15.0
 40
15.0
 40
16.0
 40
16.0
 40
16.0
 40
17.0
 40
17.0
 40
17.0
 40
18.0
 40
18.0
 40
18.0
 40
19.0
 40
19.0
 40
19.0
 40
20.0
 40
20.0
 40
20.0
 40
21.0
 40
21.0
 40
21.0
 40
22.0
 40
22.0
 40
22.0
 40
23.0
 40
23.0
 40
23.0
 40
24.0
 40
24.0
 40
24.0
 40
25.0
 40
25.0
 40
25.0
 40
25.0
 10
80.06320163950249
 20
-55.3868577742575
 30
0.0
 10
78.8993085849118
 20
-55.3868577742575
 30
0.0
 10
77.73541505984207
 20
-55.38603914014124
 30
0.0
 10
76.57152388716889
 20
-55.38739600266445
 30
0.0
 10
76.25466355437611
 20
-55.38776579945528
 30
0.0
 10
75.95540526651793
 20
-55.31924800585359
 30
0.0
 10
75.67723868675415
 20
-55.16831163497539
 30
0.0
 10
75.24911645037359
 20
-54.93600867870736
 30
0.0
 10
74.94566630888541
 20
-54.59183701807528
 30
0.0
 10
74.78660617060305
 20
-54.13048494091111
 30
0.0
 10
74.5887226622233
 20
-53.55652832963707
 30
0.0
 10
74.65715871003304
 20
-53.00772448682056
 30
0.0
 10
74.98813836417195
 20
-52.50054677737042
 30
0.0
 10
75.28468139792486
 20
-52.04613709389458
 30
0.0
 10
75.70831326151084
 20
-51.77259614974637
 30
0.0
 10
76.24406036065501
 20
-51.6759639200089
 30
0.0
 10
76.3391468303993
 20
-51.65881353527584
 30
0.0
 10
76.4350606381279
 20
-51.65249829059749
 30
0.0
 10
76.53141575551237
 20
-51.6504601739361
 30
0.0
 10
76.53909844850055
 20
-51.65029785855096
 30
0.0
 10
76.54685688866819
 20
-51.65148487801944
 30
0.0
 10
76.55447277358486
 20
-51.6508177382625
 30
0.0
 10
76.58208544346527
 20
-51.64839947426429
 30
0.0
 10
76.61420930485276
 20
-51.67724738774929
 30
0.0
 10
76.63411787493375
 20
-51.65536209856583
 30
0.0
 10
76.6508549435336
 20
-51.63696400252514
 30
0.0
 10
76.64994409545958
 20
-51.60257196006068
 30
0.0
 10
76.65700316803334
 20
-51.57530109344762
 30
0.0
 10
76.82101251412278
 20
-50.94169616578875
 30
0.0
 10
77.17343426587166
 20
-50.44462153048193
 30
0.0
 10
77.73326167573305
 20
-50.10097680675193
 30
0.0
 10
78.01025076323596
 20
-49.93094885323126
 30
0.0
 10
78.3129581354075
 20
-49.8340893819543
 30
0.0
 10
78.6362118124554
 20
-49.79465097769126
 30
0.0
 10
78.83631704207346
 20
-49.77023780281471
 30
0.0
 10
79.03011878899748
 20
-49.78549356709582
 30
0.0
 10
79.22123409867819
 20
-49.84561612669262
 30
0.0
 10
79.25237606960596
 20
-49.85541291876181
 30
0.0
 10
79.26829944412332
 20
-49.8486855341489
 30
0.0
 10
79.28502357454054
 20
-49.81922270411792
 30
0.0
 10
79.50651961951679
 20
-49.42902686890223
 30
0.0
 10
79.79952241357735
 20
-49.10336339648498
 30
0.0
 10
80.17064595580485
 20
-48.85004694931917
 30
0.0
 10
80.49828732352363
 20
-48.62641022317721
 30
0.0
 10
80.85738211951733
 20
-48.47907396049221
 30
0.0
 10
81.24986213210874
 20
-48.41656865809
 30
0.0
 10
81.84818722271861
 20
-48.32128152889152
 30
0.0
 10
82.41833295103834
 20
-48.41022024461542
 30
0.0
 10
82.95473778035152
 20
-48.69184002538709
 30
0.0
 10
83.51961225773052
 20
-48.98840717120846
 30
0.0
 10
83.93176348355678
 20
-49.43243361007181
 30
0.0
 10
84.1997993485136
 20
-50.01080472934096
 30
0.0
 10
84.33249993873651
 20
-50.29714694686013
 30
0.0
 10
84.41221890534764
 20
-50.59800345316237
 30
0.0
 10
84.44371467676679
 20
-50.91166593762929
 30
0.0
 10
84.44611129871374
 20
-50.93553382690778
 30
0.0
 10
84.45985494227681
 20
-50.94043292866111
 30
0.0
 10
84.47626338103182
 20
-50.94772488852665
 30
0.0
 10
84.69330869110111
 20
-51.0441896276061
 30
0.0
 10
84.89421091278401
 20
-51.16699180221429
 30
0.0
 10
85.0744167466693
 20
-51.32187925890123
 30
0.0
 10
85.51584684508998
 20
-51.70129029535653
 30
0.0
 10
85.79909801310181
 20
-52.17341258642015
 30
0.0
 10
85.86905265072109
 20
-52.75467950625541
 30
0.0
 10
85.96909162162804
 20
-53.58594081837458
 30
0.0
 10
85.68926272060515
 20
-54.27889860136971
 30
0.0
 10
85.06305843354764
 20
-54.83014611407067
 30
0.0
 10
84.74806872675804
 20
-55.10743066262236
 30
0.0
 10
84.37706562725111
 20
-55.27559316541277
 30
0.0
 10
83.96469515803472
 20
-55.35157840768776
 30
0.0
 10
83.8230319356786
 20
-55.37768248544569
 30
0.0
 10
83.67975685097665
 20
-55.38715229434749
 30
0.0
 10
83.53561043846861
 20
-55.38709865969834
 30
0.0
 10
82.37814083881332
 20
-55.38666864154762
 30
0.0
 10
81.2206712391579
 20
-55.3868577742575
 30
0.0
 10
80.06320163950249
 20
-55.3868577742575
 30
0.0
  0
HATCH
  5
7F
330
79
100
AcDbEntity
  8
Слой 1
 62
    18
420
        0
440
 33554687
100
AcDbHatch
 10
0.0
 20
0.0
 30
0.0
210
0.0
220
0.0
230
1.0
  2
SOLID
 70
     1
 71
     1
 91
        2
 92
        1
 93
        1
 72
     4
 94
        3
 73
     0
 74
     0
 95
       83
 96
       79
 40
0.0
 40
0.0
 40
0.0
 40
0.0
 40
1.0
 40
1.0
 40
1.0
 40
2.0
 40
2.0
 40
2.0
 40
3.0
 40
3.0
 40
3.0
 40
4.0
 40
4.0
 40
4.0
 40
5.0
 40
5.0
 40
5.0
 40
6.0
 40
6.0
 40
6.0
 40
7.0
 40
7.0
 40
7.0
 40
8.0
 40
8.0
 40
8.0
 40
9.0
 40
9.0
 40
9.0
 40
10.0
 40
10.0
 40
10.0
 40
11.0
 40
11.0
 40
11.0
 40
12.0
 40
12.0
 40
12.0
 40
13.0
 40
13.0
 40
13.0
 40
14.0
 40
14.0
 40
14.0
 40
15.0
 40
15.0
 40
15.0
 40
16.0
 40
16.0
 40
16.0
 40
17.0
 40
17.0
 40
17.0
 40
18.0
 40
18.0
 40
18.0
 40
19.0
 40
19.0
 40
19.0
 40
20.0
 40
20.0
 40
20.0
 40
21.0
 40
21.0
 40
21.0
 40
22.0
 40
22.0
 40
22.0
 40
23.0
 40
23.0
 40
23.0
 40
24.0
 40
24.0
 40
24.0
 40
25.0
 40
25.0
 40
25.0
 40
26.0
 40
26.0
 40
26.0
 40
26.0
 10
77.53990994233319
 20
-52.88343889073638
 10
77.52434671977903
 20
-52.88874872098595
 10
77.51424199895791
 20
-52.88094629099639
 10
77.50395026258431
 20
-52.87715799105222
 10
77.30081091146333
 20
-52.80238658557042
 10
77.09740056422126
 20
-52.72831572388137
 10
76.89499680760651
 20
-52.65159229946402
 10
76.73295500627206
 20
-52.59016933486903
 10
76.56648152444515
 20
-52.56709890813459
 10
76.39595133418929
 20
-52.59670758677208
 10
75.9512450526261
 20
-52.67392078022097
 10
75.6397971145872
 20
-53.02183980909154
 10
75.61708048834443
 20
-53.47222501197598
 10
75.60116817009249
 20
-53.78770495827626
 10
75.71898302806403
 20
-54.04950508956943
 10
75.96423122439238
 20
-54.24944471044694
 10
76.14120439447763
 20
-54.39372285718082
 10
76.3477424886182
 20
-54.45349538012123
 10
76.5754410984625
 20
-54.45340692999849
 10
78.88655341852
 20
-54.4525130191818
 10
81.19766573857734
 20
-54.45286776063221
 10
83.50877805863486
 20
-54.45282353557068
 10
83.57169714764914
 20
-54.45282259461181
 10
83.63451179024179
 20
-54.45235587907
 10
83.69732360995818
 20
-54.44593477653153
 10
84.01163582644484
 20
-54.41380573987096
 10
84.28864279216389
 20
-54.29431244672152
 10
84.51560110270817
 20
-54.07535793133987
 10
84.88411536631069
 20
-53.71983924909152
 10
85.02609663272556
 20
-53.2821090004918
 10
84.92869705112388
 20
-52.78112185868528
 10
84.82664913327653
 20
-52.25623107116749
 10
84.5072510347239
 20
-51.90612007887903
 10
84.00582822901403
 20
-51.72412877575791
 10
83.86732004136069
 20
-51.67385758383751
 10
83.72077136115306
 20
-51.65057450042457
 10
83.57771175600582
 20
-51.61576796562902
 10
83.55047288199042
 20
-51.60914173408208
 10
83.53936015910388
 20
-51.59861146466444
 10
83.5425161347654
 20
-51.5700533664757
 10
83.54603532050598
 20
-51.53821226319375
 10
83.54548109579958
 20
-51.50593267313237
 10
83.54701485856887
 20
-51.47385915303806
 10
83.55548160543873
 20
-51.29679706235043
 10
83.5660768010104
 20
-51.11953078361347
 10
83.54161187340251
 20
-50.94301350804459
 10
83.47649282282096
 20
-50.47314622463471
 10
83.27239510520904
 20
-50.07478521982986
 10
82.90946731372999
 20
-49.76758100577237
 10
82.42190388951028
 20
-49.35487743715722
 10
81.85853024134443
 20
-49.22251323968914
 10
81.23990961136611
 20
-49.37110474135208
 10
80.6803854254632
 20
-49.50550046877027
 10
80.27862944147319
 20
-49.8499031347768
 10
80.02158867955861
 20
-50.36225988120986
 10
79.93249635231778
 20
-50.53984749736137
 10
79.87459163250473
 20
-50.73075203228139
 10
79.80315545532708
 20
-50.91584661737389
 10
79.79343346947901
 20
-50.94103702418139
 10
79.78438662153722
 20
-50.94875994315612
 10
79.75606376303693
 20
-50.93877213645999
 10
79.6424458163486
 20
-50.89870517174916
 10
79.52692666249761
 20
-50.86397908892723
 10
79.41360464733735
 20
-50.82313253988832
 10
79.18248965149679
 20
-50.73982804994471
 10
78.94778019321485
 20
-50.69338185535985
 10
78.70040543010237
 20
-50.72769956208291
 10
78.41101121286389
 20
-50.76784697876721
 10
78.15295562693278
 20
-50.87828589630458
 10
77.94158382767195
 20
-51.07902674356111
 10
77.62546779325359
 20
-51.37924245695178
 10
77.45479904682124
 20
-51.74168283179596
 10
77.49799399367041
 20
-52.18898451284278
 10
77.51365860453026
 20
-52.35119874486918
 10
77.51918650197139
 20
-52.51439769023166
 10
77.52897200253542
 20
-52.67716944031973
 10
77.53311951348374
 20
-52.74616194761276
 10
77.53632065516555
 20
-52.81521185338958
 10
77.53990994233319
 20
-52.88343889073638
 97
        0
 97
        1
330
7D
 92
        1
 93
        1
 72
     4
 94
        3
 73
     0
 74
     0
 95
       80
 96
       76
 40
0.0
 40
0.0
 40
0.0
 40
0.0
 40
1.0
 40
1.0
 40
1.0
 40
2.0
 40
2.0
 40
2.0
 40
3.0
 40
3.0
 40
3.0
 40
4.0
 40
4.0
 40
4.0
 40
5.0
 40
5.0
 40
5.0
 40
6.0
 40
6.0
 40
6.0
 40
7.0
 40
7.0
 40
7.0
 40
8.0
 40
8.0
 40
8.0
 40
9.0
 40
9.0
 40
9.0
 40
10.0
 40
10.0
 40
10.0
 40
11.0
 40
11.0
 40
11.0
 40
12.0
 40
12.0
 40
12.0
 40
13.0
 40
13.0
 40
13.0
 40
14.0
 40
14.0
 40
14.0
 40
15.0
 40
15.0
 40
15.0
 40
16.0
 40
16.0
 40
16.0
 40
17.0
 40
17.0
 40
17.0
 40
18.0
 40
18.0
 40
18.0
 40
19.0
 40
19.0
 40
19.0
 40
20.0
 40
20.0
 40
20.0
 40
21.0
 40
21.0
 40
21.0
 40
22.0
 40
22.0
 40
22.0
 40
23.0
 40
23.0
 40
23.0
 40
24.0
 40
24.0
 40
24.0
 40
25.0
 40
25.0
 40
25.0
 40
25.0
 10
80.06320163950249
 20
-55.3868577742575
 10
78.8993085849118
 20
-55.3868577742575
 10
77.73541505984207
 20
-55.38603914014124
 10
76.57152388716889
 20
-55.38739600266445
 10
76.25466355437611
 20
-55.38776579945528
 10
75.95540526651793
 20
-55.31924800585359
 10
75.67723868675415
 20
-55.16831163497539
 10
75.24911645037359
 20
-54.93600867870736
 10
74.94566630888541
 20
-54.59183701807528
 10
74.78660617060305
 20
-54.13048494091111
 10
74.5887226622233
 20
-53.55652832963707
 10
74.65715871003304
 20
-53.00772448682056
 10
74.98813836417195
 20
-52.50054677737042
 10
75.28468139792486
 20
-52.04613709389458
 10
75.70831326151084
 20
-51.77259614974637
 10
76.24406036065501
 20
-51.6759639200089
 10
76.3391468303993
 20
-51.65881353527584
 10
76.4350606381279
 20
-51.65249829059749
 10
76.53141575551237
 20
-51.6504601739361
 10
76.53909844850055
 20
-51.65029785855096
 10
76.54685688866819
 20
-51.65148487801944
 10
76.55447277358486
 20
-51.6508177382625
 10
76.58208544346527
 20
-51.64839947426429
 10
76.61420930485276
 20
-51.67724738774929
 10
76.63411787493375
 20
-51.65536209856583
 10
76.6508549435336
 20
-51.63696400252514
 10
76.64994409545958
 20
-51.60257196006068
 10
76.65700316803334
 20
-51.57530109344762
 10
76.82101251412278
 20
-50.94169616578875
 10
77.17343426587166
 20
-50.44462153048193
 10
77.73326167573305
 20
-50.10097680675193
 10
78.01025076323596
 20
-49.93094885323126
 10
78.3129581354075
 20
-49.8340893819543
 10
78.6362118124554
 20
-49.79465097769126
 10
78.83631704207346
 20
-49.77023780281471
 10
79.03011878899748
 20
-49.78549356709582
 10
79.22123409867819
 20
-49.84561612669262
 10
79.25237606960596
 20
-49.85541291876181
 10
79.26829944412332
 20
-49.8486855341489
 10
79.28502357454054
 20
-49.81922270411792
 10
79.50651961951679
 20
-49.42902686890223
 10
79.79952241357735
 20
-49.10336339648498
 10
80.17064595580485
 20
-48.85004694931917
 10
80.49828732352363
 20
-48.62641022317721
 10
80.85738211951733
 20
-48.47907396049221
 10
81.24986213210874
 20
-48.41656865809
 10
81.84818722271861
 20
-48.32128152889152
 10
82.41833295103834
 20
-48.41022024461542
 10
82.95473778035152
 20
-48.69184002538709
 10
83.51961225773052
 20
-48.98840717120846
 10
83.93176348355678
 20
-49.43243361007181
 10
84.1997993485136
 20
-50.01080472934096
 10
84.33249993873651
 20
-50.29714694686013
 10
84.41221890534764
 20
-50.59800345316237
 10
84.44371467676679
 20
-50.91166593762929
 10
84.44611129871374
 20
-50.93553382690778
 10
84.45985494227681
 20
-50.94043292866111
 10
84.47626338103182
 20
-50.94772488852665
 10
84.69330869110111
 20
-51.0441896276061
 10
84.89421091278401
 20
-51.16699180221429
 10
85.0744167466693
 20
-51.32187925890123
 10
85.51584684508998
 20
-51.70129029535653
 10
85.79909801310181
 20
-52.17341258642015
 10
85.86905265072109
 20
-52.75467950625541
 10
85.96909162162804
 20
-53.58594081837458
 10
85.68926272060515
 20
-54.27889860136971
 10
85.06305843354764
 20
-54.83014611407067
 10
84.74806872675804
 20
-55.10743066262236
 10
84.37706562725111
 20
-55.27559316541277
 10
83.96469515803472
 20
-55.35157840768776
 10
83.8230319356786
 20
-55.37768248544569
 10
83.67975685097665
 20
-55.38715229434749
 10
83.53561043846861
 20
-55.38709865969834
 10
82.37814083881332
 20
-55.38666864154762
 10
81.2206712391579
 20
-55.3868577742575
 10
80.06320163950249
 20
-55.3868577742575
 97
        0
 97
        1
330
7E
 75
     2
 76
     1
 98
        1
 10
0.0
 20
0.0
450
        0
451
        0
460
0.0
461
0.0
452
        0
462
0.0
453
        0
470

  0
SPLINE
  5
80
330
79
100
AcDbEntity
  8
Слой 1
100
AcDbSpline
210
0.0
220
0.0
230
1.0
 70
     9
 71
     3
 72
   257
 73
   253
 74
     0
 42
0.0000000001
 43
0.0000000001
 40
0.0
 40
0.0
 40
0.0
 40
0.0
 40
1.0
 40
1.0
 40
1.0
 40
2.0
 40
2.0
 40
2.0
 40
3.0
 40
3.0
 40
3.0
 40
4.0
 40
4.0
 40
4.0
 40
5.0
 40
5.0
 40
5.0
 40
6.0
 40
6.0
 40
6.0
 40
7.0
 40
7.0
 40
7.0
 40
8.0
 40
8.0
 40
8.0
 40
9.0
 40
9.0
 40
9.0
 40
10.0
 40
10.0
 40
10.0
 40
11.0
 40
11.0
 40
11.0
 40
12.0
 40
12.0
 40
12.0
 40
13.0
 40
13.0
 40
13.0
 40
14.0
 40
14.0
 40
14.0
 40
15.0
 40
15.0
 40
15.0
 40
16.0
 40
16.0
 40
16.0
 40
17.0
 40
17.0
 40
17.0
 40
18.0
 40
18.0
 40
18.0
 40
19.0
 40
19.0
 40
19.0
 40
20.0
 40
20.0
 40
20.0
 40
21.0
 40
21.0
 40
21.0
 40
22.0
 40
22.0
 40
22.0
 40
23.0
 40
23.0
 40
23.0
 40
24.0
 40
24.0
 40
24.0
 40
25.0
 40
25.0
 40
25.0
 40
26.0
 40
26.0
 40
26.0
 40
27.0
 40
27.0
 40
27.0
 40
28.0
 40
28.0
 40
28.0
 40
29.0
 40
29.0
 40
29.0
 40
30.0
 40
30.0
 40
30.0
 40
31.0
 40
31.0
 40
31.0
 40
32.0
 40
32.0
 40
32.0
 40
33.0
 40
33.0
 40
33.0
 40
34.0
 40
34.0
 40
34.0
 40
35.0
 40
35.0
 40
35.0
 40
36.0
 40
36.0
 40
36.0
 40
37.0
 40
37.0
 40
37.0
 40
38.0
 40
38.0
 40
38.0
 40
39.0
 40
39.0
 40
39.0
 40
40.0
 40
40.0
 40
40.0
 40
41.0
 40
41.0
 40
41.0
 40
42.0
 40
42.0
 40
42.0
 40
43.0
 40
43.0
 40
43.0
 40
44.0
 40
44.0
 40
44.0
 40
45.0
 40
45.0
 40
45.0
 40
46.0
 40
46.0
 40
46.0
 40
47.0
 40
47.0
 40
47.0
 40
48.0
 40
48.0
 40
48.0
 40
49.0
 40
49.0
 40
49.0
 40
50.0
 40
50.0
 40
50.0
 40
51.0
 40
51.0
 40
51.0
 40
52.0
 40
52.0
 40
52.0
 40
53.0
 40
53.0
 40
53.0
 40
54.0
 40
54.0
 40
54.0
 40
55.0
 40
55.0
 40
55.0
 40
56.0
 40
56.0
 40
56.0
 40
57.0
 40
57.0
 40
57.0
 40
58.0
 40
58.0
 40
58.0
 40
59.0
 40
59.0
 40
59.0
 40
60.0
 40
60.0
 40
60.0
 40
61.0
 40
61.0
 40
61.0
 40
62.0
 40
62.0
 40
62.0
 40
63.0
 40
63.0
 40
63.0
 40
64.0
 40
64.0
 40
64.0
 40
65.0
 40
65.0
 40
65.0
 40
66.0
 40
66.0
 40
66.0
 40
67.0
 40
67.0
 40
67.0
 40
68.0
 40
68.0
 40
68.0
 40
69.0
 40
69.0
 40
69.0
 40
70.0
 40
70.0
 40
70.0
 40
71.0
 40
71.0
 40
71.0
 40
72.0
 40
72.0
 40
72.0
 40
73.0
 40
73.0
 40
73.0
 40
74.0
 40
74.0
 40
74.0
 40
75.0
 40
75.0
 40
75.0
 40
76.0
 40
76.0
 40
76.0
 40
77.0
 40
77.0
 40
77.0
 40
78.0
 40
78.0
 40
78.0
 40
79.0
 40
79.0
 40
79.0
 40
80.0
 40
80.0
 40
80.0
 40
81.0
 40
81.0
 40
81.0
 40
82.0
 40
82.0
 40
82.0
 40
83.0
 40
83.0
 40
83.0
 40
84.0
 40
84.0
 40
84.0
 40
84.0
 10
75.62607170209972
 20
-49.54871964530763
 30
0.0
 10
75.57419970409902
 20
-49.60857544309763
 30
0.0
 10
75.51076285253028
 20
-49.59801647443793
 30
0.0
 10
75.44816721808764
 20
-49.59220511317209
 30
0.0
 10
75.43797287094498
 20
-49.59125850866556
 30
0.0
 10
75.42762632372417
 20
-49.59189459678333
 30
0.0
 10
75.41735011316986
 20
-49.59189412630404
 30
0.0
 10
75.02683235244042
 20
-49.59188424623693
 30
0.0
 10
74.63631465052095
 20
-49.59189271486582
 30
0.0
 10
74.24579694860125
 20
-49.59187624808762
 30
0.0
 10
74.19976060036403
 20
-49.59187436617013
 30
0.0
 10
74.15396055039391
 20
-49.59852129880957
 30
0.0
 10
74.10770043040305
 20
-49.58837682248112
 30
0.0
 10
73.97324943636014
 20
-49.558895173275
 30
0.0
 10
73.87759253977623
 20
-49.43038137902903
 30
0.0
 10
73.88996501530249
 20
-49.2930126924268
 30
0.0
 10
73.90301356969333
 20
-49.14813703688416
 30
0.0
 10
74.01267915145708
 20
-49.03768612212262
 30
0.0
 10
74.15387804007332
 20
-49.03702321667999
 30
0.0
 10
74.56363787803583
 20
-49.0351003674661
 30
0.0
 10
74.97341330062792
 20
-49.03644264512887
 30
0.0
 10
75.38318260698805
 20
-49.03660307859637
 30
0.0
 10
75.4648514753775
 20
-49.03663507119416
 30
0.0
 10
75.54753587350235
 20
-49.02432803640875
 30
0.0
 10
75.62623907513807
 20
-49.05919102872985
 30
0.0
 10
75.65157109623832
 20
-49.07041243235249
 30
0.0
 10
75.64600073803345
 20
-49.04573531854513
 30
0.0
 10
75.64723398210055
 20
-49.03547392809152
 30
0.0
 10
75.65580893922737
 20
-48.96412690675596
 30
0.0
 10
75.66663925686762
 20
-48.89321084452957
 30
0.0
 10
75.67958637884569
 20
-48.82250108751026
 30
0.0
 10
75.70621127727402
 20
-48.67709120263473
 30
0.0
 10
75.74503535309041
 20
-48.53533223772569
 30
0.0
 10
75.80421295485833
 20
-48.39972220303485
 30
0.0
 10
75.8162426420511
 20
-48.37215540489387
 30
0.0
 10
75.81533743972944
 20
-48.36267924452027
 30
0.0
 10
75.78187694643151
 20
-48.3608949514829
 30
0.0
 10
75.75006736526792
 20
-48.35919840284915
 30
0.0
 10
75.71976731718568
 20
-48.34602992032429
 30
0.0
 10
75.6917744999686
 20
-48.32954126483526
 30
0.0
 10
75.31956379752028
 20
-48.11029458176097
 30
0.0
 10
74.94123474601277
 20
-47.90177482848373
 30
0.0
 10
74.56620546042652
 20
-47.68747029602582
 30
0.0
 10
74.46422582089873
 20
-47.62919554418221
 30
0.0
 10
74.41292363223361
 20
-47.539609684075
 30
0.0
 10
74.42101029057666
 20
-47.42301572008679
 30
0.0
 10
74.42957660264473
 20
-47.29950453305749
 30
0.0
 10
74.49800077085001
 20
-47.21756066947235
 30
0.0
 10
74.61445459079389
 20
-47.17483596676013
 30
0.0
 10
74.70319599922904
 20
-47.14227832338694
 30
0.0
 10
74.78168754395529
 20
-47.15116944265471
 30
0.0
 10
74.86612388966055
 20
-47.20156131253543
 30
0.0
 10
75.21835062770778
 20
-47.41177079249529
 30
0.0
 10
75.57382978968888
 20
-47.61656646626331
 30
0.0
 10
75.9295912392961
 20
-47.82077756940513
 30
0.0
 10
75.98121670610318
 20
-47.85041118344972
 30
0.0
 10
76.03372361602345
 20
-47.87593233725957
 30
0.0
 10
76.06955626634041
 20
-47.92522469683583
 30
0.0
 10
76.08602116262069
 20
-47.9478740445275
 30
0.0
 10
76.09207317408777
 20
-47.92717412813458
 30
0.0
 10
76.09947452040832
 20
-47.91804635773998
 30
0.0
 10
76.15281323786722
 20
-47.8522644017161
 30
0.0
 10
76.20417782385972
 20
-47.78482118301194
 30
0.0
 10
76.25903713066541
 20
-47.7203457482182
 30
0.0
 10
76.34901254769693
 20
-47.61459892150833
 30
0.0
 10
76.44771135809833
 20
-47.51752914595014
 30
0.0
 10
76.55989810652165
 20
-47.43327170002792
 30
0.0
 10
76.46344583514569
 20
-47.34695872970736
 30
0.0
 10
76.42184534290527
 20
-47.22665621202959
 30
0.0
 10
76.35878134624277
 20
-47.1207741224986
 30
0.0
 10
76.1829634382679
 20
-46.82558101169805
 30
0.0
 10
76.01309568297498
 20
-46.52685060170112
 30
0.0
 10
75.83935517668972
 20
-46.23040977959276
 30
0.0
 10
75.77366755178111
 20
-46.11833206476499
 30
0.0
 10
75.77025304770194
 20
-46.00862968269221
 30
0.0
 10
75.84638743193888
 20
-45.90225694198109
 30
0.0
 10
75.92280904383568
 20
-45.7954831176011
 30
0.0
 10
76.11485896079902
 20
-45.72681753466514
 30
0.0
 10
76.24765858693082
 20
-45.84287656360166
 30
0.0
 10
76.29406102693332
 20
-45.88342965112875
 30
0.0
 10
76.32311759802208
 20
-45.93093924672555
 30
0.0
 10
76.35172039175166
 20
-45.98124684198763
 30
0.0
 10
76.54241226999319
 20
-46.3166413569807
 30
0.0
 10
76.7320065198479
 20
-46.65266043334709
 30
0.0
 10
76.92302091170237
 20
-46.98787040280513
 30
0.0
 10
76.95727863230472
 20
-47.04798896332722
 30
0.0
 10
76.99765305528861
 20
-47.10430781478041
 30
0.0
 10
77.00028491692375
 20
-47.17759838642279
 30
0.0
 10
77.00124493009262
 20
-47.20434043421583
 30
0.0
 10
77.02015067338123
 20
-47.18882520055818
 30
0.0
 10
77.03109214177472
 20
-47.18403148618512
 30
0.0
 10
77.15566237788208
 20
-47.1294556432043
 30
0.0
 10
77.28279460943736
 20
-47.08213717985445
 30
0.0
 10
77.41463045856486
 20
-47.04819656235236
 30
0.0
 10
77.50161997822972
 20
-47.02580127352389
 30
0.0
 10
77.58940272612417
 20
-47.0073382513293
 30
0.0
 10
77.67891307429137
 20
-46.99801335007567
 30
0.0
 10
77.68892369923706
 20
-46.99697029729665
 30
0.0
 10
77.6987557772593
 20
-46.99421540530415
 30
0.0
 10
77.71452530502028
 20
-46.99109647989345
 30
0.0
 10
77.65674620320055
 20
-46.90052896456624
 30
0.0
 10
77.67326849796472
 20
-46.80172453154444
 30
0.0
 10
77.67304643169902
 20
-46.70554290343013
 30
0.0
 10
77.6721831020418
 20
-46.33172692534748
 30
0.0
 10
77.67364511670611
 20
-45.95790424293348
 30
0.0
 10
77.6722219165904
 20
-45.5840916758261
 30
0.0
 10
77.67166345756999
 20
-45.43738244453096
 30
0.0
 10
77.74529983155445
 20
-45.33416516489473
 30
0.0
 10
77.88926652094055
 20
-45.28887287979194
 30
0.0
 10
77.97585448645708
 20
-45.26163203564429
 30
0.0
 10
78.05647395059581
 20
-45.29569347813168
 30
0.0
 10
78.12659984270819
 20
-45.34892264740776
 30
0.0
 10
78.20694689928778
 20
-45.40991024214958
 30
0.0
 10
78.22590157243151
 20
-45.49926192114667
 30
0.0
 10
78.22623984710358
 20
-45.59235799848137
 30
0.0
 10
78.22768798262636
 20
-45.99057809471292
 30
0.0
 10
78.22582911860735
 20
-46.38881159960667
 30
0.0
 10
78.22782253972819
 20
-46.78702687342431
 30
0.0
 10
78.22817539926099
 20
-46.8574063539211
 30
0.0
 10
78.21969924280331
 20
-46.92496636913069
 30
0.0
 10
78.19769962713123
 20
-46.99087194361097
 30
0.0
 10
78.18818606364735
 20
-47.01937276093556
 30
0.0
 10
78.21040633414736
 20
-47.01099540514736
 30
0.0
 10
78.21984838476595
 20
-47.01205904139889
 30
0.0
 10
78.35921754967944
 20
-47.02776034965013
 30
0.0
 10
78.49552765768304
 20
-47.05761026658847
 30
0.0
 10
78.62950654037333
 20
-47.09857031877681
 30
0.0
 10
78.70910412330513
 20
-47.1229051588372
 30
0.0
 10
78.78796681745001
 20
-47.14960627492458
 30
0.0
 10
78.86398828663651
 20
-47.18352830849137
 30
0.0
 10
78.89320646739124
 20
-47.19656599774942
 30
0.0
 10
78.90092138821652
 20
-47.18986025518791
 30
0.0
 10
78.90327990133389
 20
-47.15939342216625
 30
0.0
 10
78.90766900344265
 20
-47.10268795428515
 30
0.0
 10
78.93903304063624
 20
-47.05560767111985
 30
0.0
 10
78.96601879674694
 20
-47.00787295114125
 30
0.0
 10
79.14205336047472
 20
-46.69648993925637
 30
0.0
 10
79.31899265604473
 20
-46.38561822083445
 30
0.0
 10
79.49563366768986
 20
-46.07457795317597
 30
0.0
 10
79.52411790061624
 20
-46.02442055845499
 30
0.0
 10
79.55164611944848
 20
-45.97369100200178
 30
0.0
 10
79.58127032390596
 20
-45.92421574356735
 30
0.0
 10
79.63703671495055
 20
-45.83107735249374
 30
0.0
 10
79.77488764291376
 20
-45.76587467420292
 30
0.0
 10
79.87847073496848
 20
-45.78226129447694
 30
0.0
 10
79.99233850620625
 20
-45.80027500886651
 30
0.0
 10
80.08132591654568
 20
-45.88257420200124
 30
0.0
 10
80.10794234634527
 20
-45.99790010644847
 30
0.0
 10
80.12477092318388
 20
-46.07081817604403
 30
0.0
 10
80.11322818214665
 20
-46.14031486079958
 30
0.0
 10
80.07523744292694
 20
-46.20553177109139
 30
0.0
 10
79.8674379935761
 20
-46.56224700001596
 30
0.0
 10
79.65990389459403
 20
-46.91911701665541
 30
0.0
 10
79.45244366087404
 20
-47.27602972929806
 30
0.0
 10
79.42291449325082
 20
-47.32683185719543
 30
0.0
 10
79.39720279529359
 20
-47.38030301459917
 30
0.0
 10
79.35118285502444
 20
-47.41928764150305
 30
0.0
 10
79.33287979581805
 20
-47.43479228937444
 30
0.0
 10
79.34918472911026
 20
-47.44008706428429
 30
0.0
 10
79.35862207493487
 20
-47.44705627529679
 30
0.0
 10
79.51558763903054
 20
-47.56296780894861
 30
0.0
 10
79.65248490529666
 20
-47.69947598877027
 30
0.0
 10
79.7741748666575
 20
-47.85160478962944
 30
0.0
 10
79.79323163382625
 20
-47.87542868908651
 30
0.0
 10
79.81203104877582
 20
-47.89945889375
 30
0.0
 10
79.83141432863193
 20
-47.92398169032152
 30
0.0
 10
79.91822341945542
 20
-47.82710951610152
 30
0.0
 10
80.03866049423526
 20
-47.78559300442973
 30
0.0
 10
80.14456493153652
 20
-47.72249442753333
 30
0.0
 10
80.43858537248958
 20
-47.54731519531277
 30
0.0
 10
80.73543057162277
 20
-47.37686004651762
 30
0.0
 10
81.03191538355304
 20
-47.20584808537958
 30
0.0
 10
81.10027462560458
 20
-47.16641862022473
 30
0.0
 10
81.17425609621209
 20
-47.13934300255333
 30
0.0
 10
81.25483462864513
 20
-47.14277867820444
 30
0.0
 10
81.36913947522385
 20
-47.14765284455097
 30
0.0
 10
81.48094278295513
 20
-47.24707525223442
 30
0.0
 10
81.50663707317541
 20
-47.36326836779304
 30
0.0
 10
81.53445416634513
 20
-47.48905902740471
 30
0.0
 10
81.47654615317611
 20
-47.61687345405693
 30
0.0
 10
81.36360428535262
 20
-47.67584592681653
 30
0.0
 10
81.10790580110068
 20
-47.80935856444403
 30
0.0
 10
80.86053009702943
 20
-47.95768071666373
 30
0.0
 10
80.60932751370501
 20
-48.09918397603125
 30
0.0
 10
80.47200540456096
 20
-48.17653807805375
 30
0.0
 10
80.33384066685291
 20
-48.25239770233444
 30
0.0
 10
80.19937201513108
 20
-48.33487955908736
 30
0.0
 10
80.0987863471879
 20
-48.39657822459763
 30
0.0
 10
79.95462158598389
 20
-48.36901777792819
 30
0.0
 10
79.87005527035082
 20
-48.27434039000207
 30
0.0
 10
79.85156260795527
 20
-48.25363694501374
 30
0.0
 10
79.83994741309402
 20
-48.25194345449598
 30
0.0
 10
79.81663939427416
 20
-48.26528107435666
 30
0.0
 10
79.61524552164208
 20
-48.38052852636777
 30
0.0
 10
79.41270179741263
 20
-48.49377103051306
 30
0.0
 10
79.21159303528348
 20
-48.60950848679514
 30
0.0
 10
79.18346589620387
 20
-48.62569556500347
 30
0.0
 10
79.1726185236861
 20
-48.62131798963931
 30
0.0
 10
79.15647825817581
 20
-48.59495185486862
 30
0.0
 10
78.94296107295556
 20
-48.24617231921709
 30
0.0
 10
78.63580155443847
 20
-48.02389127940013
 30
0.0
 10
78.23585174077734
 20
-47.94293189391125
 30
0.0
 10
77.81930059181651
 20
-47.85861234471139
 30
0.0
 10
77.43206477760168
 20
-47.94124169674917
 30
0.0
 10
77.09452828762429
 20
-48.20303006605819
 30
0.0
 10
76.72331253143889
 20
-48.49093992086151
 30
0.0
 10
76.54524220344612
 20
-48.87760857218722
 30
0.0
 10
76.55028644808763
 20
-49.34714322667721
 30
0.0
 10
76.55311708725958
 20
-49.61063755420749
 30
0.0
 10
76.6335674140625
 20
-49.85123694381082
 30
0.0
 10
76.77661243434887
 20
-50.07126368169236
 30
0.0
 10
76.79259132543264
 20
-50.09584199483055
 30
0.0
 10
76.79266848405055
 20
-50.10654257778292
 30
0.0
 10
76.76679635262567
 20
-50.1237625934632
 30
0.0
 10
76.56180354799875
 20
-50.26020490617194
 30
0.0
 10
76.35819465845944
 20
-50.39872438533014
 30
0.0
 10
76.15345685365501
 20
-50.53555296160736
 30
0.0
 10
76.13335562226929
 20
-50.54898608878193
 30
0.0
 10
76.12358611800444
 20
-50.5643693529743
 30
0.0
 10
76.11974959392388
 20
-50.58737438307513
 30
0.0
 10
76.10479917075847
 20
-50.67702187598055
 30
0.0
 10
76.05539483709041
 20
-50.74401813927695
 30
0.0
 10
75.97580948662248
 20
-50.78512204053486
 30
0.0
 10
75.808271309965
 20
-50.87165166660833
 30
0.0
 10
75.64862718915597
 20
-50.97178049907681
 30
0.0
 10
75.48517265587209
 20
-51.06531132876054
 30
0.0
 10
75.27712361721151
 20
-51.18435954841914
 30
0.0
 10
75.07054859043946
 20
-51.30598081979125
 30
0.0
 10
74.86295285865903
 20
-51.42582603151431
 30
0.0
 10
74.72136708897041
 20
-51.50756335465318
 30
0.0
 10
74.54865416845457
 20
-51.46193391226693
 30
0.0
 10
74.46936357331626
 20
-51.32293360318555
 30
0.0
 10
74.39088973037669
 20
-51.18536496284804
 30
0.0
 10
74.43897148770583
 20
-51.01463928841083
 30
0.0
 10
74.58020339809291
 20
-50.93419672451806
 30
0.0
 10
74.93324094853692
 20
-50.73311383875431
 30
0.0
 10
75.28685783552347
 20
-50.53304765892459
 30
0.0
 10
75.63965655887333
 20
-50.33154839891222
 30
0.0
 10
75.68997103489639
 20
-50.30281151856026
 30
0.0
 10
75.73931385338568
 20
-50.2735556994554
 30
0.0
 10
75.79720728169387
 20
-50.2631007067379
 30
0.0
 10
75.8282325737361
 20
-50.25749823831554
 30
0.0
 10
75.80803677599568
 20
-50.23986796461819
 30
0.0
 10
75.80360180214777
 20
-50.22938286122055
 30
0.0
 10
75.75057807063179
 20
-50.1040231607186
 30
0.0
 10
75.70796393057346
 20
-49.97533858245848
 30
0.0
 10
75.67776374173874
 20
-49.8426078815557
 30
0.0
 10
75.65842327550595
 20
-49.75760543153985
 30
0.0
 10
75.64261069888193
 20
-49.67198053730875
 30
0.0
 10
75.63380932355514
 20
-49.58515215683042
 30
0.0
 10
75.6328143772925
 20
-49.5753388979832
 30
0.0
 10
75.62975673182084
 20
-49.56573453197972
 30
0.0
 10
75.62607170209972
 20
-49.54871964530763
 30
0.0
  0
HATCH
  5
81
330
79
100
AcDbEntity
  8
Слой 1
 62
    18
420
        0
440
 33554687
100
AcDbHatch
 10
0.0
 20
0.0
 30
0.0
210
0.0
220
0.0
230
1.0
  2
SOLID
 70
     1
 71
     1
 91
        1
 92
        1
 93
        1
 72
     4
 94
        3
 73
     0
 74
     0
 95
      257
 96
      253
 40
0.0
 40
0.0
 40
0.0
 40
0.0
 40
1.0
 40
1.0
 40
1.0
 40
2.0
 40
2.0
 40
2.0
 40
3.0
 40
3.0
 40
3.0
 40
4.0
 40
4.0
 40
4.0
 40
5.0
 40
5.0
 40
5.0
 40
6.0
 40
6.0
 40
6.0
 40
7.0
 40
7.0
 40
7.0
 40
8.0
 40
8.0
 40
8.0
 40
9.0
 40
9.0
 40
9.0
 40
10.0
 40
10.0
 40
10.0
 40
11.0
 40
11.0
 40
11.0
 40
12.0
 40
12.0
 40
12.0
 40
13.0
 40
13.0
 40
13.0
 40
14.0
 40
14.0
 40
14.0
 40
15.0
 40
15.0
 40
15.0
 40
16.0
 40
16.0
 40
16.0
 40
17.0
 40
17.0
 40
17.0
 40
18.0
 40
18.0
 40
18.0
 40
19.0
 40
19.0
 40
19.0
 40
20.0
 40
20.0
 40
20.0
 40
21.0
 40
21.0
 40
21.0
 40
22.0
 40
22.0
 40
22.0
 40
23.0
 40
23.0
 40
23.0
 40
24.0
 40
24.0
 40
24.0
 40
25.0
 40
25.0
 40
25.0
 40
26.0
 40
26.0
 40
26.0
 40
27.0
 40
27.0
 40
27.0
 40
28.0
 40
28.0
 40
28.0
 40
29.0
 40
29.0
 40
29.0
 40
30.0
 40
30.0
 40
30.0
 40
31.0
 40
31.0
 40
31.0
 40
32.0
 40
32.0
 40
32.0
 40
33.0
 40
33.0
 40
33.0
 40
34.0
 40
34.0
 40
34.0
 40
35.0
 40
35.0
 40
35.0
 40
36.0
 40
36.0
 40
36.0
 40
37.0
 40
37.0
 40
37.0
 40
38.0
 40
38.0
 40
38.0
 40
39.0
 40
39.0
 40
39.0
 40
40.0
 40
40.0
 40
40.0
 40
41.0
 40
41.0
 40
41.0
 40
42.0
 40
42.0
 40
42.0
 40
43.0
 40
43.0
 40
43.0
 40
44.0
 40
44.0
 40
44.0
 40
45.0
 40
45.0
 40
45.0
 40
46.0
 40
46.0
 40
46.0
 40
47.0
 40
47.0
 40
47.0
 40
48.0
 40
48.0
 40
48.0
 40
49.0
 40
49.0
 40
49.0
 40
50.0
 40
50.0
 40
50.0
 40
51.0
 40
51.0
 40
51.0
 40
52.0
 40
52.0
 40
52.0
 40
53.0
 40
53.0
 40
53.0
 40
54.0
 40
54.0
 40
54.0
 40
55.0
 40
55.0
 40
55.0
 40
56.0
 40
56.0
 40
56.0
 40
57.0
 40
57.0
 40
57.0
 40
58.0
 40
58.0
 40
58.0
 40
59.0
 40
59.0
 40
59.0
 40
60.0
 40
60.0
 40
60.0
 40
61.0
 40
61.0
 40
61.0
 40
62.0
 40
62.0
 40
62.0
 40
63.0
 40
63.0
 40
63.0
 40
64.0
 40
64.0
 40
64.0
 40
65.0
 40
65.0
 40
65.0
 40
66.0
 40
66.0
 40
66.0
 40
67.0
 40
67.0
 40
67.0
 40
68.0
 40
68.0
 40
68.0
 40
69.0
 40
69.0
 40
69.0
 40
70.0
 40
70.0
 40
70.0
 40
71.0
 40
71.0
 40
71.0
 40
72.0
 40
72.0
 40
72.0
 40
73.0
 40
73.0
 40
73.0
 40
74.0
 40
74.0
 40
74.0
 40
75.0
 40
75.0
 40
75.0
 40
76.0
 40
76.0
 40
76.0
 40
77.0
 40
77.0
 40
77.0
 40
78.0
 40
78.0
 40
78.0
 40
79.0
 40
79.0
 40
79.0
 40
80.0
 40
80.0
 40
80.0
 40
81.0
 40
81.0
 40
81.0
 40
82.0
 40
82.0
 40
82.0
 40
83.0
 40
83.0
 40
83.0
 40
84.0
 40
84.0
 40
84.0
 40
84.0
 10
75.62607170209972
 20
-49.54871964530763
 10
75.57419970409902
 20
-49.60857544309763
 10
75.51076285253028
 20
-49.59801647443793
 10
75.44816721808764
 20
-49.59220511317209
 10
75.43797287094498
 20
-49.59125850866556
 10
75.42762632372417
 20
-49.59189459678333
 10
75.41735011316986
 20
-49.59189412630404
 10
75.02683235244042
 20
-49.59188424623693
 10
74.63631465052095
 20
-49.59189271486582
 10
74.24579694860125
 20
-49.59187624808762
 10
74.19976060036403
 20
-49.59187436617013
 10
74.15396055039391
 20
-49.59852129880957
 10
74.10770043040305
 20
-49.58837682248112
 10
73.97324943636014
 20
-49.558895173275
 10
73.87759253977623
 20
-49.43038137902903
 10
73.88996501530249
 20
-49.2930126924268
 10
73.90301356969333
 20
-49.14813703688416
 10
74.01267915145708
 20
-49.03768612212262
 10
74.15387804007332
 20
-49.03702321667999
 10
74.56363787803583
 20
-49.0351003674661
 10
74.97341330062792
 20
-49.03644264512887
 10
75.38318260698805
 20
-49.03660307859637
 10
75.4648514753775
 20
-49.03663507119416
 10
75.54753587350235
 20
-49.02432803640875
 10
75.62623907513807
 20
-49.05919102872985
 10
75.65157109623832
 20
-49.07041243235249
 10
75.64600073803345
 20
-49.04573531854513
 10
75.64723398210055
 20
-49.03547392809152
 10
75.65580893922737
 20
-48.96412690675596
 10
75.66663925686762
 20
-48.89321084452957
 10
75.67958637884569
 20
-48.82250108751026
 10
75.70621127727402
 20
-48.67709120263473
 10
75.74503535309041
 20
-48.53533223772569
 10
75.80421295485833
 20
-48.39972220303485
 10
75.8162426420511
 20
-48.37215540489387
 10
75.81533743972944
 20
-48.36267924452027
 10
75.78187694643151
 20
-48.3608949514829
 10
75.75006736526792
 20
-48.35919840284915
 10
75.71976731718568
 20
-48.34602992032429
 10
75.6917744999686
 20
-48.32954126483526
 10
75.31956379752028
 20
-48.11029458176097
 10
74.94123474601277
 20
-47.90177482848373
 10
74.56620546042652
 20
-47.68747029602582
 10
74.46422582089873
 20
-47.62919554418221
 10
74.41292363223361
 20
-47.539609684075
 10
74.42101029057666
 20
-47.42301572008679
 10
74.42957660264473
 20
-47.29950453305749
 10
74.49800077085001
 20
-47.21756066947235
 10
74.61445459079389
 20
-47.17483596676013
 10
74.70319599922904
 20
-47.14227832338694
 10
74.78168754395529
 20
-47.15116944265471
 10
74.86612388966055
 20
-47.20156131253543
 10
75.21835062770778
 20
-47.41177079249529
 10
75.57382978968888
 20
-47.61656646626331
 10
75.9295912392961
 20
-47.82077756940513
 10
75.98121670610318
 20
-47.85041118344972
 10
76.03372361602345
 20
-47.87593233725957
 10
76.06955626634041
 20
-47.92522469683583
 10
76.08602116262069
 20
-47.9478740445275
 10
76.09207317408777
 20
-47.92717412813458
 10
76.09947452040832
 20
-47.91804635773998
 10
76.15281323786722
 20
-47.8522644017161
 10
76.20417782385972
 20
-47.78482118301194
 10
76.25903713066541
 20
-47.7203457482182
 10
76.34901254769693
 20
-47.61459892150833
 10
76.44771135809833
 20
-47.51752914595014
 10
76.55989810652165
 20
-47.43327170002792
 10
76.46344583514569
 20
-47.34695872970736
 10
76.42184534290527
 20
-47.22665621202959
 10
76.35878134624277
 20
-47.1207741224986
 10
76.1829634382679
 20
-46.82558101169805
 10
76.01309568297498
 20
-46.52685060170112
 10
75.83935517668972
 20
-46.23040977959276
 10
75.77366755178111
 20
-46.11833206476499
 10
75.77025304770194
 20
-46.00862968269221
 10
75.84638743193888
 20
-45.90225694198109
 10
75.92280904383568
 20
-45.7954831176011
 10
76.11485896079902
 20
-45.72681753466514
 10
76.24765858693082
 20
-45.84287656360166
 10
76.29406102693332
 20
-45.88342965112875
 10
76.32311759802208
 20
-45.93093924672555
 10
76.35172039175166
 20
-45.98124684198763
 10
76.54241226999319
 20
-46.3166413569807
 10
76.7320065198479
 20
-46.65266043334709
 10
76.92302091170237
 20
-46.98787040280513
 10
76.95727863230472
 20
-47.04798896332722
 10
76.99765305528861
 20
-47.10430781478041
 10
77.00028491692375
 20
-47.17759838642279
 10
77.00124493009262
 20
-47.20434043421583
 10
77.02015067338123
 20
-47.18882520055818
 10
77.03109214177472
 20
-47.18403148618512
 10
77.15566237788208
 20
-47.1294556432043
 10
77.28279460943736
 20
-47.08213717985445
 10
77.41463045856486
 20
-47.04819656235236
 10
77.50161997822972
 20
-47.02580127352389
 10
77.58940272612417
 20
-47.0073382513293
 10
77.67891307429137
 20
-46.99801335007567
 10
77.68892369923706
 20
-46.99697029729665
 10
77.6987557772593
 20
-46.99421540530415
 10
77.71452530502028
 20
-46.99109647989345
 10
77.65674620320055
 20
-46.90052896456624
 10
77.67326849796472
 20
-46.80172453154444
 10
77.67304643169902
 20
-46.70554290343013
 10
77.6721831020418
 20
-46.33172692534748
 10
77.67364511670611
 20
-45.95790424293348
 10
77.6722219165904
 20
-45.5840916758261
 10
77.67166345756999
 20
-45.43738244453096
 10
77.74529983155445
 20
-45.33416516489473
 10
77.88926652094055
 20
-45.28887287979194
 10
77.97585448645708
 20
-45.26163203564429
 10
78.05647395059581
 20
-45.29569347813168
 10
78.12659984270819
 20
-45.34892264740776
 10
78.20694689928778
 20
-45.40991024214958
 10
78.22590157243151
 20
-45.49926192114667
 10
78.22623984710358
 20
-45.59235799848137
 10
78.22768798262636
 20
-45.99057809471292
 10
78.22582911860735
 20
-46.38881159960667
 10
78.22782253972819
 20
-46.78702687342431
 10
78.22817539926099
 20
-46.8574063539211
 10
78.21969924280331
 20
-46.92496636913069
 10
78.19769962713123
 20
-46.99087194361097
 10
78.18818606364735
 20
-47.01937276093556
 10
78.21040633414736
 20
-47.01099540514736
 10
78.21984838476595
 20
-47.01205904139889
 10
78.35921754967944
 20
-47.02776034965013
 10
78.49552765768304
 20
-47.05761026658847
 10
78.62950654037333
 20
-47.09857031877681
 10
78.70910412330513
 20
-47.1229051588372
 10
78.78796681745001
 20
-47.14960627492458
 10
78.86398828663651
 20
-47.18352830849137
 10
78.89320646739124
 20
-47.19656599774942
 10
78.90092138821652
 20
-47.18986025518791
 10
78.90327990133389
 20
-47.15939342216625
 10
78.90766900344265
 20
-47.10268795428515
 10
78.93903304063624
 20
-47.05560767111985
 10
78.96601879674694
 20
-47.00787295114125
 10
79.14205336047472
 20
-46.69648993925637
 10
79.31899265604473
 20
-46.38561822083445
 10
79.49563366768986
 20
-46.07457795317597
 10
79.52411790061624
 20
-46.02442055845499
 10
79.55164611944848
 20
-45.97369100200178
 10
79.58127032390596
 20
-45.92421574356735
 10
79.63703671495055
 20
-45.83107735249374
 10
79.77488764291376
 20
-45.76587467420292
 10
79.87847073496848
 20
-45.78226129447694
 10
79.99233850620625
 20
-45.80027500886651
 10
80.08132591654568
 20
-45.88257420200124
 10
80.10794234634527
 20
-45.99790010644847
 10
80.12477092318388
 20
-46.07081817604403
 10
80.11322818214665
 20
-46.14031486079958
 10
80.07523744292694
 20
-46.20553177109139
 10
79.8674379935761
 20
-46.56224700001596
 10
79.65990389459403
 20
-46.91911701665541
 10
79.45244366087404
 20
-47.27602972929806
 10
79.42291449325082
 20
-47.32683185719543
 10
79.39720279529359
 20
-47.38030301459917
 10
79.35118285502444
 20
-47.41928764150305
 10
79.33287979581805
 20
-47.43479228937444
 10
79.34918472911026
 20
-47.44008706428429
 10
79.35862207493487
 20
-47.44705627529679
 10
79.51558763903054
 20
-47.56296780894861
 10
79.65248490529666
 20
-47.69947598877027
 10
79.7741748666575
 20
-47.85160478962944
 10
79.79323163382625
 20
-47.87542868908651
 10
79.81203104877582
 20
-47.89945889375
 10
79.83141432863193
 20
-47.92398169032152
 10
79.91822341945542
 20
-47.82710951610152
 10
80.03866049423526
 20
-47.78559300442973
 10
80.14456493153652
 20
-47.72249442753333
 10
80.43858537248958
 20
-47.54731519531277
 10
80.73543057162277
 20
-47.37686004651762
 10
81.03191538355304
 20
-47.20584808537958
 10
81.10027462560458
 20
-47.16641862022473
 10
81.17425609621209
 20
-47.13934300255333
 10
81.25483462864513
 20
-47.14277867820444
 10
81.36913947522385
 20
-47.14765284455097
 10
81.48094278295513
 20
-47.24707525223442
 10
81.50663707317541
 20
-47.36326836779304
 10
81.53445416634513
 20
-47.48905902740471
 10
81.47654615317611
 20
-47.61687345405693
 10
81.36360428535262
 20
-47.67584592681653
 10
81.10790580110068
 20
-47.80935856444403
 10
80.86053009702943
 20
-47.95768071666373
 10
80.60932751370501
 20
-48.09918397603125
 10
80.47200540456096
 20
-48.17653807805375
 10
80.33384066685291
 20
-48.25239770233444
 10
80.19937201513108
 20
-48.33487955908736
 10
80.0987863471879
 20
-48.39657822459763
 10
79.95462158598389
 20
-48.36901777792819
 10
79.87005527035082
 20
-48.27434039000207
 10
79.85156260795527
 20
-48.25363694501374
 10
79.83994741309402
 20
-48.25194345449598
 10
79.81663939427416
 20
-48.26528107435666
 10
79.61524552164208
 20
-48.38052852636777
 10
79.41270179741263
 20
-48.49377103051306
 10
79.21159303528348
 20
-48.60950848679514
 10
79.18346589620387
 20
-48.62569556500347
 10
79.1726185236861
 20
-48.62131798963931
 10
79.15647825817581
 20
-48.59495185486862
 10
78.94296107295556
 20
-48.24617231921709
 10
78.63580155443847
 20
-48.02389127940013
 10
78.23585174077734
 20
-47.94293189391125
 10
77.81930059181651
 20
-47.85861234471139
 10
77.43206477760168
 20
-47.94124169674917
 10
77.09452828762429
 20
-48.20303006605819
 10
76.72331253143889
 20
-48.49093992086151
 10
76.54524220344612
 20
-48.87760857218722
 10
76.55028644808763
 20
-49.34714322667721
 10
76.55311708725958
 20
-49.61063755420749
 10
76.6335674140625
 20
-49.85123694381082
 10
76.77661243434887
 20
-50.07126368169236
 10
76.79259132543264
 20
-50.09584199483055
 10
76.79266848405055
 20
-50.10654257778292
 10
76.76679635262567
 20
-50.1237625934632
 10
76.56180354799875
 20
-50.26020490617194
 10
76.35819465845944
 20
-50.39872438533014
 10
76.15345685365501
 20
-50.53555296160736
 10
76.13335562226929
 20
-50.54898608878193
 10
76.12358611800444
 20
-50.5643693529743
 10
76.11974959392388
 20
-50.58737438307513
 10
76.10479917075847
 20
-50.67702187598055
 10
76.05539483709041
 20
-50.74401813927695
 10
75.97580948662248
 20
-50.78512204053486
 10
75.808271309965
 20
-50.87165166660833
 10
75.64862718915597
 20
-50.97178049907681
 10
75.48517265587209
 20
-51.06531132876054
 10
75.27712361721151
 20
-51.18435954841914
 10
75.07054859043946
 20
-51.30598081979125
 10
74.86295285865903
 20
-51.42582603151431
 10
74.72136708897041
 20
-51.50756335465318
 10
74.54865416845457
 20
-51.46193391226693
 10
74.46936357331626
 20
-51.32293360318555
 10
74.39088973037669
 20
-51.18536496284804
 10
74.43897148770583
 20
-51.01463928841083
 10
74.58020339809291
 20
-50.93419672451806
 10
74.93324094853692
 20
-50.73311383875431
 10
75.28685783552347
 20
-50.53304765892459
 10
75.63965655887333
 20
-50.33154839891222
 10
75.68997103489639
 20
-50.30281151856026
 10
75.73931385338568
 20
-50.2735556994554
 10
75.79720728169387
 20
-50.2631007067379
 10
75.8282325737361
 20
-50.25749823831554
 10
75.80803677599568
 20
-50.23986796461819
 10
75.80360180214777
 20
-50.22938286122055
 10
75.75057807063179
 20
-50.1040231607186
 10
75.70796393057346
 20
-49.97533858245848
 10
75.67776374173874
 20
-49.8426078815557
 10
75.65842327550595
 20
-49.75760543153985
 10
75.64261069888193
 20
-49.67198053730875
 10
75.63380932355514
 20
-49.58515215683042
 10
75.6328143772925
 20
-49.5753388979832
 10
75.62975673182084
 20
-49.56573453197972
 10
75.62607170209972
 20
-49.54871964530763
 97
        0
 97
        1
330
80
 75
     2
 76
     1
 98
        1
 10
0.0
 20
0.0
450
        0
451
        0
460
0.0
461
0.0
452
        0
462
0.0
453
        0
470

  0
ENDBLK
  5
7C
330
79
100
AcDbEntity
  8
0
100
AcDbBlockEnd
  0
ENDSEC
  0
SECTION
  2
ENTITIES
  0
INSERT
  5
7A
330
70
100
AcDbEntity
  8
Слой 1
100
AcDbBlockReference
  2
Block_0
 10
0.0
 20
0.0
 30
0.0
  0
ENDSEC
  0
SECTION
  2
OBJECTS
  0
DICTIONARY
  5
C
330
0
100
AcDbDictionary
281
     1
  3
ACAD_COLOR
350
63
  3
ACAD_DETAILVIEWSTYLE
350
6A
  3
ACAD_GROUP
350
D
  3
ACAD_LAYOUT
350
62
  3
ACAD_MATERIAL
350
10
  3
ACAD_MLEADERSTYLE
350
66
  3
ACAD_MLINESTYLE
350
5F
  3
ACAD_PLOTSETTINGS
350
61
  3
ACAD_PLOTSTYLENAME
350
E
  3
ACAD_SCALELIST
350
42
  3
ACAD_SECTIONVIEWSTYLE
350
68
  3
ACAD_TABLESTYLE
350
64
  3
ACAD_VISUALSTYLE
350
29
  3
ACDB_RECOMPOSE_DATA
350
8A
  3
AcDbVariableDictionary
350
82
  0
DICTIONARY
  5
63
102
{ACAD_REACTORS
330
C
102
}
330
C
100
AcDbDictionary
281
     1
  0
DICTIONARY
  5
6A
102
{ACAD_REACTORS
330
C
102
}
330
C
100
AcDbDictionary
281
     1
  3
Imperial24
350
6B
  0
DICTIONARY
  5
D
102
{ACAD_REACTORS
330
C
102
}
330
C
100
AcDbDictionary
281
     1
  0
DICTIONARY
  5
62
102
{ACAD_REACTORS
330
C
102
}
330
C
100
AcDbDictionary
281
     1
  3
Layout1
350
6F
  3
Layout2
350
77
  3
Model
350
73
  0
DICTIONARY
  5
10
102
{ACAD_REACTORS
330
C
102
}
330
C
100
AcDbDictionary
281
     1
  3
ByBlock
350
19
  3
ByLayer
350
11
  3
Global
350
21
  0
DICTIONARY
  5
66
102
{ACAD_REACTORS
330
C
102
}
330
C
100
AcDbDictionary
281
     1
  3
Standard
350
67
  0
DICTIONARY
  5
5F
102
{ACAD_REACTORS
330
C
102
}
330
C
100
AcDbDictionary
281
     1
  3
Standard
350
60
  0
DICTIONARY
  5
61
102
{ACAD_REACTORS
330
C
102
}
330
C
100
AcDbDictionary
281
     1
  0
ACDBDICTIONARYWDFLT
  5
E
102
{ACAD_REACTORS
330
C
102
}
330
C
100
AcDbDictionary
281
     1
  3
Normal
350
F
100
AcDbDictionaryWithDefault
340
F
  0
DICTIONARY
  5
42
102
{ACAD_REACTORS
330
C
102
}
330
C
100
AcDbDictionary
281
     1
  3
A0
350
43
  3
A1
350
44
  3
A2
350
45
  3
A3
350
46
  3
A4
350
47
  3
A5
350
48
  3
A6
350
49
  3
A7
350
4A
  3
A8
350
4B
  3
A9
350
4C
  3
B0
350
4D
  3
B1
350
4E
  3
B2
350
4F
  3
B3
350
50
  3
B4
350
51
  3
B5
350
52
  3
B6
350
53
  0
DICTIONARY
  5
68
102
{ACAD_REACTORS
330
C
102
}
330
C
100
AcDbDictionary
281
     1
  3
Imperial24
350
69
  0
DICTIONARY
  5
64
102
{ACAD_REACTORS
330
C
102
}
330
C
100
AcDbDictionary
281
     1
  3
Standard
350
65
  0
DICTIONARY
  5
29
102
{ACAD_REACTORS
330
C
102
}
330
C
100
AcDbDictionary
281
     1
  3
2dWireframe
350
2F
  3
Basic
350
2E
  3
Brighten
350
35
  3
ColorChange
350
39
  3
Conceptual
350
32
  3
Dim
350
34
  3
EdgeColorOff
350
41
  3
Facepattern
350
38
  3
Flat
350
2A
  3
FlatWithEdges
350
2B
  3
Gouraud
350
2C
  3
GouraudWithEdges
350
2D
  3
Hidden
350
31
  3
JitterOff
350
3F
  3
Linepattern
350
37
  3
OverhangOff
350
40
  3
Realistic
350
33
  3
Shaded
350
3E
  3
Shaded with edges
350
3D
  3
Shades of Gray
350
3A
  3
Sketchy
350
3B
  3
Thicken
350
36
  3
Wireframe
350
30
  3
X-Ray
350
3C
  0
XRECORD
  5
8A
102
{ACAD_REACTORS
330
C
102
}
330
C
100
AcDbXrecord
280
     1
 90
        1
330
65
  0
DICTIONARY
  5
82
102
{ACAD_REACTORS
330
C
102
}
330
C
100
AcDbDictionary
281
     1
  3
CANNOSCALE
350
87
  3
CMLEADERSTYLE
350
84
  3
CTABLESTYLE
350
83
  3
CVIEWDETAILSTYLE
350
85
  3
CVIEWSECTIONSTYLE
350
86
  0
ACDBDETAILVIEWSTYLE
  5
6B
102
{ACAD_XDICTIONARY
360
8D
102
}
102
{ACAD_REACTORS
330
6A
102
}
330
6A
100
AcDbModelDocViewStyle
 70
     0
  3
Imperial24
290
     0
100
AcDbDetailViewStyle
 70
     0
 71
     0
 90
        3
 71
     1
340
55
 62
   256
 40
0.24
340
0
 62
   256
 40
0.24
300

 40
0.36
280
     3
 71
     2
340
5D
 90
       25
 62
   256
 71
     3
340
55
 62
   256
 40
0.24
 90
        1
 40
0.75
 90
        1
300
%<\AcVar ViewType \f "%tc1">% %<\AcVar ViewDetailId>%\PSCALE %<\AcVar ViewScale \f "%sn">%
 71
     4
340
5D
 90
       25
 62
   256
340
5D
 90
       25
 62
   256
280
     0
  0
LAYOUT
  5
6F
102
{ACAD_REACTORS
330
62
102
}
330
62
100
AcDbPlotSettings
  1

  2

  4

  6

 40
0.0
 41
0.0
 42
0.0
 43
0.0
 44
0.0
 45
0.0
 46
0.0
 47
0.0
 48
0.0
 49
0.0
140
0.0
141
0.0
142
1.0
143
1.0
 70
   688
 72
     0
 73
     0
 74
     5
  7

 75
    16
147
1.0
 76
     0
 77
     2
 78
   300
148
0.0
149
0.0
100
AcDbLayout
  1
Layout1
 70
     1
 71
     1
 10
0.0
 20
0.0
 11
12.0
 21
9.0
 12
0.0
 22
0.0
 32
0.0
 14
0.0
 24
0.0
 34
0.0
 15
0.0
 25
0.0
 35
0.0
146
0.0
 13
0.0
 23
0.0
 33
0.0
 16
1.0
 26
0.0
 36
0.0
 17
0.0
 27
1.0
 37
0.0
 76
     0
330
6C
  0
LAYOUT
  5
77
102
{ACAD_REACTORS
330
62
102
}
330
62
100
AcDbPlotSettings
  1

  2

  4

  6

 40
0.0
 41
0.0
 42
0.0
 43
0.0
 44
0.0
 45
0.0
 46
0.0
 47
0.0
 48
0.0
 49
0.0
140
0.0
141
0.0
142
1.0
143
1.0
 70
   688
 72
     0
 73
     0
 74
     5
  7

 75
    16
147
1.0
 76
     0
 77
     2
 78
   300
148
0.0
149
0.0
100
AcDbLayout
  1
Layout2
 70
     1
 71
     2
 10
0.0
 20
0.0
 11
12.0
 21
9.0
 12
0.0
 22
0.0
 32
0.0
 14
0.0
 24
0.0
 34
0.0
 15
0.0
 25
0.0
 35
0.0
146
0.0
 13
0.0
 23
0.0
 33
0.0
 16
1.0
 26
0.0
 36
0.0
 17
0.0
 27
1.0
 37
0.0
 76
     0
330
74
  0
LAYOUT
  5
73
102
{ACAD_REACTORS
330
62
102
}
330
62
100
AcDbPlotSettings
  1

  2

  4

  6

 40
0.0
 41
0.0
 42
0.0
 43
0.0
 44
0.0
 45
0.0
 46
0.0
 47
0.0
 48
0.0
 49
0.0
140
0.0
141
0.0
142
1.0
143
1.0
 70
  1712
 72
     0
 73
     0
 74
     0
  7

 75
     0
147
1.0
 76
     0
 77
     2
 78
   300
148
0.0
149
0.0
100
AcDbLayout
  1
Model
 70
     1
 71
     0
 10
0.0
 20
0.0
 11
12.0
 21
9.0
 12
0.0
 22
0.0
 32
0.0
 14
0.0
 24
0.0
 34
0.0
 15
0.0
 25
0.0
 35
0.0
146
0.0
 13
0.0
 23
0.0
 33
0.0
 16
1.0
 26
0.0
 36
0.0
 17
0.0
 27
1.0
 37
0.0
 76
     0
330
70
  0
MATERIAL
  5
19
102
{ACAD_XDICTIONARY
360
1A
102
}
102
{ACAD_REACTORS
330
10
102
}
330
10
100
AcDbMaterial
  1
ByBlock
 72
     0
 43
0.0208333333333333
 43
0.0
 43
0.0
 43
0.0
 43
0.0
 43
0.0208333333333333
 43
0.0
 43
0.0
 43
0.0
 43
0.0
 43
1.0
 43
0.0
 43
0.0
 43
0.0
 43
0.0
 43
1.0
 77
     0
 47
0.0208333333333333
 47
0.0
 47
0.0
 47
0.0
 47
0.0
 47
0.0208333333333333
 47
0.0
 47
0.0
 47
0.0
 47
0.0
 47
1.0
 47
0.0
 47
0.0
 47
0.0
 47
0.0
 47
1.0
171
     0
 49
0.0208333333333333
 49
0.0
 49
0.0
 49
0.0
 49
0.0
 49
0.0208333333333333
 49
0.0
 49
0.0
 49
0.0
 49
0.0
 49
1.0
 49
0.0
 49
0.0
 49
0.0
 49
0.0
 49
1.0
175
     0
142
0.0208333333333333
142
0.0
142
0.0
142
0.0
142
0.0
142
0.0208333333333333
142
0.0
142
0.0
142
0.0
142
0.0
142
1.0
142
0.0
142
0.0
142
0.0
142
0.0
142
1.0
179
     0
144
0.0208333333333333
144
0.0
144
0.0
144
0.0
144
0.0
144
0.0208333333333333
144
0.0
144
0.0
144
0.0
144
0.0
144
1.0
144
0.0
144
0.0
144
0.0
144
0.0
144
1.0
147
0.0208333333333333
147
0.0
147
0.0
147
0.0
147
0.0
147
0.0208333333333333
147
0.0
147
0.0
147
0.0
147
0.0
147
1.0
147
0.0
147
0.0
147
0.0
147
0.0
147
1.0
  0
MATERIAL
  5
11
102
{ACAD_XDICTIONARY
360
12
102
}
102
{ACAD_REACTORS
330
10
102
}
330
10
100
AcDbMaterial
  1
ByLayer
 72
     0
 43
0.0208333333333333
 43
0.0
 43
0.0
 43
0.0
 43
0.0
 43
0.0208333333333333
 43
0.0
 43
0.0
 43
0.0
 43
0.0
 43
1.0
 43
0.0
 43
0.0
 43
0.0
 43
0.0
 43
1.0
 77
     0
 47
0.0208333333333333
 47
0.0
 47
0.0
 47
0.0
 47
0.0
 47
0.0208333333333333
 47
0.0
 47
0.0
 47
0.0
 47
0.0
 47
1.0
 47
0.0
 47
0.0
 47
0.0
 47
0.0
 47
1.0
171
     0
 49
0.0208333333333333
 49
0.0
 49
0.0
 49
0.0
 49
0.0
 49
0.0208333333333333
 49
0.0
 49
0.0
 49
0.0
 49
0.0
 49
1.0
 49
0.0
 49
0.0
 49
0.0
 49
0.0
 49
1.0
175
     0
142
0.0208333333333333
142
0.0
142
0.0
142
0.0
142
0.0
142
0.0208333333333333
142
0.0
142
0.0
142
0.0
142
0.0
142
1.0
142
0.0
142
0.0
142
0.0
142
0.0
142
1.0
179
     0
144
0.0208333333333333
144
0.0
144
0.0
144
0.0
144
0.0
144
0.0208333333333333
144
0.0
144
0.0
144
0.0
144
0.0
144
1.0
144
0.0
144
0.0
144
0.0
144
0.0
144
1.0
147
0.0208333333333333
147
0.0
147
0.0
147
0.0
147
0.0
147
0.0208333333333333
147
0.0
147
0.0
147
0.0
147
0.0
147
1.0
147
0.0
147
0.0
147
0.0
147
0.0
147
1.0
  0
MATERIAL
  5
21
102
{ACAD_XDICTIONARY
360
22
102
}
102
{ACAD_REACTORS
330
10
102
}
330
10
100
AcDbMaterial
  1
Global
 72
     0
 43
0.0208333333333333
 43
0.0
 43
0.0
 43
0.0
 43
0.0
 43
0.0208333333333333
 43
0.0
 43
0.0
 43
0.0
 43
0.0
 43
1.0
 43
0.0
 43
0.0
 43
0.0
 43
0.0
 43
1.0
 77
     0
 47
0.0208333333333333
 47
0.0
 47
0.0
 47
0.0
 47
0.0
 47
0.0208333333333333
 47
0.0
 47
0.0
 47
0.0
 47
0.0
 47
1.0
 47
0.0
 47
0.0
 47
0.0
 47
0.0
 47
1.0
171
     0
 49
0.0208333333333333
 49
0.0
 49
0.0
 49
0.0
 49
0.0
 49
0.0208333333333333
 49
0.0
 49
0.0
 49
0.0
 49
0.0
 49
1.0
 49
0.0
 49
0.0
 49
0.0
 49
0.0
 49
1.0
175
     0
142
0.0208333333333333
142
0.0
142
0.0
142
0.0
142
0.0
142
0.0208333333333333
142
0.0
142
0.0
142
0.0
142
0.0
142
1.0
142
0.0
142
0.0
142
0.0
142
0.0
142
1.0
179
     0
144
0.0208333333333333
144
0.0
144
0.0
144
0.0
144
0.0
144
0.0208333333333333
144
0.0
144
0.0
144
0.0
144
0.0
144
1.0
144
0.0
144
0.0
144
0.0
144
0.0
144
1.0
147
0.0208333333333333
147
0.0
147
0.0
147
0.0
147
0.0
147
0.0208333333333333
147
0.0
147
0.0
147
0.0
147
0.0
147
1.0
147
0.0
147
0.0
147
0.0
147
0.0
147
1.0
  0
MLEADERSTYLE
  5
67
102
{ACAD_REACTORS
330
66
102
}
330
66
100
AcDbMLeaderStyle
179
     2
170
     2
171
     1
172
     0
 90
        2
 40
0.0
 41
0.0
173
     1
 91
-1056964608
340
5B
 92
       -2
290
     1
 42
0.09
291
     1
 43
0.36
  3
Standard
 44
0.18
300

342
55
174
     1
178
     6
175
     1
176
     0
 93
-1056964608
 45
0.18
292
     0
297
     0
 46
0.18
 94
-1056964608
 47
1.0
 49
1.0
140
1.0
293
     1
141
0.0
294
     1
177
     0
142
1.0
295
     0
296
     0
143
0.125
271
     0
272
     9
273
     9
298
     1
  0
MLINESTYLE
  5
60
102
{ACAD_REACTORS
330
5F
102
}
330
5F
100
AcDbMlineStyle
  2
STANDARD
 70
     0
  3

 62
   256
 51
90.0
 52
90.0
 71
     2
 49
0.5
 62
   256
  6
BYLAYER
 49
-0.5
 62
   256
  6
BYLAYER
  0
ACDBPLACEHOLDER
  5
F
102
{ACAD_REACTORS
330
E
102
}
330
E
  0
SCALE
  5
43
102
{ACAD_REACTORS
330
42
102
}
330
42
100
AcDbScale
 70
     0
300
1:1
140
1.0
141
1.0
290
     1
  0
SCALE
  5
44
102
{ACAD_REACTORS
330
42
102
}
330
42
100
AcDbScale
 70
     0
300
1/128" = 1'-0"
140
0.0078125
141
12.0
290
     0
  0
SCALE
  5
45
102
{ACAD_REACTORS
330
42
102
}
330
42
100
AcDbScale
 70
     0
300
1/64" = 1'-0"
140
0.015625
141
12.0
290
     0
  0
SCALE
  5
46
102
{ACAD_REACTORS
330
42
102
}
330
42
100
AcDbScale
 70
     0
300
1/32" = 1'-0"
140
0.03125
141
12.0
290
     0
  0
SCALE
  5
47
102
{ACAD_REACTORS
330
42
102
}
330
42
100
AcDbScale
 70
     0
300
1/16" = 1'-0"
140
0.0625
141
12.0
290
     0
  0
SCALE
  5
48
102
{ACAD_REACTORS
330
42
102
}
330
42
100
AcDbScale
 70
     0
300
3/32" = 1'-0"
140
0.09375
141
12.0
290
     0
  0
SCALE
  5
49
102
{ACAD_REACTORS
330
42
102
}
330
42
100
AcDbScale
 70
     0
300
1/8" = 1'-0"
140
0.125
141
12.0
290
     0
  0
SCALE
  5
4A
102
{ACAD_REACTORS
330
42
102
}
330
42
100
AcDbScale
 70
     0
300
3/16" = 1'-0"
140
0.1875
141
12.0
290
     0
  0
SCALE
  5
4B
102
{ACAD_REACTORS
330
42
102
}
330
42
100
AcDbScale
 70
     0
300
1/4" = 1'-0"
140
0.25
141
12.0
290
     0
  0
SCALE
  5
4C
102
{ACAD_REACTORS
330
42
102
}
330
42
100
AcDbScale
 70
     0
300
3/8" = 1'-0"
140
0.375
141
12.0
290
     0
  0
SCALE
  5
4D
102
{ACAD_REACTORS
330
42
102
}
330
42
100
AcDbScale
 70
     0
300
1/2" = 1'-0"
140
0.5
141
12.0
290
     0
  0
SCALE
  5
4E
102
{ACAD_REACTORS
330
42
102
}
330
42
100
AcDbScale
 70
     0
300
3/4" = 1'-0"
140
0.75
141
12.0
290
     0
  0
SCALE
  5
4F
102
{ACAD_REACTORS
330
42
102
}
330
42
100
AcDbScale
 70
     0
300
1" = 1'-0"
140
1.0
141
12.0
290
     0
  0
SCALE
  5
50
102
{ACAD_REACTORS
330
42
102
}
330
42
100
AcDbScale
 70
     0
300
1-1/2" = 1'-0"
140
1.5
141
12.0
290
     0
  0
SCALE
  5
51
102
{ACAD_REACTORS
330
42
102
}
330
42
100
AcDbScale
 70
     0
300
3" = 1'-0"
140
3.0
141
12.0
290
     0
  0
SCALE
  5
52
102
{ACAD_REACTORS
330
42
102
}
330
42
100
AcDbScale
 70
     0
300
6" = 1'-0"
140
6.0
141
12.0
290
     0
  0
SCALE
  5
53
102
{ACAD_REACTORS
330
42
102
}
330
42
100
AcDbScale
 70
     0
300
1'-0" = 1'-0"
140
12.0
141
12.0
290
     0
  0
ACDBSECTIONVIEWSTYLE
  5
69
102
{ACAD_XDICTIONARY
360
8B
102
}
102
{ACAD_REACTORS
330
68
102
}
330
68
100
AcDbModelDocViewStyle
 70
     0
  3
Imperial24
290
     0
100
AcDbSectionViewStyle
 70
     0
 71
     0
 90
       78
 71
     1
340
55
 62
   256
 40
0.24
340
0
340
0
 62
   256
 40
0.24
300
I, O, Q, S, X, Z
 40
0.48
 90
        3
 40
0.18
 90
        1
 71
     2
340
5D
 90
       25
 62
   256
340
5D
 90
       50
 62
   256
 40
0.24
 40
0.0
 40
0.24
 71
     3
340
55
 62
   256
 40
0.24
 90
        1
 40
0.75
 90
        1
300
%<\AcVar ViewType \f "%tc1">% %<\AcVar ViewSectionStartId>%-%<\AcVar ViewSectionEndId>%\PSCALE %<\AcVar ViewScale \f "%sn">%
 71
     4
 62
   256
 62
   257
300
ANSI31
 40
1.0
 90
        0
290
     0
290
     0
 90
        6
 40
0.0
 40
1.570796326794896
 40
0.2617993877991494
 40
1.308996938995747
 40
-0.2617993877991494
 40
1.832595714594046
  0
TABLESTYLE
  5
65
102
{ACAD_XDICTIONARY
360
88
102
}
102
{ACAD_REACTORS
330
64
102
}
330
64
100
AcDbTableStyle
280
     0
  3
Standard
 70
     0
 71
     0
 40
0.06
 41
0.06
280
     0
281
     0
  7
Standard
140
0.18
170
     2
 62
     0
 63
     7
283
     0
 90
      512
 91
        0
  1

274
    -2
284
     1
 64
     0
275
    -2
285
     1
 65
     0
276
    -2
286
     1
 66
     0
277
    -2
287
     1
 67
     0
278
    -2
288
     1
 68
     0
279
    -2
289
     1
 69
     0
  7
Standard
140
0.25
170
     5
 62
     0
 63
     7
283
     0
 90
      512
 91
        0
  1

274
    -2
284
     1
 64
     0
275
    -2
285
     1
 65
     0
276
    -2
286
     1
 66
     0
277
    -2
287
     1
 67
     0
278
    -2
288
     1
 68
     0
279
    -2
289
     1
 69
     0
  7
Standard
140
0.18
170
     5
 62
     0
 63
     7
283
     0
 90
      512
 91
        0
  1

274
    -2
284
     1
 64
     0
275
    -2
285
     1
 65
     0
276
    -2
286
     1
 66
     0
277
    -2
287
     1
 67
     0
278
    -2
288
     1
 68
     0
279
    -2
289
     1
 69
     0
  0
VISUALSTYLE
  5
2F
102
{ACAD_REACTORS
330
29
102
}
330
29
100
AcDbVisualStyle
  2
2dWireframe
 70
     4
177
     3
291
     0
 70
    58
 90
        0
176
     1
 90
        2
176
     1
 90
        0
176
     1
 90
        0
176
     1
 40
0.6
176
     1
 40
30.0
176
     1
 62
     7
420
 16777215
176
     1
 90
        1
176
     1
 90
        4
176
     1
 62
     7
176
     1
 62
   257
176
     1
 90
        1
176
     1
 90
        1
176
     1
 40
1.0
176
     1
 90
        0
176
     1
 62
   257
176
     1
 40
1.0
176
     1
 90
        1
176
     1
 90
        6
176
     1
 90
        2
176
     1
 62
     7
176
     1
 90
        5
176
     1
 90
        0
176
     1
 90
        0
176
     1
290
     0
176
     1
 90
        1
176
     1
 40
0.0
176
     1
 90
        0
176
     1
290
     1
176
     1
290
     1
176
     1
290
     0
176
     1
290
     0
176
     1
290
     0
176
     1
290
     0
176
     1
290
     0
176
     1
290
     0
176
     1
290
     0
176
     1
 90
       50
176
     1
 40
0.0
176
     1
 40
1.0
176
     1
 90
        0
176
     1
 62
    18
420
        0
176
     1
 90
       50
176
     1
 90
        3
176
     1
 62
     5
420
      255
176
     1
290
     0
176
     1
 90
       50
176
     1
 90
       50
176
     1
 90
       50
176
     1
290
     0
176
     1
 90
       50
176
     1
 62
   256
176
     0
 40
1.0
176
     0
 90
        2
176
     1
  1
strokes_ogs.tif
176
     1
290
     0
176
     1
 40
1.0
176
     1
 40
1.0
176
     1
1001
ACAD
1000
AcDbSavedByObjectVersion
1070
     0
  0
VISUALSTYLE
  5
2E
102
{ACAD_REACTORS
330
29
102
}
330
29
100
AcDbVisualStyle
  2
Basic
 70
     7
177
     3
291
     1
 70
    58
 90
        1
176
     1
 90
        0
176
     1
 90
        1
176
     1
 90
        0
176
     1
 40
0.6
176
     1
 40
30.0
176
     1
 62
     7
420
 16777215
176
     1
 90
        0
176
     1
 90
        4
176
     1
 62
     7
176
     1
 62
   257
176
     1
 90
        1
176
     1
 90
        1
176
     1
 40
1.0
176
     1
 90
        8
176
     1
 62
     7
176
     1
 40
1.0
176
     1
 90
        1
176
     1
 90
        6
176
     1
 90
        2
176
     1
 62
     7
176
     1
 90
        5
176
     1
 90
        0
176
     1
 90
        0
176
     1
290
     0
176
     1
 90
        1
176
     1
 40
0.0
176
     1
 90
        0
176
     1
290
     0
176
     1
290
     1
176
     1
290
     1
176
     1
290
     0
176
     1
290
     0
176
     1
290
     0
176
     1
290
     0
176
     1
290
     0
176
     1
290
     0
176
     1
 90
       50
176
     1
 40
0.0
176
     1
 40
1.0
176
     1
 90
        0
176
     1
 62
    18
420
        0
176
     1
 90
       50
176
     1
 90
        3
176
     1
 62
     5
420
      255
176
     1
290
     0
176
     1
 90
       50
176
     1
 90
       50
176
     1
 90
       50
176
     1
290
     0
176
     1
 90
       50
176
     1
 62
   256
176
     0
 40
1.0
176
     0
 90
        2
176
     1
  1
strokes_ogs.tif
176
     1
290
     0
176
     1
 40
1.0
176
     1
 40
1.0
176
     1
1001
ACAD
1000
AcDbSavedByObjectVersion
1070
     0
  0
VISUALSTYLE
  5
35
102
{ACAD_REACTORS
330
29
102
}
330
29
100
AcDbVisualStyle
  2
Brighten
 70
    12
177
     3
291
     1
 70
    58
 90
        2
176
     1
 90
        2
176
     1
 90
        0
176
     1
 90
        0
176
     1
 40
0.6
176
     1
 40
30.0
176
     1
 62
     7
420
 16777215
176
     1
 90
        1
176
     1
 90
        4
176
     1
 62
     7
176
     1
 62
   257
176
     1
 90
        1
176
     1
 90
        1
176
     1
 40
1.0
176
     1
 90
        8
176
     1
 62
     7
176
     1
 40
1.0
176
     1
 90
        1
176
     1
 90
        6
176
     1
 90
        2
176
     1
 62
     7
176
     1
 90
        5
176
     1
 90
        0
176
     1
 90
        0
176
     1
290
     0
176
     1
 90
        1
176
     1
 40
50.0
176
     1
 90
        0
176
     1
290
     0
176
     1
290
     1
176
     1
290
     1
176
     1
290
     0
176
     1
290
     0
176
     1
290
     0
176
     1
290
     0
176
     1
290
     0
176
     1
290
     0
176
     1
 90
       50
176
     1
 40
0.0
176
     1
 40
1.0
176
     1
 90
        0
176
     1
 62
    18
420
        0
176
     1
 90
       50
176
     1
 90
        3
176
     1
 62
     5
420
      255
176
     1
290
     0
176
     1
 90
       50
176
     1
 90
       50
176
     1
 90
       50
176
     1
290
     0
176
     1
 90
       50
176
     1
 62
   256
176
     0
 40
1.0
176
     0
 90
        2
176
     1
  1
strokes_ogs.tif
176
     1
290
     0
176
     1
 40
1.0
176
     1
 40
1.0
176
     1
1001
ACAD
1000
AcDbSavedByObjectVersion
1070
     0
  0
VISUALSTYLE
  5
39
102
{ACAD_REACTORS
330
29
102
}
330
29
100
AcDbVisualStyle
  2
ColorChange
 70
    16
177
     3
291
     1
 70
    58
 90
        2
176
     1
 90
        2
176
     1
 90
        3
176
     1
 90
        0
176
     1
 40
0.6
176
     1
 40
30.0
176
     1
 62
     8
420
  8421504
176
     1
 90
        1
176
     1
 90
        4
176
     1
 62
     7
176
     1
 62
   257
176
     1
 90
        1
176
     1
 90
        1
176
     1
 40
1.0
176
     1
 90
        8
176
     1
 62
     8
420
  8421504
176
     1
 40
1.0
176
     1
 90
        1
176
     1
 90
        6
176
     1
 90
        2
176
     1
 62
     7
176
     1
 90
        5
176
     1
 90
        0
176
     1
 90
        0
176
     1
290
     0
176
     1
 90
        1
176
     1
 40
0.0
176
     1
 90
        0
176
     1
290
     0
176
     1
290
     1
176
     1
290
     1
176
     1
290
     0
176
     1
290
     0
176
     1
290
     0
176
     1
290
     0
176
     1
290
     0
176
     1
290
     0
176
     1
 90
       50
176
     1
 40
0.0
176
     1
 40
1.0
176
     1
 90
        0
176
     1
 62
    18
420
        0
176
     1
 90
       50
176
     1
 90
        3
176
     1
 62
     5
420
      255
176
     1
290
     0
176
     1
 90
       50
176
     1
 90
       50
176
     1
 90
       50
176
     1
290
     0
176
     1
 90
       50
176
     1
 62
   256
176
     0
 40
1.0
176
     0
 90
        2
176
     1
  1
strokes_ogs.tif
176
     1
290
     0
176
     1
 40
1.0
176
     1
 40
1.0
176
     1
1001
ACAD
1000
AcDbSavedByObjectVersion
1070
     0
  0
VISUALSTYLE
  5
32
102
{ACAD_REACTORS
330
29
102
}
330
29
100
AcDbVisualStyle
  2
Conceptual
 70
     9
177
     3
291
     0
 70
    58
 90
        3
176
     1
 90
        2
176
     1
 90
        0
176
     1
 90
        0
176
     1
 40
0.6
176
     1
 40
30.0
176
     1
 62
     7
420
 16777215
176
     1
 90
        2
176
     1
 90
        2
176
     1
 62
     7
176
     1
 62
   257
176
     1
 90
        1
176
     1
 90
        1
176
     1
 40
179.0
176
     1
 90
        8
176
     1
 62
     7
176
     1
 40
1.0
176
     1
 90
        1
176
     1
 90
        6
176
     1
 90
        2
176
     1
 62
     7
176
     1
 90
        3
176
     1
 90
        0
176
     1
 90
        0
176
     1
290
     0
176
     1
 90
        1
176
     1
 40
0.0
176
     1
 90
        0
176
     1
290
     0
176
     1
290
     1
176
     1
290
     1
176
     1
290
     0
176
     1
290
     0
176
     1
290
     0
176
     1
290
     0
176
     1
290
     0
176
     1
290
     0
176
     1
 90
       50
176
     1
 40
0.0
176
     1
 40
1.0
176
     1
 90
        0
176
     1
 62
    18
420
        0
176
     1
 90
       50
176
     1
 90
        3
176
     1
 62
     5
420
      255
176
     1
290
     0
176
     1
 90
       50
176
     1
 90
       50
176
     1
 90
       50
176
     1
290
     0
176
     1
 90
       50
176
     1
 62
   256
176
     0
 40
1.0
176
     0
 90
        2
176
     1
  1
strokes_ogs.tif
176
     1
290
     0
176
     1
 40
1.0
176
     1
 40
1.0
176
     1
1001
ACAD
1000
AcDbSavedByObjectVersion
1070
     0
  0
VISUALSTYLE
  5
34
102
{ACAD_REACTORS
330
29
102
}
330
29
100
AcDbVisualStyle
  2
Dim
 70
    11
177
     3
291
     1
 70
    58
 90
        2
176
     1
 90
        2
176
     1
 90
        0
176
     1
 90
        0
176
     1
 40
0.6
176
     1
 40
30.0
176
     1
 62
     7
420
 16777215
176
     1
 90
        1
176
     1
 90
        4
176
     1
 62
     7
176
     1
 62
   257
176
     1
 90
        1
176
     1
 90
        1
176
     1
 40
1.0
176
     1
 90
        8
176
     1
 62
     7
176
     1
 40
1.0
176
     1
 90
        1
176
     1
 90
        6
176
     1
 90
        2
176
     1
 62
     7
176
     1
 90
        5
176
     1
 90
        0
176
     1
 90
        0
176
     1
290
     0
176
     1
 90
        1
176
     1
 40
-50.0
176
     1
 90
        0
176
     1
290
     0
176
     1
290
     1
176
     1
290
     1
176
     1
290
     0
176
     1
290
     0
176
     1
290
     0
176
     1
290
     0
176
     1
290
     0
176
     1
290
     0
176
     1
 90
       50
176
     1
 40
0.0
176
     1
 40
1.0
176
     1
 90
        0
176
     1
 62
    18
420
        0
176
     1
 90
       50
176
     1
 90
        3
176
     1
 62
     5
420
      255
176
     1
290
     0
176
     1
 90
       50
176
     1
 90
       50
176
     1
 90
       50
176
     1
290
     0
176
     1
 90
       50
176
     1
 62
   256
176
     0
 40
1.0
176
     0
 90
        2
176
     1
  1
strokes_ogs.tif
176
     1
290
     0
176
     1
 40
1.0
176
     1
 40
1.0
176
     1
1001
ACAD
1000
AcDbSavedByObjectVersion
1070
     0
  0
VISUALSTYLE
  5
41
102
{ACAD_REACTORS
330
29
102
}
330
29
100
AcDbVisualStyle
  2
EdgeColorOff
 70
    22
177
     3
291
     1
 70
    58
 90
        2
176
     0
 90
        2
176
     0
 90
        0
176
     0
 90
        0
176
     0
 40
0.6
176
     0
 40
30.0
176
     0
 62
     7
420
 16777215
176
     0
 90
        1
176
     0
 90
        4
176
     0
 62
     7
176
     0
 62
   257
176
     0
 90
        1
176
     0
 90
        1
176
     0
 40
1.0
176
     0
 90
        8
176
     2
 62
     7
176
     0
 40
1.0
176
     0
 90
        1
176
     0
 90
        6
176
     0
 90
        2
176
     0
 62
     7
176
     0
 90
        5
176
     0
 90
        0
176
     0
 90
        0
176
     0
290
     0
176
     0
 90
        1
176
     0
 40
0.0
176
     0
 90
        0
176
     0
290
     0
176
     0
290
     1
176
     0
290
     1
176
     0
290
     0
176
     0
290
     0
176
     0
290
     0
176
     0
290
     0
176
     0
290
     0
176
     0
290
     0
176
     0
 90
       50
176
     0
 40
0.0
176
     0
 40
1.0
176
     0
 90
        0
176
     0
 62
    18
420
        0
176
     0
 90
       50
176
     0
 90
        3
176
     0
 62
     5
420
      255
176
     0
290
     0
176
     0
 90
       50
176
     0
 90
       50
176
     0
 90
       50
176
     0
290
     0
176
     0
 90
       50
176
     0
 62
   256
176
     0
 40
1.0
176
     0
 90
        2
176
     0
  1
strokes_ogs.tif
176
     0
290
     0
176
     0
 40
1.0
176
     0
 40
1.0
176
     0
1001
ACAD
1000
AcDbSavedByObjectVersion
1070
     0
  0
VISUALSTYLE
  5
38
102
{ACAD_REACTORS
330
29
102
}
330
29
100
AcDbVisualStyle
  2
Facepattern
 70
    15
177
     3
291
     1
 70
    58
 90
        2
176
     1
 90
        2
176
     1
 90
        0
176
     1
 90
        0
176
     1
 40
0.6
176
     1
 40
30.0
176
     1
 62
     7
420
 16777215
176
     1
 90
        1
176
     1
 90
        4
176
     1
 62
     7
176
     1
 62
   257
176
     1
 90
        1
176
     1
 90
        1
176
     1
 40
1.0
176
     1
 90
        8
176
     1
 62
     7
176
     1
 40
1.0
176
     1
 90
        1
176
     1
 90
        6
176
     1
 90
        2
176
     1
 62
     7
176
     1
 90
        5
176
     1
 90
        0
176
     1
 90
        0
176
     1
290
     0
176
     1
 90
        1
176
     1
 40
0.0
176
     1
 90
        0
176
     1
290
     0
176
     1
290
     1
176
     1
290
     1
176
     1
290
     0
176
     1
290
     0
176
     1
290
     0
176
     1
290
     0
176
     1
290
     0
176
     1
290
     0
176
     1
 90
       50
176
     1
 40
0.0
176
     1
 40
1.0
176
     1
 90
        0
176
     1
 62
    18
420
        0
176
     1
 90
       50
176
     1
 90
        3
176
     1
 62
     5
420
      255
176
     1
290
     0
176
     1
 90
       50
176
     1
 90
       50
176
     1
 90
       50
176
     1
290
     0
176
     1
 90
       50
176
     1
 62
   256
176
     0
 40
1.0
176
     0
 90
        2
176
     1
  1
strokes_ogs.tif
176
     1
290
     0
176
     1
 40
1.0
176
     1
 40
1.0
176
     1
1001
ACAD
1000
AcDbSavedByObjectVersion
1070
     0
  0
VISUALSTYLE
  5
2A
102
{ACAD_REACTORS
330
29
102
}
330
29
100
AcDbVisualStyle
  2
Flat
 70
     0
177
     3
291
     1
 70
    58
 90
        2
176
     1
 90
        1
176
     1
 90
        1
176
     1
 90
        2
176
     1
 40
0.6
176
     1
 40
30.0
176
     1
 62
     7
420
 16777215
176
     1
 90
        0
176
     1
 90
        0
176
     1
 62
     7
176
     1
 62
   257
176
     1
 90
        1
176
     1
 90
        1
176
     1
 40
1.0
176
     1
 90
        8
176
     1
 62
     7
176
     1
 40
1.0
176
     1
 90
        1
176
     1
 90
        6
176
     1
 90
        2
176
     1
 62
     7
176
     1
 90
        5
176
     1
 90
        0
176
     1
 90
        0
176
     1
290
     0
176
     1
 90
       13
176
     1
 40
0.0
176
     1
 90
        0
176
     1
290
     0
176
     1
290
     1
176
     1
290
     1
176
     1
290
     0
176
     1
290
     0
176
     1
290
     0
176
     1
290
     0
176
     1
290
     0
176
     1
290
     0
176
     1
 90
       50
176
     1
 40
0.0
176
     1
 40
1.0
176
     1
 90
        0
176
     1
 62
    18
420
        0
176
     1
 90
       50
176
     1
 90
        3
176
     1
 62
     5
420
      255
176
     1
290
     0
176
     1
 90
       50
176
     1
 90
       50
176
     1
 90
       50
176
     1
290
     0
176
     1
 90
       50
176
     1
 62
   256
176
     0
 40
1.0
176
     0
 90
        2
176
     1
  1
strokes_ogs.tif
176
     1
290
     0
176
     1
 40
1.0
176
     1
 40
1.0
176
     1
1001
ACAD
1000
AcDbSavedByObjectVersion
1070
     0
  0
VISUALSTYLE
  5
2B
102
{ACAD_REACTORS
330
29
102
}
330
29
100
AcDbVisualStyle
  2
FlatWithEdges
 70
     1
177
     3
291
     1
 70
    58
 90
        2
176
     1
 90
        1
176
     1
 90
        1
176
     1
 90
        2
176
     1
 40
0.6
176
     1
 40
30.0
176
     1
 62
     7
420
 16777215
176
     1
 90
        1
176
     1
 90
        0
176
     1
 62
     7
176
     1
 62
   257
176
     1
 90
        1
176
     1
 90
        1
176
     1
 40
1.0
176
     1
 90
        0
176
     1
 62
   257
176
     1
 40
1.0
176
     1
 90
        1
176
     1
 90
        6
176
     1
 90
        2
176
     1
 62
     7
176
     1
 90
        5
176
     1
 90
        0
176
     1
 90
        0
176
     1
290
     0
176
     1
 90
       13
176
     1
 40
0.0
176
     1
 90
        0
176
     1
290
     0
176
     1
290
     1
176
     1
290
     1
176
     1
290
     0
176
     1
290
     0
176
     1
290
     0
176
     1
290
     0
176
     1
290
     0
176
     1
290
     0
176
     1
 90
       50
176
     1
 40
0.0
176
     1
 40
1.0
176
     1
 90
        0
176
     1
 62
    18
420
        0
176
     1
 90
       50
176
     1
 90
        3
176
     1
 62
     5
420
      255
176
     1
290
     0
176
     1
 90
       50
176
     1
 90
       50
176
     1
 90
       50
176
     1
290
     0
176
     1
 90
       50
176
     1
 62
   256
176
     0
 40
1.0
176
     0
 90
        2
176
     1
  1
strokes_ogs.tif
176
     1
290
     0
176
     1
 40
1.0
176
     1
 40
1.0
176
     1
1001
ACAD
1000
AcDbSavedByObjectVersion
1070
     0
  0
VISUALSTYLE
  5
2C
102
{ACAD_REACTORS
330
29
102
}
330
29
100
AcDbVisualStyle
  2
Gouraud
 70
     2
177
     3
291
     1
 70
    58
 90
        2
176
     1
 90
        2
176
     1
 90
        1
176
     1
 90
        2
176
     1
 40
0.6
176
     1
 40
30.0
176
     1
 62
     7
420
 16777215
176
     1
 90
        0
176
     1
 90
        0
176
     1
 62
     7
176
     1
 62
   257
176
     1
 90
        1
176
     1
 90
        1
176
     1
 40
1.0
176
     1
 90
        0
176
     1
 62
     7
176
     1
 40
1.0
176
     1
 90
        1
176
     1
 90
        6
176
     1
 90
        2
176
     1
 62
     7
176
     1
 90
        5
176
     1
 90
        0
176
     1
 90
        0
176
     1
290
     0
176
     1
 90
       13
176
     1
 40
0.0
176
     1
 90
        0
176
     1
290
     0
176
     1
290
     1
176
     1
290
     1
176
     1
290
     0
176
     1
290
     0
176
     1
290
     0
176
     1
290
     0
176
     1
290
     0
176
     1
290
     0
176
     1
 90
       50
176
     1
 40
0.0
176
     1
 40
1.0
176
     1
 90
        0
176
     1
 62
    18
420
        0
176
     1
 90
       50
176
     1
 90
        3
176
     1
 62
     5
420
      255
176
     1
290
     0
176
     1
 90
       50
176
     1
 90
       50
176
     1
 90
       50
176
     1
290
     0
176
     1
 90
       50
176
     1
 62
   256
176
     0
 40
1.0
176
     0
 90
        2
176
     1
  1
strokes_ogs.tif
176
     1
290
     0
176
     1
 40
1.0
176
     1
 40
1.0
176
     1
1001
ACAD
1000
AcDbSavedByObjectVersion
1070
     0
  0
VISUALSTYLE
  5
2D
102
{ACAD_REACTORS
330
29
102
}
330
29
100
AcDbVisualStyle
  2
GouraudWithEdges
 70
     3
177
     3
291
     1
 70
    58
 90
        2
176
     1
 90
        2
176
     1
 90
        1
176
     1
 90
        2
176
     1
 40
0.6
176
     1
 40
30.0
176
     1
 62
     7
420
 16777215
176
     1
 90
        1
176
     1
 90
        0
176
     1
 62
     7
176
     1
 62
   257
176
     1
 90
        1
176
     1
 90
        1
176
     1
 40
1.0
176
     1
 90
        0
176
     1
 62
   257
176
     1
 40
1.0
176
     1
 90
        1
176
     1
 90
        6
176
     1
 90
        2
176
     1
 62
     7
176
     1
 90
        5
176
     1
 90
        0
176
     1
 90
        0
176
     1
290
     0
176
     1
 90
       13
176
     1
 40
0.0
176
     1
 90
        0
176
     1
290
     0
176
     1
290
     1
176
     1
290
     1
176
     1
290
     0
176
     1
290
     0
176
     1
290
     0
176
     1
290
     0
176
     1
290
     0
176
     1
290
     0
176
     1
 90
       50
176
     1
 40
0.0
176
     1
 40
1.0
176
     1
 90
        0
176
     1
 62
    18
420
        0
176
     1
 90
       50
176
     1
 90
        3
176
     1
 62
     5
420
      255
176
     1
290
     0
176
     1
 90
       50
176
     1
 90
       50
176
     1
 90
       50
176
     1
290
     0
176
     1
 90
       50
176
     1
 62
   256
176
     0
 40
1.0
176
     0
 90
        2
176
     1
  1
strokes_ogs.tif
176
     1
290
     0
176
     1
 40
1.0
176
     1
 40
1.0
176
     1
1001
ACAD
1000
AcDbSavedByObjectVersion
1070
     0
  0
VISUALSTYLE
  5
31
102
{ACAD_REACTORS
330
29
102
}
330
29
100
AcDbVisualStyle
  2
Hidden
 70
     6
177
     3
291
     0
 70
    58
 90
        1
176
     1
 90
        2
176
     1
 90
        2
176
     1
 90
        0
176
     1
 40
0.6
176
     1
 40
30.0
176
     1
 62
     7
420
 16777215
176
     1
 90
        2
176
     1
 90
        2
176
     1
 62
     7
176
     1
 62
   257
176
     1
 90
        2
176
     1
 90
        1
176
     1
 40
40.0
176
     1
 90
        0
176
     1
 62
   257
176
     1
 40
1.0
176
     1
 90
        1
176
     1
 90
        6
176
     1
 90
        2
176
     1
 62
     7
176
     1
 90
        3
176
     1
 90
        0
176
     1
 90
        0
176
     1
290
     0
176
     1
 90
        1
176
     1
 40
0.0
176
     1
 90
        0
176
     1
290
     0
176
     1
290
     1
176
     1
290
     1
176
     1
290
     0
176
     1
290
     0
176
     1
290
     0
176
     1
290
     0
176
     1
290
     0
176
     1
290
     0
176
     1
 90
       50
176
     1
 40
0.0
176
     1
 40
1.0
176
     1
 90
        0
176
     1
 62
    18
420
        0
176
     1
 90
       50
176
     1
 90
        3
176
     1
 62
     5
420
      255
176
     1
290
     0
176
     1
 90
       50
176
     1
 90
       50
176
     1
 90
       50
176
     1
290
     0
176
     1
 90
       50
176
     1
 62
   256
176
     0
 40
1.0
176
     0
 90
        2
176
     1
  1
strokes_ogs.tif
176
     1
290
     0
176
     1
 40
1.0
176
     1
 40
1.0
176
     1
1001
ACAD
1000
AcDbSavedByObjectVersion
1070
     0
  0
VISUALSTYLE
  5
3F
102
{ACAD_REACTORS
330
29
102
}
330
29
100
AcDbVisualStyle
  2
JitterOff
 70
    20
177
     3
291
     1
 70
    58
 90
        2
176
     0
 90
        2
176
     0
 90
        0
176
     0
 90
        0
176
     0
 40
0.6
176
     0
 40
30.0
176
     0
 62
     7
420
 16777215
176
     0
 90
        1
176
     0
 90
        4
176
     0
 62
     7
176
     0
 62
   257
176
     0
 90
        1
176
     0
 90
        1
176
     0
 40
1.0
176
     0
 90
       10
176
     2
 62
     7
176
     0
 40
1.0
176
     0
 90
        1
176
     0
 90
        6
176
     0
 90
        2
176
     0
 62
     7
176
     0
 90
        5
176
     0
 90
        0
176
     0
 90
        0
176
     0
290
     0
176
     0
 90
        1
176
     0
 40
0.0
176
     0
 90
        0
176
     0
290
     0
176
     0
290
     1
176
     0
290
     1
176
     0
290
     0
176
     0
290
     0
176
     0
290
     0
176
     0
290
     0
176
     0
290
     0
176
     0
290
     0
176
     0
 90
       50
176
     0
 40
0.0
176
     0
 40
1.0
176
     0
 90
        0
176
     0
 62
    18
420
        0
176
     0
 90
       50
176
     0
 90
        3
176
     0
 62
     5
420
      255
176
     0
290
     0
176
     0
 90
       50
176
     0
 90
       50
176
     0
 90
       50
176
     0
290
     0
176
     0
 90
       50
176
     0
 62
   256
176
     0
 40
1.0
176
     0
 90
        2
176
     0
  1
strokes_ogs.tif
176
     0
290
     0
176
     0
 40
1.0
176
     0
 40
1.0
176
     0
1001
ACAD
1000
AcDbSavedByObjectVersion
1070
     0
  0
VISUALSTYLE
  5
37
102
{ACAD_REACTORS
330
29
102
}
330
29
100
AcDbVisualStyle
  2
Linepattern
 70
    14
177
     3
291
     1
 70
    58
 90
        2
176
     1
 90
        2
176
     1
 90
        0
176
     1
 90
        0
176
     1
 40
0.6
176
     1
 40
30.0
176
     1
 62
     7
420
 16777215
176
     1
 90
        1
176
     1
 90
        4
176
     1
 62
     7
176
     1
 62
   257
176
     1
 90
        7
176
     1
 90
        7
176
     1
 40
1.0
176
     1
 90
        8
176
     1
 62
     7
176
     1
 40
1.0
176
     1
 90
        1
176
     1
 90
        6
176
     1
 90
        2
176
     1
 62
     7
176
     1
 90
        5
176
     1
 90
        0
176
     1
 90
        0
176
     1
290
     0
176
     1
 90
        1
176
     1
 40
0.0
176
     1
 90
        0
176
     1
290
     0
176
     1
290
     1
176
     1
290
     1
176
     1
290
     0
176
     1
290
     0
176
     1
290
     0
176
     1
290
     0
176
     1
290
     0
176
     1
290
     0
176
     1
 90
       50
176
     1
 40
0.0
176
     1
 40
1.0
176
     1
 90
        0
176
     1
 62
    18
420
        0
176
     1
 90
       50
176
     1
 90
        3
176
     1
 62
     5
420
      255
176
     1
290
     0
176
     1
 90
       50
176
     1
 90
       50
176
     1
 90
       50
176
     1
290
     0
176
     1
 90
       50
176
     1
 62
   256
176
     0
 40
1.0
176
     0
 90
        2
176
     1
  1
strokes_ogs.tif
176
     1
290
     0
176
     1
 40
1.0
176
     1
 40
1.0
176
     1
1001
ACAD
1000
AcDbSavedByObjectVersion
1070
     0
  0
VISUALSTYLE
  5
40
102
{ACAD_REACTORS
330
29
102
}
330
29
100
AcDbVisualStyle
  2
OverhangOff
 70
    21
177
     3
291
     1
 70
    58
 90
        2
176
     0
 90
        2
176
     0
 90
        0
176
     0
 90
        0
176
     0
 40
0.6
176
     0
 40
30.0
176
     0
 62
     7
420
 16777215
176
     0
 90
        1
176
     0
 90
        4
176
     0
 62
     7
176
     0
 62
   257
176
     0
 90
        1
176
     0
 90
        1
176
     0
 40
1.0
176
     0
 90
        9
176
     2
 62
     7
176
     0
 40
1.0
176
     0
 90
        1
176
     0
 90
        6
176
     0
 90
        2
176
     0
 62
     7
176
     0
 90
        5
176
     0
 90
        0
176
     0
 90
        0
176
     0
290
     0
176
     0
 90
        1
176
     0
 40
0.0
176
     0
 90
        0
176
     0
290
     0
176
     0
290
     1
176
     0
290
     1
176
     0
290
     0
176
     0
290
     0
176
     0
290
     0
176
     0
290
     0
176
     0
290
     0
176
     0
290
     0
176
     0
 90
       50
176
     0
 40
0.0
176
     0
 40
1.0
176
     0
 90
        0
176
     0
 62
    18
420
        0
176
     0
 90
       50
176
     0
 90
        3
176
     0
 62
     5
420
      255
176
     0
290
     0
176
     0
 90
       50
176
     0
 90
       50
176
     0
 90
       50
176
     0
290
     0
176
     0
 90
       50
176
     0
 62
   256
176
     0
 40
1.0
176
     0
 90
        2
176
     0
  1
strokes_ogs.tif
176
     0
290
     0
176
     0
 40
1.0
176
     0
 40
1.0
176
     0
1001
ACAD
1000
AcDbSavedByObjectVersion
1070
     0
  0
VISUALSTYLE
  5
33
102
{ACAD_REACTORS
330
29
102
}
330
29
100
AcDbVisualStyle
  2
Realistic
 70
     8
177
     3
291
     0
 70
    58
 90
        2
176
     1
 90
        3
176
     1
 90
        0
176
     1
 90
        2
176
     1
 40
0.6
176
     1
 40
30.0
176
     1
 62
     7
420
 16777215
176
     1
 90
        0
176
     1
 90
        0
176
     1
 62
     7
176
     1
 62
   257
176
     1
 90
        1
176
     1
 90
        1
176
     1
 40
1.0
176
     1
 90
        8
176
     1
 62
   257
176
     1
 40
1.0
176
     1
 90
        1
176
     1
 90
        6
176
     1
 90
        2
176
     1
 62
     7
176
     1
 90
        3
176
     1
 90
        0
176
     1
 90
        0
176
     1
290
     0
176
     1
 90
       13
176
     1
 40
0.0
176
     1
 90
        0
176
     1
290
     0
176
     1
290
     1
176
     1
290
     1
176
     1
290
     0
176
     1
290
     0
176
     1
290
     0
176
     1
290
     0
176
     1
290
     0
176
     1
290
     0
176
     1
 90
       50
176
     1
 40
0.0
176
     1
 40
1.0
176
     1
 90
        0
176
     1
 62
    18
420
        0
176
     1
 90
       50
176
     1
 90
        3
176
     1
 62
     5
420
      255
176
     1
290
     0
176
     1
 90
       50
176
     1
 90
       50
176
     1
 90
       50
176
     1
290
     0
176
     1
 90
       50
176
     1
 62
   256
176
     0
 40
1.0
176
     0
 90
        2
176
     1
  1
strokes_ogs.tif
176
     1
290
     0
176
     1
 40
1.0
176
     1
 40
1.0
176
     1
1001
ACAD
1000
AcDbSavedByObjectVersion
1070
     0
  0
VISUALSTYLE
  5
3E
102
{ACAD_REACTORS
330
29
102
}
330
29
100
AcDbVisualStyle
  2
Shaded
 70
    27
177
     3
291
     0
 70
    58
 90
        2
176
     1
 90
        2
176
     1
 90
        1
176
     1
 90
        2
176
     1
 40
0.6
176
     1
 40
30.0
176
     1
 62
     7
420
 16777215
176
     1
 90
        0
176
     1
 90
        4
176
     1
 62
     7
176
     1
 62
   257
176
     1
 90
        1
176
     1
 90
        1
176
     1
 40
1.0
176
     1
 90
        8
176
     1
 62
   257
176
     1
 40
1.0
176
     1
 90
        1
176
     1
 90
        6
176
     1
 90
        2
176
     1
 62
     8
420
  7895160
176
     1
 90
        3
176
     1
 90
        0
176
     1
 90
        0
176
     1
290
     0
176
     1
 90
        5
176
     1
 40
0.0
176
     1
 90
        0
176
     1
290
     0
176
     1
290
     1
176
     1
290
     1
176
     1
290
     0
176
     1
290
     0
176
     1
290
     0
176
     1
290
     0
176
     1
290
     0
176
     1
290
     0
176
     1
 90
       50
176
     1
 40
0.0
176
     1
 40
1.0
176
     1
 90
        0
176
     1
 62
    18
420
        0
176
     1
 90
       50
176
     1
 90
        3
176
     1
 62
     5
420
      255
176
     1
290
     0
176
     1
 90
       50
176
     1
 90
       50
176
     1
 90
       50
176
     1
290
     0
176
     1
 90
       50
176
     1
 62
   256
176
     0
 40
1.0
176
     0
 90
        2
176
     1
  1
strokes_ogs.tif
176
     1
290
     0
176
     1
 40
1.0
176
     1
 40
1.0
176
     1
1001
ACAD
1000
AcDbSavedByObjectVersion
1070
     0
  0
VISUALSTYLE
  5
3D
102
{ACAD_REACTORS
330
29
102
}
330
29
100
AcDbVisualStyle
  2
Shaded with edges
 70
    26
177
     3
291
     0
 70
    58
 90
        2
176
     1
 90
        2
176
     1
 90
        1
176
     1
 90
        2
176
     1
 40
0.6
176
     1
 40
30.0
176
     1
 62
     7
420
 16777215
176
     1
 90
        1
176
     1
 90
        2
176
     1
 62
     7
176
     1
 62
   257
176
     1
 90
        2
176
     1
 90
        1
176
     1
 40
1.0
176
     1
 90
        8
176
     1
 62
   257
176
     1
 40
1.0
176
     1
 90
        1
176
     1
 90
        6
176
     1
 90
        2
176
     1
 62
     7
176
     1
 90
        3
176
     1
 90
        0
176
     1
 90
        0
176
     1
290
     0
176
     1
 90
        5
176
     1
 40
0.0
176
     1
 90
        0
176
     1
290
     0
176
     1
290
     1
176
     1
290
     1
176
     1
290
     0
176
     1
290
     0
176
     1
290
     0
176
     1
290
     0
176
     1
290
     0
176
     1
290
     0
176
     1
 90
       50
176
     1
 40
0.0
176
     1
 40
1.0
176
     1
 90
        0
176
     1
 62
    18
420
        0
176
     1
 90
       50
176
     1
 90
        3
176
     1
 62
     5
420
      255
176
     1
290
     0
176
     1
 90
       50
176
     1
 90
       50
176
     1
 90
       50
176
     1
290
     0
176
     1
 90
       50
176
     1
 62
   256
176
     0
 40
1.0
176
     0
 90
        2
176
     1
  1
strokes_ogs.tif
176
     1
290
     0
176
     1
 40
1.0
176
     1
 40
1.0
176
     1
1001
ACAD
1000
AcDbSavedByObjectVersion
1070
     0
  0
VISUALSTYLE
  5
3A
102
{ACAD_REACTORS
330
29
102
}
330
29
100
AcDbVisualStyle
  2
Shades of Gray
 70
    23
177
     3
291
     0
 70
    58
 90
        2
176
     1
 90
        2
176
     1
 90
        3
176
     1
 90
        0
176
     1
 40
0.6
176
     1
 40
30.0
176
     1
 62
     7
420
 16777215
176
     1
 90
        2
176
     1
 90
        2
176
     1
 62
     7
176
     1
 62
     7
176
     1
 90
        1
176
     1
 90
        1
176
     1
 40
40.0
176
     1
 90
        8
176
     1
 62
     7
176
     1
 40
1.0
176
     1
 90
        1
176
     1
 90
        6
176
     1
 90
        2
176
     1
 62
     7
176
     1
 90
        3
176
     1
 90
        0
176
     1
 90
        0
176
     1
290
     0
176
     1
 90
        1
176
     1
 40
0.0
176
     1
 90
        0
176
     1
290
     0
176
     1
290
     1
176
     1
290
     1
176
     1
290
     0
176
     1
290
     0
176
     1
290
     0
176
     1
290
     0
176
     1
290
     0
176
     1
290
     0
176
     1
 90
       50
176
     1
 40
0.0
176
     1
 40
1.0
176
     1
 90
        0
176
     1
 62
    18
420
        0
176
     1
 90
       50
176
     1
 90
        3
176
     1
 62
     5
420
      255
176
     1
290
     0
176
     1
 90
       50
176
     1
 90
       50
176
     1
 90
       50
176
     1
290
     0
176
     1
 90
       50
176
     1
 62
   256
176
     0
 40
1.0
176
     0
 90
        2
176
     1
  1
strokes_ogs.tif
176
     1
290
     0
176
     1
 40
1.0
176
     1
 40
1.0
176
     1
1001
ACAD
1000
AcDbSavedByObjectVersion
1070
     0
  0
VISUALSTYLE
  5
3B
102
{ACAD_REACTORS
330
29
102
}
330
29
100
AcDbVisualStyle
  2
Sketchy
 70
    24
177
     3
291
     0
 70
    58
 90
        1
176
     1
 90
        2
176
     1
 90
        2
176
     1
 90
        0
176
     1
 40
0.6
176
     1
 40
30.0
176
     1
 62
     7
420
 16777215
176
     1
 90
        2
176
     1
 90
        2
176
     1
 62
     7
176
     1
 62
     7
176
     1
 90
        1
176
     1
 90
        1
176
     1
 40
40.0
176
     1
 90
       11
176
     1
 62
     7
176
     1
 40
1.0
176
     1
 90
        1
176
     1
 90
        6
176
     1
 90
        2
176
     1
 62
     7
176
     1
 90
        6
176
     1
 90
        0
176
     1
 90
        0
176
     1
290
     0
176
     1
 90
        1
176
     1
 40
0.0
176
     1
 90
        0
176
     1
290
     0
176
     1
290
     1
176
     1
290
     1
176
     1
290
     0
176
     1
290
     0
176
     1
290
     0
176
     1
290
     0
176
     1
290
     0
176
     1
290
     0
176
     1
 90
       50
176
     1
 40
0.0
176
     1
 40
1.0
176
     1
 90
        0
176
     1
 62
    18
420
        0
176
     1
 90
       50
176
     1
 90
        3
176
     1
 62
     5
420
      255
176
     1
290
     0
176
     1
 90
       50
176
     1
 90
       50
176
     1
 90
       50
176
     1
290
     0
176
     1
 90
       50
176
     1
 62
   256
176
     0
 40
1.0
176
     0
 90
        2
176
     1
  1
strokes_ogs.tif
176
     1
290
     0
176
     1
 40
1.0
176
     1
 40
1.0
176
     1
1001
ACAD
1000
AcDbSavedByObjectVersion
1070
     0
  0
VISUALSTYLE
  5
36
102
{ACAD_REACTORS
330
29
102
}
330
29
100
AcDbVisualStyle
  2
Thicken
 70
    13
177
     3
291
     1
 70
    58
 90
        2
176
     1
 90
        2
176
     1
 90
        0
176
     1
 90
        0
176
     1
 40
0.6
176
     1
 40
30.0
176
     1
 62
     7
420
 16777215
176
     1
 90
        1
176
     1
 90
        4
176
     1
 62
     7
176
     1
 62
   257
176
     1
 90
        1
176
     1
 90
        1
176
     1
 40
1.0
176
     1
 90
       12
176
     1
 62
     7
176
     1
 40
1.0
176
     1
 90
        1
176
     1
 90
        6
176
     1
 90
        2
176
     1
 62
     7
176
     1
 90
        5
176
     1
 90
        0
176
     1
 90
        0
176
     1
290
     0
176
     1
 90
        1
176
     1
 40
0.0
176
     1
 90
        0
176
     1
290
     0
176
     1
290
     1
176
     1
290
     1
176
     1
290
     0
176
     1
290
     0
176
     1
290
     0
176
     1
290
     0
176
     1
290
     0
176
     1
290
     0
176
     1
 90
       50
176
     1
 40
0.0
176
     1
 40
1.0
176
     1
 90
        0
176
     1
 62
    18
420
        0
176
     1
 90
       50
176
     1
 90
        3
176
     1
 62
     5
420
      255
176
     1
290
     0
176
     1
 90
       50
176
     1
 90
       50
176
     1
 90
       50
176
     1
290
     0
176
     1
 90
       50
176
     1
 62
   256
176
     0
 40
1.0
176
     0
 90
        2
176
     1
  1
strokes_ogs.tif
176
     1
290
     0
176
     1
 40
1.0
176
     1
 40
1.0
176
     1
1001
ACAD
1000
AcDbSavedByObjectVersion
1070
     0
  0
VISUALSTYLE
  5
30
102
{ACAD_REACTORS
330
29
102
}
330
29
100
AcDbVisualStyle
  2
Wireframe
 70
     5
177
     3
291
     0
 70
    58
 90
        0
176
     1
 90
        2
176
     1
 90
        0
176
     1
 90
        0
176
     1
 40
0.6
176
     1
 40
30.0
176
     1
 62
     7
420
 16777215
176
     1
 90
        1
176
     1
 90
        4
176
     1
 62
     7
176
     1
 62
   257
176
     1
 90
        1
176
     1
 90
        1
176
     1
 40
1.0
176
     1
 90
        0
176
     1
 62
   257
176
     1
 40
1.0
176
     1
 90
        1
176
     1
 90
        6
176
     1
 90
        2
176
     1
 62
     7
176
     1
 90
        3
176
     1
 90
        0
176
     1
 90
        0
176
     1
290
     0
176
     1
 90
        1
176
     1
 40
0.0
176
     1
 90
        0
176
     1
290
     0
176
     1
290
     1
176
     1
290
     1
176
     1
290
     0
176
     1
290
     0
176
     1
290
     0
176
     1
290
     0
176
     1
290
     0
176
     1
290
     0
176
     1
 90
       50
176
     1
 40
0.0
176
     1
 40
1.0
176
     1
 90
        0
176
     1
 62
    18
420
        0
176
     1
 90
       50
176
     1
 90
        3
176
     1
 62
     5
420
      255
176
     1
290
     0
176
     1
 90
       50
176
     1
 90
       50
176
     1
 90
       50
176
     1
290
     0
176
     1
 90
       50
176
     1
 62
   256
176
     0
 40
1.0
176
     0
 90
        2
176
     1
  1
strokes_ogs.tif
176
     1
290
     0
176
     1
 40
1.0
176
     1
 40
1.0
176
     1
1001
ACAD
1000
AcDbSavedByObjectVersion
1070
     0
  0
VISUALSTYLE
  5
3C
102
{ACAD_REACTORS
330
29
102
}
330
29
100
AcDbVisualStyle
  2
X-Ray
 70
    25
177
     3
291
     0
 70
    58
 90
        2
176
     1
 90
        2
176
     1
 90
        1
176
     1
 90
        1
176
     1
 40
0.5
176
     1
 40
30.0
176
     1
 62
     7
420
 16777215
176
     1
 90
        1
176
     1
 90
        0
176
     1
 62
     7
176
     1
 62
   257
176
     1
 90
        1
176
     1
 90
        1
176
     1
 40
1.0
176
     1
 90
        8
176
     1
 62
     7
176
     1
 40
1.0
176
     1
 90
        1
176
     1
 90
        6
176
     1
 90
        2
176
     1
 62
     7
176
     1
 90
        3
176
     1
 90
        0
176
     1
 90
        0
176
     1
290
     0
176
     1
 90
       13
176
     1
 40
0.0
176
     1
 90
        0
176
     1
290
     0
176
     1
290
     1
176
     1
290
     1
176
     1
290
     0
176
     1
290
     0
176
     1
290
     0
176
     1
290
     0
176
     1
290
     0
176
     1
290
     0
176
     1
 90
       50
176
     1
 40
0.0
176
     1
 40
1.0
176
     1
 90
        0
176
     1
 62
    18
420
        0
176
     1
 90
       50
176
     1
 90
        3
176
     1
 62
     5
420
      255
176
     1
290
     0
176
     1
 90
       50
176
     1
 90
       50
176
     1
 90
       50
176
     1
290
     0
176
     1
 90
       50
176
     1
 62
   256
176
     0
 40
1.0
176
     0
 90
        2
176
     1
  1
strokes_ogs.tif
176
     1
290
     0
176
     1
 40
1.0
176
     1
 40
1.0
176
     1
1001
ACAD
1000
AcDbSavedByObjectVersion
1070
     0
  0
DICTIONARYVAR
  5
87
102
{ACAD_REACTORS
330
82
102
}
330
82
100
DictionaryVariables
280
     0
  1
1:1
  0
DICTIONARYVAR
  5
84
102
{ACAD_REACTORS
330
82
102
}
330
82
100
DictionaryVariables
280
     0
  1
STANDARD
  0
DICTIONARYVAR
  5
83
102
{ACAD_REACTORS
330
82
102
}
330
82
100
DictionaryVariables
280
     0
  1
STANDARD
  0
DICTIONARYVAR
  5
85
102
{ACAD_REACTORS
330
82
102
}
330
82
100
DictionaryVariables
280
     0
  1
Imperial24
  0
DICTIONARYVAR
  5
86
102
{ACAD_REACTORS
330
82
102
}
330
82
100
DictionaryVariables
280
     0
  1
Imperial24
  0
DICTIONARY
  5
8D
330
6B
100
AcDbDictionary
280
     1
281
     1
  3
ACAD_XREC_ROUNDTRIP
360
8E
  0
DICTIONARY
  5
1A
330
19
100
AcDbDictionary
280
     1
281
     1
  3
BUMPTILE
360
1C
  3
DIFFUSETILE
360
1B
  3
OPACITYTILE
360
1F
  3
REFLECTIONTILE
360
1E
  3
REFRACTIONTILE
360
20
  3
SPECULARTILE
360
1D
  0
DICTIONARY
  5
12
330
11
100
AcDbDictionary
280
     1
281
     1
  3
BUMPTILE
360
14
  3
DIFFUSETILE
360
13
  3
OPACITYTILE
360
17
  3
REFLECTIONTILE
360
16
  3
REFRACTIONTILE
360
18
  3
SPECULARTILE
360
15
  0
DICTIONARY
  5
22
330
21
100
AcDbDictionary
280
     1
281
     1
  3
BUMPTILE
360
24
  3
DIFFUSETILE
360
23
  3
OPACITYTILE
360
27
  3
REFLECTIONTILE
360
26
  3
REFRACTIONTILE
360
28
  3
SPECULARTILE
360
25
  0
DICTIONARY
  5
8B
330
69
100
AcDbDictionary
280
     1
281
     1
  3
ACAD_XREC_ROUNDTRIP
360
8C
  0
DICTIONARY
  5
88
330
65
100
AcDbDictionary
280
     1
281
     1
  3
ACAD_ROUNDTRIP_2008_TABLESTYLE_CELLSTYLEMAP
360
89
  0
XRECORD
  5
8E
102
{ACAD_REACTORS
330
8D
102
}
330
8D
100
AcDbXrecord
280
     1
102
DISPLAYNAME
  1
Imperial24
102
FLAGS
 90
        0
  0
XRECORD
  5
1C
102
{ACAD_REACTORS
330
1A
102
}
330
1A
100
AcDbXrecord
280
     1
270
     1
271
     1
  0
XRECORD
  5
1B
102
{ACAD_REACTORS
330
1A
102
}
330
1A
100
AcDbXrecord
280
     1
270
     1
271
     1
  0
XRECORD
  5
1F
102
{ACAD_REACTORS
330
1A
102
}
330
1A
100
AcDbXrecord
280
     1
270
     1
271
     1
  0
XRECORD
  5
1E
102
{ACAD_REACTORS
330
1A
102
}
330
1A
100
AcDbXrecord
280
     1
270
     1
271
     1
  0
XRECORD
  5
20
102
{ACAD_REACTORS
330
1A
102
}
330
1A
100
AcDbXrecord
280
     1
270
     1
271
     1
  0
XRECORD
  5
1D
102
{ACAD_REACTORS
330
1A
102
}
330
1A
100
AcDbXrecord
280
     1
270
     1
271
     1
  0
XRECORD
  5
14
102
{ACAD_REACTORS
330
12
102
}
330
12
100
AcDbXrecord
280
     1
270
     1
271
     1
  0
XRECORD
  5
13
102
{ACAD_REACTORS
330
12
102
}
330
12
100
AcDbXrecord
280
     1
270
     1
271
     1
  0
XRECORD
  5
17
102
{ACAD_REACTORS
330
12
102
}
330
12
100
AcDbXrecord
280
     1
270
     1
271
     1
  0
XRECORD
  5
16
102
{ACAD_REACTORS
330
12
102
}
330
12
100
AcDbXrecord
280
     1
270
     1
271
     1
  0
XRECORD
  5
18
102
{ACAD_REACTORS
330
12
102
}
330
12
100
AcDbXrecord
280
     1
270
     1
271
     1
  0
XRECORD
  5
15
102
{ACAD_REACTORS
330
12
102
}
330
12
100
AcDbXrecord
280
     1
270
     1
271
     1
  0
XRECORD
  5
24
102
{ACAD_REACTORS
330
22
102
}
330
22
100
AcDbXrecord
280
     1
270
     1
271
     1
  0
XRECORD
  5
23
102
{ACAD_REACTORS
330
22
102
}
330
22
100
AcDbXrecord
280
     1
270
     1
271
     1
  0
XRECORD
  5
27
102
{ACAD_REACTORS
330
22
102
}
330
22
100
AcDbXrecord
280
     1
270
     1
271
     1
  0
XRECORD
  5
26
102
{ACAD_REACTORS
330
22
102
}
330
22
100
AcDbXrecord
280
     1
270
     1
271
     1
  0
XRECORD
  5
28
102
{ACAD_REACTORS
330
22
102
}
330
22
100
AcDbXrecord
280
     1
270
     1
271
     1
  0
XRECORD
  5
25
102
{ACAD_REACTORS
330
22
102
}
330
22
100
AcDbXrecord
280
     1
270
     1
271
     1
  0
XRECORD
  5
8C
102
{ACAD_REACTORS
330
8B
102
}
330
8B
100
AcDbXrecord
280
     1
102
DISPLAYNAME
  1
Imperial24
102
FLAGS
 90
        0
  0
CELLSTYLEMAP
  5
89
102
{ACAD_REACTORS
330
88
102
}
330
88
100
AcDbCellStyleMap
 90
        3
300
CELLSTYLE
  1
TABLEFORMAT_BEGIN
 90
        5
170
     1
 91
        0
 92
    32768
 62
   257
 93
        1
300
CONTENTFORMAT
  1
CONTENTFORMAT_BEGIN
 90
        0
 91
        0
 92
      512
 93
        0
300

 40
0.0
140
1.0
 94
        5
 62
     0
340
55
144
0.25
309
CONTENTFORMAT_END
171
     0
 94
        0
309
TABLEFORMAT_END
  1
CELLSTYLE_BEGIN
 90
        1
 91
        1
300
_TITLE
309
CELLSTYLE_END
300
CELLSTYLE
  1
TABLEFORMAT_BEGIN
 90
        5
170
     1
 91
        0
 92
        0
 62
   257
 93
        1
300
CONTENTFORMAT
  1
CONTENTFORMAT_BEGIN
 90
        0
 91
        0
 92
      512
 93
        0
300

 40
0.0
140
1.0
 94
        5
 62
     0
340
55
144
0.18
309
CONTENTFORMAT_END
171
     0
 94
        0
309
TABLEFORMAT_END
  1
CELLSTYLE_BEGIN
 90
        2
 91
        1
300
_HEADER
309
CELLSTYLE_END
300
CELLSTYLE
  1
TABLEFORMAT_BEGIN
 90
        5
170
     1
 91
        0
 92
        0
 62
   257
 93
        1
300
CONTENTFORMAT
  1
CONTENTFORMAT_BEGIN
 90
        0
 91
        0
 92
      512
 93
        0
300

 40
0.0
140
1.0
 94
        2
 62
     0
340
55
144
0.18
309
CONTENTFORMAT_END
171
     0
 94
        0
309
TABLEFORMAT_END
  1
CELLSTYLE_BEGIN
 90
        3
 91
        2
300
_DATA
309
CELLSTYLE_END
  0
ENDSEC
  0
EOF
