<?xml version="1.0" encoding="utf-8"?>
<!-- Generator: Adobe Illustrator 25.4.8, SVG Export Plug-In . SVG Version: 6.00 Build 0)  -->
<svg version="1.1" id="Слой_1" xmlns="http://www.w3.org/2000/svg" xmlns:xlink="http://www.w3.org/1999/xlink" x="0px" y="0px"
	 viewBox="0 0 864 864" style="enable-background:new 0 0 864 864;" xml:space="preserve">
<g>
	<path d="M488.91,639.58c-76.14,0-152.28,0.29-228.41-0.1c-51.79-0.26-90.28-24.18-111.87-70.7
		c-21.36-46.03-14.83-90.48,17.22-130.28c4.92-6.1,5.36-8.8-0.23-14.99c-42.82-47.42-55.83-102.49-35.01-162.78
		c20.67-59.85,64.4-96.63,127.03-106.57c63.49-10.08,115.82,12.55,155.27,63.34c5.25,6.76,7.23,6.33,12.89,0.66
		c57.58-57.65,126.56-78.7,205.17-56.34c77.65,22.08,125.34,75.28,144.62,153.57c3.06,12.43,4.41,25.2,4.47,37.97
		c0.03,6.44,1.83,10.03,7.76,13.3c52.81,29.13,83.28,88.69,74.76,145.15c-9.69,64.23-52.69,111.3-114.17,124.79
		c-10.21,2.24-20.6,3.06-31.1,3.05C641.18,639.53,565.04,639.58,488.91,639.58z M488.85,593.09c76.46,0,152.92,0.08,229.37-0.03
		c51.6-0.08,93.63-39.06,98.4-90.98c4.49-48.74-30.24-95.07-78.91-104.49c-7.18-1.39-8.77-3.89-7.29-10.56
		c3.82-17.26,3.82-34.76,1.25-52.14c-11.04-74.56-72.38-129.69-149.45-134.61c-72.16-4.61-140.39,45.12-159.61,116.87
		c-2.21,8.24-4.3,10.22-13.29,7.93c-68.77-17.48-136.45,25.69-148.33,95.49c-2.54,14.94-6.05,21.22-22.28,24.69
		c-36.61,7.82-59.68,45.78-54.29,83.22c5.27,36.57,36.98,64.48,74.04,64.56C335.26,593.21,412.06,593.09,488.85,593.09z
		 M288.54,198.56c-50.97-0.81-94.61,28.56-112.08,72.05c-17.81,44.34-6.15,94.78,29.42,127.22c8.54,7.79,9.21,7.6,12.54-3.42
		c21.63-71.57,85.7-119.61,160.25-120.15c11.59-0.08,12.74-1.6,7.33-11.81C364.28,221.47,329.82,200.58,288.54,198.56z"/>
	<path d="M390.33,690.03c-3.1,6.32-5.4,11.08-7.77,15.81c-20.27,40.51-40.69,80.94-60.68,121.58c-2.94,5.98-6.17,8.41-12.97,8.08
		c-12.68-0.61-25.41-0.17-38.01-0.17c-0.9-4.09,1.39-6.49,2.68-9.07c21.41-42.94,43.03-85.77,64.31-128.78
		c2.75-5.55,5.89-7.87,12.25-7.61C362.87,690.39,375.66,690.03,390.33,690.03z"/>
	<path d="M366.09,835.32c9.91-19.76,18.93-37.71,27.92-55.66c13.67-27.31,27.45-54.56,40.86-81.99c2.67-5.45,5.62-8.09,12.12-7.81
		c12.96,0.57,25.97,0.17,39.02,0.17c0.21,4.62-2.1,7.3-3.55,10.2c-20.99,42.03-42.29,83.9-62.91,126.11
		c-3.56,7.29-7.67,9.56-15.37,9.15C392.11,834.85,379.99,835.32,366.09,835.32z"/>
	<path d="M584.47,690.03c-3.71,7.5-6.64,13.46-9.61,19.39c-19.67,39.31-39.49,78.55-58.88,118c-2.94,5.98-6.18,8.4-12.98,8.08
		c-12.68-0.61-25.41-0.17-38.01-0.17c-0.88-4.1,1.4-6.5,2.69-9.08c21.42-42.94,43.04-85.78,64.31-128.79
		c2.76-5.58,5.93-7.83,12.27-7.58C557.01,690.39,569.8,690.03,584.47,690.03z"/>
	<path d="M681.66,690.03c-21.82,43.6-43.35,84.96-63.16,127.13c-6.62,14.08-14.16,20.91-30.05,18.41
		c-8.52-1.34-17.43-0.24-26.06-0.24c-1.76-3.79,0.89-6.12,2.12-8.58c21.41-42.95,43.07-85.77,64.3-128.8
		c2.94-5.96,6.15-8.42,12.97-8.09C654.47,690.47,667.21,690.03,681.66,690.03z"/>
	<path d="M307.49,69.21c0,11.73-0.16,23.46,0.07,35.18c0.09,4.79-1.33,6.62-6.36,5.89c-11.35-1.63-22.79-1.65-34.14-0.21
		c-5.32,0.67-6.21-1.49-6.19-6.02c0.13-23.12,0.21-46.24-0.05-69.36c-0.06-5.4,1.8-6.89,6.95-6.74c11.07,0.32,22.16,0.38,33.23-0.02
		c5.62-0.2,6.7,2.16,6.58,7.09C307.31,46.42,307.49,57.82,307.49,69.21z"/>
	<path d="M408.63,56.61c4.75,2.69,9.84,5.31,14.65,8.37c7.04,4.48,18.48,6.53,20.29,13.45c1.81,6.9-6.82,14.51-10.9,21.78
		c-7.89,14.07-16.28,27.85-24.08,41.97c-2.78,5.03-4.67,6.89-10.39,2.87c-8.49-5.96-17.75-10.9-26.99-15.68
		c-4.24-2.2-5.23-3.77-2.62-8.15c11.84-19.93,23.32-40.08,34.99-60.11C404.68,59.22,405.23,56.52,408.63,56.61z"/>
	<path d="M164.04,147.17c-2.55,0.47-3.27-1.71-4.22-3.34c-11.77-20.29-23.43-40.66-35.31-60.89c-2.18-3.71-1.89-5.84,1.96-7.97
		c9.69-5.36,19.34-10.8,28.76-16.59c4.31-2.65,6.27-1.44,8.54,2.55c11.42,20.11,23.06,40.1,34.67,60.1c1.62,2.8,3.18,5.24-1.11,7.17
		c-11.04,4.97-21.46,11.06-31.4,17.98C165.4,146.56,164.76,146.8,164.04,147.17z"/>
	<path d="M117.56,192.47c-0.44,1.11-0.57,1.8-0.94,2.33c-7.39,10.44-13.71,21.51-19.31,33c-1.63,3.35-3.8,1.58-5.81,0.43
		c-20.4-11.71-40.75-23.51-61.22-35.1c-3.87-2.19-4.17-4.28-1.95-7.94c5.74-9.47,11.24-19.09,16.63-28.77
		c2.06-3.71,4.07-4.44,7.93-2.17c20.29,11.89,40.74,23.53,61.1,35.32C115.34,190.34,116.45,191.55,117.56,192.47z"/>
	<path d="M116.94,433.06c0.18,2.75-2.2,3.26-3.79,4.18c-20.07,11.65-40.24,23.12-60.26,34.85c-3.81,2.23-5.79,1.67-7.88-2.11
		c-5.36-9.71-10.8-19.38-16.66-28.78c-2.82-4.53-1.04-6.31,2.78-8.47c19.6-11.11,39.09-22.41,58.62-33.66
		c2.93-1.69,5.7-4.09,8.04,0.96c4.95,10.69,10.87,20.84,17.65,30.5C116.01,431.34,116.46,432.24,116.94,433.06z"/>
	<path d="M38.56,334.85c-10.75,0-21.5-0.2-32.25,0.09c-4.85,0.13-6.42-1.56-6.3-6.34c0.27-10.72,0.3-21.46-0.01-32.18
		c-0.15-5.07,2-6.13,6.55-6.1c22.17,0.17,44.34,0.17,66.51,0c4.77-0.04,6.37,1.4,6.19,6.33c-0.4,10.71-0.43,21.45-0.03,32.16
		c0.19,5.16-1.87,6.19-6.4,6.11C61.41,334.71,49.98,334.85,38.56,334.85z"/>
</g>
</svg>
