  0
SECTION
  2
HEADER
  9
$ACADVER
  1
AC1027
  9
$ACADMAINTVER
 70
   125
  9
$DWGCODEPAGE
  3
ANSI_1251
  9
$REQUIREDVERSIONS
160
                 0
  9
$INSBASE
 10
0.0
 20
0.0
 30
0.0
  9
$EXTMIN
 10
1.000000000000000E+20
 20
1.000000000000000E+20
 30
1.000000000000000E+20
  9
$EXTMAX
 10
-1.000000000000000E+20
 20
-1.000000000000000E+20
 30
-1.000000000000000E+20
  9
$LIMMIN
 10
0.0
 20
0.0
  9
$LIMMAX
 10
12.0
 20
9.0
  9
$ORTHOMODE
 70
     0
  9
$REGENMODE
 70
     1
  9
$FILLMODE
 70
     1
  9
$QTEXTMODE
 70
     0
  9
$MIRRTEXT
 70
     0
  9
$LTSCALE
 40
1.0
  9
$ATTMODE
 70
     1
  9
$TEXTSIZE
 40
0.2
  9
$TRACEWID
 40
0.05
  9
$TEXTSTYLE
  7
Standard
  9
$CLAYER
  8
0
  9
$CELTYPE
  6
ByLayer
  9
$CECOLOR
 62
   256
  9
$CELTSCALE
 40
1.0
  9
$DISPSILH
 70
     0
  9
$DIMSCALE
 40
1.0
  9
$DIMASZ
 40
0.18
  9
$DIMEXO
 40
0.0625
  9
$DIMDLI
 40
0.38
  9
$DIMRND
 40
0.0
  9
$DIMDLE
 40
0.0
  9
$DIMEXE
 40
0.18
  9
$DIMTP
 40
0.0
  9
$DIMTM
 40
0.0
  9
$DIMTXT
 40
0.18
  9
$DIMCEN
 40
0.09
  9
$DIMTSZ
 40
0.0
  9
$DIMTOL
 70
     0
  9
$DIMLIM
 70
     0
  9
$DIMTIH
 70
     1
  9
$DIMTOH
 70
     1
  9
$DIMSE1
 70
     0
  9
$DIMSE2
 70
     0
  9
$DIMTAD
 70
     0
  9
$DIMZIN
 70
     0
  9
$DIMBLK
  1

  9
$DIMASO
 70
     1
  9
$DIMSHO
 70
     1
  9
$DIMPOST
  1

  9
$DIMAPOST
  1

  9
$DIMALT
 70
     0
  9
$DIMALTD
 70
     2
  9
$DIMALTF
 40
25.4
  9
$DIMLFAC
 40
1.0
  9
$DIMTOFL
 70
     0
  9
$DIMTVP
 40
0.0
  9
$DIMTIX
 70
     0
  9
$DIMSOXD
 70
     0
  9
$DIMSAH
 70
     0
  9
$DIMBLK1
  1

  9
$DIMBLK2
  1

  9
$DIMSTYLE
  2
Standard
  9
$DIMCLRD
 70
     0
  9
$DIMCLRE
 70
     0
  9
$DIMCLRT
 70
     0
  9
$DIMTFAC
 40
1.0
  9
$DIMGAP
 40
0.09
  9
$DIMJUST
 70
     0
  9
$DIMSD1
 70
     0
  9
$DIMSD2
 70
     0
  9
$DIMTOLJ
 70
     1
  9
$DIMTZIN
 70
     0
  9
$DIMALTZ
 70
     0
  9
$DIMALTTZ
 70
     0
  9
$DIMUPT
 70
     0
  9
$DIMDEC
 70
     4
  9
$DIMTDEC
 70
     4
  9
$DIMALTU
 70
     2
  9
$DIMALTTD
 70
     2
  9
$DIMTXSTY
  7
Standard
  9
$DIMAUNIT
 70
     0
  9
$DIMADEC
 70
     0
  9
$DIMALTRND
 40
0.0
  9
$DIMAZIN
 70
     0
  9
$DIMDSEP
 70
    46
  9
$DIMATFIT
 70
     3
  9
$DIMFRAC
 70
     0
  9
$DIMLDRBLK
  1

  9
$DIMLUNIT
 70
     2
  9
$DIMLWD
 70
    -2
  9
$DIMLWE
 70
    -2
  9
$DIMTMOVE
 70
     0
  9
$DIMFXL
 40
1.0
  9
$DIMFXLON
 70
     0
  9
$DIMJOGANG
 40
0.7853981633974483
  9
$DIMTFILL
 70
     0
  9
$DIMTFILLCLR
 70
     0
  9
$DIMARCSYM
 70
     0
  9
$DIMLTYPE
  6

  9
$DIMLTEX1
  6

  9
$DIMLTEX2
  6

  9
$DIMTXTDIRECTION
 70
     0
  9
$LUNITS
 70
     2
  9
$LUPREC
 70
     4
  9
$SKETCHINC
 40
0.1
  9
$FILLETRAD
 40
0.0
  9
$AUNITS
 70
     0
  9
$AUPREC
 70
     0
  9
$MENU
  1
.
  9
$ELEVATION
 40
0.0
  9
$PELEVATION
 40
0.0
  9
$THICKNESS
 40
0.0
  9
$LIMCHECK
 70
     0
  9
$CHAMFERA
 40
0.0
  9
$CHAMFERB
 40
0.0
  9
$CHAMFERC
 40
0.0
  9
$CHAMFERD
 40
0.0
  9
$SKPOLY
 70
     0
  9
$TDCREATE
 40
2459954.679664352
  9
$TDUCREATE
 40
2459954.596331018
  9
$TDUPDATE
 40
2459954.679664352
  9
$TDUUPDATE
 40
2459954.596331018
  9
$TDINDWG
 40
0.0000000000
  9
$TDUSRTIMER
 40
0.0000000000
  9
$USRTIMER
 70
     1
  9
$ANGBASE
 50
0.0
  9
$ANGDIR
 70
     0
  9
$PDMODE
 70
     0
  9
$PDSIZE
 40
0.0
  9
$PLINEWID
 40
0.0
  9
$SPLFRAME
 70
     0
  9
$SPLINETYPE
 70
     6
  9
$SPLINESEGS
 70
     8
  9
$HANDSEED
  5
96
  9
$SURFTAB1
 70
     6
  9
$SURFTAB2
 70
     6
  9
$SURFTYPE
 70
     6
  9
$SURFU
 70
     6
  9
$SURFV
 70
     6
  9
$UCSBASE
  2

  9
$UCSNAME
  2

  9
$UCSORG
 10
0.0
 20
0.0
 30
0.0
  9
$UCSXDIR
 10
1.0
 20
0.0
 30
0.0
  9
$UCSYDIR
 10
0.0
 20
1.0
 30
0.0
  9
$UCSORTHOREF
  2

  9
$UCSORTHOVIEW
 70
     0
  9
$UCSORGTOP
 10
0.0
 20
0.0
 30
0.0
  9
$UCSORGBOTTOM
 10
0.0
 20
0.0
 30
0.0
  9
$UCSORGLEFT
 10
0.0
 20
0.0
 30
0.0
  9
$UCSORGRIGHT
 10
0.0
 20
0.0
 30
0.0
  9
$UCSORGFRONT
 10
0.0
 20
0.0
 30
0.0
  9
$UCSORGBACK
 10
0.0
 20
0.0
 30
0.0
  9
$PUCSBASE
  2

  9
$PUCSNAME
  2

  9
$PUCSORG
 10
0.0
 20
0.0
 30
0.0
  9
$PUCSXDIR
 10
1.0
 20
0.0
 30
0.0
  9
$PUCSYDIR
 10
0.0
 20
1.0
 30
0.0
  9
$PUCSORTHOREF
  2

  9
$PUCSORTHOVIEW
 70
     0
  9
$PUCSORGTOP
 10
0.0
 20
0.0
 30
0.0
  9
$PUCSORGBOTTOM
 10
0.0
 20
0.0
 30
0.0
  9
$PUCSORGLEFT
 10
0.0
 20
0.0
 30
0.0
  9
$PUCSORGRIGHT
 10
0.0
 20
0.0
 30
0.0
  9
$PUCSORGFRONT
 10
0.0
 20
0.0
 30
0.0
  9
$PUCSORGBACK
 10
0.0
 20
0.0
 30
0.0
  9
$USERI1
 70
     0
  9
$USERI2
 70
     0
  9
$USERI3
 70
     0
  9
$USERI4
 70
     0
  9
$USERI5
 70
     0
  9
$USERR1
 40
0.0
  9
$USERR2
 40
0.0
  9
$USERR3
 40
0.0
  9
$USERR4
 40
0.0
  9
$USERR5
 40
0.0
  9
$WORLDVIEW
 70
     1
  9
$SHADEDGE
 70
     3
  9
$SHADEDIF
 70
    70
  9
$TILEMODE
 70
     1
  9
$MAXACTVP
 70
    64
  9
$PINSBASE
 10
0.0
 20
0.0
 30
0.0
  9
$PLIMCHECK
 70
     0
  9
$PEXTMIN
 10
1.000000000000000E+20
 20
1.000000000000000E+20
 30
1.000000000000000E+20
  9
$PEXTMAX
 10
-1.000000000000000E+20
 20
-1.000000000000000E+20
 30
-1.000000000000000E+20
  9
$PLIMMIN
 10
0.0
 20
0.0
  9
$PLIMMAX
 10
12.0
 20
9.0
  9
$UNITMODE
 70
     0
  9
$VISRETAIN
 70
     1
  9
$PLINEGEN
 70
     0
  9
$PSLTSCALE
 70
     1
  9
$TREEDEPTH
 70
  3020
  9
$CMLSTYLE
  2
Standard
  9
$CMLJUST
 70
     0
  9
$CMLSCALE
 40
1.0
  9
$PROXYGRAPHICS
 70
     1
  9
$MEASUREMENT
 70
     0
  9
$CELWEIGHT
370
    -1
  9
$ENDCAPS
280
     0
  9
$JOINSTYLE
280
     0
  9
$LWDISPLAY
290
     1
  9
$INSUNITS
 70
     1
  9
$HYPERLINKBASE
  1

  9
$STYLESHEET
  1

  9
$XEDIT
290
     1
  9
$CEPSNTYPE
380
     0
  9
$PSTYLEMODE
290
     1
  9
$FINGERPRINTGUID
  2
{D7591BA8-6A9C-314F-8D14-ED066979B304}
  9
$VERSIONGUID
  2
{76265312-1373-4241-8D07-51512508755E}
  9
$EXTNAMES
290
     1
  9
$PSVPSCALE
 40
0.0
  9
$OLESTARTUP
290
     0
  9
$SORTENTS
280
   127
  9
$INDEXCTL
280
     0
  9
$HIDETEXT
280
     1
  9
$XCLIPFRAME
280
     2
  9
$HALOGAP
280
     0
  9
$OBSCOLOR
 70
   257
  9
$OBSLTYPE
280
     0
  9
$INTERSECTIONDISPLAY
280
     0
  9
$INTERSECTIONCOLOR
 70
   257
  9
$DIMASSOC
280
     2
  9
$PROJECTNAME
  1

  9
$CAMERADISPLAY
290
     0
  9
$LENSLENGTH
 40
50.0
  9
$CAMERAHEIGHT
 40
0.0
  9
$STEPSPERSEC
 40
2.0
  9
$STEPSIZE
 40
6.0
  9
$3DDWFPREC
 40
2.0
  9
$PSOLWIDTH
 40
0.25
  9
$PSOLHEIGHT
 40
4.0
  9
$LOFTANG1
 40
1.570796326794896
  9
$LOFTANG2
 40
1.570796326794896
  9
$LOFTMAG1
 40
0.0
  9
$LOFTMAG2
 40
0.0
  9
$LOFTPARAM
 70
     7
  9
$LOFTNORMALS
280
     1
  9
$LATITUDE
 40
37.795
  9
$LONGITUDE
 40
-122.394
  9
$NORTHDIRECTION
 40
0.0
  9
$TIMEZONE
 70
 -8000
  9
$LIGHTGLYPHDISPLAY
280
     1
  9
$TILEMODELIGHTSYNCH
280
     1
  9
$CMATERIAL
347
11
  9
$SOLIDHIST
280
     0
  9
$SHOWHIST
280
     1
  9
$DWFFRAME
280
     2
  9
$DGNFRAME
280
     0
  9
$REALWORLDSCALE
290
     1
  9
$INTERFERECOLOR
 62
     1
  9
$INTERFEREOBJVS
345
33
  9
$INTERFEREVPVS
346
30
  9
$CSHADOW
280
     0
  9
$SHADOWPLANELOCATION
 40
0.0
  0
ENDSEC
  0
SECTION
  2
CLASSES
  0
CLASS
  1
ACDBDICTIONARYWDFLT
  2
AcDbDictionaryWithDefault
  3
ObjectDBX Classes
 90
        0
 91
        1
280
     0
281
     0
  0
CLASS
  1
MATERIAL
  2
AcDbMaterial
  3
ObjectDBX Classes
 90
     1153
 91
        3
280
     0
281
     0
  0
CLASS
  1
VISUALSTYLE
  2
AcDbVisualStyle
  3
ObjectDBX Classes
 90
     4095
 91
       24
280
     0
281
     0
  0
CLASS
  1
SCALE
  2
AcDbScale
  3
ObjectDBX Classes
 90
     1153
 91
       17
280
     0
281
     0
  0
CLASS
  1
TABLESTYLE
  2
AcDbTableStyle
  3
ObjectDBX Classes
 90
     4095
 91
        1
280
     0
281
     0
  0
CLASS
  1
MLEADERSTYLE
  2
AcDbMLeaderStyle
  3
ACDB_MLEADERSTYLE_CLASS
 90
     4095
 91
        1
280
     0
281
     0
  0
CLASS
  1
ACDBSECTIONVIEWSTYLE
  2
AcDbSectionViewStyle
  3
ObjectDBX Classes
 90
     1025
 91
        1
280
     0
281
     0
  0
CLASS
  1
ACDBDETAILVIEWSTYLE
  2
AcDbDetailViewStyle
  3
ObjectDBX Classes
 90
     1025
 91
        1
280
     0
281
     0
  0
CLASS
  1
DICTIONARYVAR
  2
AcDbDictionaryVar
  3
ObjectDBX Classes
 90
        0
 91
        5
280
     0
281
     0
  0
CLASS
  1
CELLSTYLEMAP
  2
AcDbCellStyleMap
  3
ObjectDBX Classes
 90
     1152
 91
        1
280
     0
281
     0
  0
ENDSEC
  0
SECTION
  2
TABLES
  0
TABLE
  2
VPORT
  5
8
330
0
100
AcDbSymbolTable
 70
     1
1001
ACAD
1000
DbSaveVer
1071
      278
  0
VPORT
  5
57
330
8
100
AcDbSymbolTableRecord
100
AcDbViewportTableRecord
  2
*Active
 70
     0
 10
0.0
 20
0.0
 11
1.0
 21
1.0
 12
0.0
 22
0.0
 13
0.0
 23
0.0
 14
1.0
 24
1.0
 15
0.0
 25
0.0
 16
0.0
 26
0.0
 36
1.0
 17
6.0
 27
-6.0
 37
0.0
 40
12.24
 41
1.0
 42
50.0
 43
0.0
 44
0.0
 50
0.0
 51
0.0
 71
     0
 72
   100
 73
     1
 74
     1
 75
     0
 76
     0
 77
     0
 78
     0
281
     0
 65
     1
110
0.0
120
0.0
130
0.0
111
1.0
121
0.0
131
0.0
112
0.0
122
1.0
132
0.0
 79
     0
146
0.0
 60
     3
 61
     5
292
     1
282
     1
141
0.0
142
0.0
 63
   250
421
  3355443
  0
ENDTAB
  0
TABLE
  2
LTYPE
  5
5
330
0
100
AcDbSymbolTable
 70
     1
  0
LTYPE
  5
5B
330
5
100
AcDbSymbolTableRecord
100
AcDbLinetypeTableRecord
  2
ByBlock
 70
     0
  3

 72
    65
 73
     0
 40
0.0
  0
LTYPE
  5
5C
330
5
100
AcDbSymbolTableRecord
100
AcDbLinetypeTableRecord
  2
ByLayer
 70
     0
  3

 72
    65
 73
     0
 40
0.0
  0
LTYPE
  5
5D
330
5
100
AcDbSymbolTableRecord
100
AcDbLinetypeTableRecord
  2
Continuous
 70
     0
  3
Solid line
 72
    65
 73
     0
 40
0.0
  0
ENDTAB
  0
TABLE
  2
LAYER
  5
2
330
0
100
AcDbSymbolTable
 70
     2
  0
LAYER
  5
54
330
2
100
AcDbSymbolTableRecord
100
AcDbLayerTableRecord
  2
0
 70
     0
 62
     7
  6
Continuous
370
    -3
390
F
347
21
348
0
  0
LAYER
  5
78
330
2
100
AcDbSymbolTableRecord
100
AcDbLayerTableRecord
  2
Слой 1
 70
     0
 62
     7
  6
Continuous
370
     0
390
F
347
21
348
0
  0
ENDTAB
  0
TABLE
  2
STYLE
  5
3
330
0
100
AcDbSymbolTable
 70
     2
  0
STYLE
  5
55
330
3
100
AcDbSymbolTableRecord
100
AcDbTextStyleTableRecord
  2
Standard
 70
     0
 40
0.0
 41
1.0
 50
0.0
 71
     0
 42
0.2
  3
txt
  4

  0
STYLE
  5
5A
330
3
100
AcDbSymbolTableRecord
100
AcDbTextStyleTableRecord
  2
Annotative
 70
     0
 40
0.0
 41
1.0
 50
0.0
 71
     0
 42
0.2
  3
txt
  4

1001
AcadAnnotative
1000
AnnotativeData
1002
{
1070
     1
1070
     1
1002
}
  0
ENDTAB
  0
TABLE
  2
VIEW
  5
6
330
0
100
AcDbSymbolTable
 70
     0
  0
ENDTAB
  0
TABLE
  2
UCS
  5
7
330
0
100
AcDbSymbolTable
 70
     0
  0
ENDTAB
  0
TABLE
  2
APPID
  5
9
330
0
100
AcDbSymbolTable
 70
     2
  0
APPID
  5
56
330
9
100
AcDbSymbolTableRecord
100
AcDbRegAppTableRecord
  2
ACAD
 70
     0
  0
APPID
  5
5E
330
9
100
AcDbSymbolTableRecord
100
AcDbRegAppTableRecord
  2
AcadAnnotative
 70
     0
  0
ENDTAB
  0
TABLE
  2
DIMSTYLE
  5
A
330
0
100
AcDbSymbolTable
 70
     2
100
AcDbDimStyleTable
 71
     0
  0
DIMSTYLE
105
58
330
A
100
AcDbSymbolTableRecord
100
AcDbDimStyleTableRecord
  2
Standard
 70
     0
340
55
  0
DIMSTYLE
105
59
330
A
100
AcDbSymbolTableRecord
100
AcDbDimStyleTableRecord
  2
Annotative
 70
     0
340
55
1001
AcadAnnotative
1000
AnnotativeData
1002
{
1070
     1
1070
     1
1002
}
  0
ENDTAB
  0
TABLE
  2
BLOCK_RECORD
  5
1
330
0
100
AcDbSymbolTable
 70
     2
  0
BLOCK_RECORD
  5
70
330
1
100
AcDbSymbolTableRecord
100
AcDbBlockTableRecord
  2
*Model_Space
340
73
 70
     0
280
     1
281
     0
  0
BLOCK_RECORD
  5
6C
330
1
100
AcDbSymbolTableRecord
100
AcDbBlockTableRecord
  2
*Paper_Space
340
6F
 70
     0
280
     1
281
     0
  0
BLOCK_RECORD
  5
74
330
1
100
AcDbSymbolTableRecord
100
AcDbBlockTableRecord
  2
*Paper_Space0
340
77
 70
     0
280
     1
281
     0
  0
BLOCK_RECORD
  5
79
330
1
100
AcDbSymbolTableRecord
100
AcDbBlockTableRecord
  2
Block_0
340
0
102
{BLKREFS
331
7A
102
}
 70
     0
280
     1
281
     0
  0
ENDTAB
  0
ENDSEC
  0
SECTION
  2
BLOCKS
  0
BLOCK
  5
71
330
70
100
AcDbEntity
  8
0
100
AcDbBlockBegin
  2
*Model_Space
 70
     0
 10
0.0
 20
0.0
 30
0.0
  3
*Model_Space
  1

  0
ENDBLK
  5
72
330
70
100
AcDbEntity
  8
0
100
AcDbBlockEnd
  0
BLOCK
  5
6D
330
6C
100
AcDbEntity
 67
     1
  8
0
100
AcDbBlockBegin
  2
*Paper_Space
 70
     0
 10
0.0
 20
0.0
 30
0.0
  3
*Paper_Space
  1

  0
ENDBLK
  5
6E
330
6C
100
AcDbEntity
 67
     1
  8
0
100
AcDbBlockEnd
  0
BLOCK
  5
75
330
74
100
AcDbEntity
 67
     1
  8
0
100
AcDbBlockBegin
  2
*Paper_Space0
 70
     0
 10
0.0
 20
0.0
 30
0.0
  3
*Paper_Space0
  1

  0
ENDBLK
  5
76
330
74
100
AcDbEntity
 67
     1
  8
0
100
AcDbBlockEnd
  0
BLOCK
  5
7B
330
79
100
AcDbEntity
  8
0
100
AcDbBlockBegin
  2
Block_0
 70
     0
 10
0.0
 20
0.0
 30
0.0
  3
Block_0
  1

  0
SPLINE
  5
7D
330
79
100
AcDbEntity
  8
Слой 1
100
AcDbSpline
210
0.0
220
0.0
230
1.0
 70
     9
 71
     3
 72
   140
 73
   136
 74
     0
 42
0.0000000001
 43
0.0000000001
 40
0.0
 40
0.0
 40
0.0
 40
0.0
 40
1.0
 40
1.0
 40
1.0
 40
2.0
 40
2.0
 40
2.0
 40
3.0
 40
3.0
 40
3.0
 40
4.0
 40
4.0
 40
4.0
 40
5.0
 40
5.0
 40
5.0
 40
6.0
 40
6.0
 40
6.0
 40
7.0
 40
7.0
 40
7.0
 40
8.0
 40
8.0
 40
8.0
 40
9.0
 40
9.0
 40
9.0
 40
10.0
 40
10.0
 40
10.0
 40
11.0
 40
11.0
 40
11.0
 40
12.0
 40
12.0
 40
12.0
 40
13.0
 40
13.0
 40
13.0
 40
14.0
 40
14.0
 40
14.0
 40
15.0
 40
15.0
 40
15.0
 40
16.0
 40
16.0
 40
16.0
 40
17.0
 40
17.0
 40
17.0
 40
18.0
 40
18.0
 40
18.0
 40
19.0
 40
19.0
 40
19.0
 40
20.0
 40
20.0
 40
20.0
 40
21.0
 40
21.0
 40
21.0
 40
22.0
 40
22.0
 40
22.0
 40
23.0
 40
23.0
 40
23.0
 40
24.0
 40
24.0
 40
24.0
 40
25.0
 40
25.0
 40
25.0
 40
26.0
 40
26.0
 40
26.0
 40
27.0
 40
27.0
 40
27.0
 40
28.0
 40
28.0
 40
28.0
 40
29.0
 40
29.0
 40
29.0
 40
30.0
 40
30.0
 40
30.0
 40
31.0
 40
31.0
 40
31.0
 40
32.0
 40
32.0
 40
32.0
 40
33.0
 40
33.0
 40
33.0
 40
34.0
 40
34.0
 40
34.0
 40
35.0
 40
35.0
 40
35.0
 40
36.0
 40
36.0
 40
36.0
 40
37.0
 40
37.0
 40
37.0
 40
38.0
 40
38.0
 40
38.0
 40
39.0
 40
39.0
 40
39.0
 40
40.0
 40
40.0
 40
40.0
 40
41.0
 40
41.0
 40
41.0
 40
42.0
 40
42.0
 40
42.0
 40
43.0
 40
43.0
 40
43.0
 40
44.0
 40
44.0
 40
44.0
 40
45.0
 40
45.0
 40
45.0
 40
45.0
 10
12.0
 20
-6.876040275548676
 30
0.0
 10
11.94488200559825
 20
-7.103606301463438
 30
0.0
 10
11.88254622117135
 20
-7.327442909363399
 30
0.0
 10
11.74431956969407
 20
-7.523122196669191
 30
0.0
 10
11.41074694675212
 20
-7.995340619334683
 30
0.0
 10
10.94782417359223
 20
-8.255933524309941
 30
0.0
 10
10.37986327904647
 20
-8.274406803763465
 30
0.0
 10
9.587793973982645
 20
-8.30016868497594
 30
0.0
 10
8.794318448011203
 20
-8.283286166102849
 30
0.0
 10
8.001445179417487
 20
-8.28320534058783
 30
0.0
 10
7.883660945827765
 20
-8.283193180996956
 30
0.0
 10
7.80584886343662
 20
-8.214613089076818
 30
0.0
 10
7.799570938251488
 20
-8.115385106266607
 30
0.0
 10
7.792981870595768
 20
-8.011215322714809
 30
0.0
 10
7.855434244039694
 20
-7.938330735663864
 30
0.0
 10
7.973290719903363
 20
-7.918245952798415
 30
0.0
 10
8.011380280342766
 20
-7.911755592409614
 30
0.0
 10
8.051078483113794
 20
-7.913525170500861
 30
0.0
 10
8.090041388278248
 20
-7.913510865100306
 30
0.0
 10
8.800906085126269
 20
-7.913242638833227
 30
0.0
 10
9.511770066703975
 20
-7.913109598605185
 30
0.0
 10
10.2226347635525
 20
-7.913312735297949
 30
0.0
 10
10.67124855946063
 20
-7.913440768635559
 30
0.0
 10
11.05849075496363
 20
-7.767816794353089
 30
0.0
 10
11.35480782233887
 20
-7.422156107649369
 30
0.0
 10
11.79259886719584
 20
-6.911461878720198
 30
0.0
 10
11.71057885112911
 20
-6.168760512166575
 30
0.0
 10
11.09257766423065
 20
-5.743179126979157
 30
0.0
 10
10.93677825828692
 20
-5.635889335490952
 30
0.0
 10
10.76446183646233
 20
-5.565594741272636
 30
0.0
 10
10.5792755607172
 20
-5.52454825446739
 30
0.0
 10
10.33532126753081
 20
-5.470475627235954
 30
0.0
 10
10.31913756749135
 20
-5.445254490177527
 30
0.0
 10
10.29701927188747
 20
-5.200160771808693
 30
0.0
 10
10.22365545390671
 20
-4.387177685898222
 30
0.0
 10
9.815151141044326
 20
-3.786514287256649
 30
0.0
 10
9.114878878293666
 20
-3.385974506346251
 30
0.0
 10
8.28219725534177
 20
-2.909698893167766
 30
0.0
 10
7.441307908623153
 20
-3.211723636685342
 30
0.0
 10
6.904161562888399
 20
-3.783127841228179
 30
0.0
 10
6.87743263657497
 20
-3.811561613694518
 30
0.0
 10
6.853247925811147
 20
-3.842372586155432
 30
0.0
 10
6.826931710313651
 20
-3.871212274372206
 30
0.0
 10
6.738681692154411
 20
-3.967924294799002
 30
0.0
 10
6.631689453005289
 20
-3.986226267076593
 30
0.0
 10
6.549384759460685
 20
-3.919261254918637
 30
0.0
 10
6.462935076004795
 20
-3.848923386862957
 30
0.0
 10
6.460395152075029
 20
-3.733984497512993
 30
0.0
 10
6.547524342073276
 20
-3.628390253666566
 30
0.0
 10
6.700085005253387
 20
-3.443495808099921
 30
0.0
 10
6.875625149170976
 20
-3.282938068180732
 30
0.0
 10
7.076631767772469
 20
-3.152144860647442
 30
0.0
 10
7.324214625897335
 20
-2.991044767217039
 30
0.0
 10
7.590907353817227
 20
-2.871697132126958
 30
0.0
 10
7.883515030738761
 20
-2.823440365631388
 30
0.0
 10
7.994826785690342
 20
-2.805082781107987
 30
0.0
 10
8.018872734064794
 20
-2.766375584984542
 30
0.0
 10
7.989930046961767
 20
-2.657268649947102
 30
0.0
 10
7.700230658043336
 20
-1.565143382165236
 30
0.0
 10
6.994839922850587
 20
-0.8711598630593723
 30
0.0
 10
5.917229093640785
 20
-0.5950523931719797
 30
0.0
 10
4.782256825532536
 20
-0.3042478673298774
 30
0.0
 10
3.768776750927119
 20
-0.5791408533848173
 30
0.0
 10
2.953258032707013
 20
-1.437964434169089
 30
0.0
 10
2.393144902277602
 20
-2.02781992361257
 30
0.0
 10
2.169512503975435
 20
-2.747297902343057
 30
0.0
 10
2.265235305929953
 20
-3.559023364696839
 30
0.0
 10
2.291532924406801
 20
-3.782025967723837
 30
0.0
 10
2.252703595923637
 20
-3.841670190970944
 30
0.0
 10
2.02600036450076
 20
-3.885185432337266
 30
0.0
 10
1.16826283187096
 20
-4.049827006578172
 30
0.0
 10
0.5022308144032069
 20
-4.733708498611576
 30
0.0
 10
0.397364894280233
 20
-5.557468558290716
 30
0.0
 10
0.2766211191182669
 20
-6.505955262616705
 30
0.0
 10
0.7040961146937863
 20
-7.33345976098235
 30
0.0
 10
1.520848941968021
 20
-7.72944255643559
 30
0.0
 10
1.796380798286488
 20
-7.863027820590407
 30
0.0
 10
2.089128668137492
 20
-7.917709500264536
 30
0.0
 10
2.394331892917307
 20
-7.914487923981671
 30
0.0
 10
2.597413152284389
 20
-7.912343544386531
 30
0.0
 10
2.800542334744666
 20
-7.915070153798573
 30
0.0
 10
3.00363593252046
 20
-7.91363317627785
 30
0.0
 10
3.069243004497896
 20
-7.913168966018676
 30
0.0
 10
3.129039222629671
 20
-7.928235414247764
 30
0.0
 10
3.176082891128215
 20
-7.973271677364664
 30
0.0
 10
3.227769735123754
 20
-8.022751913271576
 30
0.0
 10
3.245985159725831
 20
-8.086166324925745
 30
0.0
 10
3.223057893701921
 20
-8.155430215009168
 30
0.0
 10
3.19873012892938
 20
-8.228924927408872
 30
0.0
 10
3.143354279676625
 20
-8.278941615848806
 30
0.0
 10
3.068099287696327
 20
-8.278910143966918
 30
0.0
 10
2.558694511840915
 20
-8.278696278223907
 30
0.0
 10
2.043252856804934
 20
-8.338826885101221
 30
0.0
 10
1.551450519123149
 20
-8.142881517338537
 30
0.0
 10
0.6918084905895637
 20
-7.800383039504417
 30
0.0
 10
0.1815122423840497
 20
-7.165728220146547
 30
0.0
 10
0.0327620406680404
 20
-6.259844430244028
 30
0.0
 10
-0.1441891689948736
 20
-5.18221786509356
 30
0.0
 10
0.4081479031401614
 20
-4.159917080292972
 30
0.0
 10
1.387555597400907
 20
-3.695896009978569
 30
0.0
 10
1.51474518503888
 20
-3.635636654492549
 30
0.0
 10
1.64695534253206
 20
-3.586192539723141
 30
0.0
 10
1.784667893663822
 20
-3.558624244011651
 30
0.0
 10
1.863696650401784
 20
-3.542803543520398
 30
0.0
 10
1.882423850721579
 20
-3.507504251526698
 30
0.0
 10
1.877950373042355
 20
-3.431797566513005
 30
0.0
 10
1.851346440168905
 20
-2.981561895777152
 30
0.0
 10
1.913553654805203
 20
-2.544818006266041
 30
0.0
 10
2.084468683793514
 20
-2.125070721201028
 30
0.0
 10
2.387884627548032
 20
-1.379916872480306
 30
0.0
 10
2.903479886826213
 20
-0.8243306861657703
 30
0.0
 10
3.623220727298934
 20
-0.4779948739484957
 30
0.0
 10
4.706911351891246
 20
0.0434720930094651
 30
0.0
 10
5.794283829041142
 20
0.0192159949429475
 30
0.0
 10
6.843209110729023
 20
-0.5732231113715898
 30
0.0
 10
7.667443394447799
 20
-1.03875532376906
 30
0.0
 10
8.183952768843507
 20
-1.748872116376358
 30
0.0
 10
8.368184159078584
 20
-2.686213125225448
 30
0.0
 10
8.383091817357984
 20
-2.762061791342905
 30
0.0
 10
8.41514950550648
 20
-2.785678398873313
 30
0.0
 10
8.487633541332392
 20
-2.795942166384646
 30
0.0
 10
9.56336893248461
 20
-2.948269830347473
 30
0.0
 10
10.48382134266439
 20
-3.865781944189974
 30
0.0
 10
10.63889474951323
 20
-4.946533524167382
 30
0.0
 10
10.65980709982048
 20
-5.092279809628153
 30
0.0
 10
10.6969439205592
 20
-5.169275053628198
 30
0.0
 10
10.85733607546267
 20
-5.223174227873212
 30
0.0
 10
11.42051610502754
 20
-5.41242931727
 30
0.0
 10
11.8107924760618
 20
-5.786561685751545
 30
0.0
 10
11.96334670181151
 20
-6.378426189933583
 30
0.0
 10
11.97587394138013
 20
-6.427027358954849
 30
0.0
 10
11.9877960624918
 20
-6.475785172116375
 30
0.0
 10
12.0
 20
-6.524470743003196
 30
0.0
 10
12.0
 20
-6.641660587184964
 30
0.0
 10
12.0
 20
-6.758850431366655
 30
0.0
 10
12.0
 20
-6.876040275548676
 30
0.0
  0
HATCH
  5
7E
330
79
100
AcDbEntity
  8
Слой 1
 62
    18
420
        0
440
 33554687
100
AcDbHatch
 10
0.0
 20
0.0
 30
0.0
210
0.0
220
0.0
230
1.0
  2
SOLID
 70
     1
 71
     1
 91
        1
 92
        1
 93
        1
 72
     4
 94
        3
 73
     0
 74
     0
 95
      140
 96
      136
 40
0.0
 40
0.0
 40
0.0
 40
0.0
 40
1.0
 40
1.0
 40
1.0
 40
2.0
 40
2.0
 40
2.0
 40
3.0
 40
3.0
 40
3.0
 40
4.0
 40
4.0
 40
4.0
 40
5.0
 40
5.0
 40
5.0
 40
6.0
 40
6.0
 40
6.0
 40
7.0
 40
7.0
 40
7.0
 40
8.0
 40
8.0
 40
8.0
 40
9.0
 40
9.0
 40
9.0
 40
10.0
 40
10.0
 40
10.0
 40
11.0
 40
11.0
 40
11.0
 40
12.0
 40
12.0
 40
12.0
 40
13.0
 40
13.0
 40
13.0
 40
14.0
 40
14.0
 40
14.0
 40
15.0
 40
15.0
 40
15.0
 40
16.0
 40
16.0
 40
16.0
 40
17.0
 40
17.0
 40
17.0
 40
18.0
 40
18.0
 40
18.0
 40
19.0
 40
19.0
 40
19.0
 40
20.0
 40
20.0
 40
20.0
 40
21.0
 40
21.0
 40
21.0
 40
22.0
 40
22.0
 40
22.0
 40
23.0
 40
23.0
 40
23.0
 40
24.0
 40
24.0
 40
24.0
 40
25.0
 40
25.0
 40
25.0
 40
26.0
 40
26.0
 40
26.0
 40
27.0
 40
27.0
 40
27.0
 40
28.0
 40
28.0
 40
28.0
 40
29.0
 40
29.0
 40
29.0
 40
30.0
 40
30.0
 40
30.0
 40
31.0
 40
31.0
 40
31.0
 40
32.0
 40
32.0
 40
32.0
 40
33.0
 40
33.0
 40
33.0
 40
34.0
 40
34.0
 40
34.0
 40
35.0
 40
35.0
 40
35.0
 40
36.0
 40
36.0
 40
36.0
 40
37.0
 40
37.0
 40
37.0
 40
38.0
 40
38.0
 40
38.0
 40
39.0
 40
39.0
 40
39.0
 40
40.0
 40
40.0
 40
40.0
 40
41.0
 40
41.0
 40
41.0
 40
42.0
 40
42.0
 40
42.0
 40
43.0
 40
43.0
 40
43.0
 40
44.0
 40
44.0
 40
44.0
 40
45.0
 40
45.0
 40
45.0
 40
45.0
 10
12.0
 20
-6.876040275548676
 10
11.94488200559825
 20
-7.103606301463438
 10
11.88254622117135
 20
-7.327442909363399
 10
11.74431956969407
 20
-7.523122196669191
 10
11.41074694675212
 20
-7.995340619334683
 10
10.94782417359223
 20
-8.255933524309941
 10
10.37986327904647
 20
-8.274406803763465
 10
9.587793973982645
 20
-8.30016868497594
 10
8.794318448011203
 20
-8.283286166102849
 10
8.001445179417487
 20
-8.28320534058783
 10
7.883660945827765
 20
-8.283193180996956
 10
7.80584886343662
 20
-8.214613089076818
 10
7.799570938251488
 20
-8.115385106266607
 10
7.792981870595768
 20
-8.011215322714809
 10
7.855434244039694
 20
-7.938330735663864
 10
7.973290719903363
 20
-7.918245952798415
 10
8.011380280342766
 20
-7.911755592409614
 10
8.051078483113794
 20
-7.913525170500861
 10
8.090041388278248
 20
-7.913510865100306
 10
8.800906085126269
 20
-7.913242638833227
 10
9.511770066703975
 20
-7.913109598605185
 10
10.2226347635525
 20
-7.913312735297949
 10
10.67124855946063
 20
-7.913440768635559
 10
11.05849075496363
 20
-7.767816794353089
 10
11.35480782233887
 20
-7.422156107649369
 10
11.79259886719584
 20
-6.911461878720198
 10
11.71057885112911
 20
-6.168760512166575
 10
11.09257766423065
 20
-5.743179126979157
 10
10.93677825828692
 20
-5.635889335490952
 10
10.76446183646233
 20
-5.565594741272636
 10
10.5792755607172
 20
-5.52454825446739
 10
10.33532126753081
 20
-5.470475627235954
 10
10.31913756749135
 20
-5.445254490177527
 10
10.29701927188747
 20
-5.200160771808693
 10
10.22365545390671
 20
-4.387177685898222
 10
9.815151141044326
 20
-3.786514287256649
 10
9.114878878293666
 20
-3.385974506346251
 10
8.28219725534177
 20
-2.909698893167766
 10
7.441307908623153
 20
-3.211723636685342
 10
6.904161562888399
 20
-3.783127841228179
 10
6.87743263657497
 20
-3.811561613694518
 10
6.853247925811147
 20
-3.842372586155432
 10
6.826931710313651
 20
-3.871212274372206
 10
6.738681692154411
 20
-3.967924294799002
 10
6.631689453005289
 20
-3.986226267076593
 10
6.549384759460685
 20
-3.919261254918637
 10
6.462935076004795
 20
-3.848923386862957
 10
6.460395152075029
 20
-3.733984497512993
 10
6.547524342073276
 20
-3.628390253666566
 10
6.700085005253387
 20
-3.443495808099921
 10
6.875625149170976
 20
-3.282938068180732
 10
7.076631767772469
 20
-3.152144860647442
 10
7.324214625897335
 20
-2.991044767217039
 10
7.590907353817227
 20
-2.871697132126958
 10
7.883515030738761
 20
-2.823440365631388
 10
7.994826785690342
 20
-2.805082781107987
 10
8.018872734064794
 20
-2.766375584984542
 10
7.989930046961767
 20
-2.657268649947102
 10
7.700230658043336
 20
-1.565143382165236
 10
6.994839922850587
 20
-0.8711598630593723
 10
5.917229093640785
 20
-0.5950523931719797
 10
4.782256825532536
 20
-0.3042478673298774
 10
3.768776750927119
 20
-0.5791408533848173
 10
2.953258032707013
 20
-1.437964434169089
 10
2.393144902277602
 20
-2.02781992361257
 10
2.169512503975435
 20
-2.747297902343057
 10
2.265235305929953
 20
-3.559023364696839
 10
2.291532924406801
 20
-3.782025967723837
 10
2.252703595923637
 20
-3.841670190970944
 10
2.02600036450076
 20
-3.885185432337266
 10
1.16826283187096
 20
-4.049827006578172
 10
0.5022308144032069
 20
-4.733708498611576
 10
0.397364894280233
 20
-5.557468558290716
 10
0.2766211191182669
 20
-6.505955262616705
 10
0.7040961146937863
 20
-7.33345976098235
 10
1.520848941968021
 20
-7.72944255643559
 10
1.796380798286488
 20
-7.863027820590407
 10
2.089128668137492
 20
-7.917709500264536
 10
2.394331892917307
 20
-7.914487923981671
 10
2.597413152284389
 20
-7.912343544386531
 10
2.800542334744666
 20
-7.915070153798573
 10
3.00363593252046
 20
-7.91363317627785
 10
3.069243004497896
 20
-7.913168966018676
 10
3.129039222629671
 20
-7.928235414247764
 10
3.176082891128215
 20
-7.973271677364664
 10
3.227769735123754
 20
-8.022751913271576
 10
3.245985159725831
 20
-8.086166324925745
 10
3.223057893701921
 20
-8.155430215009168
 10
3.19873012892938
 20
-8.228924927408872
 10
3.143354279676625
 20
-8.278941615848806
 10
3.068099287696327
 20
-8.278910143966918
 10
2.558694511840915
 20
-8.278696278223907
 10
2.043252856804934
 20
-8.338826885101221
 10
1.551450519123149
 20
-8.142881517338537
 10
0.6918084905895637
 20
-7.800383039504417
 10
0.1815122423840497
 20
-7.165728220146547
 10
0.0327620406680404
 20
-6.259844430244028
 10
-0.1441891689948736
 20
-5.18221786509356
 10
0.4081479031401614
 20
-4.159917080292972
 10
1.387555597400907
 20
-3.695896009978569
 10
1.51474518503888
 20
-3.635636654492549
 10
1.64695534253206
 20
-3.586192539723141
 10
1.784667893663822
 20
-3.558624244011651
 10
1.863696650401784
 20
-3.542803543520398
 10
1.882423850721579
 20
-3.507504251526698
 10
1.877950373042355
 20
-3.431797566513005
 10
1.851346440168905
 20
-2.981561895777152
 10
1.913553654805203
 20
-2.544818006266041
 10
2.084468683793514
 20
-2.125070721201028
 10
2.387884627548032
 20
-1.379916872480306
 10
2.903479886826213
 20
-0.8243306861657703
 10
3.623220727298934
 20
-0.4779948739484957
 10
4.706911351891246
 20
0.0434720930094651
 10
5.794283829041142
 20
0.0192159949429475
 10
6.843209110729023
 20
-0.5732231113715898
 10
7.667443394447799
 20
-1.03875532376906
 10
8.183952768843507
 20
-1.748872116376358
 10
8.368184159078584
 20
-2.686213125225448
 10
8.383091817357984
 20
-2.762061791342905
 10
8.41514950550648
 20
-2.785678398873313
 10
8.487633541332392
 20
-2.795942166384646
 10
9.56336893248461
 20
-2.948269830347473
 10
10.48382134266439
 20
-3.865781944189974
 10
10.63889474951323
 20
-4.946533524167382
 10
10.65980709982048
 20
-5.092279809628153
 10
10.6969439205592
 20
-5.169275053628198
 10
10.85733607546267
 20
-5.223174227873212
 10
11.42051610502754
 20
-5.41242931727
 10
11.8107924760618
 20
-5.786561685751545
 10
11.96334670181151
 20
-6.378426189933583
 10
11.97587394138013
 20
-6.427027358954849
 10
11.9877960624918
 20
-6.475785172116375
 10
12.0
 20
-6.524470743003196
 10
12.0
 20
-6.641660587184964
 10
12.0
 20
-6.758850431366655
 10
12.0
 20
-6.876040275548676
 97
        0
 97
        1
330
7D
 75
     2
 76
     1
 98
        1
 10
0.0
 20
0.0
450
        0
451
        0
460
0.0
461
0.0
452
        0
462
0.0
453
        0
470

  0
SPLINE
  5
7F
330
79
100
AcDbEntity
  8
Слой 1
100
AcDbSpline
210
0.0
220
0.0
230
1.0
 70
     9
 71
     3
 72
    89
 73
    85
 74
     0
 42
0.0000000001
 43
0.0000000001
 40
0.0
 40
0.0
 40
0.0
 40
0.0
 40
1.0
 40
1.0
 40
1.0
 40
2.0
 40
2.0
 40
2.0
 40
3.0
 40
3.0
 40
3.0
 40
4.0
 40
4.0
 40
4.0
 40
5.0
 40
5.0
 40
5.0
 40
6.0
 40
6.0
 40
6.0
 40
7.0
 40
7.0
 40
7.0
 40
8.0
 40
8.0
 40
8.0
 40
9.0
 40
9.0
 40
9.0
 40
10.0
 40
10.0
 40
10.0
 40
11.0
 40
11.0
 40
11.0
 40
12.0
 40
12.0
 40
12.0
 40
13.0
 40
13.0
 40
13.0
 40
14.0
 40
14.0
 40
14.0
 40
15.0
 40
15.0
 40
15.0
 40
16.0
 40
16.0
 40
16.0
 40
17.0
 40
17.0
 40
17.0
 40
18.0
 40
18.0
 40
18.0
 40
19.0
 40
19.0
 40
19.0
 40
20.0
 40
20.0
 40
20.0
 40
21.0
 40
21.0
 40
21.0
 40
22.0
 40
22.0
 40
22.0
 40
23.0
 40
23.0
 40
23.0
 40
24.0
 40
24.0
 40
24.0
 40
25.0
 40
25.0
 40
25.0
 40
26.0
 40
26.0
 40
26.0
 40
27.0
 40
27.0
 40
27.0
 40
28.0
 40
28.0
 40
28.0
 40
28.0
 10
6.75409933797578
 20
-9.054307934820144
 30
0.0
 10
6.632196579467467
 20
-9.086972171967797
 30
0.0
 10
6.528807155534423
 20
-9.115744624800097
 30
0.0
 10
6.424816189493943
 20
-9.142145242163147
 30
0.0
 10
6.36133668826551
 20
-9.158260991548356
 30
0.0
 10
6.289807537949677
 20
-9.166590311222559
 30
0.0
 10
6.270006717292289
 20
-9.086414976602755
 30
0.0
 10
6.250518469645081
 20
-9.007507100502481
 30
0.0
 10
6.315947081746116
 20
-8.980784611619077
 30
0.0
 10
6.379788509617557
 20
-8.963471500178632
 30
0.0
 10
6.462442254943955
 20
-8.941056367506336
 30
0.0
 10
6.54432923078189
 20
-8.915186480516871
 30
0.0
 10
6.627881355285403
 20
-8.896907754515241
 30
0.0
 10
6.697744641665798
 20
-8.881622433652687
 30
0.0
 10
6.690998929870879
 20
-8.85586842041016
 30
0.0
 10
6.648881683807555
 20
-8.814730379038715
 30
0.0
 10
6.584726967656605
 20
-8.752065570391625
 30
0.0
 10
6.521650163463668
 20
-8.688287801554325
 30
0.0
 10
6.458676358156758
 20
-8.624429207201803
 30
0.0
 10
6.414379684266501
 20
-8.57950953310218
 30
0.0
 10
6.381302736302914
 20
-8.527182522415891
 30
0.0
 10
6.435697592689039
 20
-8.472563786505537
 30
0.0
 10
6.490505159891603
 20
-8.41753162450896
 30
0.0
 10
6.544483013841878
 20
-8.450807417544966
 30
0.0
 10
6.587836246542565
 20
-8.495648411939807
 30
0.0
 10
6.663465324756694
 20
-8.573870344066865
 30
0.0
 10
6.736202566178032
 20
-8.654887551530565
 30
0.0
 10
6.823542045570269
 20
-8.749190900080671
 30
0.0
 10
6.881157047699312
 20
-8.628747292463836
 30
0.0
 10
6.893697162129152
 20
-8.521715713461516
 30
0.0
 10
6.9241962768502
 20
-8.420761068762304
 30
0.0
 10
6.94440122508326
 20
-8.353884750089793
 30
0.0
 10
6.968897793585887
 20
-8.282930676890195
 30
0.0
 10
7.055994081162098
 20
-8.310604474933345
 30
0.0
 10
7.134444184434287
 20
-8.335531636003805
 30
0.0
 10
7.119981424123074
 20
-8.404984357378452
 30
0.0
 10
7.102007403160667
 20
-8.468346554319571
 30
0.0
 10
7.079703852616476
 20
-8.546969752942281
 30
0.0
 10
7.061198386010168
 20
-8.626705196484888
 30
0.0
 10
7.037557280481173
 20
-8.704903524700764
 30
0.0
 10
7.015756564778231
 20
-8.777012043753176
 30
0.0
 10
7.045604068487717
 20
-8.787040129784802
 30
0.0
 10
7.106493576883798
 20
-8.770098243497715
 30
0.0
 10
7.196496006652144
 20
-8.745055923950328
 30
0.0
 10
7.286793842950575
 20
-8.721024280976127
 30
0.0
 10
7.37728408689059
 20
-8.697803754233568
 30
0.0
 10
7.432700348901208
 20
-8.683584185737622
 30
0.0
 10
7.481242865779322
 20
-8.695063554691033
 30
0.0
 10
7.499021618019368
 20
-8.754809346284243
 30
0.0
 10
7.516672336920818
 20
-8.814122399500673
 30
0.0
 10
7.484668294025014
 20
-8.853147533158663
 30
0.0
 10
7.429058909102018
 20
-8.869776846436126
 30
0.0
 10
7.332141963807114
 20
-8.898756727582091
 30
0.0
 10
7.234733627991494
 20
-8.926441254675991
 30
0.0
 10
7.136555661607164
 20
-8.950724672705417
 30
0.0
 10
7.079992106443872
 20
-8.964714639516639
 30
0.0
 10
7.074237758931682
 20
-8.983564866284115
 30
0.0
 10
7.116420094568259
 20
-9.023623565157169
 30
0.0
 10
7.175780355607861
 20
-9.079995427948258
 30
0.0
 10
7.232472659379027
 20
-9.139172579856095
 30
0.0
 10
7.2904710462521
 20
-9.196984996517459
 30
0.0
 10
7.341180831366222
 20
-9.247533130601897
 30
0.0
 10
7.404277663121016
 20
-9.304034457270669
 30
0.0
 10
7.332995280970837
 20
-9.373198209547327
 30
0.0
 10
7.259911133577158
 20
-9.44410936654415
 30
0.0
 10
7.207316611894384
 20
-9.37002169527712
 30
0.0
 10
7.157882868540278
 20
-9.323235881630099
 30
0.0
 10
7.101259230693964
 20
-9.269645704044705
 30
0.0
 10
7.046214909105729
 20
-9.214292385797888
 30
0.0
 10
6.992290700409689
 20
-9.157976314070511
 30
0.0
 10
6.946981919405541
 20
-9.11065977005008
 30
0.0
 10
6.925034573342751
 20
-9.119160754535187
 30
0.0
 10
6.910577535192057
 20
-9.182215385357341
 30
0.0
 10
6.889713107978523
 20
-9.273216332109035
 30
0.0
 10
6.864443332556573
 20
-9.363288143073379
 30
0.0
 10
6.838440405338537
 20
-9.452999457934284
 30
0.0
 10
6.8219140909471
 20
-9.510020785925917
 30
0.0
 10
6.788111143888095
 20
-9.55754761933978
 30
0.0
 10
6.721653973461873
 20
-9.540154397654127
 30
0.0
 10
6.656017933047627
 20
-9.522976472251936
 30
0.0
 10
6.646827428238465
 20
-9.465323560810348
 30
0.0
 10
6.660984052970383
 20
-9.407438901874103
 30
0.0
 10
6.688382472046289
 20
-9.29541259214789
 30
0.0
 10
6.719565384930622
 20
-9.18431112658949
 30
0.0
 10
6.75409933797578
 20
-9.054307934820144
 30
0.0
  0
HATCH
  5
80
330
79
100
AcDbEntity
  8
Слой 1
 62
    18
420
        0
440
 33554687
100
AcDbHatch
 10
0.0
 20
0.0
 30
0.0
210
0.0
220
0.0
230
1.0
  2
SOLID
 70
     1
 71
     1
 91
        1
 92
        1
 93
        1
 72
     4
 94
        3
 73
     0
 74
     0
 95
       89
 96
       85
 40
0.0
 40
0.0
 40
0.0
 40
0.0
 40
1.0
 40
1.0
 40
1.0
 40
2.0
 40
2.0
 40
2.0
 40
3.0
 40
3.0
 40
3.0
 40
4.0
 40
4.0
 40
4.0
 40
5.0
 40
5.0
 40
5.0
 40
6.0
 40
6.0
 40
6.0
 40
7.0
 40
7.0
 40
7.0
 40
8.0
 40
8.0
 40
8.0
 40
9.0
 40
9.0
 40
9.0
 40
10.0
 40
10.0
 40
10.0
 40
11.0
 40
11.0
 40
11.0
 40
12.0
 40
12.0
 40
12.0
 40
13.0
 40
13.0
 40
13.0
 40
14.0
 40
14.0
 40
14.0
 40
15.0
 40
15.0
 40
15.0
 40
16.0
 40
16.0
 40
16.0
 40
17.0
 40
17.0
 40
17.0
 40
18.0
 40
18.0
 40
18.0
 40
19.0
 40
19.0
 40
19.0
 40
20.0
 40
20.0
 40
20.0
 40
21.0
 40
21.0
 40
21.0
 40
22.0
 40
22.0
 40
22.0
 40
23.0
 40
23.0
 40
23.0
 40
24.0
 40
24.0
 40
24.0
 40
25.0
 40
25.0
 40
25.0
 40
26.0
 40
26.0
 40
26.0
 40
27.0
 40
27.0
 40
27.0
 40
28.0
 40
28.0
 40
28.0
 40
28.0
 10
6.75409933797578
 20
-9.054307934820144
 10
6.632196579467467
 20
-9.086972171967797
 10
6.528807155534423
 20
-9.115744624800097
 10
6.424816189493943
 20
-9.142145242163147
 10
6.36133668826551
 20
-9.158260991548356
 10
6.289807537949677
 20
-9.166590311222559
 10
6.270006717292289
 20
-9.086414976602755
 10
6.250518469645081
 20
-9.007507100502481
 10
6.315947081746116
 20
-8.980784611619077
 10
6.379788509617557
 20
-8.963471500178632
 10
6.462442254943955
 20
-8.941056367506336
 10
6.54432923078189
 20
-8.915186480516871
 10
6.627881355285403
 20
-8.896907754515241
 10
6.697744641665798
 20
-8.881622433652687
 10
6.690998929870879
 20
-8.85586842041016
 10
6.648881683807555
 20
-8.814730379038715
 10
6.584726967656605
 20
-8.752065570391625
 10
6.521650163463668
 20
-8.688287801554325
 10
6.458676358156758
 20
-8.624429207201803
 10
6.414379684266501
 20
-8.57950953310218
 10
6.381302736302914
 20
-8.527182522415891
 10
6.435697592689039
 20
-8.472563786505537
 10
6.490505159891603
 20
-8.41753162450896
 10
6.544483013841878
 20
-8.450807417544966
 10
6.587836246542565
 20
-8.495648411939807
 10
6.663465324756694
 20
-8.573870344066865
 10
6.736202566178032
 20
-8.654887551530565
 10
6.823542045570269
 20
-8.749190900080671
 10
6.881157047699312
 20
-8.628747292463836
 10
6.893697162129152
 20
-8.521715713461516
 10
6.9241962768502
 20
-8.420761068762304
 10
6.94440122508326
 20
-8.353884750089793
 10
6.968897793585887
 20
-8.282930676890195
 10
7.055994081162098
 20
-8.310604474933345
 10
7.134444184434287
 20
-8.335531636003805
 10
7.119981424123074
 20
-8.404984357378452
 10
7.102007403160667
 20
-8.468346554319571
 10
7.079703852616476
 20
-8.546969752942281
 10
7.061198386010168
 20
-8.626705196484888
 10
7.037557280481173
 20
-8.704903524700764
 10
7.015756564778231
 20
-8.777012043753176
 10
7.045604068487717
 20
-8.787040129784802
 10
7.106493576883798
 20
-8.770098243497715
 10
7.196496006652144
 20
-8.745055923950328
 10
7.286793842950575
 20
-8.721024280976127
 10
7.37728408689059
 20
-8.697803754233568
 10
7.432700348901208
 20
-8.683584185737622
 10
7.481242865779322
 20
-8.695063554691033
 10
7.499021618019368
 20
-8.754809346284243
 10
7.516672336920818
 20
-8.814122399500673
 10
7.484668294025014
 20
-8.853147533158663
 10
7.429058909102018
 20
-8.869776846436126
 10
7.332141963807114
 20
-8.898756727582091
 10
7.234733627991494
 20
-8.926441254675991
 10
7.136555661607164
 20
-8.950724672705417
 10
7.079992106443872
 20
-8.964714639516639
 10
7.074237758931682
 20
-8.983564866284115
 10
7.116420094568259
 20
-9.023623565157169
 10
7.175780355607861
 20
-9.079995427948258
 10
7.232472659379027
 20
-9.139172579856095
 10
7.2904710462521
 20
-9.196984996517459
 10
7.341180831366222
 20
-9.247533130601897
 10
7.404277663121016
 20
-9.304034457270669
 10
7.332995280970837
 20
-9.373198209547327
 10
7.259911133577158
 20
-9.44410936654415
 10
7.207316611894384
 20
-9.37002169527712
 10
7.157882868540278
 20
-9.323235881630099
 10
7.101259230693964
 20
-9.269645704044705
 10
7.046214909105729
 20
-9.214292385797888
 10
6.992290700409689
 20
-9.157976314070511
 10
6.946981919405541
 20
-9.11065977005008
 10
6.925034573342751
 20
-9.119160754535187
 10
6.910577535192057
 20
-9.182215385357341
 10
6.889713107978523
 20
-9.273216332109035
 10
6.864443332556573
 20
-9.363288143073379
 10
6.838440405338537
 20
-9.452999457934284
 10
6.8219140909471
 20
-9.510020785925917
 10
6.788111143888095
 20
-9.55754761933978
 10
6.721653973461873
 20
-9.540154397654127
 10
6.656017933047627
 20
-9.522976472251936
 10
6.646827428238465
 20
-9.465323560810348
 10
6.660984052970383
 20
-9.407438901874103
 10
6.688382472046289
 20
-9.29541259214789
 10
6.719565384930622
 20
-9.18431112658949
 10
6.75409933797578
 20
-9.054307934820144
 97
        0
 97
        1
330
7F
 75
     2
 76
     1
 98
        1
 10
0.0
 20
0.0
450
        0
451
        0
460
0.0
461
0.0
452
        0
462
0.0
453
        0
470

  0
SPLINE
  5
81
330
79
100
AcDbEntity
  8
Слой 1
100
AcDbSpline
210
0.0
220
0.0
230
1.0
 70
     9
 71
     3
 72
    89
 73
    85
 74
     0
 42
0.0000000001
 43
0.0000000001
 40
0.0
 40
0.0
 40
0.0
 40
0.0
 40
1.0
 40
1.0
 40
1.0
 40
2.0
 40
2.0
 40
2.0
 40
3.0
 40
3.0
 40
3.0
 40
4.0
 40
4.0
 40
4.0
 40
5.0
 40
5.0
 40
5.0
 40
6.0
 40
6.0
 40
6.0
 40
7.0
 40
7.0
 40
7.0
 40
8.0
 40
8.0
 40
8.0
 40
9.0
 40
9.0
 40
9.0
 40
10.0
 40
10.0
 40
10.0
 40
11.0
 40
11.0
 40
11.0
 40
12.0
 40
12.0
 40
12.0
 40
13.0
 40
13.0
 40
13.0
 40
14.0
 40
14.0
 40
14.0
 40
15.0
 40
15.0
 40
15.0
 40
16.0
 40
16.0
 40
16.0
 40
17.0
 40
17.0
 40
17.0
 40
18.0
 40
18.0
 40
18.0
 40
19.0
 40
19.0
 40
19.0
 40
20.0
 40
20.0
 40
20.0
 40
21.0
 40
21.0
 40
21.0
 40
22.0
 40
22.0
 40
22.0
 40
23.0
 40
23.0
 40
23.0
 40
24.0
 40
24.0
 40
24.0
 40
25.0
 40
25.0
 40
25.0
 40
26.0
 40
26.0
 40
26.0
 40
27.0
 40
27.0
 40
27.0
 40
28.0
 40
28.0
 40
28.0
 40
28.0
 10
8.457582900930093
 20
-10.75936723768326
 30
0.0
 10
8.334782478514954
 20
-10.79102151352744
 30
0.0
 10
8.230069804998441
 20
-10.81558317160488
 30
0.0
 10
8.126900684239798
 20
-10.84547001516754
 30
0.0
 10
8.059230415816777
 20
-10.86507270602234
 30
0.0
 10
7.9958138583527
 20
-10.86763122697334
 30
0.0
 10
7.974660462039865
 20
-10.78909243021593
 30
0.0
 10
7.954753066146344
 20
-10.71518000010991
 30
0.0
 10
8.012459622841408
 20
-10.68775869239258
 30
0.0
 10
8.073710342609652
 20
-10.67156640911263
 30
0.0
 10
8.160312378584345
 20
-10.64867490659043
 30
0.0
 10
8.24629999759097
 20
-10.62332144457405
 30
0.0
 10
8.333324758162563
 20
-10.60221239500406
 30
0.0
 10
8.397808498534434
 20
-10.5865694391189
 30
0.0
 10
8.399015159100851
 20
-10.56282032781289
 30
0.0
 10
8.353571907327754
 20
-10.51974247407947
 30
0.0
 10
8.285631982098594
 20
-10.45534313557287
 30
0.0
 10
8.220370027917699
 20
-10.38808271688607
 30
0.0
 10
8.154854152870559
 20
-10.32117206525087
 30
0.0
 10
8.112637484271292
 20
-10.27805773274526
 30
0.0
 10
8.088666639252044
 20
-10.22663696920636
 30
0.0
 10
8.137936585765196
 20
-10.17748718806034
 30
0.0
 10
8.185992003741956
 20
-10.12955122018083
 30
0.0
 10
8.241699380661303
 20
-10.1478392446928
 30
0.0
 10
8.282229442494502
 20
-10.19172535357751
 30
0.0
 10
8.360834044095478
 20
-10.27683891258849
 30
0.0
 10
8.434535469538003
 20
-10.36648013098571
 30
0.0
 10
8.510268261908498
 20
-10.45424591132359
 30
0.0
 10
8.522694648401056
 20
-10.44520060633393
 30
0.0
 10
8.535121034894119
 20
-10.43615458607415
 30
0.0
 10
8.54754813665699
 20
-10.42710928108419
 30
0.0
 10
8.575430078283135
 20
-10.32314621057579
 30
0.0
 10
8.602955815427321
 20
-10.21908657861073
 30
0.0
 10
8.631327001763741
 20
-10.11525654833043
 30
0.0
 10
8.64902564375888
 20
-10.05048455413036
 30
0.0
 10
8.677671493793216
 20
-9.990395432915368
 30
0.0
 10
8.758903282270011
 20
-10.01495780626262
 30
0.0
 10
8.835352059955514
 20
-10.03807318830847
 30
0.0
 10
8.820817772640692
 20
-10.10600023867717
 30
0.0
 10
8.808136034741739
 20
-10.16278981917465
 30
0.0
 10
8.788627759532648
 20
-10.25014718031725
 30
0.0
 10
8.763809319509213
 20
-10.33637942167901
 30
0.0
 10
8.73931418154671
 20
-10.42254013603613
 30
0.0
 10
8.724033867574082
 20
-10.47628910357222
 30
0.0
 10
8.73691802689551
 20
-10.49545190334887
 30
0.0
 10
8.794274816538441
 20
-10.47873032023588
 30
0.0
 10
8.887740583865731
 20
-10.45148139259956
 30
0.0
 10
8.981936641909365
 20
-10.42670658404891
 30
0.0
 10
9.076026839985717
 20
-10.40164495221024
 30
0.0
 10
9.137238219902075
 20
-10.38534037153307
 30
0.0
 10
9.18826916126669
 20
-10.40072940655222
 30
0.0
 10
9.205846922623878
 20
-10.46513732829963
 30
0.0
 10
9.222704407045688
 20
-10.52690590358055
 30
0.0
 10
9.180156568415515
 20
-10.56043490221269
 30
0.0
 10
9.127793794227171
 20
-10.57604352513595
 30
0.0
 10
9.016384762549073
 20
-10.60925136751742
 30
0.0
 10
8.903767639765444
 20
-10.63840434401362
 30
0.0
 10
8.781555169327248
 20
-10.67199271005981
 30
0.0
 10
8.849345603117347
 20
-10.77146245414517
 30
0.0
 10
8.93562934392235
 20
-10.83767929383639
 30
0.0
 10
9.008920919629215
 20
-10.91549995946886
 30
0.0
 10
9.05424472130451
 20
-10.9636247586398
 30
0.0
 10
9.100650726557153
 20
-11.01684156526216
 30
0.0
 10
9.041208924733053
 20
-11.07598152312761
 30
0.0
 10
8.983955849246461
 20
-11.13294562951543
 30
0.0
 10
8.92529583758144
 20
-11.0962358249932
 30
0.0
 10
8.880278171486022
 20
-11.04623344195377
 30
0.0
 10
8.807938620208965
 20
-10.96588858833279
 30
0.0
 10
8.738191922845594
 20
-10.88320909328424
 30
0.0
 10
8.66735014704318
 20
-10.80151667089881
 30
0.0
 10
8.655559635620697
 20
-10.80983025463231
 30
0.0
 10
8.643769839468051
 20
-10.81814383836581
 30
0.0
 10
8.631979328045089
 20
-10.82645670682975
 30
0.0
 10
8.604146740052252
 20
-10.9303954581566
 30
0.0
 10
8.576805542579625
 20
-11.03446939552249
 30
0.0
 10
8.548289156423555
 20
-11.13822074609781
 30
0.0
 10
8.531972416155769
 20
-11.19758744456744
 30
0.0
 10
8.507369272416022
 20
-11.25691337264483
 30
0.0
 10
8.431840332008631
 20
-11.24155366369688
 30
0.0
 10
8.344795543875205
 20
-11.22385144535163
 30
0.0
 10
8.357513045276416
 20
-11.15203332593811
 30
0.0
 10
8.37139142996034
 20
-11.09088059816569
 30
0.0
 10
8.395182742199242
 20
-10.98605133563266
 30
0.0
 10
8.425147550196621
 20
-10.88262328711726
 30
0.0
 10
8.457582900930093
 20
-10.75936723768326
 30
0.0
  0
HATCH
  5
82
330
79
100
AcDbEntity
  8
Слой 1
 62
    18
420
        0
440
 33554687
100
AcDbHatch
 10
0.0
 20
0.0
 30
0.0
210
0.0
220
0.0
230
1.0
  2
SOLID
 70
     1
 71
     1
 91
        1
 92
        1
 93
        1
 72
     4
 94
        3
 73
     0
 74
     0
 95
       89
 96
       85
 40
0.0
 40
0.0
 40
0.0
 40
0.0
 40
1.0
 40
1.0
 40
1.0
 40
2.0
 40
2.0
 40
2.0
 40
3.0
 40
3.0
 40
3.0
 40
4.0
 40
4.0
 40
4.0
 40
5.0
 40
5.0
 40
5.0
 40
6.0
 40
6.0
 40
6.0
 40
7.0
 40
7.0
 40
7.0
 40
8.0
 40
8.0
 40
8.0
 40
9.0
 40
9.0
 40
9.0
 40
10.0
 40
10.0
 40
10.0
 40
11.0
 40
11.0
 40
11.0
 40
12.0
 40
12.0
 40
12.0
 40
13.0
 40
13.0
 40
13.0
 40
14.0
 40
14.0
 40
14.0
 40
15.0
 40
15.0
 40
15.0
 40
16.0
 40
16.0
 40
16.0
 40
17.0
 40
17.0
 40
17.0
 40
18.0
 40
18.0
 40
18.0
 40
19.0
 40
19.0
 40
19.0
 40
20.0
 40
20.0
 40
20.0
 40
21.0
 40
21.0
 40
21.0
 40
22.0
 40
22.0
 40
22.0
 40
23.0
 40
23.0
 40
23.0
 40
24.0
 40
24.0
 40
24.0
 40
25.0
 40
25.0
 40
25.0
 40
26.0
 40
26.0
 40
26.0
 40
27.0
 40
27.0
 40
27.0
 40
28.0
 40
28.0
 40
28.0
 40
28.0
 10
8.457582900930093
 20
-10.75936723768326
 10
8.334782478514954
 20
-10.79102151352744
 10
8.230069804998441
 20
-10.81558317160488
 10
8.126900684239798
 20
-10.84547001516754
 10
8.059230415816777
 20
-10.86507270602234
 10
7.9958138583527
 20
-10.86763122697334
 10
7.974660462039865
 20
-10.78909243021593
 10
7.954753066146344
 20
-10.71518000010991
 10
8.012459622841408
 20
-10.68775869239258
 10
8.073710342609652
 20
-10.67156640911263
 10
8.160312378584345
 20
-10.64867490659043
 10
8.24629999759097
 20
-10.62332144457405
 10
8.333324758162563
 20
-10.60221239500406
 10
8.397808498534434
 20
-10.5865694391189
 10
8.399015159100851
 20
-10.56282032781289
 10
8.353571907327754
 20
-10.51974247407947
 10
8.285631982098594
 20
-10.45534313557287
 10
8.220370027917699
 20
-10.38808271688607
 10
8.154854152870559
 20
-10.32117206525087
 10
8.112637484271292
 20
-10.27805773274526
 10
8.088666639252044
 20
-10.22663696920636
 10
8.137936585765196
 20
-10.17748718806034
 10
8.185992003741956
 20
-10.12955122018083
 10
8.241699380661303
 20
-10.1478392446928
 10
8.282229442494502
 20
-10.19172535357751
 10
8.360834044095478
 20
-10.27683891258849
 10
8.434535469538003
 20
-10.36648013098571
 10
8.510268261908498
 20
-10.45424591132359
 10
8.522694648401056
 20
-10.44520060633393
 10
8.535121034894119
 20
-10.43615458607415
 10
8.54754813665699
 20
-10.42710928108419
 10
8.575430078283135
 20
-10.32314621057579
 10
8.602955815427321
 20
-10.21908657861073
 10
8.631327001763741
 20
-10.11525654833043
 10
8.64902564375888
 20
-10.05048455413036
 10
8.677671493793216
 20
-9.990395432915368
 10
8.758903282270011
 20
-10.01495780626262
 10
8.835352059955514
 20
-10.03807318830847
 10
8.820817772640692
 20
-10.10600023867717
 10
8.808136034741739
 20
-10.16278981917465
 10
8.788627759532648
 20
-10.25014718031725
 10
8.763809319509213
 20
-10.33637942167901
 10
8.73931418154671
 20
-10.42254013603613
 10
8.724033867574082
 20
-10.47628910357222
 10
8.73691802689551
 20
-10.49545190334887
 10
8.794274816538441
 20
-10.47873032023588
 10
8.887740583865731
 20
-10.45148139259956
 10
8.981936641909365
 20
-10.42670658404891
 10
9.076026839985717
 20
-10.40164495221024
 10
9.137238219902075
 20
-10.38534037153307
 10
9.18826916126669
 20
-10.40072940655222
 10
9.205846922623878
 20
-10.46513732829963
 10
9.222704407045688
 20
-10.52690590358055
 10
9.180156568415515
 20
-10.56043490221269
 10
9.127793794227171
 20
-10.57604352513595
 10
9.016384762549073
 20
-10.60925136751742
 10
8.903767639765444
 20
-10.63840434401362
 10
8.781555169327248
 20
-10.67199271005981
 10
8.849345603117347
 20
-10.77146245414517
 10
8.93562934392235
 20
-10.83767929383639
 10
9.008920919629215
 20
-10.91549995946886
 10
9.05424472130451
 20
-10.9636247586398
 10
9.100650726557153
 20
-11.01684156526216
 10
9.041208924733053
 20
-11.07598152312761
 10
8.983955849246461
 20
-11.13294562951543
 10
8.92529583758144
 20
-11.0962358249932
 10
8.880278171486022
 20
-11.04623344195377
 10
8.807938620208965
 20
-10.96588858833279
 10
8.738191922845594
 20
-10.88320909328424
 10
8.66735014704318
 20
-10.80151667089881
 10
8.655559635620697
 20
-10.80983025463231
 10
8.643769839468051
 20
-10.81814383836581
 10
8.631979328045089
 20
-10.82645670682975
 10
8.604146740052252
 20
-10.9303954581566
 10
8.576805542579625
 20
-11.03446939552249
 10
8.548289156423555
 20
-11.13822074609781
 10
8.531972416155769
 20
-11.19758744456744
 10
8.507369272416022
 20
-11.25691337264483
 10
8.431840332008631
 20
-11.24155366369688
 10
8.344795543875205
 20
-11.22385144535163
 10
8.357513045276416
 20
-11.15203332593811
 10
8.37139142996034
 20
-11.09088059816569
 10
8.395182742199242
 20
-10.98605133563266
 10
8.425147550196621
 20
-10.88262328711726
 10
8.457582900930093
 20
-10.75936723768326
 97
        0
 97
        1
330
81
 75
     2
 76
     1
 98
        1
 10
0.0
 20
0.0
450
        0
451
        0
460
0.0
461
0.0
452
        0
462
0.0
453
        0
470

  0
SPLINE
  5
83
330
79
100
AcDbEntity
  8
Слой 1
100
AcDbSpline
210
0.0
220
0.0
230
1.0
 70
     9
 71
     3
 72
    80
 73
    76
 74
     0
 42
0.0000000001
 43
0.0000000001
 40
0.0
 40
0.0
 40
0.0
 40
0.0
 40
1.0
 40
1.0
 40
1.0
 40
2.0
 40
2.0
 40
2.0
 40
3.0
 40
3.0
 40
3.0
 40
4.0
 40
4.0
 40
4.0
 40
5.0
 40
5.0
 40
5.0
 40
6.0
 40
6.0
 40
6.0
 40
7.0
 40
7.0
 40
7.0
 40
8.0
 40
8.0
 40
8.0
 40
9.0
 40
9.0
 40
9.0
 40
10.0
 40
10.0
 40
10.0
 40
11.0
 40
11.0
 40
11.0
 40
12.0
 40
12.0
 40
12.0
 40
13.0
 40
13.0
 40
13.0
 40
14.0
 40
14.0
 40
14.0
 40
15.0
 40
15.0
 40
15.0
 40
16.0
 40
16.0
 40
16.0
 40
17.0
 40
17.0
 40
17.0
 40
18.0
 40
18.0
 40
18.0
 40
19.0
 40
19.0
 40
19.0
 40
20.0
 40
20.0
 40
20.0
 40
21.0
 40
21.0
 40
21.0
 40
22.0
 40
22.0
 40
22.0
 40
23.0
 40
23.0
 40
23.0
 40
24.0
 40
24.0
 40
24.0
 40
25.0
 40
25.0
 40
25.0
 40
25.0
 10
3.762604328073608
 20
-9.201506933742646
 30
0.0
 10
3.679404116432629
 20
-9.125324236513733
 30
0.0
 10
3.595513669198592
 20
-9.049876121621055
 30
0.0
 10
3.513278356848167
 20
-8.972665581337599
 30
0.0
 10
3.468443442249003
 20
-8.930569793375752
 30
0.0
 10
3.448625812745654
 20
-8.880049554823647
 30
0.0
 10
3.497472677027278
 20
-8.829636606777967
 30
0.0
 10
3.547736491268791
 20
-8.777763792570491
 30
0.0
 10
3.599700502407371
 20
-8.802581517323586
 30
0.0
 10
3.6404165344518
 20
-8.844450564681185
 30
0.0
 10
3.719116624604465
 20
-8.925378363388871
 30
0.0
 10
3.793680308086158
 20
-9.010328125559983
 30
0.0
 10
3.881942843470407
 20
-9.106695028189985
 30
0.0
 10
3.945466333807315
 20
-8.985732849790666
 30
0.0
 10
3.956227214000124
 20
-8.877774280810374
 30
0.0
 10
3.987357196900549
 20
-8.776708769253596
 30
0.0
 10
4.006267148717167
 20
-8.715317856556895
 30
0.0
 10
4.02606296248435
 20
-8.644396685779383
 30
0.0
 10
4.10755653979792
 20
-8.66284493078135
 30
0.0
 10
4.198904034886835
 20
-8.683525533594446
 30
0.0
 10
4.179230174662557
 20
-8.762102954934182
 30
0.0
 10
4.164426588174667
 20
-8.826430766436107
 30
0.0
 10
4.141118798486508
 20
-8.927711574275791
 30
0.0
 10
4.111981915566123
 20
-9.027651250781142
 30
0.0
 10
4.080250748192447
 20
-9.147236534344022
 30
0.0
 10
4.198589316066722
 20
-9.115924872851513
 30
0.0
 10
4.298498593594861
 20
-9.087952807199547
 30
0.0
 10
4.399237942010977
 20
-9.063385426962087
 30
0.0
 10
4.464411560341305
 20
-9.04749069602086
 30
0.0
 10
4.542649943679381
 20
-9.027789297899895
 30
0.0
 10
4.563835169508744
 20
-9.117427655216058
 30
0.0
 10
4.584683503147212
 20
-9.20564405568315
 30
0.0
 10
4.507281628126419
 20
-9.224158820798795
 30
0.0
 10
4.441932768635094
 20
-9.242160022023224
 30
0.0
 10
4.345178189640465
 20
-9.268813129711917
 30
0.0
 10
4.248346719115867
 20
-9.295185136273326
 30
0.0
 10
4.140837697358758
 20
-9.324607769576534
 30
0.0
 10
4.206216598191821
 20
-9.425116085767713
 30
0.0
 10
4.294899354727817
 20
-9.489561916827115
 30
0.0
 10
4.367448122493341
 20
-9.568312433518132
 30
0.0
 10
4.411675415189443
 20
-9.616321358942084
 30
0.0
 10
4.459569182136255
 20
-9.666627016481065
 30
0.0
 10
4.399301243409947
 20
-9.728600874264479
 30
0.0
 10
4.338192862380108
 20
-9.791436632452612
 30
0.0
 10
4.284573001088107
 20
-9.744911177101913
 30
0.0
 10
4.239807467683097
 20
-9.698707593271466
 30
0.0
 10
4.164842160070886
 20
-9.621333971417898
 30
0.0
 10
4.092893503873622
 20
-9.541037756159665
 30
0.0
 10
4.000853269746496
 20
-9.441644545968857
 30
0.0
 10
3.962661783324998
 20
-9.583954674132984
 30
0.0
 10
3.935436817235288
 20
-9.688164512807411
 30
0.0
 10
3.906576743822774
 20
-9.791920155003328
 30
0.0
 10
3.888766877335986
 20
-9.855948268356591
 30
0.0
 10
3.860507273125866
 20
-9.917768343080497
 30
0.0
 10
3.779186075893019
 20
-9.893577194886599
 30
0.0
 10
3.703116748966269
 20
-9.87094676593084
 30
0.0
 10
3.716619974511811
 20
-9.802674240130423
 30
0.0
 10
3.729630736631709
 20
-9.745793105067503
 30
0.0
 10
3.753662021970714
 20
-9.640733525579914
 30
0.0
 10
3.783272056025225
 20
-9.536949987852166
 30
0.0
 10
3.81588193264934
 20
-9.412281995349479
 30
0.0
 10
3.696281270781178
 20
-9.443816821095373
 30
0.0
 10
3.596386656288005
 20
-9.471891885634148
 30
0.0
 10
3.495566839992824
 20
-9.496116651519843
 30
0.0
 10
3.430535560401406
 20
-9.511742440924484
 30
0.0
 10
3.353817841178523
 20
-9.531217813711009
 30
0.0
 10
3.332414100350547
 20
-9.440028750937118
 30
0.0
 10
3.313142937161273
 20
-9.357924333005003
 30
0.0
 10
3.384079128609452
 20
-9.336310302783632
 30
0.0
 10
3.445172488968119
 20
-9.318804783701326
 30
0.0
 10
3.545302784940468
 20
-9.290115302193978
 30
0.0
 10
3.646269589230617
 20
-9.264346983550895
 30
0.0
 10
3.746883407753721
 20
-9.237346969890115
 30
0.0
 10
3.752123833738234
 20
-9.225400529597486
 30
0.0
 10
3.757363902088614
 20
-9.213453374034491
 30
0.0
 10
3.762604328073608
 20
-9.201506933742646
 30
0.0
  0
HATCH
  5
84
330
79
100
AcDbEntity
  8
Слой 1
 62
    18
420
        0
440
 33554687
100
AcDbHatch
 10
0.0
 20
0.0
 30
0.0
210
0.0
220
0.0
230
1.0
  2
SOLID
 70
     1
 71
     1
 91
        1
 92
        1
 93
        1
 72
     4
 94
        3
 73
     0
 74
     0
 95
       80
 96
       76
 40
0.0
 40
0.0
 40
0.0
 40
0.0
 40
1.0
 40
1.0
 40
1.0
 40
2.0
 40
2.0
 40
2.0
 40
3.0
 40
3.0
 40
3.0
 40
4.0
 40
4.0
 40
4.0
 40
5.0
 40
5.0
 40
5.0
 40
6.0
 40
6.0
 40
6.0
 40
7.0
 40
7.0
 40
7.0
 40
8.0
 40
8.0
 40
8.0
 40
9.0
 40
9.0
 40
9.0
 40
10.0
 40
10.0
 40
10.0
 40
11.0
 40
11.0
 40
11.0
 40
12.0
 40
12.0
 40
12.0
 40
13.0
 40
13.0
 40
13.0
 40
14.0
 40
14.0
 40
14.0
 40
15.0
 40
15.0
 40
15.0
 40
16.0
 40
16.0
 40
16.0
 40
17.0
 40
17.0
 40
17.0
 40
18.0
 40
18.0
 40
18.0
 40
19.0
 40
19.0
 40
19.0
 40
20.0
 40
20.0
 40
20.0
 40
21.0
 40
21.0
 40
21.0
 40
22.0
 40
22.0
 40
22.0
 40
23.0
 40
23.0
 40
23.0
 40
24.0
 40
24.0
 40
24.0
 40
25.0
 40
25.0
 40
25.0
 40
25.0
 10
3.762604328073608
 20
-9.201506933742646
 10
3.679404116432629
 20
-9.125324236513733
 10
3.595513669198592
 20
-9.049876121621055
 10
3.513278356848167
 20
-8.972665581337599
 10
3.468443442249003
 20
-8.930569793375752
 10
3.448625812745654
 20
-8.880049554823647
 10
3.497472677027278
 20
-8.829636606777967
 10
3.547736491268791
 20
-8.777763792570491
 10
3.599700502407371
 20
-8.802581517323586
 10
3.6404165344518
 20
-8.844450564681185
 10
3.719116624604465
 20
-8.925378363388871
 10
3.793680308086158
 20
-9.010328125559983
 10
3.881942843470407
 20
-9.106695028189985
 10
3.945466333807315
 20
-8.985732849790666
 10
3.956227214000124
 20
-8.877774280810374
 10
3.987357196900549
 20
-8.776708769253596
 10
4.006267148717167
 20
-8.715317856556895
 10
4.02606296248435
 20
-8.644396685779383
 10
4.10755653979792
 20
-8.66284493078135
 10
4.198904034886835
 20
-8.683525533594446
 10
4.179230174662557
 20
-8.762102954934182
 10
4.164426588174667
 20
-8.826430766436107
 10
4.141118798486508
 20
-8.927711574275791
 10
4.111981915566123
 20
-9.027651250781142
 10
4.080250748192447
 20
-9.147236534344022
 10
4.198589316066722
 20
-9.115924872851513
 10
4.298498593594861
 20
-9.087952807199547
 10
4.399237942010977
 20
-9.063385426962087
 10
4.464411560341305
 20
-9.04749069602086
 10
4.542649943679381
 20
-9.027789297899895
 10
4.563835169508744
 20
-9.117427655216058
 10
4.584683503147212
 20
-9.20564405568315
 10
4.507281628126419
 20
-9.224158820798795
 10
4.441932768635094
 20
-9.242160022023224
 10
4.345178189640465
 20
-9.268813129711917
 10
4.248346719115867
 20
-9.295185136273326
 10
4.140837697358758
 20
-9.324607769576534
 10
4.206216598191821
 20
-9.425116085767713
 10
4.294899354727817
 20
-9.489561916827115
 10
4.367448122493341
 20
-9.568312433518132
 10
4.411675415189443
 20
-9.616321358942084
 10
4.459569182136255
 20
-9.666627016481065
 10
4.399301243409947
 20
-9.728600874264479
 10
4.338192862380108
 20
-9.791436632452612
 10
4.284573001088107
 20
-9.744911177101913
 10
4.239807467683097
 20
-9.698707593271466
 10
4.164842160070886
 20
-9.621333971417898
 10
4.092893503873622
 20
-9.541037756159665
 10
4.000853269746496
 20
-9.441644545968857
 10
3.962661783324998
 20
-9.583954674132984
 10
3.935436817235288
 20
-9.688164512807411
 10
3.906576743822774
 20
-9.791920155003328
 10
3.888766877335986
 20
-9.855948268356591
 10
3.860507273125866
 20
-9.917768343080497
 10
3.779186075893019
 20
-9.893577194886599
 10
3.703116748966269
 20
-9.87094676593084
 10
3.716619974511811
 20
-9.802674240130423
 10
3.729630736631709
 20
-9.745793105067503
 10
3.753662021970714
 20
-9.640733525579914
 10
3.783272056025225
 20
-9.536949987852166
 10
3.81588193264934
 20
-9.412281995349479
 10
3.696281270781178
 20
-9.443816821095373
 10
3.596386656288005
 20
-9.471891885634148
 10
3.495566839992824
 20
-9.496116651519843
 10
3.430535560401406
 20
-9.511742440924484
 10
3.353817841178523
 20
-9.531217813711009
 10
3.332414100350547
 20
-9.440028750937118
 10
3.313142937161273
 20
-9.357924333005003
 10
3.384079128609452
 20
-9.336310302783632
 10
3.445172488968119
 20
-9.318804783701326
 10
3.545302784940468
 20
-9.290115302193978
 10
3.646269589230617
 20
-9.264346983550895
 10
3.746883407753721
 20
-9.237346969890115
 10
3.752123833738234
 20
-9.225400529597486
 10
3.757363902088614
 20
-9.213453374034491
 10
3.762604328073608
 20
-9.201506933742646
 97
        0
 97
        1
330
83
 75
     2
 76
     1
 98
        1
 10
0.0
 20
0.0
450
        0
451
        0
460
0.0
461
0.0
452
        0
462
0.0
453
        0
470

  0
SPLINE
  5
85
330
79
100
AcDbEntity
  8
Слой 1
100
AcDbSpline
210
0.0
220
0.0
230
1.0
 70
     9
 71
     3
 72
    83
 73
    79
 74
     0
 42
0.0000000001
 43
0.0000000001
 40
0.0
 40
0.0
 40
0.0
 40
0.0
 40
1.0
 40
1.0
 40
1.0
 40
2.0
 40
2.0
 40
2.0
 40
3.0
 40
3.0
 40
3.0
 40
4.0
 40
4.0
 40
4.0
 40
5.0
 40
5.0
 40
5.0
 40
6.0
 40
6.0
 40
6.0
 40
7.0
 40
7.0
 40
7.0
 40
8.0
 40
8.0
 40
8.0
 40
9.0
 40
9.0
 40
9.0
 40
10.0
 40
10.0
 40
10.0
 40
11.0
 40
11.0
 40
11.0
 40
12.0
 40
12.0
 40
12.0
 40
13.0
 40
13.0
 40
13.0
 40
14.0
 40
14.0
 40
14.0
 40
15.0
 40
15.0
 40
15.0
 40
16.0
 40
16.0
 40
16.0
 40
17.0
 40
17.0
 40
17.0
 40
18.0
 40
18.0
 40
18.0
 40
19.0
 40
19.0
 40
19.0
 40
20.0
 40
20.0
 40
20.0
 40
21.0
 40
21.0
 40
21.0
 40
22.0
 40
22.0
 40
22.0
 40
23.0
 40
23.0
 40
23.0
 40
24.0
 40
24.0
 40
24.0
 40
25.0
 40
25.0
 40
25.0
 40
26.0
 40
26.0
 40
26.0
 40
26.0
 10
2.701756210004759
 20
-11.44679110461505
 30
0.0
 10
2.6643719058296
 20
-11.57997653281462
 30
0.0
 10
2.632523612986397
 20
-11.6866919624564
 30
0.0
 10
2.604868769599154
 20
-11.79448387351633
 30
0.0
 10
2.588180267725811
 20
-11.85953053141378
 30
0.0
 10
2.555960570910631
 20
-11.90823040770169
 30
0.0
 10
2.484223455829666
 20
-11.88910623250717
 30
0.0
 10
2.410928661407372
 20
-11.86956720068595
 30
0.0
 10
2.411347094384344
 20
-11.80952314148387
 30
0.0
 10
2.429448433414512
 20
-11.74643489296987
 30
0.0
 10
2.45310241380418
 20
-11.66399644392691
 30
0.0
 10
2.469634092720487
 20
-11.57935138679502
 30
0.0
 10
2.496398067266416
 20
-11.49801373835139
 30
0.0
 10
2.52311626452965
 20
-11.41681628283676
 30
0.0
 10
2.49100135477632
 20
-11.41033092933816
 30
0.0
 10
2.425039151221893
 20
-11.42942935481159
 30
0.0
 10
2.346412555065929
 20
-11.45219282399562
 30
0.0
 10
2.266753645418412
 20
-11.47137493606353
 30
0.0
 10
2.187999731195191
 20
-11.49372140281101
 30
0.0
 10
2.122940734889273
 20
-11.51218252267391
 30
0.0
 10
2.056416150261472
 20
-11.52042672521351
 30
0.0
 10
2.035792411417294
 20
-11.43873930971755
 30
0.0
 10
2.015043142680648
 20
-11.35655406627102
 30
0.0
 10
2.08236561104363
 20
-11.33293441884297
 30
0.0
 10
2.144402233774005
 20
-11.31546537853258
 30
0.0
 10
2.245599355018473
 20
-11.28696973520765
 30
0.0
 10
2.347456670514235
 20
-11.26081731655027
 30
0.0
 10
2.470848621257371
 20
-11.22784837436347
 30
0.0
 10
2.384953808539029
 20
-11.14166334082486
 30
0.0
 10
2.310297318768523
 20
-11.06504790521866
 30
0.0
 10
2.233654524083514
 20
-10.99047385032109
 30
0.0
 10
2.185217509537071
 20
-10.94334256124208
 30
0.0
 10
2.143755629653191
 20
-10.88826462196276
 30
0.0
 10
2.197488503612665
 20
-10.8291947605621
 30
0.0
 10
2.260786683884993
 20
-10.7596082836891
 30
0.0
 10
2.318077311048657
 20
-10.81305469199489
 30
0.0
 10
2.364779438100741
 20
-10.86267225975075
 30
0.0
 10
2.436337378035495
 20
-10.93869759756929
 30
0.0
 10
2.504674456957988
 20
-11.0177542498396
 30
0.0
 10
2.594143474090792
 20
-11.11757733732765
 30
0.0
 10
2.634447152954963
 20
-10.97384954393416
 30
0.0
 10
2.665435333568919
 20
-10.87019475481454
 30
0.0
 10
2.6921912613271
 20
-10.76545919265744
 30
0.0
 10
2.709321621271543
 20
-10.69840334120302
 30
0.0
 10
2.738437761360235
 20
-10.63721413465901
 30
0.0
 10
2.816273984115809
 20
-10.66017287256515
 30
0.0
 10
2.892407327711364
 20
-10.68262877562971
 30
0.0
 10
2.886826969637834
 20
-10.74981766731189
 30
0.0
 10
2.867381280557411
 20
-10.81642933606791
 30
0.0
 10
2.837970091574763
 20
-10.91717798299434
 30
0.0
 10
2.813683633647769
 20
-11.01942297485427
 30
0.0
 10
2.784359171158206
 20
-11.13201363264668
 30
0.0
 10
2.900894722066191
 20
-11.12608762032363
 30
0.0
 10
3.000305277555639
 20
-11.08278159544607
 30
0.0
 10
3.10359456368192
 20
-11.05897740834621
 30
0.0
 10
3.171316331547675
 20
-11.04337021596309
 30
0.0
 10
3.24611104725448
 20
-11.0266150151575
 30
0.0
 10
3.265310325803498
 20
-11.11686993525293
 30
0.0
 10
3.282174247656143
 20
-11.19614903650659
 30
0.0
 10
3.214824062578157
 20
-11.21944395133404
 30
0.0
 10
3.15077878274408
 20
-11.2358601141383
 30
0.0
 10
3.067695517755332
 20
-11.25715584919003
 30
0.0
 10
2.985768129160053
 20
-11.28319811626041
 30
0.0
 10
2.902263212479889
 20
-11.30252971976766
 30
0.0
 10
2.84354884029133
 20
-11.3161219964341
 30
0.0
 10
2.838789791046628
 20
-11.33700287485971
 30
0.0
 10
2.880466788396827
 20
-11.37768028232178
 30
0.0
 10
2.947546780214615
 20
-11.44315109535604
 30
0.0
 10
3.013164760060135
 20
-11.5101211144042
 30
0.0
 10
3.079403057853116
 20
-11.5764545431125
 30
0.0
 10
3.125746834612287
 20
-11.62286483998605
 30
0.0
 10
3.150791657604763
 20
-11.6768062151637
 30
0.0
 10
3.096657159514772
 20
-11.72888717295445
 30
0.0
 10
3.046300360168161
 20
-11.77733312837641
 30
0.0
 10
2.993749112322511
 20
-11.74877525655716
 30
0.0
 10
2.952534358238861
 20
-11.7074526755144
 30
0.0
 10
2.873031913913261
 20
-11.62774012061317
 30
0.0
 10
2.796226216475512
 20
-11.54533815034256
 30
0.0
 10
2.701756210004759
 20
-11.44679110461505
 30
0.0
  0
HATCH
  5
86
330
79
100
AcDbEntity
  8
Слой 1
 62
    18
420
        0
440
 33554687
100
AcDbHatch
 10
0.0
 20
0.0
 30
0.0
210
0.0
220
0.0
230
1.0
  2
SOLID
 70
     1
 71
     1
 91
        1
 92
        1
 93
        1
 72
     4
 94
        3
 73
     0
 74
     0
 95
       83
 96
       79
 40
0.0
 40
0.0
 40
0.0
 40
0.0
 40
1.0
 40
1.0
 40
1.0
 40
2.0
 40
2.0
 40
2.0
 40
3.0
 40
3.0
 40
3.0
 40
4.0
 40
4.0
 40
4.0
 40
5.0
 40
5.0
 40
5.0
 40
6.0
 40
6.0
 40
6.0
 40
7.0
 40
7.0
 40
7.0
 40
8.0
 40
8.0
 40
8.0
 40
9.0
 40
9.0
 40
9.0
 40
10.0
 40
10.0
 40
10.0
 40
11.0
 40
11.0
 40
11.0
 40
12.0
 40
12.0
 40
12.0
 40
13.0
 40
13.0
 40
13.0
 40
14.0
 40
14.0
 40
14.0
 40
15.0
 40
15.0
 40
15.0
 40
16.0
 40
16.0
 40
16.0
 40
17.0
 40
17.0
 40
17.0
 40
18.0
 40
18.0
 40
18.0
 40
19.0
 40
19.0
 40
19.0
 40
20.0
 40
20.0
 40
20.0
 40
21.0
 40
21.0
 40
21.0
 40
22.0
 40
22.0
 40
22.0
 40
23.0
 40
23.0
 40
23.0
 40
24.0
 40
24.0
 40
24.0
 40
25.0
 40
25.0
 40
25.0
 40
26.0
 40
26.0
 40
26.0
 40
26.0
 10
2.701756210004759
 20
-11.44679110461505
 10
2.6643719058296
 20
-11.57997653281462
 10
2.632523612986397
 20
-11.6866919624564
 10
2.604868769599154
 20
-11.79448387351633
 10
2.588180267725811
 20
-11.85953053141378
 10
2.555960570910631
 20
-11.90823040770169
 10
2.484223455829666
 20
-11.88910623250717
 10
2.410928661407372
 20
-11.86956720068595
 10
2.411347094384344
 20
-11.80952314148387
 10
2.429448433414512
 20
-11.74643489296987
 10
2.45310241380418
 20
-11.66399644392691
 10
2.469634092720487
 20
-11.57935138679502
 10
2.496398067266416
 20
-11.49801373835139
 10
2.52311626452965
 20
-11.41681628283676
 10
2.49100135477632
 20
-11.41033092933816
 10
2.425039151221893
 20
-11.42942935481159
 10
2.346412555065929
 20
-11.45219282399562
 10
2.266753645418412
 20
-11.47137493606353
 10
2.187999731195191
 20
-11.49372140281101
 10
2.122940734889273
 20
-11.51218252267391
 10
2.056416150261472
 20
-11.52042672521351
 10
2.035792411417294
 20
-11.43873930971755
 10
2.015043142680648
 20
-11.35655406627102
 10
2.08236561104363
 20
-11.33293441884297
 10
2.144402233774005
 20
-11.31546537853258
 10
2.245599355018473
 20
-11.28696973520765
 10
2.347456670514235
 20
-11.26081731655027
 10
2.470848621257371
 20
-11.22784837436347
 10
2.384953808539029
 20
-11.14166334082486
 10
2.310297318768523
 20
-11.06504790521866
 10
2.233654524083514
 20
-10.99047385032109
 10
2.185217509537071
 20
-10.94334256124208
 10
2.143755629653191
 20
-10.88826462196276
 10
2.197488503612665
 20
-10.8291947605621
 10
2.260786683884993
 20
-10.7596082836891
 10
2.318077311048657
 20
-10.81305469199489
 10
2.364779438100741
 20
-10.86267225975075
 10
2.436337378035495
 20
-10.93869759756929
 10
2.504674456957988
 20
-11.0177542498396
 10
2.594143474090792
 20
-11.11757733732765
 10
2.634447152954963
 20
-10.97384954393416
 10
2.665435333568919
 20
-10.87019475481454
 10
2.6921912613271
 20
-10.76545919265744
 10
2.709321621271543
 20
-10.69840334120302
 10
2.738437761360235
 20
-10.63721413465901
 10
2.816273984115809
 20
-10.66017287256515
 10
2.892407327711364
 20
-10.68262877562971
 10
2.886826969637834
 20
-10.74981766731189
 10
2.867381280557411
 20
-10.81642933606791
 10
2.837970091574763
 20
-10.91717798299434
 10
2.813683633647769
 20
-11.01942297485427
 10
2.784359171158206
 20
-11.13201363264668
 10
2.900894722066191
 20
-11.12608762032363
 10
3.000305277555639
 20
-11.08278159544607
 10
3.10359456368192
 20
-11.05897740834621
 10
3.171316331547675
 20
-11.04337021596309
 10
3.24611104725448
 20
-11.0266150151575
 10
3.265310325803498
 20
-11.11686993525293
 10
3.282174247656143
 20
-11.19614903650659
 10
3.214824062578157
 20
-11.21944395133404
 10
3.15077878274408
 20
-11.2358601141383
 10
3.067695517755332
 20
-11.25715584919003
 10
2.985768129160053
 20
-11.28319811626041
 10
2.902263212479889
 20
-11.30252971976766
 10
2.84354884029133
 20
-11.3161219964341
 10
2.838789791046628
 20
-11.33700287485971
 10
2.880466788396827
 20
-11.37768028232178
 10
2.947546780214615
 20
-11.44315109535604
 10
3.013164760060135
 20
-11.5101211144042
 10
3.079403057853116
 20
-11.5764545431125
 10
3.125746834612287
 20
-11.62286483998605
 10
3.150791657604763
 20
-11.6768062151637
 10
3.096657159514772
 20
-11.72888717295445
 10
3.046300360168161
 20
-11.77733312837641
 10
2.993749112322511
 20
-11.74877525655716
 10
2.952534358238861
 20
-11.7074526755144
 10
2.873031913913261
 20
-11.62774012061317
 10
2.796226216475512
 20
-11.54533815034256
 10
2.701756210004759
 20
-11.44679110461505
 97
        0
 97
        1
330
85
 75
     2
 76
     1
 98
        1
 10
0.0
 20
0.0
450
        0
451
        0
460
0.0
461
0.0
452
        0
462
0.0
453
        0
470

  0
SPLINE
  5
87
330
79
100
AcDbEntity
  8
Слой 1
100
AcDbSpline
210
0.0
220
0.0
230
1.0
 70
     9
 71
     3
 72
    83
 73
    79
 74
     0
 42
0.0000000001
 43
0.0000000001
 40
0.0
 40
0.0
 40
0.0
 40
0.0
 40
1.0
 40
1.0
 40
1.0
 40
2.0
 40
2.0
 40
2.0
 40
3.0
 40
3.0
 40
3.0
 40
4.0
 40
4.0
 40
4.0
 40
5.0
 40
5.0
 40
5.0
 40
6.0
 40
6.0
 40
6.0
 40
7.0
 40
7.0
 40
7.0
 40
8.0
 40
8.0
 40
8.0
 40
9.0
 40
9.0
 40
9.0
 40
10.0
 40
10.0
 40
10.0
 40
11.0
 40
11.0
 40
11.0
 40
12.0
 40
12.0
 40
12.0
 40
13.0
 40
13.0
 40
13.0
 40
14.0
 40
14.0
 40
14.0
 40
15.0
 40
15.0
 40
15.0
 40
16.0
 40
16.0
 40
16.0
 40
17.0
 40
17.0
 40
17.0
 40
18.0
 40
18.0
 40
18.0
 40
19.0
 40
19.0
 40
19.0
 40
20.0
 40
20.0
 40
20.0
 40
21.0
 40
21.0
 40
21.0
 40
22.0
 40
22.0
 40
22.0
 40
23.0
 40
23.0
 40
23.0
 40
24.0
 40
24.0
 40
24.0
 40
25.0
 40
25.0
 40
25.0
 40
26.0
 40
26.0
 40
26.0
 40
26.0
 10
5.423799337788864
 20
-10.86579870511776
 30
0.0
 10
5.327538295124869
 20
-10.77672326532671
 30
0.0
 10
5.250804482326366
 20
-10.70659675956944
 30
0.0
 10
5.175109956903307
 20
-10.63536444632235
 30
0.0
 10
5.124741355600463
 20
-10.58796421570673
 30
0.0
 10
5.071886833256775
 20
-10.53280402037201
 30
0.0
 10
5.139280649806563
 20
-10.4678410490698
 30
0.0
 10
5.207245967122958
 20
-10.40232660456331
 30
0.0
 10
5.259469263652122
 20
-10.46369391334881
 30
0.0
 10
5.307105533383137
 20
-10.50982167855449
 30
0.0
 10
5.368811164899966
 20
-10.56957247703793
 30
0.0
 10
5.429157425696391
 20
-10.63073521859077
 30
0.0
 10
5.489690371974309
 20
-10.69168552493998
 30
0.0
 10
5.524772221874185
 20
-10.72700842084512
 30
0.0
 10
5.54563915253387
 20
-10.72614508990071
 30
0.0
 10
5.558434618369548
 20
-10.67244833707819
 30
0.0
 10
5.580111592355314
 20
-10.58147743166821
 30
0.0
 10
5.60553372029661
 20
-10.49137343355222
 30
0.0
 10
5.630655792453745
 20
-10.40125942165607
 30
0.0
 10
5.647508985255677
 20
-10.34080837379833
 30
0.0
 10
5.676571122456013
 20
-10.28446726761909
 30
0.0
 10
5.750669522773528
 20
-10.30252497517649
 30
0.0
 10
5.827078960607157
 20
-10.32114703079956
 30
0.0
 10
5.821742330800613
 20
-10.3880555366243
 30
0.0
 10
5.80810070050135
 20
-10.44654817509856
 30
0.0
 10
5.78337023869383
 20
-10.55258910508819
 30
0.0
 10
5.753027768111993
 20
-10.65732109089574
 30
0.0
 10
5.722150633172329
 20
-10.7734180024486
 30
0.0
 10
5.820319301046045
 20
-10.77556023623335
 30
0.0
 10
5.901139451611912
 20
-10.73251170857181
 30
0.0
 10
5.986957909252749
 20
-10.71739376089946
 30
0.0
 10
6.021405314622648
 20
-10.71132469456739
 30
0.0
 10
6.05463819145565
 20
-10.69810078197459
 30
0.0
 10
6.089137811539128
 20
-10.69264899369086
 30
0.0
 10
6.139224596443859
 20
-10.68473310010239
 30
0.0
 10
6.185299431666635
 20
-10.69494000364534
 30
0.0
 10
6.202571057444502
 20
-10.74957519076644
 30
0.0
 10
6.222155866547912
 20
-10.81152401409877
 30
0.0
 10
6.185187134269502
 20
-10.84812080595407
 30
0.0
 10
6.13239162170387
 20
-10.86450263579586
 30
0.0
 10
6.018100767014376
 20
-10.8999607177395
 30
0.0
 10
5.902187322228112
 20
-10.93018731457361
 30
0.0
 10
5.740176511212616
 20
-10.97568635740989
 30
0.0
 10
5.843334545285907
 20
-11.06586188252971
 30
0.0
 10
5.925705758944382
 20
-11.13570514134926
 30
0.0
 10
6.00547410490929
 20
-11.20840304291869
 30
0.0
 10
6.05373480538934
 20
-11.25238714379924
 30
0.0
 10
6.098413433483377
 20
-11.3059258219419
 30
0.0
 10
6.038340048209597
 20
-11.36785604825276
 30
0.0
 10
5.977640801646126
 20
-11.43042787179423
 30
0.0
 10
5.923229136413598
 20
-11.38540662934843
 30
0.0
 10
5.878790481419096
 20
-11.33840766522821
 30
0.0
 10
5.804662039759805
 20
-11.2600112072097
 30
0.0
 10
5.733972258842072
 20
-11.1783645621065
 30
0.0
 10
5.641745696867524
 20
-11.07573117861142
 30
0.0
 10
5.601879405636231
 20
-11.22339081144277
 30
0.0
 10
5.57471166115028
 20
-11.32776158587712
 30
0.0
 10
5.545317996283389
 20
-11.4315014921321
 30
0.0
 10
5.527339683701129
 20
-11.4949523825589
 30
0.0
 10
5.49914838778021
 20
-11.55803133256229
 30
0.0
 10
5.417898002282678
 20
-11.53286455602716
 30
0.0
 10
5.343876135859519
 20
-11.50993729000268
 30
0.0
 10
5.354622710651508
 20
-11.44301805512744
 30
0.0
 10
5.368468192913344
 20
-11.38480937886096
 30
0.0
 10
5.39341609681503
 20
-11.27992647107423
 30
0.0
 10
5.421839497865536
 20
-11.17587041545948
 30
0.0
 10
5.453934380057476
 20
-11.05163659187398
 30
0.0
 10
5.334100897788908
 20
-11.08334308243098
 30
0.0
 10
5.234275664490395
 20
-11.11179580955346
 30
0.0
 10
5.133370373424427
 20
-11.13568725959837
 30
0.0
 10
5.073072035721174
 20
-11.14996404969788
 30
0.0
 10
5.000289374651288
 20
-11.17074622085682
 30
0.0
 10
4.974992061333182
 20
-11.0884157775906
 30
0.0
 10
4.947381922323668
 20
-10.99855568656019
 30
0.0
 10
5.020949592268102
 20
-10.97639805110467
 30
0.0
 10
5.086405384631183
 20
-10.95770876009765
 30
0.0
 10
5.186112956006657
 20
-10.92924029703396
 30
0.0
 10
5.286472138393693
 20
-10.90305712176475
 30
0.0
 10
5.423799337788864
 20
-10.86579870511776
 30
0.0
  0
HATCH
  5
88
330
79
100
AcDbEntity
  8
Слой 1
 62
    18
420
        0
440
 33554687
100
AcDbHatch
 10
0.0
 20
0.0
 30
0.0
210
0.0
220
0.0
230
1.0
  2
SOLID
 70
     1
 71
     1
 91
        1
 92
        1
 93
        1
 72
     4
 94
        3
 73
     0
 74
     0
 95
       83
 96
       79
 40
0.0
 40
0.0
 40
0.0
 40
0.0
 40
1.0
 40
1.0
 40
1.0
 40
2.0
 40
2.0
 40
2.0
 40
3.0
 40
3.0
 40
3.0
 40
4.0
 40
4.0
 40
4.0
 40
5.0
 40
5.0
 40
5.0
 40
6.0
 40
6.0
 40
6.0
 40
7.0
 40
7.0
 40
7.0
 40
8.0
 40
8.0
 40
8.0
 40
9.0
 40
9.0
 40
9.0
 40
10.0
 40
10.0
 40
10.0
 40
11.0
 40
11.0
 40
11.0
 40
12.0
 40
12.0
 40
12.0
 40
13.0
 40
13.0
 40
13.0
 40
14.0
 40
14.0
 40
14.0
 40
15.0
 40
15.0
 40
15.0
 40
16.0
 40
16.0
 40
16.0
 40
17.0
 40
17.0
 40
17.0
 40
18.0
 40
18.0
 40
18.0
 40
19.0
 40
19.0
 40
19.0
 40
20.0
 40
20.0
 40
20.0
 40
21.0
 40
21.0
 40
21.0
 40
22.0
 40
22.0
 40
22.0
 40
23.0
 40
23.0
 40
23.0
 40
24.0
 40
24.0
 40
24.0
 40
25.0
 40
25.0
 40
25.0
 40
26.0
 40
26.0
 40
26.0
 40
26.0
 10
5.423799337788864
 20
-10.86579870511776
 10
5.327538295124869
 20
-10.77672326532671
 10
5.250804482326366
 20
-10.70659675956944
 10
5.175109956903307
 20
-10.63536444632235
 10
5.124741355600463
 20
-10.58796421570673
 10
5.071886833256775
 20
-10.53280402037201
 10
5.139280649806563
 20
-10.4678410490698
 10
5.207245967122958
 20
-10.40232660456331
 10
5.259469263652122
 20
-10.46369391334881
 10
5.307105533383137
 20
-10.50982167855449
 10
5.368811164899966
 20
-10.56957247703793
 10
5.429157425696391
 20
-10.63073521859077
 10
5.489690371974309
 20
-10.69168552493998
 10
5.524772221874185
 20
-10.72700842084512
 10
5.54563915253387
 20
-10.72614508990071
 10
5.558434618369548
 20
-10.67244833707819
 10
5.580111592355314
 20
-10.58147743166821
 10
5.60553372029661
 20
-10.49137343355222
 10
5.630655792453745
 20
-10.40125942165607
 10
5.647508985255677
 20
-10.34080837379833
 10
5.676571122456013
 20
-10.28446726761909
 10
5.750669522773528
 20
-10.30252497517649
 10
5.827078960607157
 20
-10.32114703079956
 10
5.821742330800613
 20
-10.3880555366243
 10
5.80810070050135
 20
-10.44654817509856
 10
5.78337023869383
 20
-10.55258910508819
 10
5.753027768111993
 20
-10.65732109089574
 10
5.722150633172329
 20
-10.7734180024486
 10
5.820319301046045
 20
-10.77556023623335
 10
5.901139451611912
 20
-10.73251170857181
 10
5.986957909252749
 20
-10.71739376089946
 10
6.021405314622648
 20
-10.71132469456739
 10
6.05463819145565
 20
-10.69810078197459
 10
6.089137811539128
 20
-10.69264899369086
 10
6.139224596443859
 20
-10.68473310010239
 10
6.185299431666635
 20
-10.69494000364534
 10
6.202571057444502
 20
-10.74957519076644
 10
6.222155866547912
 20
-10.81152401409877
 10
6.185187134269502
 20
-10.84812080595407
 10
6.13239162170387
 20
-10.86450263579586
 10
6.018100767014376
 20
-10.8999607177395
 10
5.902187322228112
 20
-10.93018731457361
 10
5.740176511212616
 20
-10.97568635740989
 10
5.843334545285907
 20
-11.06586188252971
 10
5.925705758944382
 20
-11.13570514134926
 10
6.00547410490929
 20
-11.20840304291869
 10
6.05373480538934
 20
-11.25238714379924
 10
6.098413433483377
 20
-11.3059258219419
 10
6.038340048209597
 20
-11.36785604825276
 10
5.977640801646126
 20
-11.43042787179423
 10
5.923229136413598
 20
-11.38540662934843
 10
5.878790481419096
 20
-11.33840766522821
 10
5.804662039759805
 20
-11.2600112072097
 10
5.733972258842072
 20
-11.1783645621065
 10
5.641745696867524
 20
-11.07573117861142
 10
5.601879405636231
 20
-11.22339081144277
 10
5.57471166115028
 20
-11.32776158587712
 10
5.545317996283389
 20
-11.4315014921321
 10
5.527339683701129
 20
-11.4949523825589
 10
5.49914838778021
 20
-11.55803133256229
 10
5.417898002282678
 20
-11.53286455602716
 10
5.343876135859519
 20
-11.50993729000268
 10
5.354622710651508
 20
-11.44301805512744
 10
5.368468192913344
 20
-11.38480937886096
 10
5.39341609681503
 20
-11.27992647107423
 10
5.421839497865536
 20
-11.17587041545948
 10
5.453934380057476
 20
-11.05163659187398
 10
5.334100897788908
 20
-11.08334308243098
 10
5.234275664490395
 20
-11.11179580955346
 10
5.133370373424427
 20
-11.13568725959837
 10
5.073072035721174
 20
-11.14996404969788
 10
5.000289374651288
 20
-11.17074622085682
 10
4.974992061333182
 20
-11.0884157775906
 10
4.947381922323668
 20
-10.99855568656019
 10
5.020949592268102
 20
-10.97639805110467
 10
5.086405384631183
 20
-10.95770876009765
 10
5.186112956006657
 20
-10.92924029703396
 10
5.286472138393693
 20
-10.90305712176475
 10
5.423799337788864
 20
-10.86579870511776
 97
        0
 97
        1
330
87
 75
     2
 76
     1
 98
        1
 10
0.0
 20
0.0
450
        0
451
        0
460
0.0
461
0.0
452
        0
462
0.0
453
        0
470

  0
ENDBLK
  5
7C
330
79
100
AcDbEntity
  8
0
100
AcDbBlockEnd
  0
ENDSEC
  0
SECTION
  2
ENTITIES
  0
INSERT
  5
7A
330
70
100
AcDbEntity
  8
Слой 1
100
AcDbBlockReference
  2
Block_0
 10
0.0
 20
0.0
 30
0.0
  0
ENDSEC
  0
SECTION
  2
OBJECTS
  0
DICTIONARY
  5
C
330
0
100
AcDbDictionary
281
     1
  3
ACAD_COLOR
350
63
  3
ACAD_DETAILVIEWSTYLE
350
6A
  3
ACAD_GROUP
350
D
  3
ACAD_LAYOUT
350
62
  3
ACAD_MATERIAL
350
10
  3
ACAD_MLEADERSTYLE
350
66
  3
ACAD_MLINESTYLE
350
5F
  3
ACAD_PLOTSETTINGS
350
61
  3
ACAD_PLOTSTYLENAME
350
E
  3
ACAD_SCALELIST
350
42
  3
ACAD_SECTIONVIEWSTYLE
350
68
  3
ACAD_TABLESTYLE
350
64
  3
ACAD_VISUALSTYLE
350
29
  3
ACDB_RECOMPOSE_DATA
350
91
  3
AcDbVariableDictionary
350
89
  0
DICTIONARY
  5
63
102
{ACAD_REACTORS
330
C
102
}
330
C
100
AcDbDictionary
281
     1
  0
DICTIONARY
  5
6A
102
{ACAD_REACTORS
330
C
102
}
330
C
100
AcDbDictionary
281
     1
  3
Imperial24
350
6B
  0
DICTIONARY
  5
D
102
{ACAD_REACTORS
330
C
102
}
330
C
100
AcDbDictionary
281
     1
  0
DICTIONARY
  5
62
102
{ACAD_REACTORS
330
C
102
}
330
C
100
AcDbDictionary
281
     1
  3
Layout1
350
6F
  3
Layout2
350
77
  3
Model
350
73
  0
DICTIONARY
  5
10
102
{ACAD_REACTORS
330
C
102
}
330
C
100
AcDbDictionary
281
     1
  3
ByBlock
350
19
  3
ByLayer
350
11
  3
Global
350
21
  0
DICTIONARY
  5
66
102
{ACAD_REACTORS
330
C
102
}
330
C
100
AcDbDictionary
281
     1
  3
Standard
350
67
  0
DICTIONARY
  5
5F
102
{ACAD_REACTORS
330
C
102
}
330
C
100
AcDbDictionary
281
     1
  3
Standard
350
60
  0
DICTIONARY
  5
61
102
{ACAD_REACTORS
330
C
102
}
330
C
100
AcDbDictionary
281
     1
  0
ACDBDICTIONARYWDFLT
  5
E
102
{ACAD_REACTORS
330
C
102
}
330
C
100
AcDbDictionary
281
     1
  3
Normal
350
F
100
AcDbDictionaryWithDefault
340
F
  0
DICTIONARY
  5
42
102
{ACAD_REACTORS
330
C
102
}
330
C
100
AcDbDictionary
281
     1
  3
A0
350
43
  3
A1
350
44
  3
A2
350
45
  3
A3
350
46
  3
A4
350
47
  3
A5
350
48
  3
A6
350
49
  3
A7
350
4A
  3
A8
350
4B
  3
A9
350
4C
  3
B0
350
4D
  3
B1
350
4E
  3
B2
350
4F
  3
B3
350
50
  3
B4
350
51
  3
B5
350
52
  3
B6
350
53
  0
DICTIONARY
  5
68
102
{ACAD_REACTORS
330
C
102
}
330
C
100
AcDbDictionary
281
     1
  3
Imperial24
350
69
  0
DICTIONARY
  5
64
102
{ACAD_REACTORS
330
C
102
}
330
C
100
AcDbDictionary
281
     1
  3
Standard
350
65
  0
DICTIONARY
  5
29
102
{ACAD_REACTORS
330
C
102
}
330
C
100
AcDbDictionary
281
     1
  3
2dWireframe
350
2F
  3
Basic
350
2E
  3
Brighten
350
35
  3
ColorChange
350
39
  3
Conceptual
350
32
  3
Dim
350
34
  3
EdgeColorOff
350
41
  3
Facepattern
350
38
  3
Flat
350
2A
  3
FlatWithEdges
350
2B
  3
Gouraud
350
2C
  3
GouraudWithEdges
350
2D
  3
Hidden
350
31
  3
JitterOff
350
3F
  3
Linepattern
350
37
  3
OverhangOff
350
40
  3
Realistic
350
33
  3
Shaded
350
3E
  3
Shaded with edges
350
3D
  3
Shades of Gray
350
3A
  3
Sketchy
350
3B
  3
Thicken
350
36
  3
Wireframe
350
30
  3
X-Ray
350
3C
  0
XRECORD
  5
91
102
{ACAD_REACTORS
330
C
102
}
330
C
100
AcDbXrecord
280
     1
 90
        1
330
65
  0
DICTIONARY
  5
89
102
{ACAD_REACTORS
330
C
102
}
330
C
100
AcDbDictionary
281
     1
  3
CANNOSCALE
350
8E
  3
CMLEADERSTYLE
350
8B
  3
CTABLESTYLE
350
8A
  3
CVIEWDETAILSTYLE
350
8C
  3
CVIEWSECTIONSTYLE
350
8D
  0
ACDBDETAILVIEWSTYLE
  5
6B
102
{ACAD_XDICTIONARY
360
94
102
}
102
{ACAD_REACTORS
330
6A
102
}
330
6A
100
AcDbModelDocViewStyle
 70
     0
  3
Imperial24
290
     0
100
AcDbDetailViewStyle
 70
     0
 71
     0
 90
        3
 71
     1
340
55
 62
   256
 40
0.24
340
0
 62
   256
 40
0.24
300

 40
0.36
280
     3
 71
     2
340
5D
 90
       25
 62
   256
 71
     3
340
55
 62
   256
 40
0.24
 90
        1
 40
0.75
 90
        1
300
%<\AcVar ViewType \f "%tc1">% %<\AcVar ViewDetailId>%\PSCALE %<\AcVar ViewScale \f "%sn">%
 71
     4
340
5D
 90
       25
 62
   256
340
5D
 90
       25
 62
   256
280
     0
  0
LAYOUT
  5
6F
102
{ACAD_REACTORS
330
62
102
}
330
62
100
AcDbPlotSettings
  1

  2

  4

  6

 40
0.0
 41
0.0
 42
0.0
 43
0.0
 44
0.0
 45
0.0
 46
0.0
 47
0.0
 48
0.0
 49
0.0
140
0.0
141
0.0
142
1.0
143
1.0
 70
   688
 72
     0
 73
     0
 74
     5
  7

 75
    16
147
1.0
 76
     0
 77
     2
 78
   300
148
0.0
149
0.0
100
AcDbLayout
  1
Layout1
 70
     1
 71
     1
 10
0.0
 20
0.0
 11
12.0
 21
9.0
 12
0.0
 22
0.0
 32
0.0
 14
0.0
 24
0.0
 34
0.0
 15
0.0
 25
0.0
 35
0.0
146
0.0
 13
0.0
 23
0.0
 33
0.0
 16
1.0
 26
0.0
 36
0.0
 17
0.0
 27
1.0
 37
0.0
 76
     0
330
6C
  0
LAYOUT
  5
77
102
{ACAD_REACTORS
330
62
102
}
330
62
100
AcDbPlotSettings
  1

  2

  4

  6

 40
0.0
 41
0.0
 42
0.0
 43
0.0
 44
0.0
 45
0.0
 46
0.0
 47
0.0
 48
0.0
 49
0.0
140
0.0
141
0.0
142
1.0
143
1.0
 70
   688
 72
     0
 73
     0
 74
     5
  7

 75
    16
147
1.0
 76
     0
 77
     2
 78
   300
148
0.0
149
0.0
100
AcDbLayout
  1
Layout2
 70
     1
 71
     2
 10
0.0
 20
0.0
 11
12.0
 21
9.0
 12
0.0
 22
0.0
 32
0.0
 14
0.0
 24
0.0
 34
0.0
 15
0.0
 25
0.0
 35
0.0
146
0.0
 13
0.0
 23
0.0
 33
0.0
 16
1.0
 26
0.0
 36
0.0
 17
0.0
 27
1.0
 37
0.0
 76
     0
330
74
  0
LAYOUT
  5
73
102
{ACAD_REACTORS
330
62
102
}
330
62
100
AcDbPlotSettings
  1

  2

  4

  6

 40
0.0
 41
0.0
 42
0.0
 43
0.0
 44
0.0
 45
0.0
 46
0.0
 47
0.0
 48
0.0
 49
0.0
140
0.0
141
0.0
142
1.0
143
1.0
 70
  1712
 72
     0
 73
     0
 74
     0
  7

 75
     0
147
1.0
 76
     0
 77
     2
 78
   300
148
0.0
149
0.0
100
AcDbLayout
  1
Model
 70
     1
 71
     0
 10
0.0
 20
0.0
 11
12.0
 21
9.0
 12
0.0
 22
0.0
 32
0.0
 14
0.0
 24
0.0
 34
0.0
 15
0.0
 25
0.0
 35
0.0
146
0.0
 13
0.0
 23
0.0
 33
0.0
 16
1.0
 26
0.0
 36
0.0
 17
0.0
 27
1.0
 37
0.0
 76
     0
330
70
  0
MATERIAL
  5
19
102
{ACAD_XDICTIONARY
360
1A
102
}
102
{ACAD_REACTORS
330
10
102
}
330
10
100
AcDbMaterial
  1
ByBlock
 72
     0
 43
0.0208333333333333
 43
0.0
 43
0.0
 43
0.0
 43
0.0
 43
0.0208333333333333
 43
0.0
 43
0.0
 43
0.0
 43
0.0
 43
1.0
 43
0.0
 43
0.0
 43
0.0
 43
0.0
 43
1.0
 77
     0
 47
0.0208333333333333
 47
0.0
 47
0.0
 47
0.0
 47
0.0
 47
0.0208333333333333
 47
0.0
 47
0.0
 47
0.0
 47
0.0
 47
1.0
 47
0.0
 47
0.0
 47
0.0
 47
0.0
 47
1.0
171
     0
 49
0.0208333333333333
 49
0.0
 49
0.0
 49
0.0
 49
0.0
 49
0.0208333333333333
 49
0.0
 49
0.0
 49
0.0
 49
0.0
 49
1.0
 49
0.0
 49
0.0
 49
0.0
 49
0.0
 49
1.0
175
     0
142
0.0208333333333333
142
0.0
142
0.0
142
0.0
142
0.0
142
0.0208333333333333
142
0.0
142
0.0
142
0.0
142
0.0
142
1.0
142
0.0
142
0.0
142
0.0
142
0.0
142
1.0
179
     0
144
0.0208333333333333
144
0.0
144
0.0
144
0.0
144
0.0
144
0.0208333333333333
144
0.0
144
0.0
144
0.0
144
0.0
144
1.0
144
0.0
144
0.0
144
0.0
144
0.0
144
1.0
147
0.0208333333333333
147
0.0
147
0.0
147
0.0
147
0.0
147
0.0208333333333333
147
0.0
147
0.0
147
0.0
147
0.0
147
1.0
147
0.0
147
0.0
147
0.0
147
0.0
147
1.0
  0
MATERIAL
  5
11
102
{ACAD_XDICTIONARY
360
12
102
}
102
{ACAD_REACTORS
330
10
102
}
330
10
100
AcDbMaterial
  1
ByLayer
 72
     0
 43
0.0208333333333333
 43
0.0
 43
0.0
 43
0.0
 43
0.0
 43
0.0208333333333333
 43
0.0
 43
0.0
 43
0.0
 43
0.0
 43
1.0
 43
0.0
 43
0.0
 43
0.0
 43
0.0
 43
1.0
 77
     0
 47
0.0208333333333333
 47
0.0
 47
0.0
 47
0.0
 47
0.0
 47
0.0208333333333333
 47
0.0
 47
0.0
 47
0.0
 47
0.0
 47
1.0
 47
0.0
 47
0.0
 47
0.0
 47
0.0
 47
1.0
171
     0
 49
0.0208333333333333
 49
0.0
 49
0.0
 49
0.0
 49
0.0
 49
0.0208333333333333
 49
0.0
 49
0.0
 49
0.0
 49
0.0
 49
1.0
 49
0.0
 49
0.0
 49
0.0
 49
0.0
 49
1.0
175
     0
142
0.0208333333333333
142
0.0
142
0.0
142
0.0
142
0.0
142
0.0208333333333333
142
0.0
142
0.0
142
0.0
142
0.0
142
1.0
142
0.0
142
0.0
142
0.0
142
0.0
142
1.0
179
     0
144
0.0208333333333333
144
0.0
144
0.0
144
0.0
144
0.0
144
0.0208333333333333
144
0.0
144
0.0
144
0.0
144
0.0
144
1.0
144
0.0
144
0.0
144
0.0
144
0.0
144
1.0
147
0.0208333333333333
147
0.0
147
0.0
147
0.0
147
0.0
147
0.0208333333333333
147
0.0
147
0.0
147
0.0
147
0.0
147
1.0
147
0.0
147
0.0
147
0.0
147
0.0
147
1.0
  0
MATERIAL
  5
21
102
{ACAD_XDICTIONARY
360
22
102
}
102
{ACAD_REACTORS
330
10
102
}
330
10
100
AcDbMaterial
  1
Global
 72
     0
 43
0.0208333333333333
 43
0.0
 43
0.0
 43
0.0
 43
0.0
 43
0.0208333333333333
 43
0.0
 43
0.0
 43
0.0
 43
0.0
 43
1.0
 43
0.0
 43
0.0
 43
0.0
 43
0.0
 43
1.0
 77
     0
 47
0.0208333333333333
 47
0.0
 47
0.0
 47
0.0
 47
0.0
 47
0.0208333333333333
 47
0.0
 47
0.0
 47
0.0
 47
0.0
 47
1.0
 47
0.0
 47
0.0
 47
0.0
 47
0.0
 47
1.0
171
     0
 49
0.0208333333333333
 49
0.0
 49
0.0
 49
0.0
 49
0.0
 49
0.0208333333333333
 49
0.0
 49
0.0
 49
0.0
 49
0.0
 49
1.0
 49
0.0
 49
0.0
 49
0.0
 49
0.0
 49
1.0
175
     0
142
0.0208333333333333
142
0.0
142
0.0
142
0.0
142
0.0
142
0.0208333333333333
142
0.0
142
0.0
142
0.0
142
0.0
142
1.0
142
0.0
142
0.0
142
0.0
142
0.0
142
1.0
179
     0
144
0.0208333333333333
144
0.0
144
0.0
144
0.0
144
0.0
144
0.0208333333333333
144
0.0
144
0.0
144
0.0
144
0.0
144
1.0
144
0.0
144
0.0
144
0.0
144
0.0
144
1.0
147
0.0208333333333333
147
0.0
147
0.0
147
0.0
147
0.0
147
0.0208333333333333
147
0.0
147
0.0
147
0.0
147
0.0
147
1.0
147
0.0
147
0.0
147
0.0
147
0.0
147
1.0
  0
MLEADERSTYLE
  5
67
102
{ACAD_REACTORS
330
66
102
}
330
66
100
AcDbMLeaderStyle
179
     2
170
     2
171
     1
172
     0
 90
        2
 40
0.0
 41
0.0
173
     1
 91
-1056964608
340
5B
 92
       -2
290
     1
 42
0.09
291
     1
 43
0.36
  3
Standard
 44
0.18
300

342
55
174
     1
178
     6
175
     1
176
     0
 93
-1056964608
 45
0.18
292
     0
297
     0
 46
0.18
 94
-1056964608
 47
1.0
 49
1.0
140
1.0
293
     1
141
0.0
294
     1
177
     0
142
1.0
295
     0
296
     0
143
0.125
271
     0
272
     9
273
     9
298
     1
  0
MLINESTYLE
  5
60
102
{ACAD_REACTORS
330
5F
102
}
330
5F
100
AcDbMlineStyle
  2
STANDARD
 70
     0
  3

 62
   256
 51
90.0
 52
90.0
 71
     2
 49
0.5
 62
   256
  6
BYLAYER
 49
-0.5
 62
   256
  6
BYLAYER
  0
ACDBPLACEHOLDER
  5
F
102
{ACAD_REACTORS
330
E
102
}
330
E
  0
SCALE
  5
43
102
{ACAD_REACTORS
330
42
102
}
330
42
100
AcDbScale
 70
     0
300
1:1
140
1.0
141
1.0
290
     1
  0
SCALE
  5
44
102
{ACAD_REACTORS
330
42
102
}
330
42
100
AcDbScale
 70
     0
300
1/128" = 1'-0"
140
0.0078125
141
12.0
290
     0
  0
SCALE
  5
45
102
{ACAD_REACTORS
330
42
102
}
330
42
100
AcDbScale
 70
     0
300
1/64" = 1'-0"
140
0.015625
141
12.0
290
     0
  0
SCALE
  5
46
102
{ACAD_REACTORS
330
42
102
}
330
42
100
AcDbScale
 70
     0
300
1/32" = 1'-0"
140
0.03125
141
12.0
290
     0
  0
SCALE
  5
47
102
{ACAD_REACTORS
330
42
102
}
330
42
100
AcDbScale
 70
     0
300
1/16" = 1'-0"
140
0.0625
141
12.0
290
     0
  0
SCALE
  5
48
102
{ACAD_REACTORS
330
42
102
}
330
42
100
AcDbScale
 70
     0
300
3/32" = 1'-0"
140
0.09375
141
12.0
290
     0
  0
SCALE
  5
49
102
{ACAD_REACTORS
330
42
102
}
330
42
100
AcDbScale
 70
     0
300
1/8" = 1'-0"
140
0.125
141
12.0
290
     0
  0
SCALE
  5
4A
102
{ACAD_REACTORS
330
42
102
}
330
42
100
AcDbScale
 70
     0
300
3/16" = 1'-0"
140
0.1875
141
12.0
290
     0
  0
SCALE
  5
4B
102
{ACAD_REACTORS
330
42
102
}
330
42
100
AcDbScale
 70
     0
300
1/4" = 1'-0"
140
0.25
141
12.0
290
     0
  0
SCALE
  5
4C
102
{ACAD_REACTORS
330
42
102
}
330
42
100
AcDbScale
 70
     0
300
3/8" = 1'-0"
140
0.375
141
12.0
290
     0
  0
SCALE
  5
4D
102
{ACAD_REACTORS
330
42
102
}
330
42
100
AcDbScale
 70
     0
300
1/2" = 1'-0"
140
0.5
141
12.0
290
     0
  0
SCALE
  5
4E
102
{ACAD_REACTORS
330
42
102
}
330
42
100
AcDbScale
 70
     0
300
3/4" = 1'-0"
140
0.75
141
12.0
290
     0
  0
SCALE
  5
4F
102
{ACAD_REACTORS
330
42
102
}
330
42
100
AcDbScale
 70
     0
300
1" = 1'-0"
140
1.0
141
12.0
290
     0
  0
SCALE
  5
50
102
{ACAD_REACTORS
330
42
102
}
330
42
100
AcDbScale
 70
     0
300
1-1/2" = 1'-0"
140
1.5
141
12.0
290
     0
  0
SCALE
  5
51
102
{ACAD_REACTORS
330
42
102
}
330
42
100
AcDbScale
 70
     0
300
3" = 1'-0"
140
3.0
141
12.0
290
     0
  0
SCALE
  5
52
102
{ACAD_REACTORS
330
42
102
}
330
42
100
AcDbScale
 70
     0
300
6" = 1'-0"
140
6.0
141
12.0
290
     0
  0
SCALE
  5
53
102
{ACAD_REACTORS
330
42
102
}
330
42
100
AcDbScale
 70
     0
300
1'-0" = 1'-0"
140
12.0
141
12.0
290
     0
  0
ACDBSECTIONVIEWSTYLE
  5
69
102
{ACAD_XDICTIONARY
360
92
102
}
102
{ACAD_REACTORS
330
68
102
}
330
68
100
AcDbModelDocViewStyle
 70
     0
  3
Imperial24
290
     0
100
AcDbSectionViewStyle
 70
     0
 71
     0
 90
       78
 71
     1
340
55
 62
   256
 40
0.24
340
0
340
0
 62
   256
 40
0.24
300
I, O, Q, S, X, Z
 40
0.48
 90
        3
 40
0.18
 90
        1
 71
     2
340
5D
 90
       25
 62
   256
340
5D
 90
       50
 62
   256
 40
0.24
 40
0.0
 40
0.24
 71
     3
340
55
 62
   256
 40
0.24
 90
        1
 40
0.75
 90
        1
300
%<\AcVar ViewType \f "%tc1">% %<\AcVar ViewSectionStartId>%-%<\AcVar ViewSectionEndId>%\PSCALE %<\AcVar ViewScale \f "%sn">%
 71
     4
 62
   256
 62
   257
300
ANSI31
 40
1.0
 90
        0
290
     0
290
     0
 90
        6
 40
0.0
 40
1.570796326794896
 40
0.2617993877991494
 40
1.308996938995747
 40
-0.2617993877991494
 40
1.832595714594046
  0
TABLESTYLE
  5
65
102
{ACAD_XDICTIONARY
360
8F
102
}
102
{ACAD_REACTORS
330
64
102
}
330
64
100
AcDbTableStyle
280
     0
  3
Standard
 70
     0
 71
     0
 40
0.06
 41
0.06
280
     0
281
     0
  7
Standard
140
0.18
170
     2
 62
     0
 63
     7
283
     0
 90
      512
 91
        0
  1

274
    -2
284
     1
 64
     0
275
    -2
285
     1
 65
     0
276
    -2
286
     1
 66
     0
277
    -2
287
     1
 67
     0
278
    -2
288
     1
 68
     0
279
    -2
289
     1
 69
     0
  7
Standard
140
0.25
170
     5
 62
     0
 63
     7
283
     0
 90
      512
 91
        0
  1

274
    -2
284
     1
 64
     0
275
    -2
285
     1
 65
     0
276
    -2
286
     1
 66
     0
277
    -2
287
     1
 67
     0
278
    -2
288
     1
 68
     0
279
    -2
289
     1
 69
     0
  7
Standard
140
0.18
170
     5
 62
     0
 63
     7
283
     0
 90
      512
 91
        0
  1

274
    -2
284
     1
 64
     0
275
    -2
285
     1
 65
     0
276
    -2
286
     1
 66
     0
277
    -2
287
     1
 67
     0
278
    -2
288
     1
 68
     0
279
    -2
289
     1
 69
     0
  0
VISUALSTYLE
  5
2F
102
{ACAD_REACTORS
330
29
102
}
330
29
100
AcDbVisualStyle
  2
2dWireframe
 70
     4
177
     3
291
     0
 70
    58
 90
        0
176
     1
 90
        2
176
     1
 90
        0
176
     1
 90
        0
176
     1
 40
0.6
176
     1
 40
30.0
176
     1
 62
     7
420
 16777215
176
     1
 90
        1
176
     1
 90
        4
176
     1
 62
     7
176
     1
 62
   257
176
     1
 90
        1
176
     1
 90
        1
176
     1
 40
1.0
176
     1
 90
        0
176
     1
 62
   257
176
     1
 40
1.0
176
     1
 90
        1
176
     1
 90
        6
176
     1
 90
        2
176
     1
 62
     7
176
     1
 90
        5
176
     1
 90
        0
176
     1
 90
        0
176
     1
290
     0
176
     1
 90
        1
176
     1
 40
0.0
176
     1
 90
        0
176
     1
290
     1
176
     1
290
     1
176
     1
290
     0
176
     1
290
     0
176
     1
290
     0
176
     1
290
     0
176
     1
290
     0
176
     1
290
     0
176
     1
290
     0
176
     1
 90
       50
176
     1
 40
0.0
176
     1
 40
1.0
176
     1
 90
        0
176
     1
 62
    18
420
        0
176
     1
 90
       50
176
     1
 90
        3
176
     1
 62
     5
420
      255
176
     1
290
     0
176
     1
 90
       50
176
     1
 90
       50
176
     1
 90
       50
176
     1
290
     0
176
     1
 90
       50
176
     1
 62
   256
176
     0
 40
1.0
176
     0
 90
        2
176
     1
  1
strokes_ogs.tif
176
     1
290
     0
176
     1
 40
1.0
176
     1
 40
1.0
176
     1
1001
ACAD
1000
AcDbSavedByObjectVersion
1070
     0
  0
VISUALSTYLE
  5
2E
102
{ACAD_REACTORS
330
29
102
}
330
29
100
AcDbVisualStyle
  2
Basic
 70
     7
177
     3
291
     1
 70
    58
 90
        1
176
     1
 90
        0
176
     1
 90
        1
176
     1
 90
        0
176
     1
 40
0.6
176
     1
 40
30.0
176
     1
 62
     7
420
 16777215
176
     1
 90
        0
176
     1
 90
        4
176
     1
 62
     7
176
     1
 62
   257
176
     1
 90
        1
176
     1
 90
        1
176
     1
 40
1.0
176
     1
 90
        8
176
     1
 62
     7
176
     1
 40
1.0
176
     1
 90
        1
176
     1
 90
        6
176
     1
 90
        2
176
     1
 62
     7
176
     1
 90
        5
176
     1
 90
        0
176
     1
 90
        0
176
     1
290
     0
176
     1
 90
        1
176
     1
 40
0.0
176
     1
 90
        0
176
     1
290
     0
176
     1
290
     1
176
     1
290
     1
176
     1
290
     0
176
     1
290
     0
176
     1
290
     0
176
     1
290
     0
176
     1
290
     0
176
     1
290
     0
176
     1
 90
       50
176
     1
 40
0.0
176
     1
 40
1.0
176
     1
 90
        0
176
     1
 62
    18
420
        0
176
     1
 90
       50
176
     1
 90
        3
176
     1
 62
     5
420
      255
176
     1
290
     0
176
     1
 90
       50
176
     1
 90
       50
176
     1
 90
       50
176
     1
290
     0
176
     1
 90
       50
176
     1
 62
   256
176
     0
 40
1.0
176
     0
 90
        2
176
     1
  1
strokes_ogs.tif
176
     1
290
     0
176
     1
 40
1.0
176
     1
 40
1.0
176
     1
1001
ACAD
1000
AcDbSavedByObjectVersion
1070
     0
  0
VISUALSTYLE
  5
35
102
{ACAD_REACTORS
330
29
102
}
330
29
100
AcDbVisualStyle
  2
Brighten
 70
    12
177
     3
291
     1
 70
    58
 90
        2
176
     1
 90
        2
176
     1
 90
        0
176
     1
 90
        0
176
     1
 40
0.6
176
     1
 40
30.0
176
     1
 62
     7
420
 16777215
176
     1
 90
        1
176
     1
 90
        4
176
     1
 62
     7
176
     1
 62
   257
176
     1
 90
        1
176
     1
 90
        1
176
     1
 40
1.0
176
     1
 90
        8
176
     1
 62
     7
176
     1
 40
1.0
176
     1
 90
        1
176
     1
 90
        6
176
     1
 90
        2
176
     1
 62
     7
176
     1
 90
        5
176
     1
 90
        0
176
     1
 90
        0
176
     1
290
     0
176
     1
 90
        1
176
     1
 40
50.0
176
     1
 90
        0
176
     1
290
     0
176
     1
290
     1
176
     1
290
     1
176
     1
290
     0
176
     1
290
     0
176
     1
290
     0
176
     1
290
     0
176
     1
290
     0
176
     1
290
     0
176
     1
 90
       50
176
     1
 40
0.0
176
     1
 40
1.0
176
     1
 90
        0
176
     1
 62
    18
420
        0
176
     1
 90
       50
176
     1
 90
        3
176
     1
 62
     5
420
      255
176
     1
290
     0
176
     1
 90
       50
176
     1
 90
       50
176
     1
 90
       50
176
     1
290
     0
176
     1
 90
       50
176
     1
 62
   256
176
     0
 40
1.0
176
     0
 90
        2
176
     1
  1
strokes_ogs.tif
176
     1
290
     0
176
     1
 40
1.0
176
     1
 40
1.0
176
     1
1001
ACAD
1000
AcDbSavedByObjectVersion
1070
     0
  0
VISUALSTYLE
  5
39
102
{ACAD_REACTORS
330
29
102
}
330
29
100
AcDbVisualStyle
  2
ColorChange
 70
    16
177
     3
291
     1
 70
    58
 90
        2
176
     1
 90
        2
176
     1
 90
        3
176
     1
 90
        0
176
     1
 40
0.6
176
     1
 40
30.0
176
     1
 62
     8
420
  8421504
176
     1
 90
        1
176
     1
 90
        4
176
     1
 62
     7
176
     1
 62
   257
176
     1
 90
        1
176
     1
 90
        1
176
     1
 40
1.0
176
     1
 90
        8
176
     1
 62
     8
420
  8421504
176
     1
 40
1.0
176
     1
 90
        1
176
     1
 90
        6
176
     1
 90
        2
176
     1
 62
     7
176
     1
 90
        5
176
     1
 90
        0
176
     1
 90
        0
176
     1
290
     0
176
     1
 90
        1
176
     1
 40
0.0
176
     1
 90
        0
176
     1
290
     0
176
     1
290
     1
176
     1
290
     1
176
     1
290
     0
176
     1
290
     0
176
     1
290
     0
176
     1
290
     0
176
     1
290
     0
176
     1
290
     0
176
     1
 90
       50
176
     1
 40
0.0
176
     1
 40
1.0
176
     1
 90
        0
176
     1
 62
    18
420
        0
176
     1
 90
       50
176
     1
 90
        3
176
     1
 62
     5
420
      255
176
     1
290
     0
176
     1
 90
       50
176
     1
 90
       50
176
     1
 90
       50
176
     1
290
     0
176
     1
 90
       50
176
     1
 62
   256
176
     0
 40
1.0
176
     0
 90
        2
176
     1
  1
strokes_ogs.tif
176
     1
290
     0
176
     1
 40
1.0
176
     1
 40
1.0
176
     1
1001
ACAD
1000
AcDbSavedByObjectVersion
1070
     0
  0
VISUALSTYLE
  5
32
102
{ACAD_REACTORS
330
29
102
}
330
29
100
AcDbVisualStyle
  2
Conceptual
 70
     9
177
     3
291
     0
 70
    58
 90
        3
176
     1
 90
        2
176
     1
 90
        0
176
     1
 90
        0
176
     1
 40
0.6
176
     1
 40
30.0
176
     1
 62
     7
420
 16777215
176
     1
 90
        2
176
     1
 90
        2
176
     1
 62
     7
176
     1
 62
   257
176
     1
 90
        1
176
     1
 90
        1
176
     1
 40
179.0
176
     1
 90
        8
176
     1
 62
     7
176
     1
 40
1.0
176
     1
 90
        1
176
     1
 90
        6
176
     1
 90
        2
176
     1
 62
     7
176
     1
 90
        3
176
     1
 90
        0
176
     1
 90
        0
176
     1
290
     0
176
     1
 90
        1
176
     1
 40
0.0
176
     1
 90
        0
176
     1
290
     0
176
     1
290
     1
176
     1
290
     1
176
     1
290
     0
176
     1
290
     0
176
     1
290
     0
176
     1
290
     0
176
     1
290
     0
176
     1
290
     0
176
     1
 90
       50
176
     1
 40
0.0
176
     1
 40
1.0
176
     1
 90
        0
176
     1
 62
    18
420
        0
176
     1
 90
       50
176
     1
 90
        3
176
     1
 62
     5
420
      255
176
     1
290
     0
176
     1
 90
       50
176
     1
 90
       50
176
     1
 90
       50
176
     1
290
     0
176
     1
 90
       50
176
     1
 62
   256
176
     0
 40
1.0
176
     0
 90
        2
176
     1
  1
strokes_ogs.tif
176
     1
290
     0
176
     1
 40
1.0
176
     1
 40
1.0
176
     1
1001
ACAD
1000
AcDbSavedByObjectVersion
1070
     0
  0
VISUALSTYLE
  5
34
102
{ACAD_REACTORS
330
29
102
}
330
29
100
AcDbVisualStyle
  2
Dim
 70
    11
177
     3
291
     1
 70
    58
 90
        2
176
     1
 90
        2
176
     1
 90
        0
176
     1
 90
        0
176
     1
 40
0.6
176
     1
 40
30.0
176
     1
 62
     7
420
 16777215
176
     1
 90
        1
176
     1
 90
        4
176
     1
 62
     7
176
     1
 62
   257
176
     1
 90
        1
176
     1
 90
        1
176
     1
 40
1.0
176
     1
 90
        8
176
     1
 62
     7
176
     1
 40
1.0
176
     1
 90
        1
176
     1
 90
        6
176
     1
 90
        2
176
     1
 62
     7
176
     1
 90
        5
176
     1
 90
        0
176
     1
 90
        0
176
     1
290
     0
176
     1
 90
        1
176
     1
 40
-50.0
176
     1
 90
        0
176
     1
290
     0
176
     1
290
     1
176
     1
290
     1
176
     1
290
     0
176
     1
290
     0
176
     1
290
     0
176
     1
290
     0
176
     1
290
     0
176
     1
290
     0
176
     1
 90
       50
176
     1
 40
0.0
176
     1
 40
1.0
176
     1
 90
        0
176
     1
 62
    18
420
        0
176
     1
 90
       50
176
     1
 90
        3
176
     1
 62
     5
420
      255
176
     1
290
     0
176
     1
 90
       50
176
     1
 90
       50
176
     1
 90
       50
176
     1
290
     0
176
     1
 90
       50
176
     1
 62
   256
176
     0
 40
1.0
176
     0
 90
        2
176
     1
  1
strokes_ogs.tif
176
     1
290
     0
176
     1
 40
1.0
176
     1
 40
1.0
176
     1
1001
ACAD
1000
AcDbSavedByObjectVersion
1070
     0
  0
VISUALSTYLE
  5
41
102
{ACAD_REACTORS
330
29
102
}
330
29
100
AcDbVisualStyle
  2
EdgeColorOff
 70
    22
177
     3
291
     1
 70
    58
 90
        2
176
     0
 90
        2
176
     0
 90
        0
176
     0
 90
        0
176
     0
 40
0.6
176
     0
 40
30.0
176
     0
 62
     7
420
 16777215
176
     0
 90
        1
176
     0
 90
        4
176
     0
 62
     7
176
     0
 62
   257
176
     0
 90
        1
176
     0
 90
        1
176
     0
 40
1.0
176
     0
 90
        8
176
     2
 62
     7
176
     0
 40
1.0
176
     0
 90
        1
176
     0
 90
        6
176
     0
 90
        2
176
     0
 62
     7
176
     0
 90
        5
176
     0
 90
        0
176
     0
 90
        0
176
     0
290
     0
176
     0
 90
        1
176
     0
 40
0.0
176
     0
 90
        0
176
     0
290
     0
176
     0
290
     1
176
     0
290
     1
176
     0
290
     0
176
     0
290
     0
176
     0
290
     0
176
     0
290
     0
176
     0
290
     0
176
     0
290
     0
176
     0
 90
       50
176
     0
 40
0.0
176
     0
 40
1.0
176
     0
 90
        0
176
     0
 62
    18
420
        0
176
     0
 90
       50
176
     0
 90
        3
176
     0
 62
     5
420
      255
176
     0
290
     0
176
     0
 90
       50
176
     0
 90
       50
176
     0
 90
       50
176
     0
290
     0
176
     0
 90
       50
176
     0
 62
   256
176
     0
 40
1.0
176
     0
 90
        2
176
     0
  1
strokes_ogs.tif
176
     0
290
     0
176
     0
 40
1.0
176
     0
 40
1.0
176
     0
1001
ACAD
1000
AcDbSavedByObjectVersion
1070
     0
  0
VISUALSTYLE
  5
38
102
{ACAD_REACTORS
330
29
102
}
330
29
100
AcDbVisualStyle
  2
Facepattern
 70
    15
177
     3
291
     1
 70
    58
 90
        2
176
     1
 90
        2
176
     1
 90
        0
176
     1
 90
        0
176
     1
 40
0.6
176
     1
 40
30.0
176
     1
 62
     7
420
 16777215
176
     1
 90
        1
176
     1
 90
        4
176
     1
 62
     7
176
     1
 62
   257
176
     1
 90
        1
176
     1
 90
        1
176
     1
 40
1.0
176
     1
 90
        8
176
     1
 62
     7
176
     1
 40
1.0
176
     1
 90
        1
176
     1
 90
        6
176
     1
 90
        2
176
     1
 62
     7
176
     1
 90
        5
176
     1
 90
        0
176
     1
 90
        0
176
     1
290
     0
176
     1
 90
        1
176
     1
 40
0.0
176
     1
 90
        0
176
     1
290
     0
176
     1
290
     1
176
     1
290
     1
176
     1
290
     0
176
     1
290
     0
176
     1
290
     0
176
     1
290
     0
176
     1
290
     0
176
     1
290
     0
176
     1
 90
       50
176
     1
 40
0.0
176
     1
 40
1.0
176
     1
 90
        0
176
     1
 62
    18
420
        0
176
     1
 90
       50
176
     1
 90
        3
176
     1
 62
     5
420
      255
176
     1
290
     0
176
     1
 90
       50
176
     1
 90
       50
176
     1
 90
       50
176
     1
290
     0
176
     1
 90
       50
176
     1
 62
   256
176
     0
 40
1.0
176
     0
 90
        2
176
     1
  1
strokes_ogs.tif
176
     1
290
     0
176
     1
 40
1.0
176
     1
 40
1.0
176
     1
1001
ACAD
1000
AcDbSavedByObjectVersion
1070
     0
  0
VISUALSTYLE
  5
2A
102
{ACAD_REACTORS
330
29
102
}
330
29
100
AcDbVisualStyle
  2
Flat
 70
     0
177
     3
291
     1
 70
    58
 90
        2
176
     1
 90
        1
176
     1
 90
        1
176
     1
 90
        2
176
     1
 40
0.6
176
     1
 40
30.0
176
     1
 62
     7
420
 16777215
176
     1
 90
        0
176
     1
 90
        0
176
     1
 62
     7
176
     1
 62
   257
176
     1
 90
        1
176
     1
 90
        1
176
     1
 40
1.0
176
     1
 90
        8
176
     1
 62
     7
176
     1
 40
1.0
176
     1
 90
        1
176
     1
 90
        6
176
     1
 90
        2
176
     1
 62
     7
176
     1
 90
        5
176
     1
 90
        0
176
     1
 90
        0
176
     1
290
     0
176
     1
 90
       13
176
     1
 40
0.0
176
     1
 90
        0
176
     1
290
     0
176
     1
290
     1
176
     1
290
     1
176
     1
290
     0
176
     1
290
     0
176
     1
290
     0
176
     1
290
     0
176
     1
290
     0
176
     1
290
     0
176
     1
 90
       50
176
     1
 40
0.0
176
     1
 40
1.0
176
     1
 90
        0
176
     1
 62
    18
420
        0
176
     1
 90
       50
176
     1
 90
        3
176
     1
 62
     5
420
      255
176
     1
290
     0
176
     1
 90
       50
176
     1
 90
       50
176
     1
 90
       50
176
     1
290
     0
176
     1
 90
       50
176
     1
 62
   256
176
     0
 40
1.0
176
     0
 90
        2
176
     1
  1
strokes_ogs.tif
176
     1
290
     0
176
     1
 40
1.0
176
     1
 40
1.0
176
     1
1001
ACAD
1000
AcDbSavedByObjectVersion
1070
     0
  0
VISUALSTYLE
  5
2B
102
{ACAD_REACTORS
330
29
102
}
330
29
100
AcDbVisualStyle
  2
FlatWithEdges
 70
     1
177
     3
291
     1
 70
    58
 90
        2
176
     1
 90
        1
176
     1
 90
        1
176
     1
 90
        2
176
     1
 40
0.6
176
     1
 40
30.0
176
     1
 62
     7
420
 16777215
176
     1
 90
        1
176
     1
 90
        0
176
     1
 62
     7
176
     1
 62
   257
176
     1
 90
        1
176
     1
 90
        1
176
     1
 40
1.0
176
     1
 90
        0
176
     1
 62
   257
176
     1
 40
1.0
176
     1
 90
        1
176
     1
 90
        6
176
     1
 90
        2
176
     1
 62
     7
176
     1
 90
        5
176
     1
 90
        0
176
     1
 90
        0
176
     1
290
     0
176
     1
 90
       13
176
     1
 40
0.0
176
     1
 90
        0
176
     1
290
     0
176
     1
290
     1
176
     1
290
     1
176
     1
290
     0
176
     1
290
     0
176
     1
290
     0
176
     1
290
     0
176
     1
290
     0
176
     1
290
     0
176
     1
 90
       50
176
     1
 40
0.0
176
     1
 40
1.0
176
     1
 90
        0
176
     1
 62
    18
420
        0
176
     1
 90
       50
176
     1
 90
        3
176
     1
 62
     5
420
      255
176
     1
290
     0
176
     1
 90
       50
176
     1
 90
       50
176
     1
 90
       50
176
     1
290
     0
176
     1
 90
       50
176
     1
 62
   256
176
     0
 40
1.0
176
     0
 90
        2
176
     1
  1
strokes_ogs.tif
176
     1
290
     0
176
     1
 40
1.0
176
     1
 40
1.0
176
     1
1001
ACAD
1000
AcDbSavedByObjectVersion
1070
     0
  0
VISUALSTYLE
  5
2C
102
{ACAD_REACTORS
330
29
102
}
330
29
100
AcDbVisualStyle
  2
Gouraud
 70
     2
177
     3
291
     1
 70
    58
 90
        2
176
     1
 90
        2
176
     1
 90
        1
176
     1
 90
        2
176
     1
 40
0.6
176
     1
 40
30.0
176
     1
 62
     7
420
 16777215
176
     1
 90
        0
176
     1
 90
        0
176
     1
 62
     7
176
     1
 62
   257
176
     1
 90
        1
176
     1
 90
        1
176
     1
 40
1.0
176
     1
 90
        0
176
     1
 62
     7
176
     1
 40
1.0
176
     1
 90
        1
176
     1
 90
        6
176
     1
 90
        2
176
     1
 62
     7
176
     1
 90
        5
176
     1
 90
        0
176
     1
 90
        0
176
     1
290
     0
176
     1
 90
       13
176
     1
 40
0.0
176
     1
 90
        0
176
     1
290
     0
176
     1
290
     1
176
     1
290
     1
176
     1
290
     0
176
     1
290
     0
176
     1
290
     0
176
     1
290
     0
176
     1
290
     0
176
     1
290
     0
176
     1
 90
       50
176
     1
 40
0.0
176
     1
 40
1.0
176
     1
 90
        0
176
     1
 62
    18
420
        0
176
     1
 90
       50
176
     1
 90
        3
176
     1
 62
     5
420
      255
176
     1
290
     0
176
     1
 90
       50
176
     1
 90
       50
176
     1
 90
       50
176
     1
290
     0
176
     1
 90
       50
176
     1
 62
   256
176
     0
 40
1.0
176
     0
 90
        2
176
     1
  1
strokes_ogs.tif
176
     1
290
     0
176
     1
 40
1.0
176
     1
 40
1.0
176
     1
1001
ACAD
1000
AcDbSavedByObjectVersion
1070
     0
  0
VISUALSTYLE
  5
2D
102
{ACAD_REACTORS
330
29
102
}
330
29
100
AcDbVisualStyle
  2
GouraudWithEdges
 70
     3
177
     3
291
     1
 70
    58
 90
        2
176
     1
 90
        2
176
     1
 90
        1
176
     1
 90
        2
176
     1
 40
0.6
176
     1
 40
30.0
176
     1
 62
     7
420
 16777215
176
     1
 90
        1
176
     1
 90
        0
176
     1
 62
     7
176
     1
 62
   257
176
     1
 90
        1
176
     1
 90
        1
176
     1
 40
1.0
176
     1
 90
        0
176
     1
 62
   257
176
     1
 40
1.0
176
     1
 90
        1
176
     1
 90
        6
176
     1
 90
        2
176
     1
 62
     7
176
     1
 90
        5
176
     1
 90
        0
176
     1
 90
        0
176
     1
290
     0
176
     1
 90
       13
176
     1
 40
0.0
176
     1
 90
        0
176
     1
290
     0
176
     1
290
     1
176
     1
290
     1
176
     1
290
     0
176
     1
290
     0
176
     1
290
     0
176
     1
290
     0
176
     1
290
     0
176
     1
290
     0
176
     1
 90
       50
176
     1
 40
0.0
176
     1
 40
1.0
176
     1
 90
        0
176
     1
 62
    18
420
        0
176
     1
 90
       50
176
     1
 90
        3
176
     1
 62
     5
420
      255
176
     1
290
     0
176
     1
 90
       50
176
     1
 90
       50
176
     1
 90
       50
176
     1
290
     0
176
     1
 90
       50
176
     1
 62
   256
176
     0
 40
1.0
176
     0
 90
        2
176
     1
  1
strokes_ogs.tif
176
     1
290
     0
176
     1
 40
1.0
176
     1
 40
1.0
176
     1
1001
ACAD
1000
AcDbSavedByObjectVersion
1070
     0
  0
VISUALSTYLE
  5
31
102
{ACAD_REACTORS
330
29
102
}
330
29
100
AcDbVisualStyle
  2
Hidden
 70
     6
177
     3
291
     0
 70
    58
 90
        1
176
     1
 90
        2
176
     1
 90
        2
176
     1
 90
        0
176
     1
 40
0.6
176
     1
 40
30.0
176
     1
 62
     7
420
 16777215
176
     1
 90
        2
176
     1
 90
        2
176
     1
 62
     7
176
     1
 62
   257
176
     1
 90
        2
176
     1
 90
        1
176
     1
 40
40.0
176
     1
 90
        0
176
     1
 62
   257
176
     1
 40
1.0
176
     1
 90
        1
176
     1
 90
        6
176
     1
 90
        2
176
     1
 62
     7
176
     1
 90
        3
176
     1
 90
        0
176
     1
 90
        0
176
     1
290
     0
176
     1
 90
        1
176
     1
 40
0.0
176
     1
 90
        0
176
     1
290
     0
176
     1
290
     1
176
     1
290
     1
176
     1
290
     0
176
     1
290
     0
176
     1
290
     0
176
     1
290
     0
176
     1
290
     0
176
     1
290
     0
176
     1
 90
       50
176
     1
 40
0.0
176
     1
 40
1.0
176
     1
 90
        0
176
     1
 62
    18
420
        0
176
     1
 90
       50
176
     1
 90
        3
176
     1
 62
     5
420
      255
176
     1
290
     0
176
     1
 90
       50
176
     1
 90
       50
176
     1
 90
       50
176
     1
290
     0
176
     1
 90
       50
176
     1
 62
   256
176
     0
 40
1.0
176
     0
 90
        2
176
     1
  1
strokes_ogs.tif
176
     1
290
     0
176
     1
 40
1.0
176
     1
 40
1.0
176
     1
1001
ACAD
1000
AcDbSavedByObjectVersion
1070
     0
  0
VISUALSTYLE
  5
3F
102
{ACAD_REACTORS
330
29
102
}
330
29
100
AcDbVisualStyle
  2
JitterOff
 70
    20
177
     3
291
     1
 70
    58
 90
        2
176
     0
 90
        2
176
     0
 90
        0
176
     0
 90
        0
176
     0
 40
0.6
176
     0
 40
30.0
176
     0
 62
     7
420
 16777215
176
     0
 90
        1
176
     0
 90
        4
176
     0
 62
     7
176
     0
 62
   257
176
     0
 90
        1
176
     0
 90
        1
176
     0
 40
1.0
176
     0
 90
       10
176
     2
 62
     7
176
     0
 40
1.0
176
     0
 90
        1
176
     0
 90
        6
176
     0
 90
        2
176
     0
 62
     7
176
     0
 90
        5
176
     0
 90
        0
176
     0
 90
        0
176
     0
290
     0
176
     0
 90
        1
176
     0
 40
0.0
176
     0
 90
        0
176
     0
290
     0
176
     0
290
     1
176
     0
290
     1
176
     0
290
     0
176
     0
290
     0
176
     0
290
     0
176
     0
290
     0
176
     0
290
     0
176
     0
290
     0
176
     0
 90
       50
176
     0
 40
0.0
176
     0
 40
1.0
176
     0
 90
        0
176
     0
 62
    18
420
        0
176
     0
 90
       50
176
     0
 90
        3
176
     0
 62
     5
420
      255
176
     0
290
     0
176
     0
 90
       50
176
     0
 90
       50
176
     0
 90
       50
176
     0
290
     0
176
     0
 90
       50
176
     0
 62
   256
176
     0
 40
1.0
176
     0
 90
        2
176
     0
  1
strokes_ogs.tif
176
     0
290
     0
176
     0
 40
1.0
176
     0
 40
1.0
176
     0
1001
ACAD
1000
AcDbSavedByObjectVersion
1070
     0
  0
VISUALSTYLE
  5
37
102
{ACAD_REACTORS
330
29
102
}
330
29
100
AcDbVisualStyle
  2
Linepattern
 70
    14
177
     3
291
     1
 70
    58
 90
        2
176
     1
 90
        2
176
     1
 90
        0
176
     1
 90
        0
176
     1
 40
0.6
176
     1
 40
30.0
176
     1
 62
     7
420
 16777215
176
     1
 90
        1
176
     1
 90
        4
176
     1
 62
     7
176
     1
 62
   257
176
     1
 90
        7
176
     1
 90
        7
176
     1
 40
1.0
176
     1
 90
        8
176
     1
 62
     7
176
     1
 40
1.0
176
     1
 90
        1
176
     1
 90
        6
176
     1
 90
        2
176
     1
 62
     7
176
     1
 90
        5
176
     1
 90
        0
176
     1
 90
        0
176
     1
290
     0
176
     1
 90
        1
176
     1
 40
0.0
176
     1
 90
        0
176
     1
290
     0
176
     1
290
     1
176
     1
290
     1
176
     1
290
     0
176
     1
290
     0
176
     1
290
     0
176
     1
290
     0
176
     1
290
     0
176
     1
290
     0
176
     1
 90
       50
176
     1
 40
0.0
176
     1
 40
1.0
176
     1
 90
        0
176
     1
 62
    18
420
        0
176
     1
 90
       50
176
     1
 90
        3
176
     1
 62
     5
420
      255
176
     1
290
     0
176
     1
 90
       50
176
     1
 90
       50
176
     1
 90
       50
176
     1
290
     0
176
     1
 90
       50
176
     1
 62
   256
176
     0
 40
1.0
176
     0
 90
        2
176
     1
  1
strokes_ogs.tif
176
     1
290
     0
176
     1
 40
1.0
176
     1
 40
1.0
176
     1
1001
ACAD
1000
AcDbSavedByObjectVersion
1070
     0
  0
VISUALSTYLE
  5
40
102
{ACAD_REACTORS
330
29
102
}
330
29
100
AcDbVisualStyle
  2
OverhangOff
 70
    21
177
     3
291
     1
 70
    58
 90
        2
176
     0
 90
        2
176
     0
 90
        0
176
     0
 90
        0
176
     0
 40
0.6
176
     0
 40
30.0
176
     0
 62
     7
420
 16777215
176
     0
 90
        1
176
     0
 90
        4
176
     0
 62
     7
176
     0
 62
   257
176
     0
 90
        1
176
     0
 90
        1
176
     0
 40
1.0
176
     0
 90
        9
176
     2
 62
     7
176
     0
 40
1.0
176
     0
 90
        1
176
     0
 90
        6
176
     0
 90
        2
176
     0
 62
     7
176
     0
 90
        5
176
     0
 90
        0
176
     0
 90
        0
176
     0
290
     0
176
     0
 90
        1
176
     0
 40
0.0
176
     0
 90
        0
176
     0
290
     0
176
     0
290
     1
176
     0
290
     1
176
     0
290
     0
176
     0
290
     0
176
     0
290
     0
176
     0
290
     0
176
     0
290
     0
176
     0
290
     0
176
     0
 90
       50
176
     0
 40
0.0
176
     0
 40
1.0
176
     0
 90
        0
176
     0
 62
    18
420
        0
176
     0
 90
       50
176
     0
 90
        3
176
     0
 62
     5
420
      255
176
     0
290
     0
176
     0
 90
       50
176
     0
 90
       50
176
     0
 90
       50
176
     0
290
     0
176
     0
 90
       50
176
     0
 62
   256
176
     0
 40
1.0
176
     0
 90
        2
176
     0
  1
strokes_ogs.tif
176
     0
290
     0
176
     0
 40
1.0
176
     0
 40
1.0
176
     0
1001
ACAD
1000
AcDbSavedByObjectVersion
1070
     0
  0
VISUALSTYLE
  5
33
102
{ACAD_REACTORS
330
29
102
}
330
29
100
AcDbVisualStyle
  2
Realistic
 70
     8
177
     3
291
     0
 70
    58
 90
        2
176
     1
 90
        3
176
     1
 90
        0
176
     1
 90
        2
176
     1
 40
0.6
176
     1
 40
30.0
176
     1
 62
     7
420
 16777215
176
     1
 90
        0
176
     1
 90
        0
176
     1
 62
     7
176
     1
 62
   257
176
     1
 90
        1
176
     1
 90
        1
176
     1
 40
1.0
176
     1
 90
        8
176
     1
 62
   257
176
     1
 40
1.0
176
     1
 90
        1
176
     1
 90
        6
176
     1
 90
        2
176
     1
 62
     7
176
     1
 90
        3
176
     1
 90
        0
176
     1
 90
        0
176
     1
290
     0
176
     1
 90
       13
176
     1
 40
0.0
176
     1
 90
        0
176
     1
290
     0
176
     1
290
     1
176
     1
290
     1
176
     1
290
     0
176
     1
290
     0
176
     1
290
     0
176
     1
290
     0
176
     1
290
     0
176
     1
290
     0
176
     1
 90
       50
176
     1
 40
0.0
176
     1
 40
1.0
176
     1
 90
        0
176
     1
 62
    18
420
        0
176
     1
 90
       50
176
     1
 90
        3
176
     1
 62
     5
420
      255
176
     1
290
     0
176
     1
 90
       50
176
     1
 90
       50
176
     1
 90
       50
176
     1
290
     0
176
     1
 90
       50
176
     1
 62
   256
176
     0
 40
1.0
176
     0
 90
        2
176
     1
  1
strokes_ogs.tif
176
     1
290
     0
176
     1
 40
1.0
176
     1
 40
1.0
176
     1
1001
ACAD
1000
AcDbSavedByObjectVersion
1070
     0
  0
VISUALSTYLE
  5
3E
102
{ACAD_REACTORS
330
29
102
}
330
29
100
AcDbVisualStyle
  2
Shaded
 70
    27
177
     3
291
     0
 70
    58
 90
        2
176
     1
 90
        2
176
     1
 90
        1
176
     1
 90
        2
176
     1
 40
0.6
176
     1
 40
30.0
176
     1
 62
     7
420
 16777215
176
     1
 90
        0
176
     1
 90
        4
176
     1
 62
     7
176
     1
 62
   257
176
     1
 90
        1
176
     1
 90
        1
176
     1
 40
1.0
176
     1
 90
        8
176
     1
 62
   257
176
     1
 40
1.0
176
     1
 90
        1
176
     1
 90
        6
176
     1
 90
        2
176
     1
 62
     8
420
  7895160
176
     1
 90
        3
176
     1
 90
        0
176
     1
 90
        0
176
     1
290
     0
176
     1
 90
        5
176
     1
 40
0.0
176
     1
 90
        0
176
     1
290
     0
176
     1
290
     1
176
     1
290
     1
176
     1
290
     0
176
     1
290
     0
176
     1
290
     0
176
     1
290
     0
176
     1
290
     0
176
     1
290
     0
176
     1
 90
       50
176
     1
 40
0.0
176
     1
 40
1.0
176
     1
 90
        0
176
     1
 62
    18
420
        0
176
     1
 90
       50
176
     1
 90
        3
176
     1
 62
     5
420
      255
176
     1
290
     0
176
     1
 90
       50
176
     1
 90
       50
176
     1
 90
       50
176
     1
290
     0
176
     1
 90
       50
176
     1
 62
   256
176
     0
 40
1.0
176
     0
 90
        2
176
     1
  1
strokes_ogs.tif
176
     1
290
     0
176
     1
 40
1.0
176
     1
 40
1.0
176
     1
1001
ACAD
1000
AcDbSavedByObjectVersion
1070
     0
  0
VISUALSTYLE
  5
3D
102
{ACAD_REACTORS
330
29
102
}
330
29
100
AcDbVisualStyle
  2
Shaded with edges
 70
    26
177
     3
291
     0
 70
    58
 90
        2
176
     1
 90
        2
176
     1
 90
        1
176
     1
 90
        2
176
     1
 40
0.6
176
     1
 40
30.0
176
     1
 62
     7
420
 16777215
176
     1
 90
        1
176
     1
 90
        2
176
     1
 62
     7
176
     1
 62
   257
176
     1
 90
        2
176
     1
 90
        1
176
     1
 40
1.0
176
     1
 90
        8
176
     1
 62
   257
176
     1
 40
1.0
176
     1
 90
        1
176
     1
 90
        6
176
     1
 90
        2
176
     1
 62
     7
176
     1
 90
        3
176
     1
 90
        0
176
     1
 90
        0
176
     1
290
     0
176
     1
 90
        5
176
     1
 40
0.0
176
     1
 90
        0
176
     1
290
     0
176
     1
290
     1
176
     1
290
     1
176
     1
290
     0
176
     1
290
     0
176
     1
290
     0
176
     1
290
     0
176
     1
290
     0
176
     1
290
     0
176
     1
 90
       50
176
     1
 40
0.0
176
     1
 40
1.0
176
     1
 90
        0
176
     1
 62
    18
420
        0
176
     1
 90
       50
176
     1
 90
        3
176
     1
 62
     5
420
      255
176
     1
290
     0
176
     1
 90
       50
176
     1
 90
       50
176
     1
 90
       50
176
     1
290
     0
176
     1
 90
       50
176
     1
 62
   256
176
     0
 40
1.0
176
     0
 90
        2
176
     1
  1
strokes_ogs.tif
176
     1
290
     0
176
     1
 40
1.0
176
     1
 40
1.0
176
     1
1001
ACAD
1000
AcDbSavedByObjectVersion
1070
     0
  0
VISUALSTYLE
  5
3A
102
{ACAD_REACTORS
330
29
102
}
330
29
100
AcDbVisualStyle
  2
Shades of Gray
 70
    23
177
     3
291
     0
 70
    58
 90
        2
176
     1
 90
        2
176
     1
 90
        3
176
     1
 90
        0
176
     1
 40
0.6
176
     1
 40
30.0
176
     1
 62
     7
420
 16777215
176
     1
 90
        2
176
     1
 90
        2
176
     1
 62
     7
176
     1
 62
     7
176
     1
 90
        1
176
     1
 90
        1
176
     1
 40
40.0
176
     1
 90
        8
176
     1
 62
     7
176
     1
 40
1.0
176
     1
 90
        1
176
     1
 90
        6
176
     1
 90
        2
176
     1
 62
     7
176
     1
 90
        3
176
     1
 90
        0
176
     1
 90
        0
176
     1
290
     0
176
     1
 90
        1
176
     1
 40
0.0
176
     1
 90
        0
176
     1
290
     0
176
     1
290
     1
176
     1
290
     1
176
     1
290
     0
176
     1
290
     0
176
     1
290
     0
176
     1
290
     0
176
     1
290
     0
176
     1
290
     0
176
     1
 90
       50
176
     1
 40
0.0
176
     1
 40
1.0
176
     1
 90
        0
176
     1
 62
    18
420
        0
176
     1
 90
       50
176
     1
 90
        3
176
     1
 62
     5
420
      255
176
     1
290
     0
176
     1
 90
       50
176
     1
 90
       50
176
     1
 90
       50
176
     1
290
     0
176
     1
 90
       50
176
     1
 62
   256
176
     0
 40
1.0
176
     0
 90
        2
176
     1
  1
strokes_ogs.tif
176
     1
290
     0
176
     1
 40
1.0
176
     1
 40
1.0
176
     1
1001
ACAD
1000
AcDbSavedByObjectVersion
1070
     0
  0
VISUALSTYLE
  5
3B
102
{ACAD_REACTORS
330
29
102
}
330
29
100
AcDbVisualStyle
  2
Sketchy
 70
    24
177
     3
291
     0
 70
    58
 90
        1
176
     1
 90
        2
176
     1
 90
        2
176
     1
 90
        0
176
     1
 40
0.6
176
     1
 40
30.0
176
     1
 62
     7
420
 16777215
176
     1
 90
        2
176
     1
 90
        2
176
     1
 62
     7
176
     1
 62
     7
176
     1
 90
        1
176
     1
 90
        1
176
     1
 40
40.0
176
     1
 90
       11
176
     1
 62
     7
176
     1
 40
1.0
176
     1
 90
        1
176
     1
 90
        6
176
     1
 90
        2
176
     1
 62
     7
176
     1
 90
        6
176
     1
 90
        0
176
     1
 90
        0
176
     1
290
     0
176
     1
 90
        1
176
     1
 40
0.0
176
     1
 90
        0
176
     1
290
     0
176
     1
290
     1
176
     1
290
     1
176
     1
290
     0
176
     1
290
     0
176
     1
290
     0
176
     1
290
     0
176
     1
290
     0
176
     1
290
     0
176
     1
 90
       50
176
     1
 40
0.0
176
     1
 40
1.0
176
     1
 90
        0
176
     1
 62
    18
420
        0
176
     1
 90
       50
176
     1
 90
        3
176
     1
 62
     5
420
      255
176
     1
290
     0
176
     1
 90
       50
176
     1
 90
       50
176
     1
 90
       50
176
     1
290
     0
176
     1
 90
       50
176
     1
 62
   256
176
     0
 40
1.0
176
     0
 90
        2
176
     1
  1
strokes_ogs.tif
176
     1
290
     0
176
     1
 40
1.0
176
     1
 40
1.0
176
     1
1001
ACAD
1000
AcDbSavedByObjectVersion
1070
     0
  0
VISUALSTYLE
  5
36
102
{ACAD_REACTORS
330
29
102
}
330
29
100
AcDbVisualStyle
  2
Thicken
 70
    13
177
     3
291
     1
 70
    58
 90
        2
176
     1
 90
        2
176
     1
 90
        0
176
     1
 90
        0
176
     1
 40
0.6
176
     1
 40
30.0
176
     1
 62
     7
420
 16777215
176
     1
 90
        1
176
     1
 90
        4
176
     1
 62
     7
176
     1
 62
   257
176
     1
 90
        1
176
     1
 90
        1
176
     1
 40
1.0
176
     1
 90
       12
176
     1
 62
     7
176
     1
 40
1.0
176
     1
 90
        1
176
     1
 90
        6
176
     1
 90
        2
176
     1
 62
     7
176
     1
 90
        5
176
     1
 90
        0
176
     1
 90
        0
176
     1
290
     0
176
     1
 90
        1
176
     1
 40
0.0
176
     1
 90
        0
176
     1
290
     0
176
     1
290
     1
176
     1
290
     1
176
     1
290
     0
176
     1
290
     0
176
     1
290
     0
176
     1
290
     0
176
     1
290
     0
176
     1
290
     0
176
     1
 90
       50
176
     1
 40
0.0
176
     1
 40
1.0
176
     1
 90
        0
176
     1
 62
    18
420
        0
176
     1
 90
       50
176
     1
 90
        3
176
     1
 62
     5
420
      255
176
     1
290
     0
176
     1
 90
       50
176
     1
 90
       50
176
     1
 90
       50
176
     1
290
     0
176
     1
 90
       50
176
     1
 62
   256
176
     0
 40
1.0
176
     0
 90
        2
176
     1
  1
strokes_ogs.tif
176
     1
290
     0
176
     1
 40
1.0
176
     1
 40
1.0
176
     1
1001
ACAD
1000
AcDbSavedByObjectVersion
1070
     0
  0
VISUALSTYLE
  5
30
102
{ACAD_REACTORS
330
29
102
}
330
29
100
AcDbVisualStyle
  2
Wireframe
 70
     5
177
     3
291
     0
 70
    58
 90
        0
176
     1
 90
        2
176
     1
 90
        0
176
     1
 90
        0
176
     1
 40
0.6
176
     1
 40
30.0
176
     1
 62
     7
420
 16777215
176
     1
 90
        1
176
     1
 90
        4
176
     1
 62
     7
176
     1
 62
   257
176
     1
 90
        1
176
     1
 90
        1
176
     1
 40
1.0
176
     1
 90
        0
176
     1
 62
   257
176
     1
 40
1.0
176
     1
 90
        1
176
     1
 90
        6
176
     1
 90
        2
176
     1
 62
     7
176
     1
 90
        3
176
     1
 90
        0
176
     1
 90
        0
176
     1
290
     0
176
     1
 90
        1
176
     1
 40
0.0
176
     1
 90
        0
176
     1
290
     0
176
     1
290
     1
176
     1
290
     1
176
     1
290
     0
176
     1
290
     0
176
     1
290
     0
176
     1
290
     0
176
     1
290
     0
176
     1
290
     0
176
     1
 90
       50
176
     1
 40
0.0
176
     1
 40
1.0
176
     1
 90
        0
176
     1
 62
    18
420
        0
176
     1
 90
       50
176
     1
 90
        3
176
     1
 62
     5
420
      255
176
     1
290
     0
176
     1
 90
       50
176
     1
 90
       50
176
     1
 90
       50
176
     1
290
     0
176
     1
 90
       50
176
     1
 62
   256
176
     0
 40
1.0
176
     0
 90
        2
176
     1
  1
strokes_ogs.tif
176
     1
290
     0
176
     1
 40
1.0
176
     1
 40
1.0
176
     1
1001
ACAD
1000
AcDbSavedByObjectVersion
1070
     0
  0
VISUALSTYLE
  5
3C
102
{ACAD_REACTORS
330
29
102
}
330
29
100
AcDbVisualStyle
  2
X-Ray
 70
    25
177
     3
291
     0
 70
    58
 90
        2
176
     1
 90
        2
176
     1
 90
        1
176
     1
 90
        1
176
     1
 40
0.5
176
     1
 40
30.0
176
     1
 62
     7
420
 16777215
176
     1
 90
        1
176
     1
 90
        0
176
     1
 62
     7
176
     1
 62
   257
176
     1
 90
        1
176
     1
 90
        1
176
     1
 40
1.0
176
     1
 90
        8
176
     1
 62
     7
176
     1
 40
1.0
176
     1
 90
        1
176
     1
 90
        6
176
     1
 90
        2
176
     1
 62
     7
176
     1
 90
        3
176
     1
 90
        0
176
     1
 90
        0
176
     1
290
     0
176
     1
 90
       13
176
     1
 40
0.0
176
     1
 90
        0
176
     1
290
     0
176
     1
290
     1
176
     1
290
     1
176
     1
290
     0
176
     1
290
     0
176
     1
290
     0
176
     1
290
     0
176
     1
290
     0
176
     1
290
     0
176
     1
 90
       50
176
     1
 40
0.0
176
     1
 40
1.0
176
     1
 90
        0
176
     1
 62
    18
420
        0
176
     1
 90
       50
176
     1
 90
        3
176
     1
 62
     5
420
      255
176
     1
290
     0
176
     1
 90
       50
176
     1
 90
       50
176
     1
 90
       50
176
     1
290
     0
176
     1
 90
       50
176
     1
 62
   256
176
     0
 40
1.0
176
     0
 90
        2
176
     1
  1
strokes_ogs.tif
176
     1
290
     0
176
     1
 40
1.0
176
     1
 40
1.0
176
     1
1001
ACAD
1000
AcDbSavedByObjectVersion
1070
     0
  0
DICTIONARYVAR
  5
8E
102
{ACAD_REACTORS
330
89
102
}
330
89
100
DictionaryVariables
280
     0
  1
1:1
  0
DICTIONARYVAR
  5
8B
102
{ACAD_REACTORS
330
89
102
}
330
89
100
DictionaryVariables
280
     0
  1
STANDARD
  0
DICTIONARYVAR
  5
8A
102
{ACAD_REACTORS
330
89
102
}
330
89
100
DictionaryVariables
280
     0
  1
STANDARD
  0
DICTIONARYVAR
  5
8C
102
{ACAD_REACTORS
330
89
102
}
330
89
100
DictionaryVariables
280
     0
  1
Imperial24
  0
DICTIONARYVAR
  5
8D
102
{ACAD_REACTORS
330
89
102
}
330
89
100
DictionaryVariables
280
     0
  1
Imperial24
  0
DICTIONARY
  5
94
330
6B
100
AcDbDictionary
280
     1
281
     1
  3
ACAD_XREC_ROUNDTRIP
360
95
  0
DICTIONARY
  5
1A
330
19
100
AcDbDictionary
280
     1
281
     1
  3
BUMPTILE
360
1C
  3
DIFFUSETILE
360
1B
  3
OPACITYTILE
360
1F
  3
REFLECTIONTILE
360
1E
  3
REFRACTIONTILE
360
20
  3
SPECULARTILE
360
1D
  0
DICTIONARY
  5
12
330
11
100
AcDbDictionary
280
     1
281
     1
  3
BUMPTILE
360
14
  3
DIFFUSETILE
360
13
  3
OPACITYTILE
360
17
  3
REFLECTIONTILE
360
16
  3
REFRACTIONTILE
360
18
  3
SPECULARTILE
360
15
  0
DICTIONARY
  5
22
330
21
100
AcDbDictionary
280
     1
281
     1
  3
BUMPTILE
360
24
  3
DIFFUSETILE
360
23
  3
OPACITYTILE
360
27
  3
REFLECTIONTILE
360
26
  3
REFRACTIONTILE
360
28
  3
SPECULARTILE
360
25
  0
DICTIONARY
  5
92
330
69
100
AcDbDictionary
280
     1
281
     1
  3
ACAD_XREC_ROUNDTRIP
360
93
  0
DICTIONARY
  5
8F
330
65
100
AcDbDictionary
280
     1
281
     1
  3
ACAD_ROUNDTRIP_2008_TABLESTYLE_CELLSTYLEMAP
360
90
  0
XRECORD
  5
95
102
{ACAD_REACTORS
330
94
102
}
330
94
100
AcDbXrecord
280
     1
102
DISPLAYNAME
  1
Imperial24
102
FLAGS
 90
        0
  0
XRECORD
  5
1C
102
{ACAD_REACTORS
330
1A
102
}
330
1A
100
AcDbXrecord
280
     1
270
     1
271
     1
  0
XRECORD
  5
1B
102
{ACAD_REACTORS
330
1A
102
}
330
1A
100
AcDbXrecord
280
     1
270
     1
271
     1
  0
XRECORD
  5
1F
102
{ACAD_REACTORS
330
1A
102
}
330
1A
100
AcDbXrecord
280
     1
270
     1
271
     1
  0
XRECORD
  5
1E
102
{ACAD_REACTORS
330
1A
102
}
330
1A
100
AcDbXrecord
280
     1
270
     1
271
     1
  0
XRECORD
  5
20
102
{ACAD_REACTORS
330
1A
102
}
330
1A
100
AcDbXrecord
280
     1
270
     1
271
     1
  0
XRECORD
  5
1D
102
{ACAD_REACTORS
330
1A
102
}
330
1A
100
AcDbXrecord
280
     1
270
     1
271
     1
  0
XRECORD
  5
14
102
{ACAD_REACTORS
330
12
102
}
330
12
100
AcDbXrecord
280
     1
270
     1
271
     1
  0
XRECORD
  5
13
102
{ACAD_REACTORS
330
12
102
}
330
12
100
AcDbXrecord
280
     1
270
     1
271
     1
  0
XRECORD
  5
17
102
{ACAD_REACTORS
330
12
102
}
330
12
100
AcDbXrecord
280
     1
270
     1
271
     1
  0
XRECORD
  5
16
102
{ACAD_REACTORS
330
12
102
}
330
12
100
AcDbXrecord
280
     1
270
     1
271
     1
  0
XRECORD
  5
18
102
{ACAD_REACTORS
330
12
102
}
330
12
100
AcDbXrecord
280
     1
270
     1
271
     1
  0
XRECORD
  5
15
102
{ACAD_REACTORS
330
12
102
}
330
12
100
AcDbXrecord
280
     1
270
     1
271
     1
  0
XRECORD
  5
24
102
{ACAD_REACTORS
330
22
102
}
330
22
100
AcDbXrecord
280
     1
270
     1
271
     1
  0
XRECORD
  5
23
102
{ACAD_REACTORS
330
22
102
}
330
22
100
AcDbXrecord
280
     1
270
     1
271
     1
  0
XRECORD
  5
27
102
{ACAD_REACTORS
330
22
102
}
330
22
100
AcDbXrecord
280
     1
270
     1
271
     1
  0
XRECORD
  5
26
102
{ACAD_REACTORS
330
22
102
}
330
22
100
AcDbXrecord
280
     1
270
     1
271
     1
  0
XRECORD
  5
28
102
{ACAD_REACTORS
330
22
102
}
330
22
100
AcDbXrecord
280
     1
270
     1
271
     1
  0
XRECORD
  5
25
102
{ACAD_REACTORS
330
22
102
}
330
22
100
AcDbXrecord
280
     1
270
     1
271
     1
  0
XRECORD
  5
93
102
{ACAD_REACTORS
330
92
102
}
330
92
100
AcDbXrecord
280
     1
102
DISPLAYNAME
  1
Imperial24
102
FLAGS
 90
        0
  0
CELLSTYLEMAP
  5
90
102
{ACAD_REACTORS
330
8F
102
}
330
8F
100
AcDbCellStyleMap
 90
        3
300
CELLSTYLE
  1
TABLEFORMAT_BEGIN
 90
        5
170
     1
 91
        0
 92
    32768
 62
   257
 93
        1
300
CONTENTFORMAT
  1
CONTENTFORMAT_BEGIN
 90
        0
 91
        0
 92
      512
 93
        0
300

 40
0.0
140
1.0
 94
        5
 62
     0
340
55
144
0.25
309
CONTENTFORMAT_END
171
     0
 94
        0
309
TABLEFORMAT_END
  1
CELLSTYLE_BEGIN
 90
        1
 91
        1
300
_TITLE
309
CELLSTYLE_END
300
CELLSTYLE
  1
TABLEFORMAT_BEGIN
 90
        5
170
     1
 91
        0
 92
        0
 62
   257
 93
        1
300
CONTENTFORMAT
  1
CONTENTFORMAT_BEGIN
 90
        0
 91
        0
 92
      512
 93
        0
300

 40
0.0
140
1.0
 94
        5
 62
     0
340
55
144
0.18
309
CONTENTFORMAT_END
171
     0
 94
        0
309
TABLEFORMAT_END
  1
CELLSTYLE_BEGIN
 90
        2
 91
        1
300
_HEADER
309
CELLSTYLE_END
300
CELLSTYLE
  1
TABLEFORMAT_BEGIN
 90
        5
170
     1
 91
        0
 92
        0
 62
   257
 93
        1
300
CONTENTFORMAT
  1
CONTENTFORMAT_BEGIN
 90
        0
 91
        0
 92
      512
 93
        0
300

 40
0.0
140
1.0
 94
        2
 62
     0
340
55
144
0.18
309
CONTENTFORMAT_END
171
     0
 94
        0
309
TABLEFORMAT_END
  1
CELLSTYLE_BEGIN
 90
        3
 91
        2
300
_DATA
309
CELLSTYLE_END
  0
ENDSEC
  0
EOF
