  0
SECTION
  2
HEADER
  9
$ACADVER
  1
AC1027
  9
$ACADMAINTVER
 70
   125
  9
$DWGCODEPAGE
  3
ANSI_1251
  9
$REQUIREDVERSIONS
160
                 0
  9
$INSBASE
 10
0.0
 20
0.0
 30
0.0
  9
$EXTMIN
 10
1.000000000000000E+20
 20
1.000000000000000E+20
 30
1.000000000000000E+20
  9
$EXTMAX
 10
-1.000000000000000E+20
 20
-1.000000000000000E+20
 30
-1.000000000000000E+20
  9
$LIMMIN
 10
0.0
 20
0.0
  9
$LIMMAX
 10
12.0
 20
9.0
  9
$ORTHOMODE
 70
     0
  9
$REGENMODE
 70
     1
  9
$FILLMODE
 70
     1
  9
$QTEXTMODE
 70
     0
  9
$MIRRTEXT
 70
     0
  9
$LTSCALE
 40
1.0
  9
$ATTMODE
 70
     1
  9
$TEXTSIZE
 40
0.2
  9
$TRACEWID
 40
0.05
  9
$TEXTSTYLE
  7
Standard
  9
$CLAYER
  8
0
  9
$CELTYPE
  6
ByLayer
  9
$CECOLOR
 62
   256
  9
$CELTSCALE
 40
1.0
  9
$DISPSILH
 70
     0
  9
$DIMSCALE
 40
1.0
  9
$DIMASZ
 40
0.18
  9
$DIMEXO
 40
0.0625
  9
$DIMDLI
 40
0.38
  9
$DIMRND
 40
0.0
  9
$DIMDLE
 40
0.0
  9
$DIMEXE
 40
0.18
  9
$DIMTP
 40
0.0
  9
$DIMTM
 40
0.0
  9
$DIMTXT
 40
0.18
  9
$DIMCEN
 40
0.09
  9
$DIMTSZ
 40
0.0
  9
$DIMTOL
 70
     0
  9
$DIMLIM
 70
     0
  9
$DIMTIH
 70
     1
  9
$DIMTOH
 70
     1
  9
$DIMSE1
 70
     0
  9
$DIMSE2
 70
     0
  9
$DIMTAD
 70
     0
  9
$DIMZIN
 70
     0
  9
$DIMBLK
  1

  9
$DIMASO
 70
     1
  9
$DIMSHO
 70
     1
  9
$DIMPOST
  1

  9
$DIMAPOST
  1

  9
$DIMALT
 70
     0
  9
$DIMALTD
 70
     2
  9
$DIMALTF
 40
25.4
  9
$DIMLFAC
 40
1.0
  9
$DIMTOFL
 70
     0
  9
$DIMTVP
 40
0.0
  9
$DIMTIX
 70
     0
  9
$DIMSOXD
 70
     0
  9
$DIMSAH
 70
     0
  9
$DIMBLK1
  1

  9
$DIMBLK2
  1

  9
$DIMSTYLE
  2
Standard
  9
$DIMCLRD
 70
     0
  9
$DIMCLRE
 70
     0
  9
$DIMCLRT
 70
     0
  9
$DIMTFAC
 40
1.0
  9
$DIMGAP
 40
0.09
  9
$DIMJUST
 70
     0
  9
$DIMSD1
 70
     0
  9
$DIMSD2
 70
     0
  9
$DIMTOLJ
 70
     1
  9
$DIMTZIN
 70
     0
  9
$DIMALTZ
 70
     0
  9
$DIMALTTZ
 70
     0
  9
$DIMUPT
 70
     0
  9
$DIMDEC
 70
     4
  9
$DIMTDEC
 70
     4
  9
$DIMALTU
 70
     2
  9
$DIMALTTD
 70
     2
  9
$DIMTXSTY
  7
Standard
  9
$DIMAUNIT
 70
     0
  9
$DIMADEC
 70
     0
  9
$DIMALTRND
 40
0.0
  9
$DIMAZIN
 70
     0
  9
$DIMDSEP
 70
    46
  9
$DIMATFIT
 70
     3
  9
$DIMFRAC
 70
     0
  9
$DIMLDRBLK
  1

  9
$DIMLUNIT
 70
     2
  9
$DIMLWD
 70
    -2
  9
$DIMLWE
 70
    -2
  9
$DIMTMOVE
 70
     0
  9
$DIMFXL
 40
1.0
  9
$DIMFXLON
 70
     0
  9
$DIMJOGANG
 40
0.7853981633974483
  9
$DIMTFILL
 70
     0
  9
$DIMTFILLCLR
 70
     0
  9
$DIMARCSYM
 70
     0
  9
$DIMLTYPE
  6

  9
$DIMLTEX1
  6

  9
$DIMLTEX2
  6

  9
$DIMTXTDIRECTION
 70
     0
  9
$LUNITS
 70
     2
  9
$LUPREC
 70
     4
  9
$SKETCHINC
 40
0.1
  9
$FILLETRAD
 40
0.0
  9
$AUNITS
 70
     0
  9
$AUPREC
 70
     0
  9
$MENU
  1
.
  9
$ELEVATION
 40
0.0
  9
$PELEVATION
 40
0.0
  9
$THICKNESS
 40
0.0
  9
$LIMCHECK
 70
     0
  9
$CHAMFERA
 40
0.0
  9
$CHAMFERB
 40
0.0
  9
$CHAMFERC
 40
0.0
  9
$CHAMFERD
 40
0.0
  9
$SKPOLY
 70
     0
  9
$TDCREATE
 40
2459954.679953704
  9
$TDUCREATE
 40
2459954.596620370
  9
$TDUPDATE
 40
2459954.679953704
  9
$TDUUPDATE
 40
2459954.596620370
  9
$TDINDWG
 40
0.0000000000
  9
$TDUSRTIMER
 40
0.0000000000
  9
$USRTIMER
 70
     1
  9
$ANGBASE
 50
0.0
  9
$ANGDIR
 70
     0
  9
$PDMODE
 70
     0
  9
$PDSIZE
 40
0.0
  9
$PLINEWID
 40
0.0
  9
$SPLFRAME
 70
     0
  9
$SPLINETYPE
 70
     6
  9
$SPLINESEGS
 70
     8
  9
$HANDSEED
  5
A4
  9
$SURFTAB1
 70
     6
  9
$SURFTAB2
 70
     6
  9
$SURFTYPE
 70
     6
  9
$SURFU
 70
     6
  9
$SURFV
 70
     6
  9
$UCSBASE
  2

  9
$UCSNAME
  2

  9
$UCSORG
 10
0.0
 20
0.0
 30
0.0
  9
$UCSXDIR
 10
1.0
 20
0.0
 30
0.0
  9
$UCSYDIR
 10
0.0
 20
1.0
 30
0.0
  9
$UCSORTHOREF
  2

  9
$UCSORTHOVIEW
 70
     0
  9
$UCSORGTOP
 10
0.0
 20
0.0
 30
0.0
  9
$UCSORGBOTTOM
 10
0.0
 20
0.0
 30
0.0
  9
$UCSORGLEFT
 10
0.0
 20
0.0
 30
0.0
  9
$UCSORGRIGHT
 10
0.0
 20
0.0
 30
0.0
  9
$UCSORGFRONT
 10
0.0
 20
0.0
 30
0.0
  9
$UCSORGBACK
 10
0.0
 20
0.0
 30
0.0
  9
$PUCSBASE
  2

  9
$PUCSNAME
  2

  9
$PUCSORG
 10
0.0
 20
0.0
 30
0.0
  9
$PUCSXDIR
 10
1.0
 20
0.0
 30
0.0
  9
$PUCSYDIR
 10
0.0
 20
1.0
 30
0.0
  9
$PUCSORTHOREF
  2

  9
$PUCSORTHOVIEW
 70
     0
  9
$PUCSORGTOP
 10
0.0
 20
0.0
 30
0.0
  9
$PUCSORGBOTTOM
 10
0.0
 20
0.0
 30
0.0
  9
$PUCSORGLEFT
 10
0.0
 20
0.0
 30
0.0
  9
$PUCSORGRIGHT
 10
0.0
 20
0.0
 30
0.0
  9
$PUCSORGFRONT
 10
0.0
 20
0.0
 30
0.0
  9
$PUCSORGBACK
 10
0.0
 20
0.0
 30
0.0
  9
$USERI1
 70
     0
  9
$USERI2
 70
     0
  9
$USERI3
 70
     0
  9
$USERI4
 70
     0
  9
$USERI5
 70
     0
  9
$USERR1
 40
0.0
  9
$USERR2
 40
0.0
  9
$USERR3
 40
0.0
  9
$USERR4
 40
0.0
  9
$USERR5
 40
0.0
  9
$WORLDVIEW
 70
     1
  9
$SHADEDGE
 70
     3
  9
$SHADEDIF
 70
    70
  9
$TILEMODE
 70
     1
  9
$MAXACTVP
 70
    64
  9
$PINSBASE
 10
0.0
 20
0.0
 30
0.0
  9
$PLIMCHECK
 70
     0
  9
$PEXTMIN
 10
1.000000000000000E+20
 20
1.000000000000000E+20
 30
1.000000000000000E+20
  9
$PEXTMAX
 10
-1.000000000000000E+20
 20
-1.000000000000000E+20
 30
-1.000000000000000E+20
  9
$PLIMMIN
 10
0.0
 20
0.0
  9
$PLIMMAX
 10
12.0
 20
9.0
  9
$UNITMODE
 70
     0
  9
$VISRETAIN
 70
     1
  9
$PLINEGEN
 70
     0
  9
$PSLTSCALE
 70
     1
  9
$TREEDEPTH
 70
  3020
  9
$CMLSTYLE
  2
Standard
  9
$CMLJUST
 70
     0
  9
$CMLSCALE
 40
1.0
  9
$PROXYGRAPHICS
 70
     1
  9
$MEASUREMENT
 70
     0
  9
$CELWEIGHT
370
    -1
  9
$ENDCAPS
280
     0
  9
$JOINSTYLE
280
     0
  9
$LWDISPLAY
290
     1
  9
$INSUNITS
 70
     1
  9
$HYPERLINKBASE
  1

  9
$STYLESHEET
  1

  9
$XEDIT
290
     1
  9
$CEPSNTYPE
380
     0
  9
$PSTYLEMODE
290
     1
  9
$FINGERPRINTGUID
  2
{0FA7066F-9576-E946-A5D5-66F9773816DB}
  9
$VERSIONGUID
  2
{9DD3D875-5EA3-8045-9762-48BFCD88F841}
  9
$EXTNAMES
290
     1
  9
$PSVPSCALE
 40
0.0
  9
$OLESTARTUP
290
     0
  9
$SORTENTS
280
   127
  9
$INDEXCTL
280
     0
  9
$HIDETEXT
280
     1
  9
$XCLIPFRAME
280
     2
  9
$HALOGAP
280
     0
  9
$OBSCOLOR
 70
   257
  9
$OBSLTYPE
280
     0
  9
$INTERSECTIONDISPLAY
280
     0
  9
$INTERSECTIONCOLOR
 70
   257
  9
$DIMASSOC
280
     2
  9
$PROJECTNAME
  1

  9
$CAMERADISPLAY
290
     0
  9
$LENSLENGTH
 40
50.0
  9
$CAMERAHEIGHT
 40
0.0
  9
$STEPSPERSEC
 40
2.0
  9
$STEPSIZE
 40
6.0
  9
$3DDWFPREC
 40
2.0
  9
$PSOLWIDTH
 40
0.25
  9
$PSOLHEIGHT
 40
4.0
  9
$LOFTANG1
 40
1.570796326794896
  9
$LOFTANG2
 40
1.570796326794896
  9
$LOFTMAG1
 40
0.0
  9
$LOFTMAG2
 40
0.0
  9
$LOFTPARAM
 70
     7
  9
$LOFTNORMALS
280
     1
  9
$LATITUDE
 40
37.795
  9
$LONGITUDE
 40
-122.394
  9
$NORTHDIRECTION
 40
0.0
  9
$TIMEZONE
 70
 -8000
  9
$LIGHTGLYPHDISPLAY
280
     1
  9
$TILEMODELIGHTSYNCH
280
     1
  9
$CMATERIAL
347
11
  9
$SOLIDHIST
280
     0
  9
$SHOWHIST
280
     1
  9
$DWFFRAME
280
     2
  9
$DGNFRAME
280
     0
  9
$REALWORLDSCALE
290
     1
  9
$INTERFERECOLOR
 62
     1
  9
$INTERFEREOBJVS
345
33
  9
$INTERFEREVPVS
346
30
  9
$CSHADOW
280
     0
  9
$SHADOWPLANELOCATION
 40
0.0
  0
ENDSEC
  0
SECTION
  2
CLASSES
  0
CLASS
  1
ACDBDICTIONARYWDFLT
  2
AcDbDictionaryWithDefault
  3
ObjectDBX Classes
 90
        0
 91
        1
280
     0
281
     0
  0
CLASS
  1
MATERIAL
  2
AcDbMaterial
  3
ObjectDBX Classes
 90
     1153
 91
        3
280
     0
281
     0
  0
CLASS
  1
VISUALSTYLE
  2
AcDbVisualStyle
  3
ObjectDBX Classes
 90
     4095
 91
       24
280
     0
281
     0
  0
CLASS
  1
SCALE
  2
AcDbScale
  3
ObjectDBX Classes
 90
     1153
 91
       17
280
     0
281
     0
  0
CLASS
  1
TABLESTYLE
  2
AcDbTableStyle
  3
ObjectDBX Classes
 90
     4095
 91
        1
280
     0
281
     0
  0
CLASS
  1
MLEADERSTYLE
  2
AcDbMLeaderStyle
  3
ACDB_MLEADERSTYLE_CLASS
 90
     4095
 91
        1
280
     0
281
     0
  0
CLASS
  1
ACDBSECTIONVIEWSTYLE
  2
AcDbSectionViewStyle
  3
ObjectDBX Classes
 90
     1025
 91
        1
280
     0
281
     0
  0
CLASS
  1
ACDBDETAILVIEWSTYLE
  2
AcDbDetailViewStyle
  3
ObjectDBX Classes
 90
     1025
 91
        1
280
     0
281
     0
  0
CLASS
  1
DICTIONARYVAR
  2
AcDbDictionaryVar
  3
ObjectDBX Classes
 90
        0
 91
        5
280
     0
281
     0
  0
CLASS
  1
CELLSTYLEMAP
  2
AcDbCellStyleMap
  3
ObjectDBX Classes
 90
     1152
 91
        1
280
     0
281
     0
  0
ENDSEC
  0
SECTION
  2
TABLES
  0
TABLE
  2
VPORT
  5
8
330
0
100
AcDbSymbolTable
 70
     1
1001
ACAD
1000
DbSaveVer
1071
      278
  0
VPORT
  5
57
330
8
100
AcDbSymbolTableRecord
100
AcDbViewportTableRecord
  2
*Active
 70
     0
 10
0.0
 20
0.0
 11
1.0
 21
1.0
 12
0.0
 22
0.0
 13
0.0
 23
0.0
 14
1.0
 24
1.0
 15
0.0
 25
0.0
 16
0.0
 26
0.0
 36
1.0
 17
20.77777777777779
 27
-6.0
 37
0.0
 40
12.24
 41
1.000000000000001
 42
50.0
 43
0.0
 44
0.0
 50
0.0
 51
0.0
 71
     0
 72
   100
 73
     1
 74
     1
 75
     0
 76
     0
 77
     0
 78
     0
281
     0
 65
     1
110
0.0
120
0.0
130
0.0
111
1.0
121
0.0
131
0.0
112
0.0
122
1.0
132
0.0
 79
     0
146
0.0
 60
     3
 61
     5
292
     1
282
     1
141
0.0
142
0.0
 63
   250
421
  3355443
  0
ENDTAB
  0
TABLE
  2
LTYPE
  5
5
330
0
100
AcDbSymbolTable
 70
     1
  0
LTYPE
  5
5B
330
5
100
AcDbSymbolTableRecord
100
AcDbLinetypeTableRecord
  2
ByBlock
 70
     0
  3

 72
    65
 73
     0
 40
0.0
  0
LTYPE
  5
5C
330
5
100
AcDbSymbolTableRecord
100
AcDbLinetypeTableRecord
  2
ByLayer
 70
     0
  3

 72
    65
 73
     0
 40
0.0
  0
LTYPE
  5
5D
330
5
100
AcDbSymbolTableRecord
100
AcDbLinetypeTableRecord
  2
Continuous
 70
     0
  3
Solid line
 72
    65
 73
     0
 40
0.0
  0
ENDTAB
  0
TABLE
  2
LAYER
  5
2
330
0
100
AcDbSymbolTable
 70
     2
  0
LAYER
  5
54
330
2
100
AcDbSymbolTableRecord
100
AcDbLayerTableRecord
  2
0
 70
     0
 62
     7
  6
Continuous
370
    -3
390
F
347
21
348
0
  0
LAYER
  5
78
330
2
100
AcDbSymbolTableRecord
100
AcDbLayerTableRecord
  2
Слой 1
 70
     0
 62
     7
  6
Continuous
370
     0
390
F
347
21
348
0
  0
ENDTAB
  0
TABLE
  2
STYLE
  5
3
330
0
100
AcDbSymbolTable
 70
     2
  0
STYLE
  5
55
330
3
100
AcDbSymbolTableRecord
100
AcDbTextStyleTableRecord
  2
Standard
 70
     0
 40
0.0
 41
1.0
 50
0.0
 71
     0
 42
0.2
  3
txt
  4

  0
STYLE
  5
5A
330
3
100
AcDbSymbolTableRecord
100
AcDbTextStyleTableRecord
  2
Annotative
 70
     0
 40
0.0
 41
1.0
 50
0.0
 71
     0
 42
0.2
  3
txt
  4

1001
AcadAnnotative
1000
AnnotativeData
1002
{
1070
     1
1070
     1
1002
}
  0
ENDTAB
  0
TABLE
  2
VIEW
  5
6
330
0
100
AcDbSymbolTable
 70
     0
  0
ENDTAB
  0
TABLE
  2
UCS
  5
7
330
0
100
AcDbSymbolTable
 70
     0
  0
ENDTAB
  0
TABLE
  2
APPID
  5
9
330
0
100
AcDbSymbolTable
 70
     2
  0
APPID
  5
56
330
9
100
AcDbSymbolTableRecord
100
AcDbRegAppTableRecord
  2
ACAD
 70
     0
  0
APPID
  5
5E
330
9
100
AcDbSymbolTableRecord
100
AcDbRegAppTableRecord
  2
AcadAnnotative
 70
     0
  0
ENDTAB
  0
TABLE
  2
DIMSTYLE
  5
A
330
0
100
AcDbSymbolTable
 70
     2
100
AcDbDimStyleTable
 71
     0
  0
DIMSTYLE
105
58
330
A
100
AcDbSymbolTableRecord
100
AcDbDimStyleTableRecord
  2
Standard
 70
     0
340
55
  0
DIMSTYLE
105
59
330
A
100
AcDbSymbolTableRecord
100
AcDbDimStyleTableRecord
  2
Annotative
 70
     0
340
55
1001
AcadAnnotative
1000
AnnotativeData
1002
{
1070
     1
1070
     1
1002
}
  0
ENDTAB
  0
TABLE
  2
BLOCK_RECORD
  5
1
330
0
100
AcDbSymbolTable
 70
     2
  0
BLOCK_RECORD
  5
70
330
1
100
AcDbSymbolTableRecord
100
AcDbBlockTableRecord
  2
*Model_Space
340
73
 70
     0
280
     1
281
     0
  0
BLOCK_RECORD
  5
6C
330
1
100
AcDbSymbolTableRecord
100
AcDbBlockTableRecord
  2
*Paper_Space
340
6F
 70
     0
280
     1
281
     0
  0
BLOCK_RECORD
  5
74
330
1
100
AcDbSymbolTableRecord
100
AcDbBlockTableRecord
  2
*Paper_Space0
340
77
 70
     0
280
     1
281
     0
  0
BLOCK_RECORD
  5
79
330
1
100
AcDbSymbolTableRecord
100
AcDbBlockTableRecord
  2
Block_0
340
0
102
{BLKREFS
331
7A
102
}
 70
     0
280
     1
281
     0
  0
ENDTAB
  0
ENDSEC
  0
SECTION
  2
BLOCKS
  0
BLOCK
  5
71
330
70
100
AcDbEntity
  8
0
100
AcDbBlockBegin
  2
*Model_Space
 70
     0
 10
0.0
 20
0.0
 30
0.0
  3
*Model_Space
  1

  0
ENDBLK
  5
72
330
70
100
AcDbEntity
  8
0
100
AcDbBlockEnd
  0
BLOCK
  5
6D
330
6C
100
AcDbEntity
 67
     1
  8
0
100
AcDbBlockBegin
  2
*Paper_Space
 70
     0
 10
0.0
 20
0.0
 30
0.0
  3
*Paper_Space
  1

  0
ENDBLK
  5
6E
330
6C
100
AcDbEntity
 67
     1
  8
0
100
AcDbBlockEnd
  0
BLOCK
  5
75
330
74
100
AcDbEntity
 67
     1
  8
0
100
AcDbBlockBegin
  2
*Paper_Space0
 70
     0
 10
0.0
 20
0.0
 30
0.0
  3
*Paper_Space0
  1

  0
ENDBLK
  5
76
330
74
100
AcDbEntity
 67
     1
  8
0
100
AcDbBlockEnd
  0
BLOCK
  5
7B
330
79
100
AcDbEntity
  8
0
100
AcDbBlockBegin
  2
Block_0
 70
     0
 10
0.0
 20
0.0
 30
0.0
  3
Block_0
  1

  0
SPLINE
  5
7D
330
79
100
AcDbEntity
  8
Слой 1
100
AcDbSpline
210
0.0
220
0.0
230
1.0
 70
     9
 71
     3
 72
    71
 73
    67
 74
     0
 42
0.0000000001
 43
0.0000000001
 40
0.0
 40
0.0
 40
0.0
 40
0.0
 40
1.0
 40
1.0
 40
1.0
 40
2.0
 40
2.0
 40
2.0
 40
3.0
 40
3.0
 40
3.0
 40
4.0
 40
4.0
 40
4.0
 40
5.0
 40
5.0
 40
5.0
 40
6.0
 40
6.0
 40
6.0
 40
7.0
 40
7.0
 40
7.0
 40
8.0
 40
8.0
 40
8.0
 40
9.0
 40
9.0
 40
9.0
 40
10.0
 40
10.0
 40
10.0
 40
11.0
 40
11.0
 40
11.0
 40
12.0
 40
12.0
 40
12.0
 40
13.0
 40
13.0
 40
13.0
 40
14.0
 40
14.0
 40
14.0
 40
15.0
 40
15.0
 40
15.0
 40
16.0
 40
16.0
 40
16.0
 40
17.0
 40
17.0
 40
17.0
 40
18.0
 40
18.0
 40
18.0
 40
19.0
 40
19.0
 40
19.0
 40
20.0
 40
20.0
 40
20.0
 40
21.0
 40
21.0
 40
21.0
 40
22.0
 40
22.0
 40
22.0
 40
22.0
 10
22.51699845262763
 20
-7.756869329383991
 30
0.0
 10
22.51202324127945
 20
-7.747155753364999
 30
0.0
 10
22.50704874547945
 20
-7.73744217734606
 30
0.0
 10
22.50207353413069
 20
-7.727728601327068
 30
0.0
 10
22.31976098215028
 20
-7.784307766659871
 30
0.0
 10
22.13458766575541
 20
-7.827409568875534
 30
0.0
 10
21.94653641177375
 20
-7.855972133439131
 30
0.0
 10
21.36172904701319
 20
-7.944798224507849
 30
0.0
 10
20.78735366934499
 20
-7.899091108827633
 30
0.0
 10
20.22508180094832
 20
-7.715303095060638
 30
0.0
 10
20.15766958337723
 20
-7.693269198460054
 30
0.0
 10
20.12304560426777
 20
-7.70396880083298
 30
0.0
 10
20.0877175250632
 20
-7.768151388543426
 30
0.0
 10
19.97304401964834
 20
-7.976484875472477
 30
0.0
 10
19.85246151159903
 20
-8.181617712270053
 30
0.0
 10
19.73132910423737
 20
-8.386311917605882
 30
0.0
 10
19.69778202618972
 20
-8.443000561916505
 30
0.0
 10
19.69419641076208
 20
-8.472167765281836
 30
0.0
 10
19.77107355111709
 20
-8.487007533462676
 30
0.0
 10
19.98534752483111
 20
-8.52837198300272
 30
0.0
 10
20.19902866630001
 20
-8.573244053142641
 30
0.0
 10
20.41174596342999
 20
-8.62196362959907
 30
0.0
 10
20.47479118619902
 20
-8.636402690408431
 30
0.0
 10
20.50263891743334
 20
-8.613672564749776
 30
0.0
 10
20.53055319471307
 20
-8.562298301955756
 30
0.0
 10
20.59382166873221
 20
-8.445856317488807
 30
0.0
 10
20.66111975625722
 20
-8.331485131475346
 30
0.0
 10
20.73014374767639
 20
-8.218323223065402
 30
0.0
 10
20.80161169628778
 20
-8.101154240938386
 30
0.0
 10
20.91704404128806
 20
-8.06647516456562
 30
0.0
 10
21.01712213846334
 20
-8.127655309184319
 30
0.0
 10
21.11452766057972
 20
-8.187200424616195
 30
0.0
 10
21.13926919413444
 20
-8.298562012049034
 30
0.0
 10
21.07541432781014
 20
-8.41523869654798
 30
0.0
 10
21.0286524930836
 20
-8.500682388070446
 30
0.0
 10
20.97664282288611
 20
-8.583376225254898
 30
0.0
 10
20.92432188892624
 20
-8.665609964510773
 30
0.0
 10
20.89163919392318
 20
-8.716977071816168
 30
0.0
 10
20.90089553420876
 20
-8.736726220848948
 30
0.0
 10
20.96267387768944
 20
-8.748502008734501
 30
0.0
 10
21.13491150146749
 20
-8.781329244610686
 30
0.0
 10
21.30602356686083
 20
-8.820135606911561
 30
0.0
 10
21.47737891887181
 20
-8.857505862614187
 30
0.0
 10
21.70655419797084
 20
-8.907485520645069
 30
0.0
 10
21.75777318665779
 20
-9.016219612597978
 30
0.0
 10
21.65297962237653
 20
-9.228170914654381
 30
0.0
 10
21.58475275240749
 20
-9.366165231326249
 30
0.0
 10
21.51656595317584
 20
-9.504179583367152
 30
0.0
 10
21.44836054967305
 20
-9.642184633272437
 30
0.0
 10
21.45442983525638
 20
-9.646570947894662
 30
0.0
 10
21.46049840529069
 20
-9.65095797806604
 30
0.0
 10
21.46656697532542
 20
-9.655344292687964
 30
0.0
 10
21.83228543797125
 20
-9.366895091181907
 30
0.0
 10
22.19800390061778
 20
-9.078445889676054
 30
0.0
 10
22.58413411055764
 20
-8.773898269512553
 30
0.0
 10
22.40820640121597
 20
-8.735897615248379
 30
0.0
 10
22.25694723944318
 20
-8.70560843124258
 30
0.0
 10
22.10689950192098
 20
-8.670190192878534
 30
0.0
 10
21.93388908535472
 20
-8.6293509562154
 30
0.0
 10
21.86975730161473
 20
-8.478033119434712
 30
0.0
 10
21.96685227551777
 20
-8.343730319424542
 30
0.0
 10
21.99185355331542
 20
-8.309147842150144
 30
0.0
 10
22.02269514105557
 20
-8.278620380368112
 30
0.0
 10
22.05214570177625
 20
-8.247452502339758
 30
0.0
 10
22.20686812011819
 20
-8.08370844374364
 30
0.0
 10
22.36200555680987
 20
-7.92035722148153
 30
0.0
 10
22.51699845262763
 20
-7.756869329383991
 30
0.0
  0
SPLINE
  5
7E
330
79
100
AcDbEntity
  8
Слой 1
100
AcDbSpline
210
0.0
220
0.0
230
1.0
 70
     9
 71
     3
 72
   128
 73
   124
 74
     0
 42
0.0000000001
 43
0.0000000001
 40
0.0
 40
0.0
 40
0.0
 40
0.0
 40
1.0
 40
1.0
 40
1.0
 40
2.0
 40
2.0
 40
2.0
 40
3.0
 40
3.0
 40
3.0
 40
4.0
 40
4.0
 40
4.0
 40
5.0
 40
5.0
 40
5.0
 40
6.0
 40
6.0
 40
6.0
 40
7.0
 40
7.0
 40
7.0
 40
8.0
 40
8.0
 40
8.0
 40
9.0
 40
9.0
 40
9.0
 40
10.0
 40
10.0
 40
10.0
 40
11.0
 40
11.0
 40
11.0
 40
12.0
 40
12.0
 40
12.0
 40
13.0
 40
13.0
 40
13.0
 40
14.0
 40
14.0
 40
14.0
 40
15.0
 40
15.0
 40
15.0
 40
16.0
 40
16.0
 40
16.0
 40
17.0
 40
17.0
 40
17.0
 40
18.0
 40
18.0
 40
18.0
 40
19.0
 40
19.0
 40
19.0
 40
20.0
 40
20.0
 40
20.0
 40
21.0
 40
21.0
 40
21.0
 40
22.0
 40
22.0
 40
22.0
 40
23.0
 40
23.0
 40
23.0
 40
24.0
 40
24.0
 40
24.0
 40
25.0
 40
25.0
 40
25.0
 40
26.0
 40
26.0
 40
26.0
 40
27.0
 40
27.0
 40
27.0
 40
28.0
 40
28.0
 40
28.0
 40
29.0
 40
29.0
 40
29.0
 40
30.0
 40
30.0
 40
30.0
 40
31.0
 40
31.0
 40
31.0
 40
32.0
 40
32.0
 40
32.0
 40
33.0
 40
33.0
 40
33.0
 40
34.0
 40
34.0
 40
34.0
 40
35.0
 40
35.0
 40
35.0
 40
36.0
 40
36.0
 40
36.0
 40
37.0
 40
37.0
 40
37.0
 40
38.0
 40
38.0
 40
38.0
 40
39.0
 40
39.0
 40
39.0
 40
40.0
 40
40.0
 40
40.0
 40
41.0
 40
41.0
 40
41.0
 40
41.0
 10
23.6400087681757
 20
-6.647485926669105
 30
0.0
 10
23.67412900087457
 20
-6.6823753744117
 30
0.0
 10
23.70697054772819
 20
-6.678821243134582
 30
0.0
 10
23.73735060644167
 20
-6.682557839375426
 30
0.0
 10
24.57516174348722
 20
-6.78562764640987
 30
0.0
 10
25.3634640536639
 20
-6.368668013060565
 30
0.0
 10
25.76139652679821
 20
-5.619488337789018
 30
0.0
 10
26.41937735092112
 20
-4.380718313629901
 30
0.0
 10
25.60232070908208
 20
-2.746785706043358
 30
0.0
 10
24.01408770391249
 20
-2.702631689202651
 30
0.0
 10
23.69284131958304
 20
-2.693700744768925
 30
0.0
 10
23.38795667589847
 20
-2.768905289621885
 30
0.0
 10
23.09641701878819
 20
-2.90462559195963
 30
0.0
 10
22.95935935559737
 20
-2.968429833201108
 30
0.0
 10
22.84677775732777
 20
-2.931299465259851
 30
0.0
 10
22.79727894814265
 20
-2.819126087624656
 30
0.0
 10
22.74833755153362
 20
-2.708215474872265
 30
0.0
 10
22.79914152187181
 20
-2.603600440035822
 30
0.0
 10
22.93457989795209
 20
-2.539147017074836
 30
0.0
 10
23.16173518256818
 20
-2.431046185879141
 30
0.0
 10
23.40011742908028
 20
-2.360263196430575
 30
0.0
 10
23.64911412764791
 20
-2.324234773761493
 30
0.0
 10
23.68618027507819
 20
-2.3188717349207
 30
0.0
 10
23.74081672520707
 20
-2.337651672998554
 30
0.0
 10
23.75631479835568
 20
-2.30055028478681
 30
0.0
 10
23.77473517312208
 20
-2.256450470773289
 30
0.0
 10
23.72189117293222
 20
-2.22714230427928
 30
0.0
 10
23.69576219010332
 20
-2.196430767548147
 30
0.0
 10
23.09525711405723
 20
-1.490622477532055
 30
0.0
 10
22.33292278821222
 20
-1.118928823979874
 30
0.0
 10
21.40463121109153
 20
-1.102299825829542
 30
0.0
 10
20.03258663065986
 20
-1.077721437419111
 30
0.0
 10
18.80103148583723
 20
-2.029139017614903
 30
0.0
 10
18.47082499845707
 20
-3.359696610761993
 30
0.0
 10
18.42736577957763
 20
-3.534813960999473
 30
0.0
 10
18.40591433976361
 20
-3.71224790072967
 30
0.0
 10
18.38400888418666
 20
-3.890447119984969
 30
0.0
 10
18.36733051316403
 20
-4.026120553870921
 30
0.0
 10
18.27073857012194
 20
-4.109926354012094
 30
0.0
 10
18.16038626438138
 20
-4.095823243400912
 30
0.0
 10
18.04261192790373
 20
-4.080770957203122
 30
0.0
 10
17.97609665085097
 20
-3.987947452327274
 30
0.0
 10
17.98835901197362
 20
-3.847860870735821
 30
0.0
 10
17.9958390021697
 20
-3.762405372656972
 30
0.0
 10
18.00519408820097
 20
-3.676402121911375
 30
0.0
 10
18.02362555397485
 20
-3.592832810674836
 30
0.0
 10
18.03958909166903
 20
-3.520452537243575
 30
0.0
 10
18.01252488645554
 20
-3.513017984400878
 30
0.0
 10
17.95214866100195
 20
-3.523281459732818
 30
0.0
 10
17.45372217790721
 20
-3.608008171279784
 30
0.0
 10
17.07050568299792
 20
-3.861940010459584
 30
0.0
 10
16.80580644318903
 20
-4.29469395419307
 30
0.0
 10
16.77243288574444
 20
-4.349256345013019
 30
0.0
 10
16.77674639326834
 20
-4.373930616972958
 30
0.0
 10
16.8380098993307
 20
-4.394570266584663
 30
0.0
 10
16.93120262742791
 20
-4.425966046930713
 30
0.0
 10
17.01447498588055
 20
-4.478465152561081
 30
0.0
 10
17.09227446873931
 20
-4.537232824137301
 30
0.0
 10
17.1818975023707
 20
-4.604931976808668
 30
0.0
 10
17.2009380791275
 20
-4.72098434491113
 30
0.0
 10
17.14373084076722
 20
-4.808592929563979
 30
0.0
 10
17.08881586323764
 20
-4.892690315872616
 30
0.0
 10
16.98426111339373
 20
-4.919024303455734
 30
0.0
 10
16.88537744618277
 20
-4.872076426020927
 30
0.0
 10
16.85727158069069
 20
-4.858732512769493
 30
0.0
 10
16.83102757337931
 20
-4.841353261620421
 30
0.0
 10
16.80434833346291
 20
-4.825135704074947
 30
0.0
 10
16.4817325674686
 20
-4.629032020794157
 30
0.0
 10
16.09542901581249
 20
-4.666332510481361
 30
0.0
 10
15.8199384939307
 20
-4.920326960188023
 30
0.0
 10
15.57100941473125
 20
-5.149832465093809
 30
0.0
 10
15.49760993136667
 20
-5.544324579222448
 30
0.0
 10
15.64769961794208
 20
-5.846038983603281
 30
0.0
 10
15.80489273711626
 20
-6.162033239167966
 30
0.0
 10
16.14257975135388
 20
-6.340734415961226
 30
0.0
 10
16.46531537178612
 20
-6.287107605299095
 30
0.0
 10
16.54910703983652
 20
-6.273184455230875
 30
0.0
 10
16.55519331970541
 20
-6.248779945197989
 30
0.0
 10
16.51036328806251
 20
-6.186186591545416
 30
0.0
 10
16.41650814059165
 20
-6.055140254478727
 30
0.0
 10
16.34888036392042
 20
-5.909962542620051
 30
0.0
 10
16.29505767175305
 20
-5.759031102233607
 30
0.0
 10
16.25864804041917
 20
-5.656929790605368
 30
0.0
 10
16.30402797137513
 20
-5.55670572145843
 30
0.0
 10
16.39616150824529
 20
-5.513129510336991
 30
0.0
 10
16.49048408802069
 20
-5.468517899988783
 30
0.0
 10
16.59175589961195
 20
-5.497457916585125
 30
0.0
 10
16.64926617292235
 20
-5.592353651012065
 30
0.0
 10
16.68140254635722
 20
-5.645380473939919
 30
0.0
 10
16.70257599543124
 20
-5.704976393342146
 30
0.0
 10
16.7297423452468
 20
-5.761102616235524
 30
0.0
 10
16.94392401315556
 20
-6.203605197882603
 30
0.0
 10
17.28696190190279
 20
-6.500777655760479
 30
0.0
 10
17.75722813779124
 20
-6.637479691158709
 30
0.0
 10
18.20270525612432
 20
-6.766976864904487
 30
0.0
 10
18.63232402244875
 20
-6.709038156703627
 30
0.0
 10
19.02918746555888
 20
-6.465307182328715
 30
0.0
 10
19.22714835595277
 20
-6.343730419113247
 30
0.0
 10
19.40971886330362
 20
-6.345520006857592
 30
0.0
 10
19.59130549094652
 20
-6.489972152153566
 30
0.0
 10
19.62184654815764
 20
-6.51426718320863
 30
0.0
 10
19.65301371063737
 20
-6.538071347732915
 30
0.0
 10
19.68568495685834
 20
-6.559350340267226
 30
0.0
 10
20.72013822771515
 20
-7.233079679646329
 30
0.0
 10
21.78728099128888
 20
-7.293644452229677
 30
0.0
 10
22.87342694419097
 20
-6.702269064317887
 30
0.0
 10
23.22770735802237
 20
-6.509373544431986
 30
0.0
 10
23.52961388727709
 20
-6.238931845989554
 30
0.0
 10
23.77311445491361
 20
-5.910701704611028
 30
0.0
 10
23.81485742980959
 20
-5.854434160814459
 30
0.0
 10
23.85726658071124
 20
-5.796783818811591
 30
0.0
 10
23.90869665631751
 20
-5.750035221739026
 30
0.0
 10
23.98062506063292
 20
-5.684654089658212
 30
0.0
 10
24.06562582740015
 20
-5.683394365858084
 30
0.0
 10
24.14520130257403
 20
-5.738873017016771
 30
0.0
 10
24.22050638204403
 20
-5.791374269293858
 30
0.0
 10
24.24597634435695
 20
-5.868530473711593
 30
0.0
 10
24.22085556989653
 20
-5.955537639532394
 30
0.0
 10
24.20935383723167
 20
-5.995373318894116
 30
0.0
 10
24.18191826215098
 20
-6.031519270466812
 30
0.0
 10
24.15779639392486
 20
-6.066652720376421
 30
0.0
 10
24.01140725781556
 20
-6.279878414984523
 30
0.0
 10
23.83435828338209
 20
-6.466422007480559
 30
0.0
 10
23.6400087681757
 20
-6.647485926669105
 30
0.0
  0
SPLINE
  5
7F
330
79
100
AcDbEntity
  8
Слой 1
100
AcDbSpline
210
0.0
220
0.0
230
1.0
 70
     9
 71
     3
 72
   221
 73
   217
 74
     0
 42
0.0000000001
 43
0.0000000001
 40
0.0
 40
0.0
 40
0.0
 40
0.0
 40
1.0
 40
1.0
 40
1.0
 40
2.0
 40
2.0
 40
2.0
 40
3.0
 40
3.0
 40
3.0
 40
4.0
 40
4.0
 40
4.0
 40
5.0
 40
5.0
 40
5.0
 40
6.0
 40
6.0
 40
6.0
 40
7.0
 40
7.0
 40
7.0
 40
8.0
 40
8.0
 40
8.0
 40
9.0
 40
9.0
 40
9.0
 40
10.0
 40
10.0
 40
10.0
 40
11.0
 40
11.0
 40
11.0
 40
12.0
 40
12.0
 40
12.0
 40
13.0
 40
13.0
 40
13.0
 40
14.0
 40
14.0
 40
14.0
 40
15.0
 40
15.0
 40
15.0
 40
16.0
 40
16.0
 40
16.0
 40
17.0
 40
17.0
 40
17.0
 40
18.0
 40
18.0
 40
18.0
 40
19.0
 40
19.0
 40
19.0
 40
20.0
 40
20.0
 40
20.0
 40
21.0
 40
21.0
 40
21.0
 40
22.0
 40
22.0
 40
22.0
 40
23.0
 40
23.0
 40
23.0
 40
24.0
 40
24.0
 40
24.0
 40
25.0
 40
25.0
 40
25.0
 40
26.0
 40
26.0
 40
26.0
 40
27.0
 40
27.0
 40
27.0
 40
28.0
 40
28.0
 40
28.0
 40
29.0
 40
29.0
 40
29.0
 40
30.0
 40
30.0
 40
30.0
 40
31.0
 40
31.0
 40
31.0
 40
32.0
 40
32.0
 40
32.0
 40
33.0
 40
33.0
 40
33.0
 40
34.0
 40
34.0
 40
34.0
 40
35.0
 40
35.0
 40
35.0
 40
36.0
 40
36.0
 40
36.0
 40
37.0
 40
37.0
 40
37.0
 40
38.0
 40
38.0
 40
38.0
 40
39.0
 40
39.0
 40
39.0
 40
40.0
 40
40.0
 40
40.0
 40
41.0
 40
41.0
 40
41.0
 40
42.0
 40
42.0
 40
42.0
 40
43.0
 40
43.0
 40
43.0
 40
44.0
 40
44.0
 40
44.0
 40
45.0
 40
45.0
 40
45.0
 40
46.0
 40
46.0
 40
46.0
 40
47.0
 40
47.0
 40
47.0
 40
48.0
 40
48.0
 40
48.0
 40
49.0
 40
49.0
 40
49.0
 40
50.0
 40
50.0
 40
50.0
 40
51.0
 40
51.0
 40
51.0
 40
52.0
 40
52.0
 40
52.0
 40
53.0
 40
53.0
 40
53.0
 40
54.0
 40
54.0
 40
54.0
 40
55.0
 40
55.0
 40
55.0
 40
56.0
 40
56.0
 40
56.0
 40
57.0
 40
57.0
 40
57.0
 40
58.0
 40
58.0
 40
58.0
 40
59.0
 40
59.0
 40
59.0
 40
60.0
 40
60.0
 40
60.0
 40
61.0
 40
61.0
 40
61.0
 40
62.0
 40
62.0
 40
62.0
 40
63.0
 40
63.0
 40
63.0
 40
64.0
 40
64.0
 40
64.0
 40
65.0
 40
65.0
 40
65.0
 40
66.0
 40
66.0
 40
66.0
 40
67.0
 40
67.0
 40
67.0
 40
68.0
 40
68.0
 40
68.0
 40
69.0
 40
69.0
 40
69.0
 40
70.0
 40
70.0
 40
70.0
 40
71.0
 40
71.0
 40
71.0
 40
72.0
 40
72.0
 40
72.0
 40
72.0
 10
14.77777777777778
 20
-5.299323147814738
 30
0.0
 10
14.8231585249068
 20
-5.179746701487677
 30
0.0
 10
14.83444563762999
 20
-5.050972232108632
 30
0.0
 10
14.8829173099418
 20
-4.931528520098595
 30
0.0
 10
15.08928144983237
 20
-4.423009398966769
 30
0.0
 10
15.45436698713514
 20
-4.092971781122122
 30
0.0
 10
15.98406519228971
 20
-3.95061404739191
 30
0.0
 10
16.05892439536501
 20
-3.930495675138015
 30
0.0
 10
16.10498794382985
 20
-3.895821965381893
 30
0.0
 10
16.14527576063902
 20
-3.832740965169339
 30
0.0
 10
16.5220904186239
 20
-3.242740504426567
 30
0.0
 10
17.05490439192388
 20
-2.878783544230714
 30
0.0
 10
17.74217459938318
 20
-2.744504178445797
 30
0.0
 10
17.81169285618959
 20
-2.730921629643515
 30
0.0
 10
17.84804846358277
 20
-2.699926556669462
 30
0.0
 10
17.87594270549458
 20
-2.635393707783363
 30
0.0
 10
18.33764739905751
 20
-1.567251143539301
 30
0.0
 10
19.12210756953348
 20
-0.8397734396321286
 30
0.0
 10
20.22629823404097
 20
-0.4830735314353155
 30
0.0
 10
21.24456149598429
 20
-0.1541317543364408
 30
0.0
 10
22.23853759791028
 20
-0.2575298865017177
 30
0.0
 10
23.1861454169925
 20
-0.757080407440488
 30
0.0
 10
23.69532427418999
 20
-1.025503542497656
 30
0.0
 10
24.11642765109125
 20
-1.399065941388079
 30
0.0
 10
24.45303686983167
 20
-1.866111938994574
 30
0.0
 10
24.49738945148624
 20
-1.927651289149732
 30
0.0
 10
24.54999588944818
 20
-1.957240487465583
 30
0.0
 10
24.62313714911124
 20
-1.97456911353154
 30
0.0
 10
26.05994355407041
 20
-2.314979327911891
 30
0.0
 10
26.97467476440417
 20
-3.687677383356533
 30
0.0
 10
26.74159688172472
 20
-5.149805989785363
 30
0.0
 10
26.52770787330665
 20
-6.491562101760386
 30
0.0
 10
25.35937970066819
 20
-7.497207374788962
 30
0.0
 10
24.00473404897902
 20
-7.500248457520582
 30
0.0
 10
23.80597389048931
 20
-7.500694960020356
 30
0.0
 10
23.60601661872612
 20
-7.481011641484352
 30
0.0
 10
23.41392823797443
 20
-7.425257504007579
 30
0.0
 10
23.3148977043564
 20
-7.396513905578103
 30
0.0
 10
23.23171013844626
 20
-7.408056424529503
 30
0.0
 10
23.1489282887493
 20
-7.46471286914094
 30
0.0
 10
23.11375119035764
 20
-7.488787511141455
 30
0.0
 10
23.07465288411499
 20
-7.508217525374775
 30
0.0
 10
23.03525190069639
 20
-7.524806095013546
 30
0.0
 10
22.95504888915654
 20
-7.558574993213268
 30
0.0
 10
22.87907477148471
 20
-7.575894853805493
 30
0.0
 10
22.97233941224459
 20
-7.691180511285286
 30
0.0
 10
23.03309452082888
 20
-7.766283090422903
 30
0.0
 10
22.98804785676346
 20
-7.862419944378516
 30
0.0
 10
22.91970005903431
 20
-7.933396668685569
 30
0.0
 10
22.79278744783556
 20
-8.065191469878856
 30
0.0
 10
22.66664047393624
 20
-8.197723286416374
 30
0.0
 10
22.52588771633931
 20
-8.344886646411445
 30
0.0
 10
22.71311036472083
 20
-8.38635198834264
 30
0.0
 10
22.88201782402055
 20
-8.426693918535773
 30
0.0
 10
23.05224833319542
 20
-8.46035119111093
 30
0.0
 10
23.15265200511056
 20
-8.480201948083958
 30
0.0
 10
23.23087294625874
 20
-8.522474429150154
 30
0.0
 10
23.2545826583314
 20
-8.627685158427386
 30
0.0
 10
23.27757610597723
 20
-8.729718850686923
 30
0.0
 10
23.2190062836661
 20
-8.797494924862499
 30
0.0
 10
23.14498990772487
 20
-8.855835055984243
 30
0.0
 10
22.41789922631751
 20
-9.428938903296106
 30
0.0
 10
21.69067473726959
 20
-10.00187316552385
 30
0.0
 10
20.96418010807765
 20
-10.57573120135324
 30
0.0
 10
20.87912138185124
 20
-10.64291909435102
 30
0.0
 10
20.79277466764486
 20
-10.64864062317979
 30
0.0
 10
20.70627661485042
 20
-10.58723794286035
 30
0.0
 10
20.62442640979318
 20
-10.52913322731976
 30
0.0
 10
20.60915480786429
 20
-10.43013847114536
 30
0.0
 10
20.6622152615893
 20
-10.32446549729285
 30
0.0
 10
20.8320447056186
 20
-9.986242715832707
 30
0.0
 10
21.00130421496639
 20
-9.647704377317696
 30
0.0
 10
21.17521908531416
 20
-9.31158316291218
 30
0.0
 10
21.21609052167694
 20
-9.232591575622537
 30
0.0
 10
21.20979440709973
 20
-9.214717880198753
 30
0.0
 10
21.11719308015027
 20
-9.182923181353594
 30
0.0
 10
20.91388059969818
 20
-9.11311781055954
 30
0.0
 10
20.7798296728925
 20
-9.170667260170981
 30
0.0
 10
20.6262306662889
 20
-9.316680017570179
 30
0.0
 10
19.82201276019375
 20
-10.08118102541771
 30
0.0
 10
19.00481014638333
 20
-10.83202435183077
 30
0.0
 10
18.19193302554041
 20
-11.58741284471656
 30
0.0
 10
18.16052686973598
 20
-11.61659793680393
 30
0.0
 10
18.12986989360638
 20
-11.64784953405059
 30
0.0
 10
18.09419262654945
 20
-11.67091167438876
 30
0.0
 10
18.02221377603874
 20
-11.71744095573012
 30
0.0
 10
17.9453316268411
 20
-11.72028311587327
 30
0.0
 10
17.87474487667264
 20
-11.66928165404447
 30
0.0
 10
17.80211201448764
 20
-11.61680258378262
 30
0.0
 10
17.76873881481707
 20
-11.54473607853459
 30
0.0
 10
17.79745915790833
 20
-11.45466135467349
 30
0.0
 10
17.81039091500611
 20
-11.41410404426794
 30
0.0
 10
17.8278449410125
 20
-11.37460216845764
 30
0.0
 10
17.84688820107777
 20
-11.33643765350062
 30
0.0
 10
18.10993327076749
 20
-10.80927275970559
 30
0.0
 10
18.37100378332929
 20
-10.28108892430802
 30
0.0
 10
18.63948917113874
 20
-9.756702506806352
 30
0.0
 10
18.68908386387291
 20
-9.659837939641521
 30
0.0
 10
18.66625964353721
 20
-9.633261738763748
 30
0.0
 10
18.5708691070614
 20
-9.618494956568307
 30
0.0
 10
18.44411534771332
 20
-9.598871744137897
 30
0.0
 10
18.29818165846584
 20
-9.521085856707788
 30
0.0
 10
18.19855900815069
 20
-9.561691824436719
 30
0.0
 10
18.10687107934445
 20
-9.599063511236938
 30
0.0
 10
18.06506298950027
 20
-9.759747167282057
 30
0.0
 10
18.00219307620652
 20
-9.866645876363033
 30
0.0
 10
17.92105770447834
 20
-10.00459869120034
 30
0.0
 10
17.84231620152167
 20
-10.14397902604893
 30
0.0
 10
17.75977406069945
 20
-10.28107747552591
 30
0.0
 10
17.6832602402868
 20
-10.40816539619972
 30
0.0
 10
17.57138363654917
 20
-10.44378112605363
 30
0.0
 10
17.4661029623689
 20
-10.3789058870289
 30
0.0
 10
17.3672824423464
 20
-10.31801267751082
 30
0.0
 10
17.3458157971186
 20
-10.20268194045163
 30
0.0
 10
17.41552689434777
 20
-10.08015993716864
 30
0.0
 10
17.52939057732
 20
-9.880035226968427
 30
0.0
 10
17.6461760252482
 20
-9.681573452360327
 30
0.0
 10
17.76141302540403
 20
-9.482227259338943
 30
0.0
 10
17.76514425502889
 20
-9.475772292910177
 30
0.0
 10
17.76542117244457
 20
-9.467320229563483
 30
0.0
 10
17.76890589548055
 20
-9.453431425841193
 30
0.0
 10
17.69348847483626
 20
-9.435248613302418
 30
0.0
 10
17.61723475644097
 20
-9.420335859135724
 30
0.0
 10
17.54311999252973
 20
-9.398246149722934
 30
0.0
 10
17.40400101190832
 20
-9.356780807791235
 30
0.0
 10
17.34199494499737
 20
-9.231429524244351
 30
0.0
 10
17.41054899969125
 20
-9.104711542340888
 30
0.0
 10
17.53679078381624
 20
-8.871362466636986
 30
0.0
 10
17.67076264247069
 20
-8.641990411596655
 30
0.0
 10
17.80807718770916
 20
-8.414931010530128
 30
0.0
 10
17.86793034693333
 20
-8.315959151920145
 30
0.0
 10
17.9820868682836
 20
-8.293234035103624
 30
0.0
 10
18.07413185598013
 20
-8.345952098690405
 30
0.0
 10
18.1711534861232
 20
-8.40152090900786
 30
0.0
 10
18.20452060362792
 20
-8.509941590551635
 30
0.0
 10
18.14658583094554
 20
-8.619735410392978
 30
0.0
 10
18.06873411301901
 20
-8.767273718000017
 30
0.0
 10
17.98227720428485
 20
-8.910271152427059
 30
0.0
 10
17.89443928621654
 20
-9.064105574611907
 30
0.0
 10
18.25062198674014
 20
-9.139852147739576
 30
0.0
 10
18.59311373280598
 20
-9.213520051376992
 30
0.0
 10
18.93599688410861
 20
-9.285318225796041
 30
0.0
 10
19.17356769819306
 20
-9.33506461489277
 30
0.0
 10
19.22914938839014
 20
-9.444590819453777
 30
0.0
 10
19.12238055143027
 20
-9.66007049302728
 30
0.0
 10
18.9941981987479
 20
-9.918765025539061
 30
0.0
 10
18.86530995709707
 20
-10.17710965464978
 30
0.0
 10
18.73712331112139
 20
-10.43580204051512
 30
0.0
 10
18.72049610184321
 20
-10.46935627405087
 30
0.0
 10
18.70622698389249
 20
-10.50407828335655
 30
0.0
 10
18.70925590229318
 20
-10.55173026088697
 30
0.0
 10
19.25376319646971
 20
-10.04609623283123
 30
0.0
 10
19.7982704906468
 20
-9.540462204775293
 30
0.0
 10
20.36145897715639
 20
-9.017480409721075
 30
0.0
 10
20.15028225676042
 20
-8.971747534281094
 30
0.0
 10
19.95934483637916
 20
-8.929920840166232
 30
0.0
 10
19.76817844035652
 20
-8.889170331563844
 30
0.0
 10
19.64607968423486
 20
-8.863142956675295
 30
0.0
 10
19.52351546356804
 20
-8.839303730255828
 30
0.0
 10
19.40138450774652
 20
-8.813423758435874
 30
0.0
 10
19.19049221803
 20
-8.768734868808829
 30
0.0
 10
19.13061651901666
 20
-8.641042309333492
 30
0.0
 10
19.2362648064329
 20
-8.454535925379079
 30
0.0
 10
19.39401184988249
 20
-8.176056466390239
 30
0.0
 10
19.552557088105
 20
-7.897983439164413
 30
0.0
 10
19.7152381988432
 20
-7.622379055567206
 30
0.0
 10
19.7535998475164
 20
-7.557388613173618
 30
0.0
 10
19.7509741409082
 20
-7.526685126367283
 30
0.0
 10
19.67953195205612
 20
-7.4907373818341
 30
0.0
 10
19.55428943193902
 20
-7.427719707696976
 30
0.0
 10
19.43355737417417
 20
-7.355155180429593
 30
0.0
 10
19.31421956339793
 20
-7.28128477645997
 30
0.0
 10
19.26930813807042
 20
-7.253485702549369
 30
0.0
 10
19.23363945759931
 20
-7.24951941511871
 30
0.0
 10
19.18554527086209
 20
-7.271720034607419
 30
0.0
 10
18.67008532561319
 20
-7.509673667341555
 30
0.0
 10
18.13638675501278
 20
-7.559400021069803
 30
0.0
 10
17.58692553706653
 20
-7.415652691418017
 30
0.0
 10
17.51061582697179
 20
-7.395688877722123
 30
0.0
 10
17.4835024277736
 20
-7.431243785921095
 30
0.0
 10
17.45180540135
 20
-7.486794707516006
 30
0.0
 10
17.24095193015985
 20
-7.856319890193439
 30
0.0
 10
17.02789546286168
 20
-8.224588569040809
 30
0.0
 10
16.81554202233597
 20
-8.593257955260115
 30
0.0
 10
16.79995468446499
 20
-8.620320013826484
 30
0.0
 10
16.7852011399236
 20
-8.647918734050865
 30
0.0
 10
16.76846337834402
 20
-8.674253794957014
 30
0.0
 10
16.6941631083854
 20
-8.791156592901238
 30
0.0
 10
16.58206862001445
 20
-8.825935130567863
 30
0.0
 10
16.4805578150975
 20
-8.764242652952866
 30
0.0
 10
16.38465136788083
 20
-8.705956187996939
 30
0.0
 10
16.35793313055069
 20
-8.590966767752636
 30
0.0
 10
16.42199836824526
 20
-8.476035306967585
 30
0.0
 10
16.53410734648082
 20
-8.274918130473199
 30
0.0
 10
16.65104001859069
 20
-8.076492133309177
 30
0.0
 10
16.76581083865292
 20
-7.87685685854088
 30
0.0
 10
16.87280883014041
 20
-7.690741879823083
 30
0.0
 10
16.97798896970375
 20
-7.503550715592356
 30
0.0
 10
17.08758798136235
 20
-7.31898203799978
 30
0.0
 10
17.11767645390834
 20
-7.268311875301352
 30
0.0
 10
17.11870308766111
 20
-7.241938174756038
 30
0.0
 10
17.06007405368
 20
-7.213904400813488
 30
0.0
 10
16.98291820703694
 20
-7.177013562859277
 30
0.0
 10
16.90976818189998
 20
-7.13107174714686
 30
0.0
 10
16.83744318461943
 20
-7.085020452456369
 30
0.0
 10
16.79830248210555
 20
-7.060097885035146
 30
0.0
 10
16.76037713936054
 20
-7.052259047076404
 30
0.0
 10
16.71566356329736
 20
-7.062341846316535
 30
0.0
 10
15.80977796819403
 20
-7.266609584520867
 30
0.0
 10
14.90231859041569
 20
-6.62383560515309
 30
0.0
 10
14.79393147258639
 20
-5.704651891926295
 30
0.0
 10
14.79268782347971
 20
-5.694105059238987
 30
0.0
 10
14.78334171255652
 20
-5.684514199852565
 30
0.0
 10
14.77777780013874
 20
-5.674476837966127
 30
0.0
 10
14.77777777777778
 20
-5.549425727173936
 30
0.0
 10
14.77777777777778
 20
-5.424374258606929
 30
0.0
 10
14.77777777777778
 20
-5.299323147814738
 30
0.0
  0
HATCH
  5
80
330
79
100
AcDbEntity
  8
Слой 1
 62
    18
420
        0
440
 33554687
100
AcDbHatch
 10
0.0
 20
0.0
 30
0.0
210
0.0
220
0.0
230
1.0
  2
SOLID
 70
     1
 71
     1
 91
        3
 92
        1
 93
        1
 72
     4
 94
        3
 73
     0
 74
     0
 95
       71
 96
       67
 40
0.0
 40
0.0
 40
0.0
 40
0.0
 40
1.0
 40
1.0
 40
1.0
 40
2.0
 40
2.0
 40
2.0
 40
3.0
 40
3.0
 40
3.0
 40
4.0
 40
4.0
 40
4.0
 40
5.0
 40
5.0
 40
5.0
 40
6.0
 40
6.0
 40
6.0
 40
7.0
 40
7.0
 40
7.0
 40
8.0
 40
8.0
 40
8.0
 40
9.0
 40
9.0
 40
9.0
 40
10.0
 40
10.0
 40
10.0
 40
11.0
 40
11.0
 40
11.0
 40
12.0
 40
12.0
 40
12.0
 40
13.0
 40
13.0
 40
13.0
 40
14.0
 40
14.0
 40
14.0
 40
15.0
 40
15.0
 40
15.0
 40
16.0
 40
16.0
 40
16.0
 40
17.0
 40
17.0
 40
17.0
 40
18.0
 40
18.0
 40
18.0
 40
19.0
 40
19.0
 40
19.0
 40
20.0
 40
20.0
 40
20.0
 40
21.0
 40
21.0
 40
21.0
 40
22.0
 40
22.0
 40
22.0
 40
22.0
 10
22.51699845262763
 20
-7.756869329383991
 10
22.51202324127945
 20
-7.747155753364999
 10
22.50704874547945
 20
-7.73744217734606
 10
22.50207353413069
 20
-7.727728601327068
 10
22.31976098215028
 20
-7.784307766659871
 10
22.13458766575541
 20
-7.827409568875534
 10
21.94653641177375
 20
-7.855972133439131
 10
21.36172904701319
 20
-7.944798224507849
 10
20.78735366934499
 20
-7.899091108827633
 10
20.22508180094832
 20
-7.715303095060638
 10
20.15766958337723
 20
-7.693269198460054
 10
20.12304560426777
 20
-7.70396880083298
 10
20.0877175250632
 20
-7.768151388543426
 10
19.97304401964834
 20
-7.976484875472477
 10
19.85246151159903
 20
-8.181617712270053
 10
19.73132910423737
 20
-8.386311917605882
 10
19.69778202618972
 20
-8.443000561916505
 10
19.69419641076208
 20
-8.472167765281836
 10
19.77107355111709
 20
-8.487007533462676
 10
19.98534752483111
 20
-8.52837198300272
 10
20.19902866630001
 20
-8.573244053142641
 10
20.41174596342999
 20
-8.62196362959907
 10
20.47479118619902
 20
-8.636402690408431
 10
20.50263891743334
 20
-8.613672564749776
 10
20.53055319471307
 20
-8.562298301955756
 10
20.59382166873221
 20
-8.445856317488807
 10
20.66111975625722
 20
-8.331485131475346
 10
20.73014374767639
 20
-8.218323223065402
 10
20.80161169628778
 20
-8.101154240938386
 10
20.91704404128806
 20
-8.06647516456562
 10
21.01712213846334
 20
-8.127655309184319
 10
21.11452766057972
 20
-8.187200424616195
 10
21.13926919413444
 20
-8.298562012049034
 10
21.07541432781014
 20
-8.41523869654798
 10
21.0286524930836
 20
-8.500682388070446
 10
20.97664282288611
 20
-8.583376225254898
 10
20.92432188892624
 20
-8.665609964510773
 10
20.89163919392318
 20
-8.716977071816168
 10
20.90089553420876
 20
-8.736726220848948
 10
20.96267387768944
 20
-8.748502008734501
 10
21.13491150146749
 20
-8.781329244610686
 10
21.30602356686083
 20
-8.820135606911561
 10
21.47737891887181
 20
-8.857505862614187
 10
21.70655419797084
 20
-8.907485520645069
 10
21.75777318665779
 20
-9.016219612597978
 10
21.65297962237653
 20
-9.228170914654381
 10
21.58475275240749
 20
-9.366165231326249
 10
21.51656595317584
 20
-9.504179583367152
 10
21.44836054967305
 20
-9.642184633272437
 10
21.45442983525638
 20
-9.646570947894662
 10
21.46049840529069
 20
-9.65095797806604
 10
21.46656697532542
 20
-9.655344292687964
 10
21.83228543797125
 20
-9.366895091181907
 10
22.19800390061778
 20
-9.078445889676054
 10
22.58413411055764
 20
-8.773898269512553
 10
22.40820640121597
 20
-8.735897615248379
 10
22.25694723944318
 20
-8.70560843124258
 10
22.10689950192098
 20
-8.670190192878534
 10
21.93388908535472
 20
-8.6293509562154
 10
21.86975730161473
 20
-8.478033119434712
 10
21.96685227551777
 20
-8.343730319424542
 10
21.99185355331542
 20
-8.309147842150144
 10
22.02269514105557
 20
-8.278620380368112
 10
22.05214570177625
 20
-8.247452502339758
 10
22.20686812011819
 20
-8.08370844374364
 10
22.36200555680987
 20
-7.92035722148153
 10
22.51699845262763
 20
-7.756869329383991
 97
        0
 97
        1
330
7D
 92
        1
 93
        1
 72
     4
 94
        3
 73
     0
 74
     0
 95
      128
 96
      124
 40
0.0
 40
0.0
 40
0.0
 40
0.0
 40
1.0
 40
1.0
 40
1.0
 40
2.0
 40
2.0
 40
2.0
 40
3.0
 40
3.0
 40
3.0
 40
4.0
 40
4.0
 40
4.0
 40
5.0
 40
5.0
 40
5.0
 40
6.0
 40
6.0
 40
6.0
 40
7.0
 40
7.0
 40
7.0
 40
8.0
 40
8.0
 40
8.0
 40
9.0
 40
9.0
 40
9.0
 40
10.0
 40
10.0
 40
10.0
 40
11.0
 40
11.0
 40
11.0
 40
12.0
 40
12.0
 40
12.0
 40
13.0
 40
13.0
 40
13.0
 40
14.0
 40
14.0
 40
14.0
 40
15.0
 40
15.0
 40
15.0
 40
16.0
 40
16.0
 40
16.0
 40
17.0
 40
17.0
 40
17.0
 40
18.0
 40
18.0
 40
18.0
 40
19.0
 40
19.0
 40
19.0
 40
20.0
 40
20.0
 40
20.0
 40
21.0
 40
21.0
 40
21.0
 40
22.0
 40
22.0
 40
22.0
 40
23.0
 40
23.0
 40
23.0
 40
24.0
 40
24.0
 40
24.0
 40
25.0
 40
25.0
 40
25.0
 40
26.0
 40
26.0
 40
26.0
 40
27.0
 40
27.0
 40
27.0
 40
28.0
 40
28.0
 40
28.0
 40
29.0
 40
29.0
 40
29.0
 40
30.0
 40
30.0
 40
30.0
 40
31.0
 40
31.0
 40
31.0
 40
32.0
 40
32.0
 40
32.0
 40
33.0
 40
33.0
 40
33.0
 40
34.0
 40
34.0
 40
34.0
 40
35.0
 40
35.0
 40
35.0
 40
36.0
 40
36.0
 40
36.0
 40
37.0
 40
37.0
 40
37.0
 40
38.0
 40
38.0
 40
38.0
 40
39.0
 40
39.0
 40
39.0
 40
40.0
 40
40.0
 40
40.0
 40
41.0
 40
41.0
 40
41.0
 40
41.0
 10
23.6400087681757
 20
-6.647485926669105
 10
23.67412900087457
 20
-6.6823753744117
 10
23.70697054772819
 20
-6.678821243134582
 10
23.73735060644167
 20
-6.682557839375426
 10
24.57516174348722
 20
-6.78562764640987
 10
25.3634640536639
 20
-6.368668013060565
 10
25.76139652679821
 20
-5.619488337789018
 10
26.41937735092112
 20
-4.380718313629901
 10
25.60232070908208
 20
-2.746785706043358
 10
24.01408770391249
 20
-2.702631689202651
 10
23.69284131958304
 20
-2.693700744768925
 10
23.38795667589847
 20
-2.768905289621885
 10
23.09641701878819
 20
-2.90462559195963
 10
22.95935935559737
 20
-2.968429833201108
 10
22.84677775732777
 20
-2.931299465259851
 10
22.79727894814265
 20
-2.819126087624656
 10
22.74833755153362
 20
-2.708215474872265
 10
22.79914152187181
 20
-2.603600440035822
 10
22.93457989795209
 20
-2.539147017074836
 10
23.16173518256818
 20
-2.431046185879141
 10
23.40011742908028
 20
-2.360263196430575
 10
23.64911412764791
 20
-2.324234773761493
 10
23.68618027507819
 20
-2.3188717349207
 10
23.74081672520707
 20
-2.337651672998554
 10
23.75631479835568
 20
-2.30055028478681
 10
23.77473517312208
 20
-2.256450470773289
 10
23.72189117293222
 20
-2.22714230427928
 10
23.69576219010332
 20
-2.196430767548147
 10
23.09525711405723
 20
-1.490622477532055
 10
22.33292278821222
 20
-1.118928823979874
 10
21.40463121109153
 20
-1.102299825829542
 10
20.03258663065986
 20
-1.077721437419111
 10
18.80103148583723
 20
-2.029139017614903
 10
18.47082499845707
 20
-3.359696610761993
 10
18.42736577957763
 20
-3.534813960999473
 10
18.40591433976361
 20
-3.71224790072967
 10
18.38400888418666
 20
-3.890447119984969
 10
18.36733051316403
 20
-4.026120553870921
 10
18.27073857012194
 20
-4.109926354012094
 10
18.16038626438138
 20
-4.095823243400912
 10
18.04261192790373
 20
-4.080770957203122
 10
17.97609665085097
 20
-3.987947452327274
 10
17.98835901197362
 20
-3.847860870735821
 10
17.9958390021697
 20
-3.762405372656972
 10
18.00519408820097
 20
-3.676402121911375
 10
18.02362555397485
 20
-3.592832810674836
 10
18.03958909166903
 20
-3.520452537243575
 10
18.01252488645554
 20
-3.513017984400878
 10
17.95214866100195
 20
-3.523281459732818
 10
17.45372217790721
 20
-3.608008171279784
 10
17.07050568299792
 20
-3.861940010459584
 10
16.80580644318903
 20
-4.29469395419307
 10
16.77243288574444
 20
-4.349256345013019
 10
16.77674639326834
 20
-4.373930616972958
 10
16.8380098993307
 20
-4.394570266584663
 10
16.93120262742791
 20
-4.425966046930713
 10
17.01447498588055
 20
-4.478465152561081
 10
17.09227446873931
 20
-4.537232824137301
 10
17.1818975023707
 20
-4.604931976808668
 10
17.2009380791275
 20
-4.72098434491113
 10
17.14373084076722
 20
-4.808592929563979
 10
17.08881586323764
 20
-4.892690315872616
 10
16.98426111339373
 20
-4.919024303455734
 10
16.88537744618277
 20
-4.872076426020927
 10
16.85727158069069
 20
-4.858732512769493
 10
16.83102757337931
 20
-4.841353261620421
 10
16.80434833346291
 20
-4.825135704074947
 10
16.4817325674686
 20
-4.629032020794157
 10
16.09542901581249
 20
-4.666332510481361
 10
15.8199384939307
 20
-4.920326960188023
 10
15.57100941473125
 20
-5.149832465093809
 10
15.49760993136667
 20
-5.544324579222448
 10
15.64769961794208
 20
-5.846038983603281
 10
15.80489273711626
 20
-6.162033239167966
 10
16.14257975135388
 20
-6.340734415961226
 10
16.46531537178612
 20
-6.287107605299095
 10
16.54910703983652
 20
-6.273184455230875
 10
16.55519331970541
 20
-6.248779945197989
 10
16.51036328806251
 20
-6.186186591545416
 10
16.41650814059165
 20
-6.055140254478727
 10
16.34888036392042
 20
-5.909962542620051
 10
16.29505767175305
 20
-5.759031102233607
 10
16.25864804041917
 20
-5.656929790605368
 10
16.30402797137513
 20
-5.55670572145843
 10
16.39616150824529
 20
-5.513129510336991
 10
16.49048408802069
 20
-5.468517899988783
 10
16.59175589961195
 20
-5.497457916585125
 10
16.64926617292235
 20
-5.592353651012065
 10
16.68140254635722
 20
-5.645380473939919
 10
16.70257599543124
 20
-5.704976393342146
 10
16.7297423452468
 20
-5.761102616235524
 10
16.94392401315556
 20
-6.203605197882603
 10
17.28696190190279
 20
-6.500777655760479
 10
17.75722813779124
 20
-6.637479691158709
 10
18.20270525612432
 20
-6.766976864904487
 10
18.63232402244875
 20
-6.709038156703627
 10
19.02918746555888
 20
-6.465307182328715
 10
19.22714835595277
 20
-6.343730419113247
 10
19.40971886330362
 20
-6.345520006857592
 10
19.59130549094652
 20
-6.489972152153566
 10
19.62184654815764
 20
-6.51426718320863
 10
19.65301371063737
 20
-6.538071347732915
 10
19.68568495685834
 20
-6.559350340267226
 10
20.72013822771515
 20
-7.233079679646329
 10
21.78728099128888
 20
-7.293644452229677
 10
22.87342694419097
 20
-6.702269064317887
 10
23.22770735802237
 20
-6.509373544431986
 10
23.52961388727709
 20
-6.238931845989554
 10
23.77311445491361
 20
-5.910701704611028
 10
23.81485742980959
 20
-5.854434160814459
 10
23.85726658071124
 20
-5.796783818811591
 10
23.90869665631751
 20
-5.750035221739026
 10
23.98062506063292
 20
-5.684654089658212
 10
24.06562582740015
 20
-5.683394365858084
 10
24.14520130257403
 20
-5.738873017016771
 10
24.22050638204403
 20
-5.791374269293858
 10
24.24597634435695
 20
-5.868530473711593
 10
24.22085556989653
 20
-5.955537639532394
 10
24.20935383723167
 20
-5.995373318894116
 10
24.18191826215098
 20
-6.031519270466812
 10
24.15779639392486
 20
-6.066652720376421
 10
24.01140725781556
 20
-6.279878414984523
 10
23.83435828338209
 20
-6.466422007480559
 10
23.6400087681757
 20
-6.647485926669105
 97
        0
 97
        1
330
7E
 92
        1
 93
        1
 72
     4
 94
        3
 73
     0
 74
     0
 95
      221
 96
      217
 40
0.0
 40
0.0
 40
0.0
 40
0.0
 40
1.0
 40
1.0
 40
1.0
 40
2.0
 40
2.0
 40
2.0
 40
3.0
 40
3.0
 40
3.0
 40
4.0
 40
4.0
 40
4.0
 40
5.0
 40
5.0
 40
5.0
 40
6.0
 40
6.0
 40
6.0
 40
7.0
 40
7.0
 40
7.0
 40
8.0
 40
8.0
 40
8.0
 40
9.0
 40
9.0
 40
9.0
 40
10.0
 40
10.0
 40
10.0
 40
11.0
 40
11.0
 40
11.0
 40
12.0
 40
12.0
 40
12.0
 40
13.0
 40
13.0
 40
13.0
 40
14.0
 40
14.0
 40
14.0
 40
15.0
 40
15.0
 40
15.0
 40
16.0
 40
16.0
 40
16.0
 40
17.0
 40
17.0
 40
17.0
 40
18.0
 40
18.0
 40
18.0
 40
19.0
 40
19.0
 40
19.0
 40
20.0
 40
20.0
 40
20.0
 40
21.0
 40
21.0
 40
21.0
 40
22.0
 40
22.0
 40
22.0
 40
23.0
 40
23.0
 40
23.0
 40
24.0
 40
24.0
 40
24.0
 40
25.0
 40
25.0
 40
25.0
 40
26.0
 40
26.0
 40
26.0
 40
27.0
 40
27.0
 40
27.0
 40
28.0
 40
28.0
 40
28.0
 40
29.0
 40
29.0
 40
29.0
 40
30.0
 40
30.0
 40
30.0
 40
31.0
 40
31.0
 40
31.0
 40
32.0
 40
32.0
 40
32.0
 40
33.0
 40
33.0
 40
33.0
 40
34.0
 40
34.0
 40
34.0
 40
35.0
 40
35.0
 40
35.0
 40
36.0
 40
36.0
 40
36.0
 40
37.0
 40
37.0
 40
37.0
 40
38.0
 40
38.0
 40
38.0
 40
39.0
 40
39.0
 40
39.0
 40
40.0
 40
40.0
 40
40.0
 40
41.0
 40
41.0
 40
41.0
 40
42.0
 40
42.0
 40
42.0
 40
43.0
 40
43.0
 40
43.0
 40
44.0
 40
44.0
 40
44.0
 40
45.0
 40
45.0
 40
45.0
 40
46.0
 40
46.0
 40
46.0
 40
47.0
 40
47.0
 40
47.0
 40
48.0
 40
48.0
 40
48.0
 40
49.0
 40
49.0
 40
49.0
 40
50.0
 40
50.0
 40
50.0
 40
51.0
 40
51.0
 40
51.0
 40
52.0
 40
52.0
 40
52.0
 40
53.0
 40
53.0
 40
53.0
 40
54.0
 40
54.0
 40
54.0
 40
55.0
 40
55.0
 40
55.0
 40
56.0
 40
56.0
 40
56.0
 40
57.0
 40
57.0
 40
57.0
 40
58.0
 40
58.0
 40
58.0
 40
59.0
 40
59.0
 40
59.0
 40
60.0
 40
60.0
 40
60.0
 40
61.0
 40
61.0
 40
61.0
 40
62.0
 40
62.0
 40
62.0
 40
63.0
 40
63.0
 40
63.0
 40
64.0
 40
64.0
 40
64.0
 40
65.0
 40
65.0
 40
65.0
 40
66.0
 40
66.0
 40
66.0
 40
67.0
 40
67.0
 40
67.0
 40
68.0
 40
68.0
 40
68.0
 40
69.0
 40
69.0
 40
69.0
 40
70.0
 40
70.0
 40
70.0
 40
71.0
 40
71.0
 40
71.0
 40
72.0
 40
72.0
 40
72.0
 40
72.0
 10
14.77777777777778
 20
-5.299323147814738
 10
14.8231585249068
 20
-5.179746701487677
 10
14.83444563762999
 20
-5.050972232108632
 10
14.8829173099418
 20
-4.931528520098595
 10
15.08928144983237
 20
-4.423009398966769
 10
15.45436698713514
 20
-4.092971781122122
 10
15.98406519228971
 20
-3.95061404739191
 10
16.05892439536501
 20
-3.930495675138015
 10
16.10498794382985
 20
-3.895821965381893
 10
16.14527576063902
 20
-3.832740965169339
 10
16.5220904186239
 20
-3.242740504426567
 10
17.05490439192388
 20
-2.878783544230714
 10
17.74217459938318
 20
-2.744504178445797
 10
17.81169285618959
 20
-2.730921629643515
 10
17.84804846358277
 20
-2.699926556669462
 10
17.87594270549458
 20
-2.635393707783363
 10
18.33764739905751
 20
-1.567251143539301
 10
19.12210756953348
 20
-0.8397734396321286
 10
20.22629823404097
 20
-0.4830735314353155
 10
21.24456149598429
 20
-0.1541317543364408
 10
22.23853759791028
 20
-0.2575298865017177
 10
23.1861454169925
 20
-0.757080407440488
 10
23.69532427418999
 20
-1.025503542497656
 10
24.11642765109125
 20
-1.399065941388079
 10
24.45303686983167
 20
-1.866111938994574
 10
24.49738945148624
 20
-1.927651289149732
 10
24.54999588944818
 20
-1.957240487465583
 10
24.62313714911124
 20
-1.97456911353154
 10
26.05994355407041
 20
-2.314979327911891
 10
26.97467476440417
 20
-3.687677383356533
 10
26.74159688172472
 20
-5.149805989785363
 10
26.52770787330665
 20
-6.491562101760386
 10
25.35937970066819
 20
-7.497207374788962
 10
24.00473404897902
 20
-7.500248457520582
 10
23.80597389048931
 20
-7.500694960020356
 10
23.60601661872612
 20
-7.481011641484352
 10
23.41392823797443
 20
-7.425257504007579
 10
23.3148977043564
 20
-7.396513905578103
 10
23.23171013844626
 20
-7.408056424529503
 10
23.1489282887493
 20
-7.46471286914094
 10
23.11375119035764
 20
-7.488787511141455
 10
23.07465288411499
 20
-7.508217525374775
 10
23.03525190069639
 20
-7.524806095013546
 10
22.95504888915654
 20
-7.558574993213268
 10
22.87907477148471
 20
-7.575894853805493
 10
22.97233941224459
 20
-7.691180511285286
 10
23.03309452082888
 20
-7.766283090422903
 10
22.98804785676346
 20
-7.862419944378516
 10
22.91970005903431
 20
-7.933396668685569
 10
22.79278744783556
 20
-8.065191469878856
 10
22.66664047393624
 20
-8.197723286416374
 10
22.52588771633931
 20
-8.344886646411445
 10
22.71311036472083
 20
-8.38635198834264
 10
22.88201782402055
 20
-8.426693918535773
 10
23.05224833319542
 20
-8.46035119111093
 10
23.15265200511056
 20
-8.480201948083958
 10
23.23087294625874
 20
-8.522474429150154
 10
23.2545826583314
 20
-8.627685158427386
 10
23.27757610597723
 20
-8.729718850686923
 10
23.2190062836661
 20
-8.797494924862499
 10
23.14498990772487
 20
-8.855835055984243
 10
22.41789922631751
 20
-9.428938903296106
 10
21.69067473726959
 20
-10.00187316552385
 10
20.96418010807765
 20
-10.57573120135324
 10
20.87912138185124
 20
-10.64291909435102
 10
20.79277466764486
 20
-10.64864062317979
 10
20.70627661485042
 20
-10.58723794286035
 10
20.62442640979318
 20
-10.52913322731976
 10
20.60915480786429
 20
-10.43013847114536
 10
20.6622152615893
 20
-10.32446549729285
 10
20.8320447056186
 20
-9.986242715832707
 10
21.00130421496639
 20
-9.647704377317696
 10
21.17521908531416
 20
-9.31158316291218
 10
21.21609052167694
 20
-9.232591575622537
 10
21.20979440709973
 20
-9.214717880198753
 10
21.11719308015027
 20
-9.182923181353594
 10
20.91388059969818
 20
-9.11311781055954
 10
20.7798296728925
 20
-9.170667260170981
 10
20.6262306662889
 20
-9.316680017570179
 10
19.82201276019375
 20
-10.08118102541771
 10
19.00481014638333
 20
-10.83202435183077
 10
18.19193302554041
 20
-11.58741284471656
 10
18.16052686973598
 20
-11.61659793680393
 10
18.12986989360638
 20
-11.64784953405059
 10
18.09419262654945
 20
-11.67091167438876
 10
18.02221377603874
 20
-11.71744095573012
 10
17.9453316268411
 20
-11.72028311587327
 10
17.87474487667264
 20
-11.66928165404447
 10
17.80211201448764
 20
-11.61680258378262
 10
17.76873881481707
 20
-11.54473607853459
 10
17.79745915790833
 20
-11.45466135467349
 10
17.81039091500611
 20
-11.41410404426794
 10
17.8278449410125
 20
-11.37460216845764
 10
17.84688820107777
 20
-11.33643765350062
 10
18.10993327076749
 20
-10.80927275970559
 10
18.37100378332929
 20
-10.28108892430802
 10
18.63948917113874
 20
-9.756702506806352
 10
18.68908386387291
 20
-9.659837939641521
 10
18.66625964353721
 20
-9.633261738763748
 10
18.5708691070614
 20
-9.618494956568307
 10
18.44411534771332
 20
-9.598871744137897
 10
18.29818165846584
 20
-9.521085856707788
 10
18.19855900815069
 20
-9.561691824436719
 10
18.10687107934445
 20
-9.599063511236938
 10
18.06506298950027
 20
-9.759747167282057
 10
18.00219307620652
 20
-9.866645876363033
 10
17.92105770447834
 20
-10.00459869120034
 10
17.84231620152167
 20
-10.14397902604893
 10
17.75977406069945
 20
-10.28107747552591
 10
17.6832602402868
 20
-10.40816539619972
 10
17.57138363654917
 20
-10.44378112605363
 10
17.4661029623689
 20
-10.3789058870289
 10
17.3672824423464
 20
-10.31801267751082
 10
17.3458157971186
 20
-10.20268194045163
 10
17.41552689434777
 20
-10.08015993716864
 10
17.52939057732
 20
-9.880035226968427
 10
17.6461760252482
 20
-9.681573452360327
 10
17.76141302540403
 20
-9.482227259338943
 10
17.76514425502889
 20
-9.475772292910177
 10
17.76542117244457
 20
-9.467320229563483
 10
17.76890589548055
 20
-9.453431425841193
 10
17.69348847483626
 20
-9.435248613302418
 10
17.61723475644097
 20
-9.420335859135724
 10
17.54311999252973
 20
-9.398246149722934
 10
17.40400101190832
 20
-9.356780807791235
 10
17.34199494499737
 20
-9.231429524244351
 10
17.41054899969125
 20
-9.104711542340888
 10
17.53679078381624
 20
-8.871362466636986
 10
17.67076264247069
 20
-8.641990411596655
 10
17.80807718770916
 20
-8.414931010530128
 10
17.86793034693333
 20
-8.315959151920145
 10
17.9820868682836
 20
-8.293234035103624
 10
18.07413185598013
 20
-8.345952098690405
 10
18.1711534861232
 20
-8.40152090900786
 10
18.20452060362792
 20
-8.509941590551635
 10
18.14658583094554
 20
-8.619735410392978
 10
18.06873411301901
 20
-8.767273718000017
 10
17.98227720428485
 20
-8.910271152427059
 10
17.89443928621654
 20
-9.064105574611907
 10
18.25062198674014
 20
-9.139852147739576
 10
18.59311373280598
 20
-9.213520051376992
 10
18.93599688410861
 20
-9.285318225796041
 10
19.17356769819306
 20
-9.33506461489277
 10
19.22914938839014
 20
-9.444590819453777
 10
19.12238055143027
 20
-9.66007049302728
 10
18.9941981987479
 20
-9.918765025539061
 10
18.86530995709707
 20
-10.17710965464978
 10
18.73712331112139
 20
-10.43580204051512
 10
18.72049610184321
 20
-10.46935627405087
 10
18.70622698389249
 20
-10.50407828335655
 10
18.70925590229318
 20
-10.55173026088697
 10
19.25376319646971
 20
-10.04609623283123
 10
19.7982704906468
 20
-9.540462204775293
 10
20.36145897715639
 20
-9.017480409721075
 10
20.15028225676042
 20
-8.971747534281094
 10
19.95934483637916
 20
-8.929920840166232
 10
19.76817844035652
 20
-8.889170331563844
 10
19.64607968423486
 20
-8.863142956675295
 10
19.52351546356804
 20
-8.839303730255828
 10
19.40138450774652
 20
-8.813423758435874
 10
19.19049221803
 20
-8.768734868808829
 10
19.13061651901666
 20
-8.641042309333492
 10
19.2362648064329
 20
-8.454535925379079
 10
19.39401184988249
 20
-8.176056466390239
 10
19.552557088105
 20
-7.897983439164413
 10
19.7152381988432
 20
-7.622379055567206
 10
19.7535998475164
 20
-7.557388613173618
 10
19.7509741409082
 20
-7.526685126367283
 10
19.67953195205612
 20
-7.4907373818341
 10
19.55428943193902
 20
-7.427719707696976
 10
19.43355737417417
 20
-7.355155180429593
 10
19.31421956339793
 20
-7.28128477645997
 10
19.26930813807042
 20
-7.253485702549369
 10
19.23363945759931
 20
-7.24951941511871
 10
19.18554527086209
 20
-7.271720034607419
 10
18.67008532561319
 20
-7.509673667341555
 10
18.13638675501278
 20
-7.559400021069803
 10
17.58692553706653
 20
-7.415652691418017
 10
17.51061582697179
 20
-7.395688877722123
 10
17.4835024277736
 20
-7.431243785921095
 10
17.45180540135
 20
-7.486794707516006
 10
17.24095193015985
 20
-7.856319890193439
 10
17.02789546286168
 20
-8.224588569040809
 10
16.81554202233597
 20
-8.593257955260115
 10
16.79995468446499
 20
-8.620320013826484
 10
16.7852011399236
 20
-8.647918734050865
 10
16.76846337834402
 20
-8.674253794957014
 10
16.6941631083854
 20
-8.791156592901238
 10
16.58206862001445
 20
-8.825935130567863
 10
16.4805578150975
 20
-8.764242652952866
 10
16.38465136788083
 20
-8.705956187996939
 10
16.35793313055069
 20
-8.590966767752636
 10
16.42199836824526
 20
-8.476035306967585
 10
16.53410734648082
 20
-8.274918130473199
 10
16.65104001859069
 20
-8.076492133309177
 10
16.76581083865292
 20
-7.87685685854088
 10
16.87280883014041
 20
-7.690741879823083
 10
16.97798896970375
 20
-7.503550715592356
 10
17.08758798136235
 20
-7.31898203799978
 10
17.11767645390834
 20
-7.268311875301352
 10
17.11870308766111
 20
-7.241938174756038
 10
17.06007405368
 20
-7.213904400813488
 10
16.98291820703694
 20
-7.177013562859277
 10
16.90976818189998
 20
-7.13107174714686
 10
16.83744318461943
 20
-7.085020452456369
 10
16.79830248210555
 20
-7.060097885035146
 10
16.76037713936054
 20
-7.052259047076404
 10
16.71566356329736
 20
-7.062341846316535
 10
15.80977796819403
 20
-7.266609584520867
 10
14.90231859041569
 20
-6.62383560515309
 10
14.79393147258639
 20
-5.704651891926295
 10
14.79268782347971
 20
-5.694105059238987
 10
14.78334171255652
 20
-5.684514199852565
 10
14.77777780013874
 20
-5.674476837966127
 10
14.77777777777778
 20
-5.549425727173936
 10
14.77777777777778
 20
-5.424374258606929
 10
14.77777777777778
 20
-5.299323147814738
 97
        0
 97
        1
330
7F
 75
     2
 76
     1
 98
        1
 10
0.0
 20
0.0
450
        0
451
        0
460
0.0
461
0.0
452
        0
462
0.0
453
        0
470

  0
SPLINE
  5
81
330
79
100
AcDbEntity
  8
Слой 1
100
AcDbSpline
210
0.0
220
0.0
230
1.0
 70
     9
 71
     3
 72
    29
 73
    25
 74
     0
 42
0.0000000001
 43
0.0000000001
 40
0.0
 40
0.0
 40
0.0
 40
0.0
 40
1.0
 40
1.0
 40
1.0
 40
2.0
 40
2.0
 40
2.0
 40
3.0
 40
3.0
 40
3.0
 40
4.0
 40
4.0
 40
4.0
 40
5.0
 40
5.0
 40
5.0
 40
6.0
 40
6.0
 40
6.0
 40
7.0
 40
7.0
 40
7.0
 40
8.0
 40
8.0
 40
8.0
 40
8.0
 10
23.02957545144722
 20
-10.09307201667211
 30
0.0
 10
22.8815913568893
 20
-10.09652239336214
 30
0.0
 10
22.78713318060138
 20
-9.946878225406736
 30
0.0
 10
22.85274829716541
 20
-9.803883653175287
 30
0.0
 10
22.88994395894194
 20
-9.72282126743241
 30
0.0
 10
22.94029641793875
 20
-9.647766630069883
 30
0.0
 10
22.98516562588277
 20
-9.570261237799766
 30
0.0
 10
23.09245860239528
 20
-9.384921198516469
 30
0.0
 10
23.19952832765764
 20
-9.199448782690724
 30
0.0
 10
23.30768354056833
 20
-9.014612489818064
 30
0.0
 10
23.35592727702124
 20
-8.93216408589847
 30
0.0
 10
23.42882525006568
 20
-8.894138387423632
 30
0.0
 10
23.52379432825236
 20
-8.910998150087328
 30
0.0
 10
23.60408177456015
 20
-8.925251883737068
 30
0.0
 10
23.65382387036346
 20
-8.977657968013266
 30
0.0
 10
23.67774824709932
 20
-9.054427060487846
 30
0.0
 10
23.69668596370487
 20
-9.115193617854654
 30
0.0
 10
23.67619479048542
 20
-9.170340969882696
 30
0.0
 10
23.64681363800583
 20
-9.221703783894907
 30
0.0
 10
23.50181266672027
 20
-9.475189836123414
 30
0.0
 10
23.3561548215643
 20
-9.728305234034097
 30
0.0
 10
23.20940361772318
 20
-9.980780931246954
 30
0.0
 10
23.17001551418444
 20
-10.04854555664052
 30
0.0
 10
23.11313080948083
 20
-10.09313784716889
 30
0.0
 10
23.02957545144722
 20
-10.09307201667211
 30
0.0
  0
HATCH
  5
82
330
79
100
AcDbEntity
  8
Слой 1
 62
    18
420
        0
440
 33554687
100
AcDbHatch
 10
0.0
 20
0.0
 30
0.0
210
0.0
220
0.0
230
1.0
  2
SOLID
 70
     1
 71
     1
 91
        1
 92
        1
 93
        1
 72
     4
 94
        3
 73
     0
 74
     0
 95
       29
 96
       25
 40
0.0
 40
0.0
 40
0.0
 40
0.0
 40
1.0
 40
1.0
 40
1.0
 40
2.0
 40
2.0
 40
2.0
 40
3.0
 40
3.0
 40
3.0
 40
4.0
 40
4.0
 40
4.0
 40
5.0
 40
5.0
 40
5.0
 40
6.0
 40
6.0
 40
6.0
 40
7.0
 40
7.0
 40
7.0
 40
8.0
 40
8.0
 40
8.0
 40
8.0
 10
23.02957545144722
 20
-10.09307201667211
 10
22.8815913568893
 20
-10.09652239336214
 10
22.78713318060138
 20
-9.946878225406736
 10
22.85274829716541
 20
-9.803883653175287
 10
22.88994395894194
 20
-9.72282126743241
 10
22.94029641793875
 20
-9.647766630069883
 10
22.98516562588277
 20
-9.570261237799766
 10
23.09245860239528
 20
-9.384921198516469
 10
23.19952832765764
 20
-9.199448782690724
 10
23.30768354056833
 20
-9.014612489818064
 10
23.35592727702124
 20
-8.93216408589847
 10
23.42882525006568
 20
-8.894138387423632
 10
23.52379432825236
 20
-8.910998150087328
 10
23.60408177456015
 20
-8.925251883737068
 10
23.65382387036346
 20
-8.977657968013266
 10
23.67774824709932
 20
-9.054427060487846
 10
23.69668596370487
 20
-9.115193617854654
 10
23.67619479048542
 20
-9.170340969882696
 10
23.64681363800583
 20
-9.221703783894907
 10
23.50181266672027
 20
-9.475189836123414
 10
23.3561548215643
 20
-9.728305234034097
 10
23.20940361772318
 20
-9.980780931246954
 10
23.17001551418444
 20
-10.04854555664052
 10
23.11313080948083
 20
-10.09313784716889
 10
23.02957545144722
 20
-10.09307201667211
 97
        0
 97
        1
330
81
 75
     2
 76
     1
 98
        1
 10
0.0
 20
0.0
450
        0
451
        0
460
0.0
461
0.0
452
        0
462
0.0
453
        0
470

  0
SPLINE
  5
83
330
79
100
AcDbEntity
  8
Слой 1
100
AcDbSpline
210
0.0
220
0.0
230
1.0
 70
     9
 71
     3
 72
    23
 73
    19
 74
     0
 42
0.0000000001
 43
0.0000000001
 40
0.0
 40
0.0
 40
0.0
 40
0.0
 40
1.0
 40
1.0
 40
1.0
 40
2.0
 40
2.0
 40
2.0
 40
3.0
 40
3.0
 40
3.0
 40
4.0
 40
4.0
 40
4.0
 40
5.0
 40
5.0
 40
5.0
 40
6.0
 40
6.0
 40
6.0
 40
6.0
 10
24.58992637903611
 20
-9.545890358564216
 30
0.0
 10
24.45933155331166
 20
-9.545330083792123
 30
0.0
 10
24.35542598518777
 20
-9.419449294075649
 30
0.0
 10
24.40399100308666
 20
-9.299554070723742
 30
0.0
 10
24.47980412225987
 20
-9.112389381801978
 30
0.0
 10
24.58545706074402
 20
-8.938692753861484
 30
0.0
 10
24.70390544426515
 20
-8.775272123358565
 30
0.0
 10
24.7648322845804
 20
-8.69121087226828
 30
0.0
 10
24.8749831633118
 20
-8.680252956750184
 30
0.0
 10
24.95473824125403
 20
-8.737219234026168
 30
0.0
 10
25.04005456507667
 20
-8.798156092025994
 30
0.0
 10
25.07814895624389
 20
-8.88371999575995
 30
0.0
 10
25.02680259985583
 20
-8.981041798657617
 30
0.0
 10
24.93991707734388
 20
-9.145723941832631
 30
0.0
 10
24.84540022604834
 20
-9.306535681126762
 30
0.0
 10
24.749548876095
 20
-9.466248337343786
 30
0.0
 10
24.71578570228639
 20
-9.522506936779386
 30
0.0
 10
24.65743054463847
 20
-9.547857402429446
 30
0.0
 10
24.58992637903611
 20
-9.545890358564216
 30
0.0
  0
HATCH
  5
84
330
79
100
AcDbEntity
  8
Слой 1
 62
    18
420
        0
440
 33554687
100
AcDbHatch
 10
0.0
 20
0.0
 30
0.0
210
0.0
220
0.0
230
1.0
  2
SOLID
 70
     1
 71
     1
 91
        1
 92
        1
 93
        1
 72
     4
 94
        3
 73
     0
 74
     0
 95
       23
 96
       19
 40
0.0
 40
0.0
 40
0.0
 40
0.0
 40
1.0
 40
1.0
 40
1.0
 40
2.0
 40
2.0
 40
2.0
 40
3.0
 40
3.0
 40
3.0
 40
4.0
 40
4.0
 40
4.0
 40
5.0
 40
5.0
 40
5.0
 40
6.0
 40
6.0
 40
6.0
 40
6.0
 10
24.58992637903611
 20
-9.545890358564216
 10
24.45933155331166
 20
-9.545330083792123
 10
24.35542598518777
 20
-9.419449294075649
 10
24.40399100308666
 20
-9.299554070723742
 10
24.47980412225987
 20
-9.112389381801978
 10
24.58545706074402
 20
-8.938692753861484
 10
24.70390544426515
 20
-8.775272123358565
 10
24.7648322845804
 20
-8.69121087226828
 10
24.8749831633118
 20
-8.680252956750184
 10
24.95473824125403
 20
-8.737219234026168
 10
25.04005456507667
 20
-8.798156092025994
 10
25.07814895624389
 20
-8.88371999575995
 10
25.02680259985583
 20
-8.981041798657617
 10
24.93991707734388
 20
-9.145723941832631
 10
24.84540022604834
 20
-9.306535681126762
 10
24.749548876095
 20
-9.466248337343786
 10
24.71578570228639
 20
-9.522506936779386
 10
24.65743054463847
 20
-9.547857402429446
 10
24.58992637903611
 20
-9.545890358564216
 97
        0
 97
        1
330
83
 75
     2
 76
     1
 98
        1
 10
0.0
 20
0.0
450
        0
451
        0
460
0.0
461
0.0
452
        0
462
0.0
453
        0
470

  0
SPLINE
  5
85
330
79
100
AcDbEntity
  8
Слой 1
100
AcDbSpline
210
0.0
220
0.0
230
1.0
 70
     9
 71
     3
 72
    23
 73
    19
 74
     0
 42
0.0000000001
 43
0.0000000001
 40
0.0
 40
0.0
 40
0.0
 40
0.0
 40
1.0
 40
1.0
 40
1.0
 40
2.0
 40
2.0
 40
2.0
 40
3.0
 40
3.0
 40
3.0
 40
4.0
 40
4.0
 40
4.0
 40
5.0
 40
5.0
 40
5.0
 40
6.0
 40
6.0
 40
6.0
 40
6.0
 10
23.9817377391382
 20
-8.491484722792543
 30
0.0
 10
23.82827254017403
 20
-8.488133091848187
 30
0.0
 10
23.73235106643097
 20
-8.365197501313559
 30
0.0
 10
23.77979553478791
 20
-8.240619726103936
 30
0.0
 10
23.84338207028236
 20
-8.073657128654353
 30
0.0
 10
23.93564208041681
 20
-7.919061362463556
 30
0.0
 10
24.04043636024765
 20
-7.774501169286799
 30
0.0
 10
24.09820047452179
 20
-7.694815499585324
 30
0.0
 10
24.21405284671348
 20
-7.682622546704603
 30
0.0
 10
24.29262154461639
 20
-7.736710886392554
 30
0.0
 10
24.37444455881597
 20
-7.793036747422724
 30
0.0
 10
24.41440438590805
 20
-7.87136502090243
 30
0.0
 10
24.37231436980611
 20
-7.968497203347295
 30
0.0
 10
24.30423704955264
 20
-8.125597390611245
 30
0.0
 10
24.21256736724293
 20
-8.270383697233278
 30
0.0
 10
24.12059143001278
 20
-8.414252670193844
 30
0.0
 10
24.08512167212999
 20
-8.469734899096591
 30
0.0
 10
24.02684594040751
 20
-8.494100053941615
 30
0.0
 10
23.9817377391382
 20
-8.491484722792543
 30
0.0
  0
HATCH
  5
86
330
79
100
AcDbEntity
  8
Слой 1
 62
    18
420
        0
440
 33554687
100
AcDbHatch
 10
0.0
 20
0.0
 30
0.0
210
0.0
220
0.0
230
1.0
  2
SOLID
 70
     1
 71
     1
 91
        1
 92
        1
 93
        1
 72
     4
 94
        3
 73
     0
 74
     0
 95
       23
 96
       19
 40
0.0
 40
0.0
 40
0.0
 40
0.0
 40
1.0
 40
1.0
 40
1.0
 40
2.0
 40
2.0
 40
2.0
 40
3.0
 40
3.0
 40
3.0
 40
4.0
 40
4.0
 40
4.0
 40
5.0
 40
5.0
 40
5.0
 40
6.0
 40
6.0
 40
6.0
 40
6.0
 10
23.9817377391382
 20
-8.491484722792543
 10
23.82827254017403
 20
-8.488133091848187
 10
23.73235106643097
 20
-8.365197501313559
 10
23.77979553478791
 20
-8.240619726103936
 10
23.84338207028236
 20
-8.073657128654353
 10
23.93564208041681
 20
-7.919061362463556
 10
24.04043636024765
 20
-7.774501169286799
 10
24.09820047452179
 20
-7.694815499585324
 10
24.21405284671348
 20
-7.682622546704603
 10
24.29262154461639
 20
-7.736710886392554
 10
24.37444455881597
 20
-7.793036747422724
 10
24.41440438590805
 20
-7.87136502090243
 10
24.37231436980611
 20
-7.968497203347295
 10
24.30423704955264
 20
-8.125597390611245
 10
24.21256736724293
 20
-8.270383697233278
 10
24.12059143001278
 20
-8.414252670193844
 10
24.08512167212999
 20
-8.469734899096591
 10
24.02684594040751
 20
-8.494100053941615
 10
23.9817377391382
 20
-8.491484722792543
 97
        0
 97
        1
330
85
 75
     2
 76
     1
 98
        1
 10
0.0
 20
0.0
450
        0
451
        0
460
0.0
461
0.0
452
        0
462
0.0
453
        0
470

  0
SPLINE
  5
87
330
79
100
AcDbEntity
  8
Слой 1
100
AcDbSpline
210
0.0
220
0.0
230
1.0
 70
     9
 71
     3
 72
    23
 73
    19
 74
     0
 42
0.0000000001
 43
0.0000000001
 40
0.0
 40
0.0
 40
0.0
 40
0.0
 40
1.0
 40
1.0
 40
1.0
 40
2.0
 40
2.0
 40
2.0
 40
3.0
 40
3.0
 40
3.0
 40
4.0
 40
4.0
 40
4.0
 40
5.0
 40
5.0
 40
5.0
 40
6.0
 40
6.0
 40
6.0
 40
6.0
 10
15.80667007108569
 20
-8.237062017082482
 30
0.0
 10
15.63855892824361
 20
-8.233579440692967
 30
0.0
 10
15.54327008915223
 20
-8.093359767010143
 30
0.0
 10
15.60557266162916
 20
-7.96139752737953
 30
0.0
 10
15.66859462905944
 20
-7.827911168638668
 30
0.0
 10
15.74612900105901
 20
-7.700133458846721
 30
0.0
 10
15.82833063005945
 20
-7.577227921365091
 30
0.0
 10
15.88718756635762
 20
-7.489226858152656
 30
0.0
 10
16.0062505169211
 20
-7.472253323217652
 30
0.0
 10
16.08902726833124
 20
-7.529812074963956
 30
0.0
 10
16.17583238103834
 20
-7.590170769470457
 30
0.0
 10
16.21203539763403
 20
-7.675338259126369
 30
0.0
 10
16.16154385382416
 20
-7.773925152439915
 30
0.0
 10
16.09586827337999
 20
-7.902160097965305
 30
0.0
 10
16.02303478917805
 20
-8.027019799432512
 30
0.0
 10
15.9475916982182
 20
-8.149836608853446
 30
0.0
 10
15.91115317659791
 20
-8.209156326388942
 30
0.0
 10
15.85225733232902
 20
-8.241721671375874
 30
0.0
 10
15.80667007108569
 20
-8.237062017082482
 30
0.0
  0
HATCH
  5
88
330
79
100
AcDbEntity
  8
Слой 1
 62
    18
420
        0
440
 33554687
100
AcDbHatch
 10
0.0
 20
0.0
 30
0.0
210
0.0
220
0.0
230
1.0
  2
SOLID
 70
     1
 71
     1
 91
        1
 92
        1
 93
        1
 72
     4
 94
        3
 73
     0
 74
     0
 95
       23
 96
       19
 40
0.0
 40
0.0
 40
0.0
 40
0.0
 40
1.0
 40
1.0
 40
1.0
 40
2.0
 40
2.0
 40
2.0
 40
3.0
 40
3.0
 40
3.0
 40
4.0
 40
4.0
 40
4.0
 40
5.0
 40
5.0
 40
5.0
 40
6.0
 40
6.0
 40
6.0
 40
6.0
 10
15.80667007108569
 20
-8.237062017082482
 10
15.63855892824361
 20
-8.233579440692967
 10
15.54327008915223
 20
-8.093359767010143
 10
15.60557266162916
 20
-7.96139752737953
 10
15.66859462905944
 20
-7.827911168638668
 10
15.74612900105901
 20
-7.700133458846721
 10
15.82833063005945
 20
-7.577227921365091
 10
15.88718756635762
 20
-7.489226858152656
 10
16.0062505169211
 20
-7.472253323217652
 10
16.08902726833124
 20
-7.529812074963956
 10
16.17583238103834
 20
-7.590170769470457
 10
16.21203539763403
 20
-7.675338259126369
 10
16.16154385382416
 20
-7.773925152439915
 10
16.09586827337999
 20
-7.902160097965305
 10
16.02303478917805
 20
-8.027019799432512
 10
15.9475916982182
 20
-8.149836608853446
 10
15.91115317659791
 20
-8.209156326388942
 10
15.85225733232902
 20
-8.241721671375874
 10
15.80667007108569
 20
-8.237062017082482
 97
        0
 97
        1
330
87
 75
     2
 76
     1
 98
        1
 10
0.0
 20
0.0
450
        0
451
        0
460
0.0
461
0.0
452
        0
462
0.0
453
        0
470

  0
SPLINE
  5
89
330
79
100
AcDbEntity
  8
Слой 1
100
AcDbSpline
210
0.0
220
0.0
230
1.0
 70
     9
 71
     3
 72
    26
 73
    22
 74
     0
 42
0.0000000001
 43
0.0000000001
 40
0.0
 40
0.0
 40
0.0
 40
0.0
 40
1.0
 40
1.0
 40
1.0
 40
2.0
 40
2.0
 40
2.0
 40
3.0
 40
3.0
 40
3.0
 40
4.0
 40
4.0
 40
4.0
 40
5.0
 40
5.0
 40
5.0
 40
6.0
 40
6.0
 40
6.0
 40
7.0
 40
7.0
 40
7.0
 40
7.0
 10
25.64771369880471
 20
-7.718897297074969
 30
0.0
 10
25.64144620618223
 20
-7.737436452955029
 30
0.0
 10
25.63408034603279
 20
-7.77655765676233
 30
0.0
 10
25.61591542221529
 20
-7.809773435679289
 30
0.0
 10
25.55610913144263
 20
-7.919131486253515
 30
0.0
 10
25.4958992711032
 20
-8.028576118242501
 30
0.0
 10
25.42917863152237
 20
-8.133760372211275
 30
0.0
 10
25.36366941619207
 20
-8.237035541773821
 30
0.0
 10
25.2499686994771
 20
-8.265885041437336
 30
0.0
 10
25.15615308608194
 20
-8.21181673711731
 30
0.0
 10
25.06078258497473
 20
-8.156852565602395
 30
0.0
 10
25.02757467709515
 20
-8.046695246931196
 30
0.0
 10
25.08500248339735
 20
-7.937891031188327
 30
0.0
 10
25.14855825029056
 20
-7.817474888253147
 30
0.0
 10
25.21771461825236
 20
-7.699422203261999
 30
0.0
 10
25.29287301020195
 20
-7.585930426819534
 30
0.0
 10
25.34241689896667
 20
-7.511118360526223
 30
0.0
 10
25.42053265442931
 20
-7.484833388041301
 30
0.0
 10
25.50908612137583
 20
-7.514566590569251
 30
0.0
 10
25.59607110518166
 20
-7.543772433574304
 30
0.0
 10
25.6403564252411
 20
-7.607653775206825
 30
0.0
 10
25.64771369880471
 20
-7.718897297074969
 30
0.0
  0
HATCH
  5
8A
330
79
100
AcDbEntity
  8
Слой 1
 62
    18
420
        0
440
 33554687
100
AcDbHatch
 10
0.0
 20
0.0
 30
0.0
210
0.0
220
0.0
230
1.0
  2
SOLID
 70
     1
 71
     1
 91
        1
 92
        1
 93
        1
 72
     4
 94
        3
 73
     0
 74
     0
 95
       26
 96
       22
 40
0.0
 40
0.0
 40
0.0
 40
0.0
 40
1.0
 40
1.0
 40
1.0
 40
2.0
 40
2.0
 40
2.0
 40
3.0
 40
3.0
 40
3.0
 40
4.0
 40
4.0
 40
4.0
 40
5.0
 40
5.0
 40
5.0
 40
6.0
 40
6.0
 40
6.0
 40
7.0
 40
7.0
 40
7.0
 40
7.0
 10
25.64771369880471
 20
-7.718897297074969
 10
25.64144620618223
 20
-7.737436452955029
 10
25.63408034603279
 20
-7.77655765676233
 10
25.61591542221529
 20
-7.809773435679289
 10
25.55610913144263
 20
-7.919131486253515
 10
25.4958992711032
 20
-8.028576118242501
 10
25.42917863152237
 20
-8.133760372211275
 10
25.36366941619207
 20
-8.237035541773821
 10
25.2499686994771
 20
-8.265885041437336
 10
25.15615308608194
 20
-8.21181673711731
 10
25.06078258497473
 20
-8.156852565602395
 10
25.02757467709515
 20
-8.046695246931196
 10
25.08500248339735
 20
-7.937891031188327
 10
25.14855825029056
 20
-7.817474888253147
 10
25.21771461825236
 20
-7.699422203261999
 10
25.29287301020195
 20
-7.585930426819534
 10
25.34241689896667
 20
-7.511118360526223
 10
25.42053265442931
 20
-7.484833388041301
 10
25.50908612137583
 20
-7.514566590569251
 10
25.59607110518166
 20
-7.543772433574304
 10
25.6403564252411
 20
-7.607653775206825
 10
25.64771369880471
 20
-7.718897297074969
 97
        0
 97
        1
330
89
 75
     2
 76
     1
 98
        1
 10
0.0
 20
0.0
450
        0
451
        0
460
0.0
461
0.0
452
        0
462
0.0
453
        0
470

  0
SPLINE
  5
8B
330
79
100
AcDbEntity
  8
Слой 1
100
AcDbSpline
210
0.0
220
0.0
230
1.0
 70
     9
 71
     3
 72
    26
 73
    22
 74
     0
 42
0.0000000001
 43
0.0000000001
 40
0.0
 40
0.0
 40
0.0
 40
0.0
 40
1.0
 40
1.0
 40
1.0
 40
2.0
 40
2.0
 40
2.0
 40
3.0
 40
3.0
 40
3.0
 40
4.0
 40
4.0
 40
4.0
 40
5.0
 40
5.0
 40
5.0
 40
6.0
 40
6.0
 40
6.0
 40
7.0
 40
7.0
 40
7.0
 40
7.0
 10
22.88462599968069
 20
-10.51329455290508
 30
0.0
 10
22.87833632504291
 20
-10.53463579819163
 30
0.0
 10
22.87414964855778
 20
-10.5710114409539
 30
0.0
 10
22.85773853504055
 20
-10.60060940474371
 30
0.0
 10
22.79361247569139
 20
-10.71626500099364
 30
0.0
 10
22.72983918193929
 20
-10.83252022720292
 30
0.0
 10
22.65781346297763
 20
-10.9432707358941
 30
0.0
 10
22.59310065354819
 20
-11.04277639396721
 30
0.0
 10
22.48687670705971
 20
-11.06689253780253
 30
0.0
 10
22.39340312602791
 20
-11.01517982038902
 30
0.0
 10
22.30282465575667
 20
-10.96506850136438
 30
0.0
 10
22.26184660261139
 20
-10.85228225611576
 30
0.0
 10
22.3131643370439
 20
-10.75236658853535
 30
0.0
 10
22.37700990123277
 20
-10.62806072189929
 30
0.0
 10
22.45030500390486
 20
-10.50811755677286
 30
0.0
 10
22.52643368013332
 20
-10.39077612736638
 30
0.0
 10
22.57986371485375
 20
-10.30842217589901
 30
0.0
 10
22.66513352799888
 20
-10.29206615964545
 30
0.0
 10
22.75428662490556
 20
-10.3216669856312
 30
0.0
 10
22.83654469282333
 20
-10.34897948630406
 30
0.0
 10
22.87485804194737
 20
-10.41531372949066
 30
0.0
 10
22.88462599968069
 20
-10.51329455290508
 30
0.0
  0
HATCH
  5
8C
330
79
100
AcDbEntity
  8
Слой 1
 62
    18
420
        0
440
 33554687
100
AcDbHatch
 10
0.0
 20
0.0
 30
0.0
210
0.0
220
0.0
230
1.0
  2
SOLID
 70
     1
 71
     1
 91
        1
 92
        1
 93
        1
 72
     4
 94
        3
 73
     0
 74
     0
 95
       26
 96
       22
 40
0.0
 40
0.0
 40
0.0
 40
0.0
 40
1.0
 40
1.0
 40
1.0
 40
2.0
 40
2.0
 40
2.0
 40
3.0
 40
3.0
 40
3.0
 40
4.0
 40
4.0
 40
4.0
 40
5.0
 40
5.0
 40
5.0
 40
6.0
 40
6.0
 40
6.0
 40
7.0
 40
7.0
 40
7.0
 40
7.0
 10
22.88462599968069
 20
-10.51329455290508
 10
22.87833632504291
 20
-10.53463579819163
 10
22.87414964855778
 20
-10.5710114409539
 10
22.85773853504055
 20
-10.60060940474371
 10
22.79361247569139
 20
-10.71626500099364
 10
22.72983918193929
 20
-10.83252022720292
 10
22.65781346297763
 20
-10.9432707358941
 10
22.59310065354819
 20
-11.04277639396721
 10
22.48687670705971
 20
-11.06689253780253
 10
22.39340312602791
 20
-11.01517982038902
 10
22.30282465575667
 20
-10.96506850136438
 10
22.26184660261139
 20
-10.85228225611576
 10
22.3131643370439
 20
-10.75236658853535
 10
22.37700990123277
 20
-10.62806072189929
 10
22.45030500390486
 20
-10.50811755677286
 10
22.52643368013332
 20
-10.39077612736638
 10
22.57986371485375
 20
-10.30842217589901
 10
22.66513352799888
 20
-10.29206615964545
 10
22.75428662490556
 20
-10.3216669856312
 10
22.83654469282333
 20
-10.34897948630406
 10
22.87485804194737
 20
-10.41531372949066
 10
22.88462599968069
 20
-10.51329455290508
 97
        0
 97
        1
330
8B
 75
     2
 76
     1
 98
        1
 10
0.0
 20
0.0
450
        0
451
        0
460
0.0
461
0.0
452
        0
462
0.0
453
        0
470

  0
SPLINE
  5
8D
330
79
100
AcDbEntity
  8
Слой 1
100
AcDbSpline
210
0.0
220
0.0
230
1.0
 70
     9
 71
     3
 72
    23
 73
    19
 74
     0
 42
0.0000000001
 43
0.0000000001
 40
0.0
 40
0.0
 40
0.0
 40
0.0
 40
1.0
 40
1.0
 40
1.0
 40
2.0
 40
2.0
 40
2.0
 40
3.0
 40
3.0
 40
3.0
 40
4.0
 40
4.0
 40
4.0
 40
5.0
 40
5.0
 40
5.0
 40
6.0
 40
6.0
 40
6.0
 40
6.0
 10
15.98271083715028
 20
-9.838414610930106
 30
0.0
 10
15.84007725932737
 20
-9.841571612579778
 30
0.0
 10
15.73871314193153
 20
-9.694476945277124
 30
0.0
 10
15.8029470702736
 20
-9.559611008299471
 30
0.0
 10
15.86457899456473
 20
-9.430209002554267
 30
0.0
 10
15.94004158423179
 20
-9.306288816763551
 30
0.0
 10
16.02010166488334
 20
-9.187131324305028
 30
0.0
 10
16.08081223055028
 20
-9.096772527539188
 30
0.0
 10
16.19453933313055
 20
-9.078385783570359
 30
0.0
 10
16.27863689832623
 20
-9.135477281899712
 30
0.0
 10
16.36595300237556
 20
-9.194753350953607
 30
0.0
 10
16.40378120936
 20
-9.280970550813233
 30
0.0
 10
16.3546789931407
 20
-9.378460507697228
 30
0.0
 10
16.28836299645068
 20
-9.510126510092302
 30
0.0
 10
16.21120249873959
 20
-9.636578307813527
 30
0.0
 10
16.13404244824667
 20
-9.762415449048198
 30
0.0
 10
16.10155304088514
 20
-9.815400412366923
 30
0.0
 10
16.04354215169069
 20
-9.833555318499696
 30
0.0
 10
15.98271083715028
 20
-9.838414610930106
 30
0.0
  0
HATCH
  5
8E
330
79
100
AcDbEntity
  8
Слой 1
 62
    18
420
        0
440
 33554687
100
AcDbHatch
 10
0.0
 20
0.0
 30
0.0
210
0.0
220
0.0
230
1.0
  2
SOLID
 70
     1
 71
     1
 91
        1
 92
        1
 93
        1
 72
     4
 94
        3
 73
     0
 74
     0
 95
       23
 96
       19
 40
0.0
 40
0.0
 40
0.0
 40
0.0
 40
1.0
 40
1.0
 40
1.0
 40
2.0
 40
2.0
 40
2.0
 40
3.0
 40
3.0
 40
3.0
 40
4.0
 40
4.0
 40
4.0
 40
5.0
 40
5.0
 40
5.0
 40
6.0
 40
6.0
 40
6.0
 40
6.0
 10
15.98271083715028
 20
-9.838414610930106
 10
15.84007725932737
 20
-9.841571612579778
 10
15.73871314193153
 20
-9.694476945277124
 10
15.8029470702736
 20
-9.559611008299471
 10
15.86457899456473
 20
-9.430209002554267
 10
15.94004158423179
 20
-9.306288816763551
 10
16.02010166488334
 20
-9.187131324305028
 10
16.08081223055028
 20
-9.096772527539188
 10
16.19453933313055
 20
-9.078385783570359
 10
16.27863689832623
 20
-9.135477281899712
 10
16.36595300237556
 20
-9.194753350953607
 10
16.40378120936
 20
-9.280970550813233
 10
16.3546789931407
 20
-9.378460507697228
 10
16.28836299645068
 20
-9.510126510092302
 10
16.21120249873959
 20
-9.636578307813527
 10
16.13404244824667
 20
-9.762415449048198
 10
16.10155304088514
 20
-9.815400412366923
 10
16.04354215169069
 20
-9.833555318499696
 10
15.98271083715028
 20
-9.838414610930106
 97
        0
 97
        1
330
8D
 75
     2
 76
     1
 98
        1
 10
0.0
 20
0.0
450
        0
451
        0
460
0.0
461
0.0
452
        0
462
0.0
453
        0
470

  0
SPLINE
  5
8F
330
79
100
AcDbEntity
  8
Слой 1
100
AcDbSpline
210
0.0
220
0.0
230
1.0
 70
     9
 71
     3
 72
    23
 73
    19
 74
     0
 42
0.0000000001
 43
0.0000000001
 40
0.0
 40
0.0
 40
0.0
 40
0.0
 40
1.0
 40
1.0
 40
1.0
 40
2.0
 40
2.0
 40
2.0
 40
3.0
 40
3.0
 40
3.0
 40
4.0
 40
4.0
 40
4.0
 40
5.0
 40
5.0
 40
5.0
 40
6.0
 40
6.0
 40
6.0
 40
6.0
 10
18.5295429393864
 20
-7.924616883952542
 30
0.0
 10
18.48882284161153
 20
-8.046907764948173
 30
0.0
 10
18.43434595888207
 20
-8.180425607839323
 30
0.0
 10
18.31745782969041
 20
-8.271167938803348
 30
0.0
 10
18.25121338788749
 20
-8.322595152214791
 30
0.0
 10
18.16974278150999
 20
-8.314711234676654
 30
0.0
 10
18.10145544766083
 20
-8.259935968065443
 30
0.0
 10
18.03174202489791
 20
-8.204017969896085
 30
0.0
 10
18.00025501207041
 20
-8.132593311991159
 30
0.0
 10
18.0323917432793
 20
-8.043963996863668
 30
0.0
 10
18.06698423823764
 20
-7.948559149410407
 30
0.0
 10
18.11830340376804
 20
-7.861234279887765
 30
0.0
 10
18.18125918292708
 20
-7.782596173743765
 30
0.0
 10
18.23823440456403
 20
-7.711427682337165
 30
0.0
 10
18.31701526270902
 20
-7.694539297718569
 30
0.0
 10
18.4015956445104
 20
-7.72800623429167
 30
0.0
 10
18.4811188846161
 20
-7.759472496202053
 30
0.0
 10
18.52182610251151
 20
-7.82223185719441
 30
0.0
 10
18.5295429393864
 20
-7.924616883952542
 30
0.0
  0
HATCH
  5
90
330
79
100
AcDbEntity
  8
Слой 1
 62
    18
420
        0
440
 33554687
100
AcDbHatch
 10
0.0
 20
0.0
 30
0.0
210
0.0
220
0.0
230
1.0
  2
SOLID
 70
     1
 71
     1
 91
        1
 92
        1
 93
        1
 72
     4
 94
        3
 73
     0
 74
     0
 95
       23
 96
       19
 40
0.0
 40
0.0
 40
0.0
 40
0.0
 40
1.0
 40
1.0
 40
1.0
 40
2.0
 40
2.0
 40
2.0
 40
3.0
 40
3.0
 40
3.0
 40
4.0
 40
4.0
 40
4.0
 40
5.0
 40
5.0
 40
5.0
 40
6.0
 40
6.0
 40
6.0
 40
6.0
 10
18.5295429393864
 20
-7.924616883952542
 10
18.48882284161153
 20
-8.046907764948173
 10
18.43434595888207
 20
-8.180425607839323
 10
18.31745782969041
 20
-8.271167938803348
 10
18.25121338788749
 20
-8.322595152214791
 10
18.16974278150999
 20
-8.314711234676654
 10
18.10145544766083
 20
-8.259935968065443
 10
18.03174202489791
 20
-8.204017969896085
 10
18.00025501207041
 20
-8.132593311991159
 10
18.0323917432793
 20
-8.043963996863668
 10
18.06698423823764
 20
-7.948559149410407
 10
18.11830340376804
 20
-7.861234279887765
 10
18.18125918292708
 20
-7.782596173743765
 10
18.23823440456403
 20
-7.711427682337165
 10
18.31701526270902
 20
-7.694539297718569
 10
18.4015956445104
 20
-7.72800623429167
 10
18.4811188846161
 20
-7.759472496202053
 10
18.52182610251151
 20
-7.82223185719441
 10
18.5295429393864
 20
-7.924616883952542
 97
        0
 97
        1
330
8F
 75
     2
 76
     1
 98
        1
 10
0.0
 20
0.0
450
        0
451
        0
460
0.0
461
0.0
452
        0
462
0.0
453
        0
470

  0
SPLINE
  5
91
330
79
100
AcDbEntity
  8
Слой 1
100
AcDbSpline
210
0.0
220
0.0
230
1.0
 70
     9
 71
     3
 72
    23
 73
    19
 74
     0
 42
0.0000000001
 43
0.0000000001
 40
0.0
 40
0.0
 40
0.0
 40
0.0
 40
1.0
 40
1.0
 40
1.0
 40
2.0
 40
2.0
 40
2.0
 40
3.0
 40
3.0
 40
3.0
 40
4.0
 40
4.0
 40
4.0
 40
5.0
 40
5.0
 40
5.0
 40
6.0
 40
6.0
 40
6.0
 40
6.0
 10
17.47575607450749
 20
-10.72969871562918
 30
0.0
 10
17.43458661203721
 20
-10.84655357179842
 30
0.0
 10
17.38259554610987
 20
-10.97799131410147
 30
0.0
 10
17.26661026071472
 20
-11.06499418662952
 30
0.0
 10
17.19959374167292
 20
-11.11526364195571
 30
0.0
 10
17.11807000579124
 20
-11.10784769338422
 30
0.0
 10
17.04899181154471
 20
-11.05415791442071
 30
0.0
 10
16.98097316629888
 20
-11.00129173221593
 30
0.0
 10
16.95297284426707
 20
-10.92996653560506
 30
0.0
 10
16.97986531774889
 20
-10.84722618774367
 30
0.0
 10
17.01379950773945
 20
-10.74281973540534
 30
0.0
 10
17.0689876460536
 20
-10.64755012668967
 30
0.0
 10
17.14299436208458
 20
-10.56700436723708
 30
0.0
 10
17.20055365049249
 20
-10.50436020961413
 30
0.0
 10
17.27631453459833
 20
-10.48968573322438
 30
0.0
 10
17.35688515937459
 20
-10.52653650044163
 30
0.0
 10
17.43570179496305
 20
-10.56258370626892
 30
0.0
 10
17.47394824026694
 20
-10.62511266052206
 30
0.0
 10
17.47575607450749
 20
-10.72969871562918
 30
0.0
  0
HATCH
  5
92
330
79
100
AcDbEntity
  8
Слой 1
 62
    18
420
        0
440
 33554687
100
AcDbHatch
 10
0.0
 20
0.0
 30
0.0
210
0.0
220
0.0
230
1.0
  2
SOLID
 70
     1
 71
     1
 91
        1
 92
        1
 93
        1
 72
     4
 94
        3
 73
     0
 74
     0
 95
       23
 96
       19
 40
0.0
 40
0.0
 40
0.0
 40
0.0
 40
1.0
 40
1.0
 40
1.0
 40
2.0
 40
2.0
 40
2.0
 40
3.0
 40
3.0
 40
3.0
 40
4.0
 40
4.0
 40
4.0
 40
5.0
 40
5.0
 40
5.0
 40
6.0
 40
6.0
 40
6.0
 40
6.0
 10
17.47575607450749
 20
-10.72969871562918
 10
17.43458661203721
 20
-10.84655357179842
 10
17.38259554610987
 20
-10.97799131410147
 10
17.26661026071472
 20
-11.06499418662952
 10
17.19959374167292
 20
-11.11526364195571
 10
17.11807000579124
 20
-11.10784769338422
 10
17.04899181154471
 20
-11.05415791442071
 10
16.98097316629888
 20
-11.00129173221593
 10
16.95297284426707
 20
-10.92996653560506
 10
16.97986531774889
 20
-10.84722618774367
 10
17.01379950773945
 20
-10.74281973540534
 10
17.0689876460536
 20
-10.64755012668967
 10
17.14299436208458
 20
-10.56700436723708
 10
17.20055365049249
 20
-10.50436020961413
 10
17.27631453459833
 20
-10.48968573322438
 10
17.35688515937459
 20
-10.52653650044163
 10
17.43570179496305
 20
-10.56258370626892
 10
17.47394824026694
 20
-10.62511266052206
 10
17.47575607450749
 20
-10.72969871562918
 97
        0
 97
        1
330
91
 75
     2
 76
     1
 98
        1
 10
0.0
 20
0.0
450
        0
451
        0
460
0.0
461
0.0
452
        0
462
0.0
453
        0
470

  0
SPLINE
  5
93
330
79
100
AcDbEntity
  8
Слой 1
100
AcDbSpline
210
0.0
220
0.0
230
1.0
 70
     9
 71
     3
 72
    23
 73
    19
 74
     0
 42
0.0000000001
 43
0.0000000001
 40
0.0
 40
0.0
 40
0.0
 40
0.0
 40
1.0
 40
1.0
 40
1.0
 40
2.0
 40
2.0
 40
2.0
 40
3.0
 40
3.0
 40
3.0
 40
4.0
 40
4.0
 40
4.0
 40
5.0
 40
5.0
 40
5.0
 40
6.0
 40
6.0
 40
6.0
 40
6.0
 10
18.00830529472207
 20
-4.526841265556337
 30
0.0
 10
18.00970419277918
 20
-4.398556231609505
 30
0.0
 10
18.0725826926593
 20
-4.320228315904651
 30
0.0
 10
18.17499347917707
 20
-4.30422900076644
 30
0.0
 10
18.27451845707027
 20
-4.288680481421971
 30
0.0
 10
18.3697240241604
 20
-4.345303653010912
 30
0.0
 10
18.39492458232083
 20
-4.45209252533876
 30
0.0
 10
18.42887272551403
 20
-4.595949691742652
 30
0.0
 10
18.45535340061736
 20
-4.74212308986518
 30
0.0
 10
18.47476910387318
 20
-4.888662849012954
 30
0.0
 10
18.48798779607055
 20
-4.988427178005673
 30
0.0
 10
18.41583184721263
 20
-5.07364082056396
 30
0.0
 10
18.32063880222722
 20
-5.092640789921473
 30
0.0
 10
18.21719869864834
 20
-5.113287237247428
 30
0.0
 10
18.12308398582207
 20
-5.064548698745562
 30
0.0
 10
18.09070647241555
 20
-4.959365518099755
 30
0.0
 10
18.04593994573555
 20
-4.813937364134075
 30
0.0
 10
18.01963279123568
 20
-4.663889984386413
 30
0.0
 10
18.00830529472207
 20
-4.526841265556337
 30
0.0
  0
HATCH
  5
94
330
79
100
AcDbEntity
  8
Слой 1
 62
    18
420
        0
440
 33554687
100
AcDbHatch
 10
0.0
 20
0.0
 30
0.0
210
0.0
220
0.0
230
1.0
  2
SOLID
 70
     1
 71
     1
 91
        1
 92
        1
 93
        1
 72
     4
 94
        3
 73
     0
 74
     0
 95
       23
 96
       19
 40
0.0
 40
0.0
 40
0.0
 40
0.0
 40
1.0
 40
1.0
 40
1.0
 40
2.0
 40
2.0
 40
2.0
 40
3.0
 40
3.0
 40
3.0
 40
4.0
 40
4.0
 40
4.0
 40
5.0
 40
5.0
 40
5.0
 40
6.0
 40
6.0
 40
6.0
 40
6.0
 10
18.00830529472207
 20
-4.526841265556337
 10
18.00970419277918
 20
-4.398556231609505
 10
18.0725826926593
 20
-4.320228315904651
 10
18.17499347917707
 20
-4.30422900076644
 10
18.27451845707027
 20
-4.288680481421971
 10
18.3697240241604
 20
-4.345303653010912
 10
18.39492458232083
 20
-4.45209252533876
 10
18.42887272551403
 20
-4.595949691742652
 10
18.45535340061736
 20
-4.74212308986518
 10
18.47476910387318
 20
-4.888662849012954
 10
18.48798779607055
 20
-4.988427178005673
 10
18.41583184721263
 20
-5.07364082056396
 10
18.32063880222722
 20
-5.092640789921473
 10
18.21719869864834
 20
-5.113287237247428
 10
18.12308398582207
 20
-5.064548698745562
 10
18.09070647241555
 20
-4.959365518099755
 10
18.04593994573555
 20
-4.813937364134075
 10
18.01963279123568
 20
-4.663889984386413
 10
18.00830529472207
 20
-4.526841265556337
 97
        0
 97
        1
330
93
 75
     2
 76
     1
 98
        1
 10
0.0
 20
0.0
450
        0
451
        0
460
0.0
461
0.0
452
        0
462
0.0
453
        0
470

  0
SPLINE
  5
95
330
79
100
AcDbEntity
  8
Слой 1
100
AcDbSpline
210
0.0
220
0.0
230
1.0
 70
     9
 71
     3
 72
    26
 73
    22
 74
     0
 42
0.0000000001
 43
0.0000000001
 40
0.0
 40
0.0
 40
0.0
 40
0.0
 40
1.0
 40
1.0
 40
1.0
 40
2.0
 40
2.0
 40
2.0
 40
3.0
 40
3.0
 40
3.0
 40
4.0
 40
4.0
 40
4.0
 40
5.0
 40
5.0
 40
5.0
 40
6.0
 40
6.0
 40
6.0
 40
7.0
 40
7.0
 40
7.0
 40
7.0
 10
22.56916482803028
 20
-3.225344437878713
 30
0.0
 10
22.57024602238458
 20
-3.250956794418331
 30
0.0
 10
22.55139202499777
 20
-3.293684364570695
 30
0.0
 10
22.52200157038265
 20
-3.330924748151915
 30
0.0
 10
22.45925294262416
 20
-3.4104308150848
 30
0.0
 10
22.39735009363916
 20
-3.490923266145917
 30
0.0
 10
22.32970639600555
 20
-3.566161799570257
 30
0.0
 10
22.25383245517777
 20
-3.65055470756575
 30
0.0
 10
22.13756363353974
 20
-3.661990609734453
 30
0.0
 10
22.0560712029207
 20
-3.60008382523031
 30
0.0
 10
21.97241566804458
 20
-3.536533782727688
 30
0.0
 10
21.95370478043348
 20
-3.42678182249622
 30
0.0
 10
22.01561049161417
 20
-3.328551988072363
 30
0.0
 10
22.07807146872402
 20
-3.229440239656709
 30
0.0
 10
22.1526803191361
 20
-3.138758730346832
 30
0.0
 10
22.23612834483765
 20
-3.056720335934806
 30
0.0
 10
22.29676753450445
 20
-2.997106170035736
 30
0.0
 10
22.37177637673903
 20
-2.982149409613637
 30
0.0
 10
22.45176758581124
 20
-3.016895032031634
 30
0.0
 10
22.53177453695861
 20
-3.051647094389585
 30
0.0
 10
22.56918557894735
 20
-3.115146690696406
 30
0.0
 10
22.56916482803028
 20
-3.225344437878713
 30
0.0
  0
HATCH
  5
96
330
79
100
AcDbEntity
  8
Слой 1
 62
    18
420
        0
440
 33554687
100
AcDbHatch
 10
0.0
 20
0.0
 30
0.0
210
0.0
220
0.0
230
1.0
  2
SOLID
 70
     1
 71
     1
 91
        1
 92
        1
 93
        1
 72
     4
 94
        3
 73
     0
 74
     0
 95
       26
 96
       22
 40
0.0
 40
0.0
 40
0.0
 40
0.0
 40
1.0
 40
1.0
 40
1.0
 40
2.0
 40
2.0
 40
2.0
 40
3.0
 40
3.0
 40
3.0
 40
4.0
 40
4.0
 40
4.0
 40
5.0
 40
5.0
 40
5.0
 40
6.0
 40
6.0
 40
6.0
 40
7.0
 40
7.0
 40
7.0
 40
7.0
 10
22.56916482803028
 20
-3.225344437878713
 10
22.57024602238458
 20
-3.250956794418331
 10
22.55139202499777
 20
-3.293684364570695
 10
22.52200157038265
 20
-3.330924748151915
 10
22.45925294262416
 20
-3.4104308150848
 10
22.39735009363916
 20
-3.490923266145917
 10
22.32970639600555
 20
-3.566161799570257
 10
22.25383245517777
 20
-3.65055470756575
 10
22.13756363353974
 20
-3.661990609734453
 10
22.0560712029207
 20
-3.60008382523031
 10
21.97241566804458
 20
-3.536533782727688
 10
21.95370478043348
 20
-3.42678182249622
 10
22.01561049161417
 20
-3.328551988072363
 10
22.07807146872402
 20
-3.229440239656709
 10
22.1526803191361
 20
-3.138758730346832
 10
22.23612834483765
 20
-3.056720335934806
 10
22.29676753450445
 20
-2.997106170035736
 10
22.37177637673903
 20
-2.982149409613637
 10
22.45176758581124
 20
-3.016895032031634
 10
22.53177453695861
 20
-3.051647094389585
 10
22.56918557894735
 20
-3.115146690696406
 10
22.56916482803028
 20
-3.225344437878713
 97
        0
 97
        1
330
95
 75
     2
 76
     1
 98
        1
 10
0.0
 20
0.0
450
        0
451
        0
460
0.0
461
0.0
452
        0
462
0.0
453
        0
470

  0
ENDBLK
  5
7C
330
79
100
AcDbEntity
  8
0
100
AcDbBlockEnd
  0
ENDSEC
  0
SECTION
  2
ENTITIES
  0
INSERT
  5
7A
330
70
100
AcDbEntity
  8
Слой 1
100
AcDbBlockReference
  2
Block_0
 10
0.0
 20
0.0
 30
0.0
  0
ENDSEC
  0
SECTION
  2
OBJECTS
  0
DICTIONARY
  5
C
330
0
100
AcDbDictionary
281
     1
  3
ACAD_COLOR
350
63
  3
ACAD_DETAILVIEWSTYLE
350
6A
  3
ACAD_GROUP
350
D
  3
ACAD_LAYOUT
350
62
  3
ACAD_MATERIAL
350
10
  3
ACAD_MLEADERSTYLE
350
66
  3
ACAD_MLINESTYLE
350
5F
  3
ACAD_PLOTSETTINGS
350
61
  3
ACAD_PLOTSTYLENAME
350
E
  3
ACAD_SCALELIST
350
42
  3
ACAD_SECTIONVIEWSTYLE
350
68
  3
ACAD_TABLESTYLE
350
64
  3
ACAD_VISUALSTYLE
350
29
  3
ACDB_RECOMPOSE_DATA
350
9F
  3
AcDbVariableDictionary
350
97
  0
DICTIONARY
  5
63
102
{ACAD_REACTORS
330
C
102
}
330
C
100
AcDbDictionary
281
     1
  0
DICTIONARY
  5
6A
102
{ACAD_REACTORS
330
C
102
}
330
C
100
AcDbDictionary
281
     1
  3
Imperial24
350
6B
  0
DICTIONARY
  5
D
102
{ACAD_REACTORS
330
C
102
}
330
C
100
AcDbDictionary
281
     1
  0
DICTIONARY
  5
62
102
{ACAD_REACTORS
330
C
102
}
330
C
100
AcDbDictionary
281
     1
  3
Layout1
350
6F
  3
Layout2
350
77
  3
Model
350
73
  0
DICTIONARY
  5
10
102
{ACAD_REACTORS
330
C
102
}
330
C
100
AcDbDictionary
281
     1
  3
ByBlock
350
19
  3
ByLayer
350
11
  3
Global
350
21
  0
DICTIONARY
  5
66
102
{ACAD_REACTORS
330
C
102
}
330
C
100
AcDbDictionary
281
     1
  3
Standard
350
67
  0
DICTIONARY
  5
5F
102
{ACAD_REACTORS
330
C
102
}
330
C
100
AcDbDictionary
281
     1
  3
Standard
350
60
  0
DICTIONARY
  5
61
102
{ACAD_REACTORS
330
C
102
}
330
C
100
AcDbDictionary
281
     1
  0
ACDBDICTIONARYWDFLT
  5
E
102
{ACAD_REACTORS
330
C
102
}
330
C
100
AcDbDictionary
281
     1
  3
Normal
350
F
100
AcDbDictionaryWithDefault
340
F
  0
DICTIONARY
  5
42
102
{ACAD_REACTORS
330
C
102
}
330
C
100
AcDbDictionary
281
     1
  3
A0
350
43
  3
A1
350
44
  3
A2
350
45
  3
A3
350
46
  3
A4
350
47
  3
A5
350
48
  3
A6
350
49
  3
A7
350
4A
  3
A8
350
4B
  3
A9
350
4C
  3
B0
350
4D
  3
B1
350
4E
  3
B2
350
4F
  3
B3
350
50
  3
B4
350
51
  3
B5
350
52
  3
B6
350
53
  0
DICTIONARY
  5
68
102
{ACAD_REACTORS
330
C
102
}
330
C
100
AcDbDictionary
281
     1
  3
Imperial24
350
69
  0
DICTIONARY
  5
64
102
{ACAD_REACTORS
330
C
102
}
330
C
100
AcDbDictionary
281
     1
  3
Standard
350
65
  0
DICTIONARY
  5
29
102
{ACAD_REACTORS
330
C
102
}
330
C
100
AcDbDictionary
281
     1
  3
2dWireframe
350
2F
  3
Basic
350
2E
  3
Brighten
350
35
  3
ColorChange
350
39
  3
Conceptual
350
32
  3
Dim
350
34
  3
EdgeColorOff
350
41
  3
Facepattern
350
38
  3
Flat
350
2A
  3
FlatWithEdges
350
2B
  3
Gouraud
350
2C
  3
GouraudWithEdges
350
2D
  3
Hidden
350
31
  3
JitterOff
350
3F
  3
Linepattern
350
37
  3
OverhangOff
350
40
  3
Realistic
350
33
  3
Shaded
350
3E
  3
Shaded with edges
350
3D
  3
Shades of Gray
350
3A
  3
Sketchy
350
3B
  3
Thicken
350
36
  3
Wireframe
350
30
  3
X-Ray
350
3C
  0
XRECORD
  5
9F
102
{ACAD_REACTORS
330
C
102
}
330
C
100
AcDbXrecord
280
     1
 90
        1
330
65
  0
DICTIONARY
  5
97
102
{ACAD_REACTORS
330
C
102
}
330
C
100
AcDbDictionary
281
     1
  3
CANNOSCALE
350
9C
  3
CMLEADERSTYLE
350
99
  3
CTABLESTYLE
350
98
  3
CVIEWDETAILSTYLE
350
9A
  3
CVIEWSECTIONSTYLE
350
9B
  0
ACDBDETAILVIEWSTYLE
  5
6B
102
{ACAD_XDICTIONARY
360
A2
102
}
102
{ACAD_REACTORS
330
6A
102
}
330
6A
100
AcDbModelDocViewStyle
 70
     0
  3
Imperial24
290
     0
100
AcDbDetailViewStyle
 70
     0
 71
     0
 90
        3
 71
     1
340
55
 62
   256
 40
0.24
340
0
 62
   256
 40
0.24
300

 40
0.36
280
     3
 71
     2
340
5D
 90
       25
 62
   256
 71
     3
340
55
 62
   256
 40
0.24
 90
        1
 40
0.75
 90
        1
300
%<\AcVar ViewType \f "%tc1">% %<\AcVar ViewDetailId>%\PSCALE %<\AcVar ViewScale \f "%sn">%
 71
     4
340
5D
 90
       25
 62
   256
340
5D
 90
       25
 62
   256
280
     0
  0
LAYOUT
  5
6F
102
{ACAD_REACTORS
330
62
102
}
330
62
100
AcDbPlotSettings
  1

  2

  4

  6

 40
0.0
 41
0.0
 42
0.0
 43
0.0
 44
0.0
 45
0.0
 46
0.0
 47
0.0
 48
0.0
 49
0.0
140
0.0
141
0.0
142
1.0
143
1.0
 70
   688
 72
     0
 73
     0
 74
     5
  7

 75
    16
147
1.0
 76
     0
 77
     2
 78
   300
148
0.0
149
0.0
100
AcDbLayout
  1
Layout1
 70
     1
 71
     1
 10
0.0
 20
0.0
 11
12.0
 21
9.0
 12
0.0
 22
0.0
 32
0.0
 14
0.0
 24
0.0
 34
0.0
 15
0.0
 25
0.0
 35
0.0
146
0.0
 13
0.0
 23
0.0
 33
0.0
 16
1.0
 26
0.0
 36
0.0
 17
0.0
 27
1.0
 37
0.0
 76
     0
330
6C
  0
LAYOUT
  5
77
102
{ACAD_REACTORS
330
62
102
}
330
62
100
AcDbPlotSettings
  1

  2

  4

  6

 40
0.0
 41
0.0
 42
0.0
 43
0.0
 44
0.0
 45
0.0
 46
0.0
 47
0.0
 48
0.0
 49
0.0
140
0.0
141
0.0
142
1.0
143
1.0
 70
   688
 72
     0
 73
     0
 74
     5
  7

 75
    16
147
1.0
 76
     0
 77
     2
 78
   300
148
0.0
149
0.0
100
AcDbLayout
  1
Layout2
 70
     1
 71
     2
 10
0.0
 20
0.0
 11
12.0
 21
9.0
 12
0.0
 22
0.0
 32
0.0
 14
0.0
 24
0.0
 34
0.0
 15
0.0
 25
0.0
 35
0.0
146
0.0
 13
0.0
 23
0.0
 33
0.0
 16
1.0
 26
0.0
 36
0.0
 17
0.0
 27
1.0
 37
0.0
 76
     0
330
74
  0
LAYOUT
  5
73
102
{ACAD_REACTORS
330
62
102
}
330
62
100
AcDbPlotSettings
  1

  2

  4

  6

 40
0.0
 41
0.0
 42
0.0
 43
0.0
 44
0.0
 45
0.0
 46
0.0
 47
0.0
 48
0.0
 49
0.0
140
0.0
141
0.0
142
1.0
143
1.0
 70
  1712
 72
     0
 73
     0
 74
     0
  7

 75
     0
147
1.0
 76
     0
 77
     2
 78
   300
148
0.0
149
0.0
100
AcDbLayout
  1
Model
 70
     1
 71
     0
 10
0.0
 20
0.0
 11
12.0
 21
9.0
 12
0.0
 22
0.0
 32
0.0
 14
0.0
 24
0.0
 34
0.0
 15
0.0
 25
0.0
 35
0.0
146
0.0
 13
0.0
 23
0.0
 33
0.0
 16
1.0
 26
0.0
 36
0.0
 17
0.0
 27
1.0
 37
0.0
 76
     0
330
70
  0
MATERIAL
  5
19
102
{ACAD_XDICTIONARY
360
1A
102
}
102
{ACAD_REACTORS
330
10
102
}
330
10
100
AcDbMaterial
  1
ByBlock
 72
     0
 43
0.0208333333333333
 43
0.0
 43
0.0
 43
0.0
 43
0.0
 43
0.0208333333333333
 43
0.0
 43
0.0
 43
0.0
 43
0.0
 43
1.0
 43
0.0
 43
0.0
 43
0.0
 43
0.0
 43
1.0
 77
     0
 47
0.0208333333333333
 47
0.0
 47
0.0
 47
0.0
 47
0.0
 47
0.0208333333333333
 47
0.0
 47
0.0
 47
0.0
 47
0.0
 47
1.0
 47
0.0
 47
0.0
 47
0.0
 47
0.0
 47
1.0
171
     0
 49
0.0208333333333333
 49
0.0
 49
0.0
 49
0.0
 49
0.0
 49
0.0208333333333333
 49
0.0
 49
0.0
 49
0.0
 49
0.0
 49
1.0
 49
0.0
 49
0.0
 49
0.0
 49
0.0
 49
1.0
175
     0
142
0.0208333333333333
142
0.0
142
0.0
142
0.0
142
0.0
142
0.0208333333333333
142
0.0
142
0.0
142
0.0
142
0.0
142
1.0
142
0.0
142
0.0
142
0.0
142
0.0
142
1.0
179
     0
144
0.0208333333333333
144
0.0
144
0.0
144
0.0
144
0.0
144
0.0208333333333333
144
0.0
144
0.0
144
0.0
144
0.0
144
1.0
144
0.0
144
0.0
144
0.0
144
0.0
144
1.0
147
0.0208333333333333
147
0.0
147
0.0
147
0.0
147
0.0
147
0.0208333333333333
147
0.0
147
0.0
147
0.0
147
0.0
147
1.0
147
0.0
147
0.0
147
0.0
147
0.0
147
1.0
  0
MATERIAL
  5
11
102
{ACAD_XDICTIONARY
360
12
102
}
102
{ACAD_REACTORS
330
10
102
}
330
10
100
AcDbMaterial
  1
ByLayer
 72
     0
 43
0.0208333333333333
 43
0.0
 43
0.0
 43
0.0
 43
0.0
 43
0.0208333333333333
 43
0.0
 43
0.0
 43
0.0
 43
0.0
 43
1.0
 43
0.0
 43
0.0
 43
0.0
 43
0.0
 43
1.0
 77
     0
 47
0.0208333333333333
 47
0.0
 47
0.0
 47
0.0
 47
0.0
 47
0.0208333333333333
 47
0.0
 47
0.0
 47
0.0
 47
0.0
 47
1.0
 47
0.0
 47
0.0
 47
0.0
 47
0.0
 47
1.0
171
     0
 49
0.0208333333333333
 49
0.0
 49
0.0
 49
0.0
 49
0.0
 49
0.0208333333333333
 49
0.0
 49
0.0
 49
0.0
 49
0.0
 49
1.0
 49
0.0
 49
0.0
 49
0.0
 49
0.0
 49
1.0
175
     0
142
0.0208333333333333
142
0.0
142
0.0
142
0.0
142
0.0
142
0.0208333333333333
142
0.0
142
0.0
142
0.0
142
0.0
142
1.0
142
0.0
142
0.0
142
0.0
142
0.0
142
1.0
179
     0
144
0.0208333333333333
144
0.0
144
0.0
144
0.0
144
0.0
144
0.0208333333333333
144
0.0
144
0.0
144
0.0
144
0.0
144
1.0
144
0.0
144
0.0
144
0.0
144
0.0
144
1.0
147
0.0208333333333333
147
0.0
147
0.0
147
0.0
147
0.0
147
0.0208333333333333
147
0.0
147
0.0
147
0.0
147
0.0
147
1.0
147
0.0
147
0.0
147
0.0
147
0.0
147
1.0
  0
MATERIAL
  5
21
102
{ACAD_XDICTIONARY
360
22
102
}
102
{ACAD_REACTORS
330
10
102
}
330
10
100
AcDbMaterial
  1
Global
 72
     0
 43
0.0208333333333333
 43
0.0
 43
0.0
 43
0.0
 43
0.0
 43
0.0208333333333333
 43
0.0
 43
0.0
 43
0.0
 43
0.0
 43
1.0
 43
0.0
 43
0.0
 43
0.0
 43
0.0
 43
1.0
 77
     0
 47
0.0208333333333333
 47
0.0
 47
0.0
 47
0.0
 47
0.0
 47
0.0208333333333333
 47
0.0
 47
0.0
 47
0.0
 47
0.0
 47
1.0
 47
0.0
 47
0.0
 47
0.0
 47
0.0
 47
1.0
171
     0
 49
0.0208333333333333
 49
0.0
 49
0.0
 49
0.0
 49
0.0
 49
0.0208333333333333
 49
0.0
 49
0.0
 49
0.0
 49
0.0
 49
1.0
 49
0.0
 49
0.0
 49
0.0
 49
0.0
 49
1.0
175
     0
142
0.0208333333333333
142
0.0
142
0.0
142
0.0
142
0.0
142
0.0208333333333333
142
0.0
142
0.0
142
0.0
142
0.0
142
1.0
142
0.0
142
0.0
142
0.0
142
0.0
142
1.0
179
     0
144
0.0208333333333333
144
0.0
144
0.0
144
0.0
144
0.0
144
0.0208333333333333
144
0.0
144
0.0
144
0.0
144
0.0
144
1.0
144
0.0
144
0.0
144
0.0
144
0.0
144
1.0
147
0.0208333333333333
147
0.0
147
0.0
147
0.0
147
0.0
147
0.0208333333333333
147
0.0
147
0.0
147
0.0
147
0.0
147
1.0
147
0.0
147
0.0
147
0.0
147
0.0
147
1.0
  0
MLEADERSTYLE
  5
67
102
{ACAD_REACTORS
330
66
102
}
330
66
100
AcDbMLeaderStyle
179
     2
170
     2
171
     1
172
     0
 90
        2
 40
0.0
 41
0.0
173
     1
 91
-1056964608
340
5B
 92
       -2
290
     1
 42
0.09
291
     1
 43
0.36
  3
Standard
 44
0.18
300

342
55
174
     1
178
     6
175
     1
176
     0
 93
-1056964608
 45
0.18
292
     0
297
     0
 46
0.18
 94
-1056964608
 47
1.0
 49
1.0
140
1.0
293
     1
141
0.0
294
     1
177
     0
142
1.0
295
     0
296
     0
143
0.125
271
     0
272
     9
273
     9
298
     1
  0
MLINESTYLE
  5
60
102
{ACAD_REACTORS
330
5F
102
}
330
5F
100
AcDbMlineStyle
  2
STANDARD
 70
     0
  3

 62
   256
 51
90.0
 52
90.0
 71
     2
 49
0.5
 62
   256
  6
BYLAYER
 49
-0.5
 62
   256
  6
BYLAYER
  0
ACDBPLACEHOLDER
  5
F
102
{ACAD_REACTORS
330
E
102
}
330
E
  0
SCALE
  5
43
102
{ACAD_REACTORS
330
42
102
}
330
42
100
AcDbScale
 70
     0
300
1:1
140
1.0
141
1.0
290
     1
  0
SCALE
  5
44
102
{ACAD_REACTORS
330
42
102
}
330
42
100
AcDbScale
 70
     0
300
1/128" = 1'-0"
140
0.0078125
141
12.0
290
     0
  0
SCALE
  5
45
102
{ACAD_REACTORS
330
42
102
}
330
42
100
AcDbScale
 70
     0
300
1/64" = 1'-0"
140
0.015625
141
12.0
290
     0
  0
SCALE
  5
46
102
{ACAD_REACTORS
330
42
102
}
330
42
100
AcDbScale
 70
     0
300
1/32" = 1'-0"
140
0.03125
141
12.0
290
     0
  0
SCALE
  5
47
102
{ACAD_REACTORS
330
42
102
}
330
42
100
AcDbScale
 70
     0
300
1/16" = 1'-0"
140
0.0625
141
12.0
290
     0
  0
SCALE
  5
48
102
{ACAD_REACTORS
330
42
102
}
330
42
100
AcDbScale
 70
     0
300
3/32" = 1'-0"
140
0.09375
141
12.0
290
     0
  0
SCALE
  5
49
102
{ACAD_REACTORS
330
42
102
}
330
42
100
AcDbScale
 70
     0
300
1/8" = 1'-0"
140
0.125
141
12.0
290
     0
  0
SCALE
  5
4A
102
{ACAD_REACTORS
330
42
102
}
330
42
100
AcDbScale
 70
     0
300
3/16" = 1'-0"
140
0.1875
141
12.0
290
     0
  0
SCALE
  5
4B
102
{ACAD_REACTORS
330
42
102
}
330
42
100
AcDbScale
 70
     0
300
1/4" = 1'-0"
140
0.25
141
12.0
290
     0
  0
SCALE
  5
4C
102
{ACAD_REACTORS
330
42
102
}
330
42
100
AcDbScale
 70
     0
300
3/8" = 1'-0"
140
0.375
141
12.0
290
     0
  0
SCALE
  5
4D
102
{ACAD_REACTORS
330
42
102
}
330
42
100
AcDbScale
 70
     0
300
1/2" = 1'-0"
140
0.5
141
12.0
290
     0
  0
SCALE
  5
4E
102
{ACAD_REACTORS
330
42
102
}
330
42
100
AcDbScale
 70
     0
300
3/4" = 1'-0"
140
0.75
141
12.0
290
     0
  0
SCALE
  5
4F
102
{ACAD_REACTORS
330
42
102
}
330
42
100
AcDbScale
 70
     0
300
1" = 1'-0"
140
1.0
141
12.0
290
     0
  0
SCALE
  5
50
102
{ACAD_REACTORS
330
42
102
}
330
42
100
AcDbScale
 70
     0
300
1-1/2" = 1'-0"
140
1.5
141
12.0
290
     0
  0
SCALE
  5
51
102
{ACAD_REACTORS
330
42
102
}
330
42
100
AcDbScale
 70
     0
300
3" = 1'-0"
140
3.0
141
12.0
290
     0
  0
SCALE
  5
52
102
{ACAD_REACTORS
330
42
102
}
330
42
100
AcDbScale
 70
     0
300
6" = 1'-0"
140
6.0
141
12.0
290
     0
  0
SCALE
  5
53
102
{ACAD_REACTORS
330
42
102
}
330
42
100
AcDbScale
 70
     0
300
1'-0" = 1'-0"
140
12.0
141
12.0
290
     0
  0
ACDBSECTIONVIEWSTYLE
  5
69
102
{ACAD_XDICTIONARY
360
A0
102
}
102
{ACAD_REACTORS
330
68
102
}
330
68
100
AcDbModelDocViewStyle
 70
     0
  3
Imperial24
290
     0
100
AcDbSectionViewStyle
 70
     0
 71
     0
 90
       78
 71
     1
340
55
 62
   256
 40
0.24
340
0
340
0
 62
   256
 40
0.24
300
I, O, Q, S, X, Z
 40
0.48
 90
        3
 40
0.18
 90
        1
 71
     2
340
5D
 90
       25
 62
   256
340
5D
 90
       50
 62
   256
 40
0.24
 40
0.0
 40
0.24
 71
     3
340
55
 62
   256
 40
0.24
 90
        1
 40
0.75
 90
        1
300
%<\AcVar ViewType \f "%tc1">% %<\AcVar ViewSectionStartId>%-%<\AcVar ViewSectionEndId>%\PSCALE %<\AcVar ViewScale \f "%sn">%
 71
     4
 62
   256
 62
   257
300
ANSI31
 40
1.0
 90
        0
290
     0
290
     0
 90
        6
 40
0.0
 40
1.570796326794896
 40
0.2617993877991494
 40
1.308996938995747
 40
-0.2617993877991494
 40
1.832595714594046
  0
TABLESTYLE
  5
65
102
{ACAD_XDICTIONARY
360
9D
102
}
102
{ACAD_REACTORS
330
64
102
}
330
64
100
AcDbTableStyle
280
     0
  3
Standard
 70
     0
 71
     0
 40
0.06
 41
0.06
280
     0
281
     0
  7
Standard
140
0.18
170
     2
 62
     0
 63
     7
283
     0
 90
      512
 91
        0
  1

274
    -2
284
     1
 64
     0
275
    -2
285
     1
 65
     0
276
    -2
286
     1
 66
     0
277
    -2
287
     1
 67
     0
278
    -2
288
     1
 68
     0
279
    -2
289
     1
 69
     0
  7
Standard
140
0.25
170
     5
 62
     0
 63
     7
283
     0
 90
      512
 91
        0
  1

274
    -2
284
     1
 64
     0
275
    -2
285
     1
 65
     0
276
    -2
286
     1
 66
     0
277
    -2
287
     1
 67
     0
278
    -2
288
     1
 68
     0
279
    -2
289
     1
 69
     0
  7
Standard
140
0.18
170
     5
 62
     0
 63
     7
283
     0
 90
      512
 91
        0
  1

274
    -2
284
     1
 64
     0
275
    -2
285
     1
 65
     0
276
    -2
286
     1
 66
     0
277
    -2
287
     1
 67
     0
278
    -2
288
     1
 68
     0
279
    -2
289
     1
 69
     0
  0
VISUALSTYLE
  5
2F
102
{ACAD_REACTORS
330
29
102
}
330
29
100
AcDbVisualStyle
  2
2dWireframe
 70
     4
177
     3
291
     0
 70
    58
 90
        0
176
     1
 90
        2
176
     1
 90
        0
176
     1
 90
        0
176
     1
 40
0.6
176
     1
 40
30.0
176
     1
 62
     7
420
 16777215
176
     1
 90
        1
176
     1
 90
        4
176
     1
 62
     7
176
     1
 62
   257
176
     1
 90
        1
176
     1
 90
        1
176
     1
 40
1.0
176
     1
 90
        0
176
     1
 62
   257
176
     1
 40
1.0
176
     1
 90
        1
176
     1
 90
        6
176
     1
 90
        2
176
     1
 62
     7
176
     1
 90
        5
176
     1
 90
        0
176
     1
 90
        0
176
     1
290
     0
176
     1
 90
        1
176
     1
 40
0.0
176
     1
 90
        0
176
     1
290
     1
176
     1
290
     1
176
     1
290
     0
176
     1
290
     0
176
     1
290
     0
176
     1
290
     0
176
     1
290
     0
176
     1
290
     0
176
     1
290
     0
176
     1
 90
       50
176
     1
 40
0.0
176
     1
 40
1.0
176
     1
 90
        0
176
     1
 62
    18
420
        0
176
     1
 90
       50
176
     1
 90
        3
176
     1
 62
     5
420
      255
176
     1
290
     0
176
     1
 90
       50
176
     1
 90
       50
176
     1
 90
       50
176
     1
290
     0
176
     1
 90
       50
176
     1
 62
   256
176
     0
 40
1.0
176
     0
 90
        2
176
     1
  1
strokes_ogs.tif
176
     1
290
     0
176
     1
 40
1.0
176
     1
 40
1.0
176
     1
1001
ACAD
1000
AcDbSavedByObjectVersion
1070
     0
  0
VISUALSTYLE
  5
2E
102
{ACAD_REACTORS
330
29
102
}
330
29
100
AcDbVisualStyle
  2
Basic
 70
     7
177
     3
291
     1
 70
    58
 90
        1
176
     1
 90
        0
176
     1
 90
        1
176
     1
 90
        0
176
     1
 40
0.6
176
     1
 40
30.0
176
     1
 62
     7
420
 16777215
176
     1
 90
        0
176
     1
 90
        4
176
     1
 62
     7
176
     1
 62
   257
176
     1
 90
        1
176
     1
 90
        1
176
     1
 40
1.0
176
     1
 90
        8
176
     1
 62
     7
176
     1
 40
1.0
176
     1
 90
        1
176
     1
 90
        6
176
     1
 90
        2
176
     1
 62
     7
176
     1
 90
        5
176
     1
 90
        0
176
     1
 90
        0
176
     1
290
     0
176
     1
 90
        1
176
     1
 40
0.0
176
     1
 90
        0
176
     1
290
     0
176
     1
290
     1
176
     1
290
     1
176
     1
290
     0
176
     1
290
     0
176
     1
290
     0
176
     1
290
     0
176
     1
290
     0
176
     1
290
     0
176
     1
 90
       50
176
     1
 40
0.0
176
     1
 40
1.0
176
     1
 90
        0
176
     1
 62
    18
420
        0
176
     1
 90
       50
176
     1
 90
        3
176
     1
 62
     5
420
      255
176
     1
290
     0
176
     1
 90
       50
176
     1
 90
       50
176
     1
 90
       50
176
     1
290
     0
176
     1
 90
       50
176
     1
 62
   256
176
     0
 40
1.0
176
     0
 90
        2
176
     1
  1
strokes_ogs.tif
176
     1
290
     0
176
     1
 40
1.0
176
     1
 40
1.0
176
     1
1001
ACAD
1000
AcDbSavedByObjectVersion
1070
     0
  0
VISUALSTYLE
  5
35
102
{ACAD_REACTORS
330
29
102
}
330
29
100
AcDbVisualStyle
  2
Brighten
 70
    12
177
     3
291
     1
 70
    58
 90
        2
176
     1
 90
        2
176
     1
 90
        0
176
     1
 90
        0
176
     1
 40
0.6
176
     1
 40
30.0
176
     1
 62
     7
420
 16777215
176
     1
 90
        1
176
     1
 90
        4
176
     1
 62
     7
176
     1
 62
   257
176
     1
 90
        1
176
     1
 90
        1
176
     1
 40
1.0
176
     1
 90
        8
176
     1
 62
     7
176
     1
 40
1.0
176
     1
 90
        1
176
     1
 90
        6
176
     1
 90
        2
176
     1
 62
     7
176
     1
 90
        5
176
     1
 90
        0
176
     1
 90
        0
176
     1
290
     0
176
     1
 90
        1
176
     1
 40
50.0
176
     1
 90
        0
176
     1
290
     0
176
     1
290
     1
176
     1
290
     1
176
     1
290
     0
176
     1
290
     0
176
     1
290
     0
176
     1
290
     0
176
     1
290
     0
176
     1
290
     0
176
     1
 90
       50
176
     1
 40
0.0
176
     1
 40
1.0
176
     1
 90
        0
176
     1
 62
    18
420
        0
176
     1
 90
       50
176
     1
 90
        3
176
     1
 62
     5
420
      255
176
     1
290
     0
176
     1
 90
       50
176
     1
 90
       50
176
     1
 90
       50
176
     1
290
     0
176
     1
 90
       50
176
     1
 62
   256
176
     0
 40
1.0
176
     0
 90
        2
176
     1
  1
strokes_ogs.tif
176
     1
290
     0
176
     1
 40
1.0
176
     1
 40
1.0
176
     1
1001
ACAD
1000
AcDbSavedByObjectVersion
1070
     0
  0
VISUALSTYLE
  5
39
102
{ACAD_REACTORS
330
29
102
}
330
29
100
AcDbVisualStyle
  2
ColorChange
 70
    16
177
     3
291
     1
 70
    58
 90
        2
176
     1
 90
        2
176
     1
 90
        3
176
     1
 90
        0
176
     1
 40
0.6
176
     1
 40
30.0
176
     1
 62
     8
420
  8421504
176
     1
 90
        1
176
     1
 90
        4
176
     1
 62
     7
176
     1
 62
   257
176
     1
 90
        1
176
     1
 90
        1
176
     1
 40
1.0
176
     1
 90
        8
176
     1
 62
     8
420
  8421504
176
     1
 40
1.0
176
     1
 90
        1
176
     1
 90
        6
176
     1
 90
        2
176
     1
 62
     7
176
     1
 90
        5
176
     1
 90
        0
176
     1
 90
        0
176
     1
290
     0
176
     1
 90
        1
176
     1
 40
0.0
176
     1
 90
        0
176
     1
290
     0
176
     1
290
     1
176
     1
290
     1
176
     1
290
     0
176
     1
290
     0
176
     1
290
     0
176
     1
290
     0
176
     1
290
     0
176
     1
290
     0
176
     1
 90
       50
176
     1
 40
0.0
176
     1
 40
1.0
176
     1
 90
        0
176
     1
 62
    18
420
        0
176
     1
 90
       50
176
     1
 90
        3
176
     1
 62
     5
420
      255
176
     1
290
     0
176
     1
 90
       50
176
     1
 90
       50
176
     1
 90
       50
176
     1
290
     0
176
     1
 90
       50
176
     1
 62
   256
176
     0
 40
1.0
176
     0
 90
        2
176
     1
  1
strokes_ogs.tif
176
     1
290
     0
176
     1
 40
1.0
176
     1
 40
1.0
176
     1
1001
ACAD
1000
AcDbSavedByObjectVersion
1070
     0
  0
VISUALSTYLE
  5
32
102
{ACAD_REACTORS
330
29
102
}
330
29
100
AcDbVisualStyle
  2
Conceptual
 70
     9
177
     3
291
     0
 70
    58
 90
        3
176
     1
 90
        2
176
     1
 90
        0
176
     1
 90
        0
176
     1
 40
0.6
176
     1
 40
30.0
176
     1
 62
     7
420
 16777215
176
     1
 90
        2
176
     1
 90
        2
176
     1
 62
     7
176
     1
 62
   257
176
     1
 90
        1
176
     1
 90
        1
176
     1
 40
179.0
176
     1
 90
        8
176
     1
 62
     7
176
     1
 40
1.0
176
     1
 90
        1
176
     1
 90
        6
176
     1
 90
        2
176
     1
 62
     7
176
     1
 90
        3
176
     1
 90
        0
176
     1
 90
        0
176
     1
290
     0
176
     1
 90
        1
176
     1
 40
0.0
176
     1
 90
        0
176
     1
290
     0
176
     1
290
     1
176
     1
290
     1
176
     1
290
     0
176
     1
290
     0
176
     1
290
     0
176
     1
290
     0
176
     1
290
     0
176
     1
290
     0
176
     1
 90
       50
176
     1
 40
0.0
176
     1
 40
1.0
176
     1
 90
        0
176
     1
 62
    18
420
        0
176
     1
 90
       50
176
     1
 90
        3
176
     1
 62
     5
420
      255
176
     1
290
     0
176
     1
 90
       50
176
     1
 90
       50
176
     1
 90
       50
176
     1
290
     0
176
     1
 90
       50
176
     1
 62
   256
176
     0
 40
1.0
176
     0
 90
        2
176
     1
  1
strokes_ogs.tif
176
     1
290
     0
176
     1
 40
1.0
176
     1
 40
1.0
176
     1
1001
ACAD
1000
AcDbSavedByObjectVersion
1070
     0
  0
VISUALSTYLE
  5
34
102
{ACAD_REACTORS
330
29
102
}
330
29
100
AcDbVisualStyle
  2
Dim
 70
    11
177
     3
291
     1
 70
    58
 90
        2
176
     1
 90
        2
176
     1
 90
        0
176
     1
 90
        0
176
     1
 40
0.6
176
     1
 40
30.0
176
     1
 62
     7
420
 16777215
176
     1
 90
        1
176
     1
 90
        4
176
     1
 62
     7
176
     1
 62
   257
176
     1
 90
        1
176
     1
 90
        1
176
     1
 40
1.0
176
     1
 90
        8
176
     1
 62
     7
176
     1
 40
1.0
176
     1
 90
        1
176
     1
 90
        6
176
     1
 90
        2
176
     1
 62
     7
176
     1
 90
        5
176
     1
 90
        0
176
     1
 90
        0
176
     1
290
     0
176
     1
 90
        1
176
     1
 40
-50.0
176
     1
 90
        0
176
     1
290
     0
176
     1
290
     1
176
     1
290
     1
176
     1
290
     0
176
     1
290
     0
176
     1
290
     0
176
     1
290
     0
176
     1
290
     0
176
     1
290
     0
176
     1
 90
       50
176
     1
 40
0.0
176
     1
 40
1.0
176
     1
 90
        0
176
     1
 62
    18
420
        0
176
     1
 90
       50
176
     1
 90
        3
176
     1
 62
     5
420
      255
176
     1
290
     0
176
     1
 90
       50
176
     1
 90
       50
176
     1
 90
       50
176
     1
290
     0
176
     1
 90
       50
176
     1
 62
   256
176
     0
 40
1.0
176
     0
 90
        2
176
     1
  1
strokes_ogs.tif
176
     1
290
     0
176
     1
 40
1.0
176
     1
 40
1.0
176
     1
1001
ACAD
1000
AcDbSavedByObjectVersion
1070
     0
  0
VISUALSTYLE
  5
41
102
{ACAD_REACTORS
330
29
102
}
330
29
100
AcDbVisualStyle
  2
EdgeColorOff
 70
    22
177
     3
291
     1
 70
    58
 90
        2
176
     0
 90
        2
176
     0
 90
        0
176
     0
 90
        0
176
     0
 40
0.6
176
     0
 40
30.0
176
     0
 62
     7
420
 16777215
176
     0
 90
        1
176
     0
 90
        4
176
     0
 62
     7
176
     0
 62
   257
176
     0
 90
        1
176
     0
 90
        1
176
     0
 40
1.0
176
     0
 90
        8
176
     2
 62
     7
176
     0
 40
1.0
176
     0
 90
        1
176
     0
 90
        6
176
     0
 90
        2
176
     0
 62
     7
176
     0
 90
        5
176
     0
 90
        0
176
     0
 90
        0
176
     0
290
     0
176
     0
 90
        1
176
     0
 40
0.0
176
     0
 90
        0
176
     0
290
     0
176
     0
290
     1
176
     0
290
     1
176
     0
290
     0
176
     0
290
     0
176
     0
290
     0
176
     0
290
     0
176
     0
290
     0
176
     0
290
     0
176
     0
 90
       50
176
     0
 40
0.0
176
     0
 40
1.0
176
     0
 90
        0
176
     0
 62
    18
420
        0
176
     0
 90
       50
176
     0
 90
        3
176
     0
 62
     5
420
      255
176
     0
290
     0
176
     0
 90
       50
176
     0
 90
       50
176
     0
 90
       50
176
     0
290
     0
176
     0
 90
       50
176
     0
 62
   256
176
     0
 40
1.0
176
     0
 90
        2
176
     0
  1
strokes_ogs.tif
176
     0
290
     0
176
     0
 40
1.0
176
     0
 40
1.0
176
     0
1001
ACAD
1000
AcDbSavedByObjectVersion
1070
     0
  0
VISUALSTYLE
  5
38
102
{ACAD_REACTORS
330
29
102
}
330
29
100
AcDbVisualStyle
  2
Facepattern
 70
    15
177
     3
291
     1
 70
    58
 90
        2
176
     1
 90
        2
176
     1
 90
        0
176
     1
 90
        0
176
     1
 40
0.6
176
     1
 40
30.0
176
     1
 62
     7
420
 16777215
176
     1
 90
        1
176
     1
 90
        4
176
     1
 62
     7
176
     1
 62
   257
176
     1
 90
        1
176
     1
 90
        1
176
     1
 40
1.0
176
     1
 90
        8
176
     1
 62
     7
176
     1
 40
1.0
176
     1
 90
        1
176
     1
 90
        6
176
     1
 90
        2
176
     1
 62
     7
176
     1
 90
        5
176
     1
 90
        0
176
     1
 90
        0
176
     1
290
     0
176
     1
 90
        1
176
     1
 40
0.0
176
     1
 90
        0
176
     1
290
     0
176
     1
290
     1
176
     1
290
     1
176
     1
290
     0
176
     1
290
     0
176
     1
290
     0
176
     1
290
     0
176
     1
290
     0
176
     1
290
     0
176
     1
 90
       50
176
     1
 40
0.0
176
     1
 40
1.0
176
     1
 90
        0
176
     1
 62
    18
420
        0
176
     1
 90
       50
176
     1
 90
        3
176
     1
 62
     5
420
      255
176
     1
290
     0
176
     1
 90
       50
176
     1
 90
       50
176
     1
 90
       50
176
     1
290
     0
176
     1
 90
       50
176
     1
 62
   256
176
     0
 40
1.0
176
     0
 90
        2
176
     1
  1
strokes_ogs.tif
176
     1
290
     0
176
     1
 40
1.0
176
     1
 40
1.0
176
     1
1001
ACAD
1000
AcDbSavedByObjectVersion
1070
     0
  0
VISUALSTYLE
  5
2A
102
{ACAD_REACTORS
330
29
102
}
330
29
100
AcDbVisualStyle
  2
Flat
 70
     0
177
     3
291
     1
 70
    58
 90
        2
176
     1
 90
        1
176
     1
 90
        1
176
     1
 90
        2
176
     1
 40
0.6
176
     1
 40
30.0
176
     1
 62
     7
420
 16777215
176
     1
 90
        0
176
     1
 90
        0
176
     1
 62
     7
176
     1
 62
   257
176
     1
 90
        1
176
     1
 90
        1
176
     1
 40
1.0
176
     1
 90
        8
176
     1
 62
     7
176
     1
 40
1.0
176
     1
 90
        1
176
     1
 90
        6
176
     1
 90
        2
176
     1
 62
     7
176
     1
 90
        5
176
     1
 90
        0
176
     1
 90
        0
176
     1
290
     0
176
     1
 90
       13
176
     1
 40
0.0
176
     1
 90
        0
176
     1
290
     0
176
     1
290
     1
176
     1
290
     1
176
     1
290
     0
176
     1
290
     0
176
     1
290
     0
176
     1
290
     0
176
     1
290
     0
176
     1
290
     0
176
     1
 90
       50
176
     1
 40
0.0
176
     1
 40
1.0
176
     1
 90
        0
176
     1
 62
    18
420
        0
176
     1
 90
       50
176
     1
 90
        3
176
     1
 62
     5
420
      255
176
     1
290
     0
176
     1
 90
       50
176
     1
 90
       50
176
     1
 90
       50
176
     1
290
     0
176
     1
 90
       50
176
     1
 62
   256
176
     0
 40
1.0
176
     0
 90
        2
176
     1
  1
strokes_ogs.tif
176
     1
290
     0
176
     1
 40
1.0
176
     1
 40
1.0
176
     1
1001
ACAD
1000
AcDbSavedByObjectVersion
1070
     0
  0
VISUALSTYLE
  5
2B
102
{ACAD_REACTORS
330
29
102
}
330
29
100
AcDbVisualStyle
  2
FlatWithEdges
 70
     1
177
     3
291
     1
 70
    58
 90
        2
176
     1
 90
        1
176
     1
 90
        1
176
     1
 90
        2
176
     1
 40
0.6
176
     1
 40
30.0
176
     1
 62
     7
420
 16777215
176
     1
 90
        1
176
     1
 90
        0
176
     1
 62
     7
176
     1
 62
   257
176
     1
 90
        1
176
     1
 90
        1
176
     1
 40
1.0
176
     1
 90
        0
176
     1
 62
   257
176
     1
 40
1.0
176
     1
 90
        1
176
     1
 90
        6
176
     1
 90
        2
176
     1
 62
     7
176
     1
 90
        5
176
     1
 90
        0
176
     1
 90
        0
176
     1
290
     0
176
     1
 90
       13
176
     1
 40
0.0
176
     1
 90
        0
176
     1
290
     0
176
     1
290
     1
176
     1
290
     1
176
     1
290
     0
176
     1
290
     0
176
     1
290
     0
176
     1
290
     0
176
     1
290
     0
176
     1
290
     0
176
     1
 90
       50
176
     1
 40
0.0
176
     1
 40
1.0
176
     1
 90
        0
176
     1
 62
    18
420
        0
176
     1
 90
       50
176
     1
 90
        3
176
     1
 62
     5
420
      255
176
     1
290
     0
176
     1
 90
       50
176
     1
 90
       50
176
     1
 90
       50
176
     1
290
     0
176
     1
 90
       50
176
     1
 62
   256
176
     0
 40
1.0
176
     0
 90
        2
176
     1
  1
strokes_ogs.tif
176
     1
290
     0
176
     1
 40
1.0
176
     1
 40
1.0
176
     1
1001
ACAD
1000
AcDbSavedByObjectVersion
1070
     0
  0
VISUALSTYLE
  5
2C
102
{ACAD_REACTORS
330
29
102
}
330
29
100
AcDbVisualStyle
  2
Gouraud
 70
     2
177
     3
291
     1
 70
    58
 90
        2
176
     1
 90
        2
176
     1
 90
        1
176
     1
 90
        2
176
     1
 40
0.6
176
     1
 40
30.0
176
     1
 62
     7
420
 16777215
176
     1
 90
        0
176
     1
 90
        0
176
     1
 62
     7
176
     1
 62
   257
176
     1
 90
        1
176
     1
 90
        1
176
     1
 40
1.0
176
     1
 90
        0
176
     1
 62
     7
176
     1
 40
1.0
176
     1
 90
        1
176
     1
 90
        6
176
     1
 90
        2
176
     1
 62
     7
176
     1
 90
        5
176
     1
 90
        0
176
     1
 90
        0
176
     1
290
     0
176
     1
 90
       13
176
     1
 40
0.0
176
     1
 90
        0
176
     1
290
     0
176
     1
290
     1
176
     1
290
     1
176
     1
290
     0
176
     1
290
     0
176
     1
290
     0
176
     1
290
     0
176
     1
290
     0
176
     1
290
     0
176
     1
 90
       50
176
     1
 40
0.0
176
     1
 40
1.0
176
     1
 90
        0
176
     1
 62
    18
420
        0
176
     1
 90
       50
176
     1
 90
        3
176
     1
 62
     5
420
      255
176
     1
290
     0
176
     1
 90
       50
176
     1
 90
       50
176
     1
 90
       50
176
     1
290
     0
176
     1
 90
       50
176
     1
 62
   256
176
     0
 40
1.0
176
     0
 90
        2
176
     1
  1
strokes_ogs.tif
176
     1
290
     0
176
     1
 40
1.0
176
     1
 40
1.0
176
     1
1001
ACAD
1000
AcDbSavedByObjectVersion
1070
     0
  0
VISUALSTYLE
  5
2D
102
{ACAD_REACTORS
330
29
102
}
330
29
100
AcDbVisualStyle
  2
GouraudWithEdges
 70
     3
177
     3
291
     1
 70
    58
 90
        2
176
     1
 90
        2
176
     1
 90
        1
176
     1
 90
        2
176
     1
 40
0.6
176
     1
 40
30.0
176
     1
 62
     7
420
 16777215
176
     1
 90
        1
176
     1
 90
        0
176
     1
 62
     7
176
     1
 62
   257
176
     1
 90
        1
176
     1
 90
        1
176
     1
 40
1.0
176
     1
 90
        0
176
     1
 62
   257
176
     1
 40
1.0
176
     1
 90
        1
176
     1
 90
        6
176
     1
 90
        2
176
     1
 62
     7
176
     1
 90
        5
176
     1
 90
        0
176
     1
 90
        0
176
     1
290
     0
176
     1
 90
       13
176
     1
 40
0.0
176
     1
 90
        0
176
     1
290
     0
176
     1
290
     1
176
     1
290
     1
176
     1
290
     0
176
     1
290
     0
176
     1
290
     0
176
     1
290
     0
176
     1
290
     0
176
     1
290
     0
176
     1
 90
       50
176
     1
 40
0.0
176
     1
 40
1.0
176
     1
 90
        0
176
     1
 62
    18
420
        0
176
     1
 90
       50
176
     1
 90
        3
176
     1
 62
     5
420
      255
176
     1
290
     0
176
     1
 90
       50
176
     1
 90
       50
176
     1
 90
       50
176
     1
290
     0
176
     1
 90
       50
176
     1
 62
   256
176
     0
 40
1.0
176
     0
 90
        2
176
     1
  1
strokes_ogs.tif
176
     1
290
     0
176
     1
 40
1.0
176
     1
 40
1.0
176
     1
1001
ACAD
1000
AcDbSavedByObjectVersion
1070
     0
  0
VISUALSTYLE
  5
31
102
{ACAD_REACTORS
330
29
102
}
330
29
100
AcDbVisualStyle
  2
Hidden
 70
     6
177
     3
291
     0
 70
    58
 90
        1
176
     1
 90
        2
176
     1
 90
        2
176
     1
 90
        0
176
     1
 40
0.6
176
     1
 40
30.0
176
     1
 62
     7
420
 16777215
176
     1
 90
        2
176
     1
 90
        2
176
     1
 62
     7
176
     1
 62
   257
176
     1
 90
        2
176
     1
 90
        1
176
     1
 40
40.0
176
     1
 90
        0
176
     1
 62
   257
176
     1
 40
1.0
176
     1
 90
        1
176
     1
 90
        6
176
     1
 90
        2
176
     1
 62
     7
176
     1
 90
        3
176
     1
 90
        0
176
     1
 90
        0
176
     1
290
     0
176
     1
 90
        1
176
     1
 40
0.0
176
     1
 90
        0
176
     1
290
     0
176
     1
290
     1
176
     1
290
     1
176
     1
290
     0
176
     1
290
     0
176
     1
290
     0
176
     1
290
     0
176
     1
290
     0
176
     1
290
     0
176
     1
 90
       50
176
     1
 40
0.0
176
     1
 40
1.0
176
     1
 90
        0
176
     1
 62
    18
420
        0
176
     1
 90
       50
176
     1
 90
        3
176
     1
 62
     5
420
      255
176
     1
290
     0
176
     1
 90
       50
176
     1
 90
       50
176
     1
 90
       50
176
     1
290
     0
176
     1
 90
       50
176
     1
 62
   256
176
     0
 40
1.0
176
     0
 90
        2
176
     1
  1
strokes_ogs.tif
176
     1
290
     0
176
     1
 40
1.0
176
     1
 40
1.0
176
     1
1001
ACAD
1000
AcDbSavedByObjectVersion
1070
     0
  0
VISUALSTYLE
  5
3F
102
{ACAD_REACTORS
330
29
102
}
330
29
100
AcDbVisualStyle
  2
JitterOff
 70
    20
177
     3
291
     1
 70
    58
 90
        2
176
     0
 90
        2
176
     0
 90
        0
176
     0
 90
        0
176
     0
 40
0.6
176
     0
 40
30.0
176
     0
 62
     7
420
 16777215
176
     0
 90
        1
176
     0
 90
        4
176
     0
 62
     7
176
     0
 62
   257
176
     0
 90
        1
176
     0
 90
        1
176
     0
 40
1.0
176
     0
 90
       10
176
     2
 62
     7
176
     0
 40
1.0
176
     0
 90
        1
176
     0
 90
        6
176
     0
 90
        2
176
     0
 62
     7
176
     0
 90
        5
176
     0
 90
        0
176
     0
 90
        0
176
     0
290
     0
176
     0
 90
        1
176
     0
 40
0.0
176
     0
 90
        0
176
     0
290
     0
176
     0
290
     1
176
     0
290
     1
176
     0
290
     0
176
     0
290
     0
176
     0
290
     0
176
     0
290
     0
176
     0
290
     0
176
     0
290
     0
176
     0
 90
       50
176
     0
 40
0.0
176
     0
 40
1.0
176
     0
 90
        0
176
     0
 62
    18
420
        0
176
     0
 90
       50
176
     0
 90
        3
176
     0
 62
     5
420
      255
176
     0
290
     0
176
     0
 90
       50
176
     0
 90
       50
176
     0
 90
       50
176
     0
290
     0
176
     0
 90
       50
176
     0
 62
   256
176
     0
 40
1.0
176
     0
 90
        2
176
     0
  1
strokes_ogs.tif
176
     0
290
     0
176
     0
 40
1.0
176
     0
 40
1.0
176
     0
1001
ACAD
1000
AcDbSavedByObjectVersion
1070
     0
  0
VISUALSTYLE
  5
37
102
{ACAD_REACTORS
330
29
102
}
330
29
100
AcDbVisualStyle
  2
Linepattern
 70
    14
177
     3
291
     1
 70
    58
 90
        2
176
     1
 90
        2
176
     1
 90
        0
176
     1
 90
        0
176
     1
 40
0.6
176
     1
 40
30.0
176
     1
 62
     7
420
 16777215
176
     1
 90
        1
176
     1
 90
        4
176
     1
 62
     7
176
     1
 62
   257
176
     1
 90
        7
176
     1
 90
        7
176
     1
 40
1.0
176
     1
 90
        8
176
     1
 62
     7
176
     1
 40
1.0
176
     1
 90
        1
176
     1
 90
        6
176
     1
 90
        2
176
     1
 62
     7
176
     1
 90
        5
176
     1
 90
        0
176
     1
 90
        0
176
     1
290
     0
176
     1
 90
        1
176
     1
 40
0.0
176
     1
 90
        0
176
     1
290
     0
176
     1
290
     1
176
     1
290
     1
176
     1
290
     0
176
     1
290
     0
176
     1
290
     0
176
     1
290
     0
176
     1
290
     0
176
     1
290
     0
176
     1
 90
       50
176
     1
 40
0.0
176
     1
 40
1.0
176
     1
 90
        0
176
     1
 62
    18
420
        0
176
     1
 90
       50
176
     1
 90
        3
176
     1
 62
     5
420
      255
176
     1
290
     0
176
     1
 90
       50
176
     1
 90
       50
176
     1
 90
       50
176
     1
290
     0
176
     1
 90
       50
176
     1
 62
   256
176
     0
 40
1.0
176
     0
 90
        2
176
     1
  1
strokes_ogs.tif
176
     1
290
     0
176
     1
 40
1.0
176
     1
 40
1.0
176
     1
1001
ACAD
1000
AcDbSavedByObjectVersion
1070
     0
  0
VISUALSTYLE
  5
40
102
{ACAD_REACTORS
330
29
102
}
330
29
100
AcDbVisualStyle
  2
OverhangOff
 70
    21
177
     3
291
     1
 70
    58
 90
        2
176
     0
 90
        2
176
     0
 90
        0
176
     0
 90
        0
176
     0
 40
0.6
176
     0
 40
30.0
176
     0
 62
     7
420
 16777215
176
     0
 90
        1
176
     0
 90
        4
176
     0
 62
     7
176
     0
 62
   257
176
     0
 90
        1
176
     0
 90
        1
176
     0
 40
1.0
176
     0
 90
        9
176
     2
 62
     7
176
     0
 40
1.0
176
     0
 90
        1
176
     0
 90
        6
176
     0
 90
        2
176
     0
 62
     7
176
     0
 90
        5
176
     0
 90
        0
176
     0
 90
        0
176
     0
290
     0
176
     0
 90
        1
176
     0
 40
0.0
176
     0
 90
        0
176
     0
290
     0
176
     0
290
     1
176
     0
290
     1
176
     0
290
     0
176
     0
290
     0
176
     0
290
     0
176
     0
290
     0
176
     0
290
     0
176
     0
290
     0
176
     0
 90
       50
176
     0
 40
0.0
176
     0
 40
1.0
176
     0
 90
        0
176
     0
 62
    18
420
        0
176
     0
 90
       50
176
     0
 90
        3
176
     0
 62
     5
420
      255
176
     0
290
     0
176
     0
 90
       50
176
     0
 90
       50
176
     0
 90
       50
176
     0
290
     0
176
     0
 90
       50
176
     0
 62
   256
176
     0
 40
1.0
176
     0
 90
        2
176
     0
  1
strokes_ogs.tif
176
     0
290
     0
176
     0
 40
1.0
176
     0
 40
1.0
176
     0
1001
ACAD
1000
AcDbSavedByObjectVersion
1070
     0
  0
VISUALSTYLE
  5
33
102
{ACAD_REACTORS
330
29
102
}
330
29
100
AcDbVisualStyle
  2
Realistic
 70
     8
177
     3
291
     0
 70
    58
 90
        2
176
     1
 90
        3
176
     1
 90
        0
176
     1
 90
        2
176
     1
 40
0.6
176
     1
 40
30.0
176
     1
 62
     7
420
 16777215
176
     1
 90
        0
176
     1
 90
        0
176
     1
 62
     7
176
     1
 62
   257
176
     1
 90
        1
176
     1
 90
        1
176
     1
 40
1.0
176
     1
 90
        8
176
     1
 62
   257
176
     1
 40
1.0
176
     1
 90
        1
176
     1
 90
        6
176
     1
 90
        2
176
     1
 62
     7
176
     1
 90
        3
176
     1
 90
        0
176
     1
 90
        0
176
     1
290
     0
176
     1
 90
       13
176
     1
 40
0.0
176
     1
 90
        0
176
     1
290
     0
176
     1
290
     1
176
     1
290
     1
176
     1
290
     0
176
     1
290
     0
176
     1
290
     0
176
     1
290
     0
176
     1
290
     0
176
     1
290
     0
176
     1
 90
       50
176
     1
 40
0.0
176
     1
 40
1.0
176
     1
 90
        0
176
     1
 62
    18
420
        0
176
     1
 90
       50
176
     1
 90
        3
176
     1
 62
     5
420
      255
176
     1
290
     0
176
     1
 90
       50
176
     1
 90
       50
176
     1
 90
       50
176
     1
290
     0
176
     1
 90
       50
176
     1
 62
   256
176
     0
 40
1.0
176
     0
 90
        2
176
     1
  1
strokes_ogs.tif
176
     1
290
     0
176
     1
 40
1.0
176
     1
 40
1.0
176
     1
1001
ACAD
1000
AcDbSavedByObjectVersion
1070
     0
  0
VISUALSTYLE
  5
3E
102
{ACAD_REACTORS
330
29
102
}
330
29
100
AcDbVisualStyle
  2
Shaded
 70
    27
177
     3
291
     0
 70
    58
 90
        2
176
     1
 90
        2
176
     1
 90
        1
176
     1
 90
        2
176
     1
 40
0.6
176
     1
 40
30.0
176
     1
 62
     7
420
 16777215
176
     1
 90
        0
176
     1
 90
        4
176
     1
 62
     7
176
     1
 62
   257
176
     1
 90
        1
176
     1
 90
        1
176
     1
 40
1.0
176
     1
 90
        8
176
     1
 62
   257
176
     1
 40
1.0
176
     1
 90
        1
176
     1
 90
        6
176
     1
 90
        2
176
     1
 62
     8
420
  7895160
176
     1
 90
        3
176
     1
 90
        0
176
     1
 90
        0
176
     1
290
     0
176
     1
 90
        5
176
     1
 40
0.0
176
     1
 90
        0
176
     1
290
     0
176
     1
290
     1
176
     1
290
     1
176
     1
290
     0
176
     1
290
     0
176
     1
290
     0
176
     1
290
     0
176
     1
290
     0
176
     1
290
     0
176
     1
 90
       50
176
     1
 40
0.0
176
     1
 40
1.0
176
     1
 90
        0
176
     1
 62
    18
420
        0
176
     1
 90
       50
176
     1
 90
        3
176
     1
 62
     5
420
      255
176
     1
290
     0
176
     1
 90
       50
176
     1
 90
       50
176
     1
 90
       50
176
     1
290
     0
176
     1
 90
       50
176
     1
 62
   256
176
     0
 40
1.0
176
     0
 90
        2
176
     1
  1
strokes_ogs.tif
176
     1
290
     0
176
     1
 40
1.0
176
     1
 40
1.0
176
     1
1001
ACAD
1000
AcDbSavedByObjectVersion
1070
     0
  0
VISUALSTYLE
  5
3D
102
{ACAD_REACTORS
330
29
102
}
330
29
100
AcDbVisualStyle
  2
Shaded with edges
 70
    26
177
     3
291
     0
 70
    58
 90
        2
176
     1
 90
        2
176
     1
 90
        1
176
     1
 90
        2
176
     1
 40
0.6
176
     1
 40
30.0
176
     1
 62
     7
420
 16777215
176
     1
 90
        1
176
     1
 90
        2
176
     1
 62
     7
176
     1
 62
   257
176
     1
 90
        2
176
     1
 90
        1
176
     1
 40
1.0
176
     1
 90
        8
176
     1
 62
   257
176
     1
 40
1.0
176
     1
 90
        1
176
     1
 90
        6
176
     1
 90
        2
176
     1
 62
     7
176
     1
 90
        3
176
     1
 90
        0
176
     1
 90
        0
176
     1
290
     0
176
     1
 90
        5
176
     1
 40
0.0
176
     1
 90
        0
176
     1
290
     0
176
     1
290
     1
176
     1
290
     1
176
     1
290
     0
176
     1
290
     0
176
     1
290
     0
176
     1
290
     0
176
     1
290
     0
176
     1
290
     0
176
     1
 90
       50
176
     1
 40
0.0
176
     1
 40
1.0
176
     1
 90
        0
176
     1
 62
    18
420
        0
176
     1
 90
       50
176
     1
 90
        3
176
     1
 62
     5
420
      255
176
     1
290
     0
176
     1
 90
       50
176
     1
 90
       50
176
     1
 90
       50
176
     1
290
     0
176
     1
 90
       50
176
     1
 62
   256
176
     0
 40
1.0
176
     0
 90
        2
176
     1
  1
strokes_ogs.tif
176
     1
290
     0
176
     1
 40
1.0
176
     1
 40
1.0
176
     1
1001
ACAD
1000
AcDbSavedByObjectVersion
1070
     0
  0
VISUALSTYLE
  5
3A
102
{ACAD_REACTORS
330
29
102
}
330
29
100
AcDbVisualStyle
  2
Shades of Gray
 70
    23
177
     3
291
     0
 70
    58
 90
        2
176
     1
 90
        2
176
     1
 90
        3
176
     1
 90
        0
176
     1
 40
0.6
176
     1
 40
30.0
176
     1
 62
     7
420
 16777215
176
     1
 90
        2
176
     1
 90
        2
176
     1
 62
     7
176
     1
 62
     7
176
     1
 90
        1
176
     1
 90
        1
176
     1
 40
40.0
176
     1
 90
        8
176
     1
 62
     7
176
     1
 40
1.0
176
     1
 90
        1
176
     1
 90
        6
176
     1
 90
        2
176
     1
 62
     7
176
     1
 90
        3
176
     1
 90
        0
176
     1
 90
        0
176
     1
290
     0
176
     1
 90
        1
176
     1
 40
0.0
176
     1
 90
        0
176
     1
290
     0
176
     1
290
     1
176
     1
290
     1
176
     1
290
     0
176
     1
290
     0
176
     1
290
     0
176
     1
290
     0
176
     1
290
     0
176
     1
290
     0
176
     1
 90
       50
176
     1
 40
0.0
176
     1
 40
1.0
176
     1
 90
        0
176
     1
 62
    18
420
        0
176
     1
 90
       50
176
     1
 90
        3
176
     1
 62
     5
420
      255
176
     1
290
     0
176
     1
 90
       50
176
     1
 90
       50
176
     1
 90
       50
176
     1
290
     0
176
     1
 90
       50
176
     1
 62
   256
176
     0
 40
1.0
176
     0
 90
        2
176
     1
  1
strokes_ogs.tif
176
     1
290
     0
176
     1
 40
1.0
176
     1
 40
1.0
176
     1
1001
ACAD
1000
AcDbSavedByObjectVersion
1070
     0
  0
VISUALSTYLE
  5
3B
102
{ACAD_REACTORS
330
29
102
}
330
29
100
AcDbVisualStyle
  2
Sketchy
 70
    24
177
     3
291
     0
 70
    58
 90
        1
176
     1
 90
        2
176
     1
 90
        2
176
     1
 90
        0
176
     1
 40
0.6
176
     1
 40
30.0
176
     1
 62
     7
420
 16777215
176
     1
 90
        2
176
     1
 90
        2
176
     1
 62
     7
176
     1
 62
     7
176
     1
 90
        1
176
     1
 90
        1
176
     1
 40
40.0
176
     1
 90
       11
176
     1
 62
     7
176
     1
 40
1.0
176
     1
 90
        1
176
     1
 90
        6
176
     1
 90
        2
176
     1
 62
     7
176
     1
 90
        6
176
     1
 90
        0
176
     1
 90
        0
176
     1
290
     0
176
     1
 90
        1
176
     1
 40
0.0
176
     1
 90
        0
176
     1
290
     0
176
     1
290
     1
176
     1
290
     1
176
     1
290
     0
176
     1
290
     0
176
     1
290
     0
176
     1
290
     0
176
     1
290
     0
176
     1
290
     0
176
     1
 90
       50
176
     1
 40
0.0
176
     1
 40
1.0
176
     1
 90
        0
176
     1
 62
    18
420
        0
176
     1
 90
       50
176
     1
 90
        3
176
     1
 62
     5
420
      255
176
     1
290
     0
176
     1
 90
       50
176
     1
 90
       50
176
     1
 90
       50
176
     1
290
     0
176
     1
 90
       50
176
     1
 62
   256
176
     0
 40
1.0
176
     0
 90
        2
176
     1
  1
strokes_ogs.tif
176
     1
290
     0
176
     1
 40
1.0
176
     1
 40
1.0
176
     1
1001
ACAD
1000
AcDbSavedByObjectVersion
1070
     0
  0
VISUALSTYLE
  5
36
102
{ACAD_REACTORS
330
29
102
}
330
29
100
AcDbVisualStyle
  2
Thicken
 70
    13
177
     3
291
     1
 70
    58
 90
        2
176
     1
 90
        2
176
     1
 90
        0
176
     1
 90
        0
176
     1
 40
0.6
176
     1
 40
30.0
176
     1
 62
     7
420
 16777215
176
     1
 90
        1
176
     1
 90
        4
176
     1
 62
     7
176
     1
 62
   257
176
     1
 90
        1
176
     1
 90
        1
176
     1
 40
1.0
176
     1
 90
       12
176
     1
 62
     7
176
     1
 40
1.0
176
     1
 90
        1
176
     1
 90
        6
176
     1
 90
        2
176
     1
 62
     7
176
     1
 90
        5
176
     1
 90
        0
176
     1
 90
        0
176
     1
290
     0
176
     1
 90
        1
176
     1
 40
0.0
176
     1
 90
        0
176
     1
290
     0
176
     1
290
     1
176
     1
290
     1
176
     1
290
     0
176
     1
290
     0
176
     1
290
     0
176
     1
290
     0
176
     1
290
     0
176
     1
290
     0
176
     1
 90
       50
176
     1
 40
0.0
176
     1
 40
1.0
176
     1
 90
        0
176
     1
 62
    18
420
        0
176
     1
 90
       50
176
     1
 90
        3
176
     1
 62
     5
420
      255
176
     1
290
     0
176
     1
 90
       50
176
     1
 90
       50
176
     1
 90
       50
176
     1
290
     0
176
     1
 90
       50
176
     1
 62
   256
176
     0
 40
1.0
176
     0
 90
        2
176
     1
  1
strokes_ogs.tif
176
     1
290
     0
176
     1
 40
1.0
176
     1
 40
1.0
176
     1
1001
ACAD
1000
AcDbSavedByObjectVersion
1070
     0
  0
VISUALSTYLE
  5
30
102
{ACAD_REACTORS
330
29
102
}
330
29
100
AcDbVisualStyle
  2
Wireframe
 70
     5
177
     3
291
     0
 70
    58
 90
        0
176
     1
 90
        2
176
     1
 90
        0
176
     1
 90
        0
176
     1
 40
0.6
176
     1
 40
30.0
176
     1
 62
     7
420
 16777215
176
     1
 90
        1
176
     1
 90
        4
176
     1
 62
     7
176
     1
 62
   257
176
     1
 90
        1
176
     1
 90
        1
176
     1
 40
1.0
176
     1
 90
        0
176
     1
 62
   257
176
     1
 40
1.0
176
     1
 90
        1
176
     1
 90
        6
176
     1
 90
        2
176
     1
 62
     7
176
     1
 90
        3
176
     1
 90
        0
176
     1
 90
        0
176
     1
290
     0
176
     1
 90
        1
176
     1
 40
0.0
176
     1
 90
        0
176
     1
290
     0
176
     1
290
     1
176
     1
290
     1
176
     1
290
     0
176
     1
290
     0
176
     1
290
     0
176
     1
290
     0
176
     1
290
     0
176
     1
290
     0
176
     1
 90
       50
176
     1
 40
0.0
176
     1
 40
1.0
176
     1
 90
        0
176
     1
 62
    18
420
        0
176
     1
 90
       50
176
     1
 90
        3
176
     1
 62
     5
420
      255
176
     1
290
     0
176
     1
 90
       50
176
     1
 90
       50
176
     1
 90
       50
176
     1
290
     0
176
     1
 90
       50
176
     1
 62
   256
176
     0
 40
1.0
176
     0
 90
        2
176
     1
  1
strokes_ogs.tif
176
     1
290
     0
176
     1
 40
1.0
176
     1
 40
1.0
176
     1
1001
ACAD
1000
AcDbSavedByObjectVersion
1070
     0
  0
VISUALSTYLE
  5
3C
102
{ACAD_REACTORS
330
29
102
}
330
29
100
AcDbVisualStyle
  2
X-Ray
 70
    25
177
     3
291
     0
 70
    58
 90
        2
176
     1
 90
        2
176
     1
 90
        1
176
     1
 90
        1
176
     1
 40
0.5
176
     1
 40
30.0
176
     1
 62
     7
420
 16777215
176
     1
 90
        1
176
     1
 90
        0
176
     1
 62
     7
176
     1
 62
   257
176
     1
 90
        1
176
     1
 90
        1
176
     1
 40
1.0
176
     1
 90
        8
176
     1
 62
     7
176
     1
 40
1.0
176
     1
 90
        1
176
     1
 90
        6
176
     1
 90
        2
176
     1
 62
     7
176
     1
 90
        3
176
     1
 90
        0
176
     1
 90
        0
176
     1
290
     0
176
     1
 90
       13
176
     1
 40
0.0
176
     1
 90
        0
176
     1
290
     0
176
     1
290
     1
176
     1
290
     1
176
     1
290
     0
176
     1
290
     0
176
     1
290
     0
176
     1
290
     0
176
     1
290
     0
176
     1
290
     0
176
     1
 90
       50
176
     1
 40
0.0
176
     1
 40
1.0
176
     1
 90
        0
176
     1
 62
    18
420
        0
176
     1
 90
       50
176
     1
 90
        3
176
     1
 62
     5
420
      255
176
     1
290
     0
176
     1
 90
       50
176
     1
 90
       50
176
     1
 90
       50
176
     1
290
     0
176
     1
 90
       50
176
     1
 62
   256
176
     0
 40
1.0
176
     0
 90
        2
176
     1
  1
strokes_ogs.tif
176
     1
290
     0
176
     1
 40
1.0
176
     1
 40
1.0
176
     1
1001
ACAD
1000
AcDbSavedByObjectVersion
1070
     0
  0
DICTIONARYVAR
  5
9C
102
{ACAD_REACTORS
330
97
102
}
330
97
100
DictionaryVariables
280
     0
  1
1:1
  0
DICTIONARYVAR
  5
99
102
{ACAD_REACTORS
330
97
102
}
330
97
100
DictionaryVariables
280
     0
  1
STANDARD
  0
DICTIONARYVAR
  5
98
102
{ACAD_REACTORS
330
97
102
}
330
97
100
DictionaryVariables
280
     0
  1
STANDARD
  0
DICTIONARYVAR
  5
9A
102
{ACAD_REACTORS
330
97
102
}
330
97
100
DictionaryVariables
280
     0
  1
Imperial24
  0
DICTIONARYVAR
  5
9B
102
{ACAD_REACTORS
330
97
102
}
330
97
100
DictionaryVariables
280
     0
  1
Imperial24
  0
DICTIONARY
  5
A2
330
6B
100
AcDbDictionary
280
     1
281
     1
  3
ACAD_XREC_ROUNDTRIP
360
A3
  0
DICTIONARY
  5
1A
330
19
100
AcDbDictionary
280
     1
281
     1
  3
BUMPTILE
360
1C
  3
DIFFUSETILE
360
1B
  3
OPACITYTILE
360
1F
  3
REFLECTIONTILE
360
1E
  3
REFRACTIONTILE
360
20
  3
SPECULARTILE
360
1D
  0
DICTIONARY
  5
12
330
11
100
AcDbDictionary
280
     1
281
     1
  3
BUMPTILE
360
14
  3
DIFFUSETILE
360
13
  3
OPACITYTILE
360
17
  3
REFLECTIONTILE
360
16
  3
REFRACTIONTILE
360
18
  3
SPECULARTILE
360
15
  0
DICTIONARY
  5
22
330
21
100
AcDbDictionary
280
     1
281
     1
  3
BUMPTILE
360
24
  3
DIFFUSETILE
360
23
  3
OPACITYTILE
360
27
  3
REFLECTIONTILE
360
26
  3
REFRACTIONTILE
360
28
  3
SPECULARTILE
360
25
  0
DICTIONARY
  5
A0
330
69
100
AcDbDictionary
280
     1
281
     1
  3
ACAD_XREC_ROUNDTRIP
360
A1
  0
DICTIONARY
  5
9D
330
65
100
AcDbDictionary
280
     1
281
     1
  3
ACAD_ROUNDTRIP_2008_TABLESTYLE_CELLSTYLEMAP
360
9E
  0
XRECORD
  5
A3
102
{ACAD_REACTORS
330
A2
102
}
330
A2
100
AcDbXrecord
280
     1
102
DISPLAYNAME
  1
Imperial24
102
FLAGS
 90
        0
  0
XRECORD
  5
1C
102
{ACAD_REACTORS
330
1A
102
}
330
1A
100
AcDbXrecord
280
     1
270
     1
271
     1
  0
XRECORD
  5
1B
102
{ACAD_REACTORS
330
1A
102
}
330
1A
100
AcDbXrecord
280
     1
270
     1
271
     1
  0
XRECORD
  5
1F
102
{ACAD_REACTORS
330
1A
102
}
330
1A
100
AcDbXrecord
280
     1
270
     1
271
     1
  0
XRECORD
  5
1E
102
{ACAD_REACTORS
330
1A
102
}
330
1A
100
AcDbXrecord
280
     1
270
     1
271
     1
  0
XRECORD
  5
20
102
{ACAD_REACTORS
330
1A
102
}
330
1A
100
AcDbXrecord
280
     1
270
     1
271
     1
  0
XRECORD
  5
1D
102
{ACAD_REACTORS
330
1A
102
}
330
1A
100
AcDbXrecord
280
     1
270
     1
271
     1
  0
XRECORD
  5
14
102
{ACAD_REACTORS
330
12
102
}
330
12
100
AcDbXrecord
280
     1
270
     1
271
     1
  0
XRECORD
  5
13
102
{ACAD_REACTORS
330
12
102
}
330
12
100
AcDbXrecord
280
     1
270
     1
271
     1
  0
XRECORD
  5
17
102
{ACAD_REACTORS
330
12
102
}
330
12
100
AcDbXrecord
280
     1
270
     1
271
     1
  0
XRECORD
  5
16
102
{ACAD_REACTORS
330
12
102
}
330
12
100
AcDbXrecord
280
     1
270
     1
271
     1
  0
XRECORD
  5
18
102
{ACAD_REACTORS
330
12
102
}
330
12
100
AcDbXrecord
280
     1
270
     1
271
     1
  0
XRECORD
  5
15
102
{ACAD_REACTORS
330
12
102
}
330
12
100
AcDbXrecord
280
     1
270
     1
271
     1
  0
XRECORD
  5
24
102
{ACAD_REACTORS
330
22
102
}
330
22
100
AcDbXrecord
280
     1
270
     1
271
     1
  0
XRECORD
  5
23
102
{ACAD_REACTORS
330
22
102
}
330
22
100
AcDbXrecord
280
     1
270
     1
271
     1
  0
XRECORD
  5
27
102
{ACAD_REACTORS
330
22
102
}
330
22
100
AcDbXrecord
280
     1
270
     1
271
     1
  0
XRECORD
  5
26
102
{ACAD_REACTORS
330
22
102
}
330
22
100
AcDbXrecord
280
     1
270
     1
271
     1
  0
XRECORD
  5
28
102
{ACAD_REACTORS
330
22
102
}
330
22
100
AcDbXrecord
280
     1
270
     1
271
     1
  0
XRECORD
  5
25
102
{ACAD_REACTORS
330
22
102
}
330
22
100
AcDbXrecord
280
     1
270
     1
271
     1
  0
XRECORD
  5
A1
102
{ACAD_REACTORS
330
A0
102
}
330
A0
100
AcDbXrecord
280
     1
102
DISPLAYNAME
  1
Imperial24
102
FLAGS
 90
        0
  0
CELLSTYLEMAP
  5
9E
102
{ACAD_REACTORS
330
9D
102
}
330
9D
100
AcDbCellStyleMap
 90
        3
300
CELLSTYLE
  1
TABLEFORMAT_BEGIN
 90
        5
170
     1
 91
        0
 92
    32768
 62
   257
 93
        1
300
CONTENTFORMAT
  1
CONTENTFORMAT_BEGIN
 90
        0
 91
        0
 92
      512
 93
        0
300

 40
0.0
140
1.0
 94
        5
 62
     0
340
55
144
0.25
309
CONTENTFORMAT_END
171
     0
 94
        0
309
TABLEFORMAT_END
  1
CELLSTYLE_BEGIN
 90
        1
 91
        1
300
_TITLE
309
CELLSTYLE_END
300
CELLSTYLE
  1
TABLEFORMAT_BEGIN
 90
        5
170
     1
 91
        0
 92
        0
 62
   257
 93
        1
300
CONTENTFORMAT
  1
CONTENTFORMAT_BEGIN
 90
        0
 91
        0
 92
      512
 93
        0
300

 40
0.0
140
1.0
 94
        5
 62
     0
340
55
144
0.18
309
CONTENTFORMAT_END
171
     0
 94
        0
309
TABLEFORMAT_END
  1
CELLSTYLE_BEGIN
 90
        2
 91
        1
300
_HEADER
309
CELLSTYLE_END
300
CELLSTYLE
  1
TABLEFORMAT_BEGIN
 90
        5
170
     1
 91
        0
 92
        0
 62
   257
 93
        1
300
CONTENTFORMAT
  1
CONTENTFORMAT_BEGIN
 90
        0
 91
        0
 92
      512
 93
        0
300

 40
0.0
140
1.0
 94
        2
 62
     0
340
55
144
0.18
309
CONTENTFORMAT_END
171
     0
 94
        0
309
TABLEFORMAT_END
  1
CELLSTYLE_BEGIN
 90
        3
 91
        2
300
_DATA
309
CELLSTYLE_END
  0
ENDSEC
  0
EOF
