<?xml version="1.0" encoding="utf-8"?>
<!-- Generator: Adobe Illustrator 25.4.8, SVG Export Plug-In . SVG Version: 6.00 Build 0)  -->
<svg version="1.1" id="Слой_1" xmlns="http://www.w3.org/2000/svg" xmlns:xlink="http://www.w3.org/1999/xlink" x="0px" y="0px"
	 viewBox="0 0 864 864" style="enable-background:new 0 0 864 864;" xml:space="preserve">
<g>
	<path d="M733.37,474.83c82.8,11.19,113.66,34.39,127.24,90.69c17.05,70.72-31.99,137.58-104.62,137.92
		c-170.81,0.78-341.65,1.26-512.42-1.64C121.38,699.73,8.79,592.76,0.5,462.28c-6.91-108.76,58.03-216.89,172.69-250.31
		c55.3-16.12,109.84-10.6,162.97,8.91c19.26,7.07,24.95,6.11,30.37-16.68C400.78,60.21,539.92-22.52,676.82,17.41
		c140.04,40.85,213.69,181.97,167.42,321.49C825.44,395.62,786.8,437.3,733.37,474.83z M490.2,677.48c0,0.59,0,1.18,0,1.77
		c83.63,0,167.32-1.9,250.87,0.64c60.72,1.84,94.65-38.62,95.37-86.97c0.71-47.2-32.52-93.86-96.6-88.71
		c-10.11,0.81-20.43-0.81-30.49,0.27c-28.8,3.08-41.01-4.06-40.19-38.09c2.61-107.69-97.38-177.07-197.7-138.18
		c-22.81,8.84-33.62,4.03-47.49-13.41c-53.04-66.7-125.47-91.76-207.47-83.79C105.53,241.79,22.62,339.6,25.76,449.4
		c3.35,117.16,100.12,223.93,210.18,227.52C320.61,679.69,405.44,677.48,490.2,677.48z M609.62,35.33
		c-83.9,2.16-150.93,39.2-193.93,115.92c-35.12,62.66-32.17,77.39,15.14,127.61c14.56,15.45,26.79,21.39,49.4,15.34
		c96.7-25.89,189.02,29.75,214.44,126.57c9.59,36.53,13.27,37.74,44.6,14.73c77.02-56.58,108.94-152.42,81.23-243.85
		C792.65,99.77,711.66,38.81,609.62,35.33z"/>
	<path d="M567.44,755.7c0.82,11.76-46.59,94.68-53.99,98.83c-4.75,2.66-8.46,1.99-11.99-1.3c-4.67-4.36-5.55-10.11-2.58-15.36
		c16-28.3,32.19-56.49,48.72-84.48c2.88-4.87,8.33-8.79,14.2-5.66C565.02,749.45,566.54,754.35,567.44,755.7z"/>
	<path d="M656.6,760.18c-17.03,32.26-33.24,64.25-54.94,93.05c-2.75,3.65-7.62,4.43-12.01,1.08c-4.9-3.74-8.37-8.8-5.17-14.46
		c16.64-29.38,33.63-58.55,50.91-87.56c3.05-5.12,9.22-7.69,14.58-4.07C653.1,750.33,654.15,755.49,656.6,760.18z"/>
	<path d="M742.17,755.67c0.84,11.13-48.18,95.19-55.11,98.82c-4.74,2.49-8.35,1.7-12.16-1.44c-5.35-4.4-5.34-10.85-2.79-15.41
		c15.98-28.53,32.48-56.78,49.35-84.79c2.77-4.6,8.42-8.61,14.41-4.88C739.19,750.05,741.14,754.34,742.17,755.67z"/>
	<path d="M161.2,856.57c-11.37-3.41-15.41-10.24-9.66-20.4c15.52-27.46,31.35-54.75,47.53-81.82c3.56-5.96,9.89-10.6,17.02-5.94
		c4.97,3.25,6.35,10.37,3.59,15.36c-16.34,29.5-33.22,58.71-50.28,87.81C167.95,854.04,163.92,854.98,161.2,856.57z"/>
	<path d="M246.63,856.62c-11.64-4.91-12.65-13.07-7.45-22.24c15.02-26.5,30.27-52.86,45.88-79.01c3.43-5.75,8.65-11.05,16.65-7.44
		c6.12,2.76,8.38,9.45,5.74,14.19c-16.98,30.41-34.68,60.42-52.53,90.33C253.51,854.79,249.19,855.4,246.63,856.62z"/>
	<path d="M397.39,760.99c-18.39,30.6-36.16,60.57-54.58,90.13c-1.72,2.76-8.01,4.7-11.45,3.9c-6.3-1.47-9.08-8.32-6.92-13.48
		c13.52-32.23,32.01-61.77,51.45-90.68c3.51-5.22,9.84-6.07,14.72-1.64C393.58,751.92,394.88,756.46,397.39,760.99z"/>
	<path d="M484.94,760.46c-19.07,31.14-37.59,61.72-56.6,92.01c-2.34,3.72-7.7,4.96-11.89,1.71c-4.94-3.83-6.86-10.2-4.15-15.12
		c16.22-29.38,32.92-58.51,50.03-87.39c2.85-4.81,8.97-7.67,14.47-3.19C479.91,751.01,481.57,755.33,484.94,760.46z"/>
</g>
</svg>
