  0
SECTION
  2
HEADER
  9
$ACADVER
  1
AC1027
  9
$ACADMAINTVER
 70
   125
  9
$DWGCODEPAGE
  3
ANSI_1251
  9
$REQUIREDVERSIONS
160
                 0
  9
$INSBASE
 10
0.0
 20
0.0
 30
0.0
  9
$EXTMIN
 10
1.000000000000000E+20
 20
1.000000000000000E+20
 30
1.000000000000000E+20
  9
$EXTMAX
 10
-1.000000000000000E+20
 20
-1.000000000000000E+20
 30
-1.000000000000000E+20
  9
$LIMMIN
 10
0.0
 20
0.0
  9
$LIMMAX
 10
12.0
 20
9.0
  9
$ORTHOMODE
 70
     0
  9
$REGENMODE
 70
     1
  9
$FILLMODE
 70
     1
  9
$QTEXTMODE
 70
     0
  9
$MIRRTEXT
 70
     0
  9
$LTSCALE
 40
1.0
  9
$ATTMODE
 70
     1
  9
$TEXTSIZE
 40
0.2
  9
$TRACEWID
 40
0.05
  9
$TEXTSTYLE
  7
Standard
  9
$CLAYER
  8
0
  9
$CELTYPE
  6
ByLayer
  9
$CECOLOR
 62
   256
  9
$CELTSCALE
 40
1.0
  9
$DISPSILH
 70
     0
  9
$DIMSCALE
 40
1.0
  9
$DIMASZ
 40
0.18
  9
$DIMEXO
 40
0.0625
  9
$DIMDLI
 40
0.38
  9
$DIMRND
 40
0.0
  9
$DIMDLE
 40
0.0
  9
$DIMEXE
 40
0.18
  9
$DIMTP
 40
0.0
  9
$DIMTM
 40
0.0
  9
$DIMTXT
 40
0.18
  9
$DIMCEN
 40
0.09
  9
$DIMTSZ
 40
0.0
  9
$DIMTOL
 70
     0
  9
$DIMLIM
 70
     0
  9
$DIMTIH
 70
     1
  9
$DIMTOH
 70
     1
  9
$DIMSE1
 70
     0
  9
$DIMSE2
 70
     0
  9
$DIMTAD
 70
     0
  9
$DIMZIN
 70
     0
  9
$DIMBLK
  1

  9
$DIMASO
 70
     1
  9
$DIMSHO
 70
     1
  9
$DIMPOST
  1

  9
$DIMAPOST
  1

  9
$DIMALT
 70
     0
  9
$DIMALTD
 70
     2
  9
$DIMALTF
 40
25.4
  9
$DIMLFAC
 40
1.0
  9
$DIMTOFL
 70
     0
  9
$DIMTVP
 40
0.0
  9
$DIMTIX
 70
     0
  9
$DIMSOXD
 70
     0
  9
$DIMSAH
 70
     0
  9
$DIMBLK1
  1

  9
$DIMBLK2
  1

  9
$DIMSTYLE
  2
Standard
  9
$DIMCLRD
 70
     0
  9
$DIMCLRE
 70
     0
  9
$DIMCLRT
 70
     0
  9
$DIMTFAC
 40
1.0
  9
$DIMGAP
 40
0.09
  9
$DIMJUST
 70
     0
  9
$DIMSD1
 70
     0
  9
$DIMSD2
 70
     0
  9
$DIMTOLJ
 70
     1
  9
$DIMTZIN
 70
     0
  9
$DIMALTZ
 70
     0
  9
$DIMALTTZ
 70
     0
  9
$DIMUPT
 70
     0
  9
$DIMDEC
 70
     4
  9
$DIMTDEC
 70
     4
  9
$DIMALTU
 70
     2
  9
$DIMALTTD
 70
     2
  9
$DIMTXSTY
  7
Standard
  9
$DIMAUNIT
 70
     0
  9
$DIMADEC
 70
     0
  9
$DIMALTRND
 40
0.0
  9
$DIMAZIN
 70
     0
  9
$DIMDSEP
 70
    46
  9
$DIMATFIT
 70
     3
  9
$DIMFRAC
 70
     0
  9
$DIMLDRBLK
  1

  9
$DIMLUNIT
 70
     2
  9
$DIMLWD
 70
    -2
  9
$DIMLWE
 70
    -2
  9
$DIMTMOVE
 70
     0
  9
$DIMFXL
 40
1.0
  9
$DIMFXLON
 70
     0
  9
$DIMJOGANG
 40
0.7853981633974483
  9
$DIMTFILL
 70
     0
  9
$DIMTFILLCLR
 70
     0
  9
$DIMARCSYM
 70
     0
  9
$DIMLTYPE
  6

  9
$DIMLTEX1
  6

  9
$DIMLTEX2
  6

  9
$DIMTXTDIRECTION
 70
     0
  9
$LUNITS
 70
     2
  9
$LUPREC
 70
     4
  9
$SKETCHINC
 40
0.1
  9
$FILLETRAD
 40
0.0
  9
$AUNITS
 70
     0
  9
$AUPREC
 70
     0
  9
$MENU
  1
.
  9
$ELEVATION
 40
0.0
  9
$PELEVATION
 40
0.0
  9
$THICKNESS
 40
0.0
  9
$LIMCHECK
 70
     0
  9
$CHAMFERA
 40
0.0
  9
$CHAMFERB
 40
0.0
  9
$CHAMFERC
 40
0.0
  9
$CHAMFERD
 40
0.0
  9
$SKPOLY
 70
     0
  9
$TDCREATE
 40
2459954.680092593
  9
$TDUCREATE
 40
2459954.596759259
  9
$TDUPDATE
 40
2459954.680092593
  9
$TDUUPDATE
 40
2459954.596759259
  9
$TDINDWG
 40
0.0000000000
  9
$TDUSRTIMER
 40
0.0000000000
  9
$USRTIMER
 70
     1
  9
$ANGBASE
 50
0.0
  9
$ANGDIR
 70
     0
  9
$PDMODE
 70
     0
  9
$PDSIZE
 40
0.0
  9
$PLINEWID
 40
0.0
  9
$SPLFRAME
 70
     0
  9
$SPLINETYPE
 70
     6
  9
$SPLINESEGS
 70
     8
  9
$HANDSEED
  5
A0
  9
$SURFTAB1
 70
     6
  9
$SURFTAB2
 70
     6
  9
$SURFTYPE
 70
     6
  9
$SURFU
 70
     6
  9
$SURFV
 70
     6
  9
$UCSBASE
  2

  9
$UCSNAME
  2

  9
$UCSORG
 10
0.0
 20
0.0
 30
0.0
  9
$UCSXDIR
 10
1.0
 20
0.0
 30
0.0
  9
$UCSYDIR
 10
0.0
 20
1.0
 30
0.0
  9
$UCSORTHOREF
  2

  9
$UCSORTHOVIEW
 70
     0
  9
$UCSORGTOP
 10
0.0
 20
0.0
 30
0.0
  9
$UCSORGBOTTOM
 10
0.0
 20
0.0
 30
0.0
  9
$UCSORGLEFT
 10
0.0
 20
0.0
 30
0.0
  9
$UCSORGRIGHT
 10
0.0
 20
0.0
 30
0.0
  9
$UCSORGFRONT
 10
0.0
 20
0.0
 30
0.0
  9
$UCSORGBACK
 10
0.0
 20
0.0
 30
0.0
  9
$PUCSBASE
  2

  9
$PUCSNAME
  2

  9
$PUCSORG
 10
0.0
 20
0.0
 30
0.0
  9
$PUCSXDIR
 10
1.0
 20
0.0
 30
0.0
  9
$PUCSYDIR
 10
0.0
 20
1.0
 30
0.0
  9
$PUCSORTHOREF
  2

  9
$PUCSORTHOVIEW
 70
     0
  9
$PUCSORGTOP
 10
0.0
 20
0.0
 30
0.0
  9
$PUCSORGBOTTOM
 10
0.0
 20
0.0
 30
0.0
  9
$PUCSORGLEFT
 10
0.0
 20
0.0
 30
0.0
  9
$PUCSORGRIGHT
 10
0.0
 20
0.0
 30
0.0
  9
$PUCSORGFRONT
 10
0.0
 20
0.0
 30
0.0
  9
$PUCSORGBACK
 10
0.0
 20
0.0
 30
0.0
  9
$USERI1
 70
     0
  9
$USERI2
 70
     0
  9
$USERI3
 70
     0
  9
$USERI4
 70
     0
  9
$USERI5
 70
     0
  9
$USERR1
 40
0.0
  9
$USERR2
 40
0.0
  9
$USERR3
 40
0.0
  9
$USERR4
 40
0.0
  9
$USERR5
 40
0.0
  9
$WORLDVIEW
 70
     1
  9
$SHADEDGE
 70
     3
  9
$SHADEDIF
 70
    70
  9
$TILEMODE
 70
     1
  9
$MAXACTVP
 70
    64
  9
$PINSBASE
 10
0.0
 20
0.0
 30
0.0
  9
$PLIMCHECK
 70
     0
  9
$PEXTMIN
 10
1.000000000000000E+20
 20
1.000000000000000E+20
 30
1.000000000000000E+20
  9
$PEXTMAX
 10
-1.000000000000000E+20
 20
-1.000000000000000E+20
 30
-1.000000000000000E+20
  9
$PLIMMIN
 10
0.0
 20
0.0
  9
$PLIMMAX
 10
12.0
 20
9.0
  9
$UNITMODE
 70
     0
  9
$VISRETAIN
 70
     1
  9
$PLINEGEN
 70
     0
  9
$PSLTSCALE
 70
     1
  9
$TREEDEPTH
 70
  3020
  9
$CMLSTYLE
  2
Standard
  9
$CMLJUST
 70
     0
  9
$CMLSCALE
 40
1.0
  9
$PROXYGRAPHICS
 70
     1
  9
$MEASUREMENT
 70
     0
  9
$CELWEIGHT
370
    -1
  9
$ENDCAPS
280
     0
  9
$JOINSTYLE
280
     0
  9
$LWDISPLAY
290
     1
  9
$INSUNITS
 70
     1
  9
$HYPERLINKBASE
  1

  9
$STYLESHEET
  1

  9
$XEDIT
290
     1
  9
$CEPSNTYPE
380
     0
  9
$PSTYLEMODE
290
     1
  9
$FINGERPRINTGUID
  2
{6F7F9BC1-1B20-D540-B9C4-32D0F68C5F0B}
  9
$VERSIONGUID
  2
{1C5C0026-BA8E-E645-8CB1-C5F6C9179CD0}
  9
$EXTNAMES
290
     1
  9
$PSVPSCALE
 40
0.0
  9
$OLESTARTUP
290
     0
  9
$SORTENTS
280
   127
  9
$INDEXCTL
280
     0
  9
$HIDETEXT
280
     1
  9
$XCLIPFRAME
280
     2
  9
$HALOGAP
280
     0
  9
$OBSCOLOR
 70
   257
  9
$OBSLTYPE
280
     0
  9
$INTERSECTIONDISPLAY
280
     0
  9
$INTERSECTIONCOLOR
 70
   257
  9
$DIMASSOC
280
     2
  9
$PROJECTNAME
  1

  9
$CAMERADISPLAY
290
     0
  9
$LENSLENGTH
 40
50.0
  9
$CAMERAHEIGHT
 40
0.0
  9
$STEPSPERSEC
 40
2.0
  9
$STEPSIZE
 40
6.0
  9
$3DDWFPREC
 40
2.0
  9
$PSOLWIDTH
 40
0.25
  9
$PSOLHEIGHT
 40
4.0
  9
$LOFTANG1
 40
1.570796326794896
  9
$LOFTANG2
 40
1.570796326794896
  9
$LOFTMAG1
 40
0.0
  9
$LOFTMAG2
 40
0.0
  9
$LOFTPARAM
 70
     7
  9
$LOFTNORMALS
280
     1
  9
$LATITUDE
 40
37.795
  9
$LONGITUDE
 40
-122.394
  9
$NORTHDIRECTION
 40
0.0
  9
$TIMEZONE
 70
 -8000
  9
$LIGHTGLYPHDISPLAY
280
     1
  9
$TILEMODELIGHTSYNCH
280
     1
  9
$CMATERIAL
347
11
  9
$SOLIDHIST
280
     0
  9
$SHOWHIST
280
     1
  9
$DWFFRAME
280
     2
  9
$DGNFRAME
280
     0
  9
$REALWORLDSCALE
290
     1
  9
$INTERFERECOLOR
 62
     1
  9
$INTERFEREOBJVS
345
33
  9
$INTERFEREVPVS
346
30
  9
$CSHADOW
280
     0
  9
$SHADOWPLANELOCATION
 40
0.0
  0
ENDSEC
  0
SECTION
  2
CLASSES
  0
CLASS
  1
ACDBDICTIONARYWDFLT
  2
AcDbDictionaryWithDefault
  3
ObjectDBX Classes
 90
        0
 91
        1
280
     0
281
     0
  0
CLASS
  1
MATERIAL
  2
AcDbMaterial
  3
ObjectDBX Classes
 90
     1153
 91
        3
280
     0
281
     0
  0
CLASS
  1
VISUALSTYLE
  2
AcDbVisualStyle
  3
ObjectDBX Classes
 90
     4095
 91
       24
280
     0
281
     0
  0
CLASS
  1
SCALE
  2
AcDbScale
  3
ObjectDBX Classes
 90
     1153
 91
       17
280
     0
281
     0
  0
CLASS
  1
TABLESTYLE
  2
AcDbTableStyle
  3
ObjectDBX Classes
 90
     4095
 91
        1
280
     0
281
     0
  0
CLASS
  1
MLEADERSTYLE
  2
AcDbMLeaderStyle
  3
ACDB_MLEADERSTYLE_CLASS
 90
     4095
 91
        1
280
     0
281
     0
  0
CLASS
  1
ACDBSECTIONVIEWSTYLE
  2
AcDbSectionViewStyle
  3
ObjectDBX Classes
 90
     1025
 91
        1
280
     0
281
     0
  0
CLASS
  1
ACDBDETAILVIEWSTYLE
  2
AcDbDetailViewStyle
  3
ObjectDBX Classes
 90
     1025
 91
        1
280
     0
281
     0
  0
CLASS
  1
DICTIONARYVAR
  2
AcDbDictionaryVar
  3
ObjectDBX Classes
 90
        0
 91
        5
280
     0
281
     0
  0
CLASS
  1
CELLSTYLEMAP
  2
AcDbCellStyleMap
  3
ObjectDBX Classes
 90
     1152
 91
        1
280
     0
281
     0
  0
ENDSEC
  0
SECTION
  2
TABLES
  0
TABLE
  2
VPORT
  5
8
330
0
100
AcDbSymbolTable
 70
     1
1001
ACAD
1000
DbSaveVer
1071
      278
  0
VPORT
  5
57
330
8
100
AcDbSymbolTableRecord
100
AcDbViewportTableRecord
  2
*Active
 70
     0
 10
0.0
 20
0.0
 11
1.0
 21
1.0
 12
0.0
 22
0.0
 13
0.0
 23
0.0
 14
1.0
 24
1.0
 15
0.0
 25
0.0
 16
0.0
 26
0.0
 36
1.0
 17
35.55555555555555
 27
-35.55555555555558
 37
0.0
 40
12.24000000000005
 41
0.9999999999999952
 42
50.0
 43
0.0
 44
0.0
 50
0.0
 51
0.0
 71
     0
 72
   100
 73
     1
 74
     1
 75
     0
 76
     0
 77
     0
 78
     0
281
     0
 65
     1
110
0.0
120
0.0
130
0.0
111
1.0
121
0.0
131
0.0
112
0.0
122
1.0
132
0.0
 79
     0
146
0.0
 60
     3
 61
     5
292
     1
282
     1
141
0.0
142
0.0
 63
   250
421
  3355443
  0
ENDTAB
  0
TABLE
  2
LTYPE
  5
5
330
0
100
AcDbSymbolTable
 70
     1
  0
LTYPE
  5
5B
330
5
100
AcDbSymbolTableRecord
100
AcDbLinetypeTableRecord
  2
ByBlock
 70
     0
  3

 72
    65
 73
     0
 40
0.0
  0
LTYPE
  5
5C
330
5
100
AcDbSymbolTableRecord
100
AcDbLinetypeTableRecord
  2
ByLayer
 70
     0
  3

 72
    65
 73
     0
 40
0.0
  0
LTYPE
  5
5D
330
5
100
AcDbSymbolTableRecord
100
AcDbLinetypeTableRecord
  2
Continuous
 70
     0
  3
Solid line
 72
    65
 73
     0
 40
0.0
  0
ENDTAB
  0
TABLE
  2
LAYER
  5
2
330
0
100
AcDbSymbolTable
 70
     2
  0
LAYER
  5
54
330
2
100
AcDbSymbolTableRecord
100
AcDbLayerTableRecord
  2
0
 70
     0
 62
     7
  6
Continuous
370
    -3
390
F
347
21
348
0
  0
LAYER
  5
78
330
2
100
AcDbSymbolTableRecord
100
AcDbLayerTableRecord
  2
Слой 1
 70
     0
 62
     7
  6
Continuous
370
     0
390
F
347
21
348
0
  0
ENDTAB
  0
TABLE
  2
STYLE
  5
3
330
0
100
AcDbSymbolTable
 70
     2
  0
STYLE
  5
55
330
3
100
AcDbSymbolTableRecord
100
AcDbTextStyleTableRecord
  2
Standard
 70
     0
 40
0.0
 41
1.0
 50
0.0
 71
     0
 42
0.2
  3
txt
  4

  0
STYLE
  5
5A
330
3
100
AcDbSymbolTableRecord
100
AcDbTextStyleTableRecord
  2
Annotative
 70
     0
 40
0.0
 41
1.0
 50
0.0
 71
     0
 42
0.2
  3
txt
  4

1001
AcadAnnotative
1000
AnnotativeData
1002
{
1070
     1
1070
     1
1002
}
  0
ENDTAB
  0
TABLE
  2
VIEW
  5
6
330
0
100
AcDbSymbolTable
 70
     0
  0
ENDTAB
  0
TABLE
  2
UCS
  5
7
330
0
100
AcDbSymbolTable
 70
     0
  0
ENDTAB
  0
TABLE
  2
APPID
  5
9
330
0
100
AcDbSymbolTable
 70
     2
  0
APPID
  5
56
330
9
100
AcDbSymbolTableRecord
100
AcDbRegAppTableRecord
  2
ACAD
 70
     0
  0
APPID
  5
5E
330
9
100
AcDbSymbolTableRecord
100
AcDbRegAppTableRecord
  2
AcadAnnotative
 70
     0
  0
ENDTAB
  0
TABLE
  2
DIMSTYLE
  5
A
330
0
100
AcDbSymbolTable
 70
     2
100
AcDbDimStyleTable
 71
     0
  0
DIMSTYLE
105
58
330
A
100
AcDbSymbolTableRecord
100
AcDbDimStyleTableRecord
  2
Standard
 70
     0
340
55
  0
DIMSTYLE
105
59
330
A
100
AcDbSymbolTableRecord
100
AcDbDimStyleTableRecord
  2
Annotative
 70
     0
340
55
1001
AcadAnnotative
1000
AnnotativeData
1002
{
1070
     1
1070
     1
1002
}
  0
ENDTAB
  0
TABLE
  2
BLOCK_RECORD
  5
1
330
0
100
AcDbSymbolTable
 70
     2
  0
BLOCK_RECORD
  5
70
330
1
100
AcDbSymbolTableRecord
100
AcDbBlockTableRecord
  2
*Model_Space
340
73
 70
     0
280
     1
281
     0
  0
BLOCK_RECORD
  5
6C
330
1
100
AcDbSymbolTableRecord
100
AcDbBlockTableRecord
  2
*Paper_Space
340
6F
 70
     0
280
     1
281
     0
  0
BLOCK_RECORD
  5
74
330
1
100
AcDbSymbolTableRecord
100
AcDbBlockTableRecord
  2
*Paper_Space0
340
77
 70
     0
280
     1
281
     0
  0
BLOCK_RECORD
  5
79
330
1
100
AcDbSymbolTableRecord
100
AcDbBlockTableRecord
  2
Block_0
340
0
102
{BLKREFS
331
7A
102
}
 70
     0
280
     1
281
     0
  0
ENDTAB
  0
ENDSEC
  0
SECTION
  2
BLOCKS
  0
BLOCK
  5
71
330
70
100
AcDbEntity
  8
0
100
AcDbBlockBegin
  2
*Model_Space
 70
     0
 10
0.0
 20
0.0
 30
0.0
  3
*Model_Space
  1

  0
ENDBLK
  5
72
330
70
100
AcDbEntity
  8
0
100
AcDbBlockEnd
  0
BLOCK
  5
6D
330
6C
100
AcDbEntity
 67
     1
  8
0
100
AcDbBlockBegin
  2
*Paper_Space
 70
     0
 10
0.0
 20
0.0
 30
0.0
  3
*Paper_Space
  1

  0
ENDBLK
  5
6E
330
6C
100
AcDbEntity
 67
     1
  8
0
100
AcDbBlockEnd
  0
BLOCK
  5
75
330
74
100
AcDbEntity
 67
     1
  8
0
100
AcDbBlockBegin
  2
*Paper_Space0
 70
     0
 10
0.0
 20
0.0
 30
0.0
  3
*Paper_Space0
  1

  0
ENDBLK
  5
76
330
74
100
AcDbEntity
 67
     1
  8
0
100
AcDbBlockEnd
  0
BLOCK
  5
7B
330
79
100
AcDbEntity
  8
0
100
AcDbBlockBegin
  2
Block_0
 70
     0
 10
0.0
 20
0.0
 30
0.0
  3
Block_0
  1

  0
SPLINE
  5
7D
330
79
100
AcDbEntity
  8
Слой 1
100
AcDbSpline
210
0.0
220
0.0
230
1.0
 70
     9
 71
     3
 72
   236
 73
   232
 74
     0
 42
0.0000000001
 43
0.0000000001
 40
0.0
 40
0.0
 40
0.0
 40
0.0
 40
1.0
 40
1.0
 40
1.0
 40
2.0
 40
2.0
 40
2.0
 40
3.0
 40
3.0
 40
3.0
 40
4.0
 40
4.0
 40
4.0
 40
5.0
 40
5.0
 40
5.0
 40
6.0
 40
6.0
 40
6.0
 40
7.0
 40
7.0
 40
7.0
 40
8.0
 40
8.0
 40
8.0
 40
9.0
 40
9.0
 40
9.0
 40
10.0
 40
10.0
 40
10.0
 40
11.0
 40
11.0
 40
11.0
 40
12.0
 40
12.0
 40
12.0
 40
13.0
 40
13.0
 40
13.0
 40
14.0
 40
14.0
 40
14.0
 40
15.0
 40
15.0
 40
15.0
 40
16.0
 40
16.0
 40
16.0
 40
17.0
 40
17.0
 40
17.0
 40
18.0
 40
18.0
 40
18.0
 40
19.0
 40
19.0
 40
19.0
 40
20.0
 40
20.0
 40
20.0
 40
21.0
 40
21.0
 40
21.0
 40
22.0
 40
22.0
 40
22.0
 40
23.0
 40
23.0
 40
23.0
 40
24.0
 40
24.0
 40
24.0
 40
25.0
 40
25.0
 40
25.0
 40
26.0
 40
26.0
 40
26.0
 40
27.0
 40
27.0
 40
27.0
 40
28.0
 40
28.0
 40
28.0
 40
29.0
 40
29.0
 40
29.0
 40
30.0
 40
30.0
 40
30.0
 40
31.0
 40
31.0
 40
31.0
 40
32.0
 40
32.0
 40
32.0
 40
33.0
 40
33.0
 40
33.0
 40
34.0
 40
34.0
 40
34.0
 40
35.0
 40
35.0
 40
35.0
 40
36.0
 40
36.0
 40
36.0
 40
37.0
 40
37.0
 40
37.0
 40
38.0
 40
38.0
 40
38.0
 40
39.0
 40
39.0
 40
39.0
 40
40.0
 40
40.0
 40
40.0
 40
41.0
 40
41.0
 40
41.0
 40
42.0
 40
42.0
 40
42.0
 40
43.0
 40
43.0
 40
43.0
 40
44.0
 40
44.0
 40
44.0
 40
45.0
 40
45.0
 40
45.0
 40
46.0
 40
46.0
 40
46.0
 40
47.0
 40
47.0
 40
47.0
 40
48.0
 40
48.0
 40
48.0
 40
49.0
 40
49.0
 40
49.0
 40
50.0
 40
50.0
 40
50.0
 40
51.0
 40
51.0
 40
51.0
 40
52.0
 40
52.0
 40
52.0
 40
53.0
 40
53.0
 40
53.0
 40
54.0
 40
54.0
 40
54.0
 40
55.0
 40
55.0
 40
55.0
 40
56.0
 40
56.0
 40
56.0
 40
57.0
 40
57.0
 40
57.0
 40
58.0
 40
58.0
 40
58.0
 40
59.0
 40
59.0
 40
59.0
 40
60.0
 40
60.0
 40
60.0
 40
61.0
 40
61.0
 40
61.0
 40
62.0
 40
62.0
 40
62.0
 40
63.0
 40
63.0
 40
63.0
 40
64.0
 40
64.0
 40
64.0
 40
65.0
 40
65.0
 40
65.0
 40
66.0
 40
66.0
 40
66.0
 40
67.0
 40
67.0
 40
67.0
 40
68.0
 40
68.0
 40
68.0
 40
69.0
 40
69.0
 40
69.0
 40
70.0
 40
70.0
 40
70.0
 40
71.0
 40
71.0
 40
71.0
 40
72.0
 40
72.0
 40
72.0
 40
73.0
 40
73.0
 40
73.0
 40
74.0
 40
74.0
 40
74.0
 40
75.0
 40
75.0
 40
75.0
 40
76.0
 40
76.0
 40
76.0
 40
77.0
 40
77.0
 40
77.0
 40
77.0
 10
38.58281795034013
 20
-34.85250280569875
 30
0.0
 10
38.76382045243556
 20
-34.95133656858376
 30
0.0
 10
38.9098612128461
 20
-35.03041936934917
 30
0.0
 10
39.05518656108416
 20
-35.11079440960084
 30
0.0
 10
39.10508494879319
 20
-35.13839065109361
 30
0.0
 10
39.15713279559542
 20
-35.16427572259388
 30
0.0
 10
39.20139489551679
 20
-35.19949005422374
 30
0.0
 10
39.33369136352333
 20
-35.30475278911528
 30
0.0
 10
39.36165688977876
 20
-35.45389366076971
 30
0.0
 10
39.27885276473459
 20
-35.58504952351707
 30
0.0
 10
39.20293528749082
 20
-35.70530674800569
 30
0.0
 10
39.05027857577791
 20
-35.74716596198042
 30
0.0
 10
38.90480821155903
 20
-35.67574636694487
 30
0.0
 10
38.7549068034818
 20
-35.60215316708847
 30
0.0
 10
38.61090271195735
 20
-35.51662850414666
 30
0.0
 10
38.46320554678848
 20
-35.43842867998792
 30
0.0
 10
38.42142160885027
 20
-35.41630753796304
 30
0.0
 10
38.38285702568626
 20
-35.38381786589793
 30
0.0
 10
38.31099032817292
 20
-35.38308151496876
 30
0.0
 10
38.37442998591251
 20
-35.56644739774846
 30
0.0
 10
38.43516590125417
 20
-35.74279941708361
 30
0.0
 10
38.49647543536417
 20
-35.9189516387925
 30
0.0
 10
38.53985454909126
 20
-36.04357218563569
 30
0.0
 10
38.58705563955722
 20
-36.16695527621278
 30
0.0
 10
38.62703171160125
 20
-36.29264409584819
 30
0.0
 10
38.67432625681027
 20
-36.44134670174152
 30
0.0
 10
38.61551744272487
 20
-36.56632011697264
 30
0.0
 10
38.48162579892917
 20
-36.61516096896862
 30
0.0
 10
38.3618200407364
 20
-36.65886669971501
 30
0.0
 10
38.23188572192846
 20
-36.59551151693348
 30
0.0
 10
38.17989265894109
 20
-36.45254825898165
 30
0.0
 10
38.01904093302389
 20
-36.01027204416722
 30
0.0
 10
37.86225932230139
 20
-35.5664876795279
 30
0.0
 10
37.7080138799543
 20
-35.12186062006208
 30
0.0
 10
37.67851440687958
 20
-35.03681933847444
 30
0.0
 10
37.63078159115083
 20
-34.98138033099833
 30
0.0
 10
37.55133861428431
 20
-34.9392697587196
 30
0.0
 10
37.26379931624069
 20
-34.78685800657111
 30
0.0
 10
36.9781194453286
 20
-34.63080478155639
 30
0.0
 10
36.69451974809681
 20
-34.47118420215027
 30
0.0
 10
36.61217967419139
 20
-34.42484082048264
 30
0.0
 10
36.54819540087972
 20
-34.43916179872708
 30
0.0
 10
36.46223637260861
 20
-34.47116486689598
 30
0.0
 10
36.09705551843806
 20
-34.60714004174181
 30
0.0
 10
35.95481095414751
 20
-34.85020674426778
 30
0.0
 10
36.01511343283512
 20
-35.24025843761001
 30
0.0
 10
36.04766307537291
 20
-35.45080968773166
 30
0.0
 10
36.02355980807318
 20
-35.67057257518751
 30
0.0
 10
36.01971688458139
 20
-35.88608492927139
 30
0.0
 10
36.01805564595694
 20
-35.97916967658723
 30
0.0
 10
36.04203806660598
 20
-36.05298200932458
 30
0.0
 10
36.10694238575181
 20
-36.12401973309029
 30
0.0
 10
36.40351779068902
 20
-36.44860870094777
 30
0.0
 10
36.69452780454013
 20
-36.77827639556305
 30
0.0
 10
36.98847680893583
 20
-37.10527582510569
 30
0.0
 10
37.07191900429542
 20
-37.19809954649069
 30
0.0
 10
37.13695061524653
 20
-37.29435849803071
 30
0.0
 10
37.07380098946901
 20
-37.424840849425
 30
0.0
 10
36.99722127257875
 20
-37.58307090180306
 30
0.0
 10
36.79084580770723
 20
-37.60352437815694
 30
0.0
 10
36.66628997049873
 20
-37.46468597442514
 30
0.0
 10
36.49012294571889
 20
-37.2683122994125
 30
0.0
 10
36.31453598486223
 20
-37.07141012745279
 30
0.0
 10
36.14028961618431
 20
-36.87333656134569
 30
0.0
 10
36.11438170556764
 20
-36.84388574672514
 30
0.0
 10
36.09716669735654
 20
-36.8067894503575
 30
0.0
 10
36.06486035940876
 20
-36.75573793430319
 30
0.0
 10
36.00400037483903
 20
-36.8588125629329
 30
0.0
 10
36.02364520637293
 20
-36.92960053966597
 30
0.0
 10
36.0217777227979
 20
-36.99605419692598
 30
0.0
 10
36.01844235523888
 20
-37.11475493345513
 30
0.0
 10
36.02372254822944
 20
-37.23372152972888
 30
0.0
 10
36.01947841385764
 20
-37.35236587176693
 30
0.0
 10
36.01179256687472
 20
-37.56727238788749
 30
0.0
 10
35.89289718678376
 20
-37.70404353069582
 30
0.0
 10
35.72026210678111
 20
-37.70293980993776
 30
0.0
 10
35.54565964330542
 20
-37.70182319901028
 30
0.0
 10
35.439928491695
 20
-37.56821337025624
 30
0.0
 10
35.43987854174595
 20
-37.34308011595903
 30
0.0
 10
35.43944510509237
 20
-35.39404943788834
 30
0.0
 10
35.43781448095251
 20
-33.44501553727514
 30
0.0
 10
35.44285298064124
 20
-31.49599774937347
 30
0.0
 10
35.44327513827445
 20
-31.3329258271007
 30
0.0
 10
35.39264039164083
 20
-31.21540615234582
 30
0.0
 10
35.28349653061499
 20
-31.09843269852127
 30
0.0
 10
34.98060326278068
 20
-30.77381150524014
 30
0.0
 10
34.68819303907013
 20
-30.43937928174667
 30
0.0
 10
34.39308229553904
 20
-30.10754281612306
 30
0.0
 10
34.29108772236792
 20
-29.99285414483097
 30
0.0
 10
34.29339025388542
 20
-29.8637881008036
 30
0.0
 10
34.39368975137
 20
-29.76662361486056
 30
0.0
 10
34.49283073229695
 20
-29.67058057365847
 30
0.0
 10
34.62881382879348
 20
-29.67003596399973
 30
0.0
 10
34.73322211240126
 20
-29.78139413776375
 30
0.0
 10
34.96137092114749
 20
-30.02473153384805
 30
0.0
 10
35.18267175302208
 20
-30.27448501176958
 30
0.0
 10
35.40688579482263
 20
-30.52174263063363
 30
0.0
 10
35.45710321768916
 20
-30.50180798359972
 30
0.0
 10
35.43814157255376
 20
-30.46081724479098
 30
0.0
 10
35.43850411250583
 20
-30.4307267555121
 30
0.0
 10
35.4407840859818
 20
-30.24157157538389
 30
0.0
 10
35.43661568217779
 20
-30.052292327375
 30
0.0
 10
35.44126102742972
 20
-29.86321932207693
 30
0.0
 10
35.44559539396737
 20
-29.68670134181042
 30
0.0
 10
35.55133943588721
 20
-29.56961026518944
 30
0.0
 10
35.70740563443779
 20
-29.55658636024486
 30
0.0
 10
35.85955317892917
 20
-29.54388954334985
 30
0.0
 10
35.98931831242609
 20
-29.64934240824055
 30
0.0
 10
36.0077288968343
 20
-29.82558486113513
 30
0.0
 10
36.02456686349584
 20
-29.98676031722971
 30
0.0
 10
36.01771244146918
 20
-30.15043002111042
 30
0.0
 10
36.02075938835487
 20
-30.31301211694472
 30
0.0
 10
36.02171327125097
 20
-30.36390572842346
 30
0.0
 10
36.02090762691319
 20
-30.4148331765964
 30
0.0
 10
36.05177830665055
 20
-30.47562160438904
 30
0.0
 10
36.21513236388152
 20
-30.29499004880098
 30
0.0
 10
36.37853314848346
 20
-30.11439877499237
 30
0.0
 10
36.54180986385778
 20
-29.93369632347251
 30
0.0
 10
36.58602040254138
 20
-29.88476846283278
 30
0.0
 10
36.62760292939527
 20
-29.83324001050945
 30
0.0
 10
36.67428840748458
 20
-29.78682412163903
 30
0.0
 10
36.78814206530958
 20
-29.67361943110333
 30
0.0
 10
36.92466010964639
 20
-29.66545350876514
 30
0.0
 10
37.02593927064582
 20
-29.76276462038542
 30
0.0
 10
37.12510925476904
 20
-29.85805197540417
 30
0.0
 10
37.12900212820917
 20
-29.98619959485944
 30
0.0
 10
37.02493060393486
 20
-30.10396579410445
 30
0.0
 10
36.73086558675443
 20
-30.43672874065598
 30
0.0
 10
36.43575162064611
 20
-30.76865543746529
 30
0.0
 10
36.1352946212893
 20
-31.09562103031279
 30
0.0
 10
36.05524579988069
 20
-31.18273279536624
 30
0.0
 10
36.01707114857625
 20
-31.27149450210749
 30
0.0
 10
36.019019196585
 20
-31.39015979067111
 30
0.0
 10
36.02450724581457
 20
-31.72444216594487
 30
0.0
 10
36.02355980807318
 20
-32.05890339231974
 30
0.0
 10
36.01938818169181
 20
-32.39322121555945
 30
0.0
 10
36.01819260549458
 20
-32.48903384498291
 30
0.0
 10
36.05144799247207
 20
-32.55043777836583
 30
0.0
 10
36.13619210908196
 20
-32.59357795292807
 30
0.0
 10
36.22622447512458
 20
-32.63941217290307
 30
0.0
 10
36.31697547591723
 20
-32.68682221609126
 30
0.0
 10
36.39829721537985
 20
-32.7460573784664
 30
0.0
 10
36.50874944281001
 20
-32.82650975973486
 30
0.0
 10
36.60541870690804
 20
-32.82422175465985
 30
0.0
 10
36.72376463756084
 20
-32.75480658097179
 30
0.0
 10
36.98921639043806
 20
-32.59910461307415
 30
0.0
 10
37.26152739920763
 20
-32.45492645665319
 30
0.0
 10
37.53316327802251
 20
-32.31002483947249
 30
0.0
 10
37.62334710520124
 20
-32.26191872713472
 30
0.0
 10
37.68106346556488
 20
-32.19915165833375
 30
0.0
 10
37.71516477909695
 20
-32.0989757065561
 30
0.0
 10
37.85831166504598
 20
-31.67845809775056
 30
0.0
 10
38.00968901355014
 20
-31.26074248952611
 30
0.0
 10
38.15806614254027
 20
-30.84200533537389
 30
0.0
 10
38.1786841924343
 20
-30.78381911053667
 30
0.0
 10
38.19781018901459
 20
-30.72373319697847
 30
0.0
 10
38.24302294925486
 20
-30.67966976402999
 30
0.0
 10
38.32059683125736
 20
-30.60408019918208
 30
0.0
 10
38.41357141042236
 20
-30.58930000865181
 30
0.0
 10
38.51100925921903
 20
-30.63230483643499
 30
0.0
 10
38.61253978125195
 20
-30.67711589921042
 30
0.0
 10
38.64952207893652
 20
-30.76459825663513
 30
0.0
 10
38.63964487935459
 20
-30.87010268220375
 30
0.0
 10
38.62844642305847
 20
-30.98972828839015
 30
0.0
 10
38.57486785201429
 20
-31.09786875360833
 30
0.0
 10
38.5360067917339
 20
-31.20976186940402
 30
0.0
 10
38.46260936997846
 20
-31.42111069875972
 30
0.0
 10
38.38736541140083
 20
-31.6318182421861
 30
0.0
 10
38.29815158000515
 20
-31.88454612670499
 30
0.0
 10
38.46396929762083
 20
-31.79652399343513
 30
0.0
 10
38.5959789562432
 20
-31.72647075636001
 30
0.0
 10
38.72796605682404
 20
-31.65637884877651
 30
0.0
 10
38.79395155067125
 20
-31.62133531189167
 30
0.0
 10
38.85733320201821
 20
-31.57972906749223
 30
0.0
 10
38.92638658950361
 20
-31.55246635913361
 30
0.0
 10
39.07827955038417
 20
-31.49249967964263
 30
0.0
 10
39.22196138417333
 20
-31.5433787896807
 30
0.0
 10
39.28996421144251
 20
-31.6735775573475
 30
0.0
 10
39.36282668535735
 20
-31.81308302734791
 30
0.0
 10
39.32539000426638
 20
-31.96380777857126
 30
0.0
 10
39.18304231750069
 20
-32.05148026599527
 30
0.0
 10
39.03339227045666
 20
-32.14365142255277
 30
0.0
 10
38.87656876622875
 20
-32.22415053068501
 30
0.0
 10
38.72322886811763
 20
-32.31037448531849
 30
0.0
 10
38.69326856648167
 20
-32.32722193677223
 30
0.0
 10
38.66491310836651
 20
-32.34692939456984
 30
0.0
 10
38.63403759476291
 20
-32.36644349982584
 30
0.0
 10
38.66438782825846
 20
-32.42402388669987
 30
0.0
 10
38.71839500209042
 20
-32.41816530469082
 30
0.0
 10
38.76173866746654
 20
-32.42875457888335
 30
0.0
 10
39.01807213772819
 20
-32.49138468963388
 30
0.0
 10
39.27598789346959
 20
-32.54771473007251
 30
0.0
 10
39.53151571939305
 20
-32.61339658843723
 30
0.0
 10
39.69629254452416
 20
-32.65575207393514
 30
0.0
 10
39.77110790031444
 20
-32.77715652350404
 30
0.0
 10
39.73095458651611
 20
-32.91467046232598
 30
0.0
 10
39.69143289787861
 20
-33.05002207522527
 30
0.0
 10
39.57512041353485
 20
-33.11290837809348
 30
0.0
 10
39.41718512012054
 20
-33.07619073045291
 30
0.0
 10
38.98877890960416
 20
-32.97659483629998
 30
0.0
 10
38.56025990888042
 20
-32.87724224409526
 30
0.0
 10
38.13358099982459
 20
-32.77060509488749
 30
0.0
 10
38.01153555037263
 20
-32.7401021201868
 30
0.0
 10
37.90898991647388
 20
-32.74567067338332
 30
0.0
 10
37.79644140247653
 20
-32.81101899861402
 30
0.0
 10
37.50746000106806
 20
-32.97880066654486
 30
0.0
 10
37.21110050881318
 20
-33.13386779359765
 30
0.0
 10
36.91771867803153
 20
-33.29406843062834
 30
0.0
 10
36.90227930994085
 20
-33.30250021271124
 30
0.0
 10
36.88586994606764
 20
-33.30979121479888
 30
0.0
 10
36.87200641830193
 20
-33.32035954246597
 30
0.0
 10
36.77305879201624
 20
-33.39579120273846
 30
0.0
 10
36.7952865192975
 20
-33.87673309204999
 30
0.0
 10
36.90452383506625
 20
-33.93729916441986
 30
0.0
 10
37.22762749675985
 20
-34.11644673925154
 30
0.0
 10
37.55376843760735
 20
-34.29011276952999
 30
0.0
 10
37.87709284584958
 20
-34.46887202800736
 30
0.0
 10
37.94655227808153
 20
-34.50727667657306
 30
0.0
 10
38.01198671120139
 20
-34.49428660832334
 30
0.0
 10
38.08107232446057
 20
-34.47795315237542
 30
0.0
 10
38.52192735128556
 20
-34.37372324231041
 30
0.0
 10
38.96253746223166
 20
-34.26844439470695
 30
0.0
 10
39.40398866586639
 20
-34.16679574107126
 30
0.0
 10
39.58035387915361
 20
-34.12618687353208
 30
0.0
 10
39.69805851691292
 20
-34.19037669478459
 30
0.0
 10
39.7341900541768
 20
-34.33681385339931
 30
0.0
 10
39.76904867338653
 20
-34.47810622313778
 30
0.0
 10
39.68633155793138
 20
-34.58809159385666
 30
0.0
 10
39.50737539245375
 20
-34.63167970180681
 30
0.0
 10
39.21301873202348
 20
-34.70336999040041
 30
0.0
 10
38.91805944962778
 20
-34.77258053264861
 30
0.0
 10
38.58281795034013
 20
-34.85250280569875
 30
0.0
  0
HATCH
  5
7E
330
79
100
AcDbEntity
  8
Слой 1
 62
    18
420
        0
440
 33554687
100
AcDbHatch
 10
0.0
 20
0.0
 30
0.0
210
0.0
220
0.0
230
1.0
  2
SOLID
 70
     1
 71
     1
 91
        1
 92
        1
 93
        1
 72
     4
 94
        3
 73
     0
 74
     0
 95
      236
 96
      232
 40
0.0
 40
0.0
 40
0.0
 40
0.0
 40
1.0
 40
1.0
 40
1.0
 40
2.0
 40
2.0
 40
2.0
 40
3.0
 40
3.0
 40
3.0
 40
4.0
 40
4.0
 40
4.0
 40
5.0
 40
5.0
 40
5.0
 40
6.0
 40
6.0
 40
6.0
 40
7.0
 40
7.0
 40
7.0
 40
8.0
 40
8.0
 40
8.0
 40
9.0
 40
9.0
 40
9.0
 40
10.0
 40
10.0
 40
10.0
 40
11.0
 40
11.0
 40
11.0
 40
12.0
 40
12.0
 40
12.0
 40
13.0
 40
13.0
 40
13.0
 40
14.0
 40
14.0
 40
14.0
 40
15.0
 40
15.0
 40
15.0
 40
16.0
 40
16.0
 40
16.0
 40
17.0
 40
17.0
 40
17.0
 40
18.0
 40
18.0
 40
18.0
 40
19.0
 40
19.0
 40
19.0
 40
20.0
 40
20.0
 40
20.0
 40
21.0
 40
21.0
 40
21.0
 40
22.0
 40
22.0
 40
22.0
 40
23.0
 40
23.0
 40
23.0
 40
24.0
 40
24.0
 40
24.0
 40
25.0
 40
25.0
 40
25.0
 40
26.0
 40
26.0
 40
26.0
 40
27.0
 40
27.0
 40
27.0
 40
28.0
 40
28.0
 40
28.0
 40
29.0
 40
29.0
 40
29.0
 40
30.0
 40
30.0
 40
30.0
 40
31.0
 40
31.0
 40
31.0
 40
32.0
 40
32.0
 40
32.0
 40
33.0
 40
33.0
 40
33.0
 40
34.0
 40
34.0
 40
34.0
 40
35.0
 40
35.0
 40
35.0
 40
36.0
 40
36.0
 40
36.0
 40
37.0
 40
37.0
 40
37.0
 40
38.0
 40
38.0
 40
38.0
 40
39.0
 40
39.0
 40
39.0
 40
40.0
 40
40.0
 40
40.0
 40
41.0
 40
41.0
 40
41.0
 40
42.0
 40
42.0
 40
42.0
 40
43.0
 40
43.0
 40
43.0
 40
44.0
 40
44.0
 40
44.0
 40
45.0
 40
45.0
 40
45.0
 40
46.0
 40
46.0
 40
46.0
 40
47.0
 40
47.0
 40
47.0
 40
48.0
 40
48.0
 40
48.0
 40
49.0
 40
49.0
 40
49.0
 40
50.0
 40
50.0
 40
50.0
 40
51.0
 40
51.0
 40
51.0
 40
52.0
 40
52.0
 40
52.0
 40
53.0
 40
53.0
 40
53.0
 40
54.0
 40
54.0
 40
54.0
 40
55.0
 40
55.0
 40
55.0
 40
56.0
 40
56.0
 40
56.0
 40
57.0
 40
57.0
 40
57.0
 40
58.0
 40
58.0
 40
58.0
 40
59.0
 40
59.0
 40
59.0
 40
60.0
 40
60.0
 40
60.0
 40
61.0
 40
61.0
 40
61.0
 40
62.0
 40
62.0
 40
62.0
 40
63.0
 40
63.0
 40
63.0
 40
64.0
 40
64.0
 40
64.0
 40
65.0
 40
65.0
 40
65.0
 40
66.0
 40
66.0
 40
66.0
 40
67.0
 40
67.0
 40
67.0
 40
68.0
 40
68.0
 40
68.0
 40
69.0
 40
69.0
 40
69.0
 40
70.0
 40
70.0
 40
70.0
 40
71.0
 40
71.0
 40
71.0
 40
72.0
 40
72.0
 40
72.0
 40
73.0
 40
73.0
 40
73.0
 40
74.0
 40
74.0
 40
74.0
 40
75.0
 40
75.0
 40
75.0
 40
76.0
 40
76.0
 40
76.0
 40
77.0
 40
77.0
 40
77.0
 40
77.0
 10
38.58281795034013
 20
-34.85250280569875
 10
38.76382045243556
 20
-34.95133656858376
 10
38.9098612128461
 20
-35.03041936934917
 10
39.05518656108416
 20
-35.11079440960084
 10
39.10508494879319
 20
-35.13839065109361
 10
39.15713279559542
 20
-35.16427572259388
 10
39.20139489551679
 20
-35.19949005422374
 10
39.33369136352333
 20
-35.30475278911528
 10
39.36165688977876
 20
-35.45389366076971
 10
39.27885276473459
 20
-35.58504952351707
 10
39.20293528749082
 20
-35.70530674800569
 10
39.05027857577791
 20
-35.74716596198042
 10
38.90480821155903
 20
-35.67574636694487
 10
38.7549068034818
 20
-35.60215316708847
 10
38.61090271195735
 20
-35.51662850414666
 10
38.46320554678848
 20
-35.43842867998792
 10
38.42142160885027
 20
-35.41630753796304
 10
38.38285702568626
 20
-35.38381786589793
 10
38.31099032817292
 20
-35.38308151496876
 10
38.37442998591251
 20
-35.56644739774846
 10
38.43516590125417
 20
-35.74279941708361
 10
38.49647543536417
 20
-35.9189516387925
 10
38.53985454909126
 20
-36.04357218563569
 10
38.58705563955722
 20
-36.16695527621278
 10
38.62703171160125
 20
-36.29264409584819
 10
38.67432625681027
 20
-36.44134670174152
 10
38.61551744272487
 20
-36.56632011697264
 10
38.48162579892917
 20
-36.61516096896862
 10
38.3618200407364
 20
-36.65886669971501
 10
38.23188572192846
 20
-36.59551151693348
 10
38.17989265894109
 20
-36.45254825898165
 10
38.01904093302389
 20
-36.01027204416722
 10
37.86225932230139
 20
-35.5664876795279
 10
37.7080138799543
 20
-35.12186062006208
 10
37.67851440687958
 20
-35.03681933847444
 10
37.63078159115083
 20
-34.98138033099833
 10
37.55133861428431
 20
-34.9392697587196
 10
37.26379931624069
 20
-34.78685800657111
 10
36.9781194453286
 20
-34.63080478155639
 10
36.69451974809681
 20
-34.47118420215027
 10
36.61217967419139
 20
-34.42484082048264
 10
36.54819540087972
 20
-34.43916179872708
 10
36.46223637260861
 20
-34.47116486689598
 10
36.09705551843806
 20
-34.60714004174181
 10
35.95481095414751
 20
-34.85020674426778
 10
36.01511343283512
 20
-35.24025843761001
 10
36.04766307537291
 20
-35.45080968773166
 10
36.02355980807318
 20
-35.67057257518751
 10
36.01971688458139
 20
-35.88608492927139
 10
36.01805564595694
 20
-35.97916967658723
 10
36.04203806660598
 20
-36.05298200932458
 10
36.10694238575181
 20
-36.12401973309029
 10
36.40351779068902
 20
-36.44860870094777
 10
36.69452780454013
 20
-36.77827639556305
 10
36.98847680893583
 20
-37.10527582510569
 10
37.07191900429542
 20
-37.19809954649069
 10
37.13695061524653
 20
-37.29435849803071
 10
37.07380098946901
 20
-37.424840849425
 10
36.99722127257875
 20
-37.58307090180306
 10
36.79084580770723
 20
-37.60352437815694
 10
36.66628997049873
 20
-37.46468597442514
 10
36.49012294571889
 20
-37.2683122994125
 10
36.31453598486223
 20
-37.07141012745279
 10
36.14028961618431
 20
-36.87333656134569
 10
36.11438170556764
 20
-36.84388574672514
 10
36.09716669735654
 20
-36.8067894503575
 10
36.06486035940876
 20
-36.75573793430319
 10
36.00400037483903
 20
-36.8588125629329
 10
36.02364520637293
 20
-36.92960053966597
 10
36.0217777227979
 20
-36.99605419692598
 10
36.01844235523888
 20
-37.11475493345513
 10
36.02372254822944
 20
-37.23372152972888
 10
36.01947841385764
 20
-37.35236587176693
 10
36.01179256687472
 20
-37.56727238788749
 10
35.89289718678376
 20
-37.70404353069582
 10
35.72026210678111
 20
-37.70293980993776
 10
35.54565964330542
 20
-37.70182319901028
 10
35.439928491695
 20
-37.56821337025624
 10
35.43987854174595
 20
-37.34308011595903
 10
35.43944510509237
 20
-35.39404943788834
 10
35.43781448095251
 20
-33.44501553727514
 10
35.44285298064124
 20
-31.49599774937347
 10
35.44327513827445
 20
-31.3329258271007
 10
35.39264039164083
 20
-31.21540615234582
 10
35.28349653061499
 20
-31.09843269852127
 10
34.98060326278068
 20
-30.77381150524014
 10
34.68819303907013
 20
-30.43937928174667
 10
34.39308229553904
 20
-30.10754281612306
 10
34.29108772236792
 20
-29.99285414483097
 10
34.29339025388542
 20
-29.8637881008036
 10
34.39368975137
 20
-29.76662361486056
 10
34.49283073229695
 20
-29.67058057365847
 10
34.62881382879348
 20
-29.67003596399973
 10
34.73322211240126
 20
-29.78139413776375
 10
34.96137092114749
 20
-30.02473153384805
 10
35.18267175302208
 20
-30.27448501176958
 10
35.40688579482263
 20
-30.52174263063363
 10
35.45710321768916
 20
-30.50180798359972
 10
35.43814157255376
 20
-30.46081724479098
 10
35.43850411250583
 20
-30.4307267555121
 10
35.4407840859818
 20
-30.24157157538389
 10
35.43661568217779
 20
-30.052292327375
 10
35.44126102742972
 20
-29.86321932207693
 10
35.44559539396737
 20
-29.68670134181042
 10
35.55133943588721
 20
-29.56961026518944
 10
35.70740563443779
 20
-29.55658636024486
 10
35.85955317892917
 20
-29.54388954334985
 10
35.98931831242609
 20
-29.64934240824055
 10
36.0077288968343
 20
-29.82558486113513
 10
36.02456686349584
 20
-29.98676031722971
 10
36.01771244146918
 20
-30.15043002111042
 10
36.02075938835487
 20
-30.31301211694472
 10
36.02171327125097
 20
-30.36390572842346
 10
36.02090762691319
 20
-30.4148331765964
 10
36.05177830665055
 20
-30.47562160438904
 10
36.21513236388152
 20
-30.29499004880098
 10
36.37853314848346
 20
-30.11439877499237
 10
36.54180986385778
 20
-29.93369632347251
 10
36.58602040254138
 20
-29.88476846283278
 10
36.62760292939527
 20
-29.83324001050945
 10
36.67428840748458
 20
-29.78682412163903
 10
36.78814206530958
 20
-29.67361943110333
 10
36.92466010964639
 20
-29.66545350876514
 10
37.02593927064582
 20
-29.76276462038542
 10
37.12510925476904
 20
-29.85805197540417
 10
37.12900212820917
 20
-29.98619959485944
 10
37.02493060393486
 20
-30.10396579410445
 10
36.73086558675443
 20
-30.43672874065598
 10
36.43575162064611
 20
-30.76865543746529
 10
36.1352946212893
 20
-31.09562103031279
 10
36.05524579988069
 20
-31.18273279536624
 10
36.01707114857625
 20
-31.27149450210749
 10
36.019019196585
 20
-31.39015979067111
 10
36.02450724581457
 20
-31.72444216594487
 10
36.02355980807318
 20
-32.05890339231974
 10
36.01938818169181
 20
-32.39322121555945
 10
36.01819260549458
 20
-32.48903384498291
 10
36.05144799247207
 20
-32.55043777836583
 10
36.13619210908196
 20
-32.59357795292807
 10
36.22622447512458
 20
-32.63941217290307
 10
36.31697547591723
 20
-32.68682221609126
 10
36.39829721537985
 20
-32.7460573784664
 10
36.50874944281001
 20
-32.82650975973486
 10
36.60541870690804
 20
-32.82422175465985
 10
36.72376463756084
 20
-32.75480658097179
 10
36.98921639043806
 20
-32.59910461307415
 10
37.26152739920763
 20
-32.45492645665319
 10
37.53316327802251
 20
-32.31002483947249
 10
37.62334710520124
 20
-32.26191872713472
 10
37.68106346556488
 20
-32.19915165833375
 10
37.71516477909695
 20
-32.0989757065561
 10
37.85831166504598
 20
-31.67845809775056
 10
38.00968901355014
 20
-31.26074248952611
 10
38.15806614254027
 20
-30.84200533537389
 10
38.1786841924343
 20
-30.78381911053667
 10
38.19781018901459
 20
-30.72373319697847
 10
38.24302294925486
 20
-30.67966976402999
 10
38.32059683125736
 20
-30.60408019918208
 10
38.41357141042236
 20
-30.58930000865181
 10
38.51100925921903
 20
-30.63230483643499
 10
38.61253978125195
 20
-30.67711589921042
 10
38.64952207893652
 20
-30.76459825663513
 10
38.63964487935459
 20
-30.87010268220375
 10
38.62844642305847
 20
-30.98972828839015
 10
38.57486785201429
 20
-31.09786875360833
 10
38.5360067917339
 20
-31.20976186940402
 10
38.46260936997846
 20
-31.42111069875972
 10
38.38736541140083
 20
-31.6318182421861
 10
38.29815158000515
 20
-31.88454612670499
 10
38.46396929762083
 20
-31.79652399343513
 10
38.5959789562432
 20
-31.72647075636001
 10
38.72796605682404
 20
-31.65637884877651
 10
38.79395155067125
 20
-31.62133531189167
 10
38.85733320201821
 20
-31.57972906749223
 10
38.92638658950361
 20
-31.55246635913361
 10
39.07827955038417
 20
-31.49249967964263
 10
39.22196138417333
 20
-31.5433787896807
 10
39.28996421144251
 20
-31.6735775573475
 10
39.36282668535735
 20
-31.81308302734791
 10
39.32539000426638
 20
-31.96380777857126
 10
39.18304231750069
 20
-32.05148026599527
 10
39.03339227045666
 20
-32.14365142255277
 10
38.87656876622875
 20
-32.22415053068501
 10
38.72322886811763
 20
-32.31037448531849
 10
38.69326856648167
 20
-32.32722193677223
 10
38.66491310836651
 20
-32.34692939456984
 10
38.63403759476291
 20
-32.36644349982584
 10
38.66438782825846
 20
-32.42402388669987
 10
38.71839500209042
 20
-32.41816530469082
 10
38.76173866746654
 20
-32.42875457888335
 10
39.01807213772819
 20
-32.49138468963388
 10
39.27598789346959
 20
-32.54771473007251
 10
39.53151571939305
 20
-32.61339658843723
 10
39.69629254452416
 20
-32.65575207393514
 10
39.77110790031444
 20
-32.77715652350404
 10
39.73095458651611
 20
-32.91467046232598
 10
39.69143289787861
 20
-33.05002207522527
 10
39.57512041353485
 20
-33.11290837809348
 10
39.41718512012054
 20
-33.07619073045291
 10
38.98877890960416
 20
-32.97659483629998
 10
38.56025990888042
 20
-32.87724224409526
 10
38.13358099982459
 20
-32.77060509488749
 10
38.01153555037263
 20
-32.7401021201868
 10
37.90898991647388
 20
-32.74567067338332
 10
37.79644140247653
 20
-32.81101899861402
 10
37.50746000106806
 20
-32.97880066654486
 10
37.21110050881318
 20
-33.13386779359765
 10
36.91771867803153
 20
-33.29406843062834
 10
36.90227930994085
 20
-33.30250021271124
 10
36.88586994606764
 20
-33.30979121479888
 10
36.87200641830193
 20
-33.32035954246597
 10
36.77305879201624
 20
-33.39579120273846
 10
36.7952865192975
 20
-33.87673309204999
 10
36.90452383506625
 20
-33.93729916441986
 10
37.22762749675985
 20
-34.11644673925154
 10
37.55376843760735
 20
-34.29011276952999
 10
37.87709284584958
 20
-34.46887202800736
 10
37.94655227808153
 20
-34.50727667657306
 10
38.01198671120139
 20
-34.49428660832334
 10
38.08107232446057
 20
-34.47795315237542
 10
38.52192735128556
 20
-34.37372324231041
 10
38.96253746223166
 20
-34.26844439470695
 10
39.40398866586639
 20
-34.16679574107126
 10
39.58035387915361
 20
-34.12618687353208
 10
39.69805851691292
 20
-34.19037669478459
 10
39.7341900541768
 20
-34.33681385339931
 10
39.76904867338653
 20
-34.47810622313778
 10
39.68633155793138
 20
-34.58809159385666
 10
39.50737539245375
 20
-34.63167970180681
 10
39.21301873202348
 20
-34.70336999040041
 10
38.91805944962778
 20
-34.77258053264861
 10
38.58281795034013
 20
-34.85250280569875
 97
        0
 97
        1
330
7D
 75
     2
 76
     1
 98
        1
 10
0.0
 20
0.0
450
        0
451
        0
460
0.0
461
0.0
452
        0
462
0.0
453
        0
470

  0
SPLINE
  5
7F
330
79
100
AcDbEntity
  8
Слой 1
100
AcDbSpline
210
0.0
220
0.0
230
1.0
 70
     9
 71
     3
 72
    44
 73
    40
 74
     0
 42
0.0000000001
 43
0.0000000001
 40
0.0
 40
0.0
 40
0.0
 40
0.0
 40
1.0
 40
1.0
 40
1.0
 40
2.0
 40
2.0
 40
2.0
 40
3.0
 40
3.0
 40
3.0
 40
4.0
 40
4.0
 40
4.0
 40
5.0
 40
5.0
 40
5.0
 40
6.0
 40
6.0
 40
6.0
 40
7.0
 40
7.0
 40
7.0
 40
8.0
 40
8.0
 40
8.0
 40
9.0
 40
9.0
 40
9.0
 40
10.0
 40
10.0
 40
10.0
 40
11.0
 40
11.0
 40
11.0
 40
12.0
 40
12.0
 40
12.0
 40
13.0
 40
13.0
 40
13.0
 40
13.0
 10
34.86240073682054
 20
-34.84915619545889
 30
0.0
 10
34.86240073682054
 20
-33.95604952713666
 30
0.0
 10
34.8624748560993
 20
-33.06294447008542
 30
0.0
 10
34.86227022243737
 20
-32.16983780176348
 30
0.0
 10
34.86225249826207
 20
-32.09076950243833
 30
0.0
 10
34.86266659945194
 20
-32.01212818997611
 30
0.0
 10
34.84066445258527
 20
-31.93430056945959
 30
0.0
 10
34.72934696313624
 20
-31.54052200587931
 30
0.0
 10
34.35268889972834
 20
-31.28061429698401
 30
0.0
 10
33.96292944809835
 20
-31.33071194049987
 30
0.0
 10
33.55774674126471
 20
-31.38279305883791
 30
0.0
 10
33.25378357774944
 20
-31.73301090607806
 30
0.0
 10
33.25227218897167
 20
-32.15363163623902
 30
0.0
 10
33.2506286745225
 20
-32.61117786802278
 30
0.0
 10
33.25184519747265
 20
-33.06873376743374
 30
0.0
 10
33.25183875231793
 20
-33.52628644430221
 30
0.0
 10
33.25182102814223
 20
-34.88574333013346
 30
0.0
 10
33.25143915272626
 20
-36.24520021596499
 30
0.0
 10
33.25263634021263
 20
-37.60465710179639
 30
0.0
 10
33.25271851593485
 20
-37.69749693589334
 30
0.0
 10
33.24160384664987
 20
-37.76812700805056
 30
0.0
 10
33.14500386796473
 20
-37.82121678214695
 30
0.0
 10
32.41242180382763
 20
-38.22384122450305
 30
0.0
 10
32.02980680618612
 20
-38.98986532361972
 30
0.0
 10
32.17233173470597
 20
-39.81726596450931
 30
0.0
 10
32.30239173403071
 20
-40.57230441672348
 30
0.0
 10
32.75041699546238
 20
-41.08878450317194
 30
0.0
 10
33.47527454168792
 20
-41.32159063082652
 30
0.0
 10
34.20664975060653
 20
-41.55648818847235
 30
0.0
 10
34.88059218596888
 20
-41.39007932358637
 30
0.0
 10
35.42202868579681
 20
-40.84778667284083
 30
0.0
 10
36.31538030012848
 20
-39.95302200647458
 30
0.0
 10
36.11140565538376
 20
-38.48684740787695
 30
0.0
 10
35.02219867994377
 20
-37.84842792982805
 30
0.0
 10
34.90556877173097
 20
-37.78006813876265
 30
0.0
 10
34.85832739904835
 20
-37.70572730907846
 30
0.0
 10
34.85926033519127
 20
-37.56804902059583
 30
0.0
 10
34.86539451117973
 20
-36.66178471182139
 30
0.0
 10
34.86242329486181
 20
-35.75546078601292
 30
0.0
 10
34.86240073682054
 20
-34.84915619545889
 30
0.0
  0
SPLINE
  5
80
330
79
100
AcDbEntity
  8
Слой 1
100
AcDbSpline
210
0.0
220
0.0
230
1.0
 70
     9
 71
     3
 72
    38
 73
    34
 74
     0
 42
0.0000000001
 43
0.0000000001
 40
0.0
 40
0.0
 40
0.0
 40
0.0
 40
1.0
 40
1.0
 40
1.0
 40
2.0
 40
2.0
 40
2.0
 40
3.0
 40
3.0
 40
3.0
 40
4.0
 40
4.0
 40
4.0
 40
5.0
 40
5.0
 40
5.0
 40
6.0
 40
6.0
 40
6.0
 40
7.0
 40
7.0
 40
7.0
 40
8.0
 40
8.0
 40
8.0
 40
9.0
 40
9.0
 40
9.0
 40
10.0
 40
10.0
 40
10.0
 40
11.0
 40
11.0
 40
11.0
 40
11.0
 10
35.01880208341527
 20
-34.86138090989835
 30
0.0
 10
35.01885525594182
 20
-35.74558208241084
 30
0.0
 10
35.02053583003054
 20
-36.62978970000818
 30
0.0
 10
35.01677669355
 20
-37.51397637108013
 30
0.0
 10
35.01629491823597
 20
-37.62722295466625
 30
0.0
 10
35.05001757892958
 20
-37.6947046029389
 30
0.0
 10
35.14900226485487
 20
-37.75865434478596
 30
0.0
 10
35.7189327936236
 20
-38.12686847983041
 30
0.0
 10
36.04577303375625
 20
-38.64509357296654
 30
0.0
 10
36.10877764355362
 20
-39.32910235777096
 30
0.0
 10
36.20787673097473
 20
-40.4050190203161
 30
0.0
 10
35.43874097194096
 20
-41.37699902415028
 30
0.0
 10
34.39326598244845
 20
-41.53016323994013
 30
0.0
 10
32.96895768983541
 20
-41.73883252532416
 30
0.0
 10
32.00053613610319
 20
-40.62473195836514
 30
0.0
 10
32.00429688387223
 20
-39.53397226571375
 30
0.0
 10
32.00692650699112
 20
-38.77089357031334
 30
0.0
 10
32.33164629122666
 20
-38.18798077313014
 30
0.0
 10
32.95386152623319
 20
-37.76770646627306
 30
0.0
 10
33.07715411311973
 20
-37.68443113789805
 30
0.0
 10
33.11797772300721
 20
-37.60110424884543
 30
0.0
 10
33.11765224269473
 20
-37.45907552817819
 30
0.0
 10
33.11361113069612
 20
-35.69068285077988
 30
0.0
 10
33.11432654286806
 20
-33.92227728321238
 30
0.0
 10
33.11558012545778
 20
-32.15387493818737
 30
0.0
 10
33.11591205092514
 20
-31.68444235891166
 30
0.0
 10
33.40857202438029
 20
-31.30968646287735
 30
0.0
 10
33.84544716817597
 20
-31.20977959338668
 30
0.0
 10
34.46532442331404
 20
-31.06802478881971
 30
0.0
 10
35.01489631966529
 20
-31.53272989845459
 30
0.0
 10
35.01781436345722
 20
-32.20878222617416
 30
0.0
 10
35.02162989504096
 20
-33.09296567470362
 30
0.0
 10
35.01875052217777
 20
-33.97717973738569
 30
0.0
 10
35.01880208341527
 20
-34.86138090989835
 30
0.0
  0
HATCH
  5
81
330
79
100
AcDbEntity
  8
Слой 1
 62
    18
420
        0
440
 33554687
100
AcDbHatch
 10
0.0
 20
0.0
 30
0.0
210
0.0
220
0.0
230
1.0
  2
SOLID
 70
     1
 71
     1
 91
        2
 92
        1
 93
        1
 72
     4
 94
        3
 73
     0
 74
     0
 95
       44
 96
       40
 40
0.0
 40
0.0
 40
0.0
 40
0.0
 40
1.0
 40
1.0
 40
1.0
 40
2.0
 40
2.0
 40
2.0
 40
3.0
 40
3.0
 40
3.0
 40
4.0
 40
4.0
 40
4.0
 40
5.0
 40
5.0
 40
5.0
 40
6.0
 40
6.0
 40
6.0
 40
7.0
 40
7.0
 40
7.0
 40
8.0
 40
8.0
 40
8.0
 40
9.0
 40
9.0
 40
9.0
 40
10.0
 40
10.0
 40
10.0
 40
11.0
 40
11.0
 40
11.0
 40
12.0
 40
12.0
 40
12.0
 40
13.0
 40
13.0
 40
13.0
 40
13.0
 10
34.86240073682054
 20
-34.84915619545889
 10
34.86240073682054
 20
-33.95604952713666
 10
34.8624748560993
 20
-33.06294447008542
 10
34.86227022243737
 20
-32.16983780176348
 10
34.86225249826207
 20
-32.09076950243833
 10
34.86266659945194
 20
-32.01212818997611
 10
34.84066445258527
 20
-31.93430056945959
 10
34.72934696313624
 20
-31.54052200587931
 10
34.35268889972834
 20
-31.28061429698401
 10
33.96292944809835
 20
-31.33071194049987
 10
33.55774674126471
 20
-31.38279305883791
 10
33.25378357774944
 20
-31.73301090607806
 10
33.25227218897167
 20
-32.15363163623902
 10
33.2506286745225
 20
-32.61117786802278
 10
33.25184519747265
 20
-33.06873376743374
 10
33.25183875231793
 20
-33.52628644430221
 10
33.25182102814223
 20
-34.88574333013346
 10
33.25143915272626
 20
-36.24520021596499
 10
33.25263634021263
 20
-37.60465710179639
 10
33.25271851593485
 20
-37.69749693589334
 10
33.24160384664987
 20
-37.76812700805056
 10
33.14500386796473
 20
-37.82121678214695
 10
32.41242180382763
 20
-38.22384122450305
 10
32.02980680618612
 20
-38.98986532361972
 10
32.17233173470597
 20
-39.81726596450931
 10
32.30239173403071
 20
-40.57230441672348
 10
32.75041699546238
 20
-41.08878450317194
 10
33.47527454168792
 20
-41.32159063082652
 10
34.20664975060653
 20
-41.55648818847235
 10
34.88059218596888
 20
-41.39007932358637
 10
35.42202868579681
 20
-40.84778667284083
 10
36.31538030012848
 20
-39.95302200647458
 10
36.11140565538376
 20
-38.48684740787695
 10
35.02219867994377
 20
-37.84842792982805
 10
34.90556877173097
 20
-37.78006813876265
 10
34.85832739904835
 20
-37.70572730907846
 10
34.85926033519127
 20
-37.56804902059583
 10
34.86539451117973
 20
-36.66178471182139
 10
34.86242329486181
 20
-35.75546078601292
 10
34.86240073682054
 20
-34.84915619545889
 97
        0
 97
        1
330
7F
 92
        1
 93
        1
 72
     4
 94
        3
 73
     0
 74
     0
 95
       38
 96
       34
 40
0.0
 40
0.0
 40
0.0
 40
0.0
 40
1.0
 40
1.0
 40
1.0
 40
2.0
 40
2.0
 40
2.0
 40
3.0
 40
3.0
 40
3.0
 40
4.0
 40
4.0
 40
4.0
 40
5.0
 40
5.0
 40
5.0
 40
6.0
 40
6.0
 40
6.0
 40
7.0
 40
7.0
 40
7.0
 40
8.0
 40
8.0
 40
8.0
 40
9.0
 40
9.0
 40
9.0
 40
10.0
 40
10.0
 40
10.0
 40
11.0
 40
11.0
 40
11.0
 40
11.0
 10
35.01880208341527
 20
-34.86138090989835
 10
35.01885525594182
 20
-35.74558208241084
 10
35.02053583003054
 20
-36.62978970000818
 10
35.01677669355
 20
-37.51397637108013
 10
35.01629491823597
 20
-37.62722295466625
 10
35.05001757892958
 20
-37.6947046029389
 10
35.14900226485487
 20
-37.75865434478596
 10
35.7189327936236
 20
-38.12686847983041
 10
36.04577303375625
 20
-38.64509357296654
 10
36.10877764355362
 20
-39.32910235777096
 10
36.20787673097473
 20
-40.4050190203161
 10
35.43874097194096
 20
-41.37699902415028
 10
34.39326598244845
 20
-41.53016323994013
 10
32.96895768983541
 20
-41.73883252532416
 10
32.00053613610319
 20
-40.62473195836514
 10
32.00429688387223
 20
-39.53397226571375
 10
32.00692650699112
 20
-38.77089357031334
 10
32.33164629122666
 20
-38.18798077313014
 10
32.95386152623319
 20
-37.76770646627306
 10
33.07715411311973
 20
-37.68443113789805
 10
33.11797772300721
 20
-37.60110424884543
 10
33.11765224269473
 20
-37.45907552817819
 10
33.11361113069612
 20
-35.69068285077988
 10
33.11432654286806
 20
-33.92227728321238
 10
33.11558012545778
 20
-32.15387493818737
 10
33.11591205092514
 20
-31.68444235891166
 10
33.40857202438029
 20
-31.30968646287735
 10
33.84544716817597
 20
-31.20977959338668
 10
34.46532442331404
 20
-31.06802478881971
 10
35.01489631966529
 20
-31.53272989845459
 10
35.01781436345722
 20
-32.20878222617416
 10
35.02162989504096
 20
-33.09296567470362
 10
35.01875052217777
 20
-33.97717973738569
 10
35.01880208341527
 20
-34.86138090989835
 97
        0
 97
        1
330
80
 75
     2
 76
     1
 98
        1
 10
0.0
 20
0.0
450
        0
451
        0
460
0.0
461
0.0
452
        0
462
0.0
453
        0
470

  0
SPLINE
  5
82
330
79
100
AcDbEntity
  8
Слой 1
100
AcDbSpline
210
0.0
220
0.0
230
1.0
 70
     9
 71
     3
 72
    26
 73
    22
 74
     0
 42
0.0000000001
 43
0.0000000001
 40
0.0
 40
0.0
 40
0.0
 40
0.0
 40
1.0
 40
1.0
 40
1.0
 40
2.0
 40
2.0
 40
2.0
 40
3.0
 40
3.0
 40
3.0
 40
4.0
 40
4.0
 40
4.0
 40
5.0
 40
5.0
 40
5.0
 40
6.0
 40
6.0
 40
6.0
 40
7.0
 40
7.0
 40
7.0
 40
7.0
 10
32.0592128245175
 20
-32.57317764852334
 30
0.0
 10
31.87038751590126
 20
-32.57325176699765
 30
0.0
 10
31.68142363645931
 20
-32.56886427557568
 30
0.0
 10
31.49278845990693
 20
-32.57485498182139
 30
0.0
 10
31.37503709477571
 20
-32.57859635350026
 30
0.0
 10
31.36868861739347
 20
-32.510523368705
 30
0.0
 10
31.36935246832791
 20
-32.42298945060237
 30
0.0
 10
31.37000020637571
 20
-32.33757274283
 30
0.0
 10
31.37132790824416
 20
-32.26639644974264
 30
0.0
 10
31.49016205936555
 20
-32.26754045228042
 30
0.0
 10
31.87216798988806
 20
-32.27122059565444
 30
0.0
 10
32.25424481711236
 20
-32.27082100040194
 30
0.0
 10
32.63626363794416
 20
-32.26784014871987
 30
0.0
 10
32.75720052078709
 20
-32.26689594380847
 30
0.0
 10
32.75335437471833
 20
-32.34416445322583
 30
0.0
 10
32.75369435662861
 20
-32.42686616906055
 30
0.0
 10
32.75402467080736
 20
-32.50725571075277
 30
0.0
 10
32.75043149706057
 20
-32.57660482232238
 30
0.0
 10
32.63883847724792
 20
-32.57423786495959
 30
0.0
 10
32.44570941657889
 20
-32.57014362489222
 30
0.0
 10
32.25242889477459
 20
-32.57310191877819
 30
0.0
 10
32.0592128245175
 20
-32.57317764852334
 30
0.0
  0
HATCH
  5
83
330
79
100
AcDbEntity
  8
Слой 1
 62
    18
420
        0
440
 33554687
100
AcDbHatch
 10
0.0
 20
0.0
 30
0.0
210
0.0
220
0.0
230
1.0
  2
SOLID
 70
     1
 71
     1
 91
        1
 92
        1
 93
        1
 72
     4
 94
        3
 73
     0
 74
     0
 95
       26
 96
       22
 40
0.0
 40
0.0
 40
0.0
 40
0.0
 40
1.0
 40
1.0
 40
1.0
 40
2.0
 40
2.0
 40
2.0
 40
3.0
 40
3.0
 40
3.0
 40
4.0
 40
4.0
 40
4.0
 40
5.0
 40
5.0
 40
5.0
 40
6.0
 40
6.0
 40
6.0
 40
7.0
 40
7.0
 40
7.0
 40
7.0
 10
32.0592128245175
 20
-32.57317764852334
 10
31.87038751590126
 20
-32.57325176699765
 10
31.68142363645931
 20
-32.56886427557568
 10
31.49278845990693
 20
-32.57485498182139
 10
31.37503709477571
 20
-32.57859635350026
 10
31.36868861739347
 20
-32.510523368705
 10
31.36935246832791
 20
-32.42298945060237
 10
31.37000020637571
 20
-32.33757274283
 10
31.37132790824416
 20
-32.26639644974264
 10
31.49016205936555
 20
-32.26754045228042
 10
31.87216798988806
 20
-32.27122059565444
 10
32.25424481711236
 20
-32.27082100040194
 10
32.63626363794416
 20
-32.26784014871987
 10
32.75720052078709
 20
-32.26689594380847
 10
32.75335437471833
 20
-32.34416445322583
 10
32.75369435662861
 20
-32.42686616906055
 10
32.75402467080736
 20
-32.50725571075277
 10
32.75043149706057
 20
-32.57660482232238
 10
32.63883847724792
 20
-32.57423786495959
 10
32.44570941657889
 20
-32.57014362489222
 10
32.25242889477459
 20
-32.57310191877819
 10
32.0592128245175
 20
-32.57317764852334
 97
        0
 97
        1
330
82
 75
     2
 76
     1
 98
        1
 10
0.0
 20
0.0
450
        0
451
        0
460
0.0
461
0.0
452
        0
462
0.0
453
        0
470

  0
SPLINE
  5
84
330
79
100
AcDbEntity
  8
Слой 1
100
AcDbSpline
210
0.0
220
0.0
230
1.0
 70
     9
 71
     3
 72
    26
 73
    22
 74
     0
 42
0.0000000001
 43
0.0000000001
 40
0.0
 40
0.0
 40
0.0
 40
0.0
 40
1.0
 40
1.0
 40
1.0
 40
2.0
 40
2.0
 40
2.0
 40
3.0
 40
3.0
 40
3.0
 40
4.0
 40
4.0
 40
4.0
 40
5.0
 40
5.0
 40
5.0
 40
6.0
 40
6.0
 40
6.0
 40
7.0
 40
7.0
 40
7.0
 40
7.0
 10
32.07542399988347
 20
-33.8245134043907
 30
0.0
 10
32.25985854685834
 20
-33.82450695930568
 30
0.0
 10
32.44442844208182
 20
-33.82877843920306
 30
0.0
 10
32.6286776908589
 20
-33.82295047134653
 30
0.0
 10
32.74468080777708
 20
-33.81928160687054
 30
0.0
 10
32.75531692432514
 20
-33.88526799548819
 30
0.0
 10
32.7541632416332
 20
-33.97400392189098
 30
0.0
 10
32.75305789760179
 20
-34.05892596941112
 30
0.0
 10
32.75217652269612
 20
-34.13135099766249
 30
0.0
 10
32.63322474750195
 20
-34.13025533326042
 30
0.0
 10
32.25121559440196
 20
-34.12673309446179
 30
0.0
 10
31.86913715588902
 20
-34.12685555107153
 30
0.0
 10
31.48712316892319
 20
-34.13004425673582
 30
0.0
 10
31.36611538937862
 20
-34.13105452376557
 30
0.0
 10
31.37168561433029
 20
-34.05475761086945
 30
0.0
 10
31.36935730219402
 20
-33.97182387198457
 30
0.0
 10
31.366813077375
 20
-33.88109158059084
 30
0.0
 10
31.38122927715639
 20
-33.81927032797221
 30
0.0
 10
31.49582412777181
 20
-33.82286346270277
 30
0.0
 10
31.68885328854278
 20
-33.82891378598207
 30
0.0
 10
31.88220631833764
 20
-33.82451823820429
 30
0.0
 10
32.07542399988347
 20
-33.8245134043907
 30
0.0
  0
HATCH
  5
85
330
79
100
AcDbEntity
  8
Слой 1
 62
    18
420
        0
440
 33554687
100
AcDbHatch
 10
0.0
 20
0.0
 30
0.0
210
0.0
220
0.0
230
1.0
  2
SOLID
 70
     1
 71
     1
 91
        1
 92
        1
 93
        1
 72
     4
 94
        3
 73
     0
 74
     0
 95
       26
 96
       22
 40
0.0
 40
0.0
 40
0.0
 40
0.0
 40
1.0
 40
1.0
 40
1.0
 40
2.0
 40
2.0
 40
2.0
 40
3.0
 40
3.0
 40
3.0
 40
4.0
 40
4.0
 40
4.0
 40
5.0
 40
5.0
 40
5.0
 40
6.0
 40
6.0
 40
6.0
 40
7.0
 40
7.0
 40
7.0
 40
7.0
 10
32.07542399988347
 20
-33.8245134043907
 10
32.25985854685834
 20
-33.82450695930568
 10
32.44442844208182
 20
-33.82877843920306
 10
32.6286776908589
 20
-33.82295047134653
 10
32.74468080777708
 20
-33.81928160687054
 10
32.75531692432514
 20
-33.88526799548819
 10
32.7541632416332
 20
-33.97400392189098
 10
32.75305789760179
 20
-34.05892596941112
 10
32.75217652269612
 20
-34.13135099766249
 10
32.63322474750195
 20
-34.13025533326042
 10
32.25121559440196
 20
-34.12673309446179
 10
31.86913715588902
 20
-34.12685555107153
 10
31.48712316892319
 20
-34.13004425673582
 10
31.36611538937862
 20
-34.13105452376557
 10
31.37168561433029
 20
-34.05475761086945
 10
31.36935730219402
 20
-33.97182387198457
 10
31.366813077375
 20
-33.88109158059084
 10
31.38122927715639
 20
-33.81927032797221
 10
31.49582412777181
 20
-33.82286346270277
 10
31.68885328854278
 20
-33.82891378598207
 10
31.88220631833764
 20
-33.82451823820429
 10
32.07542399988347
 20
-33.8245134043907
 97
        0
 97
        1
330
84
 75
     2
 76
     1
 98
        1
 10
0.0
 20
0.0
450
        0
451
        0
460
0.0
461
0.0
452
        0
462
0.0
453
        0
470

  0
SPLINE
  5
86
330
79
100
AcDbEntity
  8
Слой 1
100
AcDbSpline
210
0.0
220
0.0
230
1.0
 70
     9
 71
     3
 72
    29
 73
    25
 74
     0
 42
0.0000000001
 43
0.0000000001
 40
0.0
 40
0.0
 40
0.0
 40
0.0
 40
1.0
 40
1.0
 40
1.0
 40
2.0
 40
2.0
 40
2.0
 40
3.0
 40
3.0
 40
3.0
 40
4.0
 40
4.0
 40
4.0
 40
5.0
 40
5.0
 40
5.0
 40
6.0
 40
6.0
 40
6.0
 40
7.0
 40
7.0
 40
7.0
 40
8.0
 40
8.0
 40
8.0
 40
8.0
 10
32.06395484708987
 20
-35.67895440786361
 30
0.0
 10
31.87550658002417
 20
-35.67895440786361
 30
0.0
 10
31.68701158558666
 20
-35.67648594041652
 30
0.0
 10
31.49862615877904
 20
-35.6799421170968
 30
0.0
 10
31.39600801688999
 20
-35.6818224705632
 30
0.0
 10
31.37388180079526
 20
-35.62759513901402
 30
0.0
 10
31.37489207879485
 20
-35.53909445820373
 30
0.0
 10
31.37589430035112
 20
-35.45126245493334
 30
0.0
 10
31.38393140826555
 20
-35.38420457098098
 30
0.0
 10
31.49912565826819
 20
-35.38520194784112
 30
0.0
 10
31.87599641178152
 20
-35.38845832689501
 30
0.0
 10
32.25291872653209
 20
-35.38772680977945
 30
0.0
 10
32.62980559293182
 20
-35.38564182487319
 30
0.0
 10
32.72474594428124
 20
-35.38511816173973
 30
0.0
 10
32.74986110086916
 20
-35.43407985907404
 30
0.0
 10
32.74885726802429
 20
-35.51762749227805
 30
0.0
 10
32.74783732229263
 20
-35.60237391124026
 30
0.0
 10
32.7447227012825
 20
-35.6794103976075
 30
0.0
 10
32.62928998055556
 20
-35.67869177066139
 30
0.0
 10
32.44085138122166
 20
-35.6775171539714
 30
0.0
 10
32.25240150286722
 20
-35.67837435023888
 30
0.0
 10
32.06395484708987
 20
-35.67837435023888
 30
0.0
 10
32.06395484708987
 20
-35.67856770278055
 30
0.0
 10
32.06395484708987
 20
-35.67876105532208
 30
0.0
 10
32.06395484708987
 20
-35.67895440786361
 30
0.0
  0
HATCH
  5
87
330
79
100
AcDbEntity
  8
Слой 1
 62
    18
420
        0
440
 33554687
100
AcDbHatch
 10
0.0
 20
0.0
 30
0.0
210
0.0
220
0.0
230
1.0
  2
SOLID
 70
     1
 71
     1
 91
        1
 92
        1
 93
        1
 72
     4
 94
        3
 73
     0
 74
     0
 95
       29
 96
       25
 40
0.0
 40
0.0
 40
0.0
 40
0.0
 40
1.0
 40
1.0
 40
1.0
 40
2.0
 40
2.0
 40
2.0
 40
3.0
 40
3.0
 40
3.0
 40
4.0
 40
4.0
 40
4.0
 40
5.0
 40
5.0
 40
5.0
 40
6.0
 40
6.0
 40
6.0
 40
7.0
 40
7.0
 40
7.0
 40
8.0
 40
8.0
 40
8.0
 40
8.0
 10
32.06395484708987
 20
-35.67895440786361
 10
31.87550658002417
 20
-35.67895440786361
 10
31.68701158558666
 20
-35.67648594041652
 10
31.49862615877904
 20
-35.6799421170968
 10
31.39600801688999
 20
-35.6818224705632
 10
31.37388180079526
 20
-35.62759513901402
 10
31.37489207879485
 20
-35.53909445820373
 10
31.37589430035112
 20
-35.45126245493334
 10
31.38393140826555
 20
-35.38420457098098
 10
31.49912565826819
 20
-35.38520194784112
 10
31.87599641178152
 20
-35.38845832689501
 10
32.25291872653209
 20
-35.38772680977945
 10
32.62980559293182
 20
-35.38564182487319
 10
32.72474594428124
 20
-35.38511816173973
 10
32.74986110086916
 20
-35.43407985907404
 10
32.74885726802429
 20
-35.51762749227805
 10
32.74783732229263
 20
-35.60237391124026
 10
32.7447227012825
 20
-35.6794103976075
 10
32.62928998055556
 20
-35.67869177066139
 10
32.44085138122166
 20
-35.6775171539714
 10
32.25240150286722
 20
-35.67837435023888
 10
32.06395484708987
 20
-35.67837435023888
 10
32.06395484708987
 20
-35.67856770278055
 10
32.06395484708987
 20
-35.67876105532208
 10
32.06395484708987
 20
-35.67895440786361
 97
        0
 97
        1
330
86
 75
     2
 76
     1
 98
        1
 10
0.0
 20
0.0
450
        0
451
        0
460
0.0
461
0.0
452
        0
462
0.0
453
        0
470

  0
SPLINE
  5
88
330
79
100
AcDbEntity
  8
Слой 1
100
AcDbSpline
210
0.0
220
0.0
230
1.0
 70
     9
 71
     3
 72
    26
 73
    22
 74
     0
 42
0.0000000001
 43
0.0000000001
 40
0.0
 40
0.0
 40
0.0
 40
0.0
 40
1.0
 40
1.0
 40
1.0
 40
2.0
 40
2.0
 40
2.0
 40
3.0
 40
3.0
 40
3.0
 40
4.0
 40
4.0
 40
4.0
 40
5.0
 40
5.0
 40
5.0
 40
6.0
 40
6.0
 40
6.0
 40
7.0
 40
7.0
 40
7.0
 40
7.0
 10
32.05710525892957
 20
-37.21531436777361
 30
0.0
 10
31.87297685680333
 20
-37.21532403540027
 30
0.0
 10
31.6887952821507
 20
-37.21265577032707
 30
0.0
 10
31.50474422188083
 20
-37.21640036454834
 30
0.0
 10
31.40668924952125
 20
-37.21839672953986
 30
0.0
 10
31.37436035353221
 20
-37.17444930811623
 30
0.0
 10
31.37477606601028
 20
-37.08121954639445
 30
0.0
 10
31.3751772768904
 20
-36.99091263059138
 30
0.0
 10
31.40062758152332
 20
-36.94203955317236
 30
0.0
 10
31.50143141236347
 20
-36.94278073791485
 30
0.0
 10
31.8740499750614
 20
-36.94551989891998
 30
0.0
 10
32.24671526513084
 20
-36.94553923417473
 30
0.0
 10
32.61933382782834
 20
-36.94266956020361
 30
0.0
 10
32.71759182256139
 20
-36.94191387402013
 30
0.0
 10
32.7498739911786
 20
-36.98510077544723
 30
0.0
 10
32.74949694962862
 20
-37.07793255318776
 30
0.0
 10
32.74912957581056
 20
-37.16791882602554
 30
0.0
 10
32.72368249375515
 20
-37.21843378877707
 30
0.0
 10
32.62261763414987
 20
-37.21639391946362
 30
0.0
 10
32.43418386868166
 20
-37.21259293075112
 30
0.0
 10
32.24561636625387
 20
-37.21530308887514
 30
0.0
 10
32.05710525892957
 20
-37.21531436777361
 30
0.0
  0
HATCH
  5
89
330
79
100
AcDbEntity
  8
Слой 1
 62
    18
420
        0
440
 33554687
100
AcDbHatch
 10
0.0
 20
0.0
 30
0.0
210
0.0
220
0.0
230
1.0
  2
SOLID
 70
     1
 71
     1
 91
        1
 92
        1
 93
        1
 72
     4
 94
        3
 73
     0
 74
     0
 95
       26
 96
       22
 40
0.0
 40
0.0
 40
0.0
 40
0.0
 40
1.0
 40
1.0
 40
1.0
 40
2.0
 40
2.0
 40
2.0
 40
3.0
 40
3.0
 40
3.0
 40
4.0
 40
4.0
 40
4.0
 40
5.0
 40
5.0
 40
5.0
 40
6.0
 40
6.0
 40
6.0
 40
7.0
 40
7.0
 40
7.0
 40
7.0
 10
32.05710525892957
 20
-37.21531436777361
 10
31.87297685680333
 20
-37.21532403540027
 10
31.6887952821507
 20
-37.21265577032707
 10
31.50474422188083
 20
-37.21640036454834
 10
31.40668924952125
 20
-37.21839672953986
 10
31.37436035353221
 20
-37.17444930811623
 10
31.37477606601028
 20
-37.08121954639445
 10
31.3751772768904
 20
-36.99091263059138
 10
31.40062758152332
 20
-36.94203955317236
 10
31.50143141236347
 20
-36.94278073791485
 10
31.8740499750614
 20
-36.94551989891998
 10
32.24671526513084
 20
-36.94553923417473
 10
32.61933382782834
 20
-36.94266956020361
 10
32.71759182256139
 20
-36.94191387402013
 10
32.7498739911786
 20
-36.98510077544723
 10
32.74949694962862
 20
-37.07793255318776
 10
32.74912957581056
 20
-37.16791882602554
 10
32.72368249375515
 20
-37.21843378877707
 10
32.62261763414987
 20
-37.21639391946362
 10
32.43418386868166
 20
-37.21259293075112
 10
32.24561636625387
 20
-37.21530308887514
 10
32.05710525892957
 20
-37.21531436777361
 97
        0
 97
        1
330
88
 75
     2
 76
     1
 98
        1
 10
0.0
 20
0.0
450
        0
451
        0
460
0.0
461
0.0
452
        0
462
0.0
453
        0
470

  0
SPLINE
  5
8A
330
79
100
AcDbEntity
  8
Слой 1
100
AcDbSpline
210
0.0
220
0.0
230
1.0
 70
     9
 71
     3
 72
    26
 73
    22
 74
     0
 42
0.0000000001
 43
0.0000000001
 40
0.0
 40
0.0
 40
0.0
 40
0.0
 40
1.0
 40
1.0
 40
1.0
 40
2.0
 40
2.0
 40
2.0
 40
3.0
 40
3.0
 40
3.0
 40
4.0
 40
4.0
 40
4.0
 40
5.0
 40
5.0
 40
5.0
 40
6.0
 40
6.0
 40
6.0
 40
7.0
 40
7.0
 40
7.0
 40
7.0
 10
32.3785138449364
 20
-33.36102641576778
 30
0.0
 10
32.30378711002404
 20
-33.36117465271612
 30
0.0
 10
32.22865271907626
 20
-33.35621677129653
 30
0.0
 10
32.15442548365278
 20
-33.3623089876268
 30
0.0
 10
32.03597320794792
 20
-33.37202656411071
 30
0.0
 10
32.00412447598402
 20
-33.31651988324499
 30
0.0
 10
32.00363625551528
 20
-33.20614941871418
 30
0.0
 10
32.00313353344834
 20
-33.09332659944792
 30
0.0
 10
32.02829863998555
 20
-33.03195489148862
 30
0.0
 10
32.15718239857693
 20
-33.03854337934182
 30
0.0
 10
32.3150226259593
 20
-33.0466110141379
 30
0.0
 10
32.47364432834959
 20
-33.04364466389638
 30
0.0
 10
32.63180036831237
 20
-33.03998224450515
 30
0.0
 10
32.76013306617695
 20
-33.03701106045001
 30
0.0
 10
32.75280009141375
 20
-33.12175425686943
 30
0.0
 10
32.75424863993304
 20
-33.20887568955014
 30
0.0
 10
32.75572941422583
 20
-33.29794837162904
 30
0.0
 10
32.7439847310689
 20
-33.36768418828165
 30
0.0
 10
32.62902572921277
 20
-33.36172087364611
 30
0.0
 10
32.54573177241137
 20
-33.35740105561361
 30
0.0
 10
32.46203177086388
 20
-33.36087817881902
 30
0.0
 10
32.3785138449364
 20
-33.36102641576778
 30
0.0
  0
HATCH
  5
8B
330
79
100
AcDbEntity
  8
Слой 1
 62
    18
420
        0
440
 33554687
100
AcDbHatch
 10
0.0
 20
0.0
 30
0.0
210
0.0
220
0.0
230
1.0
  2
SOLID
 70
     1
 71
     1
 91
        1
 92
        1
 93
        1
 72
     4
 94
        3
 73
     0
 74
     0
 95
       26
 96
       22
 40
0.0
 40
0.0
 40
0.0
 40
0.0
 40
1.0
 40
1.0
 40
1.0
 40
2.0
 40
2.0
 40
2.0
 40
3.0
 40
3.0
 40
3.0
 40
4.0
 40
4.0
 40
4.0
 40
5.0
 40
5.0
 40
5.0
 40
6.0
 40
6.0
 40
6.0
 40
7.0
 40
7.0
 40
7.0
 40
7.0
 10
32.3785138449364
 20
-33.36102641576778
 10
32.30378711002404
 20
-33.36117465271612
 10
32.22865271907626
 20
-33.35621677129653
 10
32.15442548365278
 20
-33.3623089876268
 10
32.03597320794792
 20
-33.37202656411071
 10
32.00412447598402
 20
-33.31651988324499
 10
32.00363625551528
 20
-33.20614941871418
 10
32.00313353344834
 20
-33.09332659944792
 10
32.02829863998555
 20
-33.03195489148862
 10
32.15718239857693
 20
-33.03854337934182
 10
32.3150226259593
 20
-33.0466110141379
 10
32.47364432834959
 20
-33.04364466389638
 10
32.63180036831237
 20
-33.03998224450515
 10
32.76013306617695
 20
-33.03701106045001
 10
32.75280009141375
 20
-33.12175425686943
 10
32.75424863993304
 20
-33.20887568955014
 10
32.75572941422583
 20
-33.29794837162904
 10
32.7439847310689
 20
-33.36768418828165
 10
32.62902572921277
 20
-33.36172087364611
 10
32.54573177241137
 20
-33.35740105561361
 10
32.46203177086388
 20
-33.36087817881902
 10
32.3785138449364
 20
-33.36102641576778
 97
        0
 97
        1
330
8A
 75
     2
 76
     1
 98
        1
 10
0.0
 20
0.0
450
        0
451
        0
460
0.0
461
0.0
452
        0
462
0.0
453
        0
470

  0
SPLINE
  5
8C
330
79
100
AcDbEntity
  8
Слой 1
100
AcDbSpline
210
0.0
220
0.0
230
1.0
 70
     9
 71
     3
 72
    26
 73
    22
 74
     0
 42
0.0000000001
 43
0.0000000001
 40
0.0
 40
0.0
 40
0.0
 40
0.0
 40
1.0
 40
1.0
 40
1.0
 40
2.0
 40
2.0
 40
2.0
 40
3.0
 40
3.0
 40
3.0
 40
4.0
 40
4.0
 40
4.0
 40
5.0
 40
5.0
 40
5.0
 40
6.0
 40
6.0
 40
6.0
 40
7.0
 40
7.0
 40
7.0
 40
7.0
 10
32.38943193700306
 20
-34.59422731450862
 30
0.0
 10
32.45536909219001
 20
-34.59411452552583
 30
0.0
 10
32.52131108124265
 20
-34.59356185951153
 30
0.0
 10
32.58724179127471
 20
-34.59422409196625
 30
0.0
 10
32.74455673854904
 20
-34.59580474899349
 30
0.0
 10
32.75241499342029
 20
-34.60868686207404
 30
0.0
 10
32.75488993282612
 20
-34.77056644367401
 30
0.0
 10
32.75638359742862
 20
-34.8681482488525
 30
0.0
 10
32.7273626770907
 20
-34.91883239507792
 30
0.0
 10
32.62089194397777
 20
-34.91591599424265
 30
0.0
 10
32.45836931170389
 20
-34.91146244070235
 30
0.0
 10
32.29553247813818
 20
-34.91109023705972
 30
0.0
 10
32.13302757003958
 20
-34.91579837144668
 30
0.0
 10
32.00841211515014
 20
-34.91940923015985
 30
0.0
 10
32.00608541430236
 20
-34.84277717285876
 30
0.0
 10
32.00501551862165
 20
-34.75153088595848
 30
0.0
 10
32.00389406170348
 20
-34.65565058314569
 30
0.0
 10
32.01832637437153
 20
-34.58551033742681
 30
0.0
 10
32.13893777690237
 20
-34.59330405612263
 30
0.0
 10
32.22211088705277
 20
-34.59868086804888
 30
0.0
 10
32.30591239978723
 20
-34.59433849221985
 30
0.0
 10
32.38943193700306
 20
-34.59422731450862
 30
0.0
  0
HATCH
  5
8D
330
79
100
AcDbEntity
  8
Слой 1
 62
    18
420
        0
440
 33554687
100
AcDbHatch
 10
0.0
 20
0.0
 30
0.0
210
0.0
220
0.0
230
1.0
  2
SOLID
 70
     1
 71
     1
 91
        1
 92
        1
 93
        1
 72
     4
 94
        3
 73
     0
 74
     0
 95
       26
 96
       22
 40
0.0
 40
0.0
 40
0.0
 40
0.0
 40
1.0
 40
1.0
 40
1.0
 40
2.0
 40
2.0
 40
2.0
 40
3.0
 40
3.0
 40
3.0
 40
4.0
 40
4.0
 40
4.0
 40
5.0
 40
5.0
 40
5.0
 40
6.0
 40
6.0
 40
6.0
 40
7.0
 40
7.0
 40
7.0
 40
7.0
 10
32.38943193700306
 20
-34.59422731450862
 10
32.45536909219001
 20
-34.59411452552583
 10
32.52131108124265
 20
-34.59356185951153
 10
32.58724179127471
 20
-34.59422409196625
 10
32.74455673854904
 20
-34.59580474899349
 10
32.75241499342029
 20
-34.60868686207404
 10
32.75488993282612
 20
-34.77056644367401
 10
32.75638359742862
 20
-34.8681482488525
 10
32.7273626770907
 20
-34.91883239507792
 10
32.62089194397777
 20
-34.91591599424265
 10
32.45836931170389
 20
-34.91146244070235
 10
32.29553247813818
 20
-34.91109023705972
 10
32.13302757003958
 20
-34.91579837144668
 10
32.00841211515014
 20
-34.91940923015985
 10
32.00608541430236
 20
-34.84277717285876
 10
32.00501551862165
 20
-34.75153088595848
 10
32.00389406170348
 20
-34.65565058314569
 10
32.01832637437153
 20
-34.58551033742681
 10
32.13893777690237
 20
-34.59330405612263
 10
32.22211088705277
 20
-34.59868086804888
 10
32.30591239978723
 20
-34.59433849221985
 10
32.38943193700306
 20
-34.59422731450862
 97
        0
 97
        1
330
8C
 75
     2
 76
     1
 98
        1
 10
0.0
 20
0.0
450
        0
451
        0
460
0.0
461
0.0
452
        0
462
0.0
453
        0
470

  0
SPLINE
  5
8E
330
79
100
AcDbEntity
  8
Слой 1
100
AcDbSpline
210
0.0
220
0.0
230
1.0
 70
     9
 71
     3
 72
    26
 73
    22
 74
     0
 42
0.0000000001
 43
0.0000000001
 40
0.0
 40
0.0
 40
0.0
 40
0.0
 40
1.0
 40
1.0
 40
1.0
 40
2.0
 40
2.0
 40
2.0
 40
3.0
 40
3.0
 40
3.0
 40
4.0
 40
4.0
 40
4.0
 40
5.0
 40
5.0
 40
5.0
 40
6.0
 40
6.0
 40
6.0
 40
7.0
 40
7.0
 40
7.0
 40
7.0
 10
32.37718614306765
 20
-36.15536379134667
 30
0.0
 10
32.4603383064657
 20
-36.15528322778778
 30
0.0
 10
32.54364515357651
 20
-36.15850093633362
 30
0.0
 10
32.6266055736218
 20
-36.1545098176218
 30
0.0
 10
32.74283427095457
 20
-36.14891709535721
 30
0.0
 10
32.74866069080584
 20
-36.2220478603857
 30
0.0
 10
32.74931648529693
 20
-36.3087874217964
 30
0.0
 10
32.74997711365404
 20
-36.39629072574639
 30
0.0
 10
32.72902552700402
 20
-36.45165078093515
 30
0.0
 10
32.62552439892069
 20
-36.44898412713236
 30
0.0
 10
32.45932802846598
 20
-36.44470297960846
 30
0.0
 10
32.29289640986472
 20
-36.44520569621651
 30
0.0
 10
32.12665975719334
 20
-36.44851202467695
 30
0.0
 10
32.01725808997958
 20
-36.45068562949819
 30
0.0
 10
32.01140911208695
 20
-36.38213087462029
 30
0.0
 10
32.01082260300902
 20
-36.30106459903264
 30
0.0
 10
32.01022642619889
 20
-36.21855140192598
 30
0.0
 10
32.01969919232334
 20
-36.15069271619723
 30
0.0
 10
32.1277570447814
 20
-36.15481434787444
 30
0.0
 10
32.21078675023985
 20
-36.15798371828487
 30
0.0
 10
32.29403559095847
 20
-36.15544435490597
 30
0.0
 10
32.37718614306765
 20
-36.15536379134667
 30
0.0
  0
HATCH
  5
8F
330
79
100
AcDbEntity
  8
Слой 1
 62
    18
420
        0
440
 33554687
100
AcDbHatch
 10
0.0
 20
0.0
 30
0.0
210
0.0
220
0.0
230
1.0
  2
SOLID
 70
     1
 71
     1
 91
        1
 92
        1
 93
        1
 72
     4
 94
        3
 73
     0
 74
     0
 95
       26
 96
       22
 40
0.0
 40
0.0
 40
0.0
 40
0.0
 40
1.0
 40
1.0
 40
1.0
 40
2.0
 40
2.0
 40
2.0
 40
3.0
 40
3.0
 40
3.0
 40
4.0
 40
4.0
 40
4.0
 40
5.0
 40
5.0
 40
5.0
 40
6.0
 40
6.0
 40
6.0
 40
7.0
 40
7.0
 40
7.0
 40
7.0
 10
32.37718614306765
 20
-36.15536379134667
 10
32.4603383064657
 20
-36.15528322778778
 10
32.54364515357651
 20
-36.15850093633362
 10
32.6266055736218
 20
-36.1545098176218
 10
32.74283427095457
 20
-36.14891709535721
 10
32.74866069080584
 20
-36.2220478603857
 10
32.74931648529693
 20
-36.3087874217964
 10
32.74997711365404
 20
-36.39629072574639
 10
32.72902552700402
 20
-36.45165078093515
 10
32.62552439892069
 20
-36.44898412713236
 10
32.45932802846598
 20
-36.44470297960846
 10
32.29289640986472
 20
-36.44520569621651
 10
32.12665975719334
 20
-36.44851202467695
 10
32.01725808997958
 20
-36.45068562949819
 10
32.01140911208695
 20
-36.38213087462029
 10
32.01082260300902
 20
-36.30106459903264
 10
32.01022642619889
 20
-36.21855140192598
 10
32.01969919232334
 20
-36.15069271619723
 10
32.1277570447814
 20
-36.15481434787444
 10
32.21078675023985
 20
-36.15798371828487
 10
32.29403559095847
 20
-36.15544435490597
 10
32.37718614306765
 20
-36.15536379134667
 97
        0
 97
        1
330
8E
 75
     2
 76
     1
 98
        1
 10
0.0
 20
0.0
450
        0
451
        0
460
0.0
461
0.0
452
        0
462
0.0
453
        0
470

  0
SPLINE
  5
90
330
79
100
AcDbEntity
  8
Слой 1
100
AcDbSpline
210
0.0
220
0.0
230
1.0
 70
     9
 71
     3
 72
    17
 73
    13
 74
     0
 42
0.0000000001
 43
0.0000000001
 40
0.0
 40
0.0
 40
0.0
 40
0.0
 40
1.0
 40
1.0
 40
1.0
 40
2.0
 40
2.0
 40
2.0
 40
3.0
 40
3.0
 40
3.0
 40
4.0
 40
4.0
 40
4.0
 40
4.0
 10
33.19845031333721
 20
-38.81432055114571
 30
0.0
 10
33.39231251035375
 20
-38.76028334959541
 30
0.0
 10
33.56615283428568
 20
-38.6511632315004
 30
0.0
 10
33.67070613387432
 20
-38.4531347809861
 30
0.0
 10
33.71818275470375
 20
-38.36321134772445
 30
0.0
 10
33.67251561105695
 20
-38.32234145425415
 30
0.0
 10
33.58002764107209
 20
-38.32141819586806
 30
0.0
 10
33.43072240980486
 20
-38.31992615875583
 30
0.0
 10
33.13140459154167
 20
-38.52929795837429
 30
0.0
 10
33.0812709556861
 20
-38.67000865921682
 30
0.0
 10
33.04776743025251
 20
-38.76404889034251
 30
0.0
 10
33.08649636486153
 20
-38.82089776010096
 30
0.0
 10
33.19845031333721
 20
-38.81432055114571
 30
0.0
  0
SPLINE
  5
91
330
79
100
AcDbEntity
  8
Слой 1
100
AcDbSpline
210
0.0
220
0.0
230
1.0
 70
     9
 71
     3
 72
    41
 73
    37
 74
     0
 42
0.0000000001
 43
0.0000000001
 40
0.0
 40
0.0
 40
0.0
 40
0.0
 40
1.0
 40
1.0
 40
1.0
 40
2.0
 40
2.0
 40
2.0
 40
3.0
 40
3.0
 40
3.0
 40
4.0
 40
4.0
 40
4.0
 40
5.0
 40
5.0
 40
5.0
 40
6.0
 40
6.0
 40
6.0
 40
7.0
 40
7.0
 40
7.0
 40
8.0
 40
8.0
 40
8.0
 40
9.0
 40
9.0
 40
9.0
 40
10.0
 40
10.0
 40
10.0
 40
11.0
 40
11.0
 40
11.0
 40
12.0
 40
12.0
 40
12.0
 40
12.0
 10
33.74935796800097
 20
-37.12106789393667
 30
0.0
 10
33.74945625661027
 20
-36.85714328599084
 30
0.0
 10
33.74813177731887
 20
-36.59321062168902
 30
0.0
 10
33.74991064001693
 20
-36.32929890391279
 30
0.0
 10
33.75114005327638
 20
-36.1469916262975
 30
0.0
 10
33.85637492797459
 20
-36.02588526189735
 30
0.0
 10
34.02844444565193
 20
-36.00224630242153
 30
0.0
 10
34.17920144801625
 20
-35.98153502267916
 30
0.0
 10
34.32703235014515
 20
-36.08664629807971
 30
0.0
 10
34.36834095792402
 20
-36.25152767788737
 30
0.0
 10
34.38306169126529
 20
-36.31029234907805
 30
0.0
 10
34.38560269350695
 20
-36.37326404931875
 30
0.0
 10
34.38577187881765
 20
-36.43433767211
 30
0.0
 10
34.38712697259403
 20
-36.92259312130583
 30
0.0
 10
34.38921520271762
 20
-37.41087918465402
 30
0.0
 10
34.38459886066166
 20
-37.89909435207028
 30
0.0
 10
34.38355796817736
 20
-38.00925696261874
 30
0.0
 10
34.41573218045348
 20
-38.07687234639903
 30
0.0
 10
34.51866935750041
 20
-38.12669285127196
 30
0.0
 10
34.83502171964291
 20
-38.27979906129929
 30
0.0
 10
35.1168941154143
 20
-38.47172885039875
 30
0.0
 10
35.30158324599971
 20
-38.7884016429507
 30
0.0
 10
35.64114622151556
 20
-39.37062481606901
 30
0.0
 10
35.51374807108333
 20
-40.16478170998125
 30
0.0
 10
35.00056229560652
 20
-40.58815932513081
 30
0.0
 10
34.42709337690571
 20
-41.06126721396736
 30
0.0
 10
33.64929210737417
 20
-41.05261791027528
 30
0.0
 10
33.11576058978959
 20
-40.58164978956528
 30
0.0
 10
32.33730835963304
 20
-39.89447807943543
 30
0.0
 10
32.53614943865735
 20
-38.65272938708694
 30
0.0
 10
33.42151711760069
 20
-38.21948756977569
 30
0.0
 10
33.75189091379904
 20
-38.05782712105626
 30
0.0
 10
33.74918878269015
 20
-38.05227629184249
 30
0.0
 10
33.74925484552568
 20
-37.68850282016875
 30
0.0
 10
33.74928868258777
 20
-37.4993573076675
 30
0.0
 10
33.7492612906804
 20
-37.31021340643765
 30
0.0
 10
33.74935796800097
 20
-37.12106789393667
 30
0.0
  0
HATCH
  5
92
330
79
100
AcDbEntity
  8
Слой 1
 62
    18
420
        0
440
 33554687
100
AcDbHatch
 10
0.0
 20
0.0
 30
0.0
210
0.0
220
0.0
230
1.0
  2
SOLID
 70
     1
 71
     1
 91
        2
 92
        1
 93
        1
 72
     4
 94
        3
 73
     0
 74
     0
 95
       17
 96
       13
 40
0.0
 40
0.0
 40
0.0
 40
0.0
 40
1.0
 40
1.0
 40
1.0
 40
2.0
 40
2.0
 40
2.0
 40
3.0
 40
3.0
 40
3.0
 40
4.0
 40
4.0
 40
4.0
 40
4.0
 10
33.19845031333721
 20
-38.81432055114571
 10
33.39231251035375
 20
-38.76028334959541
 10
33.56615283428568
 20
-38.6511632315004
 10
33.67070613387432
 20
-38.4531347809861
 10
33.71818275470375
 20
-38.36321134772445
 10
33.67251561105695
 20
-38.32234145425415
 10
33.58002764107209
 20
-38.32141819586806
 10
33.43072240980486
 20
-38.31992615875583
 10
33.13140459154167
 20
-38.52929795837429
 10
33.0812709556861
 20
-38.67000865921682
 10
33.04776743025251
 20
-38.76404889034251
 10
33.08649636486153
 20
-38.82089776010096
 10
33.19845031333721
 20
-38.81432055114571
 97
        0
 97
        1
330
90
 92
        1
 93
        1
 72
     4
 94
        3
 73
     0
 74
     0
 95
       41
 96
       37
 40
0.0
 40
0.0
 40
0.0
 40
0.0
 40
1.0
 40
1.0
 40
1.0
 40
2.0
 40
2.0
 40
2.0
 40
3.0
 40
3.0
 40
3.0
 40
4.0
 40
4.0
 40
4.0
 40
5.0
 40
5.0
 40
5.0
 40
6.0
 40
6.0
 40
6.0
 40
7.0
 40
7.0
 40
7.0
 40
8.0
 40
8.0
 40
8.0
 40
9.0
 40
9.0
 40
9.0
 40
10.0
 40
10.0
 40
10.0
 40
11.0
 40
11.0
 40
11.0
 40
12.0
 40
12.0
 40
12.0
 40
12.0
 10
33.74935796800097
 20
-37.12106789393667
 10
33.74945625661027
 20
-36.85714328599084
 10
33.74813177731887
 20
-36.59321062168902
 10
33.74991064001693
 20
-36.32929890391279
 10
33.75114005327638
 20
-36.1469916262975
 10
33.85637492797459
 20
-36.02588526189735
 10
34.02844444565193
 20
-36.00224630242153
 10
34.17920144801625
 20
-35.98153502267916
 10
34.32703235014515
 20
-36.08664629807971
 10
34.36834095792402
 20
-36.25152767788737
 10
34.38306169126529
 20
-36.31029234907805
 10
34.38560269350695
 20
-36.37326404931875
 10
34.38577187881765
 20
-36.43433767211
 10
34.38712697259403
 20
-36.92259312130583
 10
34.38921520271762
 20
-37.41087918465402
 10
34.38459886066166
 20
-37.89909435207028
 10
34.38355796817736
 20
-38.00925696261874
 10
34.41573218045348
 20
-38.07687234639903
 10
34.51866935750041
 20
-38.12669285127196
 10
34.83502171964291
 20
-38.27979906129929
 10
35.1168941154143
 20
-38.47172885039875
 10
35.30158324599971
 20
-38.7884016429507
 10
35.64114622151556
 20
-39.37062481606901
 10
35.51374807108333
 20
-40.16478170998125
 10
35.00056229560652
 20
-40.58815932513081
 10
34.42709337690571
 20
-41.06126721396736
 10
33.64929210737417
 20
-41.05261791027528
 10
33.11576058978959
 20
-40.58164978956528
 10
32.33730835963304
 20
-39.89447807943543
 10
32.53614943865735
 20
-38.65272938708694
 10
33.42151711760069
 20
-38.21948756977569
 10
33.75189091379904
 20
-38.05782712105626
 10
33.74918878269015
 20
-38.05227629184249
 10
33.74925484552568
 20
-37.68850282016875
 10
33.74928868258777
 20
-37.4993573076675
 10
33.7492612906804
 20
-37.31021340643765
 10
33.74935796800097
 20
-37.12106789393667
 97
        0
 97
        1
330
91
 75
     2
 76
     1
 98
        1
 10
0.0
 20
0.0
450
        0
451
        0
460
0.0
461
0.0
452
        0
462
0.0
453
        0
470

  0
ENDBLK
  5
7C
330
79
100
AcDbEntity
  8
0
100
AcDbBlockEnd
  0
ENDSEC
  0
SECTION
  2
ENTITIES
  0
INSERT
  5
7A
330
70
100
AcDbEntity
  8
Слой 1
100
AcDbBlockReference
  2
Block_0
 10
0.0
 20
0.0
 30
0.0
  0
ENDSEC
  0
SECTION
  2
OBJECTS
  0
DICTIONARY
  5
C
330
0
100
AcDbDictionary
281
     1
  3
ACAD_COLOR
350
63
  3
ACAD_DETAILVIEWSTYLE
350
6A
  3
ACAD_GROUP
350
D
  3
ACAD_LAYOUT
350
62
  3
ACAD_MATERIAL
350
10
  3
ACAD_MLEADERSTYLE
350
66
  3
ACAD_MLINESTYLE
350
5F
  3
ACAD_PLOTSETTINGS
350
61
  3
ACAD_PLOTSTYLENAME
350
E
  3
ACAD_SCALELIST
350
42
  3
ACAD_SECTIONVIEWSTYLE
350
68
  3
ACAD_TABLESTYLE
350
64
  3
ACAD_VISUALSTYLE
350
29
  3
ACDB_RECOMPOSE_DATA
350
9B
  3
AcDbVariableDictionary
350
93
  0
DICTIONARY
  5
63
102
{ACAD_REACTORS
330
C
102
}
330
C
100
AcDbDictionary
281
     1
  0
DICTIONARY
  5
6A
102
{ACAD_REACTORS
330
C
102
}
330
C
100
AcDbDictionary
281
     1
  3
Imperial24
350
6B
  0
DICTIONARY
  5
D
102
{ACAD_REACTORS
330
C
102
}
330
C
100
AcDbDictionary
281
     1
  0
DICTIONARY
  5
62
102
{ACAD_REACTORS
330
C
102
}
330
C
100
AcDbDictionary
281
     1
  3
Layout1
350
6F
  3
Layout2
350
77
  3
Model
350
73
  0
DICTIONARY
  5
10
102
{ACAD_REACTORS
330
C
102
}
330
C
100
AcDbDictionary
281
     1
  3
ByBlock
350
19
  3
ByLayer
350
11
  3
Global
350
21
  0
DICTIONARY
  5
66
102
{ACAD_REACTORS
330
C
102
}
330
C
100
AcDbDictionary
281
     1
  3
Standard
350
67
  0
DICTIONARY
  5
5F
102
{ACAD_REACTORS
330
C
102
}
330
C
100
AcDbDictionary
281
     1
  3
Standard
350
60
  0
DICTIONARY
  5
61
102
{ACAD_REACTORS
330
C
102
}
330
C
100
AcDbDictionary
281
     1
  0
ACDBDICTIONARYWDFLT
  5
E
102
{ACAD_REACTORS
330
C
102
}
330
C
100
AcDbDictionary
281
     1
  3
Normal
350
F
100
AcDbDictionaryWithDefault
340
F
  0
DICTIONARY
  5
42
102
{ACAD_REACTORS
330
C
102
}
330
C
100
AcDbDictionary
281
     1
  3
A0
350
43
  3
A1
350
44
  3
A2
350
45
  3
A3
350
46
  3
A4
350
47
  3
A5
350
48
  3
A6
350
49
  3
A7
350
4A
  3
A8
350
4B
  3
A9
350
4C
  3
B0
350
4D
  3
B1
350
4E
  3
B2
350
4F
  3
B3
350
50
  3
B4
350
51
  3
B5
350
52
  3
B6
350
53
  0
DICTIONARY
  5
68
102
{ACAD_REACTORS
330
C
102
}
330
C
100
AcDbDictionary
281
     1
  3
Imperial24
350
69
  0
DICTIONARY
  5
64
102
{ACAD_REACTORS
330
C
102
}
330
C
100
AcDbDictionary
281
     1
  3
Standard
350
65
  0
DICTIONARY
  5
29
102
{ACAD_REACTORS
330
C
102
}
330
C
100
AcDbDictionary
281
     1
  3
2dWireframe
350
2F
  3
Basic
350
2E
  3
Brighten
350
35
  3
ColorChange
350
39
  3
Conceptual
350
32
  3
Dim
350
34
  3
EdgeColorOff
350
41
  3
Facepattern
350
38
  3
Flat
350
2A
  3
FlatWithEdges
350
2B
  3
Gouraud
350
2C
  3
GouraudWithEdges
350
2D
  3
Hidden
350
31
  3
JitterOff
350
3F
  3
Linepattern
350
37
  3
OverhangOff
350
40
  3
Realistic
350
33
  3
Shaded
350
3E
  3
Shaded with edges
350
3D
  3
Shades of Gray
350
3A
  3
Sketchy
350
3B
  3
Thicken
350
36
  3
Wireframe
350
30
  3
X-Ray
350
3C
  0
XRECORD
  5
9B
102
{ACAD_REACTORS
330
C
102
}
330
C
100
AcDbXrecord
280
     1
 90
        1
330
65
  0
DICTIONARY
  5
93
102
{ACAD_REACTORS
330
C
102
}
330
C
100
AcDbDictionary
281
     1
  3
CANNOSCALE
350
98
  3
CMLEADERSTYLE
350
95
  3
CTABLESTYLE
350
94
  3
CVIEWDETAILSTYLE
350
96
  3
CVIEWSECTIONSTYLE
350
97
  0
ACDBDETAILVIEWSTYLE
  5
6B
102
{ACAD_XDICTIONARY
360
9E
102
}
102
{ACAD_REACTORS
330
6A
102
}
330
6A
100
AcDbModelDocViewStyle
 70
     0
  3
Imperial24
290
     0
100
AcDbDetailViewStyle
 70
     0
 71
     0
 90
        3
 71
     1
340
55
 62
   256
 40
0.24
340
0
 62
   256
 40
0.24
300

 40
0.36
280
     3
 71
     2
340
5D
 90
       25
 62
   256
 71
     3
340
55
 62
   256
 40
0.24
 90
        1
 40
0.75
 90
        1
300
%<\AcVar ViewType \f "%tc1">% %<\AcVar ViewDetailId>%\PSCALE %<\AcVar ViewScale \f "%sn">%
 71
     4
340
5D
 90
       25
 62
   256
340
5D
 90
       25
 62
   256
280
     0
  0
LAYOUT
  5
6F
102
{ACAD_REACTORS
330
62
102
}
330
62
100
AcDbPlotSettings
  1

  2

  4

  6

 40
0.0
 41
0.0
 42
0.0
 43
0.0
 44
0.0
 45
0.0
 46
0.0
 47
0.0
 48
0.0
 49
0.0
140
0.0
141
0.0
142
1.0
143
1.0
 70
   688
 72
     0
 73
     0
 74
     5
  7

 75
    16
147
1.0
 76
     0
 77
     2
 78
   300
148
0.0
149
0.0
100
AcDbLayout
  1
Layout1
 70
     1
 71
     1
 10
0.0
 20
0.0
 11
12.0
 21
9.0
 12
0.0
 22
0.0
 32
0.0
 14
0.0
 24
0.0
 34
0.0
 15
0.0
 25
0.0
 35
0.0
146
0.0
 13
0.0
 23
0.0
 33
0.0
 16
1.0
 26
0.0
 36
0.0
 17
0.0
 27
1.0
 37
0.0
 76
     0
330
6C
  0
LAYOUT
  5
77
102
{ACAD_REACTORS
330
62
102
}
330
62
100
AcDbPlotSettings
  1

  2

  4

  6

 40
0.0
 41
0.0
 42
0.0
 43
0.0
 44
0.0
 45
0.0
 46
0.0
 47
0.0
 48
0.0
 49
0.0
140
0.0
141
0.0
142
1.0
143
1.0
 70
   688
 72
     0
 73
     0
 74
     5
  7

 75
    16
147
1.0
 76
     0
 77
     2
 78
   300
148
0.0
149
0.0
100
AcDbLayout
  1
Layout2
 70
     1
 71
     2
 10
0.0
 20
0.0
 11
12.0
 21
9.0
 12
0.0
 22
0.0
 32
0.0
 14
0.0
 24
0.0
 34
0.0
 15
0.0
 25
0.0
 35
0.0
146
0.0
 13
0.0
 23
0.0
 33
0.0
 16
1.0
 26
0.0
 36
0.0
 17
0.0
 27
1.0
 37
0.0
 76
     0
330
74
  0
LAYOUT
  5
73
102
{ACAD_REACTORS
330
62
102
}
330
62
100
AcDbPlotSettings
  1

  2

  4

  6

 40
0.0
 41
0.0
 42
0.0
 43
0.0
 44
0.0
 45
0.0
 46
0.0
 47
0.0
 48
0.0
 49
0.0
140
0.0
141
0.0
142
1.0
143
1.0
 70
  1712
 72
     0
 73
     0
 74
     0
  7

 75
     0
147
1.0
 76
     0
 77
     2
 78
   300
148
0.0
149
0.0
100
AcDbLayout
  1
Model
 70
     1
 71
     0
 10
0.0
 20
0.0
 11
12.0
 21
9.0
 12
0.0
 22
0.0
 32
0.0
 14
0.0
 24
0.0
 34
0.0
 15
0.0
 25
0.0
 35
0.0
146
0.0
 13
0.0
 23
0.0
 33
0.0
 16
1.0
 26
0.0
 36
0.0
 17
0.0
 27
1.0
 37
0.0
 76
     0
330
70
  0
MATERIAL
  5
19
102
{ACAD_XDICTIONARY
360
1A
102
}
102
{ACAD_REACTORS
330
10
102
}
330
10
100
AcDbMaterial
  1
ByBlock
 72
     0
 43
0.0208333333333333
 43
0.0
 43
0.0
 43
0.0
 43
0.0
 43
0.0208333333333333
 43
0.0
 43
0.0
 43
0.0
 43
0.0
 43
1.0
 43
0.0
 43
0.0
 43
0.0
 43
0.0
 43
1.0
 77
     0
 47
0.0208333333333333
 47
0.0
 47
0.0
 47
0.0
 47
0.0
 47
0.0208333333333333
 47
0.0
 47
0.0
 47
0.0
 47
0.0
 47
1.0
 47
0.0
 47
0.0
 47
0.0
 47
0.0
 47
1.0
171
     0
 49
0.0208333333333333
 49
0.0
 49
0.0
 49
0.0
 49
0.0
 49
0.0208333333333333
 49
0.0
 49
0.0
 49
0.0
 49
0.0
 49
1.0
 49
0.0
 49
0.0
 49
0.0
 49
0.0
 49
1.0
175
     0
142
0.0208333333333333
142
0.0
142
0.0
142
0.0
142
0.0
142
0.0208333333333333
142
0.0
142
0.0
142
0.0
142
0.0
142
1.0
142
0.0
142
0.0
142
0.0
142
0.0
142
1.0
179
     0
144
0.0208333333333333
144
0.0
144
0.0
144
0.0
144
0.0
144
0.0208333333333333
144
0.0
144
0.0
144
0.0
144
0.0
144
1.0
144
0.0
144
0.0
144
0.0
144
0.0
144
1.0
147
0.0208333333333333
147
0.0
147
0.0
147
0.0
147
0.0
147
0.0208333333333333
147
0.0
147
0.0
147
0.0
147
0.0
147
1.0
147
0.0
147
0.0
147
0.0
147
0.0
147
1.0
  0
MATERIAL
  5
11
102
{ACAD_XDICTIONARY
360
12
102
}
102
{ACAD_REACTORS
330
10
102
}
330
10
100
AcDbMaterial
  1
ByLayer
 72
     0
 43
0.0208333333333333
 43
0.0
 43
0.0
 43
0.0
 43
0.0
 43
0.0208333333333333
 43
0.0
 43
0.0
 43
0.0
 43
0.0
 43
1.0
 43
0.0
 43
0.0
 43
0.0
 43
0.0
 43
1.0
 77
     0
 47
0.0208333333333333
 47
0.0
 47
0.0
 47
0.0
 47
0.0
 47
0.0208333333333333
 47
0.0
 47
0.0
 47
0.0
 47
0.0
 47
1.0
 47
0.0
 47
0.0
 47
0.0
 47
0.0
 47
1.0
171
     0
 49
0.0208333333333333
 49
0.0
 49
0.0
 49
0.0
 49
0.0
 49
0.0208333333333333
 49
0.0
 49
0.0
 49
0.0
 49
0.0
 49
1.0
 49
0.0
 49
0.0
 49
0.0
 49
0.0
 49
1.0
175
     0
142
0.0208333333333333
142
0.0
142
0.0
142
0.0
142
0.0
142
0.0208333333333333
142
0.0
142
0.0
142
0.0
142
0.0
142
1.0
142
0.0
142
0.0
142
0.0
142
0.0
142
1.0
179
     0
144
0.0208333333333333
144
0.0
144
0.0
144
0.0
144
0.0
144
0.0208333333333333
144
0.0
144
0.0
144
0.0
144
0.0
144
1.0
144
0.0
144
0.0
144
0.0
144
0.0
144
1.0
147
0.0208333333333333
147
0.0
147
0.0
147
0.0
147
0.0
147
0.0208333333333333
147
0.0
147
0.0
147
0.0
147
0.0
147
1.0
147
0.0
147
0.0
147
0.0
147
0.0
147
1.0
  0
MATERIAL
  5
21
102
{ACAD_XDICTIONARY
360
22
102
}
102
{ACAD_REACTORS
330
10
102
}
330
10
100
AcDbMaterial
  1
Global
 72
     0
 43
0.0208333333333333
 43
0.0
 43
0.0
 43
0.0
 43
0.0
 43
0.0208333333333333
 43
0.0
 43
0.0
 43
0.0
 43
0.0
 43
1.0
 43
0.0
 43
0.0
 43
0.0
 43
0.0
 43
1.0
 77
     0
 47
0.0208333333333333
 47
0.0
 47
0.0
 47
0.0
 47
0.0
 47
0.0208333333333333
 47
0.0
 47
0.0
 47
0.0
 47
0.0
 47
1.0
 47
0.0
 47
0.0
 47
0.0
 47
0.0
 47
1.0
171
     0
 49
0.0208333333333333
 49
0.0
 49
0.0
 49
0.0
 49
0.0
 49
0.0208333333333333
 49
0.0
 49
0.0
 49
0.0
 49
0.0
 49
1.0
 49
0.0
 49
0.0
 49
0.0
 49
0.0
 49
1.0
175
     0
142
0.0208333333333333
142
0.0
142
0.0
142
0.0
142
0.0
142
0.0208333333333333
142
0.0
142
0.0
142
0.0
142
0.0
142
1.0
142
0.0
142
0.0
142
0.0
142
0.0
142
1.0
179
     0
144
0.0208333333333333
144
0.0
144
0.0
144
0.0
144
0.0
144
0.0208333333333333
144
0.0
144
0.0
144
0.0
144
0.0
144
1.0
144
0.0
144
0.0
144
0.0
144
0.0
144
1.0
147
0.0208333333333333
147
0.0
147
0.0
147
0.0
147
0.0
147
0.0208333333333333
147
0.0
147
0.0
147
0.0
147
0.0
147
1.0
147
0.0
147
0.0
147
0.0
147
0.0
147
1.0
  0
MLEADERSTYLE
  5
67
102
{ACAD_REACTORS
330
66
102
}
330
66
100
AcDbMLeaderStyle
179
     2
170
     2
171
     1
172
     0
 90
        2
 40
0.0
 41
0.0
173
     1
 91
-1056964608
340
5B
 92
       -2
290
     1
 42
0.09
291
     1
 43
0.36
  3
Standard
 44
0.18
300

342
55
174
     1
178
     6
175
     1
176
     0
 93
-1056964608
 45
0.18
292
     0
297
     0
 46
0.18
 94
-1056964608
 47
1.0
 49
1.0
140
1.0
293
     1
141
0.0
294
     1
177
     0
142
1.0
295
     0
296
     0
143
0.125
271
     0
272
     9
273
     9
298
     1
  0
MLINESTYLE
  5
60
102
{ACAD_REACTORS
330
5F
102
}
330
5F
100
AcDbMlineStyle
  2
STANDARD
 70
     0
  3

 62
   256
 51
90.0
 52
90.0
 71
     2
 49
0.5
 62
   256
  6
BYLAYER
 49
-0.5
 62
   256
  6
BYLAYER
  0
ACDBPLACEHOLDER
  5
F
102
{ACAD_REACTORS
330
E
102
}
330
E
  0
SCALE
  5
43
102
{ACAD_REACTORS
330
42
102
}
330
42
100
AcDbScale
 70
     0
300
1:1
140
1.0
141
1.0
290
     1
  0
SCALE
  5
44
102
{ACAD_REACTORS
330
42
102
}
330
42
100
AcDbScale
 70
     0
300
1/128" = 1'-0"
140
0.0078125
141
12.0
290
     0
  0
SCALE
  5
45
102
{ACAD_REACTORS
330
42
102
}
330
42
100
AcDbScale
 70
     0
300
1/64" = 1'-0"
140
0.015625
141
12.0
290
     0
  0
SCALE
  5
46
102
{ACAD_REACTORS
330
42
102
}
330
42
100
AcDbScale
 70
     0
300
1/32" = 1'-0"
140
0.03125
141
12.0
290
     0
  0
SCALE
  5
47
102
{ACAD_REACTORS
330
42
102
}
330
42
100
AcDbScale
 70
     0
300
1/16" = 1'-0"
140
0.0625
141
12.0
290
     0
  0
SCALE
  5
48
102
{ACAD_REACTORS
330
42
102
}
330
42
100
AcDbScale
 70
     0
300
3/32" = 1'-0"
140
0.09375
141
12.0
290
     0
  0
SCALE
  5
49
102
{ACAD_REACTORS
330
42
102
}
330
42
100
AcDbScale
 70
     0
300
1/8" = 1'-0"
140
0.125
141
12.0
290
     0
  0
SCALE
  5
4A
102
{ACAD_REACTORS
330
42
102
}
330
42
100
AcDbScale
 70
     0
300
3/16" = 1'-0"
140
0.1875
141
12.0
290
     0
  0
SCALE
  5
4B
102
{ACAD_REACTORS
330
42
102
}
330
42
100
AcDbScale
 70
     0
300
1/4" = 1'-0"
140
0.25
141
12.0
290
     0
  0
SCALE
  5
4C
102
{ACAD_REACTORS
330
42
102
}
330
42
100
AcDbScale
 70
     0
300
3/8" = 1'-0"
140
0.375
141
12.0
290
     0
  0
SCALE
  5
4D
102
{ACAD_REACTORS
330
42
102
}
330
42
100
AcDbScale
 70
     0
300
1/2" = 1'-0"
140
0.5
141
12.0
290
     0
  0
SCALE
  5
4E
102
{ACAD_REACTORS
330
42
102
}
330
42
100
AcDbScale
 70
     0
300
3/4" = 1'-0"
140
0.75
141
12.0
290
     0
  0
SCALE
  5
4F
102
{ACAD_REACTORS
330
42
102
}
330
42
100
AcDbScale
 70
     0
300
1" = 1'-0"
140
1.0
141
12.0
290
     0
  0
SCALE
  5
50
102
{ACAD_REACTORS
330
42
102
}
330
42
100
AcDbScale
 70
     0
300
1-1/2" = 1'-0"
140
1.5
141
12.0
290
     0
  0
SCALE
  5
51
102
{ACAD_REACTORS
330
42
102
}
330
42
100
AcDbScale
 70
     0
300
3" = 1'-0"
140
3.0
141
12.0
290
     0
  0
SCALE
  5
52
102
{ACAD_REACTORS
330
42
102
}
330
42
100
AcDbScale
 70
     0
300
6" = 1'-0"
140
6.0
141
12.0
290
     0
  0
SCALE
  5
53
102
{ACAD_REACTORS
330
42
102
}
330
42
100
AcDbScale
 70
     0
300
1'-0" = 1'-0"
140
12.0
141
12.0
290
     0
  0
ACDBSECTIONVIEWSTYLE
  5
69
102
{ACAD_XDICTIONARY
360
9C
102
}
102
{ACAD_REACTORS
330
68
102
}
330
68
100
AcDbModelDocViewStyle
 70
     0
  3
Imperial24
290
     0
100
AcDbSectionViewStyle
 70
     0
 71
     0
 90
       78
 71
     1
340
55
 62
   256
 40
0.24
340
0
340
0
 62
   256
 40
0.24
300
I, O, Q, S, X, Z
 40
0.48
 90
        3
 40
0.18
 90
        1
 71
     2
340
5D
 90
       25
 62
   256
340
5D
 90
       50
 62
   256
 40
0.24
 40
0.0
 40
0.24
 71
     3
340
55
 62
   256
 40
0.24
 90
        1
 40
0.75
 90
        1
300
%<\AcVar ViewType \f "%tc1">% %<\AcVar ViewSectionStartId>%-%<\AcVar ViewSectionEndId>%\PSCALE %<\AcVar ViewScale \f "%sn">%
 71
     4
 62
   256
 62
   257
300
ANSI31
 40
1.0
 90
        0
290
     0
290
     0
 90
        6
 40
0.0
 40
1.570796326794896
 40
0.2617993877991494
 40
1.308996938995747
 40
-0.2617993877991494
 40
1.832595714594046
  0
TABLESTYLE
  5
65
102
{ACAD_XDICTIONARY
360
99
102
}
102
{ACAD_REACTORS
330
64
102
}
330
64
100
AcDbTableStyle
280
     0
  3
Standard
 70
     0
 71
     0
 40
0.06
 41
0.06
280
     0
281
     0
  7
Standard
140
0.18
170
     2
 62
     0
 63
     7
283
     0
 90
      512
 91
        0
  1

274
    -2
284
     1
 64
     0
275
    -2
285
     1
 65
     0
276
    -2
286
     1
 66
     0
277
    -2
287
     1
 67
     0
278
    -2
288
     1
 68
     0
279
    -2
289
     1
 69
     0
  7
Standard
140
0.25
170
     5
 62
     0
 63
     7
283
     0
 90
      512
 91
        0
  1

274
    -2
284
     1
 64
     0
275
    -2
285
     1
 65
     0
276
    -2
286
     1
 66
     0
277
    -2
287
     1
 67
     0
278
    -2
288
     1
 68
     0
279
    -2
289
     1
 69
     0
  7
Standard
140
0.18
170
     5
 62
     0
 63
     7
283
     0
 90
      512
 91
        0
  1

274
    -2
284
     1
 64
     0
275
    -2
285
     1
 65
     0
276
    -2
286
     1
 66
     0
277
    -2
287
     1
 67
     0
278
    -2
288
     1
 68
     0
279
    -2
289
     1
 69
     0
  0
VISUALSTYLE
  5
2F
102
{ACAD_REACTORS
330
29
102
}
330
29
100
AcDbVisualStyle
  2
2dWireframe
 70
     4
177
     3
291
     0
 70
    58
 90
        0
176
     1
 90
        2
176
     1
 90
        0
176
     1
 90
        0
176
     1
 40
0.6
176
     1
 40
30.0
176
     1
 62
     7
420
 16777215
176
     1
 90
        1
176
     1
 90
        4
176
     1
 62
     7
176
     1
 62
   257
176
     1
 90
        1
176
     1
 90
        1
176
     1
 40
1.0
176
     1
 90
        0
176
     1
 62
   257
176
     1
 40
1.0
176
     1
 90
        1
176
     1
 90
        6
176
     1
 90
        2
176
     1
 62
     7
176
     1
 90
        5
176
     1
 90
        0
176
     1
 90
        0
176
     1
290
     0
176
     1
 90
        1
176
     1
 40
0.0
176
     1
 90
        0
176
     1
290
     1
176
     1
290
     1
176
     1
290
     0
176
     1
290
     0
176
     1
290
     0
176
     1
290
     0
176
     1
290
     0
176
     1
290
     0
176
     1
290
     0
176
     1
 90
       50
176
     1
 40
0.0
176
     1
 40
1.0
176
     1
 90
        0
176
     1
 62
    18
420
        0
176
     1
 90
       50
176
     1
 90
        3
176
     1
 62
     5
420
      255
176
     1
290
     0
176
     1
 90
       50
176
     1
 90
       50
176
     1
 90
       50
176
     1
290
     0
176
     1
 90
       50
176
     1
 62
   256
176
     0
 40
1.0
176
     0
 90
        2
176
     1
  1
strokes_ogs.tif
176
     1
290
     0
176
     1
 40
1.0
176
     1
 40
1.0
176
     1
1001
ACAD
1000
AcDbSavedByObjectVersion
1070
     0
  0
VISUALSTYLE
  5
2E
102
{ACAD_REACTORS
330
29
102
}
330
29
100
AcDbVisualStyle
  2
Basic
 70
     7
177
     3
291
     1
 70
    58
 90
        1
176
     1
 90
        0
176
     1
 90
        1
176
     1
 90
        0
176
     1
 40
0.6
176
     1
 40
30.0
176
     1
 62
     7
420
 16777215
176
     1
 90
        0
176
     1
 90
        4
176
     1
 62
     7
176
     1
 62
   257
176
     1
 90
        1
176
     1
 90
        1
176
     1
 40
1.0
176
     1
 90
        8
176
     1
 62
     7
176
     1
 40
1.0
176
     1
 90
        1
176
     1
 90
        6
176
     1
 90
        2
176
     1
 62
     7
176
     1
 90
        5
176
     1
 90
        0
176
     1
 90
        0
176
     1
290
     0
176
     1
 90
        1
176
     1
 40
0.0
176
     1
 90
        0
176
     1
290
     0
176
     1
290
     1
176
     1
290
     1
176
     1
290
     0
176
     1
290
     0
176
     1
290
     0
176
     1
290
     0
176
     1
290
     0
176
     1
290
     0
176
     1
 90
       50
176
     1
 40
0.0
176
     1
 40
1.0
176
     1
 90
        0
176
     1
 62
    18
420
        0
176
     1
 90
       50
176
     1
 90
        3
176
     1
 62
     5
420
      255
176
     1
290
     0
176
     1
 90
       50
176
     1
 90
       50
176
     1
 90
       50
176
     1
290
     0
176
     1
 90
       50
176
     1
 62
   256
176
     0
 40
1.0
176
     0
 90
        2
176
     1
  1
strokes_ogs.tif
176
     1
290
     0
176
     1
 40
1.0
176
     1
 40
1.0
176
     1
1001
ACAD
1000
AcDbSavedByObjectVersion
1070
     0
  0
VISUALSTYLE
  5
35
102
{ACAD_REACTORS
330
29
102
}
330
29
100
AcDbVisualStyle
  2
Brighten
 70
    12
177
     3
291
     1
 70
    58
 90
        2
176
     1
 90
        2
176
     1
 90
        0
176
     1
 90
        0
176
     1
 40
0.6
176
     1
 40
30.0
176
     1
 62
     7
420
 16777215
176
     1
 90
        1
176
     1
 90
        4
176
     1
 62
     7
176
     1
 62
   257
176
     1
 90
        1
176
     1
 90
        1
176
     1
 40
1.0
176
     1
 90
        8
176
     1
 62
     7
176
     1
 40
1.0
176
     1
 90
        1
176
     1
 90
        6
176
     1
 90
        2
176
     1
 62
     7
176
     1
 90
        5
176
     1
 90
        0
176
     1
 90
        0
176
     1
290
     0
176
     1
 90
        1
176
     1
 40
50.0
176
     1
 90
        0
176
     1
290
     0
176
     1
290
     1
176
     1
290
     1
176
     1
290
     0
176
     1
290
     0
176
     1
290
     0
176
     1
290
     0
176
     1
290
     0
176
     1
290
     0
176
     1
 90
       50
176
     1
 40
0.0
176
     1
 40
1.0
176
     1
 90
        0
176
     1
 62
    18
420
        0
176
     1
 90
       50
176
     1
 90
        3
176
     1
 62
     5
420
      255
176
     1
290
     0
176
     1
 90
       50
176
     1
 90
       50
176
     1
 90
       50
176
     1
290
     0
176
     1
 90
       50
176
     1
 62
   256
176
     0
 40
1.0
176
     0
 90
        2
176
     1
  1
strokes_ogs.tif
176
     1
290
     0
176
     1
 40
1.0
176
     1
 40
1.0
176
     1
1001
ACAD
1000
AcDbSavedByObjectVersion
1070
     0
  0
VISUALSTYLE
  5
39
102
{ACAD_REACTORS
330
29
102
}
330
29
100
AcDbVisualStyle
  2
ColorChange
 70
    16
177
     3
291
     1
 70
    58
 90
        2
176
     1
 90
        2
176
     1
 90
        3
176
     1
 90
        0
176
     1
 40
0.6
176
     1
 40
30.0
176
     1
 62
     8
420
  8421504
176
     1
 90
        1
176
     1
 90
        4
176
     1
 62
     7
176
     1
 62
   257
176
     1
 90
        1
176
     1
 90
        1
176
     1
 40
1.0
176
     1
 90
        8
176
     1
 62
     8
420
  8421504
176
     1
 40
1.0
176
     1
 90
        1
176
     1
 90
        6
176
     1
 90
        2
176
     1
 62
     7
176
     1
 90
        5
176
     1
 90
        0
176
     1
 90
        0
176
     1
290
     0
176
     1
 90
        1
176
     1
 40
0.0
176
     1
 90
        0
176
     1
290
     0
176
     1
290
     1
176
     1
290
     1
176
     1
290
     0
176
     1
290
     0
176
     1
290
     0
176
     1
290
     0
176
     1
290
     0
176
     1
290
     0
176
     1
 90
       50
176
     1
 40
0.0
176
     1
 40
1.0
176
     1
 90
        0
176
     1
 62
    18
420
        0
176
     1
 90
       50
176
     1
 90
        3
176
     1
 62
     5
420
      255
176
     1
290
     0
176
     1
 90
       50
176
     1
 90
       50
176
     1
 90
       50
176
     1
290
     0
176
     1
 90
       50
176
     1
 62
   256
176
     0
 40
1.0
176
     0
 90
        2
176
     1
  1
strokes_ogs.tif
176
     1
290
     0
176
     1
 40
1.0
176
     1
 40
1.0
176
     1
1001
ACAD
1000
AcDbSavedByObjectVersion
1070
     0
  0
VISUALSTYLE
  5
32
102
{ACAD_REACTORS
330
29
102
}
330
29
100
AcDbVisualStyle
  2
Conceptual
 70
     9
177
     3
291
     0
 70
    58
 90
        3
176
     1
 90
        2
176
     1
 90
        0
176
     1
 90
        0
176
     1
 40
0.6
176
     1
 40
30.0
176
     1
 62
     7
420
 16777215
176
     1
 90
        2
176
     1
 90
        2
176
     1
 62
     7
176
     1
 62
   257
176
     1
 90
        1
176
     1
 90
        1
176
     1
 40
179.0
176
     1
 90
        8
176
     1
 62
     7
176
     1
 40
1.0
176
     1
 90
        1
176
     1
 90
        6
176
     1
 90
        2
176
     1
 62
     7
176
     1
 90
        3
176
     1
 90
        0
176
     1
 90
        0
176
     1
290
     0
176
     1
 90
        1
176
     1
 40
0.0
176
     1
 90
        0
176
     1
290
     0
176
     1
290
     1
176
     1
290
     1
176
     1
290
     0
176
     1
290
     0
176
     1
290
     0
176
     1
290
     0
176
     1
290
     0
176
     1
290
     0
176
     1
 90
       50
176
     1
 40
0.0
176
     1
 40
1.0
176
     1
 90
        0
176
     1
 62
    18
420
        0
176
     1
 90
       50
176
     1
 90
        3
176
     1
 62
     5
420
      255
176
     1
290
     0
176
     1
 90
       50
176
     1
 90
       50
176
     1
 90
       50
176
     1
290
     0
176
     1
 90
       50
176
     1
 62
   256
176
     0
 40
1.0
176
     0
 90
        2
176
     1
  1
strokes_ogs.tif
176
     1
290
     0
176
     1
 40
1.0
176
     1
 40
1.0
176
     1
1001
ACAD
1000
AcDbSavedByObjectVersion
1070
     0
  0
VISUALSTYLE
  5
34
102
{ACAD_REACTORS
330
29
102
}
330
29
100
AcDbVisualStyle
  2
Dim
 70
    11
177
     3
291
     1
 70
    58
 90
        2
176
     1
 90
        2
176
     1
 90
        0
176
     1
 90
        0
176
     1
 40
0.6
176
     1
 40
30.0
176
     1
 62
     7
420
 16777215
176
     1
 90
        1
176
     1
 90
        4
176
     1
 62
     7
176
     1
 62
   257
176
     1
 90
        1
176
     1
 90
        1
176
     1
 40
1.0
176
     1
 90
        8
176
     1
 62
     7
176
     1
 40
1.0
176
     1
 90
        1
176
     1
 90
        6
176
     1
 90
        2
176
     1
 62
     7
176
     1
 90
        5
176
     1
 90
        0
176
     1
 90
        0
176
     1
290
     0
176
     1
 90
        1
176
     1
 40
-50.0
176
     1
 90
        0
176
     1
290
     0
176
     1
290
     1
176
     1
290
     1
176
     1
290
     0
176
     1
290
     0
176
     1
290
     0
176
     1
290
     0
176
     1
290
     0
176
     1
290
     0
176
     1
 90
       50
176
     1
 40
0.0
176
     1
 40
1.0
176
     1
 90
        0
176
     1
 62
    18
420
        0
176
     1
 90
       50
176
     1
 90
        3
176
     1
 62
     5
420
      255
176
     1
290
     0
176
     1
 90
       50
176
     1
 90
       50
176
     1
 90
       50
176
     1
290
     0
176
     1
 90
       50
176
     1
 62
   256
176
     0
 40
1.0
176
     0
 90
        2
176
     1
  1
strokes_ogs.tif
176
     1
290
     0
176
     1
 40
1.0
176
     1
 40
1.0
176
     1
1001
ACAD
1000
AcDbSavedByObjectVersion
1070
     0
  0
VISUALSTYLE
  5
41
102
{ACAD_REACTORS
330
29
102
}
330
29
100
AcDbVisualStyle
  2
EdgeColorOff
 70
    22
177
     3
291
     1
 70
    58
 90
        2
176
     0
 90
        2
176
     0
 90
        0
176
     0
 90
        0
176
     0
 40
0.6
176
     0
 40
30.0
176
     0
 62
     7
420
 16777215
176
     0
 90
        1
176
     0
 90
        4
176
     0
 62
     7
176
     0
 62
   257
176
     0
 90
        1
176
     0
 90
        1
176
     0
 40
1.0
176
     0
 90
        8
176
     2
 62
     7
176
     0
 40
1.0
176
     0
 90
        1
176
     0
 90
        6
176
     0
 90
        2
176
     0
 62
     7
176
     0
 90
        5
176
     0
 90
        0
176
     0
 90
        0
176
     0
290
     0
176
     0
 90
        1
176
     0
 40
0.0
176
     0
 90
        0
176
     0
290
     0
176
     0
290
     1
176
     0
290
     1
176
     0
290
     0
176
     0
290
     0
176
     0
290
     0
176
     0
290
     0
176
     0
290
     0
176
     0
290
     0
176
     0
 90
       50
176
     0
 40
0.0
176
     0
 40
1.0
176
     0
 90
        0
176
     0
 62
    18
420
        0
176
     0
 90
       50
176
     0
 90
        3
176
     0
 62
     5
420
      255
176
     0
290
     0
176
     0
 90
       50
176
     0
 90
       50
176
     0
 90
       50
176
     0
290
     0
176
     0
 90
       50
176
     0
 62
   256
176
     0
 40
1.0
176
     0
 90
        2
176
     0
  1
strokes_ogs.tif
176
     0
290
     0
176
     0
 40
1.0
176
     0
 40
1.0
176
     0
1001
ACAD
1000
AcDbSavedByObjectVersion
1070
     0
  0
VISUALSTYLE
  5
38
102
{ACAD_REACTORS
330
29
102
}
330
29
100
AcDbVisualStyle
  2
Facepattern
 70
    15
177
     3
291
     1
 70
    58
 90
        2
176
     1
 90
        2
176
     1
 90
        0
176
     1
 90
        0
176
     1
 40
0.6
176
     1
 40
30.0
176
     1
 62
     7
420
 16777215
176
     1
 90
        1
176
     1
 90
        4
176
     1
 62
     7
176
     1
 62
   257
176
     1
 90
        1
176
     1
 90
        1
176
     1
 40
1.0
176
     1
 90
        8
176
     1
 62
     7
176
     1
 40
1.0
176
     1
 90
        1
176
     1
 90
        6
176
     1
 90
        2
176
     1
 62
     7
176
     1
 90
        5
176
     1
 90
        0
176
     1
 90
        0
176
     1
290
     0
176
     1
 90
        1
176
     1
 40
0.0
176
     1
 90
        0
176
     1
290
     0
176
     1
290
     1
176
     1
290
     1
176
     1
290
     0
176
     1
290
     0
176
     1
290
     0
176
     1
290
     0
176
     1
290
     0
176
     1
290
     0
176
     1
 90
       50
176
     1
 40
0.0
176
     1
 40
1.0
176
     1
 90
        0
176
     1
 62
    18
420
        0
176
     1
 90
       50
176
     1
 90
        3
176
     1
 62
     5
420
      255
176
     1
290
     0
176
     1
 90
       50
176
     1
 90
       50
176
     1
 90
       50
176
     1
290
     0
176
     1
 90
       50
176
     1
 62
   256
176
     0
 40
1.0
176
     0
 90
        2
176
     1
  1
strokes_ogs.tif
176
     1
290
     0
176
     1
 40
1.0
176
     1
 40
1.0
176
     1
1001
ACAD
1000
AcDbSavedByObjectVersion
1070
     0
  0
VISUALSTYLE
  5
2A
102
{ACAD_REACTORS
330
29
102
}
330
29
100
AcDbVisualStyle
  2
Flat
 70
     0
177
     3
291
     1
 70
    58
 90
        2
176
     1
 90
        1
176
     1
 90
        1
176
     1
 90
        2
176
     1
 40
0.6
176
     1
 40
30.0
176
     1
 62
     7
420
 16777215
176
     1
 90
        0
176
     1
 90
        0
176
     1
 62
     7
176
     1
 62
   257
176
     1
 90
        1
176
     1
 90
        1
176
     1
 40
1.0
176
     1
 90
        8
176
     1
 62
     7
176
     1
 40
1.0
176
     1
 90
        1
176
     1
 90
        6
176
     1
 90
        2
176
     1
 62
     7
176
     1
 90
        5
176
     1
 90
        0
176
     1
 90
        0
176
     1
290
     0
176
     1
 90
       13
176
     1
 40
0.0
176
     1
 90
        0
176
     1
290
     0
176
     1
290
     1
176
     1
290
     1
176
     1
290
     0
176
     1
290
     0
176
     1
290
     0
176
     1
290
     0
176
     1
290
     0
176
     1
290
     0
176
     1
 90
       50
176
     1
 40
0.0
176
     1
 40
1.0
176
     1
 90
        0
176
     1
 62
    18
420
        0
176
     1
 90
       50
176
     1
 90
        3
176
     1
 62
     5
420
      255
176
     1
290
     0
176
     1
 90
       50
176
     1
 90
       50
176
     1
 90
       50
176
     1
290
     0
176
     1
 90
       50
176
     1
 62
   256
176
     0
 40
1.0
176
     0
 90
        2
176
     1
  1
strokes_ogs.tif
176
     1
290
     0
176
     1
 40
1.0
176
     1
 40
1.0
176
     1
1001
ACAD
1000
AcDbSavedByObjectVersion
1070
     0
  0
VISUALSTYLE
  5
2B
102
{ACAD_REACTORS
330
29
102
}
330
29
100
AcDbVisualStyle
  2
FlatWithEdges
 70
     1
177
     3
291
     1
 70
    58
 90
        2
176
     1
 90
        1
176
     1
 90
        1
176
     1
 90
        2
176
     1
 40
0.6
176
     1
 40
30.0
176
     1
 62
     7
420
 16777215
176
     1
 90
        1
176
     1
 90
        0
176
     1
 62
     7
176
     1
 62
   257
176
     1
 90
        1
176
     1
 90
        1
176
     1
 40
1.0
176
     1
 90
        0
176
     1
 62
   257
176
     1
 40
1.0
176
     1
 90
        1
176
     1
 90
        6
176
     1
 90
        2
176
     1
 62
     7
176
     1
 90
        5
176
     1
 90
        0
176
     1
 90
        0
176
     1
290
     0
176
     1
 90
       13
176
     1
 40
0.0
176
     1
 90
        0
176
     1
290
     0
176
     1
290
     1
176
     1
290
     1
176
     1
290
     0
176
     1
290
     0
176
     1
290
     0
176
     1
290
     0
176
     1
290
     0
176
     1
290
     0
176
     1
 90
       50
176
     1
 40
0.0
176
     1
 40
1.0
176
     1
 90
        0
176
     1
 62
    18
420
        0
176
     1
 90
       50
176
     1
 90
        3
176
     1
 62
     5
420
      255
176
     1
290
     0
176
     1
 90
       50
176
     1
 90
       50
176
     1
 90
       50
176
     1
290
     0
176
     1
 90
       50
176
     1
 62
   256
176
     0
 40
1.0
176
     0
 90
        2
176
     1
  1
strokes_ogs.tif
176
     1
290
     0
176
     1
 40
1.0
176
     1
 40
1.0
176
     1
1001
ACAD
1000
AcDbSavedByObjectVersion
1070
     0
  0
VISUALSTYLE
  5
2C
102
{ACAD_REACTORS
330
29
102
}
330
29
100
AcDbVisualStyle
  2
Gouraud
 70
     2
177
     3
291
     1
 70
    58
 90
        2
176
     1
 90
        2
176
     1
 90
        1
176
     1
 90
        2
176
     1
 40
0.6
176
     1
 40
30.0
176
     1
 62
     7
420
 16777215
176
     1
 90
        0
176
     1
 90
        0
176
     1
 62
     7
176
     1
 62
   257
176
     1
 90
        1
176
     1
 90
        1
176
     1
 40
1.0
176
     1
 90
        0
176
     1
 62
     7
176
     1
 40
1.0
176
     1
 90
        1
176
     1
 90
        6
176
     1
 90
        2
176
     1
 62
     7
176
     1
 90
        5
176
     1
 90
        0
176
     1
 90
        0
176
     1
290
     0
176
     1
 90
       13
176
     1
 40
0.0
176
     1
 90
        0
176
     1
290
     0
176
     1
290
     1
176
     1
290
     1
176
     1
290
     0
176
     1
290
     0
176
     1
290
     0
176
     1
290
     0
176
     1
290
     0
176
     1
290
     0
176
     1
 90
       50
176
     1
 40
0.0
176
     1
 40
1.0
176
     1
 90
        0
176
     1
 62
    18
420
        0
176
     1
 90
       50
176
     1
 90
        3
176
     1
 62
     5
420
      255
176
     1
290
     0
176
     1
 90
       50
176
     1
 90
       50
176
     1
 90
       50
176
     1
290
     0
176
     1
 90
       50
176
     1
 62
   256
176
     0
 40
1.0
176
     0
 90
        2
176
     1
  1
strokes_ogs.tif
176
     1
290
     0
176
     1
 40
1.0
176
     1
 40
1.0
176
     1
1001
ACAD
1000
AcDbSavedByObjectVersion
1070
     0
  0
VISUALSTYLE
  5
2D
102
{ACAD_REACTORS
330
29
102
}
330
29
100
AcDbVisualStyle
  2
GouraudWithEdges
 70
     3
177
     3
291
     1
 70
    58
 90
        2
176
     1
 90
        2
176
     1
 90
        1
176
     1
 90
        2
176
     1
 40
0.6
176
     1
 40
30.0
176
     1
 62
     7
420
 16777215
176
     1
 90
        1
176
     1
 90
        0
176
     1
 62
     7
176
     1
 62
   257
176
     1
 90
        1
176
     1
 90
        1
176
     1
 40
1.0
176
     1
 90
        0
176
     1
 62
   257
176
     1
 40
1.0
176
     1
 90
        1
176
     1
 90
        6
176
     1
 90
        2
176
     1
 62
     7
176
     1
 90
        5
176
     1
 90
        0
176
     1
 90
        0
176
     1
290
     0
176
     1
 90
       13
176
     1
 40
0.0
176
     1
 90
        0
176
     1
290
     0
176
     1
290
     1
176
     1
290
     1
176
     1
290
     0
176
     1
290
     0
176
     1
290
     0
176
     1
290
     0
176
     1
290
     0
176
     1
290
     0
176
     1
 90
       50
176
     1
 40
0.0
176
     1
 40
1.0
176
     1
 90
        0
176
     1
 62
    18
420
        0
176
     1
 90
       50
176
     1
 90
        3
176
     1
 62
     5
420
      255
176
     1
290
     0
176
     1
 90
       50
176
     1
 90
       50
176
     1
 90
       50
176
     1
290
     0
176
     1
 90
       50
176
     1
 62
   256
176
     0
 40
1.0
176
     0
 90
        2
176
     1
  1
strokes_ogs.tif
176
     1
290
     0
176
     1
 40
1.0
176
     1
 40
1.0
176
     1
1001
ACAD
1000
AcDbSavedByObjectVersion
1070
     0
  0
VISUALSTYLE
  5
31
102
{ACAD_REACTORS
330
29
102
}
330
29
100
AcDbVisualStyle
  2
Hidden
 70
     6
177
     3
291
     0
 70
    58
 90
        1
176
     1
 90
        2
176
     1
 90
        2
176
     1
 90
        0
176
     1
 40
0.6
176
     1
 40
30.0
176
     1
 62
     7
420
 16777215
176
     1
 90
        2
176
     1
 90
        2
176
     1
 62
     7
176
     1
 62
   257
176
     1
 90
        2
176
     1
 90
        1
176
     1
 40
40.0
176
     1
 90
        0
176
     1
 62
   257
176
     1
 40
1.0
176
     1
 90
        1
176
     1
 90
        6
176
     1
 90
        2
176
     1
 62
     7
176
     1
 90
        3
176
     1
 90
        0
176
     1
 90
        0
176
     1
290
     0
176
     1
 90
        1
176
     1
 40
0.0
176
     1
 90
        0
176
     1
290
     0
176
     1
290
     1
176
     1
290
     1
176
     1
290
     0
176
     1
290
     0
176
     1
290
     0
176
     1
290
     0
176
     1
290
     0
176
     1
290
     0
176
     1
 90
       50
176
     1
 40
0.0
176
     1
 40
1.0
176
     1
 90
        0
176
     1
 62
    18
420
        0
176
     1
 90
       50
176
     1
 90
        3
176
     1
 62
     5
420
      255
176
     1
290
     0
176
     1
 90
       50
176
     1
 90
       50
176
     1
 90
       50
176
     1
290
     0
176
     1
 90
       50
176
     1
 62
   256
176
     0
 40
1.0
176
     0
 90
        2
176
     1
  1
strokes_ogs.tif
176
     1
290
     0
176
     1
 40
1.0
176
     1
 40
1.0
176
     1
1001
ACAD
1000
AcDbSavedByObjectVersion
1070
     0
  0
VISUALSTYLE
  5
3F
102
{ACAD_REACTORS
330
29
102
}
330
29
100
AcDbVisualStyle
  2
JitterOff
 70
    20
177
     3
291
     1
 70
    58
 90
        2
176
     0
 90
        2
176
     0
 90
        0
176
     0
 90
        0
176
     0
 40
0.6
176
     0
 40
30.0
176
     0
 62
     7
420
 16777215
176
     0
 90
        1
176
     0
 90
        4
176
     0
 62
     7
176
     0
 62
   257
176
     0
 90
        1
176
     0
 90
        1
176
     0
 40
1.0
176
     0
 90
       10
176
     2
 62
     7
176
     0
 40
1.0
176
     0
 90
        1
176
     0
 90
        6
176
     0
 90
        2
176
     0
 62
     7
176
     0
 90
        5
176
     0
 90
        0
176
     0
 90
        0
176
     0
290
     0
176
     0
 90
        1
176
     0
 40
0.0
176
     0
 90
        0
176
     0
290
     0
176
     0
290
     1
176
     0
290
     1
176
     0
290
     0
176
     0
290
     0
176
     0
290
     0
176
     0
290
     0
176
     0
290
     0
176
     0
290
     0
176
     0
 90
       50
176
     0
 40
0.0
176
     0
 40
1.0
176
     0
 90
        0
176
     0
 62
    18
420
        0
176
     0
 90
       50
176
     0
 90
        3
176
     0
 62
     5
420
      255
176
     0
290
     0
176
     0
 90
       50
176
     0
 90
       50
176
     0
 90
       50
176
     0
290
     0
176
     0
 90
       50
176
     0
 62
   256
176
     0
 40
1.0
176
     0
 90
        2
176
     0
  1
strokes_ogs.tif
176
     0
290
     0
176
     0
 40
1.0
176
     0
 40
1.0
176
     0
1001
ACAD
1000
AcDbSavedByObjectVersion
1070
     0
  0
VISUALSTYLE
  5
37
102
{ACAD_REACTORS
330
29
102
}
330
29
100
AcDbVisualStyle
  2
Linepattern
 70
    14
177
     3
291
     1
 70
    58
 90
        2
176
     1
 90
        2
176
     1
 90
        0
176
     1
 90
        0
176
     1
 40
0.6
176
     1
 40
30.0
176
     1
 62
     7
420
 16777215
176
     1
 90
        1
176
     1
 90
        4
176
     1
 62
     7
176
     1
 62
   257
176
     1
 90
        7
176
     1
 90
        7
176
     1
 40
1.0
176
     1
 90
        8
176
     1
 62
     7
176
     1
 40
1.0
176
     1
 90
        1
176
     1
 90
        6
176
     1
 90
        2
176
     1
 62
     7
176
     1
 90
        5
176
     1
 90
        0
176
     1
 90
        0
176
     1
290
     0
176
     1
 90
        1
176
     1
 40
0.0
176
     1
 90
        0
176
     1
290
     0
176
     1
290
     1
176
     1
290
     1
176
     1
290
     0
176
     1
290
     0
176
     1
290
     0
176
     1
290
     0
176
     1
290
     0
176
     1
290
     0
176
     1
 90
       50
176
     1
 40
0.0
176
     1
 40
1.0
176
     1
 90
        0
176
     1
 62
    18
420
        0
176
     1
 90
       50
176
     1
 90
        3
176
     1
 62
     5
420
      255
176
     1
290
     0
176
     1
 90
       50
176
     1
 90
       50
176
     1
 90
       50
176
     1
290
     0
176
     1
 90
       50
176
     1
 62
   256
176
     0
 40
1.0
176
     0
 90
        2
176
     1
  1
strokes_ogs.tif
176
     1
290
     0
176
     1
 40
1.0
176
     1
 40
1.0
176
     1
1001
ACAD
1000
AcDbSavedByObjectVersion
1070
     0
  0
VISUALSTYLE
  5
40
102
{ACAD_REACTORS
330
29
102
}
330
29
100
AcDbVisualStyle
  2
OverhangOff
 70
    21
177
     3
291
     1
 70
    58
 90
        2
176
     0
 90
        2
176
     0
 90
        0
176
     0
 90
        0
176
     0
 40
0.6
176
     0
 40
30.0
176
     0
 62
     7
420
 16777215
176
     0
 90
        1
176
     0
 90
        4
176
     0
 62
     7
176
     0
 62
   257
176
     0
 90
        1
176
     0
 90
        1
176
     0
 40
1.0
176
     0
 90
        9
176
     2
 62
     7
176
     0
 40
1.0
176
     0
 90
        1
176
     0
 90
        6
176
     0
 90
        2
176
     0
 62
     7
176
     0
 90
        5
176
     0
 90
        0
176
     0
 90
        0
176
     0
290
     0
176
     0
 90
        1
176
     0
 40
0.0
176
     0
 90
        0
176
     0
290
     0
176
     0
290
     1
176
     0
290
     1
176
     0
290
     0
176
     0
290
     0
176
     0
290
     0
176
     0
290
     0
176
     0
290
     0
176
     0
290
     0
176
     0
 90
       50
176
     0
 40
0.0
176
     0
 40
1.0
176
     0
 90
        0
176
     0
 62
    18
420
        0
176
     0
 90
       50
176
     0
 90
        3
176
     0
 62
     5
420
      255
176
     0
290
     0
176
     0
 90
       50
176
     0
 90
       50
176
     0
 90
       50
176
     0
290
     0
176
     0
 90
       50
176
     0
 62
   256
176
     0
 40
1.0
176
     0
 90
        2
176
     0
  1
strokes_ogs.tif
176
     0
290
     0
176
     0
 40
1.0
176
     0
 40
1.0
176
     0
1001
ACAD
1000
AcDbSavedByObjectVersion
1070
     0
  0
VISUALSTYLE
  5
33
102
{ACAD_REACTORS
330
29
102
}
330
29
100
AcDbVisualStyle
  2
Realistic
 70
     8
177
     3
291
     0
 70
    58
 90
        2
176
     1
 90
        3
176
     1
 90
        0
176
     1
 90
        2
176
     1
 40
0.6
176
     1
 40
30.0
176
     1
 62
     7
420
 16777215
176
     1
 90
        0
176
     1
 90
        0
176
     1
 62
     7
176
     1
 62
   257
176
     1
 90
        1
176
     1
 90
        1
176
     1
 40
1.0
176
     1
 90
        8
176
     1
 62
   257
176
     1
 40
1.0
176
     1
 90
        1
176
     1
 90
        6
176
     1
 90
        2
176
     1
 62
     7
176
     1
 90
        3
176
     1
 90
        0
176
     1
 90
        0
176
     1
290
     0
176
     1
 90
       13
176
     1
 40
0.0
176
     1
 90
        0
176
     1
290
     0
176
     1
290
     1
176
     1
290
     1
176
     1
290
     0
176
     1
290
     0
176
     1
290
     0
176
     1
290
     0
176
     1
290
     0
176
     1
290
     0
176
     1
 90
       50
176
     1
 40
0.0
176
     1
 40
1.0
176
     1
 90
        0
176
     1
 62
    18
420
        0
176
     1
 90
       50
176
     1
 90
        3
176
     1
 62
     5
420
      255
176
     1
290
     0
176
     1
 90
       50
176
     1
 90
       50
176
     1
 90
       50
176
     1
290
     0
176
     1
 90
       50
176
     1
 62
   256
176
     0
 40
1.0
176
     0
 90
        2
176
     1
  1
strokes_ogs.tif
176
     1
290
     0
176
     1
 40
1.0
176
     1
 40
1.0
176
     1
1001
ACAD
1000
AcDbSavedByObjectVersion
1070
     0
  0
VISUALSTYLE
  5
3E
102
{ACAD_REACTORS
330
29
102
}
330
29
100
AcDbVisualStyle
  2
Shaded
 70
    27
177
     3
291
     0
 70
    58
 90
        2
176
     1
 90
        2
176
     1
 90
        1
176
     1
 90
        2
176
     1
 40
0.6
176
     1
 40
30.0
176
     1
 62
     7
420
 16777215
176
     1
 90
        0
176
     1
 90
        4
176
     1
 62
     7
176
     1
 62
   257
176
     1
 90
        1
176
     1
 90
        1
176
     1
 40
1.0
176
     1
 90
        8
176
     1
 62
   257
176
     1
 40
1.0
176
     1
 90
        1
176
     1
 90
        6
176
     1
 90
        2
176
     1
 62
     8
420
  7895160
176
     1
 90
        3
176
     1
 90
        0
176
     1
 90
        0
176
     1
290
     0
176
     1
 90
        5
176
     1
 40
0.0
176
     1
 90
        0
176
     1
290
     0
176
     1
290
     1
176
     1
290
     1
176
     1
290
     0
176
     1
290
     0
176
     1
290
     0
176
     1
290
     0
176
     1
290
     0
176
     1
290
     0
176
     1
 90
       50
176
     1
 40
0.0
176
     1
 40
1.0
176
     1
 90
        0
176
     1
 62
    18
420
        0
176
     1
 90
       50
176
     1
 90
        3
176
     1
 62
     5
420
      255
176
     1
290
     0
176
     1
 90
       50
176
     1
 90
       50
176
     1
 90
       50
176
     1
290
     0
176
     1
 90
       50
176
     1
 62
   256
176
     0
 40
1.0
176
     0
 90
        2
176
     1
  1
strokes_ogs.tif
176
     1
290
     0
176
     1
 40
1.0
176
     1
 40
1.0
176
     1
1001
ACAD
1000
AcDbSavedByObjectVersion
1070
     0
  0
VISUALSTYLE
  5
3D
102
{ACAD_REACTORS
330
29
102
}
330
29
100
AcDbVisualStyle
  2
Shaded with edges
 70
    26
177
     3
291
     0
 70
    58
 90
        2
176
     1
 90
        2
176
     1
 90
        1
176
     1
 90
        2
176
     1
 40
0.6
176
     1
 40
30.0
176
     1
 62
     7
420
 16777215
176
     1
 90
        1
176
     1
 90
        2
176
     1
 62
     7
176
     1
 62
   257
176
     1
 90
        2
176
     1
 90
        1
176
     1
 40
1.0
176
     1
 90
        8
176
     1
 62
   257
176
     1
 40
1.0
176
     1
 90
        1
176
     1
 90
        6
176
     1
 90
        2
176
     1
 62
     7
176
     1
 90
        3
176
     1
 90
        0
176
     1
 90
        0
176
     1
290
     0
176
     1
 90
        5
176
     1
 40
0.0
176
     1
 90
        0
176
     1
290
     0
176
     1
290
     1
176
     1
290
     1
176
     1
290
     0
176
     1
290
     0
176
     1
290
     0
176
     1
290
     0
176
     1
290
     0
176
     1
290
     0
176
     1
 90
       50
176
     1
 40
0.0
176
     1
 40
1.0
176
     1
 90
        0
176
     1
 62
    18
420
        0
176
     1
 90
       50
176
     1
 90
        3
176
     1
 62
     5
420
      255
176
     1
290
     0
176
     1
 90
       50
176
     1
 90
       50
176
     1
 90
       50
176
     1
290
     0
176
     1
 90
       50
176
     1
 62
   256
176
     0
 40
1.0
176
     0
 90
        2
176
     1
  1
strokes_ogs.tif
176
     1
290
     0
176
     1
 40
1.0
176
     1
 40
1.0
176
     1
1001
ACAD
1000
AcDbSavedByObjectVersion
1070
     0
  0
VISUALSTYLE
  5
3A
102
{ACAD_REACTORS
330
29
102
}
330
29
100
AcDbVisualStyle
  2
Shades of Gray
 70
    23
177
     3
291
     0
 70
    58
 90
        2
176
     1
 90
        2
176
     1
 90
        3
176
     1
 90
        0
176
     1
 40
0.6
176
     1
 40
30.0
176
     1
 62
     7
420
 16777215
176
     1
 90
        2
176
     1
 90
        2
176
     1
 62
     7
176
     1
 62
     7
176
     1
 90
        1
176
     1
 90
        1
176
     1
 40
40.0
176
     1
 90
        8
176
     1
 62
     7
176
     1
 40
1.0
176
     1
 90
        1
176
     1
 90
        6
176
     1
 90
        2
176
     1
 62
     7
176
     1
 90
        3
176
     1
 90
        0
176
     1
 90
        0
176
     1
290
     0
176
     1
 90
        1
176
     1
 40
0.0
176
     1
 90
        0
176
     1
290
     0
176
     1
290
     1
176
     1
290
     1
176
     1
290
     0
176
     1
290
     0
176
     1
290
     0
176
     1
290
     0
176
     1
290
     0
176
     1
290
     0
176
     1
 90
       50
176
     1
 40
0.0
176
     1
 40
1.0
176
     1
 90
        0
176
     1
 62
    18
420
        0
176
     1
 90
       50
176
     1
 90
        3
176
     1
 62
     5
420
      255
176
     1
290
     0
176
     1
 90
       50
176
     1
 90
       50
176
     1
 90
       50
176
     1
290
     0
176
     1
 90
       50
176
     1
 62
   256
176
     0
 40
1.0
176
     0
 90
        2
176
     1
  1
strokes_ogs.tif
176
     1
290
     0
176
     1
 40
1.0
176
     1
 40
1.0
176
     1
1001
ACAD
1000
AcDbSavedByObjectVersion
1070
     0
  0
VISUALSTYLE
  5
3B
102
{ACAD_REACTORS
330
29
102
}
330
29
100
AcDbVisualStyle
  2
Sketchy
 70
    24
177
     3
291
     0
 70
    58
 90
        1
176
     1
 90
        2
176
     1
 90
        2
176
     1
 90
        0
176
     1
 40
0.6
176
     1
 40
30.0
176
     1
 62
     7
420
 16777215
176
     1
 90
        2
176
     1
 90
        2
176
     1
 62
     7
176
     1
 62
     7
176
     1
 90
        1
176
     1
 90
        1
176
     1
 40
40.0
176
     1
 90
       11
176
     1
 62
     7
176
     1
 40
1.0
176
     1
 90
        1
176
     1
 90
        6
176
     1
 90
        2
176
     1
 62
     7
176
     1
 90
        6
176
     1
 90
        0
176
     1
 90
        0
176
     1
290
     0
176
     1
 90
        1
176
     1
 40
0.0
176
     1
 90
        0
176
     1
290
     0
176
     1
290
     1
176
     1
290
     1
176
     1
290
     0
176
     1
290
     0
176
     1
290
     0
176
     1
290
     0
176
     1
290
     0
176
     1
290
     0
176
     1
 90
       50
176
     1
 40
0.0
176
     1
 40
1.0
176
     1
 90
        0
176
     1
 62
    18
420
        0
176
     1
 90
       50
176
     1
 90
        3
176
     1
 62
     5
420
      255
176
     1
290
     0
176
     1
 90
       50
176
     1
 90
       50
176
     1
 90
       50
176
     1
290
     0
176
     1
 90
       50
176
     1
 62
   256
176
     0
 40
1.0
176
     0
 90
        2
176
     1
  1
strokes_ogs.tif
176
     1
290
     0
176
     1
 40
1.0
176
     1
 40
1.0
176
     1
1001
ACAD
1000
AcDbSavedByObjectVersion
1070
     0
  0
VISUALSTYLE
  5
36
102
{ACAD_REACTORS
330
29
102
}
330
29
100
AcDbVisualStyle
  2
Thicken
 70
    13
177
     3
291
     1
 70
    58
 90
        2
176
     1
 90
        2
176
     1
 90
        0
176
     1
 90
        0
176
     1
 40
0.6
176
     1
 40
30.0
176
     1
 62
     7
420
 16777215
176
     1
 90
        1
176
     1
 90
        4
176
     1
 62
     7
176
     1
 62
   257
176
     1
 90
        1
176
     1
 90
        1
176
     1
 40
1.0
176
     1
 90
       12
176
     1
 62
     7
176
     1
 40
1.0
176
     1
 90
        1
176
     1
 90
        6
176
     1
 90
        2
176
     1
 62
     7
176
     1
 90
        5
176
     1
 90
        0
176
     1
 90
        0
176
     1
290
     0
176
     1
 90
        1
176
     1
 40
0.0
176
     1
 90
        0
176
     1
290
     0
176
     1
290
     1
176
     1
290
     1
176
     1
290
     0
176
     1
290
     0
176
     1
290
     0
176
     1
290
     0
176
     1
290
     0
176
     1
290
     0
176
     1
 90
       50
176
     1
 40
0.0
176
     1
 40
1.0
176
     1
 90
        0
176
     1
 62
    18
420
        0
176
     1
 90
       50
176
     1
 90
        3
176
     1
 62
     5
420
      255
176
     1
290
     0
176
     1
 90
       50
176
     1
 90
       50
176
     1
 90
       50
176
     1
290
     0
176
     1
 90
       50
176
     1
 62
   256
176
     0
 40
1.0
176
     0
 90
        2
176
     1
  1
strokes_ogs.tif
176
     1
290
     0
176
     1
 40
1.0
176
     1
 40
1.0
176
     1
1001
ACAD
1000
AcDbSavedByObjectVersion
1070
     0
  0
VISUALSTYLE
  5
30
102
{ACAD_REACTORS
330
29
102
}
330
29
100
AcDbVisualStyle
  2
Wireframe
 70
     5
177
     3
291
     0
 70
    58
 90
        0
176
     1
 90
        2
176
     1
 90
        0
176
     1
 90
        0
176
     1
 40
0.6
176
     1
 40
30.0
176
     1
 62
     7
420
 16777215
176
     1
 90
        1
176
     1
 90
        4
176
     1
 62
     7
176
     1
 62
   257
176
     1
 90
        1
176
     1
 90
        1
176
     1
 40
1.0
176
     1
 90
        0
176
     1
 62
   257
176
     1
 40
1.0
176
     1
 90
        1
176
     1
 90
        6
176
     1
 90
        2
176
     1
 62
     7
176
     1
 90
        3
176
     1
 90
        0
176
     1
 90
        0
176
     1
290
     0
176
     1
 90
        1
176
     1
 40
0.0
176
     1
 90
        0
176
     1
290
     0
176
     1
290
     1
176
     1
290
     1
176
     1
290
     0
176
     1
290
     0
176
     1
290
     0
176
     1
290
     0
176
     1
290
     0
176
     1
290
     0
176
     1
 90
       50
176
     1
 40
0.0
176
     1
 40
1.0
176
     1
 90
        0
176
     1
 62
    18
420
        0
176
     1
 90
       50
176
     1
 90
        3
176
     1
 62
     5
420
      255
176
     1
290
     0
176
     1
 90
       50
176
     1
 90
       50
176
     1
 90
       50
176
     1
290
     0
176
     1
 90
       50
176
     1
 62
   256
176
     0
 40
1.0
176
     0
 90
        2
176
     1
  1
strokes_ogs.tif
176
     1
290
     0
176
     1
 40
1.0
176
     1
 40
1.0
176
     1
1001
ACAD
1000
AcDbSavedByObjectVersion
1070
     0
  0
VISUALSTYLE
  5
3C
102
{ACAD_REACTORS
330
29
102
}
330
29
100
AcDbVisualStyle
  2
X-Ray
 70
    25
177
     3
291
     0
 70
    58
 90
        2
176
     1
 90
        2
176
     1
 90
        1
176
     1
 90
        1
176
     1
 40
0.5
176
     1
 40
30.0
176
     1
 62
     7
420
 16777215
176
     1
 90
        1
176
     1
 90
        0
176
     1
 62
     7
176
     1
 62
   257
176
     1
 90
        1
176
     1
 90
        1
176
     1
 40
1.0
176
     1
 90
        8
176
     1
 62
     7
176
     1
 40
1.0
176
     1
 90
        1
176
     1
 90
        6
176
     1
 90
        2
176
     1
 62
     7
176
     1
 90
        3
176
     1
 90
        0
176
     1
 90
        0
176
     1
290
     0
176
     1
 90
       13
176
     1
 40
0.0
176
     1
 90
        0
176
     1
290
     0
176
     1
290
     1
176
     1
290
     1
176
     1
290
     0
176
     1
290
     0
176
     1
290
     0
176
     1
290
     0
176
     1
290
     0
176
     1
290
     0
176
     1
 90
       50
176
     1
 40
0.0
176
     1
 40
1.0
176
     1
 90
        0
176
     1
 62
    18
420
        0
176
     1
 90
       50
176
     1
 90
        3
176
     1
 62
     5
420
      255
176
     1
290
     0
176
     1
 90
       50
176
     1
 90
       50
176
     1
 90
       50
176
     1
290
     0
176
     1
 90
       50
176
     1
 62
   256
176
     0
 40
1.0
176
     0
 90
        2
176
     1
  1
strokes_ogs.tif
176
     1
290
     0
176
     1
 40
1.0
176
     1
 40
1.0
176
     1
1001
ACAD
1000
AcDbSavedByObjectVersion
1070
     0
  0
DICTIONARYVAR
  5
98
102
{ACAD_REACTORS
330
93
102
}
330
93
100
DictionaryVariables
280
     0
  1
1:1
  0
DICTIONARYVAR
  5
95
102
{ACAD_REACTORS
330
93
102
}
330
93
100
DictionaryVariables
280
     0
  1
STANDARD
  0
DICTIONARYVAR
  5
94
102
{ACAD_REACTORS
330
93
102
}
330
93
100
DictionaryVariables
280
     0
  1
STANDARD
  0
DICTIONARYVAR
  5
96
102
{ACAD_REACTORS
330
93
102
}
330
93
100
DictionaryVariables
280
     0
  1
Imperial24
  0
DICTIONARYVAR
  5
97
102
{ACAD_REACTORS
330
93
102
}
330
93
100
DictionaryVariables
280
     0
  1
Imperial24
  0
DICTIONARY
  5
9E
330
6B
100
AcDbDictionary
280
     1
281
     1
  3
ACAD_XREC_ROUNDTRIP
360
9F
  0
DICTIONARY
  5
1A
330
19
100
AcDbDictionary
280
     1
281
     1
  3
BUMPTILE
360
1C
  3
DIFFUSETILE
360
1B
  3
OPACITYTILE
360
1F
  3
REFLECTIONTILE
360
1E
  3
REFRACTIONTILE
360
20
  3
SPECULARTILE
360
1D
  0
DICTIONARY
  5
12
330
11
100
AcDbDictionary
280
     1
281
     1
  3
BUMPTILE
360
14
  3
DIFFUSETILE
360
13
  3
OPACITYTILE
360
17
  3
REFLECTIONTILE
360
16
  3
REFRACTIONTILE
360
18
  3
SPECULARTILE
360
15
  0
DICTIONARY
  5
22
330
21
100
AcDbDictionary
280
     1
281
     1
  3
BUMPTILE
360
24
  3
DIFFUSETILE
360
23
  3
OPACITYTILE
360
27
  3
REFLECTIONTILE
360
26
  3
REFRACTIONTILE
360
28
  3
SPECULARTILE
360
25
  0
DICTIONARY
  5
9C
330
69
100
AcDbDictionary
280
     1
281
     1
  3
ACAD_XREC_ROUNDTRIP
360
9D
  0
DICTIONARY
  5
99
330
65
100
AcDbDictionary
280
     1
281
     1
  3
ACAD_ROUNDTRIP_2008_TABLESTYLE_CELLSTYLEMAP
360
9A
  0
XRECORD
  5
9F
102
{ACAD_REACTORS
330
9E
102
}
330
9E
100
AcDbXrecord
280
     1
102
DISPLAYNAME
  1
Imperial24
102
FLAGS
 90
        0
  0
XRECORD
  5
1C
102
{ACAD_REACTORS
330
1A
102
}
330
1A
100
AcDbXrecord
280
     1
270
     1
271
     1
  0
XRECORD
  5
1B
102
{ACAD_REACTORS
330
1A
102
}
330
1A
100
AcDbXrecord
280
     1
270
     1
271
     1
  0
XRECORD
  5
1F
102
{ACAD_REACTORS
330
1A
102
}
330
1A
100
AcDbXrecord
280
     1
270
     1
271
     1
  0
XRECORD
  5
1E
102
{ACAD_REACTORS
330
1A
102
}
330
1A
100
AcDbXrecord
280
     1
270
     1
271
     1
  0
XRECORD
  5
20
102
{ACAD_REACTORS
330
1A
102
}
330
1A
100
AcDbXrecord
280
     1
270
     1
271
     1
  0
XRECORD
  5
1D
102
{ACAD_REACTORS
330
1A
102
}
330
1A
100
AcDbXrecord
280
     1
270
     1
271
     1
  0
XRECORD
  5
14
102
{ACAD_REACTORS
330
12
102
}
330
12
100
AcDbXrecord
280
     1
270
     1
271
     1
  0
XRECORD
  5
13
102
{ACAD_REACTORS
330
12
102
}
330
12
100
AcDbXrecord
280
     1
270
     1
271
     1
  0
XRECORD
  5
17
102
{ACAD_REACTORS
330
12
102
}
330
12
100
AcDbXrecord
280
     1
270
     1
271
     1
  0
XRECORD
  5
16
102
{ACAD_REACTORS
330
12
102
}
330
12
100
AcDbXrecord
280
     1
270
     1
271
     1
  0
XRECORD
  5
18
102
{ACAD_REACTORS
330
12
102
}
330
12
100
AcDbXrecord
280
     1
270
     1
271
     1
  0
XRECORD
  5
15
102
{ACAD_REACTORS
330
12
102
}
330
12
100
AcDbXrecord
280
     1
270
     1
271
     1
  0
XRECORD
  5
24
102
{ACAD_REACTORS
330
22
102
}
330
22
100
AcDbXrecord
280
     1
270
     1
271
     1
  0
XRECORD
  5
23
102
{ACAD_REACTORS
330
22
102
}
330
22
100
AcDbXrecord
280
     1
270
     1
271
     1
  0
XRECORD
  5
27
102
{ACAD_REACTORS
330
22
102
}
330
22
100
AcDbXrecord
280
     1
270
     1
271
     1
  0
XRECORD
  5
26
102
{ACAD_REACTORS
330
22
102
}
330
22
100
AcDbXrecord
280
     1
270
     1
271
     1
  0
XRECORD
  5
28
102
{ACAD_REACTORS
330
22
102
}
330
22
100
AcDbXrecord
280
     1
270
     1
271
     1
  0
XRECORD
  5
25
102
{ACAD_REACTORS
330
22
102
}
330
22
100
AcDbXrecord
280
     1
270
     1
271
     1
  0
XRECORD
  5
9D
102
{ACAD_REACTORS
330
9C
102
}
330
9C
100
AcDbXrecord
280
     1
102
DISPLAYNAME
  1
Imperial24
102
FLAGS
 90
        0
  0
CELLSTYLEMAP
  5
9A
102
{ACAD_REACTORS
330
99
102
}
330
99
100
AcDbCellStyleMap
 90
        3
300
CELLSTYLE
  1
TABLEFORMAT_BEGIN
 90
        5
170
     1
 91
        0
 92
    32768
 62
   257
 93
        1
300
CONTENTFORMAT
  1
CONTENTFORMAT_BEGIN
 90
        0
 91
        0
 92
      512
 93
        0
300

 40
0.0
140
1.0
 94
        5
 62
     0
340
55
144
0.25
309
CONTENTFORMAT_END
171
     0
 94
        0
309
TABLEFORMAT_END
  1
CELLSTYLE_BEGIN
 90
        1
 91
        1
300
_TITLE
309
CELLSTYLE_END
300
CELLSTYLE
  1
TABLEFORMAT_BEGIN
 90
        5
170
     1
 91
        0
 92
        0
 62
   257
 93
        1
300
CONTENTFORMAT
  1
CONTENTFORMAT_BEGIN
 90
        0
 91
        0
 92
      512
 93
        0
300

 40
0.0
140
1.0
 94
        5
 62
     0
340
55
144
0.18
309
CONTENTFORMAT_END
171
     0
 94
        0
309
TABLEFORMAT_END
  1
CELLSTYLE_BEGIN
 90
        2
 91
        1
300
_HEADER
309
CELLSTYLE_END
300
CELLSTYLE
  1
TABLEFORMAT_BEGIN
 90
        5
170
     1
 91
        0
 92
        0
 62
   257
 93
        1
300
CONTENTFORMAT
  1
CONTENTFORMAT_BEGIN
 90
        0
 91
        0
 92
      512
 93
        0
300

 40
0.0
140
1.0
 94
        2
 62
     0
340
55
144
0.18
309
CONTENTFORMAT_END
171
     0
 94
        0
309
TABLEFORMAT_END
  1
CELLSTYLE_BEGIN
 90
        3
 91
        2
300
_DATA
309
CELLSTYLE_END
  0
ENDSEC
  0
EOF
