  0
SECTION
  2
HEADER
  9
$ACADVER
  1
AC1027
  9
$ACADMAINTVER
 70
   125
  9
$DWGCODEPAGE
  3
ANSI_1251
  9
$REQUIREDVERSIONS
160
                 0
  9
$INSBASE
 10
0.0
 20
0.0
 30
0.0
  9
$EXTMIN
 10
1.000000000000000E+20
 20
1.000000000000000E+20
 30
1.000000000000000E+20
  9
$EXTMAX
 10
-1.000000000000000E+20
 20
-1.000000000000000E+20
 30
-1.000000000000000E+20
  9
$LIMMIN
 10
0.0
 20
0.0
  9
$LIMMAX
 10
12.0
 20
9.0
  9
$ORTHOMODE
 70
     0
  9
$REGENMODE
 70
     1
  9
$FILLMODE
 70
     1
  9
$QTEXTMODE
 70
     0
  9
$MIRRTEXT
 70
     0
  9
$LTSCALE
 40
1.0
  9
$ATTMODE
 70
     1
  9
$TEXTSIZE
 40
0.2
  9
$TRACEWID
 40
0.05
  9
$TEXTSTYLE
  7
Standard
  9
$CLAYER
  8
0
  9
$CELTYPE
  6
ByLayer
  9
$CECOLOR
 62
   256
  9
$CELTSCALE
 40
1.0
  9
$DISPSILH
 70
     0
  9
$DIMSCALE
 40
1.0
  9
$DIMASZ
 40
0.18
  9
$DIMEXO
 40
0.0625
  9
$DIMDLI
 40
0.38
  9
$DIMRND
 40
0.0
  9
$DIMDLE
 40
0.0
  9
$DIMEXE
 40
0.18
  9
$DIMTP
 40
0.0
  9
$DIMTM
 40
0.0
  9
$DIMTXT
 40
0.18
  9
$DIMCEN
 40
0.09
  9
$DIMTSZ
 40
0.0
  9
$DIMTOL
 70
     0
  9
$DIMLIM
 70
     0
  9
$DIMTIH
 70
     1
  9
$DIMTOH
 70
     1
  9
$DIMSE1
 70
     0
  9
$DIMSE2
 70
     0
  9
$DIMTAD
 70
     0
  9
$DIMZIN
 70
     0
  9
$DIMBLK
  1

  9
$DIMASO
 70
     1
  9
$DIMSHO
 70
     1
  9
$DIMPOST
  1

  9
$DIMAPOST
  1

  9
$DIMALT
 70
     0
  9
$DIMALTD
 70
     2
  9
$DIMALTF
 40
25.4
  9
$DIMLFAC
 40
1.0
  9
$DIMTOFL
 70
     0
  9
$DIMTVP
 40
0.0
  9
$DIMTIX
 70
     0
  9
$DIMSOXD
 70
     0
  9
$DIMSAH
 70
     0
  9
$DIMBLK1
  1

  9
$DIMBLK2
  1

  9
$DIMSTYLE
  2
Standard
  9
$DIMCLRD
 70
     0
  9
$DIMCLRE
 70
     0
  9
$DIMCLRT
 70
     0
  9
$DIMTFAC
 40
1.0
  9
$DIMGAP
 40
0.09
  9
$DIMJUST
 70
     0
  9
$DIMSD1
 70
     0
  9
$DIMSD2
 70
     0
  9
$DIMTOLJ
 70
     1
  9
$DIMTZIN
 70
     0
  9
$DIMALTZ
 70
     0
  9
$DIMALTTZ
 70
     0
  9
$DIMUPT
 70
     0
  9
$DIMDEC
 70
     4
  9
$DIMTDEC
 70
     4
  9
$DIMALTU
 70
     2
  9
$DIMALTTD
 70
     2
  9
$DIMTXSTY
  7
Standard
  9
$DIMAUNIT
 70
     0
  9
$DIMADEC
 70
     0
  9
$DIMALTRND
 40
0.0
  9
$DIMAZIN
 70
     0
  9
$DIMDSEP
 70
    46
  9
$DIMATFIT
 70
     3
  9
$DIMFRAC
 70
     0
  9
$DIMLDRBLK
  1

  9
$DIMLUNIT
 70
     2
  9
$DIMLWD
 70
    -2
  9
$DIMLWE
 70
    -2
  9
$DIMTMOVE
 70
     0
  9
$DIMFXL
 40
1.0
  9
$DIMFXLON
 70
     0
  9
$DIMJOGANG
 40
0.7853981633974483
  9
$DIMTFILL
 70
     0
  9
$DIMTFILLCLR
 70
     0
  9
$DIMARCSYM
 70
     0
  9
$DIMLTYPE
  6

  9
$DIMLTEX1
  6

  9
$DIMLTEX2
  6

  9
$DIMTXTDIRECTION
 70
     0
  9
$LUNITS
 70
     2
  9
$LUPREC
 70
     4
  9
$SKETCHINC
 40
0.1
  9
$FILLETRAD
 40
0.0
  9
$AUNITS
 70
     0
  9
$AUPREC
 70
     0
  9
$MENU
  1
.
  9
$ELEVATION
 40
0.0
  9
$PELEVATION
 40
0.0
  9
$THICKNESS
 40
0.0
  9
$LIMCHECK
 70
     0
  9
$CHAMFERA
 40
0.0
  9
$CHAMFERB
 40
0.0
  9
$CHAMFERC
 40
0.0
  9
$CHAMFERD
 40
0.0
  9
$SKPOLY
 70
     0
  9
$TDCREATE
 40
2459954.679965278
  9
$TDUCREATE
 40
2459954.596631945
  9
$TDUPDATE
 40
2459954.679965278
  9
$TDUUPDATE
 40
2459954.596631945
  9
$TDINDWG
 40
0.0000000000
  9
$TDUSRTIMER
 40
0.0000000000
  9
$USRTIMER
 70
     1
  9
$ANGBASE
 50
0.0
  9
$ANGDIR
 70
     0
  9
$PDMODE
 70
     0
  9
$PDSIZE
 40
0.0
  9
$PLINEWID
 40
0.0
  9
$SPLFRAME
 70
     0
  9
$SPLINETYPE
 70
     6
  9
$SPLINESEGS
 70
     8
  9
$HANDSEED
  5
94
  9
$SURFTAB1
 70
     6
  9
$SURFTAB2
 70
     6
  9
$SURFTYPE
 70
     6
  9
$SURFU
 70
     6
  9
$SURFV
 70
     6
  9
$UCSBASE
  2

  9
$UCSNAME
  2

  9
$UCSORG
 10
0.0
 20
0.0
 30
0.0
  9
$UCSXDIR
 10
1.0
 20
0.0
 30
0.0
  9
$UCSYDIR
 10
0.0
 20
1.0
 30
0.0
  9
$UCSORTHOREF
  2

  9
$UCSORTHOVIEW
 70
     0
  9
$UCSORGTOP
 10
0.0
 20
0.0
 30
0.0
  9
$UCSORGBOTTOM
 10
0.0
 20
0.0
 30
0.0
  9
$UCSORGLEFT
 10
0.0
 20
0.0
 30
0.0
  9
$UCSORGRIGHT
 10
0.0
 20
0.0
 30
0.0
  9
$UCSORGFRONT
 10
0.0
 20
0.0
 30
0.0
  9
$UCSORGBACK
 10
0.0
 20
0.0
 30
0.0
  9
$PUCSBASE
  2

  9
$PUCSNAME
  2

  9
$PUCSORG
 10
0.0
 20
0.0
 30
0.0
  9
$PUCSXDIR
 10
1.0
 20
0.0
 30
0.0
  9
$PUCSYDIR
 10
0.0
 20
1.0
 30
0.0
  9
$PUCSORTHOREF
  2

  9
$PUCSORTHOVIEW
 70
     0
  9
$PUCSORGTOP
 10
0.0
 20
0.0
 30
0.0
  9
$PUCSORGBOTTOM
 10
0.0
 20
0.0
 30
0.0
  9
$PUCSORGLEFT
 10
0.0
 20
0.0
 30
0.0
  9
$PUCSORGRIGHT
 10
0.0
 20
0.0
 30
0.0
  9
$PUCSORGFRONT
 10
0.0
 20
0.0
 30
0.0
  9
$PUCSORGBACK
 10
0.0
 20
0.0
 30
0.0
  9
$USERI1
 70
     0
  9
$USERI2
 70
     0
  9
$USERI3
 70
     0
  9
$USERI4
 70
     0
  9
$USERI5
 70
     0
  9
$USERR1
 40
0.0
  9
$USERR2
 40
0.0
  9
$USERR3
 40
0.0
  9
$USERR4
 40
0.0
  9
$USERR5
 40
0.0
  9
$WORLDVIEW
 70
     1
  9
$SHADEDGE
 70
     3
  9
$SHADEDIF
 70
    70
  9
$TILEMODE
 70
     1
  9
$MAXACTVP
 70
    64
  9
$PINSBASE
 10
0.0
 20
0.0
 30
0.0
  9
$PLIMCHECK
 70
     0
  9
$PEXTMIN
 10
1.000000000000000E+20
 20
1.000000000000000E+20
 30
1.000000000000000E+20
  9
$PEXTMAX
 10
-1.000000000000000E+20
 20
-1.000000000000000E+20
 30
-1.000000000000000E+20
  9
$PLIMMIN
 10
0.0
 20
0.0
  9
$PLIMMAX
 10
12.0
 20
9.0
  9
$UNITMODE
 70
     0
  9
$VISRETAIN
 70
     1
  9
$PLINEGEN
 70
     0
  9
$PSLTSCALE
 70
     1
  9
$TREEDEPTH
 70
  3020
  9
$CMLSTYLE
  2
Standard
  9
$CMLJUST
 70
     0
  9
$CMLSCALE
 40
1.0
  9
$PROXYGRAPHICS
 70
     1
  9
$MEASUREMENT
 70
     0
  9
$CELWEIGHT
370
    -1
  9
$ENDCAPS
280
     0
  9
$JOINSTYLE
280
     0
  9
$LWDISPLAY
290
     1
  9
$INSUNITS
 70
     1
  9
$HYPERLINKBASE
  1

  9
$STYLESHEET
  1

  9
$XEDIT
290
     1
  9
$CEPSNTYPE
380
     0
  9
$PSTYLEMODE
290
     1
  9
$FINGERPRINTGUID
  2
{A9710D9A-78E0-714D-B699-0FBDD33F86F4}
  9
$VERSIONGUID
  2
{9D3D53FD-CCFF-0A4A-AF49-8D19F276B900}
  9
$EXTNAMES
290
     1
  9
$PSVPSCALE
 40
0.0
  9
$OLESTARTUP
290
     0
  9
$SORTENTS
280
   127
  9
$INDEXCTL
280
     0
  9
$HIDETEXT
280
     1
  9
$XCLIPFRAME
280
     2
  9
$HALOGAP
280
     0
  9
$OBSCOLOR
 70
   257
  9
$OBSLTYPE
280
     0
  9
$INTERSECTIONDISPLAY
280
     0
  9
$INTERSECTIONCOLOR
 70
   257
  9
$DIMASSOC
280
     2
  9
$PROJECTNAME
  1

  9
$CAMERADISPLAY
290
     0
  9
$LENSLENGTH
 40
50.0
  9
$CAMERAHEIGHT
 40
0.0
  9
$STEPSPERSEC
 40
2.0
  9
$STEPSIZE
 40
6.0
  9
$3DDWFPREC
 40
2.0
  9
$PSOLWIDTH
 40
0.25
  9
$PSOLHEIGHT
 40
4.0
  9
$LOFTANG1
 40
1.570796326794896
  9
$LOFTANG2
 40
1.570796326794896
  9
$LOFTMAG1
 40
0.0
  9
$LOFTMAG2
 40
0.0
  9
$LOFTPARAM
 70
     7
  9
$LOFTNORMALS
280
     1
  9
$LATITUDE
 40
37.795
  9
$LONGITUDE
 40
-122.394
  9
$NORTHDIRECTION
 40
0.0
  9
$TIMEZONE
 70
 -8000
  9
$LIGHTGLYPHDISPLAY
280
     1
  9
$TILEMODELIGHTSYNCH
280
     1
  9
$CMATERIAL
347
11
  9
$SOLIDHIST
280
     0
  9
$SHOWHIST
280
     1
  9
$DWFFRAME
280
     2
  9
$DGNFRAME
280
     0
  9
$REALWORLDSCALE
290
     1
  9
$INTERFERECOLOR
 62
     1
  9
$INTERFEREOBJVS
345
33
  9
$INTERFEREVPVS
346
30
  9
$CSHADOW
280
     0
  9
$SHADOWPLANELOCATION
 40
0.0
  0
ENDSEC
  0
SECTION
  2
CLASSES
  0
CLASS
  1
ACDBDICTIONARYWDFLT
  2
AcDbDictionaryWithDefault
  3
ObjectDBX Classes
 90
        0
 91
        1
280
     0
281
     0
  0
CLASS
  1
MATERIAL
  2
AcDbMaterial
  3
ObjectDBX Classes
 90
     1153
 91
        3
280
     0
281
     0
  0
CLASS
  1
VISUALSTYLE
  2
AcDbVisualStyle
  3
ObjectDBX Classes
 90
     4095
 91
       24
280
     0
281
     0
  0
CLASS
  1
SCALE
  2
AcDbScale
  3
ObjectDBX Classes
 90
     1153
 91
       17
280
     0
281
     0
  0
CLASS
  1
TABLESTYLE
  2
AcDbTableStyle
  3
ObjectDBX Classes
 90
     4095
 91
        1
280
     0
281
     0
  0
CLASS
  1
MLEADERSTYLE
  2
AcDbMLeaderStyle
  3
ACDB_MLEADERSTYLE_CLASS
 90
     4095
 91
        1
280
     0
281
     0
  0
CLASS
  1
ACDBSECTIONVIEWSTYLE
  2
AcDbSectionViewStyle
  3
ObjectDBX Classes
 90
     1025
 91
        1
280
     0
281
     0
  0
CLASS
  1
ACDBDETAILVIEWSTYLE
  2
AcDbDetailViewStyle
  3
ObjectDBX Classes
 90
     1025
 91
        1
280
     0
281
     0
  0
CLASS
  1
DICTIONARYVAR
  2
AcDbDictionaryVar
  3
ObjectDBX Classes
 90
        0
 91
        5
280
     0
281
     0
  0
CLASS
  1
CELLSTYLEMAP
  2
AcDbCellStyleMap
  3
ObjectDBX Classes
 90
     1152
 91
        1
280
     0
281
     0
  0
ENDSEC
  0
SECTION
  2
TABLES
  0
TABLE
  2
VPORT
  5
8
330
0
100
AcDbSymbolTable
 70
     1
1001
ACAD
1000
DbSaveVer
1071
      278
  0
VPORT
  5
57
330
8
100
AcDbSymbolTableRecord
100
AcDbViewportTableRecord
  2
*Active
 70
     0
 10
0.0
 20
0.0
 11
1.0
 21
1.0
 12
0.0
 22
0.0
 13
0.0
 23
0.0
 14
1.0
 24
1.0
 15
0.0
 25
0.0
 16
0.0
 26
0.0
 36
1.0
 17
5.999999999999993
 27
-6.0
 37
0.0
 40
12.24
 41
1.000000000000001
 42
50.0
 43
0.0
 44
0.0
 50
0.0
 51
0.0
 71
     0
 72
   100
 73
     1
 74
     1
 75
     0
 76
     0
 77
     0
 78
     0
281
     0
 65
     1
110
0.0
120
0.0
130
0.0
111
1.0
121
0.0
131
0.0
112
0.0
122
1.0
132
0.0
 79
     0
146
0.0
 60
     3
 61
     5
292
     1
282
     1
141
0.0
142
0.0
 63
   250
421
  3355443
  0
ENDTAB
  0
TABLE
  2
LTYPE
  5
5
330
0
100
AcDbSymbolTable
 70
     1
  0
LTYPE
  5
5B
330
5
100
AcDbSymbolTableRecord
100
AcDbLinetypeTableRecord
  2
ByBlock
 70
     0
  3

 72
    65
 73
     0
 40
0.0
  0
LTYPE
  5
5C
330
5
100
AcDbSymbolTableRecord
100
AcDbLinetypeTableRecord
  2
ByLayer
 70
     0
  3

 72
    65
 73
     0
 40
0.0
  0
LTYPE
  5
5D
330
5
100
AcDbSymbolTableRecord
100
AcDbLinetypeTableRecord
  2
Continuous
 70
     0
  3
Solid line
 72
    65
 73
     0
 40
0.0
  0
ENDTAB
  0
TABLE
  2
LAYER
  5
2
330
0
100
AcDbSymbolTable
 70
     2
  0
LAYER
  5
54
330
2
100
AcDbSymbolTableRecord
100
AcDbLayerTableRecord
  2
0
 70
     0
 62
     7
  6
Continuous
370
    -3
390
F
347
21
348
0
  0
LAYER
  5
78
330
2
100
AcDbSymbolTableRecord
100
AcDbLayerTableRecord
  2
Слой 1
 70
     0
 62
     7
  6
Continuous
370
     0
390
F
347
21
348
0
  0
ENDTAB
  0
TABLE
  2
STYLE
  5
3
330
0
100
AcDbSymbolTable
 70
     2
  0
STYLE
  5
55
330
3
100
AcDbSymbolTableRecord
100
AcDbTextStyleTableRecord
  2
Standard
 70
     0
 40
0.0
 41
1.0
 50
0.0
 71
     0
 42
0.2
  3
txt
  4

  0
STYLE
  5
5A
330
3
100
AcDbSymbolTableRecord
100
AcDbTextStyleTableRecord
  2
Annotative
 70
     0
 40
0.0
 41
1.0
 50
0.0
 71
     0
 42
0.2
  3
txt
  4

1001
AcadAnnotative
1000
AnnotativeData
1002
{
1070
     1
1070
     1
1002
}
  0
ENDTAB
  0
TABLE
  2
VIEW
  5
6
330
0
100
AcDbSymbolTable
 70
     0
  0
ENDTAB
  0
TABLE
  2
UCS
  5
7
330
0
100
AcDbSymbolTable
 70
     0
  0
ENDTAB
  0
TABLE
  2
APPID
  5
9
330
0
100
AcDbSymbolTable
 70
     2
  0
APPID
  5
56
330
9
100
AcDbSymbolTableRecord
100
AcDbRegAppTableRecord
  2
ACAD
 70
     0
  0
APPID
  5
5E
330
9
100
AcDbSymbolTableRecord
100
AcDbRegAppTableRecord
  2
AcadAnnotative
 70
     0
  0
ENDTAB
  0
TABLE
  2
DIMSTYLE
  5
A
330
0
100
AcDbSymbolTable
 70
     2
100
AcDbDimStyleTable
 71
     0
  0
DIMSTYLE
105
58
330
A
100
AcDbSymbolTableRecord
100
AcDbDimStyleTableRecord
  2
Standard
 70
     0
340
55
  0
DIMSTYLE
105
59
330
A
100
AcDbSymbolTableRecord
100
AcDbDimStyleTableRecord
  2
Annotative
 70
     0
340
55
1001
AcadAnnotative
1000
AnnotativeData
1002
{
1070
     1
1070
     1
1002
}
  0
ENDTAB
  0
TABLE
  2
BLOCK_RECORD
  5
1
330
0
100
AcDbSymbolTable
 70
     2
  0
BLOCK_RECORD
  5
70
330
1
100
AcDbSymbolTableRecord
100
AcDbBlockTableRecord
  2
*Model_Space
340
73
 70
     0
280
     1
281
     0
  0
BLOCK_RECORD
  5
6C
330
1
100
AcDbSymbolTableRecord
100
AcDbBlockTableRecord
  2
*Paper_Space
340
6F
 70
     0
280
     1
281
     0
  0
BLOCK_RECORD
  5
74
330
1
100
AcDbSymbolTableRecord
100
AcDbBlockTableRecord
  2
*Paper_Space0
340
77
 70
     0
280
     1
281
     0
  0
BLOCK_RECORD
  5
79
330
1
100
AcDbSymbolTableRecord
100
AcDbBlockTableRecord
  2
Block_0
340
0
102
{BLKREFS
331
7A
102
}
 70
     0
280
     1
281
     0
  0
ENDTAB
  0
ENDSEC
  0
SECTION
  2
BLOCKS
  0
BLOCK
  5
71
330
70
100
AcDbEntity
  8
0
100
AcDbBlockBegin
  2
*Model_Space
 70
     0
 10
0.0
 20
0.0
 30
0.0
  3
*Model_Space
  1

  0
ENDBLK
  5
72
330
70
100
AcDbEntity
  8
0
100
AcDbBlockEnd
  0
BLOCK
  5
6D
330
6C
100
AcDbEntity
 67
     1
  8
0
100
AcDbBlockBegin
  2
*Paper_Space
 70
     0
 10
0.0
 20
0.0
 30
0.0
  3
*Paper_Space
  1

  0
ENDBLK
  5
6E
330
6C
100
AcDbEntity
 67
     1
  8
0
100
AcDbBlockEnd
  0
BLOCK
  5
75
330
74
100
AcDbEntity
 67
     1
  8
0
100
AcDbBlockBegin
  2
*Paper_Space0
 70
     0
 10
0.0
 20
0.0
 30
0.0
  3
*Paper_Space0
  1

  0
ENDBLK
  5
76
330
74
100
AcDbEntity
 67
     1
  8
0
100
AcDbBlockEnd
  0
BLOCK
  5
7B
330
79
100
AcDbEntity
  8
0
100
AcDbBlockBegin
  2
Block_0
 70
     0
 10
0.0
 20
0.0
 30
0.0
  3
Block_0
  1

  0
SPLINE
  5
7D
330
79
100
AcDbEntity
  8
Слой 1
100
AcDbSpline
210
0.0
220
0.0
230
1.0
 70
     9
 71
     3
 72
   329
 73
   325
 74
     0
 42
0.0000000001
 43
0.0000000001
 40
0.0
 40
0.0
 40
0.0
 40
0.0
 40
1.0
 40
1.0
 40
1.0
 40
2.0
 40
2.0
 40
2.0
 40
3.0
 40
3.0
 40
3.0
 40
4.0
 40
4.0
 40
4.0
 40
5.0
 40
5.0
 40
5.0
 40
6.0
 40
6.0
 40
6.0
 40
7.0
 40
7.0
 40
7.0
 40
8.0
 40
8.0
 40
8.0
 40
9.0
 40
9.0
 40
9.0
 40
10.0
 40
10.0
 40
10.0
 40
11.0
 40
11.0
 40
11.0
 40
12.0
 40
12.0
 40
12.0
 40
13.0
 40
13.0
 40
13.0
 40
14.0
 40
14.0
 40
14.0
 40
15.0
 40
15.0
 40
15.0
 40
16.0
 40
16.0
 40
16.0
 40
17.0
 40
17.0
 40
17.0
 40
18.0
 40
18.0
 40
18.0
 40
19.0
 40
19.0
 40
19.0
 40
20.0
 40
20.0
 40
20.0
 40
21.0
 40
21.0
 40
21.0
 40
22.0
 40
22.0
 40
22.0
 40
23.0
 40
23.0
 40
23.0
 40
24.0
 40
24.0
 40
24.0
 40
25.0
 40
25.0
 40
25.0
 40
26.0
 40
26.0
 40
26.0
 40
27.0
 40
27.0
 40
27.0
 40
28.0
 40
28.0
 40
28.0
 40
29.0
 40
29.0
 40
29.0
 40
30.0
 40
30.0
 40
30.0
 40
31.0
 40
31.0
 40
31.0
 40
32.0
 40
32.0
 40
32.0
 40
33.0
 40
33.0
 40
33.0
 40
34.0
 40
34.0
 40
34.0
 40
35.0
 40
35.0
 40
35.0
 40
36.0
 40
36.0
 40
36.0
 40
37.0
 40
37.0
 40
37.0
 40
38.0
 40
38.0
 40
38.0
 40
39.0
 40
39.0
 40
39.0
 40
40.0
 40
40.0
 40
40.0
 40
41.0
 40
41.0
 40
41.0
 40
42.0
 40
42.0
 40
42.0
 40
43.0
 40
43.0
 40
43.0
 40
44.0
 40
44.0
 40
44.0
 40
45.0
 40
45.0
 40
45.0
 40
46.0
 40
46.0
 40
46.0
 40
47.0
 40
47.0
 40
47.0
 40
48.0
 40
48.0
 40
48.0
 40
49.0
 40
49.0
 40
49.0
 40
50.0
 40
50.0
 40
50.0
 40
51.0
 40
51.0
 40
51.0
 40
52.0
 40
52.0
 40
52.0
 40
53.0
 40
53.0
 40
53.0
 40
54.0
 40
54.0
 40
54.0
 40
55.0
 40
55.0
 40
55.0
 40
56.0
 40
56.0
 40
56.0
 40
57.0
 40
57.0
 40
57.0
 40
58.0
 40
58.0
 40
58.0
 40
59.0
 40
59.0
 40
59.0
 40
60.0
 40
60.0
 40
60.0
 40
61.0
 40
61.0
 40
61.0
 40
62.0
 40
62.0
 40
62.0
 40
63.0
 40
63.0
 40
63.0
 40
64.0
 40
64.0
 40
64.0
 40
65.0
 40
65.0
 40
65.0
 40
66.0
 40
66.0
 40
66.0
 40
67.0
 40
67.0
 40
67.0
 40
68.0
 40
68.0
 40
68.0
 40
69.0
 40
69.0
 40
69.0
 40
70.0
 40
70.0
 40
70.0
 40
71.0
 40
71.0
 40
71.0
 40
72.0
 40
72.0
 40
72.0
 40
73.0
 40
73.0
 40
73.0
 40
74.0
 40
74.0
 40
74.0
 40
75.0
 40
75.0
 40
75.0
 40
76.0
 40
76.0
 40
76.0
 40
77.0
 40
77.0
 40
77.0
 40
78.0
 40
78.0
 40
78.0
 40
79.0
 40
79.0
 40
79.0
 40
80.0
 40
80.0
 40
80.0
 40
81.0
 40
81.0
 40
81.0
 40
82.0
 40
82.0
 40
82.0
 40
83.0
 40
83.0
 40
83.0
 40
84.0
 40
84.0
 40
84.0
 40
85.0
 40
85.0
 40
85.0
 40
86.0
 40
86.0
 40
86.0
 40
87.0
 40
87.0
 40
87.0
 40
88.0
 40
88.0
 40
88.0
 40
89.0
 40
89.0
 40
89.0
 40
90.0
 40
90.0
 40
90.0
 40
91.0
 40
91.0
 40
91.0
 40
92.0
 40
92.0
 40
92.0
 40
93.0
 40
93.0
 40
93.0
 40
94.0
 40
94.0
 40
94.0
 40
95.0
 40
95.0
 40
95.0
 40
96.0
 40
96.0
 40
96.0
 40
97.0
 40
97.0
 40
97.0
 40
98.0
 40
98.0
 40
98.0
 40
99.0
 40
99.0
 40
99.0
 40
100.0
 40
100.0
 40
100.0
 40
101.0
 40
101.0
 40
101.0
 40
102.0
 40
102.0
 40
102.0
 40
103.0
 40
103.0
 40
103.0
 40
104.0
 40
104.0
 40
104.0
 40
105.0
 40
105.0
 40
105.0
 40
106.0
 40
106.0
 40
106.0
 40
107.0
 40
107.0
 40
107.0
 40
108.0
 40
108.0
 40
108.0
 40
108.0
 10
5.851364945311388
 20
-10.36268371653101
 30
0.0
 10
5.851364945311388
 20
-10.01004443267523
 30
0.0
 10
5.851799227616689
 20
-9.685895435883619
 30
0.0
 10
5.85095323200763
 20
-9.361750542546815
 30
0.0
 10
5.850805507632558
 20
-9.305244601363382
 30
0.0
 10
5.894277508375694
 20
-9.287506733840093
 30
0.0
 10
5.93068199203833
 20
-9.263451597565916
 30
0.0
 10
6.123780318916942
 20
-9.135849197550214
 30
0.0
 10
6.316205679199709
 20
-9.007158014179822
 30
0.0
 10
6.511504825699375
 20
-8.882997044969972
 30
0.0
 10
6.568271336265903
 20
-8.846909895149286
 30
0.0
 10
6.59051479722143
 20
-8.80552586901922
 30
0.0
 10
6.591489367749368
 20
-8.737931024996997
 30
0.0
 10
6.600104571219262
 20
-8.14044200943878
 30
0.0
 10
6.612435453061
 20
-7.543006338793626
 30
0.0
 10
6.622985435495643
 20
-6.945543311782834
 30
0.0
 10
6.625118548111281
 20
-6.824762221555879
 30
0.0
 10
6.620550035038881
 20
-6.822335028009042
 30
0.0
 10
6.51863252678408
 20
-6.881471283754535
 30
0.0
 10
6.303063681114659
 20
-7.006554846397774
 30
0.0
 10
6.087926382114245
 20
-7.132382502188344
 30
0.0
 10
5.850946392916171
 20
-7.270534884638158
 30
0.0
 10
5.850946392916171
 20
-7.174006580427632
 30
0.0
 10
5.850945709007191
 20
-7.097306853989746
 30
0.0
 10
5.850946392916171
 20
-7.020607127551683
 30
0.0
 10
5.850948444643563
 20
-6.78531023875386
 30
0.0
 10
5.855930722747643
 20
-6.549859470398536
 30
0.0
 10
5.848643670832617
 20
-6.314788955526737
 30
0.0
 10
5.84546896459258
 20
-6.21235783150592
 30
0.0
 10
5.870958942247916
 20
-6.146336662421314
 30
0.0
 10
5.970473193775382
 20
-6.106533150319389
 30
0.0
 10
6.027121388060347
 20
-6.083875240423846
 30
0.0
 10
6.118523793246847
 20
-6.060869904683689
 30
0.0
 10
6.120093364729124
 20
-6.007124220800265
 30
0.0
 10
6.121755263945993
 20
-5.950184681220485
 30
0.0
 10
6.028850310372692
 20
-5.932020738301174
 30
0.0
 10
5.973790837026184
 20
-5.907748802828828
 30
0.0
 10
5.87991815201662
 20
-5.866366828425813
 30
0.0
 10
5.844906791277391
 20
-5.808164108659689
 30
0.0
 10
5.848100646973597
 20
-5.70209732363681
 30
0.0
 10
5.856526407610923
 20
-5.422236231195003
 30
0.0
 10
5.850215294042767
 20
-5.141949747266759
 30
0.0
 10
5.851805382799183
 20
-4.861843815352218
 30
0.0
 10
5.852026969361418
 20
-4.822742677939774
 30
0.0
 10
5.830325848356147
 20
-4.767246186651062
 30
0.0
 10
5.870122521366675
 20
-4.748093995020755
 30
0.0
 10
5.905499089587894
 20
-4.73106876082377
 30
0.0
 10
5.942688700946202
 20
-4.775337515717776
 30
0.0
 10
5.977090014730505
 20
-4.795483427332542
 30
0.0
 10
6.160684740163156
 20
-4.903001467556261
 30
0.0
 10
6.344410092242064
 20
-5.010379306405499
 30
0.0
 10
6.525769118687397
 20
-5.121591139908622
 30
0.0
 10
6.597834676775088
 20
-5.165782613069609
 30
0.0
 10
6.626826269240735
 20
-5.165227962754733
 30
0.0
 10
6.624651438167069
 20
-5.067935048122838
 30
0.0
 10
6.61104848531987
 20
-4.459331141178305
 30
0.0
 10
6.600144921858827
 20
-3.850660211138107
 30
0.0
 10
6.591157671815279
 20
-3.241969789687093
 30
0.0
 10
6.590240549654936
 20
-3.179782273301384
 30
0.0
 10
6.560910422163715
 20
-3.148194903684839
 30
0.0
 10
6.514039392981985
 20
-3.118262936147958
 30
0.0
 10
6.315827477443563
 20
-2.991684348118976
 30
0.0
 10
6.118995006645869
 20
-2.862947684790368
 30
0.0
 10
5.921330218421783
 20
-2.735509081014305
 30
0.0
 10
5.882817926781184
 20
-2.710679075681595
 30
0.0
 10
5.849876759016953
 20
-2.687242535227129
 30
0.0
 10
5.850273426319845
 20
-2.632077055963552
 30
0.0
 10
5.852528958672122
 20
-2.318374771325743
 30
0.0
 10
5.851745882703438
 20
-2.004651285504412
 30
0.0
 10
5.852611711678402
 20
-1.690936690502111
 30
0.0
 10
5.852639068043786
 20
-1.680982734885421
 30
0.0
 10
5.859343429369434
 20
-1.671046902861336
 30
0.0
 10
5.86769464391015
 20
-1.647924276703229
 30
0.0
 10
6.050495350828314
 20
-1.779039576029946
 30
0.0
 10
6.22729338720142
 20
-1.907698957625509
 30
0.0
 10
6.406368157110667
 20
-2.033106351247801
 30
0.0
 10
6.456753111466973
 20
-2.068391959553057
 30
0.0
 10
6.511022669754058
 20
-2.146814795075985
 30
0.0
 10
6.561207238731766
 20
-2.122007016790335
 30
0.0
 10
6.613156977206799
 20
-2.096327254347973
 30
0.0
 10
6.580910661130978
 20
-2.006753280254391
 30
0.0
 10
6.58027188999199
 20
-1.945905199924583
 30
0.0
 10
6.576002929123533
 20
-1.538846239725103
 30
0.0
 10
6.57033127060337
 20
-1.131774969161041
 30
0.0
 10
6.560324312028771
 20
-0.7248257763790839
 30
0.0
 10
6.558321142149907
 20
-0.6433388569201447
 30
0.0
 10
6.578131938284614
 20
-0.6140858401846824
 30
0.0
 10
6.6648208416598
 20
-0.6157026013977176
 30
0.0
 10
6.948572009304825
 20
-0.6209948613207846
 30
0.0
 10
7.23251740714641
 20
-0.620144420301939
 30
0.0
 10
7.516310977158354
 20
-0.6161645820237456
 30
0.0
 10
7.596690818692827
 20
-0.6150371578020845
 30
0.0
 10
7.616060493430747
 20
-0.643562153255036
 30
0.0
 10
7.615066773446338
 20
-0.7201121035907869
 30
0.0
 10
7.609486758751573
 20
-1.149567378438897
 30
0.0
 10
7.608512188223382
 20
-1.579086769768953
 30
0.0
 10
7.607309192041535
 20
-2.008588208484032
 30
0.0
 10
7.607198398760424
 20
-2.048120550610658
 30
0.0
 10
7.586867147768038
 20
-2.105017003914364
 30
0.0
 10
7.621642559852944
 20
-2.123625487776406
 30
0.0
 10
7.664716525474684
 20
-2.146673909792639
 30
0.0
 10
7.699004310340771
 20
-2.092811619400107
 30
0.0
 10
7.733255164113617
 20
-2.068449749875538
 30
0.0
 10
8.043593983587975
 20
-1.847710893042567
 30
0.0
 10
8.352279794664505
 20
-1.624648796851665
 30
0.0
 10
8.661979159090378
 20
-1.403007692881866
 30
0.0
 10
8.694605728648841
 20
-1.379658179865891
 30
0.0
 10
8.723177400901047
 20
-1.348107057433821
 30
0.0
 10
8.772742348195707
 20
-1.340609532480243
 30
0.0
 10
8.86257928535479
 20
-1.616707243887301
 30
0.0
 10
8.951642037364054
 20
-1.893367299587061
 30
0.0
 10
9.043080689735511
 20
-2.169239833908679
 30
0.0
 10
9.064162189056988
 20
-2.232840990492175
 30
0.0
 10
9.015260633631037
 20
-2.245920068935838
 30
0.0
 10
8.979962031051803
 20
-2.269046456594537
 30
0.0
 10
8.555268131654656
 20
-2.547294891277765
 30
0.0
 10
8.131229417216747
 20
-2.826571241402436
 30
0.0
 10
7.704317600469973
 20
-3.10138234873476
 30
0.0
 10
7.634093809704128
 20
-3.146586691335945
 30
0.0
 10
7.603862289962408
 20
-3.193687855944176
 30
0.0
 10
7.602930121801186
 20
-3.280185948668733
 30
0.0
 10
7.596574554138921
 20
-3.870214541344416
 30
0.0
 10
7.583669872526191
 20
-4.460172349423853
 30
0.0
 10
7.573428333115164
 20
-5.050162301233032
 30
0.0
 10
7.572860688526942
 20
-5.082845635250779
 30
0.0
 10
7.55737219817345
 20
-5.126363457906121
 30
0.0
 10
7.584686845421325
 20
-5.145657902638213
 30
0.0
 10
7.621786180772889
 20
-5.171864617074965
 30
0.0
 10
7.652300838899236
 20
-5.128633352350409
 30
0.0
 10
7.681630966390482
 20
-5.110943358466884
 30
0.0
 10
8.189873258379646
 20
-4.804411177280725
 30
0.0
 10
8.696600007709017
 20
-4.495364262176773
 30
0.0
 10
9.205380536193615
 20
-4.189735183013403
 30
0.0
 10
9.266897479664949
 20
-4.152781520308886
 30
0.0
 10
9.291439559248676
 20
-4.110125423173333
 30
0.0
 10
9.295266030901908
 20
-4.038356681653718
 30
0.0
 10
9.322696258794723
 20
-3.523855937100329
 30
0.0
 10
9.355605966738494
 20
-3.009647905659549
 30
0.0
 10
9.383722155501825
 20
-2.495180330699516
 30
0.0
 10
9.386867453648592
 20
-2.437627324618587
 30
0.0
 10
9.401546195576985
 20
-2.408936994130435
 30
0.0
 10
9.461372515648337
 20
-2.396292539946569
 30
0.0
 10
9.709560407875692
 20
-2.343837050660731
 30
0.0
 10
9.957335218981343
 20
-2.28911748015797
 30
0.0
 10
10.20403218927764
 20
-2.230089965966031
 30
0.0
 10
10.29516308253452
 20
-2.208284890771096
 30
0.0
 10
10.30094348260816
 20
-2.245088777373161
 30
0.0
 10
10.29271195216721
 20
-2.320292452561552
 30
0.0
 10
10.2492673077904
 20
-2.717235028723115
 30
0.0
 10
10.20928871494847
 20
-3.114560594004412
 30
0.0
 10
10.16948315111904
 20
-3.511890604695016
 30
0.0
 10
10.16635426679158
 20
-3.543115844420602
 30
0.0
 10
10.14759327119069
 20
-3.585790065148507
 30
0.0
 10
10.18043800776617
 20
-3.604577733206054
 30
0.0
 10
10.21257489837858
 20
-3.622960527050963
 30
0.0
 10
10.24122453627281
 20
-3.585991134436362
 30
0.0
 10
10.26885583345395
 20
-3.569798217666238
 30
0.0
 10
10.63921862274108
 20
-3.352758967339935
 30
0.0
 10
11.00999586096888
 20
-3.136382766927731
 30
0.0
 10
11.37793214061796
 20
-2.915286567567477
 30
0.0
 10
11.4509189243208
 20
-2.871428500113678
 30
0.0
 10
11.48654101592446
 20
-2.872845559857056
 30
0.0
 10
11.53224256047196
 20
-2.952727515535848
 30
0.0
 10
11.67307997021607
 20
-3.198889326928438
 30
0.0
 10
11.8206155861031
 20
-3.441402141090621
 30
0.0
 10
11.97226286375543
 20
-3.68108459726573
 30
0.0
 10
12.01883297291427
 20
-3.754688608969495
 30
0.0
 10
12.00446130619098
 20
-3.781248904433116
 30
0.0
 10
11.93196283361642
 20
-3.820700545280891
 30
0.0
 10
11.54840606914917
 20
-4.029422092614203
 30
0.0
 10
11.16814985020467
 20
-4.244211965770343
 30
0.0
 10
10.78690196300295
 20
-4.457167936560166
 30
0.0
 10
10.75497434858804
 20
-4.475002235272793
 30
0.0
 10
10.72416560953047
 20
-4.494838336045934
 30
0.0
 10
10.67154427227711
 20
-4.52659497317538
 30
0.0
 10
11.11073567768001
 20
-4.720998198698439
 30
0.0
 10
11.53144922586671
 20
-4.907221870875496
 30
0.0
 10
11.96443073625399
 20
-5.098875781645094
 30
0.0
 10
11.76671807439015
 20
-5.327899855786654
 30
0.0
 10
11.57637795308331
 20
-5.546797287253373
 30
0.0
 10
11.38819488121256
 20
-5.767533750404671
 30
0.0
 10
11.34366418911706
 20
-5.819769362901348
 30
0.0
 10
11.30757020020463
 20
-5.781684514474944
 30
0.0
 10
11.27082786542562
 20
-5.76322854235175
 30
0.0
 10
10.81722786220573
 20
-5.535389682754169
 30
0.0
 10
10.36295215675333
 20
-5.308833152798897
 30
0.0
 10
9.911999565824796
 20
-5.075849928630569
 30
0.0
 10
9.828925122268451
 20
-5.032930526475044
 30
0.0
 10
9.767703627546325
 20
-5.034806489253342
 30
0.0
 10
9.686618675685647
 20
-5.0802802920566
 30
0.0
 10
9.178788780909446
 20
-5.365079208507987
 30
0.0
 10
8.66769116824965
 20
-5.644050535155163
 30
0.0
 10
8.157809546045402
 20
-5.925193273330048
 30
0.0
 10
8.125797126896788
 20
-5.942843600483342
 30
0.0
 10
8.094917261287996
 20
-5.962547706792039
 30
0.0
 10
8.064772598008124
 20
-5.980542724153147
 30
0.0
 10
8.069588002281181
 20
-6.024550225754587
 30
0.0
 10
8.104243046357117
 20
-6.028741220980817
 30
0.0
 10
8.128073176523685
 20
-6.041906471976617
 30
0.0
 10
8.657332680375297
 20
-6.334300883366191
 30
0.0
 10
9.187739783768291
 20
-6.624630573054395
 30
0.0
 10
9.715721745341625
 20
-6.919307873162197
 30
0.0
 10
9.780539918244407
 20
-6.955484615080396
 30
0.0
 10
9.828031936927875
 20
-6.949542812449053
 30
0.0
 10
9.890460531286482
 20
-6.917654180855479
 30
0.0
 10
10.34247318138636
 20
-6.686760299117521
 30
0.0
 10
10.79767079636288
 20
-6.462072208940096
 30
0.0
 10
11.24853789864879
 20
-6.228992553582403
 30
0.0
 10
11.33227163061898
 20
-6.185705208308061
 30
0.0
 10
11.37554666552862
 20
-6.19637624266084
 30
0.0
 10
11.43353942518802
 20
-6.267781144516472
 30
0.0
 10
11.57943229131435
 20
-6.447417403831448
 30
0.0
 10
11.73192488066704
 20
-6.622002310219208
 30
0.0
 10
11.8880777517516
 20
-6.792847601414678
 30
0.0
 10
11.95188510694124
 20
-6.862656943240608
 30
0.0
 10
11.96004003955815
 20
-6.892574548685488
 30
0.0
 10
11.86132459390971
 20
-6.935349646011799
 30
0.0
 10
11.50527328734135
 20
-7.089632025590995
 30
0.0
 10
11.15313530888683
 20
-7.252954316217558
 30
0.0
 10
10.79964729378535
 20
-7.413140199515964
 30
0.0
 10
10.76316621229865
 20
-7.429671651312041
 30
0.0
 10
10.7275290746941
 20
-7.448061968157717
 30
0.0
 10
10.69003854331246
 20
-7.466299773264331
 30
0.0
 10
10.71538284832064
 20
-7.514215131706805
 30
0.0
 10
10.75708899565696
 20
-7.52478699923376
 30
0.0
 10
10.79132001606464
 20
-7.543911150589464
 30
0.0
 10
11.17256790326587
 20
-7.756898923154444
 30
0.0
 10
11.55337672079796
 20
-7.970717645327921
 30
0.0
 10
11.93691570362746
 20
-8.179516474394352
 30
0.0
 10
12.00487301949501
 20
-8.216512539465737
 30
0.0
 10
12.01839800669975
 20
-8.242662489443672
 30
0.0
 10
11.97519409834068
 20
-8.311596427566529
 30
0.0
 10
11.82258250879699
 20
-8.555097490439948
 30
0.0
 10
11.67369548844428
 20
-8.801075672227625
 30
0.0
 10
11.52991726938686
 20
-9.049882502229541
 30
0.0
 10
11.48834653606084
 20
-9.121819485398367
 30
0.0
 10
11.45596617379316
 20
-9.133824142579012
 30
0.0
 10
11.3838137592446
 20
-9.089783129429253
 30
0.0
 10
11.01742858553133
 20
-8.866143471967664
 30
0.0
 10
10.64831598215654
 20
-8.646967689480081
 30
0.0
 10
10.27979974755456
 20
-8.42683169855627
 30
0.0
 10
10.24570414115742
 20
-8.406464884288324
 30
0.0
 10
10.21425731486963
 20
-8.377984855861289
 30
0.0
 10
10.15555876097477
 20
-8.375373690754637
 30
0.0
 10
10.17695143895695
 20
-8.588301279315398
 30
0.0
 10
10.19684977546176
 20
-8.795097622412008
 30
0.0
 10
10.21872187375286
 20
-9.001684005402113
 30
0.0
 10
10.24268673401982
 20
-9.228032626977967
 30
0.0
 10
10.26659893328322
 20
-9.454420915283964
 30
0.0
 10
10.29456124248897
 20
-9.68029353609601
 30
0.0
 10
10.30342196934159
 20
-9.751870783055892
 30
0.0
 10
10.27597395981052
 20
-9.763148444818018
 30
0.0
 10
10.21466218908191
 20
-9.750798413520316
 30
0.0
 10
9.958614812987004
 20
-9.699221405527925
 30
0.0
 10
9.702559913891667
 20
-9.647516506526168
 30
0.0
 10
9.445680220370149
 20
-9.600364390686939
 30
0.0
 10
9.388904818984251
 20
-9.589942983171187
 30
0.0
 10
9.387236080676631
 20
-9.558550869614817
 30
0.0
 10
9.384743231851819
 20
-9.514634327929343
 30
0.0
 10
9.355328983535855
 20
-8.996499290191573
 30
0.0
 10
9.322921264902813
 20
-8.478524287193547
 30
0.0
 10
9.296030641323415
 20
-7.96026272626457
 30
0.0
 10
9.291925818649106
 20
-7.881156323553542
 30
0.0
 10
9.268355573957352
 20
-7.832271865855848
 30
0.0
 10
9.198068863549627
 20
-7.790755845261072
 30
0.0
 10
8.690282055049413
 20
-7.490818599937306
 30
0.0
 10
8.185122141565646
 20
-7.186436629095194
 30
0.0
 10
7.678581415523467
 20
-6.884382684975106
 30
0.0
 10
7.651243515364815
 20
-6.868081026650921
 30
0.0
 10
7.623252481974961
 20
-6.8322893255801
 30
0.0
 10
7.59013828519725
 20
-6.850010095374853
 30
0.0
 10
7.555620706858841
 20
-6.868483849136055
 30
0.0
 10
7.573017987629377
 20
-6.911045566809812
 30
0.0
 10
7.573548017214912
 20
-6.942763905027226
 30
0.0
 10
7.583531722879493
 20
-7.540228299856228
 30
0.0
 10
7.595950145091566
 20
-8.137657815319167
 30
0.0
 10
7.603555898666727
 20
-8.735148882604789
 30
0.0
 10
7.60448943464664
 20
-8.808487879515647
 30
0.0
 10
7.631003224288102
 20
-8.848945208758019
 30
0.0
 10
7.690065617846685
 20
-8.887811765334062
 30
0.0
 10
8.117317337436992
 20
-9.168975020783438
 30
0.0
 10
8.541310913872013
 20
-9.455095249698462
 30
0.0
 10
8.969087875683801
 20
-9.735447388904553
 30
0.0
 10
9.041338089239767
 20
-9.782797154486035
 30
0.0
 10
9.056899073962439
 20
-9.824044398787817
 30
0.0
 10
9.025914570255281
 20
-9.907105848070688
 30
0.0
 10
8.942524844583658
 20
-10.13065317779814
 30
0.0
 10
8.868273512876283
 20
-10.35774999597591
 30
0.0
 10
8.795940546314264
 20
-10.58520176299882
 30
0.0
 10
8.771191242260202
 20
-10.66302515215812
 30
0.0
 10
8.743932675562165
 20
-10.66265173776623
 30
0.0
 10
8.683657711093852
 20
-10.61880769044971
 30
0.0
 10
8.360592026384134
 20
-10.38380693431049
 30
0.0
 10
8.03540827505958
 20
-10.15171552766393
 30
0.0
 10
7.710235466281574
 20
-9.919628908381632
 30
0.0
 10
7.68416348194589
 20
-9.901021108428569
 30
0.0
 10
7.658246061076219
 20
-9.862486931695608
 30
0.0
 10
7.625104507932897
 20
-9.877217650719103
 30
0.0
 10
7.589753244349897
 20
-9.892929779361969
 30
0.0
 10
7.607244904581976
 20
-9.93692907405375
 30
0.0
 10
7.607326289770323
 20
-9.968068141227224
 30
0.0
 10
7.608452688127878
 20
-10.40130543363405
 30
0.0
 10
7.608907487707837
 20
-10.83456871458828
 30
0.0
 10
7.615012744624587
 20
-11.26774582299041
 30
0.0
 10
7.616200010895858
 20
-11.35199385463582
 30
0.0
 10
7.60002214012651
 20
-11.38627411650168
 30
0.0
 10
7.506561168420981
 20
-11.38427846962329
 30
0.0
 10
7.226574236696857
 20
-11.37829700026183
 30
0.0
 10
6.946323316043743
 20
-11.37904793250062
 30
0.0
 10
6.66629534977129
 20
-11.38397754960063
 30
0.0
 10
6.581872237385696
 20
-11.38546300025842
 30
0.0
 10
6.5581604235014
 20
-11.35994771796469
 30
0.0
 10
6.560174535926509
 20
-11.27633161836749
 30
0.0
 10
6.570608937715481
 20
-10.84326803888267
 30
0.0
 10
6.575884612841743
 20
-10.41007451666125
 30
0.0
 10
6.581222523699933
 20
-9.976905615168535
 30
0.0
 10
6.5816451795502
 20
-9.942596629118876
 30
0.0
 10
6.602440804850882
 20
-9.894128672088754
 30
0.0
 10
6.561029422354496
 20
-9.876399695384355
 30
0.0
 10
6.529733056078131
 20
-9.862999863552632
 30
0.0
 10
6.502678978213553
 20
-9.90171459229926
 30
0.0
 10
6.476044136653424
 20
-9.920474220081738
 30
0.0
 10
6.274926291168007
 20
-10.06213163688774
 30
0.0
 10
6.074400711000028
 20
-10.20462957803005
 30
0.0
 10
5.851364945311388
 20
-10.36268371653101
 30
0.0
  0
HATCH
  5
7E
330
79
100
AcDbEntity
  8
Слой 1
 62
    18
420
        0
440
 33554687
100
AcDbHatch
 10
0.0
 20
0.0
 30
0.0
210
0.0
220
0.0
230
1.0
  2
SOLID
 70
     1
 71
     1
 91
        1
 92
        1
 93
        1
 72
     4
 94
        3
 73
     0
 74
     0
 95
      329
 96
      325
 40
0.0
 40
0.0
 40
0.0
 40
0.0
 40
1.0
 40
1.0
 40
1.0
 40
2.0
 40
2.0
 40
2.0
 40
3.0
 40
3.0
 40
3.0
 40
4.0
 40
4.0
 40
4.0
 40
5.0
 40
5.0
 40
5.0
 40
6.0
 40
6.0
 40
6.0
 40
7.0
 40
7.0
 40
7.0
 40
8.0
 40
8.0
 40
8.0
 40
9.0
 40
9.0
 40
9.0
 40
10.0
 40
10.0
 40
10.0
 40
11.0
 40
11.0
 40
11.0
 40
12.0
 40
12.0
 40
12.0
 40
13.0
 40
13.0
 40
13.0
 40
14.0
 40
14.0
 40
14.0
 40
15.0
 40
15.0
 40
15.0
 40
16.0
 40
16.0
 40
16.0
 40
17.0
 40
17.0
 40
17.0
 40
18.0
 40
18.0
 40
18.0
 40
19.0
 40
19.0
 40
19.0
 40
20.0
 40
20.0
 40
20.0
 40
21.0
 40
21.0
 40
21.0
 40
22.0
 40
22.0
 40
22.0
 40
23.0
 40
23.0
 40
23.0
 40
24.0
 40
24.0
 40
24.0
 40
25.0
 40
25.0
 40
25.0
 40
26.0
 40
26.0
 40
26.0
 40
27.0
 40
27.0
 40
27.0
 40
28.0
 40
28.0
 40
28.0
 40
29.0
 40
29.0
 40
29.0
 40
30.0
 40
30.0
 40
30.0
 40
31.0
 40
31.0
 40
31.0
 40
32.0
 40
32.0
 40
32.0
 40
33.0
 40
33.0
 40
33.0
 40
34.0
 40
34.0
 40
34.0
 40
35.0
 40
35.0
 40
35.0
 40
36.0
 40
36.0
 40
36.0
 40
37.0
 40
37.0
 40
37.0
 40
38.0
 40
38.0
 40
38.0
 40
39.0
 40
39.0
 40
39.0
 40
40.0
 40
40.0
 40
40.0
 40
41.0
 40
41.0
 40
41.0
 40
42.0
 40
42.0
 40
42.0
 40
43.0
 40
43.0
 40
43.0
 40
44.0
 40
44.0
 40
44.0
 40
45.0
 40
45.0
 40
45.0
 40
46.0
 40
46.0
 40
46.0
 40
47.0
 40
47.0
 40
47.0
 40
48.0
 40
48.0
 40
48.0
 40
49.0
 40
49.0
 40
49.0
 40
50.0
 40
50.0
 40
50.0
 40
51.0
 40
51.0
 40
51.0
 40
52.0
 40
52.0
 40
52.0
 40
53.0
 40
53.0
 40
53.0
 40
54.0
 40
54.0
 40
54.0
 40
55.0
 40
55.0
 40
55.0
 40
56.0
 40
56.0
 40
56.0
 40
57.0
 40
57.0
 40
57.0
 40
58.0
 40
58.0
 40
58.0
 40
59.0
 40
59.0
 40
59.0
 40
60.0
 40
60.0
 40
60.0
 40
61.0
 40
61.0
 40
61.0
 40
62.0
 40
62.0
 40
62.0
 40
63.0
 40
63.0
 40
63.0
 40
64.0
 40
64.0
 40
64.0
 40
65.0
 40
65.0
 40
65.0
 40
66.0
 40
66.0
 40
66.0
 40
67.0
 40
67.0
 40
67.0
 40
68.0
 40
68.0
 40
68.0
 40
69.0
 40
69.0
 40
69.0
 40
70.0
 40
70.0
 40
70.0
 40
71.0
 40
71.0
 40
71.0
 40
72.0
 40
72.0
 40
72.0
 40
73.0
 40
73.0
 40
73.0
 40
74.0
 40
74.0
 40
74.0
 40
75.0
 40
75.0
 40
75.0
 40
76.0
 40
76.0
 40
76.0
 40
77.0
 40
77.0
 40
77.0
 40
78.0
 40
78.0
 40
78.0
 40
79.0
 40
79.0
 40
79.0
 40
80.0
 40
80.0
 40
80.0
 40
81.0
 40
81.0
 40
81.0
 40
82.0
 40
82.0
 40
82.0
 40
83.0
 40
83.0
 40
83.0
 40
84.0
 40
84.0
 40
84.0
 40
85.0
 40
85.0
 40
85.0
 40
86.0
 40
86.0
 40
86.0
 40
87.0
 40
87.0
 40
87.0
 40
88.0
 40
88.0
 40
88.0
 40
89.0
 40
89.0
 40
89.0
 40
90.0
 40
90.0
 40
90.0
 40
91.0
 40
91.0
 40
91.0
 40
92.0
 40
92.0
 40
92.0
 40
93.0
 40
93.0
 40
93.0
 40
94.0
 40
94.0
 40
94.0
 40
95.0
 40
95.0
 40
95.0
 40
96.0
 40
96.0
 40
96.0
 40
97.0
 40
97.0
 40
97.0
 40
98.0
 40
98.0
 40
98.0
 40
99.0
 40
99.0
 40
99.0
 40
100.0
 40
100.0
 40
100.0
 40
101.0
 40
101.0
 40
101.0
 40
102.0
 40
102.0
 40
102.0
 40
103.0
 40
103.0
 40
103.0
 40
104.0
 40
104.0
 40
104.0
 40
105.0
 40
105.0
 40
105.0
 40
106.0
 40
106.0
 40
106.0
 40
107.0
 40
107.0
 40
107.0
 40
108.0
 40
108.0
 40
108.0
 40
108.0
 10
5.851364945311388
 20
-10.36268371653101
 10
5.851364945311388
 20
-10.01004443267523
 10
5.851799227616689
 20
-9.685895435883619
 10
5.85095323200763
 20
-9.361750542546815
 10
5.850805507632558
 20
-9.305244601363382
 10
5.894277508375694
 20
-9.287506733840093
 10
5.93068199203833
 20
-9.263451597565916
 10
6.123780318916942
 20
-9.135849197550214
 10
6.316205679199709
 20
-9.007158014179822
 10
6.511504825699375
 20
-8.882997044969972
 10
6.568271336265903
 20
-8.846909895149286
 10
6.59051479722143
 20
-8.80552586901922
 10
6.591489367749368
 20
-8.737931024996997
 10
6.600104571219262
 20
-8.14044200943878
 10
6.612435453061
 20
-7.543006338793626
 10
6.622985435495643
 20
-6.945543311782834
 10
6.625118548111281
 20
-6.824762221555879
 10
6.620550035038881
 20
-6.822335028009042
 10
6.51863252678408
 20
-6.881471283754535
 10
6.303063681114659
 20
-7.006554846397774
 10
6.087926382114245
 20
-7.132382502188344
 10
5.850946392916171
 20
-7.270534884638158
 10
5.850946392916171
 20
-7.174006580427632
 10
5.850945709007191
 20
-7.097306853989746
 10
5.850946392916171
 20
-7.020607127551683
 10
5.850948444643563
 20
-6.78531023875386
 10
5.855930722747643
 20
-6.549859470398536
 10
5.848643670832617
 20
-6.314788955526737
 10
5.84546896459258
 20
-6.21235783150592
 10
5.870958942247916
 20
-6.146336662421314
 10
5.970473193775382
 20
-6.106533150319389
 10
6.027121388060347
 20
-6.083875240423846
 10
6.118523793246847
 20
-6.060869904683689
 10
6.120093364729124
 20
-6.007124220800265
 10
6.121755263945993
 20
-5.950184681220485
 10
6.028850310372692
 20
-5.932020738301174
 10
5.973790837026184
 20
-5.907748802828828
 10
5.87991815201662
 20
-5.866366828425813
 10
5.844906791277391
 20
-5.808164108659689
 10
5.848100646973597
 20
-5.70209732363681
 10
5.856526407610923
 20
-5.422236231195003
 10
5.850215294042767
 20
-5.141949747266759
 10
5.851805382799183
 20
-4.861843815352218
 10
5.852026969361418
 20
-4.822742677939774
 10
5.830325848356147
 20
-4.767246186651062
 10
5.870122521366675
 20
-4.748093995020755
 10
5.905499089587894
 20
-4.73106876082377
 10
5.942688700946202
 20
-4.775337515717776
 10
5.977090014730505
 20
-4.795483427332542
 10
6.160684740163156
 20
-4.903001467556261
 10
6.344410092242064
 20
-5.010379306405499
 10
6.525769118687397
 20
-5.121591139908622
 10
6.597834676775088
 20
-5.165782613069609
 10
6.626826269240735
 20
-5.165227962754733
 10
6.624651438167069
 20
-5.067935048122838
 10
6.61104848531987
 20
-4.459331141178305
 10
6.600144921858827
 20
-3.850660211138107
 10
6.591157671815279
 20
-3.241969789687093
 10
6.590240549654936
 20
-3.179782273301384
 10
6.560910422163715
 20
-3.148194903684839
 10
6.514039392981985
 20
-3.118262936147958
 10
6.315827477443563
 20
-2.991684348118976
 10
6.118995006645869
 20
-2.862947684790368
 10
5.921330218421783
 20
-2.735509081014305
 10
5.882817926781184
 20
-2.710679075681595
 10
5.849876759016953
 20
-2.687242535227129
 10
5.850273426319845
 20
-2.632077055963552
 10
5.852528958672122
 20
-2.318374771325743
 10
5.851745882703438
 20
-2.004651285504412
 10
5.852611711678402
 20
-1.690936690502111
 10
5.852639068043786
 20
-1.680982734885421
 10
5.859343429369434
 20
-1.671046902861336
 10
5.86769464391015
 20
-1.647924276703229
 10
6.050495350828314
 20
-1.779039576029946
 10
6.22729338720142
 20
-1.907698957625509
 10
6.406368157110667
 20
-2.033106351247801
 10
6.456753111466973
 20
-2.068391959553057
 10
6.511022669754058
 20
-2.146814795075985
 10
6.561207238731766
 20
-2.122007016790335
 10
6.613156977206799
 20
-2.096327254347973
 10
6.580910661130978
 20
-2.006753280254391
 10
6.58027188999199
 20
-1.945905199924583
 10
6.576002929123533
 20
-1.538846239725103
 10
6.57033127060337
 20
-1.131774969161041
 10
6.560324312028771
 20
-0.7248257763790839
 10
6.558321142149907
 20
-0.6433388569201447
 10
6.578131938284614
 20
-0.6140858401846824
 10
6.6648208416598
 20
-0.6157026013977176
 10
6.948572009304825
 20
-0.6209948613207846
 10
7.23251740714641
 20
-0.620144420301939
 10
7.516310977158354
 20
-0.6161645820237456
 10
7.596690818692827
 20
-0.6150371578020845
 10
7.616060493430747
 20
-0.643562153255036
 10
7.615066773446338
 20
-0.7201121035907869
 10
7.609486758751573
 20
-1.149567378438897
 10
7.608512188223382
 20
-1.579086769768953
 10
7.607309192041535
 20
-2.008588208484032
 10
7.607198398760424
 20
-2.048120550610658
 10
7.586867147768038
 20
-2.105017003914364
 10
7.621642559852944
 20
-2.123625487776406
 10
7.664716525474684
 20
-2.146673909792639
 10
7.699004310340771
 20
-2.092811619400107
 10
7.733255164113617
 20
-2.068449749875538
 10
8.043593983587975
 20
-1.847710893042567
 10
8.352279794664505
 20
-1.624648796851665
 10
8.661979159090378
 20
-1.403007692881866
 10
8.694605728648841
 20
-1.379658179865891
 10
8.723177400901047
 20
-1.348107057433821
 10
8.772742348195707
 20
-1.340609532480243
 10
8.86257928535479
 20
-1.616707243887301
 10
8.951642037364054
 20
-1.893367299587061
 10
9.043080689735511
 20
-2.169239833908679
 10
9.064162189056988
 20
-2.232840990492175
 10
9.015260633631037
 20
-2.245920068935838
 10
8.979962031051803
 20
-2.269046456594537
 10
8.555268131654656
 20
-2.547294891277765
 10
8.131229417216747
 20
-2.826571241402436
 10
7.704317600469973
 20
-3.10138234873476
 10
7.634093809704128
 20
-3.146586691335945
 10
7.603862289962408
 20
-3.193687855944176
 10
7.602930121801186
 20
-3.280185948668733
 10
7.596574554138921
 20
-3.870214541344416
 10
7.583669872526191
 20
-4.460172349423853
 10
7.573428333115164
 20
-5.050162301233032
 10
7.572860688526942
 20
-5.082845635250779
 10
7.55737219817345
 20
-5.126363457906121
 10
7.584686845421325
 20
-5.145657902638213
 10
7.621786180772889
 20
-5.171864617074965
 10
7.652300838899236
 20
-5.128633352350409
 10
7.681630966390482
 20
-5.110943358466884
 10
8.189873258379646
 20
-4.804411177280725
 10
8.696600007709017
 20
-4.495364262176773
 10
9.205380536193615
 20
-4.189735183013403
 10
9.266897479664949
 20
-4.152781520308886
 10
9.291439559248676
 20
-4.110125423173333
 10
9.295266030901908
 20
-4.038356681653718
 10
9.322696258794723
 20
-3.523855937100329
 10
9.355605966738494
 20
-3.009647905659549
 10
9.383722155501825
 20
-2.495180330699516
 10
9.386867453648592
 20
-2.437627324618587
 10
9.401546195576985
 20
-2.408936994130435
 10
9.461372515648337
 20
-2.396292539946569
 10
9.709560407875692
 20
-2.343837050660731
 10
9.957335218981343
 20
-2.28911748015797
 10
10.20403218927764
 20
-2.230089965966031
 10
10.29516308253452
 20
-2.208284890771096
 10
10.30094348260816
 20
-2.245088777373161
 10
10.29271195216721
 20
-2.320292452561552
 10
10.2492673077904
 20
-2.717235028723115
 10
10.20928871494847
 20
-3.114560594004412
 10
10.16948315111904
 20
-3.511890604695016
 10
10.16635426679158
 20
-3.543115844420602
 10
10.14759327119069
 20
-3.585790065148507
 10
10.18043800776617
 20
-3.604577733206054
 10
10.21257489837858
 20
-3.622960527050963
 10
10.24122453627281
 20
-3.585991134436362
 10
10.26885583345395
 20
-3.569798217666238
 10
10.63921862274108
 20
-3.352758967339935
 10
11.00999586096888
 20
-3.136382766927731
 10
11.37793214061796
 20
-2.915286567567477
 10
11.4509189243208
 20
-2.871428500113678
 10
11.48654101592446
 20
-2.872845559857056
 10
11.53224256047196
 20
-2.952727515535848
 10
11.67307997021607
 20
-3.198889326928438
 10
11.8206155861031
 20
-3.441402141090621
 10
11.97226286375543
 20
-3.68108459726573
 10
12.01883297291427
 20
-3.754688608969495
 10
12.00446130619098
 20
-3.781248904433116
 10
11.93196283361642
 20
-3.820700545280891
 10
11.54840606914917
 20
-4.029422092614203
 10
11.16814985020467
 20
-4.244211965770343
 10
10.78690196300295
 20
-4.457167936560166
 10
10.75497434858804
 20
-4.475002235272793
 10
10.72416560953047
 20
-4.494838336045934
 10
10.67154427227711
 20
-4.52659497317538
 10
11.11073567768001
 20
-4.720998198698439
 10
11.53144922586671
 20
-4.907221870875496
 10
11.96443073625399
 20
-5.098875781645094
 10
11.76671807439015
 20
-5.327899855786654
 10
11.57637795308331
 20
-5.546797287253373
 10
11.38819488121256
 20
-5.767533750404671
 10
11.34366418911706
 20
-5.819769362901348
 10
11.30757020020463
 20
-5.781684514474944
 10
11.27082786542562
 20
-5.76322854235175
 10
10.81722786220573
 20
-5.535389682754169
 10
10.36295215675333
 20
-5.308833152798897
 10
9.911999565824796
 20
-5.075849928630569
 10
9.828925122268451
 20
-5.032930526475044
 10
9.767703627546325
 20
-5.034806489253342
 10
9.686618675685647
 20
-5.0802802920566
 10
9.178788780909446
 20
-5.365079208507987
 10
8.66769116824965
 20
-5.644050535155163
 10
8.157809546045402
 20
-5.925193273330048
 10
8.125797126896788
 20
-5.942843600483342
 10
8.094917261287996
 20
-5.962547706792039
 10
8.064772598008124
 20
-5.980542724153147
 10
8.069588002281181
 20
-6.024550225754587
 10
8.104243046357117
 20
-6.028741220980817
 10
8.128073176523685
 20
-6.041906471976617
 10
8.657332680375297
 20
-6.334300883366191
 10
9.187739783768291
 20
-6.624630573054395
 10
9.715721745341625
 20
-6.919307873162197
 10
9.780539918244407
 20
-6.955484615080396
 10
9.828031936927875
 20
-6.949542812449053
 10
9.890460531286482
 20
-6.917654180855479
 10
10.34247318138636
 20
-6.686760299117521
 10
10.79767079636288
 20
-6.462072208940096
 10
11.24853789864879
 20
-6.228992553582403
 10
11.33227163061898
 20
-6.185705208308061
 10
11.37554666552862
 20
-6.19637624266084
 10
11.43353942518802
 20
-6.267781144516472
 10
11.57943229131435
 20
-6.447417403831448
 10
11.73192488066704
 20
-6.622002310219208
 10
11.8880777517516
 20
-6.792847601414678
 10
11.95188510694124
 20
-6.862656943240608
 10
11.96004003955815
 20
-6.892574548685488
 10
11.86132459390971
 20
-6.935349646011799
 10
11.50527328734135
 20
-7.089632025590995
 10
11.15313530888683
 20
-7.252954316217558
 10
10.79964729378535
 20
-7.413140199515964
 10
10.76316621229865
 20
-7.429671651312041
 10
10.7275290746941
 20
-7.448061968157717
 10
10.69003854331246
 20
-7.466299773264331
 10
10.71538284832064
 20
-7.514215131706805
 10
10.75708899565696
 20
-7.52478699923376
 10
10.79132001606464
 20
-7.543911150589464
 10
11.17256790326587
 20
-7.756898923154444
 10
11.55337672079796
 20
-7.970717645327921
 10
11.93691570362746
 20
-8.179516474394352
 10
12.00487301949501
 20
-8.216512539465737
 10
12.01839800669975
 20
-8.242662489443672
 10
11.97519409834068
 20
-8.311596427566529
 10
11.82258250879699
 20
-8.555097490439948
 10
11.67369548844428
 20
-8.801075672227625
 10
11.52991726938686
 20
-9.049882502229541
 10
11.48834653606084
 20
-9.121819485398367
 10
11.45596617379316
 20
-9.133824142579012
 10
11.3838137592446
 20
-9.089783129429253
 10
11.01742858553133
 20
-8.866143471967664
 10
10.64831598215654
 20
-8.646967689480081
 10
10.27979974755456
 20
-8.42683169855627
 10
10.24570414115742
 20
-8.406464884288324
 10
10.21425731486963
 20
-8.377984855861289
 10
10.15555876097477
 20
-8.375373690754637
 10
10.17695143895695
 20
-8.588301279315398
 10
10.19684977546176
 20
-8.795097622412008
 10
10.21872187375286
 20
-9.001684005402113
 10
10.24268673401982
 20
-9.228032626977967
 10
10.26659893328322
 20
-9.454420915283964
 10
10.29456124248897
 20
-9.68029353609601
 10
10.30342196934159
 20
-9.751870783055892
 10
10.27597395981052
 20
-9.763148444818018
 10
10.21466218908191
 20
-9.750798413520316
 10
9.958614812987004
 20
-9.699221405527925
 10
9.702559913891667
 20
-9.647516506526168
 10
9.445680220370149
 20
-9.600364390686939
 10
9.388904818984251
 20
-9.589942983171187
 10
9.387236080676631
 20
-9.558550869614817
 10
9.384743231851819
 20
-9.514634327929343
 10
9.355328983535855
 20
-8.996499290191573
 10
9.322921264902813
 20
-8.478524287193547
 10
9.296030641323415
 20
-7.96026272626457
 10
9.291925818649106
 20
-7.881156323553542
 10
9.268355573957352
 20
-7.832271865855848
 10
9.198068863549627
 20
-7.790755845261072
 10
8.690282055049413
 20
-7.490818599937306
 10
8.185122141565646
 20
-7.186436629095194
 10
7.678581415523467
 20
-6.884382684975106
 10
7.651243515364815
 20
-6.868081026650921
 10
7.623252481974961
 20
-6.8322893255801
 10
7.59013828519725
 20
-6.850010095374853
 10
7.555620706858841
 20
-6.868483849136055
 10
7.573017987629377
 20
-6.911045566809812
 10
7.573548017214912
 20
-6.942763905027226
 10
7.583531722879493
 20
-7.540228299856228
 10
7.595950145091566
 20
-8.137657815319167
 10
7.603555898666727
 20
-8.735148882604789
 10
7.60448943464664
 20
-8.808487879515647
 10
7.631003224288102
 20
-8.848945208758019
 10
7.690065617846685
 20
-8.887811765334062
 10
8.117317337436992
 20
-9.168975020783438
 10
8.541310913872013
 20
-9.455095249698462
 10
8.969087875683801
 20
-9.735447388904553
 10
9.041338089239767
 20
-9.782797154486035
 10
9.056899073962439
 20
-9.824044398787817
 10
9.025914570255281
 20
-9.907105848070688
 10
8.942524844583658
 20
-10.13065317779814
 10
8.868273512876283
 20
-10.35774999597591
 10
8.795940546314264
 20
-10.58520176299882
 10
8.771191242260202
 20
-10.66302515215812
 10
8.743932675562165
 20
-10.66265173776623
 10
8.683657711093852
 20
-10.61880769044971
 10
8.360592026384134
 20
-10.38380693431049
 10
8.03540827505958
 20
-10.15171552766393
 10
7.710235466281574
 20
-9.919628908381632
 10
7.68416348194589
 20
-9.901021108428569
 10
7.658246061076219
 20
-9.862486931695608
 10
7.625104507932897
 20
-9.877217650719103
 10
7.589753244349897
 20
-9.892929779361969
 10
7.607244904581976
 20
-9.93692907405375
 10
7.607326289770323
 20
-9.968068141227224
 10
7.608452688127878
 20
-10.40130543363405
 10
7.608907487707837
 20
-10.83456871458828
 10
7.615012744624587
 20
-11.26774582299041
 10
7.616200010895858
 20
-11.35199385463582
 10
7.60002214012651
 20
-11.38627411650168
 10
7.506561168420981
 20
-11.38427846962329
 10
7.226574236696857
 20
-11.37829700026183
 10
6.946323316043743
 20
-11.37904793250062
 10
6.66629534977129
 20
-11.38397754960063
 10
6.581872237385696
 20
-11.38546300025842
 10
6.5581604235014
 20
-11.35994771796469
 10
6.560174535926509
 20
-11.27633161836749
 10
6.570608937715481
 20
-10.84326803888267
 10
6.575884612841743
 20
-10.41007451666125
 10
6.581222523699933
 20
-9.976905615168535
 10
6.5816451795502
 20
-9.942596629118876
 10
6.602440804850882
 20
-9.894128672088754
 10
6.561029422354496
 20
-9.876399695384355
 10
6.529733056078131
 20
-9.862999863552632
 10
6.502678978213553
 20
-9.90171459229926
 10
6.476044136653424
 20
-9.920474220081738
 10
6.274926291168007
 20
-10.06213163688774
 10
6.074400711000028
 20
-10.20462957803005
 10
5.851364945311388
 20
-10.36268371653101
 97
        0
 97
        1
330
7D
 75
     2
 76
     1
 98
        1
 10
0.0
 20
0.0
450
        0
451
        0
460
0.0
461
0.0
452
        0
462
0.0
453
        0
470

  0
SPLINE
  5
7F
330
79
100
AcDbEntity
  8
Слой 1
100
AcDbSpline
210
0.0
220
0.0
230
1.0
 70
     9
 71
     3
 72
    50
 73
    46
 74
     0
 42
0.0000000001
 43
0.0000000001
 40
0.0
 40
0.0
 40
0.0
 40
0.0
 40
1.0
 40
1.0
 40
1.0
 40
2.0
 40
2.0
 40
2.0
 40
3.0
 40
3.0
 40
3.0
 40
4.0
 40
4.0
 40
4.0
 40
5.0
 40
5.0
 40
5.0
 40
6.0
 40
6.0
 40
6.0
 40
7.0
 40
7.0
 40
7.0
 40
8.0
 40
8.0
 40
8.0
 40
9.0
 40
9.0
 40
9.0
 40
10.0
 40
10.0
 40
10.0
 40
11.0
 40
11.0
 40
11.0
 40
12.0
 40
12.0
 40
12.0
 40
13.0
 40
13.0
 40
13.0
 40
14.0
 40
14.0
 40
14.0
 40
15.0
 40
15.0
 40
15.0
 40
15.0
 10
0.0028370060033593
 20
-9.01352657611609
 30
0.0
 10
0.0028429047199299
 20
-8.864244256278702
 30
0.0
 10
0.0081991101479465
 20
-8.714695895784972
 30
0.0
 10
0.0007990422470433
 20
-8.565781519066199
 30
0.0
 10
-0.003519160079337
 20
-8.478885391220703
 30
0.0
 10
0.0321828634054226
 20
-8.441949510154042
 30
0.0
 10
0.1086061195719847
 20
-8.412147485354328
 30
0.0
 10
0.7952068721324142
 20
-8.144404579011077
 30
0.0
 10
1.477723575758368
 20
-8.16313274697336
 30
0.0
 10
2.161232973505017
 20
-8.425631438011047
 30
0.0
 10
2.54178566706288
 20
-8.57178145397486
 30
0.0
 10
2.900259037860008
 20
-8.763683623763325
 30
0.0
 10
3.265812236101648
 20
-8.941143000277204
 30
0.0
 10
3.632734278492408
 20
-9.119267820387246
 30
0.0
 10
4.006322725250962
 20
-9.274509724493251
 30
0.0
 10
4.418261035228182
 20
-9.318118507064657
 30
0.0
 10
4.725200484309135
 20
-9.350612398249849
 30
0.0
 10
5.021296895888036
 20
-9.305678199759968
 30
0.0
 10
5.310797003785751
 20
-9.210936950139082
 30
0.0
 10
5.39590265749622
 20
-9.183086802032599
 30
0.0
 10
5.411190762471101
 20
-9.201265790953154
 30
0.0
 10
5.41021619194243
 20
-9.28404205012349
 30
0.0
 10
5.406569588393911
 20
-9.593759880096058
 30
0.0
 10
5.405373431303776
 20
-9.903607652806208
 30
0.0
 10
5.411016365639397
 20
-10.21326598268332
 30
0.0
 10
5.412525069208211
 20
-10.29607233385612
 30
0.0
 10
5.382517871665615
 20
-10.32974254876656
 30
0.0
 10
5.308836920183087
 20
-10.35569142945665
 30
0.0
 10
4.806644488469752
 20
-10.53255443719851
 30
0.0
 10
4.307729007413172
 20
-10.53028112320824
 30
0.0
 10
3.808558086291819
 20
-10.34349459380653
 30
0.0
 10
3.416268827936821
 20
-10.19670443888523
 30
0.0
 10
3.04849429279976
 20
-9.997762792291672
 30
0.0
 10
2.672681089600422
 20
-9.815923661628225
 30
0.0
 10
2.288545737998876
 20
-9.630055622205265
 30
0.0
 10
1.895190265290542
 20
-9.474265222966726
 30
0.0
 10
1.469609677689997
 20
-9.409733607994716
 30
0.0
 10
1.00440202654656
 20
-9.339193167295155
 30
0.0
 10
0.5545977190686371
 20
-9.396641535277113
 30
0.0
 10
0.1185845249403883
 20
-9.564983035101425
 30
0.0
 10
0.0209941098313241
 20
-9.602662325405946
 30
0.0
 10
-0.0031296738228927
 20
-9.585502361107929
 30
0.0
 10
0.0011154357143444
 20
-9.483693594406833
 30
0.0
 10
0.0076400999124139
 20
-9.327219286025687
 30
0.0
 10
0.0028311072872814
 20
-9.170273080336047
 30
0.0
 10
0.0028370060033593
 20
-9.01352657611609
 30
0.0
  0
HATCH
  5
80
330
79
100
AcDbEntity
  8
Слой 1
 62
    18
420
        0
440
 33554687
100
AcDbHatch
 10
0.0
 20
0.0
 30
0.0
210
0.0
220
0.0
230
1.0
  2
SOLID
 70
     1
 71
     1
 91
        1
 92
        1
 93
        1
 72
     4
 94
        3
 73
     0
 74
     0
 95
       50
 96
       46
 40
0.0
 40
0.0
 40
0.0
 40
0.0
 40
1.0
 40
1.0
 40
1.0
 40
2.0
 40
2.0
 40
2.0
 40
3.0
 40
3.0
 40
3.0
 40
4.0
 40
4.0
 40
4.0
 40
5.0
 40
5.0
 40
5.0
 40
6.0
 40
6.0
 40
6.0
 40
7.0
 40
7.0
 40
7.0
 40
8.0
 40
8.0
 40
8.0
 40
9.0
 40
9.0
 40
9.0
 40
10.0
 40
10.0
 40
10.0
 40
11.0
 40
11.0
 40
11.0
 40
12.0
 40
12.0
 40
12.0
 40
13.0
 40
13.0
 40
13.0
 40
14.0
 40
14.0
 40
14.0
 40
15.0
 40
15.0
 40
15.0
 40
15.0
 10
0.0028370060033593
 20
-9.01352657611609
 10
0.0028429047199299
 20
-8.864244256278702
 10
0.0081991101479465
 20
-8.714695895784972
 10
0.0007990422470433
 20
-8.565781519066199
 10
-0.003519160079337
 20
-8.478885391220703
 10
0.0321828634054226
 20
-8.441949510154042
 10
0.1086061195719847
 20
-8.412147485354328
 10
0.7952068721324142
 20
-8.144404579011077
 10
1.477723575758368
 20
-8.16313274697336
 10
2.161232973505017
 20
-8.425631438011047
 10
2.54178566706288
 20
-8.57178145397486
 10
2.900259037860008
 20
-8.763683623763325
 10
3.265812236101648
 20
-8.941143000277204
 10
3.632734278492408
 20
-9.119267820387246
 10
4.006322725250962
 20
-9.274509724493251
 10
4.418261035228182
 20
-9.318118507064657
 10
4.725200484309135
 20
-9.350612398249849
 10
5.021296895888036
 20
-9.305678199759968
 10
5.310797003785751
 20
-9.210936950139082
 10
5.39590265749622
 20
-9.183086802032599
 10
5.411190762471101
 20
-9.201265790953154
 10
5.41021619194243
 20
-9.28404205012349
 10
5.406569588393911
 20
-9.593759880096058
 10
5.405373431303776
 20
-9.903607652806208
 10
5.411016365639397
 20
-10.21326598268332
 10
5.412525069208211
 20
-10.29607233385612
 10
5.382517871665615
 20
-10.32974254876656
 10
5.308836920183087
 20
-10.35569142945665
 10
4.806644488469752
 20
-10.53255443719851
 10
4.307729007413172
 20
-10.53028112320824
 10
3.808558086291819
 20
-10.34349459380653
 10
3.416268827936821
 20
-10.19670443888523
 10
3.04849429279976
 20
-9.997762792291672
 10
2.672681089600422
 20
-9.815923661628225
 10
2.288545737998876
 20
-9.630055622205265
 10
1.895190265290542
 20
-9.474265222966726
 10
1.469609677689997
 20
-9.409733607994716
 10
1.00440202654656
 20
-9.339193167295155
 10
0.5545977190686371
 20
-9.396641535277113
 10
0.1185845249403883
 20
-9.564983035101425
 10
0.0209941098313241
 20
-9.602662325405946
 10
-0.0031296738228927
 20
-9.585502361107929
 10
0.0011154357143444
 20
-9.483693594406833
 10
0.0076400999124139
 20
-9.327219286025687
 10
0.0028311072872814
 20
-9.170273080336047
 10
0.0028370060033593
 20
-9.01352657611609
 97
        0
 97
        1
330
7F
 75
     2
 76
     1
 98
        1
 10
0.0
 20
0.0
450
        0
451
        0
460
0.0
461
0.0
452
        0
462
0.0
453
        0
470

  0
SPLINE
  5
81
330
79
100
AcDbEntity
  8
Слой 1
100
AcDbSpline
210
0.0
220
0.0
230
1.0
 70
     9
 71
     3
 72
    50
 73
    46
 74
     0
 42
0.0000000001
 43
0.0000000001
 40
0.0
 40
0.0
 40
0.0
 40
0.0
 40
1.0
 40
1.0
 40
1.0
 40
2.0
 40
2.0
 40
2.0
 40
3.0
 40
3.0
 40
3.0
 40
4.0
 40
4.0
 40
4.0
 40
5.0
 40
5.0
 40
5.0
 40
6.0
 40
6.0
 40
6.0
 40
7.0
 40
7.0
 40
7.0
 40
8.0
 40
8.0
 40
8.0
 40
9.0
 40
9.0
 40
9.0
 40
10.0
 40
10.0
 40
10.0
 40
11.0
 40
11.0
 40
11.0
 40
12.0
 40
12.0
 40
12.0
 40
13.0
 40
13.0
 40
13.0
 40
14.0
 40
14.0
 40
14.0
 40
15.0
 40
15.0
 40
15.0
 40
15.0
 10
0.0028322186393047
 20
-2.090596437687256
 30
0.0
 10
0.0028505986974778
 20
-1.937521841653986
 30
0.0
 10
0.009219331611348
 20
-1.784082722047716
 30
0.0
 10
0.0004844440414647
 20
-1.631508063597607
 30
0.0
 10
-0.0048352577359007
 20
-1.538586696205483
 30
0.0
 10
0.033689515246326
 20
-1.502238635047092
 30
0.0
 10
0.114450037707368
 20
-1.471101277646299
 30
0.0
 10
0.7622149241137146
 20
-1.221353901596153
 30
0.0
 10
1.410688853323954
 20
-1.221262257771008
 30
0.0
 10
2.063079017262566
 20
-1.451179688230379
 30
0.0
 10
2.444445220745087
 20
-1.585581854896657
 30
0.0
 10
2.801666695857154
 20
-1.772177573647127
 30
0.0
 10
3.162502630787368
 20
-1.951279357967349
 30
0.0
 10
3.527387307842003
 20
-2.132391835166875
 30
0.0
 10
3.896307732747573
 20
-2.302150052780221
 30
0.0
 10
4.304473941849033
 20
-2.364058876190319
 30
0.0
 10
4.643035639912492
 20
-2.415410194165537
 30
0.0
 10
4.974784235097027
 20
-2.387787787803429
 30
0.0
 10
5.297548315874652
 20
-2.274508838916744
 30
0.0
 10
5.384444443720174
 20
-2.244011278518933
 30
0.0
 10
5.412646805035365
 20
-2.253566857059922
 30
0.0
 10
5.410807089441921
 20
-2.353554031759446
 30
0.0
 10
5.405177149379747
 20
-2.659599611590755
 30
0.0
 10
5.405814552700538
 20
-2.965861990620206
 30
0.0
 10
5.410754428437889
 20
-3.271931507271599
 30
0.0
 10
5.412055223626907
 20
-3.352496346229183
 30
0.0
 10
5.386768366987085
 20
-3.388023032507362
 30
0.0
 10
5.310568578132536
 20
-3.415554136998935
 30
0.0
 10
4.755711722889878
 20
-3.616021242935251
 30
0.0
 10
4.212255291100455
 20
-3.579118873416695
 30
0.0
 10
3.673955876201047
 20
-3.353421675299285
 30
0.0
 10
3.267495336501875
 20
-3.183001433635682
 30
0.0
 10
2.881754166233122
 20
-2.969382412932001
 30
0.0
 10
2.481223118800092
 20
-2.786757470663587
 30
0.0
 10
2.000561172760702
 20
-2.567595708313319
 30
0.0
 10
1.503490023684498
 20
-2.420051543562142
 30
0.0
 10
0.9676133569228365
 20
-2.44463534160329
 30
0.0
 10
0.6667106028671444
 20
-2.458440047647551
 30
0.0
 10
0.3759712516028786
 20
-2.521125107934671
 30
0.0
 10
0.0969327308825996
 20
-2.633515658844935
 30
0.0
 10
0.0247806582882883
 20
-2.662577010043289
 30
0.0
 10
-0.0012059228930512
 20
-2.657597467575619
 30
0.0
 10
0.0014025920657382
 20
-2.572177899569017
 30
0.0
 10
0.0063008348341277
 20
-2.411785817663977
 30
0.0
 10
0.0028138385813968
 20
-2.25113795373967
 30
0.0
 10
0.0028322186393047
 20
-2.090596437687256
 30
0.0
  0
HATCH
  5
82
330
79
100
AcDbEntity
  8
Слой 1
 62
    18
420
        0
440
 33554687
100
AcDbHatch
 10
0.0
 20
0.0
 30
0.0
210
0.0
220
0.0
230
1.0
  2
SOLID
 70
     1
 71
     1
 91
        1
 92
        1
 93
        1
 72
     4
 94
        3
 73
     0
 74
     0
 95
       50
 96
       46
 40
0.0
 40
0.0
 40
0.0
 40
0.0
 40
1.0
 40
1.0
 40
1.0
 40
2.0
 40
2.0
 40
2.0
 40
3.0
 40
3.0
 40
3.0
 40
4.0
 40
4.0
 40
4.0
 40
5.0
 40
5.0
 40
5.0
 40
6.0
 40
6.0
 40
6.0
 40
7.0
 40
7.0
 40
7.0
 40
8.0
 40
8.0
 40
8.0
 40
9.0
 40
9.0
 40
9.0
 40
10.0
 40
10.0
 40
10.0
 40
11.0
 40
11.0
 40
11.0
 40
12.0
 40
12.0
 40
12.0
 40
13.0
 40
13.0
 40
13.0
 40
14.0
 40
14.0
 40
14.0
 40
15.0
 40
15.0
 40
15.0
 40
15.0
 10
0.0028322186393047
 20
-2.090596437687256
 10
0.0028505986974778
 20
-1.937521841653986
 10
0.009219331611348
 20
-1.784082722047716
 10
0.0004844440414647
 20
-1.631508063597607
 10
-0.0048352577359007
 20
-1.538586696205483
 10
0.033689515246326
 20
-1.502238635047092
 10
0.114450037707368
 20
-1.471101277646299
 10
0.7622149241137146
 20
-1.221353901596153
 10
1.410688853323954
 20
-1.221262257771008
 10
2.063079017262566
 20
-1.451179688230379
 10
2.444445220745087
 20
-1.585581854896657
 10
2.801666695857154
 20
-1.772177573647127
 10
3.162502630787368
 20
-1.951279357967349
 10
3.527387307842003
 20
-2.132391835166875
 10
3.896307732747573
 20
-2.302150052780221
 10
4.304473941849033
 20
-2.364058876190319
 10
4.643035639912492
 20
-2.415410194165537
 10
4.974784235097027
 20
-2.387787787803429
 10
5.297548315874652
 20
-2.274508838916744
 10
5.384444443720174
 20
-2.244011278518933
 10
5.412646805035365
 20
-2.253566857059922
 10
5.410807089441921
 20
-2.353554031759446
 10
5.405177149379747
 20
-2.659599611590755
 10
5.405814552700538
 20
-2.965861990620206
 10
5.410754428437889
 20
-3.271931507271599
 10
5.412055223626907
 20
-3.352496346229183
 10
5.386768366987085
 20
-3.388023032507362
 10
5.310568578132536
 20
-3.415554136998935
 10
4.755711722889878
 20
-3.616021242935251
 10
4.212255291100455
 20
-3.579118873416695
 10
3.673955876201047
 20
-3.353421675299285
 10
3.267495336501875
 20
-3.183001433635682
 10
2.881754166233122
 20
-2.969382412932001
 10
2.481223118800092
 20
-2.786757470663587
 10
2.000561172760702
 20
-2.567595708313319
 10
1.503490023684498
 20
-2.420051543562142
 10
0.9676133569228365
 20
-2.44463534160329
 10
0.6667106028671444
 20
-2.458440047647551
 10
0.3759712516028786
 20
-2.521125107934671
 10
0.0969327308825996
 20
-2.633515658844935
 10
0.0247806582882883
 20
-2.662577010043289
 10
-0.0012059228930512
 20
-2.657597467575619
 10
0.0014025920657382
 20
-2.572177899569017
 10
0.0063008348341277
 20
-2.411785817663977
 10
0.0028138385813968
 20
-2.25113795373967
 10
0.0028322186393047
 20
-2.090596437687256
 97
        0
 97
        1
330
81
 75
     2
 76
     1
 98
        1
 10
0.0
 20
0.0
450
        0
451
        0
460
0.0
461
0.0
452
        0
462
0.0
453
        0
470

  0
SPLINE
  5
83
330
79
100
AcDbEntity
  8
Слой 1
100
AcDbSpline
210
0.0
220
0.0
230
1.0
 70
     9
 71
     3
 72
    50
 73
    46
 74
     0
 42
0.0000000001
 43
0.0000000001
 40
0.0
 40
0.0
 40
0.0
 40
0.0
 40
1.0
 40
1.0
 40
1.0
 40
2.0
 40
2.0
 40
2.0
 40
3.0
 40
3.0
 40
3.0
 40
4.0
 40
4.0
 40
4.0
 40
5.0
 40
5.0
 40
5.0
 40
6.0
 40
6.0
 40
6.0
 40
7.0
 40
7.0
 40
7.0
 40
8.0
 40
8.0
 40
8.0
 40
9.0
 40
9.0
 40
9.0
 40
10.0
 40
10.0
 40
10.0
 40
11.0
 40
11.0
 40
11.0
 40
12.0
 40
12.0
 40
12.0
 40
13.0
 40
13.0
 40
13.0
 40
14.0
 40
14.0
 40
14.0
 40
15.0
 40
15.0
 40
15.0
 40
15.0
 10
0.0028457258451277
 20
-4.465049305519932
 30
0.0
 10
0.0028542747095217
 20
-4.311949404848456
 30
0.0
 10
0.0076822458134731
 20
-4.158634756706229
 30
0.0
 10
0.0009014576411346
 20
-4.005835776057387
 30
0.0
 10
-0.002712574734662
 20
-3.924395191442625
 30
0.0
 10
0.0277555775701204
 20
-3.889233370692055
 30
0.0
 10
0.1015027827508119
 20
-3.85982083214915
 30
0.0
 10
0.86128531860753
 20
-3.556798814637343
 30
0.0
 10
1.605138755646054
 20
-3.622906498228859
 30
0.0
 10
2.342414183573509
 20
-3.941742204891145
 30
0.0
 10
2.705785369695275
 20
-4.098882982732005
 30
0.0
 10
3.053609591232252
 20
-4.287515382909406
 30
0.0
 10
3.411677061953393
 20
-4.455251623142695
 30
0.0
 10
3.853178370485086
 20
-4.662071903059413
 30
0.0
 10
4.307142213368289
 20
-4.808390160672439
 30
0.0
 10
4.804385536571367
 20
-4.763098277701171
 30
0.0
 10
4.983859025510418
 20
-4.746750797464515
 30
0.0
 10
5.158952760300419
 20
-4.711582137622599
 30
0.0
 10
5.327835916165541
 20
-4.649359399916016
 30
0.0
 10
5.392127479028848
 20
-4.625671522851462
 30
0.0
 10
5.410617646609112
 20
-4.639253958424293
 30
0.0
 10
5.410000760562689
 20
-4.708750753772063
 30
0.0
 10
5.407116715708272
 20
-5.03359665398001
 30
0.0
 10
5.405655885779424
 20
-5.358532146285685
 30
0.0
 10
5.41095207818009
 20
-5.683317862489161
 30
0.0
 10
5.412220045730489
 20
-5.76108653891697
 30
0.0
 10
5.368603056249437
 20
-5.775703729022691
 30
0.0
 10
5.314542090250862
 20
-5.795539145886524
 30
0.0
 10
4.817827086860625
 20
-5.977786570308239
 30
0.0
 10
4.322450493662813
 20
-5.97652202230357
 30
0.0
 10
3.825418498385349
 20
-5.793748671751258
 30
0.0
 10
3.47060575127413
 20
-5.663273853336489
 30
0.0
 10
3.136715494609271
 20
-5.488369561379284
 30
0.0
 10
2.798800090685745
 20
-5.321908127787878
 30
0.0
 10
2.386002106915788
 20
-5.118559370679374
 30
0.0
 10
1.967360803431334
 20
-4.933946988442471
 30
0.0
 10
1.507889269244729
 20
-4.860065651581066
 30
0.0
 10
1.031859781783042
 20
-4.783523224246159
 30
0.0
 10
0.5709575096699002
 20
-4.83674093027144
 30
0.0
 10
0.1215748321783141
 20
-5.006602760119941
 30
0.0
 10
0.003778919870279
 20
-5.05112798094232
 30
0.0
 10
0.003174771631153
 20
-5.050311393426024
 30
0.0
 10
0.0029127489410712
 20
-4.924350375352926
 30
0.0
 10
0.0025943892351405
 20
-4.771250474681323
 30
0.0
 10
0.0028371769807336
 20
-4.618149890100741
 30
0.0
 10
0.0028457258451277
 20
-4.465049305519932
 30
0.0
  0
HATCH
  5
84
330
79
100
AcDbEntity
  8
Слой 1
 62
    18
420
        0
440
 33554687
100
AcDbHatch
 10
0.0
 20
0.0
 30
0.0
210
0.0
220
0.0
230
1.0
  2
SOLID
 70
     1
 71
     1
 91
        1
 92
        1
 93
        1
 72
     4
 94
        3
 73
     0
 74
     0
 95
       50
 96
       46
 40
0.0
 40
0.0
 40
0.0
 40
0.0
 40
1.0
 40
1.0
 40
1.0
 40
2.0
 40
2.0
 40
2.0
 40
3.0
 40
3.0
 40
3.0
 40
4.0
 40
4.0
 40
4.0
 40
5.0
 40
5.0
 40
5.0
 40
6.0
 40
6.0
 40
6.0
 40
7.0
 40
7.0
 40
7.0
 40
8.0
 40
8.0
 40
8.0
 40
9.0
 40
9.0
 40
9.0
 40
10.0
 40
10.0
 40
10.0
 40
11.0
 40
11.0
 40
11.0
 40
12.0
 40
12.0
 40
12.0
 40
13.0
 40
13.0
 40
13.0
 40
14.0
 40
14.0
 40
14.0
 40
15.0
 40
15.0
 40
15.0
 40
15.0
 10
0.0028457258451277
 20
-4.465049305519932
 10
0.0028542747095217
 20
-4.311949404848456
 10
0.0076822458134731
 20
-4.158634756706229
 10
0.0009014576411346
 20
-4.005835776057387
 10
-0.002712574734662
 20
-3.924395191442625
 10
0.0277555775701204
 20
-3.889233370692055
 10
0.1015027827508119
 20
-3.85982083214915
 10
0.86128531860753
 20
-3.556798814637343
 10
1.605138755646054
 20
-3.622906498228859
 10
2.342414183573509
 20
-3.941742204891145
 10
2.705785369695275
 20
-4.098882982732005
 10
3.053609591232252
 20
-4.287515382909406
 10
3.411677061953393
 20
-4.455251623142695
 10
3.853178370485086
 20
-4.662071903059413
 10
4.307142213368289
 20
-4.808390160672439
 10
4.804385536571367
 20
-4.763098277701171
 10
4.983859025510418
 20
-4.746750797464515
 10
5.158952760300419
 20
-4.711582137622599
 10
5.327835916165541
 20
-4.649359399916016
 10
5.392127479028848
 20
-4.625671522851462
 10
5.410617646609112
 20
-4.639253958424293
 10
5.410000760562689
 20
-4.708750753772063
 10
5.407116715708272
 20
-5.03359665398001
 10
5.405655885779424
 20
-5.358532146285685
 10
5.41095207818009
 20
-5.683317862489161
 10
5.412220045730489
 20
-5.76108653891697
 10
5.368603056249437
 20
-5.775703729022691
 10
5.314542090250862
 20
-5.795539145886524
 10
4.817827086860625
 20
-5.977786570308239
 10
4.322450493662813
 20
-5.97652202230357
 10
3.825418498385349
 20
-5.793748671751258
 10
3.47060575127413
 20
-5.663273853336489
 10
3.136715494609271
 20
-5.488369561379284
 10
2.798800090685745
 20
-5.321908127787878
 10
2.386002106915788
 20
-5.118559370679374
 10
1.967360803431334
 20
-4.933946988442471
 10
1.507889269244729
 20
-4.860065651581066
 10
1.031859781783042
 20
-4.783523224246159
 10
0.5709575096699002
 20
-4.83674093027144
 10
0.1215748321783141
 20
-5.006602760119941
 10
0.003778919870279
 20
-5.05112798094232
 10
0.003174771631153
 20
-5.050311393426024
 10
0.0029127489410712
 20
-4.924350375352926
 10
0.0025943892351405
 20
-4.771250474681323
 10
0.0028371769807336
 20
-4.618149890100741
 10
0.0028457258451277
 20
-4.465049305519932
 97
        0
 97
        1
330
83
 75
     2
 76
     1
 98
        1
 10
0.0
 20
0.0
450
        0
451
        0
460
0.0
461
0.0
452
        0
462
0.0
453
        0
470

  0
SPLINE
  5
85
330
79
100
AcDbEntity
  8
Слой 1
100
AcDbSpline
210
0.0
220
0.0
230
1.0
 70
     9
 71
     3
 72
    50
 73
    46
 74
     0
 42
0.0000000001
 43
0.0000000001
 40
0.0
 40
0.0
 40
0.0
 40
0.0
 40
1.0
 40
1.0
 40
1.0
 40
2.0
 40
2.0
 40
2.0
 40
3.0
 40
3.0
 40
3.0
 40
4.0
 40
4.0
 40
4.0
 40
5.0
 40
5.0
 40
5.0
 40
6.0
 40
6.0
 40
6.0
 40
7.0
 40
7.0
 40
7.0
 40
8.0
 40
8.0
 40
8.0
 40
9.0
 40
9.0
 40
9.0
 40
10.0
 40
10.0
 40
10.0
 40
11.0
 40
11.0
 40
11.0
 40
12.0
 40
12.0
 40
12.0
 40
13.0
 40
13.0
 40
13.0
 40
14.0
 40
14.0
 40
14.0
 40
15.0
 40
15.0
 40
15.0
 40
15.0
 10
0.0028389722422288
 20
-6.709485232109146
 30
0.0
 10
0.002850342232048
 20
-6.556399693529581
 30
0.0
 10
0.0080439482607694
 20
-6.403069999386211
 30
0.0
 10
0.0008345200337393
 20
-6.250324363650431
 30
0.0
 10
-0.0032614118214522
 20
-6.163544500359168
 30
0.0
 10
0.0314931410348057
 20
-6.127850598295759
 30
0.0
 10
0.1088838721726562
 20
-6.097563681913722
 30
0.0
 10
0.7558889355215494
 20
-5.844364103488929
 30
0.0
 10
1.403980559521338
 20
-5.843579659702274
 30
0.0
 10
2.057017188576726
 20
-6.072754193855644
 30
0.0
 10
2.477568992250906
 20
-6.220341786837252
 30
0.0
 10
2.86809923629106
 20
-6.432430902788887
 30
0.0
 10
3.267322649443144
 20
-6.626031218978469
 30
0.0
 10
3.505883152669967
 20
-6.7417199217292
 30
0.0
 10
3.747512356219532
 20
-6.848956191385998
 30
0.0
 10
4.003344642889449
 20
-6.922574223227406
 30
0.0
 10
4.431687539516777
 20
-7.045830380641417
 30
0.0
 10
4.857264707571453
 20
-7.041536115135057
 30
0.0
 10
5.282048199065658
 20
-6.906905864769694
 30
0.0
 10
5.408228751973928
 20
-6.866914277653777
 30
0.0
 10
5.408717747010945
 20
-6.868142578473831
 30
0.0
 10
5.4087485229224
 20
-7.004851228723635
 30
0.0
 10
5.408814178200158
 20
-7.296087098025862
 30
0.0
 10
5.403313496965791
 20
-7.587479582521533
 30
0.0
 10
5.411694119600016
 20
-7.878474031896151
 30
0.0
 10
5.414665020915574
 20
-7.981623944425816
 30
0.0
 10
5.374969566458262
 20
-8.017855399075262
 30
0.0
 10
5.284856330005532
 20
-8.04899104670307
 30
0.0
 10
4.727159200093599
 20
-8.241678344187119
 30
0.0
 10
4.184762827475765
 20
-8.196097851557826
 30
0.0
 10
3.648484022138454
 20
-7.966183327712315
 30
0.0
 10
3.301779359868103
 20
-7.817543198560062
 30
0.0
 10
2.968150356495306
 20
-7.642287377303368
 30
0.0
 10
2.628389765704835
 20
-7.479538202538302
 30
0.0
 10
2.222613477102514
 20
-7.285167120745249
 30
0.0
 10
1.805756492570822
 20
-7.129789802628439
 30
0.0
 10
1.353784535065212
 20
-7.079657894654777
 30
0.0
 10
0.9245084444124939
 20
-7.032042772325691
 30
0.0
 10
0.5123232432346186
 20
-7.098139855325623
 30
0.0
 10
0.1136023323248941
 20
-7.252042665330716
 30
0.0
 10
0.0068044484287384
 20
-7.293265288903057
 30
0.0
 10
-0.0018476006463036
 20
-7.260791231083278
 30
0.0
 10
0.0013723290861284
 20
-7.168690554662033
 30
0.0
 10
0.0067178484335449
 20
-7.015791723278375
 30
0.0
 10
0.0028275167640636
 20
-6.862570770688711
 30
0.0
 10
0.0028389722422288
 20
-6.709485232109146
 30
0.0
  0
HATCH
  5
86
330
79
100
AcDbEntity
  8
Слой 1
 62
    18
420
        0
440
 33554687
100
AcDbHatch
 10
0.0
 20
0.0
 30
0.0
210
0.0
220
0.0
230
1.0
  2
SOLID
 70
     1
 71
     1
 91
        1
 92
        1
 93
        1
 72
     4
 94
        3
 73
     0
 74
     0
 95
       50
 96
       46
 40
0.0
 40
0.0
 40
0.0
 40
0.0
 40
1.0
 40
1.0
 40
1.0
 40
2.0
 40
2.0
 40
2.0
 40
3.0
 40
3.0
 40
3.0
 40
4.0
 40
4.0
 40
4.0
 40
5.0
 40
5.0
 40
5.0
 40
6.0
 40
6.0
 40
6.0
 40
7.0
 40
7.0
 40
7.0
 40
8.0
 40
8.0
 40
8.0
 40
9.0
 40
9.0
 40
9.0
 40
10.0
 40
10.0
 40
10.0
 40
11.0
 40
11.0
 40
11.0
 40
12.0
 40
12.0
 40
12.0
 40
13.0
 40
13.0
 40
13.0
 40
14.0
 40
14.0
 40
14.0
 40
15.0
 40
15.0
 40
15.0
 40
15.0
 10
0.0028389722422288
 20
-6.709485232109146
 10
0.002850342232048
 20
-6.556399693529581
 10
0.0080439482607694
 20
-6.403069999386211
 10
0.0008345200337393
 20
-6.250324363650431
 10
-0.0032614118214522
 20
-6.163544500359168
 10
0.0314931410348057
 20
-6.127850598295759
 10
0.1088838721726562
 20
-6.097563681913722
 10
0.7558889355215494
 20
-5.844364103488929
 10
1.403980559521338
 20
-5.843579659702274
 10
2.057017188576726
 20
-6.072754193855644
 10
2.477568992250906
 20
-6.220341786837252
 10
2.86809923629106
 20
-6.432430902788887
 10
3.267322649443144
 20
-6.626031218978469
 10
3.505883152669967
 20
-6.7417199217292
 10
3.747512356219532
 20
-6.848956191385998
 10
4.003344642889449
 20
-6.922574223227406
 10
4.431687539516777
 20
-7.045830380641417
 10
4.857264707571453
 20
-7.041536115135057
 10
5.282048199065658
 20
-6.906905864769694
 10
5.408228751973928
 20
-6.866914277653777
 10
5.408717747010945
 20
-6.868142578473831
 10
5.4087485229224
 20
-7.004851228723635
 10
5.408814178200158
 20
-7.296087098025862
 10
5.403313496965791
 20
-7.587479582521533
 10
5.411694119600016
 20
-7.878474031896151
 10
5.414665020915574
 20
-7.981623944425816
 10
5.374969566458262
 20
-8.017855399075262
 10
5.284856330005532
 20
-8.04899104670307
 10
4.727159200093599
 20
-8.241678344187119
 10
4.184762827475765
 20
-8.196097851557826
 10
3.648484022138454
 20
-7.966183327712315
 10
3.301779359868103
 20
-7.817543198560062
 10
2.968150356495306
 20
-7.642287377303368
 10
2.628389765704835
 20
-7.479538202538302
 10
2.222613477102514
 20
-7.285167120745249
 10
1.805756492570822
 20
-7.129789802628439
 10
1.353784535065212
 20
-7.079657894654777
 10
0.9245084444124939
 20
-7.032042772325691
 10
0.5123232432346186
 20
-7.098139855325623
 10
0.1136023323248941
 20
-7.252042665330716
 10
0.0068044484287384
 20
-7.293265288903057
 10
-0.0018476006463036
 20
-7.260791231083278
 10
0.0013723290861284
 20
-7.168690554662033
 10
0.0067178484335449
 20
-7.015791723278375
 10
0.0028275167640636
 20
-6.862570770688711
 10
0.0028389722422288
 20
-6.709485232109146
 97
        0
 97
        1
330
85
 75
     2
 76
     1
 98
        1
 10
0.0
 20
0.0
450
        0
451
        0
460
0.0
461
0.0
452
        0
462
0.0
453
        0
470

  0
ENDBLK
  5
7C
330
79
100
AcDbEntity
  8
0
100
AcDbBlockEnd
  0
ENDSEC
  0
SECTION
  2
ENTITIES
  0
INSERT
  5
7A
330
70
100
AcDbEntity
  8
Слой 1
100
AcDbBlockReference
  2
Block_0
 10
0.0
 20
0.0
 30
0.0
  0
ENDSEC
  0
SECTION
  2
OBJECTS
  0
DICTIONARY
  5
C
330
0
100
AcDbDictionary
281
     1
  3
ACAD_COLOR
350
63
  3
ACAD_DETAILVIEWSTYLE
350
6A
  3
ACAD_GROUP
350
D
  3
ACAD_LAYOUT
350
62
  3
ACAD_MATERIAL
350
10
  3
ACAD_MLEADERSTYLE
350
66
  3
ACAD_MLINESTYLE
350
5F
  3
ACAD_PLOTSETTINGS
350
61
  3
ACAD_PLOTSTYLENAME
350
E
  3
ACAD_SCALELIST
350
42
  3
ACAD_SECTIONVIEWSTYLE
350
68
  3
ACAD_TABLESTYLE
350
64
  3
ACAD_VISUALSTYLE
350
29
  3
ACDB_RECOMPOSE_DATA
350
8F
  3
AcDbVariableDictionary
350
87
  0
DICTIONARY
  5
63
102
{ACAD_REACTORS
330
C
102
}
330
C
100
AcDbDictionary
281
     1
  0
DICTIONARY
  5
6A
102
{ACAD_REACTORS
330
C
102
}
330
C
100
AcDbDictionary
281
     1
  3
Imperial24
350
6B
  0
DICTIONARY
  5
D
102
{ACAD_REACTORS
330
C
102
}
330
C
100
AcDbDictionary
281
     1
  0
DICTIONARY
  5
62
102
{ACAD_REACTORS
330
C
102
}
330
C
100
AcDbDictionary
281
     1
  3
Layout1
350
6F
  3
Layout2
350
77
  3
Model
350
73
  0
DICTIONARY
  5
10
102
{ACAD_REACTORS
330
C
102
}
330
C
100
AcDbDictionary
281
     1
  3
ByBlock
350
19
  3
ByLayer
350
11
  3
Global
350
21
  0
DICTIONARY
  5
66
102
{ACAD_REACTORS
330
C
102
}
330
C
100
AcDbDictionary
281
     1
  3
Standard
350
67
  0
DICTIONARY
  5
5F
102
{ACAD_REACTORS
330
C
102
}
330
C
100
AcDbDictionary
281
     1
  3
Standard
350
60
  0
DICTIONARY
  5
61
102
{ACAD_REACTORS
330
C
102
}
330
C
100
AcDbDictionary
281
     1
  0
ACDBDICTIONARYWDFLT
  5
E
102
{ACAD_REACTORS
330
C
102
}
330
C
100
AcDbDictionary
281
     1
  3
Normal
350
F
100
AcDbDictionaryWithDefault
340
F
  0
DICTIONARY
  5
42
102
{ACAD_REACTORS
330
C
102
}
330
C
100
AcDbDictionary
281
     1
  3
A0
350
43
  3
A1
350
44
  3
A2
350
45
  3
A3
350
46
  3
A4
350
47
  3
A5
350
48
  3
A6
350
49
  3
A7
350
4A
  3
A8
350
4B
  3
A9
350
4C
  3
B0
350
4D
  3
B1
350
4E
  3
B2
350
4F
  3
B3
350
50
  3
B4
350
51
  3
B5
350
52
  3
B6
350
53
  0
DICTIONARY
  5
68
102
{ACAD_REACTORS
330
C
102
}
330
C
100
AcDbDictionary
281
     1
  3
Imperial24
350
69
  0
DICTIONARY
  5
64
102
{ACAD_REACTORS
330
C
102
}
330
C
100
AcDbDictionary
281
     1
  3
Standard
350
65
  0
DICTIONARY
  5
29
102
{ACAD_REACTORS
330
C
102
}
330
C
100
AcDbDictionary
281
     1
  3
2dWireframe
350
2F
  3
Basic
350
2E
  3
Brighten
350
35
  3
ColorChange
350
39
  3
Conceptual
350
32
  3
Dim
350
34
  3
EdgeColorOff
350
41
  3
Facepattern
350
38
  3
Flat
350
2A
  3
FlatWithEdges
350
2B
  3
Gouraud
350
2C
  3
GouraudWithEdges
350
2D
  3
Hidden
350
31
  3
JitterOff
350
3F
  3
Linepattern
350
37
  3
OverhangOff
350
40
  3
Realistic
350
33
  3
Shaded
350
3E
  3
Shaded with edges
350
3D
  3
Shades of Gray
350
3A
  3
Sketchy
350
3B
  3
Thicken
350
36
  3
Wireframe
350
30
  3
X-Ray
350
3C
  0
XRECORD
  5
8F
102
{ACAD_REACTORS
330
C
102
}
330
C
100
AcDbXrecord
280
     1
 90
        1
330
65
  0
DICTIONARY
  5
87
102
{ACAD_REACTORS
330
C
102
}
330
C
100
AcDbDictionary
281
     1
  3
CANNOSCALE
350
8C
  3
CMLEADERSTYLE
350
89
  3
CTABLESTYLE
350
88
  3
CVIEWDETAILSTYLE
350
8A
  3
CVIEWSECTIONSTYLE
350
8B
  0
ACDBDETAILVIEWSTYLE
  5
6B
102
{ACAD_XDICTIONARY
360
92
102
}
102
{ACAD_REACTORS
330
6A
102
}
330
6A
100
AcDbModelDocViewStyle
 70
     0
  3
Imperial24
290
     0
100
AcDbDetailViewStyle
 70
     0
 71
     0
 90
        3
 71
     1
340
55
 62
   256
 40
0.24
340
0
 62
   256
 40
0.24
300

 40
0.36
280
     3
 71
     2
340
5D
 90
       25
 62
   256
 71
     3
340
55
 62
   256
 40
0.24
 90
        1
 40
0.75
 90
        1
300
%<\AcVar ViewType \f "%tc1">% %<\AcVar ViewDetailId>%\PSCALE %<\AcVar ViewScale \f "%sn">%
 71
     4
340
5D
 90
       25
 62
   256
340
5D
 90
       25
 62
   256
280
     0
  0
LAYOUT
  5
6F
102
{ACAD_REACTORS
330
62
102
}
330
62
100
AcDbPlotSettings
  1

  2

  4

  6

 40
0.0
 41
0.0
 42
0.0
 43
0.0
 44
0.0
 45
0.0
 46
0.0
 47
0.0
 48
0.0
 49
0.0
140
0.0
141
0.0
142
1.0
143
1.0
 70
   688
 72
     0
 73
     0
 74
     5
  7

 75
    16
147
1.0
 76
     0
 77
     2
 78
   300
148
0.0
149
0.0
100
AcDbLayout
  1
Layout1
 70
     1
 71
     1
 10
0.0
 20
0.0
 11
12.0
 21
9.0
 12
0.0
 22
0.0
 32
0.0
 14
0.0
 24
0.0
 34
0.0
 15
0.0
 25
0.0
 35
0.0
146
0.0
 13
0.0
 23
0.0
 33
0.0
 16
1.0
 26
0.0
 36
0.0
 17
0.0
 27
1.0
 37
0.0
 76
     0
330
6C
  0
LAYOUT
  5
77
102
{ACAD_REACTORS
330
62
102
}
330
62
100
AcDbPlotSettings
  1

  2

  4

  6

 40
0.0
 41
0.0
 42
0.0
 43
0.0
 44
0.0
 45
0.0
 46
0.0
 47
0.0
 48
0.0
 49
0.0
140
0.0
141
0.0
142
1.0
143
1.0
 70
   688
 72
     0
 73
     0
 74
     5
  7

 75
    16
147
1.0
 76
     0
 77
     2
 78
   300
148
0.0
149
0.0
100
AcDbLayout
  1
Layout2
 70
     1
 71
     2
 10
0.0
 20
0.0
 11
12.0
 21
9.0
 12
0.0
 22
0.0
 32
0.0
 14
0.0
 24
0.0
 34
0.0
 15
0.0
 25
0.0
 35
0.0
146
0.0
 13
0.0
 23
0.0
 33
0.0
 16
1.0
 26
0.0
 36
0.0
 17
0.0
 27
1.0
 37
0.0
 76
     0
330
74
  0
LAYOUT
  5
73
102
{ACAD_REACTORS
330
62
102
}
330
62
100
AcDbPlotSettings
  1

  2

  4

  6

 40
0.0
 41
0.0
 42
0.0
 43
0.0
 44
0.0
 45
0.0
 46
0.0
 47
0.0
 48
0.0
 49
0.0
140
0.0
141
0.0
142
1.0
143
1.0
 70
  1712
 72
     0
 73
     0
 74
     0
  7

 75
     0
147
1.0
 76
     0
 77
     2
 78
   300
148
0.0
149
0.0
100
AcDbLayout
  1
Model
 70
     1
 71
     0
 10
0.0
 20
0.0
 11
12.0
 21
9.0
 12
0.0
 22
0.0
 32
0.0
 14
0.0
 24
0.0
 34
0.0
 15
0.0
 25
0.0
 35
0.0
146
0.0
 13
0.0
 23
0.0
 33
0.0
 16
1.0
 26
0.0
 36
0.0
 17
0.0
 27
1.0
 37
0.0
 76
     0
330
70
  0
MATERIAL
  5
19
102
{ACAD_XDICTIONARY
360
1A
102
}
102
{ACAD_REACTORS
330
10
102
}
330
10
100
AcDbMaterial
  1
ByBlock
 72
     0
 43
0.0208333333333333
 43
0.0
 43
0.0
 43
0.0
 43
0.0
 43
0.0208333333333333
 43
0.0
 43
0.0
 43
0.0
 43
0.0
 43
1.0
 43
0.0
 43
0.0
 43
0.0
 43
0.0
 43
1.0
 77
     0
 47
0.0208333333333333
 47
0.0
 47
0.0
 47
0.0
 47
0.0
 47
0.0208333333333333
 47
0.0
 47
0.0
 47
0.0
 47
0.0
 47
1.0
 47
0.0
 47
0.0
 47
0.0
 47
0.0
 47
1.0
171
     0
 49
0.0208333333333333
 49
0.0
 49
0.0
 49
0.0
 49
0.0
 49
0.0208333333333333
 49
0.0
 49
0.0
 49
0.0
 49
0.0
 49
1.0
 49
0.0
 49
0.0
 49
0.0
 49
0.0
 49
1.0
175
     0
142
0.0208333333333333
142
0.0
142
0.0
142
0.0
142
0.0
142
0.0208333333333333
142
0.0
142
0.0
142
0.0
142
0.0
142
1.0
142
0.0
142
0.0
142
0.0
142
0.0
142
1.0
179
     0
144
0.0208333333333333
144
0.0
144
0.0
144
0.0
144
0.0
144
0.0208333333333333
144
0.0
144
0.0
144
0.0
144
0.0
144
1.0
144
0.0
144
0.0
144
0.0
144
0.0
144
1.0
147
0.0208333333333333
147
0.0
147
0.0
147
0.0
147
0.0
147
0.0208333333333333
147
0.0
147
0.0
147
0.0
147
0.0
147
1.0
147
0.0
147
0.0
147
0.0
147
0.0
147
1.0
  0
MATERIAL
  5
11
102
{ACAD_XDICTIONARY
360
12
102
}
102
{ACAD_REACTORS
330
10
102
}
330
10
100
AcDbMaterial
  1
ByLayer
 72
     0
 43
0.0208333333333333
 43
0.0
 43
0.0
 43
0.0
 43
0.0
 43
0.0208333333333333
 43
0.0
 43
0.0
 43
0.0
 43
0.0
 43
1.0
 43
0.0
 43
0.0
 43
0.0
 43
0.0
 43
1.0
 77
     0
 47
0.0208333333333333
 47
0.0
 47
0.0
 47
0.0
 47
0.0
 47
0.0208333333333333
 47
0.0
 47
0.0
 47
0.0
 47
0.0
 47
1.0
 47
0.0
 47
0.0
 47
0.0
 47
0.0
 47
1.0
171
     0
 49
0.0208333333333333
 49
0.0
 49
0.0
 49
0.0
 49
0.0
 49
0.0208333333333333
 49
0.0
 49
0.0
 49
0.0
 49
0.0
 49
1.0
 49
0.0
 49
0.0
 49
0.0
 49
0.0
 49
1.0
175
     0
142
0.0208333333333333
142
0.0
142
0.0
142
0.0
142
0.0
142
0.0208333333333333
142
0.0
142
0.0
142
0.0
142
0.0
142
1.0
142
0.0
142
0.0
142
0.0
142
0.0
142
1.0
179
     0
144
0.0208333333333333
144
0.0
144
0.0
144
0.0
144
0.0
144
0.0208333333333333
144
0.0
144
0.0
144
0.0
144
0.0
144
1.0
144
0.0
144
0.0
144
0.0
144
0.0
144
1.0
147
0.0208333333333333
147
0.0
147
0.0
147
0.0
147
0.0
147
0.0208333333333333
147
0.0
147
0.0
147
0.0
147
0.0
147
1.0
147
0.0
147
0.0
147
0.0
147
0.0
147
1.0
  0
MATERIAL
  5
21
102
{ACAD_XDICTIONARY
360
22
102
}
102
{ACAD_REACTORS
330
10
102
}
330
10
100
AcDbMaterial
  1
Global
 72
     0
 43
0.0208333333333333
 43
0.0
 43
0.0
 43
0.0
 43
0.0
 43
0.0208333333333333
 43
0.0
 43
0.0
 43
0.0
 43
0.0
 43
1.0
 43
0.0
 43
0.0
 43
0.0
 43
0.0
 43
1.0
 77
     0
 47
0.0208333333333333
 47
0.0
 47
0.0
 47
0.0
 47
0.0
 47
0.0208333333333333
 47
0.0
 47
0.0
 47
0.0
 47
0.0
 47
1.0
 47
0.0
 47
0.0
 47
0.0
 47
0.0
 47
1.0
171
     0
 49
0.0208333333333333
 49
0.0
 49
0.0
 49
0.0
 49
0.0
 49
0.0208333333333333
 49
0.0
 49
0.0
 49
0.0
 49
0.0
 49
1.0
 49
0.0
 49
0.0
 49
0.0
 49
0.0
 49
1.0
175
     0
142
0.0208333333333333
142
0.0
142
0.0
142
0.0
142
0.0
142
0.0208333333333333
142
0.0
142
0.0
142
0.0
142
0.0
142
1.0
142
0.0
142
0.0
142
0.0
142
0.0
142
1.0
179
     0
144
0.0208333333333333
144
0.0
144
0.0
144
0.0
144
0.0
144
0.0208333333333333
144
0.0
144
0.0
144
0.0
144
0.0
144
1.0
144
0.0
144
0.0
144
0.0
144
0.0
144
1.0
147
0.0208333333333333
147
0.0
147
0.0
147
0.0
147
0.0
147
0.0208333333333333
147
0.0
147
0.0
147
0.0
147
0.0
147
1.0
147
0.0
147
0.0
147
0.0
147
0.0
147
1.0
  0
MLEADERSTYLE
  5
67
102
{ACAD_REACTORS
330
66
102
}
330
66
100
AcDbMLeaderStyle
179
     2
170
     2
171
     1
172
     0
 90
        2
 40
0.0
 41
0.0
173
     1
 91
-1056964608
340
5B
 92
       -2
290
     1
 42
0.09
291
     1
 43
0.36
  3
Standard
 44
0.18
300

342
55
174
     1
178
     6
175
     1
176
     0
 93
-1056964608
 45
0.18
292
     0
297
     0
 46
0.18
 94
-1056964608
 47
1.0
 49
1.0
140
1.0
293
     1
141
0.0
294
     1
177
     0
142
1.0
295
     0
296
     0
143
0.125
271
     0
272
     9
273
     9
298
     1
  0
MLINESTYLE
  5
60
102
{ACAD_REACTORS
330
5F
102
}
330
5F
100
AcDbMlineStyle
  2
STANDARD
 70
     0
  3

 62
   256
 51
90.0
 52
90.0
 71
     2
 49
0.5
 62
   256
  6
BYLAYER
 49
-0.5
 62
   256
  6
BYLAYER
  0
ACDBPLACEHOLDER
  5
F
102
{ACAD_REACTORS
330
E
102
}
330
E
  0
SCALE
  5
43
102
{ACAD_REACTORS
330
42
102
}
330
42
100
AcDbScale
 70
     0
300
1:1
140
1.0
141
1.0
290
     1
  0
SCALE
  5
44
102
{ACAD_REACTORS
330
42
102
}
330
42
100
AcDbScale
 70
     0
300
1/128" = 1'-0"
140
0.0078125
141
12.0
290
     0
  0
SCALE
  5
45
102
{ACAD_REACTORS
330
42
102
}
330
42
100
AcDbScale
 70
     0
300
1/64" = 1'-0"
140
0.015625
141
12.0
290
     0
  0
SCALE
  5
46
102
{ACAD_REACTORS
330
42
102
}
330
42
100
AcDbScale
 70
     0
300
1/32" = 1'-0"
140
0.03125
141
12.0
290
     0
  0
SCALE
  5
47
102
{ACAD_REACTORS
330
42
102
}
330
42
100
AcDbScale
 70
     0
300
1/16" = 1'-0"
140
0.0625
141
12.0
290
     0
  0
SCALE
  5
48
102
{ACAD_REACTORS
330
42
102
}
330
42
100
AcDbScale
 70
     0
300
3/32" = 1'-0"
140
0.09375
141
12.0
290
     0
  0
SCALE
  5
49
102
{ACAD_REACTORS
330
42
102
}
330
42
100
AcDbScale
 70
     0
300
1/8" = 1'-0"
140
0.125
141
12.0
290
     0
  0
SCALE
  5
4A
102
{ACAD_REACTORS
330
42
102
}
330
42
100
AcDbScale
 70
     0
300
3/16" = 1'-0"
140
0.1875
141
12.0
290
     0
  0
SCALE
  5
4B
102
{ACAD_REACTORS
330
42
102
}
330
42
100
AcDbScale
 70
     0
300
1/4" = 1'-0"
140
0.25
141
12.0
290
     0
  0
SCALE
  5
4C
102
{ACAD_REACTORS
330
42
102
}
330
42
100
AcDbScale
 70
     0
300
3/8" = 1'-0"
140
0.375
141
12.0
290
     0
  0
SCALE
  5
4D
102
{ACAD_REACTORS
330
42
102
}
330
42
100
AcDbScale
 70
     0
300
1/2" = 1'-0"
140
0.5
141
12.0
290
     0
  0
SCALE
  5
4E
102
{ACAD_REACTORS
330
42
102
}
330
42
100
AcDbScale
 70
     0
300
3/4" = 1'-0"
140
0.75
141
12.0
290
     0
  0
SCALE
  5
4F
102
{ACAD_REACTORS
330
42
102
}
330
42
100
AcDbScale
 70
     0
300
1" = 1'-0"
140
1.0
141
12.0
290
     0
  0
SCALE
  5
50
102
{ACAD_REACTORS
330
42
102
}
330
42
100
AcDbScale
 70
     0
300
1-1/2" = 1'-0"
140
1.5
141
12.0
290
     0
  0
SCALE
  5
51
102
{ACAD_REACTORS
330
42
102
}
330
42
100
AcDbScale
 70
     0
300
3" = 1'-0"
140
3.0
141
12.0
290
     0
  0
SCALE
  5
52
102
{ACAD_REACTORS
330
42
102
}
330
42
100
AcDbScale
 70
     0
300
6" = 1'-0"
140
6.0
141
12.0
290
     0
  0
SCALE
  5
53
102
{ACAD_REACTORS
330
42
102
}
330
42
100
AcDbScale
 70
     0
300
1'-0" = 1'-0"
140
12.0
141
12.0
290
     0
  0
ACDBSECTIONVIEWSTYLE
  5
69
102
{ACAD_XDICTIONARY
360
90
102
}
102
{ACAD_REACTORS
330
68
102
}
330
68
100
AcDbModelDocViewStyle
 70
     0
  3
Imperial24
290
     0
100
AcDbSectionViewStyle
 70
     0
 71
     0
 90
       78
 71
     1
340
55
 62
   256
 40
0.24
340
0
340
0
 62
   256
 40
0.24
300
I, O, Q, S, X, Z
 40
0.48
 90
        3
 40
0.18
 90
        1
 71
     2
340
5D
 90
       25
 62
   256
340
5D
 90
       50
 62
   256
 40
0.24
 40
0.0
 40
0.24
 71
     3
340
55
 62
   256
 40
0.24
 90
        1
 40
0.75
 90
        1
300
%<\AcVar ViewType \f "%tc1">% %<\AcVar ViewSectionStartId>%-%<\AcVar ViewSectionEndId>%\PSCALE %<\AcVar ViewScale \f "%sn">%
 71
     4
 62
   256
 62
   257
300
ANSI31
 40
1.0
 90
        0
290
     0
290
     0
 90
        6
 40
0.0
 40
1.570796326794896
 40
0.2617993877991494
 40
1.308996938995747
 40
-0.2617993877991494
 40
1.832595714594046
  0
TABLESTYLE
  5
65
102
{ACAD_XDICTIONARY
360
8D
102
}
102
{ACAD_REACTORS
330
64
102
}
330
64
100
AcDbTableStyle
280
     0
  3
Standard
 70
     0
 71
     0
 40
0.06
 41
0.06
280
     0
281
     0
  7
Standard
140
0.18
170
     2
 62
     0
 63
     7
283
     0
 90
      512
 91
        0
  1

274
    -2
284
     1
 64
     0
275
    -2
285
     1
 65
     0
276
    -2
286
     1
 66
     0
277
    -2
287
     1
 67
     0
278
    -2
288
     1
 68
     0
279
    -2
289
     1
 69
     0
  7
Standard
140
0.25
170
     5
 62
     0
 63
     7
283
     0
 90
      512
 91
        0
  1

274
    -2
284
     1
 64
     0
275
    -2
285
     1
 65
     0
276
    -2
286
     1
 66
     0
277
    -2
287
     1
 67
     0
278
    -2
288
     1
 68
     0
279
    -2
289
     1
 69
     0
  7
Standard
140
0.18
170
     5
 62
     0
 63
     7
283
     0
 90
      512
 91
        0
  1

274
    -2
284
     1
 64
     0
275
    -2
285
     1
 65
     0
276
    -2
286
     1
 66
     0
277
    -2
287
     1
 67
     0
278
    -2
288
     1
 68
     0
279
    -2
289
     1
 69
     0
  0
VISUALSTYLE
  5
2F
102
{ACAD_REACTORS
330
29
102
}
330
29
100
AcDbVisualStyle
  2
2dWireframe
 70
     4
177
     3
291
     0
 70
    58
 90
        0
176
     1
 90
        2
176
     1
 90
        0
176
     1
 90
        0
176
     1
 40
0.6
176
     1
 40
30.0
176
     1
 62
     7
420
 16777215
176
     1
 90
        1
176
     1
 90
        4
176
     1
 62
     7
176
     1
 62
   257
176
     1
 90
        1
176
     1
 90
        1
176
     1
 40
1.0
176
     1
 90
        0
176
     1
 62
   257
176
     1
 40
1.0
176
     1
 90
        1
176
     1
 90
        6
176
     1
 90
        2
176
     1
 62
     7
176
     1
 90
        5
176
     1
 90
        0
176
     1
 90
        0
176
     1
290
     0
176
     1
 90
        1
176
     1
 40
0.0
176
     1
 90
        0
176
     1
290
     1
176
     1
290
     1
176
     1
290
     0
176
     1
290
     0
176
     1
290
     0
176
     1
290
     0
176
     1
290
     0
176
     1
290
     0
176
     1
290
     0
176
     1
 90
       50
176
     1
 40
0.0
176
     1
 40
1.0
176
     1
 90
        0
176
     1
 62
    18
420
        0
176
     1
 90
       50
176
     1
 90
        3
176
     1
 62
     5
420
      255
176
     1
290
     0
176
     1
 90
       50
176
     1
 90
       50
176
     1
 90
       50
176
     1
290
     0
176
     1
 90
       50
176
     1
 62
   256
176
     0
 40
1.0
176
     0
 90
        2
176
     1
  1
strokes_ogs.tif
176
     1
290
     0
176
     1
 40
1.0
176
     1
 40
1.0
176
     1
1001
ACAD
1000
AcDbSavedByObjectVersion
1070
     0
  0
VISUALSTYLE
  5
2E
102
{ACAD_REACTORS
330
29
102
}
330
29
100
AcDbVisualStyle
  2
Basic
 70
     7
177
     3
291
     1
 70
    58
 90
        1
176
     1
 90
        0
176
     1
 90
        1
176
     1
 90
        0
176
     1
 40
0.6
176
     1
 40
30.0
176
     1
 62
     7
420
 16777215
176
     1
 90
        0
176
     1
 90
        4
176
     1
 62
     7
176
     1
 62
   257
176
     1
 90
        1
176
     1
 90
        1
176
     1
 40
1.0
176
     1
 90
        8
176
     1
 62
     7
176
     1
 40
1.0
176
     1
 90
        1
176
     1
 90
        6
176
     1
 90
        2
176
     1
 62
     7
176
     1
 90
        5
176
     1
 90
        0
176
     1
 90
        0
176
     1
290
     0
176
     1
 90
        1
176
     1
 40
0.0
176
     1
 90
        0
176
     1
290
     0
176
     1
290
     1
176
     1
290
     1
176
     1
290
     0
176
     1
290
     0
176
     1
290
     0
176
     1
290
     0
176
     1
290
     0
176
     1
290
     0
176
     1
 90
       50
176
     1
 40
0.0
176
     1
 40
1.0
176
     1
 90
        0
176
     1
 62
    18
420
        0
176
     1
 90
       50
176
     1
 90
        3
176
     1
 62
     5
420
      255
176
     1
290
     0
176
     1
 90
       50
176
     1
 90
       50
176
     1
 90
       50
176
     1
290
     0
176
     1
 90
       50
176
     1
 62
   256
176
     0
 40
1.0
176
     0
 90
        2
176
     1
  1
strokes_ogs.tif
176
     1
290
     0
176
     1
 40
1.0
176
     1
 40
1.0
176
     1
1001
ACAD
1000
AcDbSavedByObjectVersion
1070
     0
  0
VISUALSTYLE
  5
35
102
{ACAD_REACTORS
330
29
102
}
330
29
100
AcDbVisualStyle
  2
Brighten
 70
    12
177
     3
291
     1
 70
    58
 90
        2
176
     1
 90
        2
176
     1
 90
        0
176
     1
 90
        0
176
     1
 40
0.6
176
     1
 40
30.0
176
     1
 62
     7
420
 16777215
176
     1
 90
        1
176
     1
 90
        4
176
     1
 62
     7
176
     1
 62
   257
176
     1
 90
        1
176
     1
 90
        1
176
     1
 40
1.0
176
     1
 90
        8
176
     1
 62
     7
176
     1
 40
1.0
176
     1
 90
        1
176
     1
 90
        6
176
     1
 90
        2
176
     1
 62
     7
176
     1
 90
        5
176
     1
 90
        0
176
     1
 90
        0
176
     1
290
     0
176
     1
 90
        1
176
     1
 40
50.0
176
     1
 90
        0
176
     1
290
     0
176
     1
290
     1
176
     1
290
     1
176
     1
290
     0
176
     1
290
     0
176
     1
290
     0
176
     1
290
     0
176
     1
290
     0
176
     1
290
     0
176
     1
 90
       50
176
     1
 40
0.0
176
     1
 40
1.0
176
     1
 90
        0
176
     1
 62
    18
420
        0
176
     1
 90
       50
176
     1
 90
        3
176
     1
 62
     5
420
      255
176
     1
290
     0
176
     1
 90
       50
176
     1
 90
       50
176
     1
 90
       50
176
     1
290
     0
176
     1
 90
       50
176
     1
 62
   256
176
     0
 40
1.0
176
     0
 90
        2
176
     1
  1
strokes_ogs.tif
176
     1
290
     0
176
     1
 40
1.0
176
     1
 40
1.0
176
     1
1001
ACAD
1000
AcDbSavedByObjectVersion
1070
     0
  0
VISUALSTYLE
  5
39
102
{ACAD_REACTORS
330
29
102
}
330
29
100
AcDbVisualStyle
  2
ColorChange
 70
    16
177
     3
291
     1
 70
    58
 90
        2
176
     1
 90
        2
176
     1
 90
        3
176
     1
 90
        0
176
     1
 40
0.6
176
     1
 40
30.0
176
     1
 62
     8
420
  8421504
176
     1
 90
        1
176
     1
 90
        4
176
     1
 62
     7
176
     1
 62
   257
176
     1
 90
        1
176
     1
 90
        1
176
     1
 40
1.0
176
     1
 90
        8
176
     1
 62
     8
420
  8421504
176
     1
 40
1.0
176
     1
 90
        1
176
     1
 90
        6
176
     1
 90
        2
176
     1
 62
     7
176
     1
 90
        5
176
     1
 90
        0
176
     1
 90
        0
176
     1
290
     0
176
     1
 90
        1
176
     1
 40
0.0
176
     1
 90
        0
176
     1
290
     0
176
     1
290
     1
176
     1
290
     1
176
     1
290
     0
176
     1
290
     0
176
     1
290
     0
176
     1
290
     0
176
     1
290
     0
176
     1
290
     0
176
     1
 90
       50
176
     1
 40
0.0
176
     1
 40
1.0
176
     1
 90
        0
176
     1
 62
    18
420
        0
176
     1
 90
       50
176
     1
 90
        3
176
     1
 62
     5
420
      255
176
     1
290
     0
176
     1
 90
       50
176
     1
 90
       50
176
     1
 90
       50
176
     1
290
     0
176
     1
 90
       50
176
     1
 62
   256
176
     0
 40
1.0
176
     0
 90
        2
176
     1
  1
strokes_ogs.tif
176
     1
290
     0
176
     1
 40
1.0
176
     1
 40
1.0
176
     1
1001
ACAD
1000
AcDbSavedByObjectVersion
1070
     0
  0
VISUALSTYLE
  5
32
102
{ACAD_REACTORS
330
29
102
}
330
29
100
AcDbVisualStyle
  2
Conceptual
 70
     9
177
     3
291
     0
 70
    58
 90
        3
176
     1
 90
        2
176
     1
 90
        0
176
     1
 90
        0
176
     1
 40
0.6
176
     1
 40
30.0
176
     1
 62
     7
420
 16777215
176
     1
 90
        2
176
     1
 90
        2
176
     1
 62
     7
176
     1
 62
   257
176
     1
 90
        1
176
     1
 90
        1
176
     1
 40
179.0
176
     1
 90
        8
176
     1
 62
     7
176
     1
 40
1.0
176
     1
 90
        1
176
     1
 90
        6
176
     1
 90
        2
176
     1
 62
     7
176
     1
 90
        3
176
     1
 90
        0
176
     1
 90
        0
176
     1
290
     0
176
     1
 90
        1
176
     1
 40
0.0
176
     1
 90
        0
176
     1
290
     0
176
     1
290
     1
176
     1
290
     1
176
     1
290
     0
176
     1
290
     0
176
     1
290
     0
176
     1
290
     0
176
     1
290
     0
176
     1
290
     0
176
     1
 90
       50
176
     1
 40
0.0
176
     1
 40
1.0
176
     1
 90
        0
176
     1
 62
    18
420
        0
176
     1
 90
       50
176
     1
 90
        3
176
     1
 62
     5
420
      255
176
     1
290
     0
176
     1
 90
       50
176
     1
 90
       50
176
     1
 90
       50
176
     1
290
     0
176
     1
 90
       50
176
     1
 62
   256
176
     0
 40
1.0
176
     0
 90
        2
176
     1
  1
strokes_ogs.tif
176
     1
290
     0
176
     1
 40
1.0
176
     1
 40
1.0
176
     1
1001
ACAD
1000
AcDbSavedByObjectVersion
1070
     0
  0
VISUALSTYLE
  5
34
102
{ACAD_REACTORS
330
29
102
}
330
29
100
AcDbVisualStyle
  2
Dim
 70
    11
177
     3
291
     1
 70
    58
 90
        2
176
     1
 90
        2
176
     1
 90
        0
176
     1
 90
        0
176
     1
 40
0.6
176
     1
 40
30.0
176
     1
 62
     7
420
 16777215
176
     1
 90
        1
176
     1
 90
        4
176
     1
 62
     7
176
     1
 62
   257
176
     1
 90
        1
176
     1
 90
        1
176
     1
 40
1.0
176
     1
 90
        8
176
     1
 62
     7
176
     1
 40
1.0
176
     1
 90
        1
176
     1
 90
        6
176
     1
 90
        2
176
     1
 62
     7
176
     1
 90
        5
176
     1
 90
        0
176
     1
 90
        0
176
     1
290
     0
176
     1
 90
        1
176
     1
 40
-50.0
176
     1
 90
        0
176
     1
290
     0
176
     1
290
     1
176
     1
290
     1
176
     1
290
     0
176
     1
290
     0
176
     1
290
     0
176
     1
290
     0
176
     1
290
     0
176
     1
290
     0
176
     1
 90
       50
176
     1
 40
0.0
176
     1
 40
1.0
176
     1
 90
        0
176
     1
 62
    18
420
        0
176
     1
 90
       50
176
     1
 90
        3
176
     1
 62
     5
420
      255
176
     1
290
     0
176
     1
 90
       50
176
     1
 90
       50
176
     1
 90
       50
176
     1
290
     0
176
     1
 90
       50
176
     1
 62
   256
176
     0
 40
1.0
176
     0
 90
        2
176
     1
  1
strokes_ogs.tif
176
     1
290
     0
176
     1
 40
1.0
176
     1
 40
1.0
176
     1
1001
ACAD
1000
AcDbSavedByObjectVersion
1070
     0
  0
VISUALSTYLE
  5
41
102
{ACAD_REACTORS
330
29
102
}
330
29
100
AcDbVisualStyle
  2
EdgeColorOff
 70
    22
177
     3
291
     1
 70
    58
 90
        2
176
     0
 90
        2
176
     0
 90
        0
176
     0
 90
        0
176
     0
 40
0.6
176
     0
 40
30.0
176
     0
 62
     7
420
 16777215
176
     0
 90
        1
176
     0
 90
        4
176
     0
 62
     7
176
     0
 62
   257
176
     0
 90
        1
176
     0
 90
        1
176
     0
 40
1.0
176
     0
 90
        8
176
     2
 62
     7
176
     0
 40
1.0
176
     0
 90
        1
176
     0
 90
        6
176
     0
 90
        2
176
     0
 62
     7
176
     0
 90
        5
176
     0
 90
        0
176
     0
 90
        0
176
     0
290
     0
176
     0
 90
        1
176
     0
 40
0.0
176
     0
 90
        0
176
     0
290
     0
176
     0
290
     1
176
     0
290
     1
176
     0
290
     0
176
     0
290
     0
176
     0
290
     0
176
     0
290
     0
176
     0
290
     0
176
     0
290
     0
176
     0
 90
       50
176
     0
 40
0.0
176
     0
 40
1.0
176
     0
 90
        0
176
     0
 62
    18
420
        0
176
     0
 90
       50
176
     0
 90
        3
176
     0
 62
     5
420
      255
176
     0
290
     0
176
     0
 90
       50
176
     0
 90
       50
176
     0
 90
       50
176
     0
290
     0
176
     0
 90
       50
176
     0
 62
   256
176
     0
 40
1.0
176
     0
 90
        2
176
     0
  1
strokes_ogs.tif
176
     0
290
     0
176
     0
 40
1.0
176
     0
 40
1.0
176
     0
1001
ACAD
1000
AcDbSavedByObjectVersion
1070
     0
  0
VISUALSTYLE
  5
38
102
{ACAD_REACTORS
330
29
102
}
330
29
100
AcDbVisualStyle
  2
Facepattern
 70
    15
177
     3
291
     1
 70
    58
 90
        2
176
     1
 90
        2
176
     1
 90
        0
176
     1
 90
        0
176
     1
 40
0.6
176
     1
 40
30.0
176
     1
 62
     7
420
 16777215
176
     1
 90
        1
176
     1
 90
        4
176
     1
 62
     7
176
     1
 62
   257
176
     1
 90
        1
176
     1
 90
        1
176
     1
 40
1.0
176
     1
 90
        8
176
     1
 62
     7
176
     1
 40
1.0
176
     1
 90
        1
176
     1
 90
        6
176
     1
 90
        2
176
     1
 62
     7
176
     1
 90
        5
176
     1
 90
        0
176
     1
 90
        0
176
     1
290
     0
176
     1
 90
        1
176
     1
 40
0.0
176
     1
 90
        0
176
     1
290
     0
176
     1
290
     1
176
     1
290
     1
176
     1
290
     0
176
     1
290
     0
176
     1
290
     0
176
     1
290
     0
176
     1
290
     0
176
     1
290
     0
176
     1
 90
       50
176
     1
 40
0.0
176
     1
 40
1.0
176
     1
 90
        0
176
     1
 62
    18
420
        0
176
     1
 90
       50
176
     1
 90
        3
176
     1
 62
     5
420
      255
176
     1
290
     0
176
     1
 90
       50
176
     1
 90
       50
176
     1
 90
       50
176
     1
290
     0
176
     1
 90
       50
176
     1
 62
   256
176
     0
 40
1.0
176
     0
 90
        2
176
     1
  1
strokes_ogs.tif
176
     1
290
     0
176
     1
 40
1.0
176
     1
 40
1.0
176
     1
1001
ACAD
1000
AcDbSavedByObjectVersion
1070
     0
  0
VISUALSTYLE
  5
2A
102
{ACAD_REACTORS
330
29
102
}
330
29
100
AcDbVisualStyle
  2
Flat
 70
     0
177
     3
291
     1
 70
    58
 90
        2
176
     1
 90
        1
176
     1
 90
        1
176
     1
 90
        2
176
     1
 40
0.6
176
     1
 40
30.0
176
     1
 62
     7
420
 16777215
176
     1
 90
        0
176
     1
 90
        0
176
     1
 62
     7
176
     1
 62
   257
176
     1
 90
        1
176
     1
 90
        1
176
     1
 40
1.0
176
     1
 90
        8
176
     1
 62
     7
176
     1
 40
1.0
176
     1
 90
        1
176
     1
 90
        6
176
     1
 90
        2
176
     1
 62
     7
176
     1
 90
        5
176
     1
 90
        0
176
     1
 90
        0
176
     1
290
     0
176
     1
 90
       13
176
     1
 40
0.0
176
     1
 90
        0
176
     1
290
     0
176
     1
290
     1
176
     1
290
     1
176
     1
290
     0
176
     1
290
     0
176
     1
290
     0
176
     1
290
     0
176
     1
290
     0
176
     1
290
     0
176
     1
 90
       50
176
     1
 40
0.0
176
     1
 40
1.0
176
     1
 90
        0
176
     1
 62
    18
420
        0
176
     1
 90
       50
176
     1
 90
        3
176
     1
 62
     5
420
      255
176
     1
290
     0
176
     1
 90
       50
176
     1
 90
       50
176
     1
 90
       50
176
     1
290
     0
176
     1
 90
       50
176
     1
 62
   256
176
     0
 40
1.0
176
     0
 90
        2
176
     1
  1
strokes_ogs.tif
176
     1
290
     0
176
     1
 40
1.0
176
     1
 40
1.0
176
     1
1001
ACAD
1000
AcDbSavedByObjectVersion
1070
     0
  0
VISUALSTYLE
  5
2B
102
{ACAD_REACTORS
330
29
102
}
330
29
100
AcDbVisualStyle
  2
FlatWithEdges
 70
     1
177
     3
291
     1
 70
    58
 90
        2
176
     1
 90
        1
176
     1
 90
        1
176
     1
 90
        2
176
     1
 40
0.6
176
     1
 40
30.0
176
     1
 62
     7
420
 16777215
176
     1
 90
        1
176
     1
 90
        0
176
     1
 62
     7
176
     1
 62
   257
176
     1
 90
        1
176
     1
 90
        1
176
     1
 40
1.0
176
     1
 90
        0
176
     1
 62
   257
176
     1
 40
1.0
176
     1
 90
        1
176
     1
 90
        6
176
     1
 90
        2
176
     1
 62
     7
176
     1
 90
        5
176
     1
 90
        0
176
     1
 90
        0
176
     1
290
     0
176
     1
 90
       13
176
     1
 40
0.0
176
     1
 90
        0
176
     1
290
     0
176
     1
290
     1
176
     1
290
     1
176
     1
290
     0
176
     1
290
     0
176
     1
290
     0
176
     1
290
     0
176
     1
290
     0
176
     1
290
     0
176
     1
 90
       50
176
     1
 40
0.0
176
     1
 40
1.0
176
     1
 90
        0
176
     1
 62
    18
420
        0
176
     1
 90
       50
176
     1
 90
        3
176
     1
 62
     5
420
      255
176
     1
290
     0
176
     1
 90
       50
176
     1
 90
       50
176
     1
 90
       50
176
     1
290
     0
176
     1
 90
       50
176
     1
 62
   256
176
     0
 40
1.0
176
     0
 90
        2
176
     1
  1
strokes_ogs.tif
176
     1
290
     0
176
     1
 40
1.0
176
     1
 40
1.0
176
     1
1001
ACAD
1000
AcDbSavedByObjectVersion
1070
     0
  0
VISUALSTYLE
  5
2C
102
{ACAD_REACTORS
330
29
102
}
330
29
100
AcDbVisualStyle
  2
Gouraud
 70
     2
177
     3
291
     1
 70
    58
 90
        2
176
     1
 90
        2
176
     1
 90
        1
176
     1
 90
        2
176
     1
 40
0.6
176
     1
 40
30.0
176
     1
 62
     7
420
 16777215
176
     1
 90
        0
176
     1
 90
        0
176
     1
 62
     7
176
     1
 62
   257
176
     1
 90
        1
176
     1
 90
        1
176
     1
 40
1.0
176
     1
 90
        0
176
     1
 62
     7
176
     1
 40
1.0
176
     1
 90
        1
176
     1
 90
        6
176
     1
 90
        2
176
     1
 62
     7
176
     1
 90
        5
176
     1
 90
        0
176
     1
 90
        0
176
     1
290
     0
176
     1
 90
       13
176
     1
 40
0.0
176
     1
 90
        0
176
     1
290
     0
176
     1
290
     1
176
     1
290
     1
176
     1
290
     0
176
     1
290
     0
176
     1
290
     0
176
     1
290
     0
176
     1
290
     0
176
     1
290
     0
176
     1
 90
       50
176
     1
 40
0.0
176
     1
 40
1.0
176
     1
 90
        0
176
     1
 62
    18
420
        0
176
     1
 90
       50
176
     1
 90
        3
176
     1
 62
     5
420
      255
176
     1
290
     0
176
     1
 90
       50
176
     1
 90
       50
176
     1
 90
       50
176
     1
290
     0
176
     1
 90
       50
176
     1
 62
   256
176
     0
 40
1.0
176
     0
 90
        2
176
     1
  1
strokes_ogs.tif
176
     1
290
     0
176
     1
 40
1.0
176
     1
 40
1.0
176
     1
1001
ACAD
1000
AcDbSavedByObjectVersion
1070
     0
  0
VISUALSTYLE
  5
2D
102
{ACAD_REACTORS
330
29
102
}
330
29
100
AcDbVisualStyle
  2
GouraudWithEdges
 70
     3
177
     3
291
     1
 70
    58
 90
        2
176
     1
 90
        2
176
     1
 90
        1
176
     1
 90
        2
176
     1
 40
0.6
176
     1
 40
30.0
176
     1
 62
     7
420
 16777215
176
     1
 90
        1
176
     1
 90
        0
176
     1
 62
     7
176
     1
 62
   257
176
     1
 90
        1
176
     1
 90
        1
176
     1
 40
1.0
176
     1
 90
        0
176
     1
 62
   257
176
     1
 40
1.0
176
     1
 90
        1
176
     1
 90
        6
176
     1
 90
        2
176
     1
 62
     7
176
     1
 90
        5
176
     1
 90
        0
176
     1
 90
        0
176
     1
290
     0
176
     1
 90
       13
176
     1
 40
0.0
176
     1
 90
        0
176
     1
290
     0
176
     1
290
     1
176
     1
290
     1
176
     1
290
     0
176
     1
290
     0
176
     1
290
     0
176
     1
290
     0
176
     1
290
     0
176
     1
290
     0
176
     1
 90
       50
176
     1
 40
0.0
176
     1
 40
1.0
176
     1
 90
        0
176
     1
 62
    18
420
        0
176
     1
 90
       50
176
     1
 90
        3
176
     1
 62
     5
420
      255
176
     1
290
     0
176
     1
 90
       50
176
     1
 90
       50
176
     1
 90
       50
176
     1
290
     0
176
     1
 90
       50
176
     1
 62
   256
176
     0
 40
1.0
176
     0
 90
        2
176
     1
  1
strokes_ogs.tif
176
     1
290
     0
176
     1
 40
1.0
176
     1
 40
1.0
176
     1
1001
ACAD
1000
AcDbSavedByObjectVersion
1070
     0
  0
VISUALSTYLE
  5
31
102
{ACAD_REACTORS
330
29
102
}
330
29
100
AcDbVisualStyle
  2
Hidden
 70
     6
177
     3
291
     0
 70
    58
 90
        1
176
     1
 90
        2
176
     1
 90
        2
176
     1
 90
        0
176
     1
 40
0.6
176
     1
 40
30.0
176
     1
 62
     7
420
 16777215
176
     1
 90
        2
176
     1
 90
        2
176
     1
 62
     7
176
     1
 62
   257
176
     1
 90
        2
176
     1
 90
        1
176
     1
 40
40.0
176
     1
 90
        0
176
     1
 62
   257
176
     1
 40
1.0
176
     1
 90
        1
176
     1
 90
        6
176
     1
 90
        2
176
     1
 62
     7
176
     1
 90
        3
176
     1
 90
        0
176
     1
 90
        0
176
     1
290
     0
176
     1
 90
        1
176
     1
 40
0.0
176
     1
 90
        0
176
     1
290
     0
176
     1
290
     1
176
     1
290
     1
176
     1
290
     0
176
     1
290
     0
176
     1
290
     0
176
     1
290
     0
176
     1
290
     0
176
     1
290
     0
176
     1
 90
       50
176
     1
 40
0.0
176
     1
 40
1.0
176
     1
 90
        0
176
     1
 62
    18
420
        0
176
     1
 90
       50
176
     1
 90
        3
176
     1
 62
     5
420
      255
176
     1
290
     0
176
     1
 90
       50
176
     1
 90
       50
176
     1
 90
       50
176
     1
290
     0
176
     1
 90
       50
176
     1
 62
   256
176
     0
 40
1.0
176
     0
 90
        2
176
     1
  1
strokes_ogs.tif
176
     1
290
     0
176
     1
 40
1.0
176
     1
 40
1.0
176
     1
1001
ACAD
1000
AcDbSavedByObjectVersion
1070
     0
  0
VISUALSTYLE
  5
3F
102
{ACAD_REACTORS
330
29
102
}
330
29
100
AcDbVisualStyle
  2
JitterOff
 70
    20
177
     3
291
     1
 70
    58
 90
        2
176
     0
 90
        2
176
     0
 90
        0
176
     0
 90
        0
176
     0
 40
0.6
176
     0
 40
30.0
176
     0
 62
     7
420
 16777215
176
     0
 90
        1
176
     0
 90
        4
176
     0
 62
     7
176
     0
 62
   257
176
     0
 90
        1
176
     0
 90
        1
176
     0
 40
1.0
176
     0
 90
       10
176
     2
 62
     7
176
     0
 40
1.0
176
     0
 90
        1
176
     0
 90
        6
176
     0
 90
        2
176
     0
 62
     7
176
     0
 90
        5
176
     0
 90
        0
176
     0
 90
        0
176
     0
290
     0
176
     0
 90
        1
176
     0
 40
0.0
176
     0
 90
        0
176
     0
290
     0
176
     0
290
     1
176
     0
290
     1
176
     0
290
     0
176
     0
290
     0
176
     0
290
     0
176
     0
290
     0
176
     0
290
     0
176
     0
290
     0
176
     0
 90
       50
176
     0
 40
0.0
176
     0
 40
1.0
176
     0
 90
        0
176
     0
 62
    18
420
        0
176
     0
 90
       50
176
     0
 90
        3
176
     0
 62
     5
420
      255
176
     0
290
     0
176
     0
 90
       50
176
     0
 90
       50
176
     0
 90
       50
176
     0
290
     0
176
     0
 90
       50
176
     0
 62
   256
176
     0
 40
1.0
176
     0
 90
        2
176
     0
  1
strokes_ogs.tif
176
     0
290
     0
176
     0
 40
1.0
176
     0
 40
1.0
176
     0
1001
ACAD
1000
AcDbSavedByObjectVersion
1070
     0
  0
VISUALSTYLE
  5
37
102
{ACAD_REACTORS
330
29
102
}
330
29
100
AcDbVisualStyle
  2
Linepattern
 70
    14
177
     3
291
     1
 70
    58
 90
        2
176
     1
 90
        2
176
     1
 90
        0
176
     1
 90
        0
176
     1
 40
0.6
176
     1
 40
30.0
176
     1
 62
     7
420
 16777215
176
     1
 90
        1
176
     1
 90
        4
176
     1
 62
     7
176
     1
 62
   257
176
     1
 90
        7
176
     1
 90
        7
176
     1
 40
1.0
176
     1
 90
        8
176
     1
 62
     7
176
     1
 40
1.0
176
     1
 90
        1
176
     1
 90
        6
176
     1
 90
        2
176
     1
 62
     7
176
     1
 90
        5
176
     1
 90
        0
176
     1
 90
        0
176
     1
290
     0
176
     1
 90
        1
176
     1
 40
0.0
176
     1
 90
        0
176
     1
290
     0
176
     1
290
     1
176
     1
290
     1
176
     1
290
     0
176
     1
290
     0
176
     1
290
     0
176
     1
290
     0
176
     1
290
     0
176
     1
290
     0
176
     1
 90
       50
176
     1
 40
0.0
176
     1
 40
1.0
176
     1
 90
        0
176
     1
 62
    18
420
        0
176
     1
 90
       50
176
     1
 90
        3
176
     1
 62
     5
420
      255
176
     1
290
     0
176
     1
 90
       50
176
     1
 90
       50
176
     1
 90
       50
176
     1
290
     0
176
     1
 90
       50
176
     1
 62
   256
176
     0
 40
1.0
176
     0
 90
        2
176
     1
  1
strokes_ogs.tif
176
     1
290
     0
176
     1
 40
1.0
176
     1
 40
1.0
176
     1
1001
ACAD
1000
AcDbSavedByObjectVersion
1070
     0
  0
VISUALSTYLE
  5
40
102
{ACAD_REACTORS
330
29
102
}
330
29
100
AcDbVisualStyle
  2
OverhangOff
 70
    21
177
     3
291
     1
 70
    58
 90
        2
176
     0
 90
        2
176
     0
 90
        0
176
     0
 90
        0
176
     0
 40
0.6
176
     0
 40
30.0
176
     0
 62
     7
420
 16777215
176
     0
 90
        1
176
     0
 90
        4
176
     0
 62
     7
176
     0
 62
   257
176
     0
 90
        1
176
     0
 90
        1
176
     0
 40
1.0
176
     0
 90
        9
176
     2
 62
     7
176
     0
 40
1.0
176
     0
 90
        1
176
     0
 90
        6
176
     0
 90
        2
176
     0
 62
     7
176
     0
 90
        5
176
     0
 90
        0
176
     0
 90
        0
176
     0
290
     0
176
     0
 90
        1
176
     0
 40
0.0
176
     0
 90
        0
176
     0
290
     0
176
     0
290
     1
176
     0
290
     1
176
     0
290
     0
176
     0
290
     0
176
     0
290
     0
176
     0
290
     0
176
     0
290
     0
176
     0
290
     0
176
     0
 90
       50
176
     0
 40
0.0
176
     0
 40
1.0
176
     0
 90
        0
176
     0
 62
    18
420
        0
176
     0
 90
       50
176
     0
 90
        3
176
     0
 62
     5
420
      255
176
     0
290
     0
176
     0
 90
       50
176
     0
 90
       50
176
     0
 90
       50
176
     0
290
     0
176
     0
 90
       50
176
     0
 62
   256
176
     0
 40
1.0
176
     0
 90
        2
176
     0
  1
strokes_ogs.tif
176
     0
290
     0
176
     0
 40
1.0
176
     0
 40
1.0
176
     0
1001
ACAD
1000
AcDbSavedByObjectVersion
1070
     0
  0
VISUALSTYLE
  5
33
102
{ACAD_REACTORS
330
29
102
}
330
29
100
AcDbVisualStyle
  2
Realistic
 70
     8
177
     3
291
     0
 70
    58
 90
        2
176
     1
 90
        3
176
     1
 90
        0
176
     1
 90
        2
176
     1
 40
0.6
176
     1
 40
30.0
176
     1
 62
     7
420
 16777215
176
     1
 90
        0
176
     1
 90
        0
176
     1
 62
     7
176
     1
 62
   257
176
     1
 90
        1
176
     1
 90
        1
176
     1
 40
1.0
176
     1
 90
        8
176
     1
 62
   257
176
     1
 40
1.0
176
     1
 90
        1
176
     1
 90
        6
176
     1
 90
        2
176
     1
 62
     7
176
     1
 90
        3
176
     1
 90
        0
176
     1
 90
        0
176
     1
290
     0
176
     1
 90
       13
176
     1
 40
0.0
176
     1
 90
        0
176
     1
290
     0
176
     1
290
     1
176
     1
290
     1
176
     1
290
     0
176
     1
290
     0
176
     1
290
     0
176
     1
290
     0
176
     1
290
     0
176
     1
290
     0
176
     1
 90
       50
176
     1
 40
0.0
176
     1
 40
1.0
176
     1
 90
        0
176
     1
 62
    18
420
        0
176
     1
 90
       50
176
     1
 90
        3
176
     1
 62
     5
420
      255
176
     1
290
     0
176
     1
 90
       50
176
     1
 90
       50
176
     1
 90
       50
176
     1
290
     0
176
     1
 90
       50
176
     1
 62
   256
176
     0
 40
1.0
176
     0
 90
        2
176
     1
  1
strokes_ogs.tif
176
     1
290
     0
176
     1
 40
1.0
176
     1
 40
1.0
176
     1
1001
ACAD
1000
AcDbSavedByObjectVersion
1070
     0
  0
VISUALSTYLE
  5
3E
102
{ACAD_REACTORS
330
29
102
}
330
29
100
AcDbVisualStyle
  2
Shaded
 70
    27
177
     3
291
     0
 70
    58
 90
        2
176
     1
 90
        2
176
     1
 90
        1
176
     1
 90
        2
176
     1
 40
0.6
176
     1
 40
30.0
176
     1
 62
     7
420
 16777215
176
     1
 90
        0
176
     1
 90
        4
176
     1
 62
     7
176
     1
 62
   257
176
     1
 90
        1
176
     1
 90
        1
176
     1
 40
1.0
176
     1
 90
        8
176
     1
 62
   257
176
     1
 40
1.0
176
     1
 90
        1
176
     1
 90
        6
176
     1
 90
        2
176
     1
 62
     8
420
  7895160
176
     1
 90
        3
176
     1
 90
        0
176
     1
 90
        0
176
     1
290
     0
176
     1
 90
        5
176
     1
 40
0.0
176
     1
 90
        0
176
     1
290
     0
176
     1
290
     1
176
     1
290
     1
176
     1
290
     0
176
     1
290
     0
176
     1
290
     0
176
     1
290
     0
176
     1
290
     0
176
     1
290
     0
176
     1
 90
       50
176
     1
 40
0.0
176
     1
 40
1.0
176
     1
 90
        0
176
     1
 62
    18
420
        0
176
     1
 90
       50
176
     1
 90
        3
176
     1
 62
     5
420
      255
176
     1
290
     0
176
     1
 90
       50
176
     1
 90
       50
176
     1
 90
       50
176
     1
290
     0
176
     1
 90
       50
176
     1
 62
   256
176
     0
 40
1.0
176
     0
 90
        2
176
     1
  1
strokes_ogs.tif
176
     1
290
     0
176
     1
 40
1.0
176
     1
 40
1.0
176
     1
1001
ACAD
1000
AcDbSavedByObjectVersion
1070
     0
  0
VISUALSTYLE
  5
3D
102
{ACAD_REACTORS
330
29
102
}
330
29
100
AcDbVisualStyle
  2
Shaded with edges
 70
    26
177
     3
291
     0
 70
    58
 90
        2
176
     1
 90
        2
176
     1
 90
        1
176
     1
 90
        2
176
     1
 40
0.6
176
     1
 40
30.0
176
     1
 62
     7
420
 16777215
176
     1
 90
        1
176
     1
 90
        2
176
     1
 62
     7
176
     1
 62
   257
176
     1
 90
        2
176
     1
 90
        1
176
     1
 40
1.0
176
     1
 90
        8
176
     1
 62
   257
176
     1
 40
1.0
176
     1
 90
        1
176
     1
 90
        6
176
     1
 90
        2
176
     1
 62
     7
176
     1
 90
        3
176
     1
 90
        0
176
     1
 90
        0
176
     1
290
     0
176
     1
 90
        5
176
     1
 40
0.0
176
     1
 90
        0
176
     1
290
     0
176
     1
290
     1
176
     1
290
     1
176
     1
290
     0
176
     1
290
     0
176
     1
290
     0
176
     1
290
     0
176
     1
290
     0
176
     1
290
     0
176
     1
 90
       50
176
     1
 40
0.0
176
     1
 40
1.0
176
     1
 90
        0
176
     1
 62
    18
420
        0
176
     1
 90
       50
176
     1
 90
        3
176
     1
 62
     5
420
      255
176
     1
290
     0
176
     1
 90
       50
176
     1
 90
       50
176
     1
 90
       50
176
     1
290
     0
176
     1
 90
       50
176
     1
 62
   256
176
     0
 40
1.0
176
     0
 90
        2
176
     1
  1
strokes_ogs.tif
176
     1
290
     0
176
     1
 40
1.0
176
     1
 40
1.0
176
     1
1001
ACAD
1000
AcDbSavedByObjectVersion
1070
     0
  0
VISUALSTYLE
  5
3A
102
{ACAD_REACTORS
330
29
102
}
330
29
100
AcDbVisualStyle
  2
Shades of Gray
 70
    23
177
     3
291
     0
 70
    58
 90
        2
176
     1
 90
        2
176
     1
 90
        3
176
     1
 90
        0
176
     1
 40
0.6
176
     1
 40
30.0
176
     1
 62
     7
420
 16777215
176
     1
 90
        2
176
     1
 90
        2
176
     1
 62
     7
176
     1
 62
     7
176
     1
 90
        1
176
     1
 90
        1
176
     1
 40
40.0
176
     1
 90
        8
176
     1
 62
     7
176
     1
 40
1.0
176
     1
 90
        1
176
     1
 90
        6
176
     1
 90
        2
176
     1
 62
     7
176
     1
 90
        3
176
     1
 90
        0
176
     1
 90
        0
176
     1
290
     0
176
     1
 90
        1
176
     1
 40
0.0
176
     1
 90
        0
176
     1
290
     0
176
     1
290
     1
176
     1
290
     1
176
     1
290
     0
176
     1
290
     0
176
     1
290
     0
176
     1
290
     0
176
     1
290
     0
176
     1
290
     0
176
     1
 90
       50
176
     1
 40
0.0
176
     1
 40
1.0
176
     1
 90
        0
176
     1
 62
    18
420
        0
176
     1
 90
       50
176
     1
 90
        3
176
     1
 62
     5
420
      255
176
     1
290
     0
176
     1
 90
       50
176
     1
 90
       50
176
     1
 90
       50
176
     1
290
     0
176
     1
 90
       50
176
     1
 62
   256
176
     0
 40
1.0
176
     0
 90
        2
176
     1
  1
strokes_ogs.tif
176
     1
290
     0
176
     1
 40
1.0
176
     1
 40
1.0
176
     1
1001
ACAD
1000
AcDbSavedByObjectVersion
1070
     0
  0
VISUALSTYLE
  5
3B
102
{ACAD_REACTORS
330
29
102
}
330
29
100
AcDbVisualStyle
  2
Sketchy
 70
    24
177
     3
291
     0
 70
    58
 90
        1
176
     1
 90
        2
176
     1
 90
        2
176
     1
 90
        0
176
     1
 40
0.6
176
     1
 40
30.0
176
     1
 62
     7
420
 16777215
176
     1
 90
        2
176
     1
 90
        2
176
     1
 62
     7
176
     1
 62
     7
176
     1
 90
        1
176
     1
 90
        1
176
     1
 40
40.0
176
     1
 90
       11
176
     1
 62
     7
176
     1
 40
1.0
176
     1
 90
        1
176
     1
 90
        6
176
     1
 90
        2
176
     1
 62
     7
176
     1
 90
        6
176
     1
 90
        0
176
     1
 90
        0
176
     1
290
     0
176
     1
 90
        1
176
     1
 40
0.0
176
     1
 90
        0
176
     1
290
     0
176
     1
290
     1
176
     1
290
     1
176
     1
290
     0
176
     1
290
     0
176
     1
290
     0
176
     1
290
     0
176
     1
290
     0
176
     1
290
     0
176
     1
 90
       50
176
     1
 40
0.0
176
     1
 40
1.0
176
     1
 90
        0
176
     1
 62
    18
420
        0
176
     1
 90
       50
176
     1
 90
        3
176
     1
 62
     5
420
      255
176
     1
290
     0
176
     1
 90
       50
176
     1
 90
       50
176
     1
 90
       50
176
     1
290
     0
176
     1
 90
       50
176
     1
 62
   256
176
     0
 40
1.0
176
     0
 90
        2
176
     1
  1
strokes_ogs.tif
176
     1
290
     0
176
     1
 40
1.0
176
     1
 40
1.0
176
     1
1001
ACAD
1000
AcDbSavedByObjectVersion
1070
     0
  0
VISUALSTYLE
  5
36
102
{ACAD_REACTORS
330
29
102
}
330
29
100
AcDbVisualStyle
  2
Thicken
 70
    13
177
     3
291
     1
 70
    58
 90
        2
176
     1
 90
        2
176
     1
 90
        0
176
     1
 90
        0
176
     1
 40
0.6
176
     1
 40
30.0
176
     1
 62
     7
420
 16777215
176
     1
 90
        1
176
     1
 90
        4
176
     1
 62
     7
176
     1
 62
   257
176
     1
 90
        1
176
     1
 90
        1
176
     1
 40
1.0
176
     1
 90
       12
176
     1
 62
     7
176
     1
 40
1.0
176
     1
 90
        1
176
     1
 90
        6
176
     1
 90
        2
176
     1
 62
     7
176
     1
 90
        5
176
     1
 90
        0
176
     1
 90
        0
176
     1
290
     0
176
     1
 90
        1
176
     1
 40
0.0
176
     1
 90
        0
176
     1
290
     0
176
     1
290
     1
176
     1
290
     1
176
     1
290
     0
176
     1
290
     0
176
     1
290
     0
176
     1
290
     0
176
     1
290
     0
176
     1
290
     0
176
     1
 90
       50
176
     1
 40
0.0
176
     1
 40
1.0
176
     1
 90
        0
176
     1
 62
    18
420
        0
176
     1
 90
       50
176
     1
 90
        3
176
     1
 62
     5
420
      255
176
     1
290
     0
176
     1
 90
       50
176
     1
 90
       50
176
     1
 90
       50
176
     1
290
     0
176
     1
 90
       50
176
     1
 62
   256
176
     0
 40
1.0
176
     0
 90
        2
176
     1
  1
strokes_ogs.tif
176
     1
290
     0
176
     1
 40
1.0
176
     1
 40
1.0
176
     1
1001
ACAD
1000
AcDbSavedByObjectVersion
1070
     0
  0
VISUALSTYLE
  5
30
102
{ACAD_REACTORS
330
29
102
}
330
29
100
AcDbVisualStyle
  2
Wireframe
 70
     5
177
     3
291
     0
 70
    58
 90
        0
176
     1
 90
        2
176
     1
 90
        0
176
     1
 90
        0
176
     1
 40
0.6
176
     1
 40
30.0
176
     1
 62
     7
420
 16777215
176
     1
 90
        1
176
     1
 90
        4
176
     1
 62
     7
176
     1
 62
   257
176
     1
 90
        1
176
     1
 90
        1
176
     1
 40
1.0
176
     1
 90
        0
176
     1
 62
   257
176
     1
 40
1.0
176
     1
 90
        1
176
     1
 90
        6
176
     1
 90
        2
176
     1
 62
     7
176
     1
 90
        3
176
     1
 90
        0
176
     1
 90
        0
176
     1
290
     0
176
     1
 90
        1
176
     1
 40
0.0
176
     1
 90
        0
176
     1
290
     0
176
     1
290
     1
176
     1
290
     1
176
     1
290
     0
176
     1
290
     0
176
     1
290
     0
176
     1
290
     0
176
     1
290
     0
176
     1
290
     0
176
     1
 90
       50
176
     1
 40
0.0
176
     1
 40
1.0
176
     1
 90
        0
176
     1
 62
    18
420
        0
176
     1
 90
       50
176
     1
 90
        3
176
     1
 62
     5
420
      255
176
     1
290
     0
176
     1
 90
       50
176
     1
 90
       50
176
     1
 90
       50
176
     1
290
     0
176
     1
 90
       50
176
     1
 62
   256
176
     0
 40
1.0
176
     0
 90
        2
176
     1
  1
strokes_ogs.tif
176
     1
290
     0
176
     1
 40
1.0
176
     1
 40
1.0
176
     1
1001
ACAD
1000
AcDbSavedByObjectVersion
1070
     0
  0
VISUALSTYLE
  5
3C
102
{ACAD_REACTORS
330
29
102
}
330
29
100
AcDbVisualStyle
  2
X-Ray
 70
    25
177
     3
291
     0
 70
    58
 90
        2
176
     1
 90
        2
176
     1
 90
        1
176
     1
 90
        1
176
     1
 40
0.5
176
     1
 40
30.0
176
     1
 62
     7
420
 16777215
176
     1
 90
        1
176
     1
 90
        0
176
     1
 62
     7
176
     1
 62
   257
176
     1
 90
        1
176
     1
 90
        1
176
     1
 40
1.0
176
     1
 90
        8
176
     1
 62
     7
176
     1
 40
1.0
176
     1
 90
        1
176
     1
 90
        6
176
     1
 90
        2
176
     1
 62
     7
176
     1
 90
        3
176
     1
 90
        0
176
     1
 90
        0
176
     1
290
     0
176
     1
 90
       13
176
     1
 40
0.0
176
     1
 90
        0
176
     1
290
     0
176
     1
290
     1
176
     1
290
     1
176
     1
290
     0
176
     1
290
     0
176
     1
290
     0
176
     1
290
     0
176
     1
290
     0
176
     1
290
     0
176
     1
 90
       50
176
     1
 40
0.0
176
     1
 40
1.0
176
     1
 90
        0
176
     1
 62
    18
420
        0
176
     1
 90
       50
176
     1
 90
        3
176
     1
 62
     5
420
      255
176
     1
290
     0
176
     1
 90
       50
176
     1
 90
       50
176
     1
 90
       50
176
     1
290
     0
176
     1
 90
       50
176
     1
 62
   256
176
     0
 40
1.0
176
     0
 90
        2
176
     1
  1
strokes_ogs.tif
176
     1
290
     0
176
     1
 40
1.0
176
     1
 40
1.0
176
     1
1001
ACAD
1000
AcDbSavedByObjectVersion
1070
     0
  0
DICTIONARYVAR
  5
8C
102
{ACAD_REACTORS
330
87
102
}
330
87
100
DictionaryVariables
280
     0
  1
1:1
  0
DICTIONARYVAR
  5
89
102
{ACAD_REACTORS
330
87
102
}
330
87
100
DictionaryVariables
280
     0
  1
STANDARD
  0
DICTIONARYVAR
  5
88
102
{ACAD_REACTORS
330
87
102
}
330
87
100
DictionaryVariables
280
     0
  1
STANDARD
  0
DICTIONARYVAR
  5
8A
102
{ACAD_REACTORS
330
87
102
}
330
87
100
DictionaryVariables
280
     0
  1
Imperial24
  0
DICTIONARYVAR
  5
8B
102
{ACAD_REACTORS
330
87
102
}
330
87
100
DictionaryVariables
280
     0
  1
Imperial24
  0
DICTIONARY
  5
92
330
6B
100
AcDbDictionary
280
     1
281
     1
  3
ACAD_XREC_ROUNDTRIP
360
93
  0
DICTIONARY
  5
1A
330
19
100
AcDbDictionary
280
     1
281
     1
  3
BUMPTILE
360
1C
  3
DIFFUSETILE
360
1B
  3
OPACITYTILE
360
1F
  3
REFLECTIONTILE
360
1E
  3
REFRACTIONTILE
360
20
  3
SPECULARTILE
360
1D
  0
DICTIONARY
  5
12
330
11
100
AcDbDictionary
280
     1
281
     1
  3
BUMPTILE
360
14
  3
DIFFUSETILE
360
13
  3
OPACITYTILE
360
17
  3
REFLECTIONTILE
360
16
  3
REFRACTIONTILE
360
18
  3
SPECULARTILE
360
15
  0
DICTIONARY
  5
22
330
21
100
AcDbDictionary
280
     1
281
     1
  3
BUMPTILE
360
24
  3
DIFFUSETILE
360
23
  3
OPACITYTILE
360
27
  3
REFLECTIONTILE
360
26
  3
REFRACTIONTILE
360
28
  3
SPECULARTILE
360
25
  0
DICTIONARY
  5
90
330
69
100
AcDbDictionary
280
     1
281
     1
  3
ACAD_XREC_ROUNDTRIP
360
91
  0
DICTIONARY
  5
8D
330
65
100
AcDbDictionary
280
     1
281
     1
  3
ACAD_ROUNDTRIP_2008_TABLESTYLE_CELLSTYLEMAP
360
8E
  0
XRECORD
  5
93
102
{ACAD_REACTORS
330
92
102
}
330
92
100
AcDbXrecord
280
     1
102
DISPLAYNAME
  1
Imperial24
102
FLAGS
 90
        0
  0
XRECORD
  5
1C
102
{ACAD_REACTORS
330
1A
102
}
330
1A
100
AcDbXrecord
280
     1
270
     1
271
     1
  0
XRECORD
  5
1B
102
{ACAD_REACTORS
330
1A
102
}
330
1A
100
AcDbXrecord
280
     1
270
     1
271
     1
  0
XRECORD
  5
1F
102
{ACAD_REACTORS
330
1A
102
}
330
1A
100
AcDbXrecord
280
     1
270
     1
271
     1
  0
XRECORD
  5
1E
102
{ACAD_REACTORS
330
1A
102
}
330
1A
100
AcDbXrecord
280
     1
270
     1
271
     1
  0
XRECORD
  5
20
102
{ACAD_REACTORS
330
1A
102
}
330
1A
100
AcDbXrecord
280
     1
270
     1
271
     1
  0
XRECORD
  5
1D
102
{ACAD_REACTORS
330
1A
102
}
330
1A
100
AcDbXrecord
280
     1
270
     1
271
     1
  0
XRECORD
  5
14
102
{ACAD_REACTORS
330
12
102
}
330
12
100
AcDbXrecord
280
     1
270
     1
271
     1
  0
XRECORD
  5
13
102
{ACAD_REACTORS
330
12
102
}
330
12
100
AcDbXrecord
280
     1
270
     1
271
     1
  0
XRECORD
  5
17
102
{ACAD_REACTORS
330
12
102
}
330
12
100
AcDbXrecord
280
     1
270
     1
271
     1
  0
XRECORD
  5
16
102
{ACAD_REACTORS
330
12
102
}
330
12
100
AcDbXrecord
280
     1
270
     1
271
     1
  0
XRECORD
  5
18
102
{ACAD_REACTORS
330
12
102
}
330
12
100
AcDbXrecord
280
     1
270
     1
271
     1
  0
XRECORD
  5
15
102
{ACAD_REACTORS
330
12
102
}
330
12
100
AcDbXrecord
280
     1
270
     1
271
     1
  0
XRECORD
  5
24
102
{ACAD_REACTORS
330
22
102
}
330
22
100
AcDbXrecord
280
     1
270
     1
271
     1
  0
XRECORD
  5
23
102
{ACAD_REACTORS
330
22
102
}
330
22
100
AcDbXrecord
280
     1
270
     1
271
     1
  0
XRECORD
  5
27
102
{ACAD_REACTORS
330
22
102
}
330
22
100
AcDbXrecord
280
     1
270
     1
271
     1
  0
XRECORD
  5
26
102
{ACAD_REACTORS
330
22
102
}
330
22
100
AcDbXrecord
280
     1
270
     1
271
     1
  0
XRECORD
  5
28
102
{ACAD_REACTORS
330
22
102
}
330
22
100
AcDbXrecord
280
     1
270
     1
271
     1
  0
XRECORD
  5
25
102
{ACAD_REACTORS
330
22
102
}
330
22
100
AcDbXrecord
280
     1
270
     1
271
     1
  0
XRECORD
  5
91
102
{ACAD_REACTORS
330
90
102
}
330
90
100
AcDbXrecord
280
     1
102
DISPLAYNAME
  1
Imperial24
102
FLAGS
 90
        0
  0
CELLSTYLEMAP
  5
8E
102
{ACAD_REACTORS
330
8D
102
}
330
8D
100
AcDbCellStyleMap
 90
        3
300
CELLSTYLE
  1
TABLEFORMAT_BEGIN
 90
        5
170
     1
 91
        0
 92
    32768
 62
   257
 93
        1
300
CONTENTFORMAT
  1
CONTENTFORMAT_BEGIN
 90
        0
 91
        0
 92
      512
 93
        0
300

 40
0.0
140
1.0
 94
        5
 62
     0
340
55
144
0.25
309
CONTENTFORMAT_END
171
     0
 94
        0
309
TABLEFORMAT_END
  1
CELLSTYLE_BEGIN
 90
        1
 91
        1
300
_TITLE
309
CELLSTYLE_END
300
CELLSTYLE
  1
TABLEFORMAT_BEGIN
 90
        5
170
     1
 91
        0
 92
        0
 62
   257
 93
        1
300
CONTENTFORMAT
  1
CONTENTFORMAT_BEGIN
 90
        0
 91
        0
 92
      512
 93
        0
300

 40
0.0
140
1.0
 94
        5
 62
     0
340
55
144
0.18
309
CONTENTFORMAT_END
171
     0
 94
        0
309
TABLEFORMAT_END
  1
CELLSTYLE_BEGIN
 90
        2
 91
        1
300
_HEADER
309
CELLSTYLE_END
300
CELLSTYLE
  1
TABLEFORMAT_BEGIN
 90
        5
170
     1
 91
        0
 92
        0
 62
   257
 93
        1
300
CONTENTFORMAT
  1
CONTENTFORMAT_BEGIN
 90
        0
 91
        0
 92
      512
 93
        0
300

 40
0.0
140
1.0
 94
        2
 62
     0
340
55
144
0.18
309
CONTENTFORMAT_END
171
     0
 94
        0
309
TABLEFORMAT_END
  1
CELLSTYLE_BEGIN
 90
        3
 91
        2
300
_DATA
309
CELLSTYLE_END
  0
ENDSEC
  0
EOF
