  0
SECTION
  2
HEADER
  9
$ACADVER
  1
AC1027
  9
$ACADMAINTVER
 70
   125
  9
$DWGCODEPAGE
  3
ANSI_1251
  9
$REQUIREDVERSIONS
160
                 0
  9
$INSBASE
 10
0.0
 20
0.0
 30
0.0
  9
$EXTMIN
 10
1.000000000000000E+20
 20
1.000000000000000E+20
 30
1.000000000000000E+20
  9
$EXTMAX
 10
-1.000000000000000E+20
 20
-1.000000000000000E+20
 30
-1.000000000000000E+20
  9
$LIMMIN
 10
0.0
 20
0.0
  9
$LIMMAX
 10
12.0
 20
9.0
  9
$ORTHOMODE
 70
     0
  9
$REGENMODE
 70
     1
  9
$FILLMODE
 70
     1
  9
$QTEXTMODE
 70
     0
  9
$MIRRTEXT
 70
     0
  9
$LTSCALE
 40
1.0
  9
$ATTMODE
 70
     1
  9
$TEXTSIZE
 40
0.2
  9
$TRACEWID
 40
0.05
  9
$TEXTSTYLE
  7
Standard
  9
$CLAYER
  8
0
  9
$CELTYPE
  6
ByLayer
  9
$CECOLOR
 62
   256
  9
$CELTSCALE
 40
1.0
  9
$DISPSILH
 70
     0
  9
$DIMSCALE
 40
1.0
  9
$DIMASZ
 40
0.18
  9
$DIMEXO
 40
0.0625
  9
$DIMDLI
 40
0.38
  9
$DIMRND
 40
0.0
  9
$DIMDLE
 40
0.0
  9
$DIMEXE
 40
0.18
  9
$DIMTP
 40
0.0
  9
$DIMTM
 40
0.0
  9
$DIMTXT
 40
0.18
  9
$DIMCEN
 40
0.09
  9
$DIMTSZ
 40
0.0
  9
$DIMTOL
 70
     0
  9
$DIMLIM
 70
     0
  9
$DIMTIH
 70
     1
  9
$DIMTOH
 70
     1
  9
$DIMSE1
 70
     0
  9
$DIMSE2
 70
     0
  9
$DIMTAD
 70
     0
  9
$DIMZIN
 70
     0
  9
$DIMBLK
  1

  9
$DIMASO
 70
     1
  9
$DIMSHO
 70
     1
  9
$DIMPOST
  1

  9
$DIMAPOST
  1

  9
$DIMALT
 70
     0
  9
$DIMALTD
 70
     2
  9
$DIMALTF
 40
25.4
  9
$DIMLFAC
 40
1.0
  9
$DIMTOFL
 70
     0
  9
$DIMTVP
 40
0.0
  9
$DIMTIX
 70
     0
  9
$DIMSOXD
 70
     0
  9
$DIMSAH
 70
     0
  9
$DIMBLK1
  1

  9
$DIMBLK2
  1

  9
$DIMSTYLE
  2
Standard
  9
$DIMCLRD
 70
     0
  9
$DIMCLRE
 70
     0
  9
$DIMCLRT
 70
     0
  9
$DIMTFAC
 40
1.0
  9
$DIMGAP
 40
0.09
  9
$DIMJUST
 70
     0
  9
$DIMSD1
 70
     0
  9
$DIMSD2
 70
     0
  9
$DIMTOLJ
 70
     1
  9
$DIMTZIN
 70
     0
  9
$DIMALTZ
 70
     0
  9
$DIMALTTZ
 70
     0
  9
$DIMUPT
 70
     0
  9
$DIMDEC
 70
     4
  9
$DIMTDEC
 70
     4
  9
$DIMALTU
 70
     2
  9
$DIMALTTD
 70
     2
  9
$DIMTXSTY
  7
Standard
  9
$DIMAUNIT
 70
     0
  9
$DIMADEC
 70
     0
  9
$DIMALTRND
 40
0.0
  9
$DIMAZIN
 70
     0
  9
$DIMDSEP
 70
    46
  9
$DIMATFIT
 70
     3
  9
$DIMFRAC
 70
     0
  9
$DIMLDRBLK
  1

  9
$DIMLUNIT
 70
     2
  9
$DIMLWD
 70
    -2
  9
$DIMLWE
 70
    -2
  9
$DIMTMOVE
 70
     0
  9
$DIMFXL
 40
1.0
  9
$DIMFXLON
 70
     0
  9
$DIMJOGANG
 40
0.7853981633974483
  9
$DIMTFILL
 70
     0
  9
$DIMTFILLCLR
 70
     0
  9
$DIMARCSYM
 70
     0
  9
$DIMLTYPE
  6

  9
$DIMLTEX1
  6

  9
$DIMLTEX2
  6

  9
$DIMTXTDIRECTION
 70
     0
  9
$LUNITS
 70
     2
  9
$LUPREC
 70
     4
  9
$SKETCHINC
 40
0.1
  9
$FILLETRAD
 40
0.0
  9
$AUNITS
 70
     0
  9
$AUPREC
 70
     0
  9
$MENU
  1
.
  9
$ELEVATION
 40
0.0
  9
$PELEVATION
 40
0.0
  9
$THICKNESS
 40
0.0
  9
$LIMCHECK
 70
     0
  9
$CHAMFERA
 40
0.0
  9
$CHAMFERB
 40
0.0
  9
$CHAMFERC
 40
0.0
  9
$CHAMFERD
 40
0.0
  9
$SKPOLY
 70
     0
  9
$TDCREATE
 40
2459954.680034722
  9
$TDUCREATE
 40
2459954.596701389
  9
$TDUPDATE
 40
2459954.680034722
  9
$TDUUPDATE
 40
2459954.596701389
  9
$TDINDWG
 40
0.0000000000
  9
$TDUSRTIMER
 40
0.0000000000
  9
$USRTIMER
 70
     1
  9
$ANGBASE
 50
0.0
  9
$ANGDIR
 70
     0
  9
$PDMODE
 70
     0
  9
$PDSIZE
 40
0.0
  9
$PLINEWID
 40
0.0
  9
$SPLFRAME
 70
     0
  9
$SPLINETYPE
 70
     6
  9
$SPLINESEGS
 70
     8
  9
$HANDSEED
  5
92
  9
$SURFTAB1
 70
     6
  9
$SURFTAB2
 70
     6
  9
$SURFTYPE
 70
     6
  9
$SURFU
 70
     6
  9
$SURFV
 70
     6
  9
$UCSBASE
  2

  9
$UCSNAME
  2

  9
$UCSORG
 10
0.0
 20
0.0
 30
0.0
  9
$UCSXDIR
 10
1.0
 20
0.0
 30
0.0
  9
$UCSYDIR
 10
0.0
 20
1.0
 30
0.0
  9
$UCSORTHOREF
  2

  9
$UCSORTHOVIEW
 70
     0
  9
$UCSORGTOP
 10
0.0
 20
0.0
 30
0.0
  9
$UCSORGBOTTOM
 10
0.0
 20
0.0
 30
0.0
  9
$UCSORGLEFT
 10
0.0
 20
0.0
 30
0.0
  9
$UCSORGRIGHT
 10
0.0
 20
0.0
 30
0.0
  9
$UCSORGFRONT
 10
0.0
 20
0.0
 30
0.0
  9
$UCSORGBACK
 10
0.0
 20
0.0
 30
0.0
  9
$PUCSBASE
  2

  9
$PUCSNAME
  2

  9
$PUCSORG
 10
0.0
 20
0.0
 30
0.0
  9
$PUCSXDIR
 10
1.0
 20
0.0
 30
0.0
  9
$PUCSYDIR
 10
0.0
 20
1.0
 30
0.0
  9
$PUCSORTHOREF
  2

  9
$PUCSORTHOVIEW
 70
     0
  9
$PUCSORGTOP
 10
0.0
 20
0.0
 30
0.0
  9
$PUCSORGBOTTOM
 10
0.0
 20
0.0
 30
0.0
  9
$PUCSORGLEFT
 10
0.0
 20
0.0
 30
0.0
  9
$PUCSORGRIGHT
 10
0.0
 20
0.0
 30
0.0
  9
$PUCSORGFRONT
 10
0.0
 20
0.0
 30
0.0
  9
$PUCSORGBACK
 10
0.0
 20
0.0
 30
0.0
  9
$USERI1
 70
     0
  9
$USERI2
 70
     0
  9
$USERI3
 70
     0
  9
$USERI4
 70
     0
  9
$USERI5
 70
     0
  9
$USERR1
 40
0.0
  9
$USERR2
 40
0.0
  9
$USERR3
 40
0.0
  9
$USERR4
 40
0.0
  9
$USERR5
 40
0.0
  9
$WORLDVIEW
 70
     1
  9
$SHADEDGE
 70
     3
  9
$SHADEDIF
 70
    70
  9
$TILEMODE
 70
     1
  9
$MAXACTVP
 70
    64
  9
$PINSBASE
 10
0.0
 20
0.0
 30
0.0
  9
$PLIMCHECK
 70
     0
  9
$PEXTMIN
 10
1.000000000000000E+20
 20
1.000000000000000E+20
 30
1.000000000000000E+20
  9
$PEXTMAX
 10
-1.000000000000000E+20
 20
-1.000000000000000E+20
 30
-1.000000000000000E+20
  9
$PLIMMIN
 10
0.0
 20
0.0
  9
$PLIMMAX
 10
12.0
 20
9.0
  9
$UNITMODE
 70
     0
  9
$VISRETAIN
 70
     1
  9
$PLINEGEN
 70
     0
  9
$PSLTSCALE
 70
     1
  9
$TREEDEPTH
 70
  3020
  9
$CMLSTYLE
  2
Standard
  9
$CMLJUST
 70
     0
  9
$CMLSCALE
 40
1.0
  9
$PROXYGRAPHICS
 70
     1
  9
$MEASUREMENT
 70
     0
  9
$CELWEIGHT
370
    -1
  9
$ENDCAPS
280
     0
  9
$JOINSTYLE
280
     0
  9
$LWDISPLAY
290
     1
  9
$INSUNITS
 70
     1
  9
$HYPERLINKBASE
  1

  9
$STYLESHEET
  1

  9
$XEDIT
290
     1
  9
$CEPSNTYPE
380
     0
  9
$PSTYLEMODE
290
     1
  9
$FINGERPRINTGUID
  2
{E41971DB-A9AB-A345-B979-F86999CDAF91}
  9
$VERSIONGUID
  2
{4DD69E25-46E8-6648-8D1E-F9238072CD7A}
  9
$EXTNAMES
290
     1
  9
$PSVPSCALE
 40
0.0
  9
$OLESTARTUP
290
     0
  9
$SORTENTS
280
   127
  9
$INDEXCTL
280
     0
  9
$HIDETEXT
280
     1
  9
$XCLIPFRAME
280
     2
  9
$HALOGAP
280
     0
  9
$OBSCOLOR
 70
   257
  9
$OBSLTYPE
280
     0
  9
$INTERSECTIONDISPLAY
280
     0
  9
$INTERSECTIONCOLOR
 70
   257
  9
$DIMASSOC
280
     2
  9
$PROJECTNAME
  1

  9
$CAMERADISPLAY
290
     0
  9
$LENSLENGTH
 40
50.0
  9
$CAMERAHEIGHT
 40
0.0
  9
$STEPSPERSEC
 40
2.0
  9
$STEPSIZE
 40
6.0
  9
$3DDWFPREC
 40
2.0
  9
$PSOLWIDTH
 40
0.25
  9
$PSOLHEIGHT
 40
4.0
  9
$LOFTANG1
 40
1.570796326794896
  9
$LOFTANG2
 40
1.570796326794896
  9
$LOFTMAG1
 40
0.0
  9
$LOFTMAG2
 40
0.0
  9
$LOFTPARAM
 70
     7
  9
$LOFTNORMALS
280
     1
  9
$LATITUDE
 40
37.795
  9
$LONGITUDE
 40
-122.394
  9
$NORTHDIRECTION
 40
0.0
  9
$TIMEZONE
 70
 -8000
  9
$LIGHTGLYPHDISPLAY
280
     1
  9
$TILEMODELIGHTSYNCH
280
     1
  9
$CMATERIAL
347
11
  9
$SOLIDHIST
280
     0
  9
$SHOWHIST
280
     1
  9
$DWFFRAME
280
     2
  9
$DGNFRAME
280
     0
  9
$REALWORLDSCALE
290
     1
  9
$INTERFERECOLOR
 62
     1
  9
$INTERFEREOBJVS
345
33
  9
$INTERFEREVPVS
346
30
  9
$CSHADOW
280
     0
  9
$SHADOWPLANELOCATION
 40
0.0
  0
ENDSEC
  0
SECTION
  2
CLASSES
  0
CLASS
  1
ACDBDICTIONARYWDFLT
  2
AcDbDictionaryWithDefault
  3
ObjectDBX Classes
 90
        0
 91
        1
280
     0
281
     0
  0
CLASS
  1
MATERIAL
  2
AcDbMaterial
  3
ObjectDBX Classes
 90
     1153
 91
        3
280
     0
281
     0
  0
CLASS
  1
VISUALSTYLE
  2
AcDbVisualStyle
  3
ObjectDBX Classes
 90
     4095
 91
       24
280
     0
281
     0
  0
CLASS
  1
SCALE
  2
AcDbScale
  3
ObjectDBX Classes
 90
     1153
 91
       17
280
     0
281
     0
  0
CLASS
  1
TABLESTYLE
  2
AcDbTableStyle
  3
ObjectDBX Classes
 90
     4095
 91
        1
280
     0
281
     0
  0
CLASS
  1
MLEADERSTYLE
  2
AcDbMLeaderStyle
  3
ACDB_MLEADERSTYLE_CLASS
 90
     4095
 91
        1
280
     0
281
     0
  0
CLASS
  1
ACDBSECTIONVIEWSTYLE
  2
AcDbSectionViewStyle
  3
ObjectDBX Classes
 90
     1025
 91
        1
280
     0
281
     0
  0
CLASS
  1
ACDBDETAILVIEWSTYLE
  2
AcDbDetailViewStyle
  3
ObjectDBX Classes
 90
     1025
 91
        1
280
     0
281
     0
  0
CLASS
  1
DICTIONARYVAR
  2
AcDbDictionaryVar
  3
ObjectDBX Classes
 90
        0
 91
        5
280
     0
281
     0
  0
CLASS
  1
CELLSTYLEMAP
  2
AcDbCellStyleMap
  3
ObjectDBX Classes
 90
     1152
 91
        1
280
     0
281
     0
  0
ENDSEC
  0
SECTION
  2
TABLES
  0
TABLE
  2
VPORT
  5
8
330
0
100
AcDbSymbolTable
 70
     1
1001
ACAD
1000
DbSaveVer
1071
      278
  0
VPORT
  5
57
330
8
100
AcDbSymbolTableRecord
100
AcDbViewportTableRecord
  2
*Active
 70
     0
 10
0.0
 20
0.0
 11
1.0
 21
1.0
 12
0.0
 22
0.0
 13
0.0
 23
0.0
 14
1.0
 24
1.0
 15
0.0
 25
0.0
 16
0.0
 26
0.0
 36
1.0
 17
50.33333333333333
 27
-50.33333333333333
 37
0.0
 40
12.24
 41
1.0
 42
50.0
 43
0.0
 44
0.0
 50
0.0
 51
0.0
 71
     0
 72
   100
 73
     1
 74
     1
 75
     0
 76
     0
 77
     0
 78
     0
281
     0
 65
     1
110
0.0
120
0.0
130
0.0
111
1.0
121
0.0
131
0.0
112
0.0
122
1.0
132
0.0
 79
     0
146
0.0
 60
     3
 61
     5
292
     1
282
     1
141
0.0
142
0.0
 63
   250
421
  3355443
  0
ENDTAB
  0
TABLE
  2
LTYPE
  5
5
330
0
100
AcDbSymbolTable
 70
     1
  0
LTYPE
  5
5B
330
5
100
AcDbSymbolTableRecord
100
AcDbLinetypeTableRecord
  2
ByBlock
 70
     0
  3

 72
    65
 73
     0
 40
0.0
  0
LTYPE
  5
5C
330
5
100
AcDbSymbolTableRecord
100
AcDbLinetypeTableRecord
  2
ByLayer
 70
     0
  3

 72
    65
 73
     0
 40
0.0
  0
LTYPE
  5
5D
330
5
100
AcDbSymbolTableRecord
100
AcDbLinetypeTableRecord
  2
Continuous
 70
     0
  3
Solid line
 72
    65
 73
     0
 40
0.0
  0
ENDTAB
  0
TABLE
  2
LAYER
  5
2
330
0
100
AcDbSymbolTable
 70
     2
  0
LAYER
  5
54
330
2
100
AcDbSymbolTableRecord
100
AcDbLayerTableRecord
  2
0
 70
     0
 62
     7
  6
Continuous
370
    -3
390
F
347
21
348
0
  0
LAYER
  5
78
330
2
100
AcDbSymbolTableRecord
100
AcDbLayerTableRecord
  2
Слой 1
 70
     0
 62
     7
  6
Continuous
370
     0
390
F
347
21
348
0
  0
ENDTAB
  0
TABLE
  2
STYLE
  5
3
330
0
100
AcDbSymbolTable
 70
     2
  0
STYLE
  5
55
330
3
100
AcDbSymbolTableRecord
100
AcDbTextStyleTableRecord
  2
Standard
 70
     0
 40
0.0
 41
1.0
 50
0.0
 71
     0
 42
0.2
  3
txt
  4

  0
STYLE
  5
5A
330
3
100
AcDbSymbolTableRecord
100
AcDbTextStyleTableRecord
  2
Annotative
 70
     0
 40
0.0
 41
1.0
 50
0.0
 71
     0
 42
0.2
  3
txt
  4

1001
AcadAnnotative
1000
AnnotativeData
1002
{
1070
     1
1070
     1
1002
}
  0
ENDTAB
  0
TABLE
  2
VIEW
  5
6
330
0
100
AcDbSymbolTable
 70
     0
  0
ENDTAB
  0
TABLE
  2
UCS
  5
7
330
0
100
AcDbSymbolTable
 70
     0
  0
ENDTAB
  0
TABLE
  2
APPID
  5
9
330
0
100
AcDbSymbolTable
 70
     2
  0
APPID
  5
56
330
9
100
AcDbSymbolTableRecord
100
AcDbRegAppTableRecord
  2
ACAD
 70
     0
  0
APPID
  5
5E
330
9
100
AcDbSymbolTableRecord
100
AcDbRegAppTableRecord
  2
AcadAnnotative
 70
     0
  0
ENDTAB
  0
TABLE
  2
DIMSTYLE
  5
A
330
0
100
AcDbSymbolTable
 70
     2
100
AcDbDimStyleTable
 71
     0
  0
DIMSTYLE
105
58
330
A
100
AcDbSymbolTableRecord
100
AcDbDimStyleTableRecord
  2
Standard
 70
     0
340
55
  0
DIMSTYLE
105
59
330
A
100
AcDbSymbolTableRecord
100
AcDbDimStyleTableRecord
  2
Annotative
 70
     0
340
55
1001
AcadAnnotative
1000
AnnotativeData
1002
{
1070
     1
1070
     1
1002
}
  0
ENDTAB
  0
TABLE
  2
BLOCK_RECORD
  5
1
330
0
100
AcDbSymbolTable
 70
     2
  0
BLOCK_RECORD
  5
70
330
1
100
AcDbSymbolTableRecord
100
AcDbBlockTableRecord
  2
*Model_Space
340
73
 70
     0
280
     1
281
     0
  0
BLOCK_RECORD
  5
6C
330
1
100
AcDbSymbolTableRecord
100
AcDbBlockTableRecord
  2
*Paper_Space
340
6F
 70
     0
280
     1
281
     0
  0
BLOCK_RECORD
  5
74
330
1
100
AcDbSymbolTableRecord
100
AcDbBlockTableRecord
  2
*Paper_Space0
340
77
 70
     0
280
     1
281
     0
  0
BLOCK_RECORD
  5
79
330
1
100
AcDbSymbolTableRecord
100
AcDbBlockTableRecord
  2
Block_0
340
0
102
{BLKREFS
331
7A
102
}
 70
     0
280
     1
281
     0
  0
ENDTAB
  0
ENDSEC
  0
SECTION
  2
BLOCKS
  0
BLOCK
  5
71
330
70
100
AcDbEntity
  8
0
100
AcDbBlockBegin
  2
*Model_Space
 70
     0
 10
0.0
 20
0.0
 30
0.0
  3
*Model_Space
  1

  0
ENDBLK
  5
72
330
70
100
AcDbEntity
  8
0
100
AcDbBlockEnd
  0
BLOCK
  5
6D
330
6C
100
AcDbEntity
 67
     1
  8
0
100
AcDbBlockBegin
  2
*Paper_Space
 70
     0
 10
0.0
 20
0.0
 30
0.0
  3
*Paper_Space
  1

  0
ENDBLK
  5
6E
330
6C
100
AcDbEntity
 67
     1
  8
0
100
AcDbBlockEnd
  0
BLOCK
  5
75
330
74
100
AcDbEntity
 67
     1
  8
0
100
AcDbBlockBegin
  2
*Paper_Space0
 70
     0
 10
0.0
 20
0.0
 30
0.0
  3
*Paper_Space0
  1

  0
ENDBLK
  5
76
330
74
100
AcDbEntity
 67
     1
  8
0
100
AcDbBlockEnd
  0
BLOCK
  5
7B
330
79
100
AcDbEntity
  8
0
100
AcDbBlockBegin
  2
Block_0
 70
     0
 10
0.0
 20
0.0
 30
0.0
  3
Block_0
  1

  0
SPLINE
  5
7D
330
79
100
AcDbEntity
  8
Слой 1
100
AcDbSpline
210
0.0
220
0.0
230
1.0
 70
     9
 71
     3
 72
    11
 73
     7
 74
     0
 42
0.0000000001
 43
0.0000000001
 40
0.0
 40
0.0
 40
0.0
 40
0.0
 40
1.0
 40
1.0
 40
1.0
 40
2.0
 40
2.0
 40
2.0
 40
2.0
 10
46.2715270367693
 20
-48.72765433084015
 30
0.0
 10
46.74179619481456
 20
-49.14247331782013
 30
0.0
 10
46.89139671045639
 20
-49.24895434118596
 30
0.0
 10
47.15624600103335
 20
-48.70040062723945
 30
0.0
 10
46.86991757225847
 20
-48.72340376282388
 30
0.0
 10
46.59437744068554
 20
-48.6461404191632
 30
0.0
 10
46.2715270367693
 20
-48.72765433084015
 30
0.0
  0
SPLINE
  5
7E
330
79
100
AcDbEntity
  8
Слой 1
100
AcDbSpline
210
0.0
220
0.0
230
1.0
 70
     9
 71
     3
 72
    35
 73
    31
 74
     0
 42
0.0000000001
 43
0.0000000001
 40
0.0
 40
0.0
 40
0.0
 40
0.0
 40
1.0
 40
1.0
 40
1.0
 40
2.0
 40
2.0
 40
2.0
 40
3.0
 40
3.0
 40
3.0
 40
4.0
 40
4.0
 40
4.0
 40
5.0
 40
5.0
 40
5.0
 40
6.0
 40
6.0
 40
6.0
 40
7.0
 40
7.0
 40
7.0
 40
8.0
 40
8.0
 40
8.0
 40
9.0
 40
9.0
 40
9.0
 40
10.0
 40
10.0
 40
10.0
 40
10.0
 10
48.04904544705762
 20
-48.39613935428999
 30
0.0
 10
48.11577884602845
 20
-48.4097792992643
 30
0.0
 10
48.14989899725638
 20
-48.42585352715388
 30
0.0
 10
48.18150834128722
 20
-48.42189205642027
 30
0.0
 10
49.12377362326221
 20
-48.30378848433429
 30
0.0
 10
49.85854101995985
 20
-48.63691758737846
 30
0.0
 10
50.36549562807193
 20
-49.44094531294207
 30
0.0
 10
50.46043683511291
 20
-49.59151995661528
 30
0.0
 10
50.55626248341998
 20
-49.58150839202708
 30
0.0
 10
50.70592796986569
 20
-49.56094791898875
 30
0.0
 10
51.53847642648599
 20
-49.44657642522749
 30
0.0
 10
52.30311362633457
 20
-49.63472952581237
 30
0.0
 10
52.83858412987708
 20
-50.29696969865527
 30
0.0
 10
53.14204808423195
 20
-50.67227767623777
 30
0.0
 10
53.47060334389986
 20
-50.89071476461986
 30
0.0
 10
53.92003573637263
 20
-51.02632233919944
 30
0.0
 10
54.18737382790706
 20
-51.10698781319959
 30
0.0
 10
54.25034730357944
 20
-51.02558912145418
 30
0.0
 10
54.28075154398887
 20
-50.81470312839625
 30
0.0
 10
54.33758003910805
 20
-50.42055669202404
 30
0.0
 10
54.39043693185819
 20
-50.03263213194943
 30
0.0
 10
54.32378527034999
 20
-49.62532967431485
 30
0.0
 10
54.10954509229001
 20
-48.31610654245888
 30
0.0
 10
53.39805401006027
 20
-47.39638857864625
 30
0.0
 10
52.17530138416737
 20
-46.92008509388875
 30
0.0
 10
50.9601377673404
 20
-46.44673752409986
 30
0.0
 10
49.81705192206623
 20
-46.66453042832027
 30
0.0
 10
48.79950014915708
 20
-47.47711480497375
 30
0.0
 10
48.49167267177666
 20
-47.72293652869749
 30
0.0
 10
48.20950027862125
 20
-48.00412972391889
 30
0.0
 10
48.04904544705762
 20
-48.39613935428999
 30
0.0
  0
SPLINE
  5
7F
330
79
100
AcDbEntity
  8
Слой 1
100
AcDbSpline
210
0.0
220
0.0
230
1.0
 70
     9
 71
     3
 72
    47
 73
    43
 74
     0
 42
0.0000000001
 43
0.0000000001
 40
0.0
 40
0.0
 40
0.0
 40
0.0
 40
1.0
 40
1.0
 40
1.0
 40
2.0
 40
2.0
 40
2.0
 40
3.0
 40
3.0
 40
3.0
 40
4.0
 40
4.0
 40
4.0
 40
5.0
 40
5.0
 40
5.0
 40
6.0
 40
6.0
 40
6.0
 40
7.0
 40
7.0
 40
7.0
 40
8.0
 40
8.0
 40
8.0
 40
9.0
 40
9.0
 40
9.0
 40
10.0
 40
10.0
 40
10.0
 40
11.0
 40
11.0
 40
11.0
 40
12.0
 40
12.0
 40
12.0
 40
13.0
 40
13.0
 40
13.0
 40
14.0
 40
14.0
 40
14.0
 40
14.0
 10
48.5621513232196
 20
-48.65857998194292
 30
0.0
 10
47.6439147595386
 20
-48.6270882797729
 30
0.0
 10
46.83683485806111
 20
-49.21153719217834
 30
0.0
 10
46.68960787259541
 20
-50.08252864698569
 30
0.0
 10
46.63403687690722
 20
-50.41128462990501
 30
0.0
 10
46.49736240749986
 20
-50.48669083776195
 30
0.0
 10
46.20575352903081
 20
-50.54915994222596
 30
0.0
 10
45.07668146699916
 20
-50.79103590702485
 30
0.0
 10
44.38774782872931
 20
-51.88851518106083
 30
0.0
 10
44.66852125376764
 20
-52.9466164723468
 30
0.0
 10
44.90351436410416
 20
-53.8321926755664
 30
0.0
 10
45.78377234913639
 20
-54.45568752782845
 30
0.0
 10
46.80531773065528
 20
-54.44765250879153
 30
0.0
 10
46.97424391671916
 20
-54.44632433721846
 30
0.0
 10
47.08777096535042
 20
-54.46172924205153
 30
0.0
 10
47.20145100974542
 20
-54.62288002797709
 30
0.0
 10
48.07474244793014
 20
-55.86083020515292
 30
0.0
 10
49.76449054168263
 20
-55.91705124697167
 30
0.0
 10
50.75864653767833
 20
-54.7490154767382
 30
0.0
 10
50.86500583955249
 20
-54.62405212891596
 30
0.0
 10
50.92251338436486
 20
-54.57357637186055
 30
0.0
 10
51.06854260162236
 20
-54.72122861909126
 30
0.0
 10
51.66145777500554
 20
-55.32073782398957
 30
0.0
 10
52.38902808329304
 20
-55.53814526516664
 30
0.0
 10
53.2238086014029
 20
-55.44440442385651
 30
0.0
 10
54.25786086267958
 20
-55.32828368204485
 30
0.0
 10
55.09214466851443
 20
-54.52077421964415
 30
0.0
 10
55.24863208937333
 20
-53.46500665569707
 30
0.0
 10
55.37740003110833
 20
-52.59622637611917
 30
0.0
 10
54.77542457432458
 20
-51.59355425148653
 30
0.0
 10
53.83479613744235
 20
-51.26710999937333
 30
0.0
 10
53.3536894301343
 20
-51.10014374927221
 30
0.0
 10
52.98631725886373
 20
-50.901992701
 30
0.0
 10
52.65962729001845
 20
-50.47844109067096
 30
0.0
 10
52.18146313137915
 20
-49.85850862919806
 30
0.0
 10
51.46165159458082
 20
-49.66937196938029
 30
0.0
 10
50.68348789251945
 20
-49.83744747318499
 30
0.0
 10
50.42905174514708
 20
-49.89240319066554
 30
0.0
 10
50.30102572807694
 20
-49.8533059255668
 30
0.0
 10
50.16561399768153
 20
-49.59715735362417
 30
0.0
 10
49.83419163931097
 20
-48.97023837449041
 30
0.0
 10
49.26634890874957
 20
-48.68269446613903
 30
0.0
 10
48.5621513232196
 20
-48.65857998194292
 30
0.0
  0
SPLINE
  5
80
330
79
100
AcDbEntity
  8
Слой 1
100
AcDbSpline
210
0.0
220
0.0
230
1.0
 70
     9
 71
     3
 72
   131
 73
   127
 74
     0
 42
0.0000000001
 43
0.0000000001
 40
0.0
 40
0.0
 40
0.0
 40
0.0
 40
1.0
 40
1.0
 40
1.0
 40
2.0
 40
2.0
 40
2.0
 40
3.0
 40
3.0
 40
3.0
 40
4.0
 40
4.0
 40
4.0
 40
5.0
 40
5.0
 40
5.0
 40
6.0
 40
6.0
 40
6.0
 40
7.0
 40
7.0
 40
7.0
 40
8.0
 40
8.0
 40
8.0
 40
9.0
 40
9.0
 40
9.0
 40
10.0
 40
10.0
 40
10.0
 40
11.0
 40
11.0
 40
11.0
 40
12.0
 40
12.0
 40
12.0
 40
13.0
 40
13.0
 40
13.0
 40
14.0
 40
14.0
 40
14.0
 40
15.0
 40
15.0
 40
15.0
 40
16.0
 40
16.0
 40
16.0
 40
17.0
 40
17.0
 40
17.0
 40
18.0
 40
18.0
 40
18.0
 40
19.0
 40
19.0
 40
19.0
 40
20.0
 40
20.0
 40
20.0
 40
21.0
 40
21.0
 40
21.0
 40
22.0
 40
22.0
 40
22.0
 40
23.0
 40
23.0
 40
23.0
 40
24.0
 40
24.0
 40
24.0
 40
25.0
 40
25.0
 40
25.0
 40
26.0
 40
26.0
 40
26.0
 40
27.0
 40
27.0
 40
27.0
 40
28.0
 40
28.0
 40
28.0
 40
29.0
 40
29.0
 40
29.0
 40
30.0
 40
30.0
 40
30.0
 40
31.0
 40
31.0
 40
31.0
 40
32.0
 40
32.0
 40
32.0
 40
33.0
 40
33.0
 40
33.0
 40
34.0
 40
34.0
 40
34.0
 40
35.0
 40
35.0
 40
35.0
 40
36.0
 40
36.0
 40
36.0
 40
37.0
 40
37.0
 40
37.0
 40
38.0
 40
38.0
 40
38.0
 40
39.0
 40
39.0
 40
39.0
 40
40.0
 40
40.0
 40
40.0
 40
41.0
 40
41.0
 40
41.0
 40
42.0
 40
42.0
 40
42.0
 40
42.0
 10
48.17712595577
 20
-47.5993369658818
 30
0.0
 10
47.7198111376968
 20
-47.89831069143193
 30
0.0
 10
47.32022602266847
 20
-47.4722231951572
 30
0.0
 10
46.84013474615126
 20
-47.48426263053862
 30
0.0
 10
47.08587842870652
 20
-47.8646319054725
 30
0.0
 10
47.46948491763153
 20
-48.10249193193403
 30
0.0
 10
47.58441198229623
 20
-48.58995918059374
 30
0.0
 10
47.80856754336958
 20
-48.21399863921834
 30
0.0
 10
47.99216874779332
 20
-47.90605661318639
 30
0.0
 10
48.17578671887612
 20
-47.59813134641735
 30
0.0
 10
48.47772071558971
 20
-47.40154414685111
 30
0.0
 10
48.76033742521055
 20
-47.18191924572084
 30
0.0
 10
48.99834224668459
 20
-46.90908263789027
 30
0.0
 10
49.12822097958333
 20
-46.94880313807278
 30
0.0
 10
49.21033988409277
 20
-46.84633491068292
 30
0.0
 10
49.30851705633583
 20
-46.79959961158374
 30
0.0
 10
50.28731688844638
 20
-46.33365439866262
 30
0.0
 10
51.29440836192222
 20
-46.27446225379389
 30
0.0
 10
52.29823662437471
 20
-46.66816928324584
 30
0.0
 10
54.04811624508541
 20
-47.35448308958209
 30
0.0
 10
54.97373013876166
 20
-49.15577598263179
 30
0.0
 10
54.51699586625917
 20
-50.98022493953916
 30
0.0
 10
54.4322173504532
 20
-51.31887621966098
 30
0.0
 10
54.5986411126493
 20
-51.45380818646057
 30
0.0
 10
54.82543532669554
 20
-51.50712463855277
 30
0.0
 10
55.07614717991971
 20
-51.56606277584529
 30
0.0
 10
55.35142638036083
 20
-51.52058756381443
 30
0.0
 10
55.6715228605229
 20
-51.52058756381443
 30
0.0
 10
55.46848281072847
 20
-51.28929402599098
 30
0.0
 10
55.23995534329959
 20
-51.22449119418832
 30
0.0
 10
55.0653117264893
 20
-51.08430519851514
 30
0.0
 10
54.91894927188235
 20
-50.96681962424306
 30
0.0
 10
54.69532395640208
 20
-50.88075452527416
 30
0.0
 10
54.74378169697597
 20
-50.64589964411569
 30
0.0
 10
54.78646332349651
 20
-50.43904739611207
 30
0.0
 10
55.00148524703639
 20
-50.41918662229403
 30
0.0
 10
55.17147192428721
 20
-50.35351545118957
 30
0.0
 10
55.38890195923722
 20
-50.26951593135542
 30
0.0
 10
55.64584472214167
 20
-50.2882810683711
 30
0.0
 10
55.86358284445264
 20
-50.0890930407161
 30
0.0
 10
55.59628247790124
 20
-50.00946140373735
 30
0.0
 10
55.35851238965458
 20
-49.94055360001362
 30
0.0
 10
55.12201866333028
 20
-49.86751778038251
 30
0.0
 10
54.95716677542276
 20
-49.81660418758792
 30
0.0
 10
54.76806820265334
 20
-49.76536693153111
 30
0.0
 10
54.73714209998027
 20
-49.5721357743314
 30
0.0
 10
54.7052728727336
 20
-49.37303468535194
 30
0.0
 10
54.89046271810527
 20
-49.28353812733429
 30
0.0
 10
55.02333220381749
 20
-49.18049065792542
 30
0.0
 10
55.21379097180513
 20
-49.03277661091347
 30
0.0
 10
55.46288065076305
 20
-48.96160211690221
 30
0.0
 10
55.63078616645555
 20
-48.73966548496555
 30
0.0
 10
55.35795908990485
 20
-48.63080464628888
 30
0.0
 10
55.10614482884625
 20
-48.73987497575015
 30
0.0
 10
54.86349354697515
 20
-48.69827115341556
 30
0.0
 10
54.71458675185277
 20
-48.67273841660876
 30
0.0
 10
54.52343216751331
 20
-48.73579514272334
 30
0.0
 10
54.44912023863846
 20
-48.53539521088027
 30
0.0
 10
54.37956584927708
 20
-48.34782239976819
 30
0.0
 10
54.4899239993418
 20
-48.20501043711207
 30
0.0
 10
54.59591862638151
 20
-48.06857013666473
 30
0.0
 10
54.74606196261068
 20
-47.87530441348541
 30
0.0
 10
54.95790241259015
 20
-47.73014824895166
 30
0.0
 10
55.08750659144652
 20
-47.44547855416236
 30
0.0
 10
54.80365543655069
 20
-47.52481376168139
 30
0.0
 10
54.56627936479248
 20
-47.58716136149057
 30
0.0
 10
54.33151260435362
 20
-47.65813474434859
 30
0.0
 10
54.16543046283639
 20
-47.70834444810778
 30
0.0
 10
53.98404664907583
 20
-47.78525689470471
 30
0.0
 10
53.85681914414387
 20
-47.62253073808028
 30
0.0
 10
53.74036840933569
 20
-47.47359535979527
 30
0.0
 10
53.81416895510887
 20
-47.29641224413707
 30
0.0
 10
53.87431305706152
 20
-47.13287221581514
 30
0.0
 10
53.95816311912097
 20
-46.90487292057708
 30
0.0
 10
54.11850687156846
 20
-46.70512869488943
 30
0.0
 10
54.15942590305318
 20
-46.39781828357263
 30
0.0
 10
53.87515348584777
 20
-46.57676845399762
 30
0.0
 10
53.64272357851834
 20
-46.73838954673389
 30
0.0
 10
53.39618243174054
 20
-46.87446219085485
 30
0.0
 10
53.07802878819916
 20
-47.05005736636695
 30
0.0
 10
52.94830305106471
 20
-46.95442901308875
 30
0.0
 10
52.92190604217527
 20
-46.59030784339554
 30
0.0
 10
52.90063963096443
 20
-46.29691599979653
 30
0.0
 10
53.04836647245444
 20
-46.01634708711263
 30
0.0
 10
52.97318058147443
 20
-45.65331945931403
 30
0.0
 10
52.7611053982682
 20
-45.89829326908791
 30
0.0
 10
52.59703735167264
 20
-46.11223782759818
 30
0.0
 10
52.40771871650278
 20
-46.30086071126707
 30
0.0
 10
52.11339468717889
 20
-46.59410381640916
 30
0.0
 10
51.93652948804055
 20
-46.52574068872525
 30
0.0
 10
51.82033863644834
 20
-46.12476013923762
 30
0.0
 10
51.74369823779332
 20
-45.8602785476175
 30
0.0
 10
51.81727872116597
 20
-45.56287233686195
 30
0.0
 10
51.63264007971181
 20
-45.26723841814237
 30
0.0
 10
51.51459651229111
 20
-45.52931715046512
 30
0.0
 10
51.4248110529175
 20
-45.74930656556041
 30
0.0
 10
51.31730742656097
 20
-45.96027426002403
 30
0.0
 10
51.24213620640764
 20
-46.10779819414918
 30
0.0
 10
51.18621311087887
 20
-46.28983730619053
 30
0.0
 10
50.96888996338012
 20
-46.29336617845416
 30
0.0
 10
50.75082069955263
 20
-46.29690657271137
 30
0.0
 10
50.69439879591583
 20
-46.11532153194512
 30
0.0
 10
50.61111460860026
 20
-45.97095829003026
 30
0.0
 10
50.48907428882138
 20
-45.75941344845569
 30
0.0
 10
50.45040198965332
 20
-45.50285375084846
 30
0.0
 10
50.27028196282124
 20
-45.29469899389293
 30
0.0
 10
50.1559040062418
 20
-45.53373216874708
 30
0.0
 10
50.17545602656152
 20
-45.76513726041318
 30
0.0
 10
50.13535436970666
 20
-45.98562264494069
 30
0.0
 10
50.10195728065167
 20
-46.16926279030208
 30
0.0
 10
50.09667159137694
 20
-46.40672897408846
 30
0.0
 10
49.87140733497138
 20
-46.4671241197868
 30
0.0
 10
49.66341692908347
 20
-46.52288742424095
 30
0.0
 10
49.55563665285194
 20
-46.32142746902903
 30
0.0
 10
49.42431598727236
 20
-46.20244403564834
 30
0.0
 10
49.25659700066222
 20
-46.05048256298206
 30
0.0
 10
49.17186459316861
 20
-45.81260211116917
 30
0.0
 10
48.90173275706514
 20
-45.68730986281514
 30
0.0
 10
48.96321400007958
 20
-46.12544307919513
 30
0.0
 10
49.03095968609222
 20
-46.51798115006987
 30
0.0
 10
49.00461716884514
 20
-46.91594974580417
 30
0.0
 10
48.48370431704875
 20
-47.07635160217501
 30
0.0
 10
48.21729887092568
 20
-46.56134155263194
 30
0.0
 10
47.74286110226722
 20
-46.42942101585847
 30
0.0
 10
47.88934092348765
 20
-46.85114377163957
 30
0.0
 10
48.14224501738653
 20
-47.18867951333431
 30
0.0
 10
48.17712595577
 20
-47.5993369658818
 30
0.0
  0
SPLINE
  5
81
330
79
100
AcDbEntity
  8
Слой 1
100
AcDbSpline
210
0.0
220
0.0
230
1.0
 70
     9
 71
     3
 72
   233
 73
   229
 74
     0
 42
0.0000000001
 43
0.0000000001
 40
0.0
 40
0.0
 40
0.0
 40
0.0
 40
1.0
 40
1.0
 40
1.0
 40
2.0
 40
2.0
 40
2.0
 40
3.0
 40
3.0
 40
3.0
 40
4.0
 40
4.0
 40
4.0
 40
5.0
 40
5.0
 40
5.0
 40
6.0
 40
6.0
 40
6.0
 40
7.0
 40
7.0
 40
7.0
 40
8.0
 40
8.0
 40
8.0
 40
9.0
 40
9.0
 40
9.0
 40
10.0
 40
10.0
 40
10.0
 40
11.0
 40
11.0
 40
11.0
 40
12.0
 40
12.0
 40
12.0
 40
13.0
 40
13.0
 40
13.0
 40
14.0
 40
14.0
 40
14.0
 40
15.0
 40
15.0
 40
15.0
 40
16.0
 40
16.0
 40
16.0
 40
17.0
 40
17.0
 40
17.0
 40
18.0
 40
18.0
 40
18.0
 40
19.0
 40
19.0
 40
19.0
 40
20.0
 40
20.0
 40
20.0
 40
21.0
 40
21.0
 40
21.0
 40
22.0
 40
22.0
 40
22.0
 40
23.0
 40
23.0
 40
23.0
 40
24.0
 40
24.0
 40
24.0
 40
25.0
 40
25.0
 40
25.0
 40
26.0
 40
26.0
 40
26.0
 40
27.0
 40
27.0
 40
27.0
 40
28.0
 40
28.0
 40
28.0
 40
29.0
 40
29.0
 40
29.0
 40
30.0
 40
30.0
 40
30.0
 40
31.0
 40
31.0
 40
31.0
 40
32.0
 40
32.0
 40
32.0
 40
33.0
 40
33.0
 40
33.0
 40
34.0
 40
34.0
 40
34.0
 40
35.0
 40
35.0
 40
35.0
 40
36.0
 40
36.0
 40
36.0
 40
37.0
 40
37.0
 40
37.0
 40
38.0
 40
38.0
 40
38.0
 40
39.0
 40
39.0
 40
39.0
 40
40.0
 40
40.0
 40
40.0
 40
41.0
 40
41.0
 40
41.0
 40
42.0
 40
42.0
 40
42.0
 40
43.0
 40
43.0
 40
43.0
 40
44.0
 40
44.0
 40
44.0
 40
45.0
 40
45.0
 40
45.0
 40
46.0
 40
46.0
 40
46.0
 40
47.0
 40
47.0
 40
47.0
 40
48.0
 40
48.0
 40
48.0
 40
49.0
 40
49.0
 40
49.0
 40
50.0
 40
50.0
 40
50.0
 40
51.0
 40
51.0
 40
51.0
 40
52.0
 40
52.0
 40
52.0
 40
53.0
 40
53.0
 40
53.0
 40
54.0
 40
54.0
 40
54.0
 40
55.0
 40
55.0
 40
55.0
 40
56.0
 40
56.0
 40
56.0
 40
57.0
 40
57.0
 40
57.0
 40
58.0
 40
58.0
 40
58.0
 40
59.0
 40
59.0
 40
59.0
 40
60.0
 40
60.0
 40
60.0
 40
61.0
 40
61.0
 40
61.0
 40
62.0
 40
62.0
 40
62.0
 40
63.0
 40
63.0
 40
63.0
 40
64.0
 40
64.0
 40
64.0
 40
65.0
 40
65.0
 40
65.0
 40
66.0
 40
66.0
 40
66.0
 40
67.0
 40
67.0
 40
67.0
 40
68.0
 40
68.0
 40
68.0
 40
69.0
 40
69.0
 40
69.0
 40
70.0
 40
70.0
 40
70.0
 40
71.0
 40
71.0
 40
71.0
 40
72.0
 40
72.0
 40
72.0
 40
73.0
 40
73.0
 40
73.0
 40
74.0
 40
74.0
 40
74.0
 40
75.0
 40
75.0
 40
75.0
 40
76.0
 40
76.0
 40
76.0
 40
76.0
 10
48.71910192303555
 20
-46.62817435013569
 30
0.0
 10
48.67290558560554
 20
-46.2243468208879
 30
0.0
 10
48.62914250957404
 20
-45.90060238125917
 30
0.0
 10
48.60196165937292
 20
-45.57547320754539
 30
0.0
 10
48.59098788100487
 20
-45.44417276349415
 30
0.0
 10
48.57199544793221
 20
-45.28674567626178
 30
0.0
 10
48.74320399546332
 20
-45.22680355438498
 30
0.0
 10
48.89709258416486
 20
-45.17292514326348
 30
0.0
 10
49.01167593231763
 20
-45.26537237897999
 30
0.0
 10
49.10540574824015
 20
-45.36602432126887
 30
0.0
 10
49.26885342844944
 20
-45.54153517674027
 30
0.0
 10
49.41919586875554
 20
-45.72919649770862
 30
0.0
 10
49.57648389758571
 20
-45.91050396318542
 30
0.0
 10
49.62725543711235
 20
-45.96902783245195
 30
0.0
 10
49.66716008572292
 20
-46.05992274145569
 30
0.0
 10
49.75989438126223
 20
-46.04332740523973
 30
0.0
 10
49.87023157300346
 20
-46.02358289880708
 30
0.0
 10
49.83199101530665
 20
-45.91778743403306
 30
0.0
 10
49.84452618880138
 20
-45.8455199218543
 30
0.0
 10
49.88928478521554
 20
-45.58748383794404
 30
0.0
 10
49.92903643806208
 20
-45.32857889100529
 30
0.0
 10
49.97400042604971
 20
-45.07058051543652
 30
0.0
 10
49.99689949068846
 20
-44.93919260898236
 30
0.0
 10
50.05502740188666
 20
-44.8287757775043
 30
0.0
 10
50.20074434011917
 20
-44.80427321162985
 30
0.0
 10
50.35338171688666
 20
-44.77860640072109
 30
0.0
 10
50.43816652018972
 20
-44.88686390593887
 30
0.0
 10
50.4945611780057
 20
-44.99741533524611
 30
0.0
 10
50.64361887305929
 20
-45.28962879318277
 30
0.0
 10
50.7777018457225
 20
-45.58947504785015
 30
0.0
 10
50.93144791782207
 20
-45.91531910886556
 30
0.0
 10
51.14563360424011
 20
-45.7486775694804
 30
0.0
 10
51.16279637564111
 20
-45.50658635290012
 30
0.0
 10
51.27224493445083
 20
-45.32025110859723
 30
0.0
 10
51.32406019850542
 20
-45.23203244436444
 30
0.0
 10
51.35783244155721
 20
-45.13335233408431
 30
0.0
 10
51.40783690643125
 20
-45.04391390975889
 30
0.0
 10
51.48081169424484
 20
-44.91338962906375
 30
0.0
 10
51.55370474459528
 20
-44.77653244195527
 30
0.0
 10
51.74265660909805
 20
-44.80717780135612
 30
0.0
 10
51.91739663419791
 20
-44.83551771467429
 30
0.0
 10
51.94302866426652
 20
-44.98690989613346
 30
0.0
 10
51.96939004400526
 20
-45.11408180055097
 30
0.0
 10
52.0178792220646
 20
-45.34801596971207
 30
0.0
 10
52.03968635803069
 20
-45.58740789753457
 30
0.0
 10
52.07517927947098
 20
-45.82414033984875
 30
0.0
 10
52.08647162436096
 20
-45.89945437176056
 30
0.0
 10
52.0564362504518
 20
-46.00116528996472
 30
0.0
 10
52.14836365052292
 20
-46.03641211444556
 30
0.0
 10
52.2630203528093
 20
-46.08037375555901
 30
0.0
 10
52.30337979704735
 20
-45.96305629764123
 30
0.0
 10
52.35934271339179
 20
-45.90172525186388
 30
0.0
 10
52.52097330692347
 20
-45.72459031908612
 30
0.0
 10
52.66978159792375
 20
-45.53579460551986
 30
0.0
 10
52.83061158348457
 20
-45.35788927038249
 30
0.0
 10
52.92555069469305
 20
-45.25287101641889
 30
0.0
 10
53.04614698595861
 20
-45.1662455296018
 30
0.0
 10
53.19315914860486
 20
-45.23132646042095
 30
0.0
 10
53.34499172573654
 20
-45.29854105487944
 30
0.0
 10
53.34201983541472
 20
-45.45553868600346
 30
0.0
 10
53.33035652819206
 20
-45.58983851436111
 30
0.0
 10
53.30290531561319
 20
-45.90597267751819
 30
0.0
 10
53.25940002696526
 20
-46.22071425068567
 30
0.0
 10
53.21811212898097
 20
-46.57245818110792
 30
0.0
 10
53.53778944266583
 20
-46.48735150247792
 30
0.0
 10
53.73930372648429
 20
-46.27891026687431
 30
0.0
 10
53.98087565467722
 20
-46.14470051955403
 30
0.0
 10
54.14118168214152
 20
-46.05564022609486
 30
0.0
 10
54.31346539168664
 20
-45.92778957153597
 30
0.0
 10
54.48120743245264
 20
-46.08148353298944
 30
0.0
 10
54.63204448920153
 20
-46.21968617466111
 30
0.0
 10
54.53457570830444
 20
-46.39944602696792
 30
0.0
 10
54.47778074650319
 20
-46.56045645406763
 30
0.0
 10
54.38453716369415
 20
-46.82478564114206
 30
0.0
 10
54.20148925902029
 20
-47.05331285315721
 30
0.0
 10
54.13936459546388
 20
-47.35306378951751
 30
0.0
 10
54.40020351077222
 20
-47.36936636236221
 30
0.0
 10
54.60109323653985
 20
-47.24673674187831
 30
0.0
 10
54.81854213398153
 20
-47.20113478792291
 30
0.0
 10
54.95195444028139
 20
-47.17315519875402
 30
0.0
 10
55.08535836325179
 20
-47.13003047332429
 30
0.0
 10
55.21984792739765
 20
-47.1254551945925
 30
0.0
 10
55.49597593995486
 20
-47.11606477018027
 30
0.0
 10
55.60392597860944
 20
-47.28743032675445
 30
0.0
 10
55.45004367740514
 20
-47.52107644608723
 30
0.0
 10
55.30042220343943
 20
-47.74825244254222
 30
0.0
 10
55.10130764770209
 20
-47.94254467056513
 30
0.0
 10
54.92846435091014
 20
-48.15496518361889
 30
0.0
 10
54.88138776387819
 20
-48.21281815864805
 30
0.0
 10
54.79651912728001
 20
-48.26854480221514
 30
0.0
 10
54.84388913084583
 20
-48.35997077035765
 30
0.0
 10
54.88811538583417
 20
-48.44532569556723
 30
0.0
 10
54.98091046051278
 20
-48.42827943043777
 30
0.0
 10
55.0588733294025
 20
-48.42881467939208
 30
0.0
 10
55.32160058968985
 20
-48.43061630013805
 30
0.0
 10
55.58440120411056
 20
-48.42614681425223
 30
0.0
 10
55.84706139776153
 20
-48.43069276427417
 30
0.0
 10
55.96692624352487
 20
-48.43276567558625
 30
0.0
 10
56.0771418769875
 20
-48.47053895892749
 30
0.0
 10
56.11610968852194
 20
-48.60114598848263
 30
0.0
 10
56.15375712565403
 20
-48.72732962012416
 30
0.0
 10
56.0968175514182
 20
-48.83429142484028
 30
0.0
 10
56.00072573239777
 20
-48.90236650269583
 30
0.0
 10
55.76826857924707
 20
-49.06704825579292
 30
0.0
 10
55.5248083060754
 20
-49.21613132508082
 30
0.0
 10
55.28927866264805
 20
-49.37662535739721
 30
0.0
 10
55.23811729829806
 20
-49.4114877662889
 30
0.0
 10
55.15030192136595
 20
-49.43374301977319
 30
0.0
 10
55.16921052114361
 20
-49.52085976247973
 30
0.0
 10
55.18727659630222
 20
-49.60410302058221
 30
0.0
 10
55.27149971652609
 20
-49.59581137533429
 30
0.0
 10
55.33544985008987
 20
-49.61468125774223
 30
0.0
 10
55.58652218648416
 20
-49.68876453129514
 30
0.0
 10
55.83892747227542
 20
-49.75927389206582
 30
0.0
 10
56.08654587689915
 20
-49.84369029856111
 30
0.0
 10
56.2035038031443
 20
-49.88356372701625
 30
0.0
 10
56.32537436050014
 20
-49.93607678195015
 30
0.0
 10
56.33291516542125
 20
-50.09424756146707
 30
0.0
 10
56.34100717426001
 20
-50.26406602859861
 30
0.0
 10
56.23057567006152
 20
-50.34528560572319
 30
0.0
 10
56.09558520197555
 20
-50.38967565549069
 30
0.0
 10
55.84668205209972
 20
-50.47152475242291
 30
0.0
 10
55.59192733820527
 20
-50.53545610256236
 30
0.0
 10
55.34174153890959
 20
-50.61366215475292
 30
0.0
 10
55.27926058384792
 20
-50.63319088567777
 30
0.0
 10
55.19025477412139
 20
-50.66696917976014
 30
0.0
 10
55.17415458973985
 20
-50.71467337373722
 30
0.0
 10
55.14260602484834
 20
-50.80815654138303
 30
0.0
 10
55.24744375241124
 20
-50.84365894462067
 30
0.0
 10
55.3097360825582
 20
-50.88526486186333
 30
0.0
 10
55.52817630871818
 20
-51.03116786104346
 30
0.0
 10
55.75290612786499
 20
-51.16768986289695
 30
0.0
 10
55.97079515010762
 20
-51.31438054742694
 30
0.0
 10
56.08039251301695
 20
-51.38816739152027
 30
0.0
 10
56.15752962394708
 20
-51.48927183390317
 30
0.0
 10
56.11643454254153
 20
-51.63343710702707
 30
0.0
 10
56.07464783644946
 20
-51.78002618852623
 30
0.0
 10
55.94169870910652
 20
-51.81607536271167
 30
0.0
 10
55.81985749340401
 20
-51.82435129615055
 30
0.0
 10
55.59422856216388
 20
-51.83967449957805
 30
0.0
 10
55.36681188589916
 20
-51.82873593826889
 30
0.0
 10
55.15684091840734
 20
-51.82873593826889
 30
0.0
 10
55.10520170427334
 20
-51.94062496623473
 30
0.0
 10
55.1570211599925
 20
-51.99637360633444
 30
0.0
 10
55.19021495330624
 20
-52.05241553353168
 30
0.0
 10
56.04236992188805
 20
-53.49103483820903
 30
0.0
 10
55.21967187747748
 20
-55.27025054494096
 30
0.0
 10
53.52238507463597
 20
-55.67184228379222
 30
0.0
 10
52.6738810460689
 20
-55.87260358723804
 30
0.0
 10
51.88331839961763
 20
-55.71572222349929
 30
0.0
 10
51.189241588675
 20
-55.18633901123626
 30
0.0
 10
50.98885695851208
 20
-55.03350291454484
 30
0.0
 10
50.88779592090708
 20
-55.05383294772056
 30
0.0
 10
50.70779954818554
 20
-55.21180052117625
 30
0.0
 10
49.59106460348832
 20
-56.19185287836
 30
0.0
 10
47.9929337266136
 20
-56.05685282705528
 30
0.0
 10
47.06068442760665
 20
-54.90248109323693
 30
0.0
 10
46.91931110199194
 20
-54.72742326158666
 30
0.0
 10
46.76764514353513
 20
-54.72430080144487
 30
0.0
 10
46.58375785799042
 20
-54.71880271580749
 30
0.0
 10
44.93588030362571
 20
-54.66953467312416
 30
0.0
 10
43.85021816986846
 20
-52.96250215853041
 30
0.0
 10
44.54860925177569
 20
-51.52166329899222
 30
0.0
 10
44.76532355996639
 20
-51.0745638770389
 30
0.0
 10
45.10629662651541
 20
-50.74393295159904
 30
0.0
 10
45.53619900490889
 20
-50.50608863694652
 30
0.0
 10
45.66528027358542
 20
-50.43467427598693
 30
0.0
 10
45.72877875526986
 20
-50.39860415272333
 30
0.0
 10
45.62390539855666
 20
-50.23743032281153
 30
0.0
 10
45.50980618768458
 20
-50.06207920406334
 30
0.0
 10
45.63509714349263
 20
-49.93321304292693
 30
0.0
 10
45.80207944501944
 20
-49.86867940678206
 30
0.0
 10
45.99296366698124
 20
-49.79491141685972
 30
0.0
 10
46.18873222631583
 20
-49.73175308771472
 30
0.0
 10
46.38608418701763
 20
-49.6774394594886
 30
0.0
 10
46.51536246393819
 20
-49.64186059211445
 30
0.0
 10
46.5821618816293
 20
-49.55544773844361
 30
0.0
 10
46.60344505949916
 20
-49.43984129650779
 30
0.0
 10
46.62444739582944
 20
-49.32575890002888
 30
0.0
 10
46.50958949363388
 20
-49.29544872588305
 30
0.0
 10
46.43881637774081
 20
-49.24538252331139
 30
0.0
 10
46.26194803485388
 20
-49.12026205740082
 30
0.0
 10
46.0789556697379
 20
-49.00373804582916
 30
0.0
 10
45.90308075140137
 20
-48.87728940834515
 30
0.0
 10
45.81399425212818
 20
-48.8132386484586
 30
0.0
 10
45.76193063193623
 20
-48.72070761642847
 30
0.0
 10
45.80294502379444
 20
-48.60834304438196
 30
0.0
 10
45.84118348565914
 20
-48.5035861301718
 30
0.0
 10
45.92421826892056
 20
-48.45062685986722
 30
0.0
 10
46.03775684462986
 20
-48.43719116840735
 30
0.0
 10
46.31160354363555
 20
-48.40478399150972
 30
0.0
 10
46.58500802200832
 20
-48.40462268360553
 30
0.0
 10
46.85944364991443
 20
-48.42802489913457
 30
0.0
 10
46.93728076886137
 20
-48.43466156718555
 30
0.0
 10
47.03157121994624
 20
-48.44994077754805
 30
0.0
 10
47.08098046842292
 20
-48.3732598182682
 30
0.0
 10
47.15053695361667
 20
-48.2653155017732
 30
0.0
 10
47.0399021536768
 20
-48.20944745192653
 30
0.0
 10
46.98727580248931
 20
-48.14459434233555
 30
0.0
 10
46.82184756067598
 20
-47.94072733801014
 30
0.0
 10
46.64567503414082
 20
-47.74549030654944
 30
0.0
 10
46.48266747873208
 20
-47.53978083077514
 30
0.0
 10
46.40995362205067
 20
-47.44801548756193
 30
0.0
 10
46.37312879912999
 20
-47.33190626774375
 30
0.0
 10
46.43823373633778
 20
-47.22025920163388
 30
0.0
 10
46.50624873681208
 20
-47.10362101758472
 30
0.0
 10
46.62628544083109
 20
-47.10939353614985
 30
0.0
 10
46.74348857946526
 20
-47.11958212045096
 30
0.0
 10
46.99670600030569
 20
-47.14159645953292
 30
0.0
 10
47.22927318465664
 20
-47.23791194258415
 30
0.0
 10
47.46814148907293
 20
-47.31335795368987
 30
0.0
 10
47.56089045543888
 20
-47.34265209753124
 30
0.0
 10
47.67871605629152
 20
-47.41421205458568
 30
0.0
 10
47.7543902762168
 20
-47.32553565298917
 30
0.0
 10
47.81967545500999
 20
-47.24903485578347
 30
0.0
 10
47.72567527671026
 20
-47.15560510828792
 30
0.0
 10
47.690819488315
 20
-47.07514598271056
 30
0.0
 10
47.60917005025999
 20
-46.88666502904804
 30
0.0
 10
47.51325008949556
 20
-46.70430330119875
 30
0.0
 10
47.43335486314652
 20
-46.5151404550329
 30
0.0
 10
47.37129517039416
 20
-46.36820361883125
 30
0.0
 10
47.29483710915653
 20
-46.19847994628
 30
0.0
 10
47.44490080375554
 20
-46.07232459589416
 30
0.0
 10
47.58668596043346
 20
-45.95312852936722
 30
0.0
 10
47.74890967453027
 20
-46.02123031729777
 30
0.0
 10
47.8903867438479
 20
-46.10842771395638
 30
0.0
 10
48.14836065628583
 20
-46.26742598207167
 30
0.0
 10
48.40399352394986
 20
-46.43021603338555
 30
0.0
 10
48.71910192303555
 20
-46.62817435013569
 30
0.0
  0
HATCH
  5
82
330
79
100
AcDbEntity
  8
Слой 1
 62
    18
420
        0
440
 33554687
100
AcDbHatch
 10
0.0
 20
0.0
 30
0.0
210
0.0
220
0.0
230
1.0
  2
SOLID
 70
     1
 71
     1
 91
        5
 92
        1
 93
        1
 72
     4
 94
        3
 73
     0
 74
     0
 95
       11
 96
        7
 40
0.0
 40
0.0
 40
0.0
 40
0.0
 40
1.0
 40
1.0
 40
1.0
 40
2.0
 40
2.0
 40
2.0
 40
2.0
 10
46.2715270367693
 20
-48.72765433084015
 10
46.74179619481456
 20
-49.14247331782013
 10
46.89139671045639
 20
-49.24895434118596
 10
47.15624600103335
 20
-48.70040062723945
 10
46.86991757225847
 20
-48.72340376282388
 10
46.59437744068554
 20
-48.6461404191632
 10
46.2715270367693
 20
-48.72765433084015
 97
        0
 97
        1
330
7D
 92
        1
 93
        1
 72
     4
 94
        3
 73
     0
 74
     0
 95
       35
 96
       31
 40
0.0
 40
0.0
 40
0.0
 40
0.0
 40
1.0
 40
1.0
 40
1.0
 40
2.0
 40
2.0
 40
2.0
 40
3.0
 40
3.0
 40
3.0
 40
4.0
 40
4.0
 40
4.0
 40
5.0
 40
5.0
 40
5.0
 40
6.0
 40
6.0
 40
6.0
 40
7.0
 40
7.0
 40
7.0
 40
8.0
 40
8.0
 40
8.0
 40
9.0
 40
9.0
 40
9.0
 40
10.0
 40
10.0
 40
10.0
 40
10.0
 10
48.04904544705762
 20
-48.39613935428999
 10
48.11577884602845
 20
-48.4097792992643
 10
48.14989899725638
 20
-48.42585352715388
 10
48.18150834128722
 20
-48.42189205642027
 10
49.12377362326221
 20
-48.30378848433429
 10
49.85854101995985
 20
-48.63691758737846
 10
50.36549562807193
 20
-49.44094531294207
 10
50.46043683511291
 20
-49.59151995661528
 10
50.55626248341998
 20
-49.58150839202708
 10
50.70592796986569
 20
-49.56094791898875
 10
51.53847642648599
 20
-49.44657642522749
 10
52.30311362633457
 20
-49.63472952581237
 10
52.83858412987708
 20
-50.29696969865527
 10
53.14204808423195
 20
-50.67227767623777
 10
53.47060334389986
 20
-50.89071476461986
 10
53.92003573637263
 20
-51.02632233919944
 10
54.18737382790706
 20
-51.10698781319959
 10
54.25034730357944
 20
-51.02558912145418
 10
54.28075154398887
 20
-50.81470312839625
 10
54.33758003910805
 20
-50.42055669202404
 10
54.39043693185819
 20
-50.03263213194943
 10
54.32378527034999
 20
-49.62532967431485
 10
54.10954509229001
 20
-48.31610654245888
 10
53.39805401006027
 20
-47.39638857864625
 10
52.17530138416737
 20
-46.92008509388875
 10
50.9601377673404
 20
-46.44673752409986
 10
49.81705192206623
 20
-46.66453042832027
 10
48.79950014915708
 20
-47.47711480497375
 10
48.49167267177666
 20
-47.72293652869749
 10
48.20950027862125
 20
-48.00412972391889
 10
48.04904544705762
 20
-48.39613935428999
 97
        0
 97
        1
330
7E
 92
        1
 93
        1
 72
     4
 94
        3
 73
     0
 74
     0
 95
       47
 96
       43
 40
0.0
 40
0.0
 40
0.0
 40
0.0
 40
1.0
 40
1.0
 40
1.0
 40
2.0
 40
2.0
 40
2.0
 40
3.0
 40
3.0
 40
3.0
 40
4.0
 40
4.0
 40
4.0
 40
5.0
 40
5.0
 40
5.0
 40
6.0
 40
6.0
 40
6.0
 40
7.0
 40
7.0
 40
7.0
 40
8.0
 40
8.0
 40
8.0
 40
9.0
 40
9.0
 40
9.0
 40
10.0
 40
10.0
 40
10.0
 40
11.0
 40
11.0
 40
11.0
 40
12.0
 40
12.0
 40
12.0
 40
13.0
 40
13.0
 40
13.0
 40
14.0
 40
14.0
 40
14.0
 40
14.0
 10
48.5621513232196
 20
-48.65857998194292
 10
47.6439147595386
 20
-48.6270882797729
 10
46.83683485806111
 20
-49.21153719217834
 10
46.68960787259541
 20
-50.08252864698569
 10
46.63403687690722
 20
-50.41128462990501
 10
46.49736240749986
 20
-50.48669083776195
 10
46.20575352903081
 20
-50.54915994222596
 10
45.07668146699916
 20
-50.79103590702485
 10
44.38774782872931
 20
-51.88851518106083
 10
44.66852125376764
 20
-52.9466164723468
 10
44.90351436410416
 20
-53.8321926755664
 10
45.78377234913639
 20
-54.45568752782845
 10
46.80531773065528
 20
-54.44765250879153
 10
46.97424391671916
 20
-54.44632433721846
 10
47.08777096535042
 20
-54.46172924205153
 10
47.20145100974542
 20
-54.62288002797709
 10
48.07474244793014
 20
-55.86083020515292
 10
49.76449054168263
 20
-55.91705124697167
 10
50.75864653767833
 20
-54.7490154767382
 10
50.86500583955249
 20
-54.62405212891596
 10
50.92251338436486
 20
-54.57357637186055
 10
51.06854260162236
 20
-54.72122861909126
 10
51.66145777500554
 20
-55.32073782398957
 10
52.38902808329304
 20
-55.53814526516664
 10
53.2238086014029
 20
-55.44440442385651
 10
54.25786086267958
 20
-55.32828368204485
 10
55.09214466851443
 20
-54.52077421964415
 10
55.24863208937333
 20
-53.46500665569707
 10
55.37740003110833
 20
-52.59622637611917
 10
54.77542457432458
 20
-51.59355425148653
 10
53.83479613744235
 20
-51.26710999937333
 10
53.3536894301343
 20
-51.10014374927221
 10
52.98631725886373
 20
-50.901992701
 10
52.65962729001845
 20
-50.47844109067096
 10
52.18146313137915
 20
-49.85850862919806
 10
51.46165159458082
 20
-49.66937196938029
 10
50.68348789251945
 20
-49.83744747318499
 10
50.42905174514708
 20
-49.89240319066554
 10
50.30102572807694
 20
-49.8533059255668
 10
50.16561399768153
 20
-49.59715735362417
 10
49.83419163931097
 20
-48.97023837449041
 10
49.26634890874957
 20
-48.68269446613903
 10
48.5621513232196
 20
-48.65857998194292
 97
        0
 97
        1
330
7F
 92
        1
 93
        1
 72
     4
 94
        3
 73
     0
 74
     0
 95
      131
 96
      127
 40
0.0
 40
0.0
 40
0.0
 40
0.0
 40
1.0
 40
1.0
 40
1.0
 40
2.0
 40
2.0
 40
2.0
 40
3.0
 40
3.0
 40
3.0
 40
4.0
 40
4.0
 40
4.0
 40
5.0
 40
5.0
 40
5.0
 40
6.0
 40
6.0
 40
6.0
 40
7.0
 40
7.0
 40
7.0
 40
8.0
 40
8.0
 40
8.0
 40
9.0
 40
9.0
 40
9.0
 40
10.0
 40
10.0
 40
10.0
 40
11.0
 40
11.0
 40
11.0
 40
12.0
 40
12.0
 40
12.0
 40
13.0
 40
13.0
 40
13.0
 40
14.0
 40
14.0
 40
14.0
 40
15.0
 40
15.0
 40
15.0
 40
16.0
 40
16.0
 40
16.0
 40
17.0
 40
17.0
 40
17.0
 40
18.0
 40
18.0
 40
18.0
 40
19.0
 40
19.0
 40
19.0
 40
20.0
 40
20.0
 40
20.0
 40
21.0
 40
21.0
 40
21.0
 40
22.0
 40
22.0
 40
22.0
 40
23.0
 40
23.0
 40
23.0
 40
24.0
 40
24.0
 40
24.0
 40
25.0
 40
25.0
 40
25.0
 40
26.0
 40
26.0
 40
26.0
 40
27.0
 40
27.0
 40
27.0
 40
28.0
 40
28.0
 40
28.0
 40
29.0
 40
29.0
 40
29.0
 40
30.0
 40
30.0
 40
30.0
 40
31.0
 40
31.0
 40
31.0
 40
32.0
 40
32.0
 40
32.0
 40
33.0
 40
33.0
 40
33.0
 40
34.0
 40
34.0
 40
34.0
 40
35.0
 40
35.0
 40
35.0
 40
36.0
 40
36.0
 40
36.0
 40
37.0
 40
37.0
 40
37.0
 40
38.0
 40
38.0
 40
38.0
 40
39.0
 40
39.0
 40
39.0
 40
40.0
 40
40.0
 40
40.0
 40
41.0
 40
41.0
 40
41.0
 40
42.0
 40
42.0
 40
42.0
 40
42.0
 10
48.17712595577
 20
-47.5993369658818
 10
47.7198111376968
 20
-47.89831069143193
 10
47.32022602266847
 20
-47.4722231951572
 10
46.84013474615126
 20
-47.48426263053862
 10
47.08587842870652
 20
-47.8646319054725
 10
47.46948491763153
 20
-48.10249193193403
 10
47.58441198229623
 20
-48.58995918059374
 10
47.80856754336958
 20
-48.21399863921834
 10
47.99216874779332
 20
-47.90605661318639
 10
48.17578671887612
 20
-47.59813134641735
 10
48.47772071558971
 20
-47.40154414685111
 10
48.76033742521055
 20
-47.18191924572084
 10
48.99834224668459
 20
-46.90908263789027
 10
49.12822097958333
 20
-46.94880313807278
 10
49.21033988409277
 20
-46.84633491068292
 10
49.30851705633583
 20
-46.79959961158374
 10
50.28731688844638
 20
-46.33365439866262
 10
51.29440836192222
 20
-46.27446225379389
 10
52.29823662437471
 20
-46.66816928324584
 10
54.04811624508541
 20
-47.35448308958209
 10
54.97373013876166
 20
-49.15577598263179
 10
54.51699586625917
 20
-50.98022493953916
 10
54.4322173504532
 20
-51.31887621966098
 10
54.5986411126493
 20
-51.45380818646057
 10
54.82543532669554
 20
-51.50712463855277
 10
55.07614717991971
 20
-51.56606277584529
 10
55.35142638036083
 20
-51.52058756381443
 10
55.6715228605229
 20
-51.52058756381443
 10
55.46848281072847
 20
-51.28929402599098
 10
55.23995534329959
 20
-51.22449119418832
 10
55.0653117264893
 20
-51.08430519851514
 10
54.91894927188235
 20
-50.96681962424306
 10
54.69532395640208
 20
-50.88075452527416
 10
54.74378169697597
 20
-50.64589964411569
 10
54.78646332349651
 20
-50.43904739611207
 10
55.00148524703639
 20
-50.41918662229403
 10
55.17147192428721
 20
-50.35351545118957
 10
55.38890195923722
 20
-50.26951593135542
 10
55.64584472214167
 20
-50.2882810683711
 10
55.86358284445264
 20
-50.0890930407161
 10
55.59628247790124
 20
-50.00946140373735
 10
55.35851238965458
 20
-49.94055360001362
 10
55.12201866333028
 20
-49.86751778038251
 10
54.95716677542276
 20
-49.81660418758792
 10
54.76806820265334
 20
-49.76536693153111
 10
54.73714209998027
 20
-49.5721357743314
 10
54.7052728727336
 20
-49.37303468535194
 10
54.89046271810527
 20
-49.28353812733429
 10
55.02333220381749
 20
-49.18049065792542
 10
55.21379097180513
 20
-49.03277661091347
 10
55.46288065076305
 20
-48.96160211690221
 10
55.63078616645555
 20
-48.73966548496555
 10
55.35795908990485
 20
-48.63080464628888
 10
55.10614482884625
 20
-48.73987497575015
 10
54.86349354697515
 20
-48.69827115341556
 10
54.71458675185277
 20
-48.67273841660876
 10
54.52343216751331
 20
-48.73579514272334
 10
54.44912023863846
 20
-48.53539521088027
 10
54.37956584927708
 20
-48.34782239976819
 10
54.4899239993418
 20
-48.20501043711207
 10
54.59591862638151
 20
-48.06857013666473
 10
54.74606196261068
 20
-47.87530441348541
 10
54.95790241259015
 20
-47.73014824895166
 10
55.08750659144652
 20
-47.44547855416236
 10
54.80365543655069
 20
-47.52481376168139
 10
54.56627936479248
 20
-47.58716136149057
 10
54.33151260435362
 20
-47.65813474434859
 10
54.16543046283639
 20
-47.70834444810778
 10
53.98404664907583
 20
-47.78525689470471
 10
53.85681914414387
 20
-47.62253073808028
 10
53.74036840933569
 20
-47.47359535979527
 10
53.81416895510887
 20
-47.29641224413707
 10
53.87431305706152
 20
-47.13287221581514
 10
53.95816311912097
 20
-46.90487292057708
 10
54.11850687156846
 20
-46.70512869488943
 10
54.15942590305318
 20
-46.39781828357263
 10
53.87515348584777
 20
-46.57676845399762
 10
53.64272357851834
 20
-46.73838954673389
 10
53.39618243174054
 20
-46.87446219085485
 10
53.07802878819916
 20
-47.05005736636695
 10
52.94830305106471
 20
-46.95442901308875
 10
52.92190604217527
 20
-46.59030784339554
 10
52.90063963096443
 20
-46.29691599979653
 10
53.04836647245444
 20
-46.01634708711263
 10
52.97318058147443
 20
-45.65331945931403
 10
52.7611053982682
 20
-45.89829326908791
 10
52.59703735167264
 20
-46.11223782759818
 10
52.40771871650278
 20
-46.30086071126707
 10
52.11339468717889
 20
-46.59410381640916
 10
51.93652948804055
 20
-46.52574068872525
 10
51.82033863644834
 20
-46.12476013923762
 10
51.74369823779332
 20
-45.8602785476175
 10
51.81727872116597
 20
-45.56287233686195
 10
51.63264007971181
 20
-45.26723841814237
 10
51.51459651229111
 20
-45.52931715046512
 10
51.4248110529175
 20
-45.74930656556041
 10
51.31730742656097
 20
-45.96027426002403
 10
51.24213620640764
 20
-46.10779819414918
 10
51.18621311087887
 20
-46.28983730619053
 10
50.96888996338012
 20
-46.29336617845416
 10
50.75082069955263
 20
-46.29690657271137
 10
50.69439879591583
 20
-46.11532153194512
 10
50.61111460860026
 20
-45.97095829003026
 10
50.48907428882138
 20
-45.75941344845569
 10
50.45040198965332
 20
-45.50285375084846
 10
50.27028196282124
 20
-45.29469899389293
 10
50.1559040062418
 20
-45.53373216874708
 10
50.17545602656152
 20
-45.76513726041318
 10
50.13535436970666
 20
-45.98562264494069
 10
50.10195728065167
 20
-46.16926279030208
 10
50.09667159137694
 20
-46.40672897408846
 10
49.87140733497138
 20
-46.4671241197868
 10
49.66341692908347
 20
-46.52288742424095
 10
49.55563665285194
 20
-46.32142746902903
 10
49.42431598727236
 20
-46.20244403564834
 10
49.25659700066222
 20
-46.05048256298206
 10
49.17186459316861
 20
-45.81260211116917
 10
48.90173275706514
 20
-45.68730986281514
 10
48.96321400007958
 20
-46.12544307919513
 10
49.03095968609222
 20
-46.51798115006987
 10
49.00461716884514
 20
-46.91594974580417
 10
48.48370431704875
 20
-47.07635160217501
 10
48.21729887092568
 20
-46.56134155263194
 10
47.74286110226722
 20
-46.42942101585847
 10
47.88934092348765
 20
-46.85114377163957
 10
48.14224501738653
 20
-47.18867951333431
 10
48.17712595577
 20
-47.5993369658818
 97
        0
 97
        1
330
80
 92
        1
 93
        1
 72
     4
 94
        3
 73
     0
 74
     0
 95
      233
 96
      229
 40
0.0
 40
0.0
 40
0.0
 40
0.0
 40
1.0
 40
1.0
 40
1.0
 40
2.0
 40
2.0
 40
2.0
 40
3.0
 40
3.0
 40
3.0
 40
4.0
 40
4.0
 40
4.0
 40
5.0
 40
5.0
 40
5.0
 40
6.0
 40
6.0
 40
6.0
 40
7.0
 40
7.0
 40
7.0
 40
8.0
 40
8.0
 40
8.0
 40
9.0
 40
9.0
 40
9.0
 40
10.0
 40
10.0
 40
10.0
 40
11.0
 40
11.0
 40
11.0
 40
12.0
 40
12.0
 40
12.0
 40
13.0
 40
13.0
 40
13.0
 40
14.0
 40
14.0
 40
14.0
 40
15.0
 40
15.0
 40
15.0
 40
16.0
 40
16.0
 40
16.0
 40
17.0
 40
17.0
 40
17.0
 40
18.0
 40
18.0
 40
18.0
 40
19.0
 40
19.0
 40
19.0
 40
20.0
 40
20.0
 40
20.0
 40
21.0
 40
21.0
 40
21.0
 40
22.0
 40
22.0
 40
22.0
 40
23.0
 40
23.0
 40
23.0
 40
24.0
 40
24.0
 40
24.0
 40
25.0
 40
25.0
 40
25.0
 40
26.0
 40
26.0
 40
26.0
 40
27.0
 40
27.0
 40
27.0
 40
28.0
 40
28.0
 40
28.0
 40
29.0
 40
29.0
 40
29.0
 40
30.0
 40
30.0
 40
30.0
 40
31.0
 40
31.0
 40
31.0
 40
32.0
 40
32.0
 40
32.0
 40
33.0
 40
33.0
 40
33.0
 40
34.0
 40
34.0
 40
34.0
 40
35.0
 40
35.0
 40
35.0
 40
36.0
 40
36.0
 40
36.0
 40
37.0
 40
37.0
 40
37.0
 40
38.0
 40
38.0
 40
38.0
 40
39.0
 40
39.0
 40
39.0
 40
40.0
 40
40.0
 40
40.0
 40
41.0
 40
41.0
 40
41.0
 40
42.0
 40
42.0
 40
42.0
 40
43.0
 40
43.0
 40
43.0
 40
44.0
 40
44.0
 40
44.0
 40
45.0
 40
45.0
 40
45.0
 40
46.0
 40
46.0
 40
46.0
 40
47.0
 40
47.0
 40
47.0
 40
48.0
 40
48.0
 40
48.0
 40
49.0
 40
49.0
 40
49.0
 40
50.0
 40
50.0
 40
50.0
 40
51.0
 40
51.0
 40
51.0
 40
52.0
 40
52.0
 40
52.0
 40
53.0
 40
53.0
 40
53.0
 40
54.0
 40
54.0
 40
54.0
 40
55.0
 40
55.0
 40
55.0
 40
56.0
 40
56.0
 40
56.0
 40
57.0
 40
57.0
 40
57.0
 40
58.0
 40
58.0
 40
58.0
 40
59.0
 40
59.0
 40
59.0
 40
60.0
 40
60.0
 40
60.0
 40
61.0
 40
61.0
 40
61.0
 40
62.0
 40
62.0
 40
62.0
 40
63.0
 40
63.0
 40
63.0
 40
64.0
 40
64.0
 40
64.0
 40
65.0
 40
65.0
 40
65.0
 40
66.0
 40
66.0
 40
66.0
 40
67.0
 40
67.0
 40
67.0
 40
68.0
 40
68.0
 40
68.0
 40
69.0
 40
69.0
 40
69.0
 40
70.0
 40
70.0
 40
70.0
 40
71.0
 40
71.0
 40
71.0
 40
72.0
 40
72.0
 40
72.0
 40
73.0
 40
73.0
 40
73.0
 40
74.0
 40
74.0
 40
74.0
 40
75.0
 40
75.0
 40
75.0
 40
76.0
 40
76.0
 40
76.0
 40
76.0
 10
48.71910192303555
 20
-46.62817435013569
 10
48.67290558560554
 20
-46.2243468208879
 10
48.62914250957404
 20
-45.90060238125917
 10
48.60196165937292
 20
-45.57547320754539
 10
48.59098788100487
 20
-45.44417276349415
 10
48.57199544793221
 20
-45.28674567626178
 10
48.74320399546332
 20
-45.22680355438498
 10
48.89709258416486
 20
-45.17292514326348
 10
49.01167593231763
 20
-45.26537237897999
 10
49.10540574824015
 20
-45.36602432126887
 10
49.26885342844944
 20
-45.54153517674027
 10
49.41919586875554
 20
-45.72919649770862
 10
49.57648389758571
 20
-45.91050396318542
 10
49.62725543711235
 20
-45.96902783245195
 10
49.66716008572292
 20
-46.05992274145569
 10
49.75989438126223
 20
-46.04332740523973
 10
49.87023157300346
 20
-46.02358289880708
 10
49.83199101530665
 20
-45.91778743403306
 10
49.84452618880138
 20
-45.8455199218543
 10
49.88928478521554
 20
-45.58748383794404
 10
49.92903643806208
 20
-45.32857889100529
 10
49.97400042604971
 20
-45.07058051543652
 10
49.99689949068846
 20
-44.93919260898236
 10
50.05502740188666
 20
-44.8287757775043
 10
50.20074434011917
 20
-44.80427321162985
 10
50.35338171688666
 20
-44.77860640072109
 10
50.43816652018972
 20
-44.88686390593887
 10
50.4945611780057
 20
-44.99741533524611
 10
50.64361887305929
 20
-45.28962879318277
 10
50.7777018457225
 20
-45.58947504785015
 10
50.93144791782207
 20
-45.91531910886556
 10
51.14563360424011
 20
-45.7486775694804
 10
51.16279637564111
 20
-45.50658635290012
 10
51.27224493445083
 20
-45.32025110859723
 10
51.32406019850542
 20
-45.23203244436444
 10
51.35783244155721
 20
-45.13335233408431
 10
51.40783690643125
 20
-45.04391390975889
 10
51.48081169424484
 20
-44.91338962906375
 10
51.55370474459528
 20
-44.77653244195527
 10
51.74265660909805
 20
-44.80717780135612
 10
51.91739663419791
 20
-44.83551771467429
 10
51.94302866426652
 20
-44.98690989613346
 10
51.96939004400526
 20
-45.11408180055097
 10
52.0178792220646
 20
-45.34801596971207
 10
52.03968635803069
 20
-45.58740789753457
 10
52.07517927947098
 20
-45.82414033984875
 10
52.08647162436096
 20
-45.89945437176056
 10
52.0564362504518
 20
-46.00116528996472
 10
52.14836365052292
 20
-46.03641211444556
 10
52.2630203528093
 20
-46.08037375555901
 10
52.30337979704735
 20
-45.96305629764123
 10
52.35934271339179
 20
-45.90172525186388
 10
52.52097330692347
 20
-45.72459031908612
 10
52.66978159792375
 20
-45.53579460551986
 10
52.83061158348457
 20
-45.35788927038249
 10
52.92555069469305
 20
-45.25287101641889
 10
53.04614698595861
 20
-45.1662455296018
 10
53.19315914860486
 20
-45.23132646042095
 10
53.34499172573654
 20
-45.29854105487944
 10
53.34201983541472
 20
-45.45553868600346
 10
53.33035652819206
 20
-45.58983851436111
 10
53.30290531561319
 20
-45.90597267751819
 10
53.25940002696526
 20
-46.22071425068567
 10
53.21811212898097
 20
-46.57245818110792
 10
53.53778944266583
 20
-46.48735150247792
 10
53.73930372648429
 20
-46.27891026687431
 10
53.98087565467722
 20
-46.14470051955403
 10
54.14118168214152
 20
-46.05564022609486
 10
54.31346539168664
 20
-45.92778957153597
 10
54.48120743245264
 20
-46.08148353298944
 10
54.63204448920153
 20
-46.21968617466111
 10
54.53457570830444
 20
-46.39944602696792
 10
54.47778074650319
 20
-46.56045645406763
 10
54.38453716369415
 20
-46.82478564114206
 10
54.20148925902029
 20
-47.05331285315721
 10
54.13936459546388
 20
-47.35306378951751
 10
54.40020351077222
 20
-47.36936636236221
 10
54.60109323653985
 20
-47.24673674187831
 10
54.81854213398153
 20
-47.20113478792291
 10
54.95195444028139
 20
-47.17315519875402
 10
55.08535836325179
 20
-47.13003047332429
 10
55.21984792739765
 20
-47.1254551945925
 10
55.49597593995486
 20
-47.11606477018027
 10
55.60392597860944
 20
-47.28743032675445
 10
55.45004367740514
 20
-47.52107644608723
 10
55.30042220343943
 20
-47.74825244254222
 10
55.10130764770209
 20
-47.94254467056513
 10
54.92846435091014
 20
-48.15496518361889
 10
54.88138776387819
 20
-48.21281815864805
 10
54.79651912728001
 20
-48.26854480221514
 10
54.84388913084583
 20
-48.35997077035765
 10
54.88811538583417
 20
-48.44532569556723
 10
54.98091046051278
 20
-48.42827943043777
 10
55.0588733294025
 20
-48.42881467939208
 10
55.32160058968985
 20
-48.43061630013805
 10
55.58440120411056
 20
-48.42614681425223
 10
55.84706139776153
 20
-48.43069276427417
 10
55.96692624352487
 20
-48.43276567558625
 10
56.0771418769875
 20
-48.47053895892749
 10
56.11610968852194
 20
-48.60114598848263
 10
56.15375712565403
 20
-48.72732962012416
 10
56.0968175514182
 20
-48.83429142484028
 10
56.00072573239777
 20
-48.90236650269583
 10
55.76826857924707
 20
-49.06704825579292
 10
55.5248083060754
 20
-49.21613132508082
 10
55.28927866264805
 20
-49.37662535739721
 10
55.23811729829806
 20
-49.4114877662889
 10
55.15030192136595
 20
-49.43374301977319
 10
55.16921052114361
 20
-49.52085976247973
 10
55.18727659630222
 20
-49.60410302058221
 10
55.27149971652609
 20
-49.59581137533429
 10
55.33544985008987
 20
-49.61468125774223
 10
55.58652218648416
 20
-49.68876453129514
 10
55.83892747227542
 20
-49.75927389206582
 10
56.08654587689915
 20
-49.84369029856111
 10
56.2035038031443
 20
-49.88356372701625
 10
56.32537436050014
 20
-49.93607678195015
 10
56.33291516542125
 20
-50.09424756146707
 10
56.34100717426001
 20
-50.26406602859861
 10
56.23057567006152
 20
-50.34528560572319
 10
56.09558520197555
 20
-50.38967565549069
 10
55.84668205209972
 20
-50.47152475242291
 10
55.59192733820527
 20
-50.53545610256236
 10
55.34174153890959
 20
-50.61366215475292
 10
55.27926058384792
 20
-50.63319088567777
 10
55.19025477412139
 20
-50.66696917976014
 10
55.17415458973985
 20
-50.71467337373722
 10
55.14260602484834
 20
-50.80815654138303
 10
55.24744375241124
 20
-50.84365894462067
 10
55.3097360825582
 20
-50.88526486186333
 10
55.52817630871818
 20
-51.03116786104346
 10
55.75290612786499
 20
-51.16768986289695
 10
55.97079515010762
 20
-51.31438054742694
 10
56.08039251301695
 20
-51.38816739152027
 10
56.15752962394708
 20
-51.48927183390317
 10
56.11643454254153
 20
-51.63343710702707
 10
56.07464783644946
 20
-51.78002618852623
 10
55.94169870910652
 20
-51.81607536271167
 10
55.81985749340401
 20
-51.82435129615055
 10
55.59422856216388
 20
-51.83967449957805
 10
55.36681188589916
 20
-51.82873593826889
 10
55.15684091840734
 20
-51.82873593826889
 10
55.10520170427334
 20
-51.94062496623473
 10
55.1570211599925
 20
-51.99637360633444
 10
55.19021495330624
 20
-52.05241553353168
 10
56.04236992188805
 20
-53.49103483820903
 10
55.21967187747748
 20
-55.27025054494096
 10
53.52238507463597
 20
-55.67184228379222
 10
52.6738810460689
 20
-55.87260358723804
 10
51.88331839961763
 20
-55.71572222349929
 10
51.189241588675
 20
-55.18633901123626
 10
50.98885695851208
 20
-55.03350291454484
 10
50.88779592090708
 20
-55.05383294772056
 10
50.70779954818554
 20
-55.21180052117625
 10
49.59106460348832
 20
-56.19185287836
 10
47.9929337266136
 20
-56.05685282705528
 10
47.06068442760665
 20
-54.90248109323693
 10
46.91931110199194
 20
-54.72742326158666
 10
46.76764514353513
 20
-54.72430080144487
 10
46.58375785799042
 20
-54.71880271580749
 10
44.93588030362571
 20
-54.66953467312416
 10
43.85021816986846
 20
-52.96250215853041
 10
44.54860925177569
 20
-51.52166329899222
 10
44.76532355996639
 20
-51.0745638770389
 10
45.10629662651541
 20
-50.74393295159904
 10
45.53619900490889
 20
-50.50608863694652
 10
45.66528027358542
 20
-50.43467427598693
 10
45.72877875526986
 20
-50.39860415272333
 10
45.62390539855666
 20
-50.23743032281153
 10
45.50980618768458
 20
-50.06207920406334
 10
45.63509714349263
 20
-49.93321304292693
 10
45.80207944501944
 20
-49.86867940678206
 10
45.99296366698124
 20
-49.79491141685972
 10
46.18873222631583
 20
-49.73175308771472
 10
46.38608418701763
 20
-49.6774394594886
 10
46.51536246393819
 20
-49.64186059211445
 10
46.5821618816293
 20
-49.55544773844361
 10
46.60344505949916
 20
-49.43984129650779
 10
46.62444739582944
 20
-49.32575890002888
 10
46.50958949363388
 20
-49.29544872588305
 10
46.43881637774081
 20
-49.24538252331139
 10
46.26194803485388
 20
-49.12026205740082
 10
46.0789556697379
 20
-49.00373804582916
 10
45.90308075140137
 20
-48.87728940834515
 10
45.81399425212818
 20
-48.8132386484586
 10
45.76193063193623
 20
-48.72070761642847
 10
45.80294502379444
 20
-48.60834304438196
 10
45.84118348565914
 20
-48.5035861301718
 10
45.92421826892056
 20
-48.45062685986722
 10
46.03775684462986
 20
-48.43719116840735
 10
46.31160354363555
 20
-48.40478399150972
 10
46.58500802200832
 20
-48.40462268360553
 10
46.85944364991443
 20
-48.42802489913457
 10
46.93728076886137
 20
-48.43466156718555
 10
47.03157121994624
 20
-48.44994077754805
 10
47.08098046842292
 20
-48.3732598182682
 10
47.15053695361667
 20
-48.2653155017732
 10
47.0399021536768
 20
-48.20944745192653
 10
46.98727580248931
 20
-48.14459434233555
 10
46.82184756067598
 20
-47.94072733801014
 10
46.64567503414082
 20
-47.74549030654944
 10
46.48266747873208
 20
-47.53978083077514
 10
46.40995362205067
 20
-47.44801548756193
 10
46.37312879912999
 20
-47.33190626774375
 10
46.43823373633778
 20
-47.22025920163388
 10
46.50624873681208
 20
-47.10362101758472
 10
46.62628544083109
 20
-47.10939353614985
 10
46.74348857946526
 20
-47.11958212045096
 10
46.99670600030569
 20
-47.14159645953292
 10
47.22927318465664
 20
-47.23791194258415
 10
47.46814148907293
 20
-47.31335795368987
 10
47.56089045543888
 20
-47.34265209753124
 10
47.67871605629152
 20
-47.41421205458568
 10
47.7543902762168
 20
-47.32553565298917
 10
47.81967545500999
 20
-47.24903485578347
 10
47.72567527671026
 20
-47.15560510828792
 10
47.690819488315
 20
-47.07514598271056
 10
47.60917005025999
 20
-46.88666502904804
 10
47.51325008949556
 20
-46.70430330119875
 10
47.43335486314652
 20
-46.5151404550329
 10
47.37129517039416
 20
-46.36820361883125
 10
47.29483710915653
 20
-46.19847994628
 10
47.44490080375554
 20
-46.07232459589416
 10
47.58668596043346
 20
-45.95312852936722
 10
47.74890967453027
 20
-46.02123031729777
 10
47.8903867438479
 20
-46.10842771395638
 10
48.14836065628583
 20
-46.26742598207167
 10
48.40399352394986
 20
-46.43021603338555
 10
48.71910192303555
 20
-46.62817435013569
 97
        0
 97
        1
330
81
 75
     2
 76
     1
 98
        1
 10
0.0
 20
0.0
450
        0
451
        0
460
0.0
461
0.0
452
        0
462
0.0
453
        0
470

  0
SPLINE
  5
83
330
79
100
AcDbEntity
  8
Слой 1
100
AcDbSpline
210
0.0
220
0.0
230
1.0
 70
     9
 71
     3
 72
    38
 73
    34
 74
     0
 42
0.0000000001
 43
0.0000000001
 40
0.0
 40
0.0
 40
0.0
 40
0.0
 40
1.0
 40
1.0
 40
1.0
 40
2.0
 40
2.0
 40
2.0
 40
3.0
 40
3.0
 40
3.0
 40
4.0
 40
4.0
 40
4.0
 40
5.0
 40
5.0
 40
5.0
 40
6.0
 40
6.0
 40
6.0
 40
7.0
 40
7.0
 40
7.0
 40
8.0
 40
8.0
 40
8.0
 40
9.0
 40
9.0
 40
9.0
 40
10.0
 40
10.0
 40
10.0
 40
11.0
 40
11.0
 40
11.0
 40
11.0
 10
45.13392703276304
 20
-52.11987470848124
 30
0.0
 10
45.2037905574011
 20
-52.37185336635957
 30
0.0
 10
45.09690205784973
 20
-52.59530671157527
 30
0.0
 10
45.1705307453675
 20
-52.83955830186985
 30
0.0
 10
45.39727885110096
 20
-53.59176533954167
 30
0.0
 10
46.28485653073805
 20
-54.05736908248446
 30
0.0
 10
47.07413967151807
 20
-53.76512524838416
 30
0.0
 10
47.4175837244493
 20
-53.63796015241735
 30
0.0
 10
47.47706135170346
 20
-53.7338440844525
 30
0.0
 10
47.5501807519514
 20
-54.04010913675499
 30
0.0
 10
47.78141603482167
 20
-55.00865416514944
 30
0.0
 10
49.26319887267471
 20
-55.5595426538886
 30
0.0
 10
49.96919258655889
 20
-54.80207320771165
 30
0.0
 10
49.98730896169472
 20
-54.78263665273193
 30
0.0
 10
50.02522676120431
 20
-54.78164052405208
 30
0.0
 10
50.11230650096917
 20
-54.75250664066096
 30
0.0
 10
50.00432502482848
 20
-55.11818327942859
 30
0.0
 10
49.73425396786431
 20
-55.21191993092333
 30
0.0
 10
49.46663503479041
 20
-55.26457962940652
 30
0.0
 10
48.52108977513264
 20
-55.45063467978515
 30
0.0
 10
47.70281812871917
 20
-54.98327749897695
 30
0.0
 10
47.38828189187471
 20
-54.0705062495761
 30
0.0
 10
47.319220023124
 20
-53.87009793810208
 30
0.0
 10
47.23746788928209
 20
-53.90609788195291
 30
0.0
 10
47.08827815678751
 20
-53.93897327075403
 30
0.0
 10
46.56689898228541
 20
-54.05386011184514
 30
0.0
 10
46.06545850917862
 20
-54.00103491564221
 30
0.0
 10
45.60684951460764
 20
-53.70444100540319
 30
0.0
 10
45.11804900661445
 20
-53.38831836423916
 30
0.0
 10
44.87469038131305
 20
-52.78546778132901
 30
0.0
 10
45.03565554806264
 20
-52.28422756104667
 30
0.0
 10
45.0546647477947
 20
-52.22503175008917
 30
0.0
 10
45.10051736871375
 20
-52.17445020018792
 30
0.0
 10
45.13392703276304
 20
-52.11987470848124
 30
0.0
  0
HATCH
  5
84
330
79
100
AcDbEntity
  8
Слой 1
 62
    18
420
        0
440
 33554687
100
AcDbHatch
 10
0.0
 20
0.0
 30
0.0
210
0.0
220
0.0
230
1.0
  2
SOLID
 70
     1
 71
     1
 91
        1
 92
        1
 93
        1
 72
     4
 94
        3
 73
     0
 74
     0
 95
       38
 96
       34
 40
0.0
 40
0.0
 40
0.0
 40
0.0
 40
1.0
 40
1.0
 40
1.0
 40
2.0
 40
2.0
 40
2.0
 40
3.0
 40
3.0
 40
3.0
 40
4.0
 40
4.0
 40
4.0
 40
5.0
 40
5.0
 40
5.0
 40
6.0
 40
6.0
 40
6.0
 40
7.0
 40
7.0
 40
7.0
 40
8.0
 40
8.0
 40
8.0
 40
9.0
 40
9.0
 40
9.0
 40
10.0
 40
10.0
 40
10.0
 40
11.0
 40
11.0
 40
11.0
 40
11.0
 10
45.13392703276304
 20
-52.11987470848124
 10
45.2037905574011
 20
-52.37185336635957
 10
45.09690205784973
 20
-52.59530671157527
 10
45.1705307453675
 20
-52.83955830186985
 10
45.39727885110096
 20
-53.59176533954167
 10
46.28485653073805
 20
-54.05736908248446
 10
47.07413967151807
 20
-53.76512524838416
 10
47.4175837244493
 20
-53.63796015241735
 10
47.47706135170346
 20
-53.7338440844525
 10
47.5501807519514
 20
-54.04010913675499
 10
47.78141603482167
 20
-55.00865416514944
 10
49.26319887267471
 20
-55.5595426538886
 10
49.96919258655889
 20
-54.80207320771165
 10
49.98730896169472
 20
-54.78263665273193
 10
50.02522676120431
 20
-54.78164052405208
 10
50.11230650096917
 20
-54.75250664066096
 10
50.00432502482848
 20
-55.11818327942859
 10
49.73425396786431
 20
-55.21191993092333
 10
49.46663503479041
 20
-55.26457962940652
 10
48.52108977513264
 20
-55.45063467978515
 10
47.70281812871917
 20
-54.98327749897695
 10
47.38828189187471
 20
-54.0705062495761
 10
47.319220023124
 20
-53.87009793810208
 10
47.23746788928209
 20
-53.90609788195291
 10
47.08827815678751
 20
-53.93897327075403
 10
46.56689898228541
 20
-54.05386011184514
 10
46.06545850917862
 20
-54.00103491564221
 10
45.60684951460764
 20
-53.70444100540319
 10
45.11804900661445
 20
-53.38831836423916
 10
44.87469038131305
 20
-52.78546778132901
 10
45.03565554806264
 20
-52.28422756104667
 10
45.0546647477947
 20
-52.22503175008917
 10
45.10051736871375
 20
-52.17445020018792
 10
45.13392703276304
 20
-52.11987470848124
 97
        0
 97
        1
330
83
 75
     2
 76
     1
 98
        1
 10
0.0
 20
0.0
450
        0
451
        0
460
0.0
461
0.0
452
        0
462
0.0
453
        0
470

  0
ENDBLK
  5
7C
330
79
100
AcDbEntity
  8
0
100
AcDbBlockEnd
  0
ENDSEC
  0
SECTION
  2
ENTITIES
  0
INSERT
  5
7A
330
70
100
AcDbEntity
  8
Слой 1
100
AcDbBlockReference
  2
Block_0
 10
0.0
 20
0.0
 30
0.0
  0
ENDSEC
  0
SECTION
  2
OBJECTS
  0
DICTIONARY
  5
C
330
0
100
AcDbDictionary
281
     1
  3
ACAD_COLOR
350
63
  3
ACAD_DETAILVIEWSTYLE
350
6A
  3
ACAD_GROUP
350
D
  3
ACAD_LAYOUT
350
62
  3
ACAD_MATERIAL
350
10
  3
ACAD_MLEADERSTYLE
350
66
  3
ACAD_MLINESTYLE
350
5F
  3
ACAD_PLOTSETTINGS
350
61
  3
ACAD_PLOTSTYLENAME
350
E
  3
ACAD_SCALELIST
350
42
  3
ACAD_SECTIONVIEWSTYLE
350
68
  3
ACAD_TABLESTYLE
350
64
  3
ACAD_VISUALSTYLE
350
29
  3
ACDB_RECOMPOSE_DATA
350
8D
  3
AcDbVariableDictionary
350
85
  0
DICTIONARY
  5
63
102
{ACAD_REACTORS
330
C
102
}
330
C
100
AcDbDictionary
281
     1
  0
DICTIONARY
  5
6A
102
{ACAD_REACTORS
330
C
102
}
330
C
100
AcDbDictionary
281
     1
  3
Imperial24
350
6B
  0
DICTIONARY
  5
D
102
{ACAD_REACTORS
330
C
102
}
330
C
100
AcDbDictionary
281
     1
  0
DICTIONARY
  5
62
102
{ACAD_REACTORS
330
C
102
}
330
C
100
AcDbDictionary
281
     1
  3
Layout1
350
6F
  3
Layout2
350
77
  3
Model
350
73
  0
DICTIONARY
  5
10
102
{ACAD_REACTORS
330
C
102
}
330
C
100
AcDbDictionary
281
     1
  3
ByBlock
350
19
  3
ByLayer
350
11
  3
Global
350
21
  0
DICTIONARY
  5
66
102
{ACAD_REACTORS
330
C
102
}
330
C
100
AcDbDictionary
281
     1
  3
Standard
350
67
  0
DICTIONARY
  5
5F
102
{ACAD_REACTORS
330
C
102
}
330
C
100
AcDbDictionary
281
     1
  3
Standard
350
60
  0
DICTIONARY
  5
61
102
{ACAD_REACTORS
330
C
102
}
330
C
100
AcDbDictionary
281
     1
  0
ACDBDICTIONARYWDFLT
  5
E
102
{ACAD_REACTORS
330
C
102
}
330
C
100
AcDbDictionary
281
     1
  3
Normal
350
F
100
AcDbDictionaryWithDefault
340
F
  0
DICTIONARY
  5
42
102
{ACAD_REACTORS
330
C
102
}
330
C
100
AcDbDictionary
281
     1
  3
A0
350
43
  3
A1
350
44
  3
A2
350
45
  3
A3
350
46
  3
A4
350
47
  3
A5
350
48
  3
A6
350
49
  3
A7
350
4A
  3
A8
350
4B
  3
A9
350
4C
  3
B0
350
4D
  3
B1
350
4E
  3
B2
350
4F
  3
B3
350
50
  3
B4
350
51
  3
B5
350
52
  3
B6
350
53
  0
DICTIONARY
  5
68
102
{ACAD_REACTORS
330
C
102
}
330
C
100
AcDbDictionary
281
     1
  3
Imperial24
350
69
  0
DICTIONARY
  5
64
102
{ACAD_REACTORS
330
C
102
}
330
C
100
AcDbDictionary
281
     1
  3
Standard
350
65
  0
DICTIONARY
  5
29
102
{ACAD_REACTORS
330
C
102
}
330
C
100
AcDbDictionary
281
     1
  3
2dWireframe
350
2F
  3
Basic
350
2E
  3
Brighten
350
35
  3
ColorChange
350
39
  3
Conceptual
350
32
  3
Dim
350
34
  3
EdgeColorOff
350
41
  3
Facepattern
350
38
  3
Flat
350
2A
  3
FlatWithEdges
350
2B
  3
Gouraud
350
2C
  3
GouraudWithEdges
350
2D
  3
Hidden
350
31
  3
JitterOff
350
3F
  3
Linepattern
350
37
  3
OverhangOff
350
40
  3
Realistic
350
33
  3
Shaded
350
3E
  3
Shaded with edges
350
3D
  3
Shades of Gray
350
3A
  3
Sketchy
350
3B
  3
Thicken
350
36
  3
Wireframe
350
30
  3
X-Ray
350
3C
  0
XRECORD
  5
8D
102
{ACAD_REACTORS
330
C
102
}
330
C
100
AcDbXrecord
280
     1
 90
        1
330
65
  0
DICTIONARY
  5
85
102
{ACAD_REACTORS
330
C
102
}
330
C
100
AcDbDictionary
281
     1
  3
CANNOSCALE
350
8A
  3
CMLEADERSTYLE
350
87
  3
CTABLESTYLE
350
86
  3
CVIEWDETAILSTYLE
350
88
  3
CVIEWSECTIONSTYLE
350
89
  0
ACDBDETAILVIEWSTYLE
  5
6B
102
{ACAD_XDICTIONARY
360
90
102
}
102
{ACAD_REACTORS
330
6A
102
}
330
6A
100
AcDbModelDocViewStyle
 70
     0
  3
Imperial24
290
     0
100
AcDbDetailViewStyle
 70
     0
 71
     0
 90
        3
 71
     1
340
55
 62
   256
 40
0.24
340
0
 62
   256
 40
0.24
300

 40
0.36
280
     3
 71
     2
340
5D
 90
       25
 62
   256
 71
     3
340
55
 62
   256
 40
0.24
 90
        1
 40
0.75
 90
        1
300
%<\AcVar ViewType \f "%tc1">% %<\AcVar ViewDetailId>%\PSCALE %<\AcVar ViewScale \f "%sn">%
 71
     4
340
5D
 90
       25
 62
   256
340
5D
 90
       25
 62
   256
280
     0
  0
LAYOUT
  5
6F
102
{ACAD_REACTORS
330
62
102
}
330
62
100
AcDbPlotSettings
  1

  2

  4

  6

 40
0.0
 41
0.0
 42
0.0
 43
0.0
 44
0.0
 45
0.0
 46
0.0
 47
0.0
 48
0.0
 49
0.0
140
0.0
141
0.0
142
1.0
143
1.0
 70
   688
 72
     0
 73
     0
 74
     5
  7

 75
    16
147
1.0
 76
     0
 77
     2
 78
   300
148
0.0
149
0.0
100
AcDbLayout
  1
Layout1
 70
     1
 71
     1
 10
0.0
 20
0.0
 11
12.0
 21
9.0
 12
0.0
 22
0.0
 32
0.0
 14
0.0
 24
0.0
 34
0.0
 15
0.0
 25
0.0
 35
0.0
146
0.0
 13
0.0
 23
0.0
 33
0.0
 16
1.0
 26
0.0
 36
0.0
 17
0.0
 27
1.0
 37
0.0
 76
     0
330
6C
  0
LAYOUT
  5
77
102
{ACAD_REACTORS
330
62
102
}
330
62
100
AcDbPlotSettings
  1

  2

  4

  6

 40
0.0
 41
0.0
 42
0.0
 43
0.0
 44
0.0
 45
0.0
 46
0.0
 47
0.0
 48
0.0
 49
0.0
140
0.0
141
0.0
142
1.0
143
1.0
 70
   688
 72
     0
 73
     0
 74
     5
  7

 75
    16
147
1.0
 76
     0
 77
     2
 78
   300
148
0.0
149
0.0
100
AcDbLayout
  1
Layout2
 70
     1
 71
     2
 10
0.0
 20
0.0
 11
12.0
 21
9.0
 12
0.0
 22
0.0
 32
0.0
 14
0.0
 24
0.0
 34
0.0
 15
0.0
 25
0.0
 35
0.0
146
0.0
 13
0.0
 23
0.0
 33
0.0
 16
1.0
 26
0.0
 36
0.0
 17
0.0
 27
1.0
 37
0.0
 76
     0
330
74
  0
LAYOUT
  5
73
102
{ACAD_REACTORS
330
62
102
}
330
62
100
AcDbPlotSettings
  1

  2

  4

  6

 40
0.0
 41
0.0
 42
0.0
 43
0.0
 44
0.0
 45
0.0
 46
0.0
 47
0.0
 48
0.0
 49
0.0
140
0.0
141
0.0
142
1.0
143
1.0
 70
  1712
 72
     0
 73
     0
 74
     0
  7

 75
     0
147
1.0
 76
     0
 77
     2
 78
   300
148
0.0
149
0.0
100
AcDbLayout
  1
Model
 70
     1
 71
     0
 10
0.0
 20
0.0
 11
12.0
 21
9.0
 12
0.0
 22
0.0
 32
0.0
 14
0.0
 24
0.0
 34
0.0
 15
0.0
 25
0.0
 35
0.0
146
0.0
 13
0.0
 23
0.0
 33
0.0
 16
1.0
 26
0.0
 36
0.0
 17
0.0
 27
1.0
 37
0.0
 76
     0
330
70
  0
MATERIAL
  5
19
102
{ACAD_XDICTIONARY
360
1A
102
}
102
{ACAD_REACTORS
330
10
102
}
330
10
100
AcDbMaterial
  1
ByBlock
 72
     0
 43
0.0208333333333333
 43
0.0
 43
0.0
 43
0.0
 43
0.0
 43
0.0208333333333333
 43
0.0
 43
0.0
 43
0.0
 43
0.0
 43
1.0
 43
0.0
 43
0.0
 43
0.0
 43
0.0
 43
1.0
 77
     0
 47
0.0208333333333333
 47
0.0
 47
0.0
 47
0.0
 47
0.0
 47
0.0208333333333333
 47
0.0
 47
0.0
 47
0.0
 47
0.0
 47
1.0
 47
0.0
 47
0.0
 47
0.0
 47
0.0
 47
1.0
171
     0
 49
0.0208333333333333
 49
0.0
 49
0.0
 49
0.0
 49
0.0
 49
0.0208333333333333
 49
0.0
 49
0.0
 49
0.0
 49
0.0
 49
1.0
 49
0.0
 49
0.0
 49
0.0
 49
0.0
 49
1.0
175
     0
142
0.0208333333333333
142
0.0
142
0.0
142
0.0
142
0.0
142
0.0208333333333333
142
0.0
142
0.0
142
0.0
142
0.0
142
1.0
142
0.0
142
0.0
142
0.0
142
0.0
142
1.0
179
     0
144
0.0208333333333333
144
0.0
144
0.0
144
0.0
144
0.0
144
0.0208333333333333
144
0.0
144
0.0
144
0.0
144
0.0
144
1.0
144
0.0
144
0.0
144
0.0
144
0.0
144
1.0
147
0.0208333333333333
147
0.0
147
0.0
147
0.0
147
0.0
147
0.0208333333333333
147
0.0
147
0.0
147
0.0
147
0.0
147
1.0
147
0.0
147
0.0
147
0.0
147
0.0
147
1.0
  0
MATERIAL
  5
11
102
{ACAD_XDICTIONARY
360
12
102
}
102
{ACAD_REACTORS
330
10
102
}
330
10
100
AcDbMaterial
  1
ByLayer
 72
     0
 43
0.0208333333333333
 43
0.0
 43
0.0
 43
0.0
 43
0.0
 43
0.0208333333333333
 43
0.0
 43
0.0
 43
0.0
 43
0.0
 43
1.0
 43
0.0
 43
0.0
 43
0.0
 43
0.0
 43
1.0
 77
     0
 47
0.0208333333333333
 47
0.0
 47
0.0
 47
0.0
 47
0.0
 47
0.0208333333333333
 47
0.0
 47
0.0
 47
0.0
 47
0.0
 47
1.0
 47
0.0
 47
0.0
 47
0.0
 47
0.0
 47
1.0
171
     0
 49
0.0208333333333333
 49
0.0
 49
0.0
 49
0.0
 49
0.0
 49
0.0208333333333333
 49
0.0
 49
0.0
 49
0.0
 49
0.0
 49
1.0
 49
0.0
 49
0.0
 49
0.0
 49
0.0
 49
1.0
175
     0
142
0.0208333333333333
142
0.0
142
0.0
142
0.0
142
0.0
142
0.0208333333333333
142
0.0
142
0.0
142
0.0
142
0.0
142
1.0
142
0.0
142
0.0
142
0.0
142
0.0
142
1.0
179
     0
144
0.0208333333333333
144
0.0
144
0.0
144
0.0
144
0.0
144
0.0208333333333333
144
0.0
144
0.0
144
0.0
144
0.0
144
1.0
144
0.0
144
0.0
144
0.0
144
0.0
144
1.0
147
0.0208333333333333
147
0.0
147
0.0
147
0.0
147
0.0
147
0.0208333333333333
147
0.0
147
0.0
147
0.0
147
0.0
147
1.0
147
0.0
147
0.0
147
0.0
147
0.0
147
1.0
  0
MATERIAL
  5
21
102
{ACAD_XDICTIONARY
360
22
102
}
102
{ACAD_REACTORS
330
10
102
}
330
10
100
AcDbMaterial
  1
Global
 72
     0
 43
0.0208333333333333
 43
0.0
 43
0.0
 43
0.0
 43
0.0
 43
0.0208333333333333
 43
0.0
 43
0.0
 43
0.0
 43
0.0
 43
1.0
 43
0.0
 43
0.0
 43
0.0
 43
0.0
 43
1.0
 77
     0
 47
0.0208333333333333
 47
0.0
 47
0.0
 47
0.0
 47
0.0
 47
0.0208333333333333
 47
0.0
 47
0.0
 47
0.0
 47
0.0
 47
1.0
 47
0.0
 47
0.0
 47
0.0
 47
0.0
 47
1.0
171
     0
 49
0.0208333333333333
 49
0.0
 49
0.0
 49
0.0
 49
0.0
 49
0.0208333333333333
 49
0.0
 49
0.0
 49
0.0
 49
0.0
 49
1.0
 49
0.0
 49
0.0
 49
0.0
 49
0.0
 49
1.0
175
     0
142
0.0208333333333333
142
0.0
142
0.0
142
0.0
142
0.0
142
0.0208333333333333
142
0.0
142
0.0
142
0.0
142
0.0
142
1.0
142
0.0
142
0.0
142
0.0
142
0.0
142
1.0
179
     0
144
0.0208333333333333
144
0.0
144
0.0
144
0.0
144
0.0
144
0.0208333333333333
144
0.0
144
0.0
144
0.0
144
0.0
144
1.0
144
0.0
144
0.0
144
0.0
144
0.0
144
1.0
147
0.0208333333333333
147
0.0
147
0.0
147
0.0
147
0.0
147
0.0208333333333333
147
0.0
147
0.0
147
0.0
147
0.0
147
1.0
147
0.0
147
0.0
147
0.0
147
0.0
147
1.0
  0
MLEADERSTYLE
  5
67
102
{ACAD_REACTORS
330
66
102
}
330
66
100
AcDbMLeaderStyle
179
     2
170
     2
171
     1
172
     0
 90
        2
 40
0.0
 41
0.0
173
     1
 91
-1056964608
340
5B
 92
       -2
290
     1
 42
0.09
291
     1
 43
0.36
  3
Standard
 44
0.18
300

342
55
174
     1
178
     6
175
     1
176
     0
 93
-1056964608
 45
0.18
292
     0
297
     0
 46
0.18
 94
-1056964608
 47
1.0
 49
1.0
140
1.0
293
     1
141
0.0
294
     1
177
     0
142
1.0
295
     0
296
     0
143
0.125
271
     0
272
     9
273
     9
298
     1
  0
MLINESTYLE
  5
60
102
{ACAD_REACTORS
330
5F
102
}
330
5F
100
AcDbMlineStyle
  2
STANDARD
 70
     0
  3

 62
   256
 51
90.0
 52
90.0
 71
     2
 49
0.5
 62
   256
  6
BYLAYER
 49
-0.5
 62
   256
  6
BYLAYER
  0
ACDBPLACEHOLDER
  5
F
102
{ACAD_REACTORS
330
E
102
}
330
E
  0
SCALE
  5
43
102
{ACAD_REACTORS
330
42
102
}
330
42
100
AcDbScale
 70
     0
300
1:1
140
1.0
141
1.0
290
     1
  0
SCALE
  5
44
102
{ACAD_REACTORS
330
42
102
}
330
42
100
AcDbScale
 70
     0
300
1/128" = 1'-0"
140
0.0078125
141
12.0
290
     0
  0
SCALE
  5
45
102
{ACAD_REACTORS
330
42
102
}
330
42
100
AcDbScale
 70
     0
300
1/64" = 1'-0"
140
0.015625
141
12.0
290
     0
  0
SCALE
  5
46
102
{ACAD_REACTORS
330
42
102
}
330
42
100
AcDbScale
 70
     0
300
1/32" = 1'-0"
140
0.03125
141
12.0
290
     0
  0
SCALE
  5
47
102
{ACAD_REACTORS
330
42
102
}
330
42
100
AcDbScale
 70
     0
300
1/16" = 1'-0"
140
0.0625
141
12.0
290
     0
  0
SCALE
  5
48
102
{ACAD_REACTORS
330
42
102
}
330
42
100
AcDbScale
 70
     0
300
3/32" = 1'-0"
140
0.09375
141
12.0
290
     0
  0
SCALE
  5
49
102
{ACAD_REACTORS
330
42
102
}
330
42
100
AcDbScale
 70
     0
300
1/8" = 1'-0"
140
0.125
141
12.0
290
     0
  0
SCALE
  5
4A
102
{ACAD_REACTORS
330
42
102
}
330
42
100
AcDbScale
 70
     0
300
3/16" = 1'-0"
140
0.1875
141
12.0
290
     0
  0
SCALE
  5
4B
102
{ACAD_REACTORS
330
42
102
}
330
42
100
AcDbScale
 70
     0
300
1/4" = 1'-0"
140
0.25
141
12.0
290
     0
  0
SCALE
  5
4C
102
{ACAD_REACTORS
330
42
102
}
330
42
100
AcDbScale
 70
     0
300
3/8" = 1'-0"
140
0.375
141
12.0
290
     0
  0
SCALE
  5
4D
102
{ACAD_REACTORS
330
42
102
}
330
42
100
AcDbScale
 70
     0
300
1/2" = 1'-0"
140
0.5
141
12.0
290
     0
  0
SCALE
  5
4E
102
{ACAD_REACTORS
330
42
102
}
330
42
100
AcDbScale
 70
     0
300
3/4" = 1'-0"
140
0.75
141
12.0
290
     0
  0
SCALE
  5
4F
102
{ACAD_REACTORS
330
42
102
}
330
42
100
AcDbScale
 70
     0
300
1" = 1'-0"
140
1.0
141
12.0
290
     0
  0
SCALE
  5
50
102
{ACAD_REACTORS
330
42
102
}
330
42
100
AcDbScale
 70
     0
300
1-1/2" = 1'-0"
140
1.5
141
12.0
290
     0
  0
SCALE
  5
51
102
{ACAD_REACTORS
330
42
102
}
330
42
100
AcDbScale
 70
     0
300
3" = 1'-0"
140
3.0
141
12.0
290
     0
  0
SCALE
  5
52
102
{ACAD_REACTORS
330
42
102
}
330
42
100
AcDbScale
 70
     0
300
6" = 1'-0"
140
6.0
141
12.0
290
     0
  0
SCALE
  5
53
102
{ACAD_REACTORS
330
42
102
}
330
42
100
AcDbScale
 70
     0
300
1'-0" = 1'-0"
140
12.0
141
12.0
290
     0
  0
ACDBSECTIONVIEWSTYLE
  5
69
102
{ACAD_XDICTIONARY
360
8E
102
}
102
{ACAD_REACTORS
330
68
102
}
330
68
100
AcDbModelDocViewStyle
 70
     0
  3
Imperial24
290
     0
100
AcDbSectionViewStyle
 70
     0
 71
     0
 90
       78
 71
     1
340
55
 62
   256
 40
0.24
340
0
340
0
 62
   256
 40
0.24
300
I, O, Q, S, X, Z
 40
0.48
 90
        3
 40
0.18
 90
        1
 71
     2
340
5D
 90
       25
 62
   256
340
5D
 90
       50
 62
   256
 40
0.24
 40
0.0
 40
0.24
 71
     3
340
55
 62
   256
 40
0.24
 90
        1
 40
0.75
 90
        1
300
%<\AcVar ViewType \f "%tc1">% %<\AcVar ViewSectionStartId>%-%<\AcVar ViewSectionEndId>%\PSCALE %<\AcVar ViewScale \f "%sn">%
 71
     4
 62
   256
 62
   257
300
ANSI31
 40
1.0
 90
        0
290
     0
290
     0
 90
        6
 40
0.0
 40
1.570796326794896
 40
0.2617993877991494
 40
1.308996938995747
 40
-0.2617993877991494
 40
1.832595714594046
  0
TABLESTYLE
  5
65
102
{ACAD_XDICTIONARY
360
8B
102
}
102
{ACAD_REACTORS
330
64
102
}
330
64
100
AcDbTableStyle
280
     0
  3
Standard
 70
     0
 71
     0
 40
0.06
 41
0.06
280
     0
281
     0
  7
Standard
140
0.18
170
     2
 62
     0
 63
     7
283
     0
 90
      512
 91
        0
  1

274
    -2
284
     1
 64
     0
275
    -2
285
     1
 65
     0
276
    -2
286
     1
 66
     0
277
    -2
287
     1
 67
     0
278
    -2
288
     1
 68
     0
279
    -2
289
     1
 69
     0
  7
Standard
140
0.25
170
     5
 62
     0
 63
     7
283
     0
 90
      512
 91
        0
  1

274
    -2
284
     1
 64
     0
275
    -2
285
     1
 65
     0
276
    -2
286
     1
 66
     0
277
    -2
287
     1
 67
     0
278
    -2
288
     1
 68
     0
279
    -2
289
     1
 69
     0
  7
Standard
140
0.18
170
     5
 62
     0
 63
     7
283
     0
 90
      512
 91
        0
  1

274
    -2
284
     1
 64
     0
275
    -2
285
     1
 65
     0
276
    -2
286
     1
 66
     0
277
    -2
287
     1
 67
     0
278
    -2
288
     1
 68
     0
279
    -2
289
     1
 69
     0
  0
VISUALSTYLE
  5
2F
102
{ACAD_REACTORS
330
29
102
}
330
29
100
AcDbVisualStyle
  2
2dWireframe
 70
     4
177
     3
291
     0
 70
    58
 90
        0
176
     1
 90
        2
176
     1
 90
        0
176
     1
 90
        0
176
     1
 40
0.6
176
     1
 40
30.0
176
     1
 62
     7
420
 16777215
176
     1
 90
        1
176
     1
 90
        4
176
     1
 62
     7
176
     1
 62
   257
176
     1
 90
        1
176
     1
 90
        1
176
     1
 40
1.0
176
     1
 90
        0
176
     1
 62
   257
176
     1
 40
1.0
176
     1
 90
        1
176
     1
 90
        6
176
     1
 90
        2
176
     1
 62
     7
176
     1
 90
        5
176
     1
 90
        0
176
     1
 90
        0
176
     1
290
     0
176
     1
 90
        1
176
     1
 40
0.0
176
     1
 90
        0
176
     1
290
     1
176
     1
290
     1
176
     1
290
     0
176
     1
290
     0
176
     1
290
     0
176
     1
290
     0
176
     1
290
     0
176
     1
290
     0
176
     1
290
     0
176
     1
 90
       50
176
     1
 40
0.0
176
     1
 40
1.0
176
     1
 90
        0
176
     1
 62
    18
420
        0
176
     1
 90
       50
176
     1
 90
        3
176
     1
 62
     5
420
      255
176
     1
290
     0
176
     1
 90
       50
176
     1
 90
       50
176
     1
 90
       50
176
     1
290
     0
176
     1
 90
       50
176
     1
 62
   256
176
     0
 40
1.0
176
     0
 90
        2
176
     1
  1
strokes_ogs.tif
176
     1
290
     0
176
     1
 40
1.0
176
     1
 40
1.0
176
     1
1001
ACAD
1000
AcDbSavedByObjectVersion
1070
     0
  0
VISUALSTYLE
  5
2E
102
{ACAD_REACTORS
330
29
102
}
330
29
100
AcDbVisualStyle
  2
Basic
 70
     7
177
     3
291
     1
 70
    58
 90
        1
176
     1
 90
        0
176
     1
 90
        1
176
     1
 90
        0
176
     1
 40
0.6
176
     1
 40
30.0
176
     1
 62
     7
420
 16777215
176
     1
 90
        0
176
     1
 90
        4
176
     1
 62
     7
176
     1
 62
   257
176
     1
 90
        1
176
     1
 90
        1
176
     1
 40
1.0
176
     1
 90
        8
176
     1
 62
     7
176
     1
 40
1.0
176
     1
 90
        1
176
     1
 90
        6
176
     1
 90
        2
176
     1
 62
     7
176
     1
 90
        5
176
     1
 90
        0
176
     1
 90
        0
176
     1
290
     0
176
     1
 90
        1
176
     1
 40
0.0
176
     1
 90
        0
176
     1
290
     0
176
     1
290
     1
176
     1
290
     1
176
     1
290
     0
176
     1
290
     0
176
     1
290
     0
176
     1
290
     0
176
     1
290
     0
176
     1
290
     0
176
     1
 90
       50
176
     1
 40
0.0
176
     1
 40
1.0
176
     1
 90
        0
176
     1
 62
    18
420
        0
176
     1
 90
       50
176
     1
 90
        3
176
     1
 62
     5
420
      255
176
     1
290
     0
176
     1
 90
       50
176
     1
 90
       50
176
     1
 90
       50
176
     1
290
     0
176
     1
 90
       50
176
     1
 62
   256
176
     0
 40
1.0
176
     0
 90
        2
176
     1
  1
strokes_ogs.tif
176
     1
290
     0
176
     1
 40
1.0
176
     1
 40
1.0
176
     1
1001
ACAD
1000
AcDbSavedByObjectVersion
1070
     0
  0
VISUALSTYLE
  5
35
102
{ACAD_REACTORS
330
29
102
}
330
29
100
AcDbVisualStyle
  2
Brighten
 70
    12
177
     3
291
     1
 70
    58
 90
        2
176
     1
 90
        2
176
     1
 90
        0
176
     1
 90
        0
176
     1
 40
0.6
176
     1
 40
30.0
176
     1
 62
     7
420
 16777215
176
     1
 90
        1
176
     1
 90
        4
176
     1
 62
     7
176
     1
 62
   257
176
     1
 90
        1
176
     1
 90
        1
176
     1
 40
1.0
176
     1
 90
        8
176
     1
 62
     7
176
     1
 40
1.0
176
     1
 90
        1
176
     1
 90
        6
176
     1
 90
        2
176
     1
 62
     7
176
     1
 90
        5
176
     1
 90
        0
176
     1
 90
        0
176
     1
290
     0
176
     1
 90
        1
176
     1
 40
50.0
176
     1
 90
        0
176
     1
290
     0
176
     1
290
     1
176
     1
290
     1
176
     1
290
     0
176
     1
290
     0
176
     1
290
     0
176
     1
290
     0
176
     1
290
     0
176
     1
290
     0
176
     1
 90
       50
176
     1
 40
0.0
176
     1
 40
1.0
176
     1
 90
        0
176
     1
 62
    18
420
        0
176
     1
 90
       50
176
     1
 90
        3
176
     1
 62
     5
420
      255
176
     1
290
     0
176
     1
 90
       50
176
     1
 90
       50
176
     1
 90
       50
176
     1
290
     0
176
     1
 90
       50
176
     1
 62
   256
176
     0
 40
1.0
176
     0
 90
        2
176
     1
  1
strokes_ogs.tif
176
     1
290
     0
176
     1
 40
1.0
176
     1
 40
1.0
176
     1
1001
ACAD
1000
AcDbSavedByObjectVersion
1070
     0
  0
VISUALSTYLE
  5
39
102
{ACAD_REACTORS
330
29
102
}
330
29
100
AcDbVisualStyle
  2
ColorChange
 70
    16
177
     3
291
     1
 70
    58
 90
        2
176
     1
 90
        2
176
     1
 90
        3
176
     1
 90
        0
176
     1
 40
0.6
176
     1
 40
30.0
176
     1
 62
     8
420
  8421504
176
     1
 90
        1
176
     1
 90
        4
176
     1
 62
     7
176
     1
 62
   257
176
     1
 90
        1
176
     1
 90
        1
176
     1
 40
1.0
176
     1
 90
        8
176
     1
 62
     8
420
  8421504
176
     1
 40
1.0
176
     1
 90
        1
176
     1
 90
        6
176
     1
 90
        2
176
     1
 62
     7
176
     1
 90
        5
176
     1
 90
        0
176
     1
 90
        0
176
     1
290
     0
176
     1
 90
        1
176
     1
 40
0.0
176
     1
 90
        0
176
     1
290
     0
176
     1
290
     1
176
     1
290
     1
176
     1
290
     0
176
     1
290
     0
176
     1
290
     0
176
     1
290
     0
176
     1
290
     0
176
     1
290
     0
176
     1
 90
       50
176
     1
 40
0.0
176
     1
 40
1.0
176
     1
 90
        0
176
     1
 62
    18
420
        0
176
     1
 90
       50
176
     1
 90
        3
176
     1
 62
     5
420
      255
176
     1
290
     0
176
     1
 90
       50
176
     1
 90
       50
176
     1
 90
       50
176
     1
290
     0
176
     1
 90
       50
176
     1
 62
   256
176
     0
 40
1.0
176
     0
 90
        2
176
     1
  1
strokes_ogs.tif
176
     1
290
     0
176
     1
 40
1.0
176
     1
 40
1.0
176
     1
1001
ACAD
1000
AcDbSavedByObjectVersion
1070
     0
  0
VISUALSTYLE
  5
32
102
{ACAD_REACTORS
330
29
102
}
330
29
100
AcDbVisualStyle
  2
Conceptual
 70
     9
177
     3
291
     0
 70
    58
 90
        3
176
     1
 90
        2
176
     1
 90
        0
176
     1
 90
        0
176
     1
 40
0.6
176
     1
 40
30.0
176
     1
 62
     7
420
 16777215
176
     1
 90
        2
176
     1
 90
        2
176
     1
 62
     7
176
     1
 62
   257
176
     1
 90
        1
176
     1
 90
        1
176
     1
 40
179.0
176
     1
 90
        8
176
     1
 62
     7
176
     1
 40
1.0
176
     1
 90
        1
176
     1
 90
        6
176
     1
 90
        2
176
     1
 62
     7
176
     1
 90
        3
176
     1
 90
        0
176
     1
 90
        0
176
     1
290
     0
176
     1
 90
        1
176
     1
 40
0.0
176
     1
 90
        0
176
     1
290
     0
176
     1
290
     1
176
     1
290
     1
176
     1
290
     0
176
     1
290
     0
176
     1
290
     0
176
     1
290
     0
176
     1
290
     0
176
     1
290
     0
176
     1
 90
       50
176
     1
 40
0.0
176
     1
 40
1.0
176
     1
 90
        0
176
     1
 62
    18
420
        0
176
     1
 90
       50
176
     1
 90
        3
176
     1
 62
     5
420
      255
176
     1
290
     0
176
     1
 90
       50
176
     1
 90
       50
176
     1
 90
       50
176
     1
290
     0
176
     1
 90
       50
176
     1
 62
   256
176
     0
 40
1.0
176
     0
 90
        2
176
     1
  1
strokes_ogs.tif
176
     1
290
     0
176
     1
 40
1.0
176
     1
 40
1.0
176
     1
1001
ACAD
1000
AcDbSavedByObjectVersion
1070
     0
  0
VISUALSTYLE
  5
34
102
{ACAD_REACTORS
330
29
102
}
330
29
100
AcDbVisualStyle
  2
Dim
 70
    11
177
     3
291
     1
 70
    58
 90
        2
176
     1
 90
        2
176
     1
 90
        0
176
     1
 90
        0
176
     1
 40
0.6
176
     1
 40
30.0
176
     1
 62
     7
420
 16777215
176
     1
 90
        1
176
     1
 90
        4
176
     1
 62
     7
176
     1
 62
   257
176
     1
 90
        1
176
     1
 90
        1
176
     1
 40
1.0
176
     1
 90
        8
176
     1
 62
     7
176
     1
 40
1.0
176
     1
 90
        1
176
     1
 90
        6
176
     1
 90
        2
176
     1
 62
     7
176
     1
 90
        5
176
     1
 90
        0
176
     1
 90
        0
176
     1
290
     0
176
     1
 90
        1
176
     1
 40
-50.0
176
     1
 90
        0
176
     1
290
     0
176
     1
290
     1
176
     1
290
     1
176
     1
290
     0
176
     1
290
     0
176
     1
290
     0
176
     1
290
     0
176
     1
290
     0
176
     1
290
     0
176
     1
 90
       50
176
     1
 40
0.0
176
     1
 40
1.0
176
     1
 90
        0
176
     1
 62
    18
420
        0
176
     1
 90
       50
176
     1
 90
        3
176
     1
 62
     5
420
      255
176
     1
290
     0
176
     1
 90
       50
176
     1
 90
       50
176
     1
 90
       50
176
     1
290
     0
176
     1
 90
       50
176
     1
 62
   256
176
     0
 40
1.0
176
     0
 90
        2
176
     1
  1
strokes_ogs.tif
176
     1
290
     0
176
     1
 40
1.0
176
     1
 40
1.0
176
     1
1001
ACAD
1000
AcDbSavedByObjectVersion
1070
     0
  0
VISUALSTYLE
  5
41
102
{ACAD_REACTORS
330
29
102
}
330
29
100
AcDbVisualStyle
  2
EdgeColorOff
 70
    22
177
     3
291
     1
 70
    58
 90
        2
176
     0
 90
        2
176
     0
 90
        0
176
     0
 90
        0
176
     0
 40
0.6
176
     0
 40
30.0
176
     0
 62
     7
420
 16777215
176
     0
 90
        1
176
     0
 90
        4
176
     0
 62
     7
176
     0
 62
   257
176
     0
 90
        1
176
     0
 90
        1
176
     0
 40
1.0
176
     0
 90
        8
176
     2
 62
     7
176
     0
 40
1.0
176
     0
 90
        1
176
     0
 90
        6
176
     0
 90
        2
176
     0
 62
     7
176
     0
 90
        5
176
     0
 90
        0
176
     0
 90
        0
176
     0
290
     0
176
     0
 90
        1
176
     0
 40
0.0
176
     0
 90
        0
176
     0
290
     0
176
     0
290
     1
176
     0
290
     1
176
     0
290
     0
176
     0
290
     0
176
     0
290
     0
176
     0
290
     0
176
     0
290
     0
176
     0
290
     0
176
     0
 90
       50
176
     0
 40
0.0
176
     0
 40
1.0
176
     0
 90
        0
176
     0
 62
    18
420
        0
176
     0
 90
       50
176
     0
 90
        3
176
     0
 62
     5
420
      255
176
     0
290
     0
176
     0
 90
       50
176
     0
 90
       50
176
     0
 90
       50
176
     0
290
     0
176
     0
 90
       50
176
     0
 62
   256
176
     0
 40
1.0
176
     0
 90
        2
176
     0
  1
strokes_ogs.tif
176
     0
290
     0
176
     0
 40
1.0
176
     0
 40
1.0
176
     0
1001
ACAD
1000
AcDbSavedByObjectVersion
1070
     0
  0
VISUALSTYLE
  5
38
102
{ACAD_REACTORS
330
29
102
}
330
29
100
AcDbVisualStyle
  2
Facepattern
 70
    15
177
     3
291
     1
 70
    58
 90
        2
176
     1
 90
        2
176
     1
 90
        0
176
     1
 90
        0
176
     1
 40
0.6
176
     1
 40
30.0
176
     1
 62
     7
420
 16777215
176
     1
 90
        1
176
     1
 90
        4
176
     1
 62
     7
176
     1
 62
   257
176
     1
 90
        1
176
     1
 90
        1
176
     1
 40
1.0
176
     1
 90
        8
176
     1
 62
     7
176
     1
 40
1.0
176
     1
 90
        1
176
     1
 90
        6
176
     1
 90
        2
176
     1
 62
     7
176
     1
 90
        5
176
     1
 90
        0
176
     1
 90
        0
176
     1
290
     0
176
     1
 90
        1
176
     1
 40
0.0
176
     1
 90
        0
176
     1
290
     0
176
     1
290
     1
176
     1
290
     1
176
     1
290
     0
176
     1
290
     0
176
     1
290
     0
176
     1
290
     0
176
     1
290
     0
176
     1
290
     0
176
     1
 90
       50
176
     1
 40
0.0
176
     1
 40
1.0
176
     1
 90
        0
176
     1
 62
    18
420
        0
176
     1
 90
       50
176
     1
 90
        3
176
     1
 62
     5
420
      255
176
     1
290
     0
176
     1
 90
       50
176
     1
 90
       50
176
     1
 90
       50
176
     1
290
     0
176
     1
 90
       50
176
     1
 62
   256
176
     0
 40
1.0
176
     0
 90
        2
176
     1
  1
strokes_ogs.tif
176
     1
290
     0
176
     1
 40
1.0
176
     1
 40
1.0
176
     1
1001
ACAD
1000
AcDbSavedByObjectVersion
1070
     0
  0
VISUALSTYLE
  5
2A
102
{ACAD_REACTORS
330
29
102
}
330
29
100
AcDbVisualStyle
  2
Flat
 70
     0
177
     3
291
     1
 70
    58
 90
        2
176
     1
 90
        1
176
     1
 90
        1
176
     1
 90
        2
176
     1
 40
0.6
176
     1
 40
30.0
176
     1
 62
     7
420
 16777215
176
     1
 90
        0
176
     1
 90
        0
176
     1
 62
     7
176
     1
 62
   257
176
     1
 90
        1
176
     1
 90
        1
176
     1
 40
1.0
176
     1
 90
        8
176
     1
 62
     7
176
     1
 40
1.0
176
     1
 90
        1
176
     1
 90
        6
176
     1
 90
        2
176
     1
 62
     7
176
     1
 90
        5
176
     1
 90
        0
176
     1
 90
        0
176
     1
290
     0
176
     1
 90
       13
176
     1
 40
0.0
176
     1
 90
        0
176
     1
290
     0
176
     1
290
     1
176
     1
290
     1
176
     1
290
     0
176
     1
290
     0
176
     1
290
     0
176
     1
290
     0
176
     1
290
     0
176
     1
290
     0
176
     1
 90
       50
176
     1
 40
0.0
176
     1
 40
1.0
176
     1
 90
        0
176
     1
 62
    18
420
        0
176
     1
 90
       50
176
     1
 90
        3
176
     1
 62
     5
420
      255
176
     1
290
     0
176
     1
 90
       50
176
     1
 90
       50
176
     1
 90
       50
176
     1
290
     0
176
     1
 90
       50
176
     1
 62
   256
176
     0
 40
1.0
176
     0
 90
        2
176
     1
  1
strokes_ogs.tif
176
     1
290
     0
176
     1
 40
1.0
176
     1
 40
1.0
176
     1
1001
ACAD
1000
AcDbSavedByObjectVersion
1070
     0
  0
VISUALSTYLE
  5
2B
102
{ACAD_REACTORS
330
29
102
}
330
29
100
AcDbVisualStyle
  2
FlatWithEdges
 70
     1
177
     3
291
     1
 70
    58
 90
        2
176
     1
 90
        1
176
     1
 90
        1
176
     1
 90
        2
176
     1
 40
0.6
176
     1
 40
30.0
176
     1
 62
     7
420
 16777215
176
     1
 90
        1
176
     1
 90
        0
176
     1
 62
     7
176
     1
 62
   257
176
     1
 90
        1
176
     1
 90
        1
176
     1
 40
1.0
176
     1
 90
        0
176
     1
 62
   257
176
     1
 40
1.0
176
     1
 90
        1
176
     1
 90
        6
176
     1
 90
        2
176
     1
 62
     7
176
     1
 90
        5
176
     1
 90
        0
176
     1
 90
        0
176
     1
290
     0
176
     1
 90
       13
176
     1
 40
0.0
176
     1
 90
        0
176
     1
290
     0
176
     1
290
     1
176
     1
290
     1
176
     1
290
     0
176
     1
290
     0
176
     1
290
     0
176
     1
290
     0
176
     1
290
     0
176
     1
290
     0
176
     1
 90
       50
176
     1
 40
0.0
176
     1
 40
1.0
176
     1
 90
        0
176
     1
 62
    18
420
        0
176
     1
 90
       50
176
     1
 90
        3
176
     1
 62
     5
420
      255
176
     1
290
     0
176
     1
 90
       50
176
     1
 90
       50
176
     1
 90
       50
176
     1
290
     0
176
     1
 90
       50
176
     1
 62
   256
176
     0
 40
1.0
176
     0
 90
        2
176
     1
  1
strokes_ogs.tif
176
     1
290
     0
176
     1
 40
1.0
176
     1
 40
1.0
176
     1
1001
ACAD
1000
AcDbSavedByObjectVersion
1070
     0
  0
VISUALSTYLE
  5
2C
102
{ACAD_REACTORS
330
29
102
}
330
29
100
AcDbVisualStyle
  2
Gouraud
 70
     2
177
     3
291
     1
 70
    58
 90
        2
176
     1
 90
        2
176
     1
 90
        1
176
     1
 90
        2
176
     1
 40
0.6
176
     1
 40
30.0
176
     1
 62
     7
420
 16777215
176
     1
 90
        0
176
     1
 90
        0
176
     1
 62
     7
176
     1
 62
   257
176
     1
 90
        1
176
     1
 90
        1
176
     1
 40
1.0
176
     1
 90
        0
176
     1
 62
     7
176
     1
 40
1.0
176
     1
 90
        1
176
     1
 90
        6
176
     1
 90
        2
176
     1
 62
     7
176
     1
 90
        5
176
     1
 90
        0
176
     1
 90
        0
176
     1
290
     0
176
     1
 90
       13
176
     1
 40
0.0
176
     1
 90
        0
176
     1
290
     0
176
     1
290
     1
176
     1
290
     1
176
     1
290
     0
176
     1
290
     0
176
     1
290
     0
176
     1
290
     0
176
     1
290
     0
176
     1
290
     0
176
     1
 90
       50
176
     1
 40
0.0
176
     1
 40
1.0
176
     1
 90
        0
176
     1
 62
    18
420
        0
176
     1
 90
       50
176
     1
 90
        3
176
     1
 62
     5
420
      255
176
     1
290
     0
176
     1
 90
       50
176
     1
 90
       50
176
     1
 90
       50
176
     1
290
     0
176
     1
 90
       50
176
     1
 62
   256
176
     0
 40
1.0
176
     0
 90
        2
176
     1
  1
strokes_ogs.tif
176
     1
290
     0
176
     1
 40
1.0
176
     1
 40
1.0
176
     1
1001
ACAD
1000
AcDbSavedByObjectVersion
1070
     0
  0
VISUALSTYLE
  5
2D
102
{ACAD_REACTORS
330
29
102
}
330
29
100
AcDbVisualStyle
  2
GouraudWithEdges
 70
     3
177
     3
291
     1
 70
    58
 90
        2
176
     1
 90
        2
176
     1
 90
        1
176
     1
 90
        2
176
     1
 40
0.6
176
     1
 40
30.0
176
     1
 62
     7
420
 16777215
176
     1
 90
        1
176
     1
 90
        0
176
     1
 62
     7
176
     1
 62
   257
176
     1
 90
        1
176
     1
 90
        1
176
     1
 40
1.0
176
     1
 90
        0
176
     1
 62
   257
176
     1
 40
1.0
176
     1
 90
        1
176
     1
 90
        6
176
     1
 90
        2
176
     1
 62
     7
176
     1
 90
        5
176
     1
 90
        0
176
     1
 90
        0
176
     1
290
     0
176
     1
 90
       13
176
     1
 40
0.0
176
     1
 90
        0
176
     1
290
     0
176
     1
290
     1
176
     1
290
     1
176
     1
290
     0
176
     1
290
     0
176
     1
290
     0
176
     1
290
     0
176
     1
290
     0
176
     1
290
     0
176
     1
 90
       50
176
     1
 40
0.0
176
     1
 40
1.0
176
     1
 90
        0
176
     1
 62
    18
420
        0
176
     1
 90
       50
176
     1
 90
        3
176
     1
 62
     5
420
      255
176
     1
290
     0
176
     1
 90
       50
176
     1
 90
       50
176
     1
 90
       50
176
     1
290
     0
176
     1
 90
       50
176
     1
 62
   256
176
     0
 40
1.0
176
     0
 90
        2
176
     1
  1
strokes_ogs.tif
176
     1
290
     0
176
     1
 40
1.0
176
     1
 40
1.0
176
     1
1001
ACAD
1000
AcDbSavedByObjectVersion
1070
     0
  0
VISUALSTYLE
  5
31
102
{ACAD_REACTORS
330
29
102
}
330
29
100
AcDbVisualStyle
  2
Hidden
 70
     6
177
     3
291
     0
 70
    58
 90
        1
176
     1
 90
        2
176
     1
 90
        2
176
     1
 90
        0
176
     1
 40
0.6
176
     1
 40
30.0
176
     1
 62
     7
420
 16777215
176
     1
 90
        2
176
     1
 90
        2
176
     1
 62
     7
176
     1
 62
   257
176
     1
 90
        2
176
     1
 90
        1
176
     1
 40
40.0
176
     1
 90
        0
176
     1
 62
   257
176
     1
 40
1.0
176
     1
 90
        1
176
     1
 90
        6
176
     1
 90
        2
176
     1
 62
     7
176
     1
 90
        3
176
     1
 90
        0
176
     1
 90
        0
176
     1
290
     0
176
     1
 90
        1
176
     1
 40
0.0
176
     1
 90
        0
176
     1
290
     0
176
     1
290
     1
176
     1
290
     1
176
     1
290
     0
176
     1
290
     0
176
     1
290
     0
176
     1
290
     0
176
     1
290
     0
176
     1
290
     0
176
     1
 90
       50
176
     1
 40
0.0
176
     1
 40
1.0
176
     1
 90
        0
176
     1
 62
    18
420
        0
176
     1
 90
       50
176
     1
 90
        3
176
     1
 62
     5
420
      255
176
     1
290
     0
176
     1
 90
       50
176
     1
 90
       50
176
     1
 90
       50
176
     1
290
     0
176
     1
 90
       50
176
     1
 62
   256
176
     0
 40
1.0
176
     0
 90
        2
176
     1
  1
strokes_ogs.tif
176
     1
290
     0
176
     1
 40
1.0
176
     1
 40
1.0
176
     1
1001
ACAD
1000
AcDbSavedByObjectVersion
1070
     0
  0
VISUALSTYLE
  5
3F
102
{ACAD_REACTORS
330
29
102
}
330
29
100
AcDbVisualStyle
  2
JitterOff
 70
    20
177
     3
291
     1
 70
    58
 90
        2
176
     0
 90
        2
176
     0
 90
        0
176
     0
 90
        0
176
     0
 40
0.6
176
     0
 40
30.0
176
     0
 62
     7
420
 16777215
176
     0
 90
        1
176
     0
 90
        4
176
     0
 62
     7
176
     0
 62
   257
176
     0
 90
        1
176
     0
 90
        1
176
     0
 40
1.0
176
     0
 90
       10
176
     2
 62
     7
176
     0
 40
1.0
176
     0
 90
        1
176
     0
 90
        6
176
     0
 90
        2
176
     0
 62
     7
176
     0
 90
        5
176
     0
 90
        0
176
     0
 90
        0
176
     0
290
     0
176
     0
 90
        1
176
     0
 40
0.0
176
     0
 90
        0
176
     0
290
     0
176
     0
290
     1
176
     0
290
     1
176
     0
290
     0
176
     0
290
     0
176
     0
290
     0
176
     0
290
     0
176
     0
290
     0
176
     0
290
     0
176
     0
 90
       50
176
     0
 40
0.0
176
     0
 40
1.0
176
     0
 90
        0
176
     0
 62
    18
420
        0
176
     0
 90
       50
176
     0
 90
        3
176
     0
 62
     5
420
      255
176
     0
290
     0
176
     0
 90
       50
176
     0
 90
       50
176
     0
 90
       50
176
     0
290
     0
176
     0
 90
       50
176
     0
 62
   256
176
     0
 40
1.0
176
     0
 90
        2
176
     0
  1
strokes_ogs.tif
176
     0
290
     0
176
     0
 40
1.0
176
     0
 40
1.0
176
     0
1001
ACAD
1000
AcDbSavedByObjectVersion
1070
     0
  0
VISUALSTYLE
  5
37
102
{ACAD_REACTORS
330
29
102
}
330
29
100
AcDbVisualStyle
  2
Linepattern
 70
    14
177
     3
291
     1
 70
    58
 90
        2
176
     1
 90
        2
176
     1
 90
        0
176
     1
 90
        0
176
     1
 40
0.6
176
     1
 40
30.0
176
     1
 62
     7
420
 16777215
176
     1
 90
        1
176
     1
 90
        4
176
     1
 62
     7
176
     1
 62
   257
176
     1
 90
        7
176
     1
 90
        7
176
     1
 40
1.0
176
     1
 90
        8
176
     1
 62
     7
176
     1
 40
1.0
176
     1
 90
        1
176
     1
 90
        6
176
     1
 90
        2
176
     1
 62
     7
176
     1
 90
        5
176
     1
 90
        0
176
     1
 90
        0
176
     1
290
     0
176
     1
 90
        1
176
     1
 40
0.0
176
     1
 90
        0
176
     1
290
     0
176
     1
290
     1
176
     1
290
     1
176
     1
290
     0
176
     1
290
     0
176
     1
290
     0
176
     1
290
     0
176
     1
290
     0
176
     1
290
     0
176
     1
 90
       50
176
     1
 40
0.0
176
     1
 40
1.0
176
     1
 90
        0
176
     1
 62
    18
420
        0
176
     1
 90
       50
176
     1
 90
        3
176
     1
 62
     5
420
      255
176
     1
290
     0
176
     1
 90
       50
176
     1
 90
       50
176
     1
 90
       50
176
     1
290
     0
176
     1
 90
       50
176
     1
 62
   256
176
     0
 40
1.0
176
     0
 90
        2
176
     1
  1
strokes_ogs.tif
176
     1
290
     0
176
     1
 40
1.0
176
     1
 40
1.0
176
     1
1001
ACAD
1000
AcDbSavedByObjectVersion
1070
     0
  0
VISUALSTYLE
  5
40
102
{ACAD_REACTORS
330
29
102
}
330
29
100
AcDbVisualStyle
  2
OverhangOff
 70
    21
177
     3
291
     1
 70
    58
 90
        2
176
     0
 90
        2
176
     0
 90
        0
176
     0
 90
        0
176
     0
 40
0.6
176
     0
 40
30.0
176
     0
 62
     7
420
 16777215
176
     0
 90
        1
176
     0
 90
        4
176
     0
 62
     7
176
     0
 62
   257
176
     0
 90
        1
176
     0
 90
        1
176
     0
 40
1.0
176
     0
 90
        9
176
     2
 62
     7
176
     0
 40
1.0
176
     0
 90
        1
176
     0
 90
        6
176
     0
 90
        2
176
     0
 62
     7
176
     0
 90
        5
176
     0
 90
        0
176
     0
 90
        0
176
     0
290
     0
176
     0
 90
        1
176
     0
 40
0.0
176
     0
 90
        0
176
     0
290
     0
176
     0
290
     1
176
     0
290
     1
176
     0
290
     0
176
     0
290
     0
176
     0
290
     0
176
     0
290
     0
176
     0
290
     0
176
     0
290
     0
176
     0
 90
       50
176
     0
 40
0.0
176
     0
 40
1.0
176
     0
 90
        0
176
     0
 62
    18
420
        0
176
     0
 90
       50
176
     0
 90
        3
176
     0
 62
     5
420
      255
176
     0
290
     0
176
     0
 90
       50
176
     0
 90
       50
176
     0
 90
       50
176
     0
290
     0
176
     0
 90
       50
176
     0
 62
   256
176
     0
 40
1.0
176
     0
 90
        2
176
     0
  1
strokes_ogs.tif
176
     0
290
     0
176
     0
 40
1.0
176
     0
 40
1.0
176
     0
1001
ACAD
1000
AcDbSavedByObjectVersion
1070
     0
  0
VISUALSTYLE
  5
33
102
{ACAD_REACTORS
330
29
102
}
330
29
100
AcDbVisualStyle
  2
Realistic
 70
     8
177
     3
291
     0
 70
    58
 90
        2
176
     1
 90
        3
176
     1
 90
        0
176
     1
 90
        2
176
     1
 40
0.6
176
     1
 40
30.0
176
     1
 62
     7
420
 16777215
176
     1
 90
        0
176
     1
 90
        0
176
     1
 62
     7
176
     1
 62
   257
176
     1
 90
        1
176
     1
 90
        1
176
     1
 40
1.0
176
     1
 90
        8
176
     1
 62
   257
176
     1
 40
1.0
176
     1
 90
        1
176
     1
 90
        6
176
     1
 90
        2
176
     1
 62
     7
176
     1
 90
        3
176
     1
 90
        0
176
     1
 90
        0
176
     1
290
     0
176
     1
 90
       13
176
     1
 40
0.0
176
     1
 90
        0
176
     1
290
     0
176
     1
290
     1
176
     1
290
     1
176
     1
290
     0
176
     1
290
     0
176
     1
290
     0
176
     1
290
     0
176
     1
290
     0
176
     1
290
     0
176
     1
 90
       50
176
     1
 40
0.0
176
     1
 40
1.0
176
     1
 90
        0
176
     1
 62
    18
420
        0
176
     1
 90
       50
176
     1
 90
        3
176
     1
 62
     5
420
      255
176
     1
290
     0
176
     1
 90
       50
176
     1
 90
       50
176
     1
 90
       50
176
     1
290
     0
176
     1
 90
       50
176
     1
 62
   256
176
     0
 40
1.0
176
     0
 90
        2
176
     1
  1
strokes_ogs.tif
176
     1
290
     0
176
     1
 40
1.0
176
     1
 40
1.0
176
     1
1001
ACAD
1000
AcDbSavedByObjectVersion
1070
     0
  0
VISUALSTYLE
  5
3E
102
{ACAD_REACTORS
330
29
102
}
330
29
100
AcDbVisualStyle
  2
Shaded
 70
    27
177
     3
291
     0
 70
    58
 90
        2
176
     1
 90
        2
176
     1
 90
        1
176
     1
 90
        2
176
     1
 40
0.6
176
     1
 40
30.0
176
     1
 62
     7
420
 16777215
176
     1
 90
        0
176
     1
 90
        4
176
     1
 62
     7
176
     1
 62
   257
176
     1
 90
        1
176
     1
 90
        1
176
     1
 40
1.0
176
     1
 90
        8
176
     1
 62
   257
176
     1
 40
1.0
176
     1
 90
        1
176
     1
 90
        6
176
     1
 90
        2
176
     1
 62
     8
420
  7895160
176
     1
 90
        3
176
     1
 90
        0
176
     1
 90
        0
176
     1
290
     0
176
     1
 90
        5
176
     1
 40
0.0
176
     1
 90
        0
176
     1
290
     0
176
     1
290
     1
176
     1
290
     1
176
     1
290
     0
176
     1
290
     0
176
     1
290
     0
176
     1
290
     0
176
     1
290
     0
176
     1
290
     0
176
     1
 90
       50
176
     1
 40
0.0
176
     1
 40
1.0
176
     1
 90
        0
176
     1
 62
    18
420
        0
176
     1
 90
       50
176
     1
 90
        3
176
     1
 62
     5
420
      255
176
     1
290
     0
176
     1
 90
       50
176
     1
 90
       50
176
     1
 90
       50
176
     1
290
     0
176
     1
 90
       50
176
     1
 62
   256
176
     0
 40
1.0
176
     0
 90
        2
176
     1
  1
strokes_ogs.tif
176
     1
290
     0
176
     1
 40
1.0
176
     1
 40
1.0
176
     1
1001
ACAD
1000
AcDbSavedByObjectVersion
1070
     0
  0
VISUALSTYLE
  5
3D
102
{ACAD_REACTORS
330
29
102
}
330
29
100
AcDbVisualStyle
  2
Shaded with edges
 70
    26
177
     3
291
     0
 70
    58
 90
        2
176
     1
 90
        2
176
     1
 90
        1
176
     1
 90
        2
176
     1
 40
0.6
176
     1
 40
30.0
176
     1
 62
     7
420
 16777215
176
     1
 90
        1
176
     1
 90
        2
176
     1
 62
     7
176
     1
 62
   257
176
     1
 90
        2
176
     1
 90
        1
176
     1
 40
1.0
176
     1
 90
        8
176
     1
 62
   257
176
     1
 40
1.0
176
     1
 90
        1
176
     1
 90
        6
176
     1
 90
        2
176
     1
 62
     7
176
     1
 90
        3
176
     1
 90
        0
176
     1
 90
        0
176
     1
290
     0
176
     1
 90
        5
176
     1
 40
0.0
176
     1
 90
        0
176
     1
290
     0
176
     1
290
     1
176
     1
290
     1
176
     1
290
     0
176
     1
290
     0
176
     1
290
     0
176
     1
290
     0
176
     1
290
     0
176
     1
290
     0
176
     1
 90
       50
176
     1
 40
0.0
176
     1
 40
1.0
176
     1
 90
        0
176
     1
 62
    18
420
        0
176
     1
 90
       50
176
     1
 90
        3
176
     1
 62
     5
420
      255
176
     1
290
     0
176
     1
 90
       50
176
     1
 90
       50
176
     1
 90
       50
176
     1
290
     0
176
     1
 90
       50
176
     1
 62
   256
176
     0
 40
1.0
176
     0
 90
        2
176
     1
  1
strokes_ogs.tif
176
     1
290
     0
176
     1
 40
1.0
176
     1
 40
1.0
176
     1
1001
ACAD
1000
AcDbSavedByObjectVersion
1070
     0
  0
VISUALSTYLE
  5
3A
102
{ACAD_REACTORS
330
29
102
}
330
29
100
AcDbVisualStyle
  2
Shades of Gray
 70
    23
177
     3
291
     0
 70
    58
 90
        2
176
     1
 90
        2
176
     1
 90
        3
176
     1
 90
        0
176
     1
 40
0.6
176
     1
 40
30.0
176
     1
 62
     7
420
 16777215
176
     1
 90
        2
176
     1
 90
        2
176
     1
 62
     7
176
     1
 62
     7
176
     1
 90
        1
176
     1
 90
        1
176
     1
 40
40.0
176
     1
 90
        8
176
     1
 62
     7
176
     1
 40
1.0
176
     1
 90
        1
176
     1
 90
        6
176
     1
 90
        2
176
     1
 62
     7
176
     1
 90
        3
176
     1
 90
        0
176
     1
 90
        0
176
     1
290
     0
176
     1
 90
        1
176
     1
 40
0.0
176
     1
 90
        0
176
     1
290
     0
176
     1
290
     1
176
     1
290
     1
176
     1
290
     0
176
     1
290
     0
176
     1
290
     0
176
     1
290
     0
176
     1
290
     0
176
     1
290
     0
176
     1
 90
       50
176
     1
 40
0.0
176
     1
 40
1.0
176
     1
 90
        0
176
     1
 62
    18
420
        0
176
     1
 90
       50
176
     1
 90
        3
176
     1
 62
     5
420
      255
176
     1
290
     0
176
     1
 90
       50
176
     1
 90
       50
176
     1
 90
       50
176
     1
290
     0
176
     1
 90
       50
176
     1
 62
   256
176
     0
 40
1.0
176
     0
 90
        2
176
     1
  1
strokes_ogs.tif
176
     1
290
     0
176
     1
 40
1.0
176
     1
 40
1.0
176
     1
1001
ACAD
1000
AcDbSavedByObjectVersion
1070
     0
  0
VISUALSTYLE
  5
3B
102
{ACAD_REACTORS
330
29
102
}
330
29
100
AcDbVisualStyle
  2
Sketchy
 70
    24
177
     3
291
     0
 70
    58
 90
        1
176
     1
 90
        2
176
     1
 90
        2
176
     1
 90
        0
176
     1
 40
0.6
176
     1
 40
30.0
176
     1
 62
     7
420
 16777215
176
     1
 90
        2
176
     1
 90
        2
176
     1
 62
     7
176
     1
 62
     7
176
     1
 90
        1
176
     1
 90
        1
176
     1
 40
40.0
176
     1
 90
       11
176
     1
 62
     7
176
     1
 40
1.0
176
     1
 90
        1
176
     1
 90
        6
176
     1
 90
        2
176
     1
 62
     7
176
     1
 90
        6
176
     1
 90
        0
176
     1
 90
        0
176
     1
290
     0
176
     1
 90
        1
176
     1
 40
0.0
176
     1
 90
        0
176
     1
290
     0
176
     1
290
     1
176
     1
290
     1
176
     1
290
     0
176
     1
290
     0
176
     1
290
     0
176
     1
290
     0
176
     1
290
     0
176
     1
290
     0
176
     1
 90
       50
176
     1
 40
0.0
176
     1
 40
1.0
176
     1
 90
        0
176
     1
 62
    18
420
        0
176
     1
 90
       50
176
     1
 90
        3
176
     1
 62
     5
420
      255
176
     1
290
     0
176
     1
 90
       50
176
     1
 90
       50
176
     1
 90
       50
176
     1
290
     0
176
     1
 90
       50
176
     1
 62
   256
176
     0
 40
1.0
176
     0
 90
        2
176
     1
  1
strokes_ogs.tif
176
     1
290
     0
176
     1
 40
1.0
176
     1
 40
1.0
176
     1
1001
ACAD
1000
AcDbSavedByObjectVersion
1070
     0
  0
VISUALSTYLE
  5
36
102
{ACAD_REACTORS
330
29
102
}
330
29
100
AcDbVisualStyle
  2
Thicken
 70
    13
177
     3
291
     1
 70
    58
 90
        2
176
     1
 90
        2
176
     1
 90
        0
176
     1
 90
        0
176
     1
 40
0.6
176
     1
 40
30.0
176
     1
 62
     7
420
 16777215
176
     1
 90
        1
176
     1
 90
        4
176
     1
 62
     7
176
     1
 62
   257
176
     1
 90
        1
176
     1
 90
        1
176
     1
 40
1.0
176
     1
 90
       12
176
     1
 62
     7
176
     1
 40
1.0
176
     1
 90
        1
176
     1
 90
        6
176
     1
 90
        2
176
     1
 62
     7
176
     1
 90
        5
176
     1
 90
        0
176
     1
 90
        0
176
     1
290
     0
176
     1
 90
        1
176
     1
 40
0.0
176
     1
 90
        0
176
     1
290
     0
176
     1
290
     1
176
     1
290
     1
176
     1
290
     0
176
     1
290
     0
176
     1
290
     0
176
     1
290
     0
176
     1
290
     0
176
     1
290
     0
176
     1
 90
       50
176
     1
 40
0.0
176
     1
 40
1.0
176
     1
 90
        0
176
     1
 62
    18
420
        0
176
     1
 90
       50
176
     1
 90
        3
176
     1
 62
     5
420
      255
176
     1
290
     0
176
     1
 90
       50
176
     1
 90
       50
176
     1
 90
       50
176
     1
290
     0
176
     1
 90
       50
176
     1
 62
   256
176
     0
 40
1.0
176
     0
 90
        2
176
     1
  1
strokes_ogs.tif
176
     1
290
     0
176
     1
 40
1.0
176
     1
 40
1.0
176
     1
1001
ACAD
1000
AcDbSavedByObjectVersion
1070
     0
  0
VISUALSTYLE
  5
30
102
{ACAD_REACTORS
330
29
102
}
330
29
100
AcDbVisualStyle
  2
Wireframe
 70
     5
177
     3
291
     0
 70
    58
 90
        0
176
     1
 90
        2
176
     1
 90
        0
176
     1
 90
        0
176
     1
 40
0.6
176
     1
 40
30.0
176
     1
 62
     7
420
 16777215
176
     1
 90
        1
176
     1
 90
        4
176
     1
 62
     7
176
     1
 62
   257
176
     1
 90
        1
176
     1
 90
        1
176
     1
 40
1.0
176
     1
 90
        0
176
     1
 62
   257
176
     1
 40
1.0
176
     1
 90
        1
176
     1
 90
        6
176
     1
 90
        2
176
     1
 62
     7
176
     1
 90
        3
176
     1
 90
        0
176
     1
 90
        0
176
     1
290
     0
176
     1
 90
        1
176
     1
 40
0.0
176
     1
 90
        0
176
     1
290
     0
176
     1
290
     1
176
     1
290
     1
176
     1
290
     0
176
     1
290
     0
176
     1
290
     0
176
     1
290
     0
176
     1
290
     0
176
     1
290
     0
176
     1
 90
       50
176
     1
 40
0.0
176
     1
 40
1.0
176
     1
 90
        0
176
     1
 62
    18
420
        0
176
     1
 90
       50
176
     1
 90
        3
176
     1
 62
     5
420
      255
176
     1
290
     0
176
     1
 90
       50
176
     1
 90
       50
176
     1
 90
       50
176
     1
290
     0
176
     1
 90
       50
176
     1
 62
   256
176
     0
 40
1.0
176
     0
 90
        2
176
     1
  1
strokes_ogs.tif
176
     1
290
     0
176
     1
 40
1.0
176
     1
 40
1.0
176
     1
1001
ACAD
1000
AcDbSavedByObjectVersion
1070
     0
  0
VISUALSTYLE
  5
3C
102
{ACAD_REACTORS
330
29
102
}
330
29
100
AcDbVisualStyle
  2
X-Ray
 70
    25
177
     3
291
     0
 70
    58
 90
        2
176
     1
 90
        2
176
     1
 90
        1
176
     1
 90
        1
176
     1
 40
0.5
176
     1
 40
30.0
176
     1
 62
     7
420
 16777215
176
     1
 90
        1
176
     1
 90
        0
176
     1
 62
     7
176
     1
 62
   257
176
     1
 90
        1
176
     1
 90
        1
176
     1
 40
1.0
176
     1
 90
        8
176
     1
 62
     7
176
     1
 40
1.0
176
     1
 90
        1
176
     1
 90
        6
176
     1
 90
        2
176
     1
 62
     7
176
     1
 90
        3
176
     1
 90
        0
176
     1
 90
        0
176
     1
290
     0
176
     1
 90
       13
176
     1
 40
0.0
176
     1
 90
        0
176
     1
290
     0
176
     1
290
     1
176
     1
290
     1
176
     1
290
     0
176
     1
290
     0
176
     1
290
     0
176
     1
290
     0
176
     1
290
     0
176
     1
290
     0
176
     1
 90
       50
176
     1
 40
0.0
176
     1
 40
1.0
176
     1
 90
        0
176
     1
 62
    18
420
        0
176
     1
 90
       50
176
     1
 90
        3
176
     1
 62
     5
420
      255
176
     1
290
     0
176
     1
 90
       50
176
     1
 90
       50
176
     1
 90
       50
176
     1
290
     0
176
     1
 90
       50
176
     1
 62
   256
176
     0
 40
1.0
176
     0
 90
        2
176
     1
  1
strokes_ogs.tif
176
     1
290
     0
176
     1
 40
1.0
176
     1
 40
1.0
176
     1
1001
ACAD
1000
AcDbSavedByObjectVersion
1070
     0
  0
DICTIONARYVAR
  5
8A
102
{ACAD_REACTORS
330
85
102
}
330
85
100
DictionaryVariables
280
     0
  1
1:1
  0
DICTIONARYVAR
  5
87
102
{ACAD_REACTORS
330
85
102
}
330
85
100
DictionaryVariables
280
     0
  1
STANDARD
  0
DICTIONARYVAR
  5
86
102
{ACAD_REACTORS
330
85
102
}
330
85
100
DictionaryVariables
280
     0
  1
STANDARD
  0
DICTIONARYVAR
  5
88
102
{ACAD_REACTORS
330
85
102
}
330
85
100
DictionaryVariables
280
     0
  1
Imperial24
  0
DICTIONARYVAR
  5
89
102
{ACAD_REACTORS
330
85
102
}
330
85
100
DictionaryVariables
280
     0
  1
Imperial24
  0
DICTIONARY
  5
90
330
6B
100
AcDbDictionary
280
     1
281
     1
  3
ACAD_XREC_ROUNDTRIP
360
91
  0
DICTIONARY
  5
1A
330
19
100
AcDbDictionary
280
     1
281
     1
  3
BUMPTILE
360
1C
  3
DIFFUSETILE
360
1B
  3
OPACITYTILE
360
1F
  3
REFLECTIONTILE
360
1E
  3
REFRACTIONTILE
360
20
  3
SPECULARTILE
360
1D
  0
DICTIONARY
  5
12
330
11
100
AcDbDictionary
280
     1
281
     1
  3
BUMPTILE
360
14
  3
DIFFUSETILE
360
13
  3
OPACITYTILE
360
17
  3
REFLECTIONTILE
360
16
  3
REFRACTIONTILE
360
18
  3
SPECULARTILE
360
15
  0
DICTIONARY
  5
22
330
21
100
AcDbDictionary
280
     1
281
     1
  3
BUMPTILE
360
24
  3
DIFFUSETILE
360
23
  3
OPACITYTILE
360
27
  3
REFLECTIONTILE
360
26
  3
REFRACTIONTILE
360
28
  3
SPECULARTILE
360
25
  0
DICTIONARY
  5
8E
330
69
100
AcDbDictionary
280
     1
281
     1
  3
ACAD_XREC_ROUNDTRIP
360
8F
  0
DICTIONARY
  5
8B
330
65
100
AcDbDictionary
280
     1
281
     1
  3
ACAD_ROUNDTRIP_2008_TABLESTYLE_CELLSTYLEMAP
360
8C
  0
XRECORD
  5
91
102
{ACAD_REACTORS
330
90
102
}
330
90
100
AcDbXrecord
280
     1
102
DISPLAYNAME
  1
Imperial24
102
FLAGS
 90
        0
  0
XRECORD
  5
1C
102
{ACAD_REACTORS
330
1A
102
}
330
1A
100
AcDbXrecord
280
     1
270
     1
271
     1
  0
XRECORD
  5
1B
102
{ACAD_REACTORS
330
1A
102
}
330
1A
100
AcDbXrecord
280
     1
270
     1
271
     1
  0
XRECORD
  5
1F
102
{ACAD_REACTORS
330
1A
102
}
330
1A
100
AcDbXrecord
280
     1
270
     1
271
     1
  0
XRECORD
  5
1E
102
{ACAD_REACTORS
330
1A
102
}
330
1A
100
AcDbXrecord
280
     1
270
     1
271
     1
  0
XRECORD
  5
20
102
{ACAD_REACTORS
330
1A
102
}
330
1A
100
AcDbXrecord
280
     1
270
     1
271
     1
  0
XRECORD
  5
1D
102
{ACAD_REACTORS
330
1A
102
}
330
1A
100
AcDbXrecord
280
     1
270
     1
271
     1
  0
XRECORD
  5
14
102
{ACAD_REACTORS
330
12
102
}
330
12
100
AcDbXrecord
280
     1
270
     1
271
     1
  0
XRECORD
  5
13
102
{ACAD_REACTORS
330
12
102
}
330
12
100
AcDbXrecord
280
     1
270
     1
271
     1
  0
XRECORD
  5
17
102
{ACAD_REACTORS
330
12
102
}
330
12
100
AcDbXrecord
280
     1
270
     1
271
     1
  0
XRECORD
  5
16
102
{ACAD_REACTORS
330
12
102
}
330
12
100
AcDbXrecord
280
     1
270
     1
271
     1
  0
XRECORD
  5
18
102
{ACAD_REACTORS
330
12
102
}
330
12
100
AcDbXrecord
280
     1
270
     1
271
     1
  0
XRECORD
  5
15
102
{ACAD_REACTORS
330
12
102
}
330
12
100
AcDbXrecord
280
     1
270
     1
271
     1
  0
XRECORD
  5
24
102
{ACAD_REACTORS
330
22
102
}
330
22
100
AcDbXrecord
280
     1
270
     1
271
     1
  0
XRECORD
  5
23
102
{ACAD_REACTORS
330
22
102
}
330
22
100
AcDbXrecord
280
     1
270
     1
271
     1
  0
XRECORD
  5
27
102
{ACAD_REACTORS
330
22
102
}
330
22
100
AcDbXrecord
280
     1
270
     1
271
     1
  0
XRECORD
  5
26
102
{ACAD_REACTORS
330
22
102
}
330
22
100
AcDbXrecord
280
     1
270
     1
271
     1
  0
XRECORD
  5
28
102
{ACAD_REACTORS
330
22
102
}
330
22
100
AcDbXrecord
280
     1
270
     1
271
     1
  0
XRECORD
  5
25
102
{ACAD_REACTORS
330
22
102
}
330
22
100
AcDbXrecord
280
     1
270
     1
271
     1
  0
XRECORD
  5
8F
102
{ACAD_REACTORS
330
8E
102
}
330
8E
100
AcDbXrecord
280
     1
102
DISPLAYNAME
  1
Imperial24
102
FLAGS
 90
        0
  0
CELLSTYLEMAP
  5
8C
102
{ACAD_REACTORS
330
8B
102
}
330
8B
100
AcDbCellStyleMap
 90
        3
300
CELLSTYLE
  1
TABLEFORMAT_BEGIN
 90
        5
170
     1
 91
        0
 92
    32768
 62
   257
 93
        1
300
CONTENTFORMAT
  1
CONTENTFORMAT_BEGIN
 90
        0
 91
        0
 92
      512
 93
        0
300

 40
0.0
140
1.0
 94
        5
 62
     0
340
55
144
0.25
309
CONTENTFORMAT_END
171
     0
 94
        0
309
TABLEFORMAT_END
  1
CELLSTYLE_BEGIN
 90
        1
 91
        1
300
_TITLE
309
CELLSTYLE_END
300
CELLSTYLE
  1
TABLEFORMAT_BEGIN
 90
        5
170
     1
 91
        0
 92
        0
 62
   257
 93
        1
300
CONTENTFORMAT
  1
CONTENTFORMAT_BEGIN
 90
        0
 91
        0
 92
      512
 93
        0
300

 40
0.0
140
1.0
 94
        5
 62
     0
340
55
144
0.18
309
CONTENTFORMAT_END
171
     0
 94
        0
309
TABLEFORMAT_END
  1
CELLSTYLE_BEGIN
 90
        2
 91
        1
300
_HEADER
309
CELLSTYLE_END
300
CELLSTYLE
  1
TABLEFORMAT_BEGIN
 90
        5
170
     1
 91
        0
 92
        0
 62
   257
 93
        1
300
CONTENTFORMAT
  1
CONTENTFORMAT_BEGIN
 90
        0
 91
        0
 92
      512
 93
        0
300

 40
0.0
140
1.0
 94
        2
 62
     0
340
55
144
0.18
309
CONTENTFORMAT_END
171
     0
 94
        0
309
TABLEFORMAT_END
  1
CELLSTYLE_BEGIN
 90
        3
 91
        2
300
_DATA
309
CELLSTYLE_END
  0
ENDSEC
  0
EOF
