<?xml version="1.0" encoding="utf-8"?>
<!-- Generator: Adobe Illustrator 25.4.8, SVG Export Plug-In . SVG Version: 6.00 Build 0)  -->
<svg version="1.1" id="Слой_1" xmlns="http://www.w3.org/2000/svg" xmlns:xlink="http://www.w3.org/1999/xlink" x="0px" y="0px"
	 viewBox="0 0 864 864" style="enable-background:new 0 0 864 864;" xml:space="preserve">
<g>
	<path d="M0.06,427.55c0.54-1.33,1.08-2.67,1.63-3.99c3.06-7.28,7.99-12.24,16.24-13c16.1-1.49,32.25-1.52,48.4-1.47
		c26.72,0.08,53.44-0.8,80.14,0.82c3.07,0.19,6.15,0.51,9.17,1.1c11.26,2.18,18.99,15.3,15.61,26.34
		c-3.49,11.43-8.94,15.53-21.45,16.66c-12.31,1.12-24.64,1-36.97,1.01c-25.55,0.03-51.09-0.12-76.64-0.25
		c-6.02-0.03-12-0.68-17.99-1.29c-9.45-0.97-14.72-6.42-17.29-15.11c-0.21-0.69-0.56-1.34-0.85-2.01
		C0.06,433.43,0.06,430.49,0.06,427.55z"/>
	<path d="M221.36,431.32c-1.74-111.59,91.67-210.23,210.13-210.45c116.78-0.22,212.01,95.97,211.39,212.54
		c-0.58,109.77-90,209.15-211.04,209.57C315.26,643.39,218.78,545.23,221.36,431.32z M596.09,430.06
		c0.91-16.7-1.31-34.83-7.91-52.51c-25.63-68.73-92.15-121.47-183.26-108.63c-32,4.51-60.24,18.52-83.91,40.69
		c-32,29.96-51.66,66.02-53.18,110.8c-0.98,28.64,1.12,56.47,14.83,82.58c29.14,55.49,73.26,88.65,136.84,93.24
		c17.77,1.28,35.62,0.84,53-3.52C545.28,574.43,600.72,503.02,596.09,430.06z"/>
	<path d="M254.13,631.56c-0.03,7.71-3.65,13.71-8.76,19.1c-18.78,19.83-38.06,39.17-57.55,58.29c-8.17,8.02-16.53,15.85-24.92,23.64
		c-3,2.79-6.22,5.39-9.59,7.73c-8.31,5.78-15.27,5.64-23.58-0.17c-7.7-5.38-11.98-15.64-9.72-23.86c1.16-4.21,4.17-7.39,7-10.54
		c21.01-23.38,43.47-45.35,65.84-67.41c8.15-8.04,16.28-16.15,24.98-23.56c7.4-6.29,16.31-6.35,24.88-2.47
		C250.75,615.94,254.1,622.91,254.13,631.56z"/>
	<path d="M609.98,231.06c-0.16-5.28,1.79-10.37,5.93-14.85c23.72-25.66,48.83-49.94,74.07-74.08c6.15-5.88,12.7-11.35,18.72-17.36
		c6.27-6.25,13.32-6.13,20.68-3.13c8.58,3.5,13.08,10.57,15.17,19.26c0.83,3.47-0.71,6.64-2.41,9.6
		c-3.25,5.63-7.52,10.5-11.93,15.21c-25.97,27.77-53.03,54.45-80.61,80.62c-5.09,4.83-10.97,7.77-18.08,7.93
		C618.72,254.55,609.92,245.36,609.98,231.06z"/>
	<path d="M609.91,631.69c-0.03-12.73,9.11-21.7,20.43-21.72c7.2-0.01,13.26,2.03,18.68,7.22c28.98,27.73,57.28,56.14,84.8,85.32
		c2.31,2.45,4.3,5.21,6.54,7.73c7.01,7.91,3.53,20.69-2.91,27.21c-7.09,7.18-19.89,9.24-27.26,3.2
		c-11.62-9.52-22.13-20.19-32.82-30.67c-19.93-19.54-39.64-39.3-58.98-59.43C612.76,644.68,609.32,638.39,609.91,631.69z"/>
	<path d="M230.87,254.12c-7,0.41-11.88-3.39-16.6-7.85c-25.62-24.21-50.28-49.39-74.85-74.66c-5.32-5.47-10.46-11.11-15.33-17
		c-5.85-7.06-5.57-14.55-1.73-22.18c4.51-8.94,15.06-14.23,23.98-12.53c3.5,0.67,6.13,2.76,8.72,4.89
		c9.66,7.93,18.52,16.72,27.43,25.47c22.11,21.71,44.31,43.32,65.35,66.09c6.66,7.22,8.23,17.67,3.82,26.55
		C247.42,251.43,239.7,253.96,230.87,254.12z"/>
	<path d="M408.97,84.25c0.25-19.95-0.57-39.93,0.93-59.86c0.14-1.9,0.49-3.78,0.63-5.68c0.68-9.43,6.09-14.85,14.75-17.58
		c8.88-2.8,16.59-0.22,23.2,5.66c4.75,4.22,5.03,10.48,5.42,16.29c0.6,8.78,0.93,17.59,0.97,26.39c0.11,28.03,0.07,56.07,0,84.1
		c-0.02,5.57-0.34,11.15-0.74,16.7c-0.75,10.64-7.56,18.75-17.81,21.46c-11.23,2.97-24.99-7.12-26.37-19.27
		c-1.11-9.8-0.84-19.64-0.97-29.47c-0.01-0.88-0.01-1.76-0.01-2.64C408.97,108.32,408.97,96.28,408.97,84.25z"/>
	<path d="M455.08,778.97c-0.35,20.68,0.42,40.22-1.01,59.72c-0.18,2.48-0.59,4.95-0.81,7.43c-0.85,9.51-6.56,14.74-15.32,17
		c-9.19,2.37-17.26-0.09-23.6-7.02c-3.73-4.09-3.86-9.71-4.36-14.96c-0.98-10.39-1-20.82-0.99-31.24
		c0.03-26.87,0.04-53.74,0.16-80.6c0.03-6.9,0.47-13.79,1.69-20.6c2.2-12.24,16.69-20.19,28.13-15.27
		c9.01,3.88,14.62,10.25,15.25,20.66C455.57,736.09,454.54,758.12,455.08,778.97z"/>
	<path d="M776.01,408.95c21.27,0.28,41.53-0.43,61.76,0.93c2.48,0.17,4.95,0.58,7.44,0.75c9.42,0.63,15.06,5.94,17.64,14.64
		c2.69,9.1,0.4,17.23-6.18,23.87c-4.06,4.09-9.8,4.3-15.2,4.84c-13.17,1.32-26.39,1.04-39.59,1.08
		c-25.68,0.07-51.36-0.08-77.04-0.21c-4.1-0.02-8.19-0.51-12.3-0.7c-6.83-0.32-11.92-3.67-15.84-9.04c-4.7-6.45-6.77-13.33-3-20.99
		c3.93-7.98,9.66-13.51,19.09-14.21C734.18,408.33,755.61,409.39,776.01,408.95z"/>
</g>
</svg>
