  0
SECTION
  2
HEADER
  9
$ACADVER
  1
AC1027
  9
$ACADMAINTVER
 70
   125
  9
$DWGCODEPAGE
  3
ANSI_1251
  9
$REQUIREDVERSIONS
160
                 0
  9
$INSBASE
 10
0.0
 20
0.0
 30
0.0
  9
$EXTMIN
 10
1.000000000000000E+20
 20
1.000000000000000E+20
 30
1.000000000000000E+20
  9
$EXTMAX
 10
-1.000000000000000E+20
 20
-1.000000000000000E+20
 30
-1.000000000000000E+20
  9
$LIMMIN
 10
0.0
 20
0.0
  9
$LIMMAX
 10
12.0
 20
9.0
  9
$ORTHOMODE
 70
     0
  9
$REGENMODE
 70
     1
  9
$FILLMODE
 70
     1
  9
$QTEXTMODE
 70
     0
  9
$MIRRTEXT
 70
     0
  9
$LTSCALE
 40
1.0
  9
$ATTMODE
 70
     1
  9
$TEXTSIZE
 40
0.2
  9
$TRACEWID
 40
0.05
  9
$TEXTSTYLE
  7
Standard
  9
$CLAYER
  8
0
  9
$CELTYPE
  6
ByLayer
  9
$CECOLOR
 62
   256
  9
$CELTSCALE
 40
1.0
  9
$DISPSILH
 70
     0
  9
$DIMSCALE
 40
1.0
  9
$DIMASZ
 40
0.18
  9
$DIMEXO
 40
0.0625
  9
$DIMDLI
 40
0.38
  9
$DIMRND
 40
0.0
  9
$DIMDLE
 40
0.0
  9
$DIMEXE
 40
0.18
  9
$DIMTP
 40
0.0
  9
$DIMTM
 40
0.0
  9
$DIMTXT
 40
0.18
  9
$DIMCEN
 40
0.09
  9
$DIMTSZ
 40
0.0
  9
$DIMTOL
 70
     0
  9
$DIMLIM
 70
     0
  9
$DIMTIH
 70
     1
  9
$DIMTOH
 70
     1
  9
$DIMSE1
 70
     0
  9
$DIMSE2
 70
     0
  9
$DIMTAD
 70
     0
  9
$DIMZIN
 70
     0
  9
$DIMBLK
  1

  9
$DIMASO
 70
     1
  9
$DIMSHO
 70
     1
  9
$DIMPOST
  1

  9
$DIMAPOST
  1

  9
$DIMALT
 70
     0
  9
$DIMALTD
 70
     2
  9
$DIMALTF
 40
25.4
  9
$DIMLFAC
 40
1.0
  9
$DIMTOFL
 70
     0
  9
$DIMTVP
 40
0.0
  9
$DIMTIX
 70
     0
  9
$DIMSOXD
 70
     0
  9
$DIMSAH
 70
     0
  9
$DIMBLK1
  1

  9
$DIMBLK2
  1

  9
$DIMSTYLE
  2
Standard
  9
$DIMCLRD
 70
     0
  9
$DIMCLRE
 70
     0
  9
$DIMCLRT
 70
     0
  9
$DIMTFAC
 40
1.0
  9
$DIMGAP
 40
0.09
  9
$DIMJUST
 70
     0
  9
$DIMSD1
 70
     0
  9
$DIMSD2
 70
     0
  9
$DIMTOLJ
 70
     1
  9
$DIMTZIN
 70
     0
  9
$DIMALTZ
 70
     0
  9
$DIMALTTZ
 70
     0
  9
$DIMUPT
 70
     0
  9
$DIMDEC
 70
     4
  9
$DIMTDEC
 70
     4
  9
$DIMALTU
 70
     2
  9
$DIMALTTD
 70
     2
  9
$DIMTXSTY
  7
Standard
  9
$DIMAUNIT
 70
     0
  9
$DIMADEC
 70
     0
  9
$DIMALTRND
 40
0.0
  9
$DIMAZIN
 70
     0
  9
$DIMDSEP
 70
    46
  9
$DIMATFIT
 70
     3
  9
$DIMFRAC
 70
     0
  9
$DIMLDRBLK
  1

  9
$DIMLUNIT
 70
     2
  9
$DIMLWD
 70
    -2
  9
$DIMLWE
 70
    -2
  9
$DIMTMOVE
 70
     0
  9
$DIMFXL
 40
1.0
  9
$DIMFXLON
 70
     0
  9
$DIMJOGANG
 40
0.7853981633974483
  9
$DIMTFILL
 70
     0
  9
$DIMTFILLCLR
 70
     0
  9
$DIMARCSYM
 70
     0
  9
$DIMLTYPE
  6

  9
$DIMLTEX1
  6

  9
$DIMLTEX2
  6

  9
$DIMTXTDIRECTION
 70
     0
  9
$LUNITS
 70
     2
  9
$LUPREC
 70
     4
  9
$SKETCHINC
 40
0.1
  9
$FILLETRAD
 40
0.0
  9
$AUNITS
 70
     0
  9
$AUPREC
 70
     0
  9
$MENU
  1
.
  9
$ELEVATION
 40
0.0
  9
$PELEVATION
 40
0.0
  9
$THICKNESS
 40
0.0
  9
$LIMCHECK
 70
     0
  9
$CHAMFERA
 40
0.0
  9
$CHAMFERB
 40
0.0
  9
$CHAMFERC
 40
0.0
  9
$CHAMFERD
 40
0.0
  9
$SKPOLY
 70
     0
  9
$TDCREATE
 40
2459954.680150463
  9
$TDUCREATE
 40
2459954.596817130
  9
$TDUPDATE
 40
2459954.680150463
  9
$TDUUPDATE
 40
2459954.596817130
  9
$TDINDWG
 40
0.0000000000
  9
$TDUSRTIMER
 40
0.0000000000
  9
$USRTIMER
 70
     1
  9
$ANGBASE
 50
0.0
  9
$ANGDIR
 70
     0
  9
$PDMODE
 70
     0
  9
$PDSIZE
 40
0.0
  9
$PLINEWID
 40
0.0
  9
$SPLFRAME
 70
     0
  9
$SPLINETYPE
 70
     6
  9
$SPLINESEGS
 70
     8
  9
$HANDSEED
  5
88
  9
$SURFTAB1
 70
     6
  9
$SURFTAB2
 70
     6
  9
$SURFTYPE
 70
     6
  9
$SURFU
 70
     6
  9
$SURFV
 70
     6
  9
$UCSBASE
  2

  9
$UCSNAME
  2

  9
$UCSORG
 10
0.0
 20
0.0
 30
0.0
  9
$UCSXDIR
 10
1.0
 20
0.0
 30
0.0
  9
$UCSYDIR
 10
0.0
 20
1.0
 30
0.0
  9
$UCSORTHOREF
  2

  9
$UCSORTHOVIEW
 70
     0
  9
$UCSORGTOP
 10
0.0
 20
0.0
 30
0.0
  9
$UCSORGBOTTOM
 10
0.0
 20
0.0
 30
0.0
  9
$UCSORGLEFT
 10
0.0
 20
0.0
 30
0.0
  9
$UCSORGRIGHT
 10
0.0
 20
0.0
 30
0.0
  9
$UCSORGFRONT
 10
0.0
 20
0.0
 30
0.0
  9
$UCSORGBACK
 10
0.0
 20
0.0
 30
0.0
  9
$PUCSBASE
  2

  9
$PUCSNAME
  2

  9
$PUCSORG
 10
0.0
 20
0.0
 30
0.0
  9
$PUCSXDIR
 10
1.0
 20
0.0
 30
0.0
  9
$PUCSYDIR
 10
0.0
 20
1.0
 30
0.0
  9
$PUCSORTHOREF
  2

  9
$PUCSORTHOVIEW
 70
     0
  9
$PUCSORGTOP
 10
0.0
 20
0.0
 30
0.0
  9
$PUCSORGBOTTOM
 10
0.0
 20
0.0
 30
0.0
  9
$PUCSORGLEFT
 10
0.0
 20
0.0
 30
0.0
  9
$PUCSORGRIGHT
 10
0.0
 20
0.0
 30
0.0
  9
$PUCSORGFRONT
 10
0.0
 20
0.0
 30
0.0
  9
$PUCSORGBACK
 10
0.0
 20
0.0
 30
0.0
  9
$USERI1
 70
     0
  9
$USERI2
 70
     0
  9
$USERI3
 70
     0
  9
$USERI4
 70
     0
  9
$USERI5
 70
     0
  9
$USERR1
 40
0.0
  9
$USERR2
 40
0.0
  9
$USERR3
 40
0.0
  9
$USERR4
 40
0.0
  9
$USERR5
 40
0.0
  9
$WORLDVIEW
 70
     1
  9
$SHADEDGE
 70
     3
  9
$SHADEDIF
 70
    70
  9
$TILEMODE
 70
     1
  9
$MAXACTVP
 70
    64
  9
$PINSBASE
 10
0.0
 20
0.0
 30
0.0
  9
$PLIMCHECK
 70
     0
  9
$PEXTMIN
 10
1.000000000000000E+20
 20
1.000000000000000E+20
 30
1.000000000000000E+20
  9
$PEXTMAX
 10
-1.000000000000000E+20
 20
-1.000000000000000E+20
 30
-1.000000000000000E+20
  9
$PLIMMIN
 10
0.0
 20
0.0
  9
$PLIMMAX
 10
12.0
 20
9.0
  9
$UNITMODE
 70
     0
  9
$VISRETAIN
 70
     1
  9
$PLINEGEN
 70
     0
  9
$PSLTSCALE
 70
     1
  9
$TREEDEPTH
 70
  3020
  9
$CMLSTYLE
  2
Standard
  9
$CMLJUST
 70
     0
  9
$CMLSCALE
 40
1.0
  9
$PROXYGRAPHICS
 70
     1
  9
$MEASUREMENT
 70
     0
  9
$CELWEIGHT
370
    -1
  9
$ENDCAPS
280
     0
  9
$JOINSTYLE
280
     0
  9
$LWDISPLAY
290
     1
  9
$INSUNITS
 70
     1
  9
$HYPERLINKBASE
  1

  9
$STYLESHEET
  1

  9
$XEDIT
290
     1
  9
$CEPSNTYPE
380
     0
  9
$PSTYLEMODE
290
     1
  9
$FINGERPRINTGUID
  2
{59DF97CD-DDC2-234A-8712-C3251C17E8FE}
  9
$VERSIONGUID
  2
{C6B9F4FD-BB82-D54E-937B-9960B4784096}
  9
$EXTNAMES
290
     1
  9
$PSVPSCALE
 40
0.0
  9
$OLESTARTUP
290
     0
  9
$SORTENTS
280
   127
  9
$INDEXCTL
280
     0
  9
$HIDETEXT
280
     1
  9
$XCLIPFRAME
280
     2
  9
$HALOGAP
280
     0
  9
$OBSCOLOR
 70
   257
  9
$OBSLTYPE
280
     0
  9
$INTERSECTIONDISPLAY
280
     0
  9
$INTERSECTIONCOLOR
 70
   257
  9
$DIMASSOC
280
     2
  9
$PROJECTNAME
  1

  9
$CAMERADISPLAY
290
     0
  9
$LENSLENGTH
 40
50.0
  9
$CAMERAHEIGHT
 40
0.0
  9
$STEPSPERSEC
 40
2.0
  9
$STEPSIZE
 40
6.0
  9
$3DDWFPREC
 40
2.0
  9
$PSOLWIDTH
 40
0.25
  9
$PSOLHEIGHT
 40
4.0
  9
$LOFTANG1
 40
1.570796326794896
  9
$LOFTANG2
 40
1.570796326794896
  9
$LOFTMAG1
 40
0.0
  9
$LOFTMAG2
 40
0.0
  9
$LOFTPARAM
 70
     7
  9
$LOFTNORMALS
280
     1
  9
$LATITUDE
 40
37.795
  9
$LONGITUDE
 40
-122.394
  9
$NORTHDIRECTION
 40
0.0
  9
$TIMEZONE
 70
 -8000
  9
$LIGHTGLYPHDISPLAY
280
     1
  9
$TILEMODELIGHTSYNCH
280
     1
  9
$CMATERIAL
347
11
  9
$SOLIDHIST
280
     0
  9
$SHOWHIST
280
     1
  9
$DWFFRAME
280
     2
  9
$DGNFRAME
280
     0
  9
$REALWORLDSCALE
290
     1
  9
$INTERFERECOLOR
 62
     1
  9
$INTERFEREOBJVS
345
33
  9
$INTERFEREVPVS
346
30
  9
$CSHADOW
280
     0
  9
$SHADOWPLANELOCATION
 40
0.0
  0
ENDSEC
  0
SECTION
  2
CLASSES
  0
CLASS
  1
ACDBDICTIONARYWDFLT
  2
AcDbDictionaryWithDefault
  3
ObjectDBX Classes
 90
        0
 91
        1
280
     0
281
     0
  0
CLASS
  1
MATERIAL
  2
AcDbMaterial
  3
ObjectDBX Classes
 90
     1153
 91
        3
280
     0
281
     0
  0
CLASS
  1
VISUALSTYLE
  2
AcDbVisualStyle
  3
ObjectDBX Classes
 90
     4095
 91
       24
280
     0
281
     0
  0
CLASS
  1
SCALE
  2
AcDbScale
  3
ObjectDBX Classes
 90
     1153
 91
       17
280
     0
281
     0
  0
CLASS
  1
TABLESTYLE
  2
AcDbTableStyle
  3
ObjectDBX Classes
 90
     4095
 91
        1
280
     0
281
     0
  0
CLASS
  1
MLEADERSTYLE
  2
AcDbMLeaderStyle
  3
ACDB_MLEADERSTYLE_CLASS
 90
     4095
 91
        1
280
     0
281
     0
  0
CLASS
  1
ACDBSECTIONVIEWSTYLE
  2
AcDbSectionViewStyle
  3
ObjectDBX Classes
 90
     1025
 91
        1
280
     0
281
     0
  0
CLASS
  1
ACDBDETAILVIEWSTYLE
  2
AcDbDetailViewStyle
  3
ObjectDBX Classes
 90
     1025
 91
        1
280
     0
281
     0
  0
CLASS
  1
DICTIONARYVAR
  2
AcDbDictionaryVar
  3
ObjectDBX Classes
 90
        0
 91
        5
280
     0
281
     0
  0
CLASS
  1
CELLSTYLEMAP
  2
AcDbCellStyleMap
  3
ObjectDBX Classes
 90
     1152
 91
        1
280
     0
281
     0
  0
ENDSEC
  0
SECTION
  2
TABLES
  0
TABLE
  2
VPORT
  5
8
330
0
100
AcDbSymbolTable
 70
     1
1001
ACAD
1000
DbSaveVer
1071
      278
  0
VPORT
  5
57
330
8
100
AcDbSymbolTableRecord
100
AcDbViewportTableRecord
  2
*Active
 70
     0
 10
0.0
 20
0.0
 11
1.0
 21
1.0
 12
0.0
 22
0.0
 13
0.0
 23
0.0
 14
1.0
 24
1.0
 15
0.0
 25
0.0
 16
0.0
 26
0.0
 36
1.0
 17
6.0
 27
-20.77777777777777
 37
0.0
 40
12.24
 41
1.0
 42
50.0
 43
0.0
 44
0.0
 50
0.0
 51
0.0
 71
     0
 72
   100
 73
     1
 74
     1
 75
     0
 76
     0
 77
     0
 78
     0
281
     0
 65
     1
110
0.0
120
0.0
130
0.0
111
1.0
121
0.0
131
0.0
112
0.0
122
1.0
132
0.0
 79
     0
146
0.0
 60
     3
 61
     5
292
     1
282
     1
141
0.0
142
0.0
 63
   250
421
  3355443
  0
ENDTAB
  0
TABLE
  2
LTYPE
  5
5
330
0
100
AcDbSymbolTable
 70
     1
  0
LTYPE
  5
5B
330
5
100
AcDbSymbolTableRecord
100
AcDbLinetypeTableRecord
  2
ByBlock
 70
     0
  3

 72
    65
 73
     0
 40
0.0
  0
LTYPE
  5
5C
330
5
100
AcDbSymbolTableRecord
100
AcDbLinetypeTableRecord
  2
ByLayer
 70
     0
  3

 72
    65
 73
     0
 40
0.0
  0
LTYPE
  5
5D
330
5
100
AcDbSymbolTableRecord
100
AcDbLinetypeTableRecord
  2
Continuous
 70
     0
  3
Solid line
 72
    65
 73
     0
 40
0.0
  0
ENDTAB
  0
TABLE
  2
LAYER
  5
2
330
0
100
AcDbSymbolTable
 70
     2
  0
LAYER
  5
54
330
2
100
AcDbSymbolTableRecord
100
AcDbLayerTableRecord
  2
0
 70
     0
 62
     7
  6
Continuous
370
    -3
390
F
347
21
348
0
  0
LAYER
  5
78
330
2
100
AcDbSymbolTableRecord
100
AcDbLayerTableRecord
  2
Слой 1
 70
     0
 62
     7
  6
Continuous
370
     0
390
F
347
21
348
0
  0
ENDTAB
  0
TABLE
  2
STYLE
  5
3
330
0
100
AcDbSymbolTable
 70
     2
  0
STYLE
  5
55
330
3
100
AcDbSymbolTableRecord
100
AcDbTextStyleTableRecord
  2
Standard
 70
     0
 40
0.0
 41
1.0
 50
0.0
 71
     0
 42
0.2
  3
txt
  4

  0
STYLE
  5
5A
330
3
100
AcDbSymbolTableRecord
100
AcDbTextStyleTableRecord
  2
Annotative
 70
     0
 40
0.0
 41
1.0
 50
0.0
 71
     0
 42
0.2
  3
txt
  4

1001
AcadAnnotative
1000
AnnotativeData
1002
{
1070
     1
1070
     1
1002
}
  0
ENDTAB
  0
TABLE
  2
VIEW
  5
6
330
0
100
AcDbSymbolTable
 70
     0
  0
ENDTAB
  0
TABLE
  2
UCS
  5
7
330
0
100
AcDbSymbolTable
 70
     0
  0
ENDTAB
  0
TABLE
  2
APPID
  5
9
330
0
100
AcDbSymbolTable
 70
     2
  0
APPID
  5
56
330
9
100
AcDbSymbolTableRecord
100
AcDbRegAppTableRecord
  2
ACAD
 70
     0
  0
APPID
  5
5E
330
9
100
AcDbSymbolTableRecord
100
AcDbRegAppTableRecord
  2
AcadAnnotative
 70
     0
  0
ENDTAB
  0
TABLE
  2
DIMSTYLE
  5
A
330
0
100
AcDbSymbolTable
 70
     2
100
AcDbDimStyleTable
 71
     0
  0
DIMSTYLE
105
58
330
A
100
AcDbSymbolTableRecord
100
AcDbDimStyleTableRecord
  2
Standard
 70
     0
340
55
  0
DIMSTYLE
105
59
330
A
100
AcDbSymbolTableRecord
100
AcDbDimStyleTableRecord
  2
Annotative
 70
     0
340
55
1001
AcadAnnotative
1000
AnnotativeData
1002
{
1070
     1
1070
     1
1002
}
  0
ENDTAB
  0
TABLE
  2
BLOCK_RECORD
  5
1
330
0
100
AcDbSymbolTable
 70
     1
  0
BLOCK_RECORD
  5
70
330
1
100
AcDbSymbolTableRecord
100
AcDbBlockTableRecord
  2
*Model_Space
340
73
 70
     0
280
     1
281
     0
  0
BLOCK_RECORD
  5
6C
330
1
100
AcDbSymbolTableRecord
100
AcDbBlockTableRecord
  2
*Paper_Space
340
6F
 70
     0
280
     1
281
     0
  0
BLOCK_RECORD
  5
74
330
1
100
AcDbSymbolTableRecord
100
AcDbBlockTableRecord
  2
*Paper_Space0
340
77
 70
     0
280
     1
281
     0
  0
ENDTAB
  0
ENDSEC
  0
SECTION
  2
BLOCKS
  0
BLOCK
  5
71
330
70
100
AcDbEntity
  8
0
100
AcDbBlockBegin
  2
*Model_Space
 70
     0
 10
0.0
 20
0.0
 30
0.0
  3
*Model_Space
  1

  0
ENDBLK
  5
72
330
70
100
AcDbEntity
  8
0
100
AcDbBlockEnd
  0
BLOCK
  5
6D
330
6C
100
AcDbEntity
 67
     1
  8
0
100
AcDbBlockBegin
  2
*Paper_Space
 70
     0
 10
0.0
 20
0.0
 30
0.0
  3
*Paper_Space
  1

  0
ENDBLK
  5
6E
330
6C
100
AcDbEntity
 67
     1
  8
0
100
AcDbBlockEnd
  0
BLOCK
  5
75
330
74
100
AcDbEntity
 67
     1
  8
0
100
AcDbBlockBegin
  2
*Paper_Space0
 70
     0
 10
0.0
 20
0.0
 30
0.0
  3
*Paper_Space0
  1

  0
ENDBLK
  5
76
330
74
100
AcDbEntity
 67
     1
  8
0
100
AcDbBlockEnd
  0
ENDSEC
  0
SECTION
  2
ENTITIES
  0
SPLINE
  5
79
330
70
100
AcDbEntity
  8
Слой 1
100
AcDbSpline
210
0.0
220
0.0
230
1.0
 70
     9
 71
     3
 72
   416
 73
   412
 74
     0
 42
0.0000000001
 43
0.0000000001
 40
0.0
 40
0.0
 40
0.0
 40
0.0
 40
1.0
 40
1.0
 40
1.0
 40
2.0
 40
2.0
 40
2.0
 40
3.0
 40
3.0
 40
3.0
 40
4.0
 40
4.0
 40
4.0
 40
5.0
 40
5.0
 40
5.0
 40
6.0
 40
6.0
 40
6.0
 40
7.0
 40
7.0
 40
7.0
 40
8.0
 40
8.0
 40
8.0
 40
9.0
 40
9.0
 40
9.0
 40
10.0
 40
10.0
 40
10.0
 40
11.0
 40
11.0
 40
11.0
 40
12.0
 40
12.0
 40
12.0
 40
13.0
 40
13.0
 40
13.0
 40
14.0
 40
14.0
 40
14.0
 40
15.0
 40
15.0
 40
15.0
 40
16.0
 40
16.0
 40
16.0
 40
17.0
 40
17.0
 40
17.0
 40
18.0
 40
18.0
 40
18.0
 40
19.0
 40
19.0
 40
19.0
 40
20.0
 40
20.0
 40
20.0
 40
21.0
 40
21.0
 40
21.0
 40
22.0
 40
22.0
 40
22.0
 40
23.0
 40
23.0
 40
23.0
 40
24.0
 40
24.0
 40
24.0
 40
25.0
 40
25.0
 40
25.0
 40
26.0
 40
26.0
 40
26.0
 40
27.0
 40
27.0
 40
27.0
 40
28.0
 40
28.0
 40
28.0
 40
29.0
 40
29.0
 40
29.0
 40
30.0
 40
30.0
 40
30.0
 40
31.0
 40
31.0
 40
31.0
 40
32.0
 40
32.0
 40
32.0
 40
33.0
 40
33.0
 40
33.0
 40
34.0
 40
34.0
 40
34.0
 40
35.0
 40
35.0
 40
35.0
 40
36.0
 40
36.0
 40
36.0
 40
37.0
 40
37.0
 40
37.0
 40
38.0
 40
38.0
 40
38.0
 40
39.0
 40
39.0
 40
39.0
 40
40.0
 40
40.0
 40
40.0
 40
41.0
 40
41.0
 40
41.0
 40
42.0
 40
42.0
 40
42.0
 40
43.0
 40
43.0
 40
43.0
 40
44.0
 40
44.0
 40
44.0
 40
45.0
 40
45.0
 40
45.0
 40
46.0
 40
46.0
 40
46.0
 40
47.0
 40
47.0
 40
47.0
 40
48.0
 40
48.0
 40
48.0
 40
49.0
 40
49.0
 40
49.0
 40
50.0
 40
50.0
 40
50.0
 40
51.0
 40
51.0
 40
51.0
 40
52.0
 40
52.0
 40
52.0
 40
53.0
 40
53.0
 40
53.0
 40
54.0
 40
54.0
 40
54.0
 40
55.0
 40
55.0
 40
55.0
 40
56.0
 40
56.0
 40
56.0
 40
57.0
 40
57.0
 40
57.0
 40
58.0
 40
58.0
 40
58.0
 40
59.0
 40
59.0
 40
59.0
 40
60.0
 40
60.0
 40
60.0
 40
61.0
 40
61.0
 40
61.0
 40
62.0
 40
62.0
 40
62.0
 40
63.0
 40
63.0
 40
63.0
 40
64.0
 40
64.0
 40
64.0
 40
65.0
 40
65.0
 40
65.0
 40
66.0
 40
66.0
 40
66.0
 40
67.0
 40
67.0
 40
67.0
 40
68.0
 40
68.0
 40
68.0
 40
69.0
 40
69.0
 40
69.0
 40
70.0
 40
70.0
 40
70.0
 40
71.0
 40
71.0
 40
71.0
 40
72.0
 40
72.0
 40
72.0
 40
73.0
 40
73.0
 40
73.0
 40
74.0
 40
74.0
 40
74.0
 40
75.0
 40
75.0
 40
75.0
 40
76.0
 40
76.0
 40
76.0
 40
77.0
 40
77.0
 40
77.0
 40
78.0
 40
78.0
 40
78.0
 40
79.0
 40
79.0
 40
79.0
 40
80.0
 40
80.0
 40
80.0
 40
81.0
 40
81.0
 40
81.0
 40
82.0
 40
82.0
 40
82.0
 40
83.0
 40
83.0
 40
83.0
 40
84.0
 40
84.0
 40
84.0
 40
85.0
 40
85.0
 40
85.0
 40
86.0
 40
86.0
 40
86.0
 40
87.0
 40
87.0
 40
87.0
 40
88.0
 40
88.0
 40
88.0
 40
89.0
 40
89.0
 40
89.0
 40
90.0
 40
90.0
 40
90.0
 40
91.0
 40
91.0
 40
91.0
 40
92.0
 40
92.0
 40
92.0
 40
93.0
 40
93.0
 40
93.0
 40
94.0
 40
94.0
 40
94.0
 40
95.0
 40
95.0
 40
95.0
 40
96.0
 40
96.0
 40
96.0
 40
97.0
 40
97.0
 40
97.0
 40
98.0
 40
98.0
 40
98.0
 40
99.0
 40
99.0
 40
99.0
 40
100.0
 40
100.0
 40
100.0
 40
101.0
 40
101.0
 40
101.0
 40
102.0
 40
102.0
 40
102.0
 40
103.0
 40
103.0
 40
103.0
 40
104.0
 40
104.0
 40
104.0
 40
105.0
 40
105.0
 40
105.0
 40
106.0
 40
106.0
 40
106.0
 40
107.0
 40
107.0
 40
107.0
 40
108.0
 40
108.0
 40
108.0
 40
109.0
 40
109.0
 40
109.0
 40
110.0
 40
110.0
 40
110.0
 40
111.0
 40
111.0
 40
111.0
 40
112.0
 40
112.0
 40
112.0
 40
113.0
 40
113.0
 40
113.0
 40
114.0
 40
114.0
 40
114.0
 40
115.0
 40
115.0
 40
115.0
 40
116.0
 40
116.0
 40
116.0
 40
117.0
 40
117.0
 40
117.0
 40
118.0
 40
118.0
 40
118.0
 40
119.0
 40
119.0
 40
119.0
 40
120.0
 40
120.0
 40
120.0
 40
121.0
 40
121.0
 40
121.0
 40
122.0
 40
122.0
 40
122.0
 40
123.0
 40
123.0
 40
123.0
 40
124.0
 40
124.0
 40
124.0
 40
125.0
 40
125.0
 40
125.0
 40
126.0
 40
126.0
 40
126.0
 40
127.0
 40
127.0
 40
127.0
 40
128.0
 40
128.0
 40
128.0
 40
129.0
 40
129.0
 40
129.0
 40
130.0
 40
130.0
 40
130.0
 40
131.0
 40
131.0
 40
131.0
 40
132.0
 40
132.0
 40
132.0
 40
133.0
 40
133.0
 40
133.0
 40
134.0
 40
134.0
 40
134.0
 40
135.0
 40
135.0
 40
135.0
 40
136.0
 40
136.0
 40
136.0
 40
137.0
 40
137.0
 40
137.0
 40
137.0
 10
8.156287052734569
 20
-17.04489192648723
 30
0.0
 10
8.34092539979469
 20
-16.98355431548763
 30
0.0
 10
8.51872777175471
 20
-16.83026613745846
 30
0.0
 10
8.720694347635243
 20
-17.00342183353402
 30
0.0
 10
8.93698817416114
 20
-17.18886441295846
 30
0.0
 10
8.832117763124642
 20
-17.40500186096862
 30
0.0
 10
8.790871068050591
 20
-17.62320946265832
 30
0.0
 10
8.716784884751353
 20
-18.0151498716111
 30
0.0
 10
8.512532203908449
 20
-18.38322766377958
 30
0.0
 10
8.544924896374519
 20
-18.80745651285542
 30
0.0
 10
8.817202231398191
 20
-18.77061075599888
 30
0.0
 10
8.976335987263103
 20
-18.65219498689445
 30
0.0
 10
9.029035546937771
 20
-18.39535444531568
 30
0.0
 10
9.069731193910177
 20
-18.19701063837402
 30
0.0
 10
9.132915560710216
 20
-18.00296351730723
 30
0.0
 10
9.19200429972688
 20
-17.8088009740025
 30
0.0
 10
9.267304278169097
 20
-17.5613840996229
 30
0.0
 10
9.296271536489559
 20
-17.23020046718415
 30
0.0
 10
9.663277018838773
 20
-17.2927258102407
 30
0.0
 10
10.06916862534002
 20
-17.36186745381638
 30
0.0
 10
9.983845528723223
 20
-17.68413751087958
 30
0.0
 10
9.886727024091415
 20
-18.01470307585277
 30
0.0
 10
10.20376584748611
 20
-17.98665919543221
 30
0.0
 10
10.39150942506515
 20
-17.78758189878764
 30
0.0
 10
10.61823593254368
 20
-17.68483749090069
 30
0.0
 10
10.84201358801851
 20
-17.5834371935861
 30
0.0
 10
11.06738481503048
 20
-17.54185912499153
 30
0.0
 10
11.19440140247962
 20
-17.80360697331374
 30
0.0
 10
11.30093240441712
 20
-18.02312517589376
 30
0.0
 10
11.1804613748253
 20
-18.19061401243653
 30
0.0
 10
10.98318615440555
 20
-18.30843405386374
 30
0.0
 10
10.79255329759005
 20
-18.4222813363411
 30
0.0
 10
10.6053980010921
 20
-18.54194068697209
 30
0.0
 10
10.42441593265367
 20
-18.65426886387179
 30
0.0
 10
10.40442182247564
 20
-18.85582215367612
 30
0.0
 10
10.56730866270918
 20
-18.8342791515368
 30
0.0
 10
10.6586337156775
 20
-18.88601437703374
 30
0.0
 10
10.84525285726525
 20
-18.99172625341473
 30
0.0
 10
10.91756675072348
 20
-19.14751648768929
 30
0.0
 10
10.8417082775841
 20
-19.34565551324153
 30
0.0
 10
10.7623573509344
 20
-19.55293151204834
 30
0.0
 10
10.58594004582455
 20
-19.58871240568083
 30
0.0
 10
10.38894779605172
 20
-19.54319508781848
 30
0.0
 10
10.13179449744254
 20
-19.48377869857902
 30
0.0
 10
9.868691368653268
 20
-19.43826882731223
 30
0.0
 10
9.621978197593357
 20
-19.34869000109903
 30
0.0
 10
9.349395552135268
 20
-19.2497210173682
 30
0.0
 10
9.15622340609439
 20
-19.33938547943527
 30
0.0
 10
8.896441459107638
 20
-19.57911374347653
 30
0.0
 10
9.370975787254565
 20
-19.71692044848515
 30
0.0
 10
9.783003388834281
 20
-19.84327801219084
 30
0.0
 10
10.19897768627755
 20
-19.95493227215514
 30
0.0
 10
10.4596010986087
 20
-20.02489676458541
 30
0.0
 10
10.68672227567385
 20
-20.1323921007007
 30
0.0
 10
10.59507701907892
 20
-20.44700705710749
 30
0.0
 10
10.50292539395817
 20
-20.7633533470775
 30
0.0
 10
10.24883264629238
 20
-20.72133592932015
 30
0.0
 10
9.994501607555521
 20
-20.64965499651918
 30
0.0
 10
9.584149490068789
 20
-20.53400191451945
 30
0.0
 10
9.144465231058802
 20
-20.48757983524666
 30
0.0
 10
8.762715488690345
 20
-20.31256993677501
 30
0.0
 10
7.980368669554991
 20
-19.95388974871972
 30
0.0
 10
7.412096591346552
 20
-20.30866419718917
 30
0.0
 10
6.820494327965611
 20
-20.77163023849724
 30
0.0
 10
7.407047799279401
 20
-21.25922961927222
 30
0.0
 10
7.978350642047088
 20
-21.5935929481893
 30
0.0
 10
8.763519721055546
 20
-21.24211734173443
 30
0.0
 10
9.184215160343505
 20
-21.05378920637139
 30
0.0
 10
9.660551564714245
 20
-20.9892086028275
 30
0.0
 10
10.11242590132588
 20
-20.87126941586499
 30
0.0
 10
10.33732799279202
 20
-20.81256417654069
 30
0.0
 10
10.52782681088004
 20
-20.86154416152903
 30
0.0
 10
10.59845032705286
 20
-21.10245643432929
 30
0.0
 10
10.66844088256931
 20
-21.34119802440444
 30
0.0
 10
10.54432846754828
 20
-21.49513777958055
 30
0.0
 10
10.3177583385845
 20
-21.56127099838432
 30
0.0
 10
9.870448765302018
 20
-21.6918433354093
 30
0.0
 10
9.420830747268862
 20
-21.81448132442847
 30
0.0
 10
8.938916842517123
 20
-21.94972640042346
 30
0.0
 10
9.118014922175385
 20
-22.22739134763027
 30
0.0
 10
9.321031468088095
 20
-22.3121373330593
 30
0.0
 10
9.606459491592785
 20
-22.20654087891626
 30
0.0
 10
9.739068472615118
 20
-22.15747898137223
 30
0.0
 10
9.879146389394184
 20
-22.12288209649846
 30
0.0
 10
10.01883708318327
 20
-22.09991679452903
 30
0.0
 10
10.29990140145072
 20
-22.05369949664555
 30
0.0
 10
10.64231822390863
 20
-21.81237021447083
 30
0.0
 10
10.83108198513539
 20
-22.19660339659498
 30
0.0
 10
11.03639208260627
 20
-22.61449146920277
 30
0.0
 10
10.55136550073894
 20
-22.6388418380225
 30
0.0
 10
10.34717239266355
 20
-22.85506492188625
 30
0.0
 10
10.58897825698017
 20
-23.00270485687222
 30
0.0
 10
10.81714195748135
 20
-23.13241711206264
 30
0.0
 10
11.03484319064468
 20
-23.27779700517208
 30
0.0
 10
11.23026420866795
 20
-23.40829115293875
 30
0.0
 10
11.29966648310222
 20
-23.59785169993443
 30
0.0
 10
11.16425013540005
 20
-23.80199268183805
 30
0.0
 10
11.0452535318098
 20
-23.98137745544154
 30
0.0
 10
10.85873864256566
 20
-23.98606881090235
 30
0.0
 10
10.67614810939711
 20
-23.89290817202805
 30
0.0
 10
10.44475258624558
 20
-23.77484611623196
 30
0.0
 10
10.21767608875679
 20
-23.64833962060667
 30
0.0
 10
9.959874936297939
 20
-23.50999303739028
 30
0.0
 10
9.950596477720004
 20
-23.61658361209528
 30
0.0
 10
9.930848105209152
 20
-23.67665157848223
 30
0.0
 10
9.943254134094406
 20
-23.72912401698014
 30
0.0
 10
10.00161310670612
 20
-23.97601218304554
 30
0.0
 10
9.975237263782723
 20
-24.19195974285847
 30
0.0
 10
9.690710278390193
 20
-24.25403456685904
 30
0.0
 10
9.407233263029258
 20
-24.31588226968251
 30
0.0
 10
9.295139653902397
 20
-24.12446752029069
 30
0.0
 10
9.232848878619025
 20
-23.8835403542982
 30
0.0
 10
9.171891044013843
 20
-23.64774761622696
 30
0.0
 10
9.085972219719854
 20
-23.41769620364807
 30
0.0
 10
9.036534269079185
 20
-23.17981841870513
 30
0.0
 10
8.979441217782323
 20
-22.90513583318443
 30
0.0
 10
8.819741520623033
 20
-22.76955566037026
 30
0.0
 10
8.488941387877325
 20
-22.72606753990916
 30
0.0
 10
8.597706368605535
 20
-23.16613529861166
 30
0.0
 10
8.692032399749475
 20
-23.57671826057362
 30
0.0
 10
8.802219680307567
 20
-23.9830008133629
 30
0.0
 10
8.870363480023064
 20
-24.23426385456054
 30
0.0
 10
8.926793784278817
 20
-24.49732602707167
 30
0.0
 10
8.616836673650873
 20
-24.59472750235043
 30
0.0
 10
8.257009709816125
 20
-24.70781150874139
 30
0.0
 10
8.174553552647719
 20
-24.41581186429332
 30
0.0
 10
8.101390747248716
 20
-24.15199013899319
 30
0.0
 10
8.003721194515012
 20
-23.79983689230486
 30
0.0
 10
7.856137108998735
 20
-23.45229681181985
 30
0.0
 10
7.821048748790644
 20
-23.09385863813304
 30
0.0
 10
7.736559670922941
 20
-22.23074231581667
 30
0.0
 10
7.245047103965816
 20
-21.75241394702362
 30
0.0
 10
6.409330531518358
 20
-21.50159770158403
 30
0.0
 10
6.312353512209887
 20
-22.15754972403346
 30
0.0
 10
6.214743532243674
 20
-22.77918038566069
 30
0.0
 10
6.855582688173424
 20
-23.27966237746194
 30
0.0
 10
7.237116479258575
 20
-23.57762302198388
 30
0.0
 10
7.551042625538482
 20
-23.96244820848763
 30
0.0
 10
7.893355195653308
 20
-24.31020051695792
 30
0.0
 10
8.071276713148892
 20
-24.4909480176236
 30
0.0
 10
8.252981101396951
 20
-24.6937299957632
 30
0.0
 10
8.019128201575869
 20
-24.93629913616625
 30
0.0
 10
7.786213572846135
 20
-25.17791138898764
 30
0.0
 10
7.568862329693324
 20
-25.02189031023792
 30
0.0
 10
7.394611984010553
 20
-24.83120532725138
 30
0.0
 10
7.097842794844179
 20
-24.50644438383584
 30
0.0
 10
6.814335993099373
 20
-24.16956038218278
 30
0.0
 10
6.468270338615613
 20
-23.77236267647598
 30
0.0
 10
6.301444249114561
 20
-24.21970948273848
 30
0.0
 10
6.351351335301059
 20
-24.43421984952945
 30
0.0
 10
6.555559336568649
 20
-24.61784545953749
 30
0.0
 10
6.6763282299996
 20
-24.72643916855848
 30
0.0
 10
6.795228027841807
 20
-24.83955668463055
 30
0.0
 10
6.899279313321458
 20
-24.96377707529319
 30
0.0
 10
7.080715624114569
 20
-25.18039482874347
 30
0.0
 10
7.459568640651013
 20
-25.35609726064028
 30
0.0
 10
7.168563116765047
 20
-25.7148258515693
 30
0.0
 10
6.899659089716148
 20
-26.04631479444262
 30
0.0
 10
6.672560252439021
 20
-25.67972259817012
 30
0.0
 10
6.349474793116743
 20
-25.57448358063334
 30
0.0
 10
6.349474793116743
 20
-25.86197431122153
 30
0.0
 10
6.350450297188873
 20
-26.11462241926958
 30
0.0
 10
6.34917692927815
 20
-26.36726308072154
 30
0.0
 10
6.348000367115168
 20
-26.60085162638598
 30
0.0
 10
6.249809552663464
 20
-26.77698968414694
 30
0.0
 10
6.001562382833374
 20
-26.77777530002166
 30
0.0
 10
5.751140806979845
 20
-26.77856836249207
 30
0.0
 10
5.660225316790122
 20
-26.58887377676931
 30
0.0
 10
5.643083252868816
 20
-26.3661274748364
 30
0.0
 10
5.626067781079174
 20
-26.14506410359223
 30
0.0
 10
5.620661552405408
 20
-25.92311458742804
 30
0.0
 10
5.61145755978714
 20
-25.72900789359306
 30
0.0
 10
5.511405096343069
 20
-25.62097267927013
 30
0.0
 10
5.440640094846356
 20
-25.6743908354561
 30
0.0
 10
5.379101425755404
 20
-25.71785661612916
 30
0.0
 10
5.171296718634999
 20
-25.86462529938682
 30
0.0
 10
4.962777138301589
 20
-25.91589138933735
 30
0.0
 10
4.797246756498755
 20
-25.67611099912486
 30
0.0
 10
4.652328552339491
 20
-25.46618773545098
 30
0.0
 10
4.774259114741223
 20
-25.29141240475236
 30
0.0
 10
4.924062285857062
 20
-25.13771838724347
 30
0.0
 10
5.080172723758348
 20
-24.97757189432665
 30
0.0
 10
5.234101309040574
 20
-24.81483026271444
 30
0.0
 10
5.397650896315199
 20
-24.66253248194958
 30
0.0
 10
5.592431507085721
 20
-24.4811482973282
 30
0.0
 10
5.694174347814674
 20
-24.28055934170195
 30
0.0
 10
5.568259856569081
 20
-23.97449307746791
 30
0.0
 10
5.154445071956463
 20
-24.17663464835376
 30
0.0
 10
4.919676240831019
 20
-24.56456878867486
 30
0.0
 10
4.598221586026359
 20
-24.84896918193598
 30
0.0
 10
4.396091185034694
 20
-25.02779546084195
 30
0.0
 10
4.190222592866095
 20
-25.16478304029374
 30
0.0
 10
3.970346953679053
 20
-24.92002460067541
 30
0.0
 10
3.775164226726625
 20
-24.70274410018404
 30
0.0
 10
3.915011299030993
 20
-24.50896133327347
 30
0.0
 10
4.084979852031539
 20
-24.33887735803597
 30
0.0
 10
4.386775493477014
 20
-24.03689182839319
 30
0.0
 10
4.656394393738663
 20
-23.69323887100346
 30
0.0
 10
4.99307733730057
 20
-23.43763446435582
 30
0.0
 10
5.654610583429681
 20
-22.93540996909749
 30
0.0
 10
5.748199401572264
 20
-22.29334584813096
 30
0.0
 10
5.568274749761005
 20
-21.5169451358771
 30
0.0
 10
4.884051725714041
 20
-21.75614841490222
 30
0.0
 10
4.325475115456886
 20
-22.05965677342096
 30
0.0
 10
4.233234131184746
 20
-22.89134101415084
 30
0.0
 10
4.182351540926093
 20
-23.35009228214042
 30
0.0
 10
4.007654399485318
 20
-23.79595721580515
 30
0.0
 10
3.879230405398225
 20
-24.24490504020085
 30
0.0
 10
3.813417390221451
 20
-24.47497879256778
 30
0.0
 10
3.692164468052447
 20
-24.67674058705888
 30
0.0
 10
3.407838540750743
 20
-24.60346235942264
 30
0.0
 10
3.120653120596746
 20
-24.52944691878542
 30
0.0
 10
3.118791471604658
 20
-24.29301377346054
 30
0.0
 10
3.17600366843731
 20
-24.06143580870819
 30
0.0
 10
3.282430418031228
 20
-23.63071352794708
 30
0.0
 10
3.401806798015614
 20
-23.2031932834532
 30
0.0
 10
3.521875711425258
 20
-22.75142319918485
 30
0.0
 10
3.134928245070189
 20
-22.74574144646057
 30
0.0
 10
3.016862465976272
 20
-22.97838055113862
 30
0.0
 10
2.939752964713887
 20
-23.25543860077416
 30
0.0
 10
2.901671072926572
 20
-23.39231075798875
 30
0.0
 10
2.867439071255653
 20
-23.53027011821485
 30
0.0
 10
2.828351889012537
 20
-23.66685185818639
 30
0.0
 10
2.752433843105109
 20
-23.93215173278612
 30
0.0
 10
2.749805194727791
 20
-24.29014311071445
 30
0.0
 10
2.351643154842703
 20
-24.2567376811961
 30
0.0
 10
1.917372571102886
 20
-24.22030521041625
 30
0.0
 10
2.103753421618976
 20
-23.82285059714862
 30
0.0
 10
2.025273746698379
 20
-23.57554914500626
 30
0.0
 10
1.782216854259331
 20
-23.57997614630972
 30
0.0
 10
1.61863748060053
 20
-23.75148614467611
 30
0.0
 10
1.422739880435124
 20
-23.84863071239402
 30
0.0
 10
1.20983425507509
 20
-23.95421971994124
 30
0.0
 10
0.9856470368224815
 20
-24.04098000958013
 30
0.0
 10
0.8322024802777024
 20
-23.79096427320749
 30
0.0
 10
0.6590244444151318
 20
-23.508801582035
 30
0.0
 10
0.8517795810813215
 20
-23.34258239010528
 30
0.0
 10
1.079481592632014
 20
-23.20715487250903
 30
0.0
 10
1.268357052798187
 20
-23.09481180241722
 30
0.0
 10
1.454335787132903
 20
-22.97759493526374
 30
0.0
 10
1.686982338407144
 20
-22.83465007903654
 30
0.0
 10
1.532033569476905
 20
-22.7578570581025
 30
0.0
 10
1.42209947318156
 20
-22.71136423616806
 30
0.0
 10
1.320334292664534
 20
-22.65107659520027
 30
0.0
 10
1.16769396848445
 20
-22.56064513374834
 30
0.0
 10
1.077582710659928
 20
-22.42891485105054
 30
0.0
 10
1.13636613924162
 20
-22.24572859020486
 30
0.0
 10
1.202975940187772
 20
-22.03812121787751
 30
0.0
 10
1.363814966529263
 20
-21.9632717584914
 30
0.0
 10
1.567762336938004
 20
-22.00420569653513
 30
0.0
 10
1.826330488781523
 20
-22.05610102384541
 30
0.0
 10
2.089232559478887
 20
-22.10378157783708
 30
0.0
 10
2.335908497559886
 20
-22.19298435095417
 30
0.0
 10
2.621939695338167
 20
-22.29641384566985
 30
0.0
 10
2.846022661247691
 20
-22.25256456530486
 30
0.0
 10
3.088416806645682
 20
-21.96223295835388
 30
0.0
 10
2.621507792772061
 20
-21.82883091486097
 30
0.0
 10
2.187966975436691
 20
-21.7024398414732
 30
0.0
 10
1.752877266140002
 20
-21.5816560548504
 30
0.0
 10
1.511644789713045
 20
-21.51468881729806
 30
0.0
 10
1.323521435739596
 20
-21.39045353344348
 30
0.0
 10
1.40031817997116
 20
-21.11422950255681
 30
0.0
 10
1.474925624987854
 20
-20.84591375658957
 30
0.0
 10
1.688009968650956
 20
-20.81124240575612
 30
0.0
 10
1.938975146009726
 20
-20.88306110058278
 30
0.0
 10
2.329318260126759
 20
-20.99475631682458
 30
0.0
 10
2.74828608915013
 20
-21.03936887327707
 30
0.0
 10
3.111166157332136
 20
-21.20737152494138
 30
0.0
 10
3.913916649423274
 20
-21.57901623657944
 30
0.0
 10
4.55533663983907
 20
-21.32474849390805
 30
0.0
 10
5.186197357169803
 20
-20.77287009672596
 30
0.0
 10
4.594073832071368
 20
-20.32053779446222
 30
0.0
 10
4.029264420988511
 20
-19.93184410135235
 30
0.0
 10
3.224317183086693
 20
-20.31486348833373
 30
0.0
 10
2.827785947718969
 20
-20.50354533700501
 30
0.0
 10
2.366811870832457
 20
-20.5562188335943
 30
0.0
 10
1.935698643783553
 20
-20.67301124477694
 30
0.0
 10
1.688151453974266
 20
-20.74006784148138
 30
0.0
 10
1.471328919135051
 20
-20.70403748688333
 30
0.0
 10
1.400273500395314
 20
-20.431142084395
 30
0.0
 10
1.327244733724051
 20
-20.15067721710334
 30
0.0
 10
1.521556208948191
 20
-20.03278643301474
 30
0.0
 10
1.759594095704263
 20
-19.96723404869653
 30
0.0
 10
2.188413771194695
 20
-19.84914592981471
 30
0.0
 10
2.616503680280477
 20
-19.72841799266181
 30
0.0
 10
3.082049967091961
 20
-19.59841904352735
 30
0.0
 10
2.878713217553189
 20
-19.3274187997125
 30
0.0
 10
2.668696871429877
 20
-19.24647057822792
 30
0.0
 10
2.384519876047332
 20
-19.3509239798897
 30
0.0
 10
2.23273591040437
 20
-19.40670643029638
 30
0.0
 10
2.073646834115278
 20
-19.4500530654339
 30
0.0
 10
1.914096068876182
 20
-19.47553531684096
 30
0.0
 10
1.650709969440792
 20
-19.51760858406777
 30
0.0
 10
1.330327624454967
 20
-19.72151127490042
 30
0.0
 10
1.16268240939755
 20
-19.34910328717514
 30
0.0
 10
0.9830928544043519
 20
-18.9501630780118
 30
0.0
 10
1.394331116811852
 20
-18.91362635488819
 30
0.0
 10
1.654381141253035
 20
-18.71402034992972
 30
0.0
 10
1.402209615347399
 20
-18.55284995006721
 30
0.0
 10
1.170188578134532
 20
-18.41502090527069
 30
0.0
 10
0.9499778421288738
 20
-18.26039233996749
 30
0.0
 10
0.7844698001143923
 20
-18.14418076326971
 30
0.0
 10
0.7098474619057368
 20
-17.98082478749041
 30
0.0
 10
0.8146136205986698
 20
-17.7842011442175
 30
0.0
 10
0.922000981072238
 20
-17.58265902430722
 30
0.0
 10
1.106080833434589
 20
-17.56808975929334
 30
0.0
 10
1.28727885315685
 20
-17.64657688081027
 30
0.0
 10
1.525420992256259
 20
-17.74973457477361
 30
0.0
 10
1.751313480986242
 20
-17.88115582373876
 30
0.0
 10
2.027820482519877
 20
-18.02382143261709
 30
0.0
 10
2.035617068499605
 20
-17.87609586177723
 30
0.0
 10
2.045766778806106
 20
-17.7819857819168
 30
0.0
 10
2.044485964299825
 20
-17.68803208057152
 30
0.0
 10
2.041671151022771
 20
-17.48181349839263
 30
0.0
 10
2.109598999455227
 20
-17.32433661013068
 30
0.0
 10
2.332013927867667
 20
-17.28898389576625
 30
0.0
 10
2.590075711185388
 20
-17.24796432186902
 30
0.0
 10
2.699473652571314
 20
-17.42257582745626
 30
0.0
 10
2.764259037504264
 20
-17.62726785746167
 30
0.0
 10
2.831568818471219
 20
-17.83988678887638
 30
0.0
 10
2.882883311296204
 20
-18.057911948965
 30
0.0
 10
2.93363930942294
 20
-18.27533393477971
 30
0.0
 10
2.997963005405924
 20
-18.55088777202958
 30
0.0
 10
3.1233264485502
 20
-18.76634013321055
 30
0.0
 10
3.469533588356991
 20
-18.83265951691333
 30
0.0
 10
3.480599229967588
 20
-18.37728155689777
 30
0.0
 10
3.281812350565435
 20
-17.97898920158362
 30
0.0
 10
3.190747928456276
 20
-17.56086283790513
 30
0.0
 10
3.136171826597319
 20
-17.31028488353667
 30
0.0
 10
3.086339206370287
 20
-17.04403184465263
 30
0.0
 10
3.396683539988505
 20
-16.94951220201361
 30
0.0
 10
3.713528751888184
 20
-16.85301548814514
 30
0.0
 10
3.821653325363361
 20
-17.10148977915208
 30
0.0
 10
3.890735396171016
 20
-17.35023587091223
 30
0.0
 10
4.015696723132249
 20
-17.80018898576362
 30
0.0
 10
4.192605503576209
 20
-18.24539117238709
 30
0.0
 10
4.243376394895145
 20
-18.70413871707819
 30
0.0
 10
4.333562118679916
 20
-19.51915747602902
 30
0.0
 10
4.915297642400749
 20
-19.77595333803209
 30
0.0
 10
5.571752310078813
 20
-20.05664904979833
 30
0.0
 10
5.704584688980061
 20
-19.30736139346888
 30
0.0
 10
5.718710881533499
 20
-18.66351008946943
 30
0.0
 10
5.053059667834127
 20
-18.16779019579028
 30
0.0
 10
4.71424699782488
 20
-17.91548090785916
 30
0.0
 10
4.442446244943665
 20
-17.57297472624903
 30
0.0
 10
4.141506962034807
 20
-17.27009188179193
 30
0.0
 10
3.950918784795122
 20
-17.07826012302571
 30
0.0
 10
3.7217349006465
 20
-16.8649151485043
 30
0.0
 10
4.001965200164881
 20
-16.60635071995832
 30
0.0
 10
4.271092625092933
 20
-16.35801046767874
 30
0.0
 10
4.484668444089871
 20
-16.58294606882709
 30
0.0
 10
4.672374788689189
 20
-16.77736551969236
 30
0.0
 10
4.938411876289945
 20
-17.05292308024028
 30
0.0
 10
5.199675695874399
 20
-17.33309008369277
 30
0.0
 10
5.480114500080238
 20
-17.62939013731319
 30
0.0
 10
5.75685979268471
 20
-17.26175914090221
 30
0.0
 10
5.566055664162275
 20
-17.06020585109806
 30
0.0
 10
5.363202943361228
 20
-16.86049187049846
 30
0.0
 10
5.261787752854742
 20
-16.76064418844306
 30
0.0
 10
5.158205602920916
 20
-16.66257624282515
 30
0.0
 10
5.062613650462354
 20
-16.55733350199029
 30
0.0
 10
4.877997643190584
 20
-16.3540786650068
 30
0.0
 10
4.575382876188515
 20
-16.1658212723061
 30
0.0
 10
4.826556558234212
 20
-15.84302623022694
 30
0.0
 10
5.053774541047131
 20
-15.55102286248098
 30
0.0
 10
5.297263336052537
 20
-15.79012933575889
 30
0.0
 10
5.516163471167171
 20
-15.92443614066165
 30
0.0
 10
5.706781434790463
 20
-15.68041863734222
 30
0.0
 10
5.605805593446448
 20
-15.42962100839279
 30
0.0
 10
5.636865345234531
 20
-15.20100306553806
 30
0.0
 10
5.666808107627426
 20
-14.98054659186555
 30
0.0
 10
5.735986984182848
 20
-14.78218416843388
 30
0.0
 10
5.986252181520285
 20
-14.77786514277194
 30
0.0
 10
6.272879106976536
 20
-14.77292060304848
 30
0.0
 10
6.354344866881369
 20
-14.97849505467598
 30
0.0
 10
6.35143324785713
 20
-15.2325245062761
 30
0.0
 10
6.348886512035126
 20
-15.45546441970471
 30
0.0
 10
6.350904539543029
 20
-15.67845273600624
 30
0.0
 10
6.350904539543029
 20
-15.88403463422987
 30
0.0
 10
6.523457061344792
 20
-16.0153739706393
 30
0.0
 10
6.588302019045512
 20
-15.8591146008186
 30
0.0
 10
6.674853803997494
 20
-15.80112051140958
 30
0.0
 10
6.850422197166557
 20
-15.68348291158362
 30
0.0
 10
7.014634531482821
 20
-15.66342922863805
 30
0.0
 10
7.165681284124426
 20
-15.82704211197859
 30
0.0
 10
7.341994336890921
 20
-16.01803612869819
 30
0.0
 10
7.276099409158354
 20
-16.20106228773124
 30
0.0
 10
7.121470843854467
 20
-16.36573258769903
 30
0.0
 10
6.954518162222282
 20
-16.54352751306305
 30
0.0
 10
6.787639946549006
 20
-16.72284526730292
 30
0.0
 10
6.606039810644814
 20
-16.88506191389903
 30
0.0
 10
6.387340733621006
 20
-17.08043080575112
 30
0.0
 10
6.288971200865969
 20
-17.30069739122597
 30
0.0
 10
6.403336021763228
 20
-17.62527961633764
 30
0.0
 10
6.786321899062461
 20
-17.40995384728833
 30
0.0
 10
7.027524589105773
 20
-17.05169066860708
 30
0.0
 10
7.33503176965976
 20
-16.7709577238607
 30
0.0
 10
7.806870430065221
 20
-16.34020193341805
 30
0.0
 10
8.008360423803599
 20
-16.40613409413069
 30
0.0
 10
8.166071879838353
 20
-17.05350019142777
 30
0.0
 10
7.698045876569241
 20
-17.34562270470888
 30
0.0
 10
7.407353109713842
 20
-17.83502788500653
 30
0.0
 10
6.972114468497996
 20
-18.15359326057501
 30
0.0
 10
6.294950817429176
 20
-18.64923496499651
 30
0.0
 10
6.276982181355151
 20
-19.30443488125305
 30
0.0
 10
6.401057363396425
 20
-20.08774231126861
 30
0.0
 10
6.860236810654466
 20
-19.82059195757041
 30
0.0
 10
7.429886509117245
 20
-19.74576111467457
 30
0.0
 10
7.603340069030941
 20
-19.21518742856068
 30
0.0
 10
7.834802611546592
 20
-18.50716880709347
 30
0.0
 10
7.976206022408328
 20
-17.76970634516333
 30
0.0
 10
8.156287052734569
 20
-17.04489192648723
 30
0.0
  0
HATCH
  5
7A
330
70
100
AcDbEntity
  8
Слой 1
 62
    18
420
        0
440
 33554687
100
AcDbHatch
 10
0.0
 20
0.0
 30
0.0
210
0.0
220
0.0
230
1.0
  2
SOLID
 70
     1
 71
     1
 91
        1
 92
        1
 93
        1
 72
     4
 94
        3
 73
     0
 74
     0
 95
      416
 96
      412
 40
0.0
 40
0.0
 40
0.0
 40
0.0
 40
1.0
 40
1.0
 40
1.0
 40
2.0
 40
2.0
 40
2.0
 40
3.0
 40
3.0
 40
3.0
 40
4.0
 40
4.0
 40
4.0
 40
5.0
 40
5.0
 40
5.0
 40
6.0
 40
6.0
 40
6.0
 40
7.0
 40
7.0
 40
7.0
 40
8.0
 40
8.0
 40
8.0
 40
9.0
 40
9.0
 40
9.0
 40
10.0
 40
10.0
 40
10.0
 40
11.0
 40
11.0
 40
11.0
 40
12.0
 40
12.0
 40
12.0
 40
13.0
 40
13.0
 40
13.0
 40
14.0
 40
14.0
 40
14.0
 40
15.0
 40
15.0
 40
15.0
 40
16.0
 40
16.0
 40
16.0
 40
17.0
 40
17.0
 40
17.0
 40
18.0
 40
18.0
 40
18.0
 40
19.0
 40
19.0
 40
19.0
 40
20.0
 40
20.0
 40
20.0
 40
21.0
 40
21.0
 40
21.0
 40
22.0
 40
22.0
 40
22.0
 40
23.0
 40
23.0
 40
23.0
 40
24.0
 40
24.0
 40
24.0
 40
25.0
 40
25.0
 40
25.0
 40
26.0
 40
26.0
 40
26.0
 40
27.0
 40
27.0
 40
27.0
 40
28.0
 40
28.0
 40
28.0
 40
29.0
 40
29.0
 40
29.0
 40
30.0
 40
30.0
 40
30.0
 40
31.0
 40
31.0
 40
31.0
 40
32.0
 40
32.0
 40
32.0
 40
33.0
 40
33.0
 40
33.0
 40
34.0
 40
34.0
 40
34.0
 40
35.0
 40
35.0
 40
35.0
 40
36.0
 40
36.0
 40
36.0
 40
37.0
 40
37.0
 40
37.0
 40
38.0
 40
38.0
 40
38.0
 40
39.0
 40
39.0
 40
39.0
 40
40.0
 40
40.0
 40
40.0
 40
41.0
 40
41.0
 40
41.0
 40
42.0
 40
42.0
 40
42.0
 40
43.0
 40
43.0
 40
43.0
 40
44.0
 40
44.0
 40
44.0
 40
45.0
 40
45.0
 40
45.0
 40
46.0
 40
46.0
 40
46.0
 40
47.0
 40
47.0
 40
47.0
 40
48.0
 40
48.0
 40
48.0
 40
49.0
 40
49.0
 40
49.0
 40
50.0
 40
50.0
 40
50.0
 40
51.0
 40
51.0
 40
51.0
 40
52.0
 40
52.0
 40
52.0
 40
53.0
 40
53.0
 40
53.0
 40
54.0
 40
54.0
 40
54.0
 40
55.0
 40
55.0
 40
55.0
 40
56.0
 40
56.0
 40
56.0
 40
57.0
 40
57.0
 40
57.0
 40
58.0
 40
58.0
 40
58.0
 40
59.0
 40
59.0
 40
59.0
 40
60.0
 40
60.0
 40
60.0
 40
61.0
 40
61.0
 40
61.0
 40
62.0
 40
62.0
 40
62.0
 40
63.0
 40
63.0
 40
63.0
 40
64.0
 40
64.0
 40
64.0
 40
65.0
 40
65.0
 40
65.0
 40
66.0
 40
66.0
 40
66.0
 40
67.0
 40
67.0
 40
67.0
 40
68.0
 40
68.0
 40
68.0
 40
69.0
 40
69.0
 40
69.0
 40
70.0
 40
70.0
 40
70.0
 40
71.0
 40
71.0
 40
71.0
 40
72.0
 40
72.0
 40
72.0
 40
73.0
 40
73.0
 40
73.0
 40
74.0
 40
74.0
 40
74.0
 40
75.0
 40
75.0
 40
75.0
 40
76.0
 40
76.0
 40
76.0
 40
77.0
 40
77.0
 40
77.0
 40
78.0
 40
78.0
 40
78.0
 40
79.0
 40
79.0
 40
79.0
 40
80.0
 40
80.0
 40
80.0
 40
81.0
 40
81.0
 40
81.0
 40
82.0
 40
82.0
 40
82.0
 40
83.0
 40
83.0
 40
83.0
 40
84.0
 40
84.0
 40
84.0
 40
85.0
 40
85.0
 40
85.0
 40
86.0
 40
86.0
 40
86.0
 40
87.0
 40
87.0
 40
87.0
 40
88.0
 40
88.0
 40
88.0
 40
89.0
 40
89.0
 40
89.0
 40
90.0
 40
90.0
 40
90.0
 40
91.0
 40
91.0
 40
91.0
 40
92.0
 40
92.0
 40
92.0
 40
93.0
 40
93.0
 40
93.0
 40
94.0
 40
94.0
 40
94.0
 40
95.0
 40
95.0
 40
95.0
 40
96.0
 40
96.0
 40
96.0
 40
97.0
 40
97.0
 40
97.0
 40
98.0
 40
98.0
 40
98.0
 40
99.0
 40
99.0
 40
99.0
 40
100.0
 40
100.0
 40
100.0
 40
101.0
 40
101.0
 40
101.0
 40
102.0
 40
102.0
 40
102.0
 40
103.0
 40
103.0
 40
103.0
 40
104.0
 40
104.0
 40
104.0
 40
105.0
 40
105.0
 40
105.0
 40
106.0
 40
106.0
 40
106.0
 40
107.0
 40
107.0
 40
107.0
 40
108.0
 40
108.0
 40
108.0
 40
109.0
 40
109.0
 40
109.0
 40
110.0
 40
110.0
 40
110.0
 40
111.0
 40
111.0
 40
111.0
 40
112.0
 40
112.0
 40
112.0
 40
113.0
 40
113.0
 40
113.0
 40
114.0
 40
114.0
 40
114.0
 40
115.0
 40
115.0
 40
115.0
 40
116.0
 40
116.0
 40
116.0
 40
117.0
 40
117.0
 40
117.0
 40
118.0
 40
118.0
 40
118.0
 40
119.0
 40
119.0
 40
119.0
 40
120.0
 40
120.0
 40
120.0
 40
121.0
 40
121.0
 40
121.0
 40
122.0
 40
122.0
 40
122.0
 40
123.0
 40
123.0
 40
123.0
 40
124.0
 40
124.0
 40
124.0
 40
125.0
 40
125.0
 40
125.0
 40
126.0
 40
126.0
 40
126.0
 40
127.0
 40
127.0
 40
127.0
 40
128.0
 40
128.0
 40
128.0
 40
129.0
 40
129.0
 40
129.0
 40
130.0
 40
130.0
 40
130.0
 40
131.0
 40
131.0
 40
131.0
 40
132.0
 40
132.0
 40
132.0
 40
133.0
 40
133.0
 40
133.0
 40
134.0
 40
134.0
 40
134.0
 40
135.0
 40
135.0
 40
135.0
 40
136.0
 40
136.0
 40
136.0
 40
137.0
 40
137.0
 40
137.0
 40
137.0
 10
8.156287052734569
 20
-17.04489192648723
 10
8.34092539979469
 20
-16.98355431548763
 10
8.51872777175471
 20
-16.83026613745846
 10
8.720694347635243
 20
-17.00342183353402
 10
8.93698817416114
 20
-17.18886441295846
 10
8.832117763124642
 20
-17.40500186096862
 10
8.790871068050591
 20
-17.62320946265832
 10
8.716784884751353
 20
-18.0151498716111
 10
8.512532203908449
 20
-18.38322766377958
 10
8.544924896374519
 20
-18.80745651285542
 10
8.817202231398191
 20
-18.77061075599888
 10
8.976335987263103
 20
-18.65219498689445
 10
9.029035546937771
 20
-18.39535444531568
 10
9.069731193910177
 20
-18.19701063837402
 10
9.132915560710216
 20
-18.00296351730723
 10
9.19200429972688
 20
-17.8088009740025
 10
9.267304278169097
 20
-17.5613840996229
 10
9.296271536489559
 20
-17.23020046718415
 10
9.663277018838773
 20
-17.2927258102407
 10
10.06916862534002
 20
-17.36186745381638
 10
9.983845528723223
 20
-17.68413751087958
 10
9.886727024091415
 20
-18.01470307585277
 10
10.20376584748611
 20
-17.98665919543221
 10
10.39150942506515
 20
-17.78758189878764
 10
10.61823593254368
 20
-17.68483749090069
 10
10.84201358801851
 20
-17.5834371935861
 10
11.06738481503048
 20
-17.54185912499153
 10
11.19440140247962
 20
-17.80360697331374
 10
11.30093240441712
 20
-18.02312517589376
 10
11.1804613748253
 20
-18.19061401243653
 10
10.98318615440555
 20
-18.30843405386374
 10
10.79255329759005
 20
-18.4222813363411
 10
10.6053980010921
 20
-18.54194068697209
 10
10.42441593265367
 20
-18.65426886387179
 10
10.40442182247564
 20
-18.85582215367612
 10
10.56730866270918
 20
-18.8342791515368
 10
10.6586337156775
 20
-18.88601437703374
 10
10.84525285726525
 20
-18.99172625341473
 10
10.91756675072348
 20
-19.14751648768929
 10
10.8417082775841
 20
-19.34565551324153
 10
10.7623573509344
 20
-19.55293151204834
 10
10.58594004582455
 20
-19.58871240568083
 10
10.38894779605172
 20
-19.54319508781848
 10
10.13179449744254
 20
-19.48377869857902
 10
9.868691368653268
 20
-19.43826882731223
 10
9.621978197593357
 20
-19.34869000109903
 10
9.349395552135268
 20
-19.2497210173682
 10
9.15622340609439
 20
-19.33938547943527
 10
8.896441459107638
 20
-19.57911374347653
 10
9.370975787254565
 20
-19.71692044848515
 10
9.783003388834281
 20
-19.84327801219084
 10
10.19897768627755
 20
-19.95493227215514
 10
10.4596010986087
 20
-20.02489676458541
 10
10.68672227567385
 20
-20.1323921007007
 10
10.59507701907892
 20
-20.44700705710749
 10
10.50292539395817
 20
-20.7633533470775
 10
10.24883264629238
 20
-20.72133592932015
 10
9.994501607555521
 20
-20.64965499651918
 10
9.584149490068789
 20
-20.53400191451945
 10
9.144465231058802
 20
-20.48757983524666
 10
8.762715488690345
 20
-20.31256993677501
 10
7.980368669554991
 20
-19.95388974871972
 10
7.412096591346552
 20
-20.30866419718917
 10
6.820494327965611
 20
-20.77163023849724
 10
7.407047799279401
 20
-21.25922961927222
 10
7.978350642047088
 20
-21.5935929481893
 10
8.763519721055546
 20
-21.24211734173443
 10
9.184215160343505
 20
-21.05378920637139
 10
9.660551564714245
 20
-20.9892086028275
 10
10.11242590132588
 20
-20.87126941586499
 10
10.33732799279202
 20
-20.81256417654069
 10
10.52782681088004
 20
-20.86154416152903
 10
10.59845032705286
 20
-21.10245643432929
 10
10.66844088256931
 20
-21.34119802440444
 10
10.54432846754828
 20
-21.49513777958055
 10
10.3177583385845
 20
-21.56127099838432
 10
9.870448765302018
 20
-21.6918433354093
 10
9.420830747268862
 20
-21.81448132442847
 10
8.938916842517123
 20
-21.94972640042346
 10
9.118014922175385
 20
-22.22739134763027
 10
9.321031468088095
 20
-22.3121373330593
 10
9.606459491592785
 20
-22.20654087891626
 10
9.739068472615118
 20
-22.15747898137223
 10
9.879146389394184
 20
-22.12288209649846
 10
10.01883708318327
 20
-22.09991679452903
 10
10.29990140145072
 20
-22.05369949664555
 10
10.64231822390863
 20
-21.81237021447083
 10
10.83108198513539
 20
-22.19660339659498
 10
11.03639208260627
 20
-22.61449146920277
 10
10.55136550073894
 20
-22.6388418380225
 10
10.34717239266355
 20
-22.85506492188625
 10
10.58897825698017
 20
-23.00270485687222
 10
10.81714195748135
 20
-23.13241711206264
 10
11.03484319064468
 20
-23.27779700517208
 10
11.23026420866795
 20
-23.40829115293875
 10
11.29966648310222
 20
-23.59785169993443
 10
11.16425013540005
 20
-23.80199268183805
 10
11.0452535318098
 20
-23.98137745544154
 10
10.85873864256566
 20
-23.98606881090235
 10
10.67614810939711
 20
-23.89290817202805
 10
10.44475258624558
 20
-23.77484611623196
 10
10.21767608875679
 20
-23.64833962060667
 10
9.959874936297939
 20
-23.50999303739028
 10
9.950596477720004
 20
-23.61658361209528
 10
9.930848105209152
 20
-23.67665157848223
 10
9.943254134094406
 20
-23.72912401698014
 10
10.00161310670612
 20
-23.97601218304554
 10
9.975237263782723
 20
-24.19195974285847
 10
9.690710278390193
 20
-24.25403456685904
 10
9.407233263029258
 20
-24.31588226968251
 10
9.295139653902397
 20
-24.12446752029069
 10
9.232848878619025
 20
-23.8835403542982
 10
9.171891044013843
 20
-23.64774761622696
 10
9.085972219719854
 20
-23.41769620364807
 10
9.036534269079185
 20
-23.17981841870513
 10
8.979441217782323
 20
-22.90513583318443
 10
8.819741520623033
 20
-22.76955566037026
 10
8.488941387877325
 20
-22.72606753990916
 10
8.597706368605535
 20
-23.16613529861166
 10
8.692032399749475
 20
-23.57671826057362
 10
8.802219680307567
 20
-23.9830008133629
 10
8.870363480023064
 20
-24.23426385456054
 10
8.926793784278817
 20
-24.49732602707167
 10
8.616836673650873
 20
-24.59472750235043
 10
8.257009709816125
 20
-24.70781150874139
 10
8.174553552647719
 20
-24.41581186429332
 10
8.101390747248716
 20
-24.15199013899319
 10
8.003721194515012
 20
-23.79983689230486
 10
7.856137108998735
 20
-23.45229681181985
 10
7.821048748790644
 20
-23.09385863813304
 10
7.736559670922941
 20
-22.23074231581667
 10
7.245047103965816
 20
-21.75241394702362
 10
6.409330531518358
 20
-21.50159770158403
 10
6.312353512209887
 20
-22.15754972403346
 10
6.214743532243674
 20
-22.77918038566069
 10
6.855582688173424
 20
-23.27966237746194
 10
7.237116479258575
 20
-23.57762302198388
 10
7.551042625538482
 20
-23.96244820848763
 10
7.893355195653308
 20
-24.31020051695792
 10
8.071276713148892
 20
-24.4909480176236
 10
8.252981101396951
 20
-24.6937299957632
 10
8.019128201575869
 20
-24.93629913616625
 10
7.786213572846135
 20
-25.17791138898764
 10
7.568862329693324
 20
-25.02189031023792
 10
7.394611984010553
 20
-24.83120532725138
 10
7.097842794844179
 20
-24.50644438383584
 10
6.814335993099373
 20
-24.16956038218278
 10
6.468270338615613
 20
-23.77236267647598
 10
6.301444249114561
 20
-24.21970948273848
 10
6.351351335301059
 20
-24.43421984952945
 10
6.555559336568649
 20
-24.61784545953749
 10
6.6763282299996
 20
-24.72643916855848
 10
6.795228027841807
 20
-24.83955668463055
 10
6.899279313321458
 20
-24.96377707529319
 10
7.080715624114569
 20
-25.18039482874347
 10
7.459568640651013
 20
-25.35609726064028
 10
7.168563116765047
 20
-25.7148258515693
 10
6.899659089716148
 20
-26.04631479444262
 10
6.672560252439021
 20
-25.67972259817012
 10
6.349474793116743
 20
-25.57448358063334
 10
6.349474793116743
 20
-25.86197431122153
 10
6.350450297188873
 20
-26.11462241926958
 10
6.34917692927815
 20
-26.36726308072154
 10
6.348000367115168
 20
-26.60085162638598
 10
6.249809552663464
 20
-26.77698968414694
 10
6.001562382833374
 20
-26.77777530002166
 10
5.751140806979845
 20
-26.77856836249207
 10
5.660225316790122
 20
-26.58887377676931
 10
5.643083252868816
 20
-26.3661274748364
 10
5.626067781079174
 20
-26.14506410359223
 10
5.620661552405408
 20
-25.92311458742804
 10
5.61145755978714
 20
-25.72900789359306
 10
5.511405096343069
 20
-25.62097267927013
 10
5.440640094846356
 20
-25.6743908354561
 10
5.379101425755404
 20
-25.71785661612916
 10
5.171296718634999
 20
-25.86462529938682
 10
4.962777138301589
 20
-25.91589138933735
 10
4.797246756498755
 20
-25.67611099912486
 10
4.652328552339491
 20
-25.46618773545098
 10
4.774259114741223
 20
-25.29141240475236
 10
4.924062285857062
 20
-25.13771838724347
 10
5.080172723758348
 20
-24.97757189432665
 10
5.234101309040574
 20
-24.81483026271444
 10
5.397650896315199
 20
-24.66253248194958
 10
5.592431507085721
 20
-24.4811482973282
 10
5.694174347814674
 20
-24.28055934170195
 10
5.568259856569081
 20
-23.97449307746791
 10
5.154445071956463
 20
-24.17663464835376
 10
4.919676240831019
 20
-24.56456878867486
 10
4.598221586026359
 20
-24.84896918193598
 10
4.396091185034694
 20
-25.02779546084195
 10
4.190222592866095
 20
-25.16478304029374
 10
3.970346953679053
 20
-24.92002460067541
 10
3.775164226726625
 20
-24.70274410018404
 10
3.915011299030993
 20
-24.50896133327347
 10
4.084979852031539
 20
-24.33887735803597
 10
4.386775493477014
 20
-24.03689182839319
 10
4.656394393738663
 20
-23.69323887100346
 10
4.99307733730057
 20
-23.43763446435582
 10
5.654610583429681
 20
-22.93540996909749
 10
5.748199401572264
 20
-22.29334584813096
 10
5.568274749761005
 20
-21.5169451358771
 10
4.884051725714041
 20
-21.75614841490222
 10
4.325475115456886
 20
-22.05965677342096
 10
4.233234131184746
 20
-22.89134101415084
 10
4.182351540926093
 20
-23.35009228214042
 10
4.007654399485318
 20
-23.79595721580515
 10
3.879230405398225
 20
-24.24490504020085
 10
3.813417390221451
 20
-24.47497879256778
 10
3.692164468052447
 20
-24.67674058705888
 10
3.407838540750743
 20
-24.60346235942264
 10
3.120653120596746
 20
-24.52944691878542
 10
3.118791471604658
 20
-24.29301377346054
 10
3.17600366843731
 20
-24.06143580870819
 10
3.282430418031228
 20
-23.63071352794708
 10
3.401806798015614
 20
-23.2031932834532
 10
3.521875711425258
 20
-22.75142319918485
 10
3.134928245070189
 20
-22.74574144646057
 10
3.016862465976272
 20
-22.97838055113862
 10
2.939752964713887
 20
-23.25543860077416
 10
2.901671072926572
 20
-23.39231075798875
 10
2.867439071255653
 20
-23.53027011821485
 10
2.828351889012537
 20
-23.66685185818639
 10
2.752433843105109
 20
-23.93215173278612
 10
2.749805194727791
 20
-24.29014311071445
 10
2.351643154842703
 20
-24.2567376811961
 10
1.917372571102886
 20
-24.22030521041625
 10
2.103753421618976
 20
-23.82285059714862
 10
2.025273746698379
 20
-23.57554914500626
 10
1.782216854259331
 20
-23.57997614630972
 10
1.61863748060053
 20
-23.75148614467611
 10
1.422739880435124
 20
-23.84863071239402
 10
1.20983425507509
 20
-23.95421971994124
 10
0.9856470368224815
 20
-24.04098000958013
 10
0.8322024802777024
 20
-23.79096427320749
 10
0.6590244444151318
 20
-23.508801582035
 10
0.8517795810813215
 20
-23.34258239010528
 10
1.079481592632014
 20
-23.20715487250903
 10
1.268357052798187
 20
-23.09481180241722
 10
1.454335787132903
 20
-22.97759493526374
 10
1.686982338407144
 20
-22.83465007903654
 10
1.532033569476905
 20
-22.7578570581025
 10
1.42209947318156
 20
-22.71136423616806
 10
1.320334292664534
 20
-22.65107659520027
 10
1.16769396848445
 20
-22.56064513374834
 10
1.077582710659928
 20
-22.42891485105054
 10
1.13636613924162
 20
-22.24572859020486
 10
1.202975940187772
 20
-22.03812121787751
 10
1.363814966529263
 20
-21.9632717584914
 10
1.567762336938004
 20
-22.00420569653513
 10
1.826330488781523
 20
-22.05610102384541
 10
2.089232559478887
 20
-22.10378157783708
 10
2.335908497559886
 20
-22.19298435095417
 10
2.621939695338167
 20
-22.29641384566985
 10
2.846022661247691
 20
-22.25256456530486
 10
3.088416806645682
 20
-21.96223295835388
 10
2.621507792772061
 20
-21.82883091486097
 10
2.187966975436691
 20
-21.7024398414732
 10
1.752877266140002
 20
-21.5816560548504
 10
1.511644789713045
 20
-21.51468881729806
 10
1.323521435739596
 20
-21.39045353344348
 10
1.40031817997116
 20
-21.11422950255681
 10
1.474925624987854
 20
-20.84591375658957
 10
1.688009968650956
 20
-20.81124240575612
 10
1.938975146009726
 20
-20.88306110058278
 10
2.329318260126759
 20
-20.99475631682458
 10
2.74828608915013
 20
-21.03936887327707
 10
3.111166157332136
 20
-21.20737152494138
 10
3.913916649423274
 20
-21.57901623657944
 10
4.55533663983907
 20
-21.32474849390805
 10
5.186197357169803
 20
-20.77287009672596
 10
4.594073832071368
 20
-20.32053779446222
 10
4.029264420988511
 20
-19.93184410135235
 10
3.224317183086693
 20
-20.31486348833373
 10
2.827785947718969
 20
-20.50354533700501
 10
2.366811870832457
 20
-20.5562188335943
 10
1.935698643783553
 20
-20.67301124477694
 10
1.688151453974266
 20
-20.74006784148138
 10
1.471328919135051
 20
-20.70403748688333
 10
1.400273500395314
 20
-20.431142084395
 10
1.327244733724051
 20
-20.15067721710334
 10
1.521556208948191
 20
-20.03278643301474
 10
1.759594095704263
 20
-19.96723404869653
 10
2.188413771194695
 20
-19.84914592981471
 10
2.616503680280477
 20
-19.72841799266181
 10
3.082049967091961
 20
-19.59841904352735
 10
2.878713217553189
 20
-19.3274187997125
 10
2.668696871429877
 20
-19.24647057822792
 10
2.384519876047332
 20
-19.3509239798897
 10
2.23273591040437
 20
-19.40670643029638
 10
2.073646834115278
 20
-19.4500530654339
 10
1.914096068876182
 20
-19.47553531684096
 10
1.650709969440792
 20
-19.51760858406777
 10
1.330327624454967
 20
-19.72151127490042
 10
1.16268240939755
 20
-19.34910328717514
 10
0.9830928544043519
 20
-18.9501630780118
 10
1.394331116811852
 20
-18.91362635488819
 10
1.654381141253035
 20
-18.71402034992972
 10
1.402209615347399
 20
-18.55284995006721
 10
1.170188578134532
 20
-18.41502090527069
 10
0.9499778421288738
 20
-18.26039233996749
 10
0.7844698001143923
 20
-18.14418076326971
 10
0.7098474619057368
 20
-17.98082478749041
 10
0.8146136205986698
 20
-17.7842011442175
 10
0.922000981072238
 20
-17.58265902430722
 10
1.106080833434589
 20
-17.56808975929334
 10
1.28727885315685
 20
-17.64657688081027
 10
1.525420992256259
 20
-17.74973457477361
 10
1.751313480986242
 20
-17.88115582373876
 10
2.027820482519877
 20
-18.02382143261709
 10
2.035617068499605
 20
-17.87609586177723
 10
2.045766778806106
 20
-17.7819857819168
 10
2.044485964299825
 20
-17.68803208057152
 10
2.041671151022771
 20
-17.48181349839263
 10
2.109598999455227
 20
-17.32433661013068
 10
2.332013927867667
 20
-17.28898389576625
 10
2.590075711185388
 20
-17.24796432186902
 10
2.699473652571314
 20
-17.42257582745626
 10
2.764259037504264
 20
-17.62726785746167
 10
2.831568818471219
 20
-17.83988678887638
 10
2.882883311296204
 20
-18.057911948965
 10
2.93363930942294
 20
-18.27533393477971
 10
2.997963005405924
 20
-18.55088777202958
 10
3.1233264485502
 20
-18.76634013321055
 10
3.469533588356991
 20
-18.83265951691333
 10
3.480599229967588
 20
-18.37728155689777
 10
3.281812350565435
 20
-17.97898920158362
 10
3.190747928456276
 20
-17.56086283790513
 10
3.136171826597319
 20
-17.31028488353667
 10
3.086339206370287
 20
-17.04403184465263
 10
3.396683539988505
 20
-16.94951220201361
 10
3.713528751888184
 20
-16.85301548814514
 10
3.821653325363361
 20
-17.10148977915208
 10
3.890735396171016
 20
-17.35023587091223
 10
4.015696723132249
 20
-17.80018898576362
 10
4.192605503576209
 20
-18.24539117238709
 10
4.243376394895145
 20
-18.70413871707819
 10
4.333562118679916
 20
-19.51915747602902
 10
4.915297642400749
 20
-19.77595333803209
 10
5.571752310078813
 20
-20.05664904979833
 10
5.704584688980061
 20
-19.30736139346888
 10
5.718710881533499
 20
-18.66351008946943
 10
5.053059667834127
 20
-18.16779019579028
 10
4.71424699782488
 20
-17.91548090785916
 10
4.442446244943665
 20
-17.57297472624903
 10
4.141506962034807
 20
-17.27009188179193
 10
3.950918784795122
 20
-17.07826012302571
 10
3.7217349006465
 20
-16.8649151485043
 10
4.001965200164881
 20
-16.60635071995832
 10
4.271092625092933
 20
-16.35801046767874
 10
4.484668444089871
 20
-16.58294606882709
 10
4.672374788689189
 20
-16.77736551969236
 10
4.938411876289945
 20
-17.05292308024028
 10
5.199675695874399
 20
-17.33309008369277
 10
5.480114500080238
 20
-17.62939013731319
 10
5.75685979268471
 20
-17.26175914090221
 10
5.566055664162275
 20
-17.06020585109806
 10
5.363202943361228
 20
-16.86049187049846
 10
5.261787752854742
 20
-16.76064418844306
 10
5.158205602920916
 20
-16.66257624282515
 10
5.062613650462354
 20
-16.55733350199029
 10
4.877997643190584
 20
-16.3540786650068
 10
4.575382876188515
 20
-16.1658212723061
 10
4.826556558234212
 20
-15.84302623022694
 10
5.053774541047131
 20
-15.55102286248098
 10
5.297263336052537
 20
-15.79012933575889
 10
5.516163471167171
 20
-15.92443614066165
 10
5.706781434790463
 20
-15.68041863734222
 10
5.605805593446448
 20
-15.42962100839279
 10
5.636865345234531
 20
-15.20100306553806
 10
5.666808107627426
 20
-14.98054659186555
 10
5.735986984182848
 20
-14.78218416843388
 10
5.986252181520285
 20
-14.77786514277194
 10
6.272879106976536
 20
-14.77292060304848
 10
6.354344866881369
 20
-14.97849505467598
 10
6.35143324785713
 20
-15.2325245062761
 10
6.348886512035126
 20
-15.45546441970471
 10
6.350904539543029
 20
-15.67845273600624
 10
6.350904539543029
 20
-15.88403463422987
 10
6.523457061344792
 20
-16.0153739706393
 10
6.588302019045512
 20
-15.8591146008186
 10
6.674853803997494
 20
-15.80112051140958
 10
6.850422197166557
 20
-15.68348291158362
 10
7.014634531482821
 20
-15.66342922863805
 10
7.165681284124426
 20
-15.82704211197859
 10
7.341994336890921
 20
-16.01803612869819
 10
7.276099409158354
 20
-16.20106228773124
 10
7.121470843854467
 20
-16.36573258769903
 10
6.954518162222282
 20
-16.54352751306305
 10
6.787639946549006
 20
-16.72284526730292
 10
6.606039810644814
 20
-16.88506191389903
 10
6.387340733621006
 20
-17.08043080575112
 10
6.288971200865969
 20
-17.30069739122597
 10
6.403336021763228
 20
-17.62527961633764
 10
6.786321899062461
 20
-17.40995384728833
 10
7.027524589105773
 20
-17.05169066860708
 10
7.33503176965976
 20
-16.7709577238607
 10
7.806870430065221
 20
-16.34020193341805
 10
8.008360423803599
 20
-16.40613409413069
 10
8.166071879838353
 20
-17.05350019142777
 10
7.698045876569241
 20
-17.34562270470888
 10
7.407353109713842
 20
-17.83502788500653
 10
6.972114468497996
 20
-18.15359326057501
 10
6.294950817429176
 20
-18.64923496499651
 10
6.276982181355151
 20
-19.30443488125305
 10
6.401057363396425
 20
-20.08774231126861
 10
6.860236810654466
 20
-19.82059195757041
 10
7.429886509117245
 20
-19.74576111467457
 10
7.603340069030941
 20
-19.21518742856068
 10
7.834802611546592
 20
-18.50716880709347
 10
7.976206022408328
 20
-17.76970634516333
 10
8.156287052734569
 20
-17.04489192648723
 97
        0
 97
        1
330
79
 75
     2
 76
     1
 98
        1
 10
0.0
 20
0.0
450
        0
451
        0
460
0.0
461
0.0
452
        0
462
0.0
453
        0
470

  0
ENDSEC
  0
SECTION
  2
OBJECTS
  0
DICTIONARY
  5
C
330
0
100
AcDbDictionary
281
     1
  3
ACAD_COLOR
350
63
  3
ACAD_DETAILVIEWSTYLE
350
6A
  3
ACAD_GROUP
350
D
  3
ACAD_LAYOUT
350
62
  3
ACAD_MATERIAL
350
10
  3
ACAD_MLEADERSTYLE
350
66
  3
ACAD_MLINESTYLE
350
5F
  3
ACAD_PLOTSETTINGS
350
61
  3
ACAD_PLOTSTYLENAME
350
E
  3
ACAD_SCALELIST
350
42
  3
ACAD_SECTIONVIEWSTYLE
350
68
  3
ACAD_TABLESTYLE
350
64
  3
ACAD_VISUALSTYLE
350
29
  3
ACDB_RECOMPOSE_DATA
350
83
  3
AcDbVariableDictionary
350
7B
  0
DICTIONARY
  5
63
102
{ACAD_REACTORS
330
C
102
}
330
C
100
AcDbDictionary
281
     1
  0
DICTIONARY
  5
6A
102
{ACAD_REACTORS
330
C
102
}
330
C
100
AcDbDictionary
281
     1
  3
Imperial24
350
6B
  0
DICTIONARY
  5
D
102
{ACAD_REACTORS
330
C
102
}
330
C
100
AcDbDictionary
281
     1
  0
DICTIONARY
  5
62
102
{ACAD_REACTORS
330
C
102
}
330
C
100
AcDbDictionary
281
     1
  3
Layout1
350
6F
  3
Layout2
350
77
  3
Model
350
73
  0
DICTIONARY
  5
10
102
{ACAD_REACTORS
330
C
102
}
330
C
100
AcDbDictionary
281
     1
  3
ByBlock
350
19
  3
ByLayer
350
11
  3
Global
350
21
  0
DICTIONARY
  5
66
102
{ACAD_REACTORS
330
C
102
}
330
C
100
AcDbDictionary
281
     1
  3
Standard
350
67
  0
DICTIONARY
  5
5F
102
{ACAD_REACTORS
330
C
102
}
330
C
100
AcDbDictionary
281
     1
  3
Standard
350
60
  0
DICTIONARY
  5
61
102
{ACAD_REACTORS
330
C
102
}
330
C
100
AcDbDictionary
281
     1
  0
ACDBDICTIONARYWDFLT
  5
E
102
{ACAD_REACTORS
330
C
102
}
330
C
100
AcDbDictionary
281
     1
  3
Normal
350
F
100
AcDbDictionaryWithDefault
340
F
  0
DICTIONARY
  5
42
102
{ACAD_REACTORS
330
C
102
}
330
C
100
AcDbDictionary
281
     1
  3
A0
350
43
  3
A1
350
44
  3
A2
350
45
  3
A3
350
46
  3
A4
350
47
  3
A5
350
48
  3
A6
350
49
  3
A7
350
4A
  3
A8
350
4B
  3
A9
350
4C
  3
B0
350
4D
  3
B1
350
4E
  3
B2
350
4F
  3
B3
350
50
  3
B4
350
51
  3
B5
350
52
  3
B6
350
53
  0
DICTIONARY
  5
68
102
{ACAD_REACTORS
330
C
102
}
330
C
100
AcDbDictionary
281
     1
  3
Imperial24
350
69
  0
DICTIONARY
  5
64
102
{ACAD_REACTORS
330
C
102
}
330
C
100
AcDbDictionary
281
     1
  3
Standard
350
65
  0
DICTIONARY
  5
29
102
{ACAD_REACTORS
330
C
102
}
330
C
100
AcDbDictionary
281
     1
  3
2dWireframe
350
2F
  3
Basic
350
2E
  3
Brighten
350
35
  3
ColorChange
350
39
  3
Conceptual
350
32
  3
Dim
350
34
  3
EdgeColorOff
350
41
  3
Facepattern
350
38
  3
Flat
350
2A
  3
FlatWithEdges
350
2B
  3
Gouraud
350
2C
  3
GouraudWithEdges
350
2D
  3
Hidden
350
31
  3
JitterOff
350
3F
  3
Linepattern
350
37
  3
OverhangOff
350
40
  3
Realistic
350
33
  3
Shaded
350
3E
  3
Shaded with edges
350
3D
  3
Shades of Gray
350
3A
  3
Sketchy
350
3B
  3
Thicken
350
36
  3
Wireframe
350
30
  3
X-Ray
350
3C
  0
XRECORD
  5
83
102
{ACAD_REACTORS
330
C
102
}
330
C
100
AcDbXrecord
280
     1
 90
        1
330
65
  0
DICTIONARY
  5
7B
102
{ACAD_REACTORS
330
C
102
}
330
C
100
AcDbDictionary
281
     1
  3
CANNOSCALE
350
80
  3
CMLEADERSTYLE
350
7D
  3
CTABLESTYLE
350
7C
  3
CVIEWDETAILSTYLE
350
7E
  3
CVIEWSECTIONSTYLE
350
7F
  0
ACDBDETAILVIEWSTYLE
  5
6B
102
{ACAD_XDICTIONARY
360
86
102
}
102
{ACAD_REACTORS
330
6A
102
}
330
6A
100
AcDbModelDocViewStyle
 70
     0
  3
Imperial24
290
     0
100
AcDbDetailViewStyle
 70
     0
 71
     0
 90
        3
 71
     1
340
55
 62
   256
 40
0.24
340
0
 62
   256
 40
0.24
300

 40
0.36
280
     3
 71
     2
340
5D
 90
       25
 62
   256
 71
     3
340
55
 62
   256
 40
0.24
 90
        1
 40
0.75
 90
        1
300
%<\AcVar ViewType \f "%tc1">% %<\AcVar ViewDetailId>%\PSCALE %<\AcVar ViewScale \f "%sn">%
 71
     4
340
5D
 90
       25
 62
   256
340
5D
 90
       25
 62
   256
280
     0
  0
LAYOUT
  5
6F
102
{ACAD_REACTORS
330
62
102
}
330
62
100
AcDbPlotSettings
  1

  2

  4

  6

 40
0.0
 41
0.0
 42
0.0
 43
0.0
 44
0.0
 45
0.0
 46
0.0
 47
0.0
 48
0.0
 49
0.0
140
0.0
141
0.0
142
1.0
143
1.0
 70
   688
 72
     0
 73
     0
 74
     5
  7

 75
    16
147
1.0
 76
     0
 77
     2
 78
   300
148
0.0
149
0.0
100
AcDbLayout
  1
Layout1
 70
     1
 71
     1
 10
0.0
 20
0.0
 11
12.0
 21
9.0
 12
0.0
 22
0.0
 32
0.0
 14
0.0
 24
0.0
 34
0.0
 15
0.0
 25
0.0
 35
0.0
146
0.0
 13
0.0
 23
0.0
 33
0.0
 16
1.0
 26
0.0
 36
0.0
 17
0.0
 27
1.0
 37
0.0
 76
     0
330
6C
  0
LAYOUT
  5
77
102
{ACAD_REACTORS
330
62
102
}
330
62
100
AcDbPlotSettings
  1

  2

  4

  6

 40
0.0
 41
0.0
 42
0.0
 43
0.0
 44
0.0
 45
0.0
 46
0.0
 47
0.0
 48
0.0
 49
0.0
140
0.0
141
0.0
142
1.0
143
1.0
 70
   688
 72
     0
 73
     0
 74
     5
  7

 75
    16
147
1.0
 76
     0
 77
     2
 78
   300
148
0.0
149
0.0
100
AcDbLayout
  1
Layout2
 70
     1
 71
     2
 10
0.0
 20
0.0
 11
12.0
 21
9.0
 12
0.0
 22
0.0
 32
0.0
 14
0.0
 24
0.0
 34
0.0
 15
0.0
 25
0.0
 35
0.0
146
0.0
 13
0.0
 23
0.0
 33
0.0
 16
1.0
 26
0.0
 36
0.0
 17
0.0
 27
1.0
 37
0.0
 76
     0
330
74
  0
LAYOUT
  5
73
102
{ACAD_REACTORS
330
62
102
}
330
62
100
AcDbPlotSettings
  1

  2

  4

  6

 40
0.0
 41
0.0
 42
0.0
 43
0.0
 44
0.0
 45
0.0
 46
0.0
 47
0.0
 48
0.0
 49
0.0
140
0.0
141
0.0
142
1.0
143
1.0
 70
  1712
 72
     0
 73
     0
 74
     0
  7

 75
     0
147
1.0
 76
     0
 77
     2
 78
   300
148
0.0
149
0.0
100
AcDbLayout
  1
Model
 70
     1
 71
     0
 10
0.0
 20
0.0
 11
12.0
 21
9.0
 12
0.0
 22
0.0
 32
0.0
 14
0.0
 24
0.0
 34
0.0
 15
0.0
 25
0.0
 35
0.0
146
0.0
 13
0.0
 23
0.0
 33
0.0
 16
1.0
 26
0.0
 36
0.0
 17
0.0
 27
1.0
 37
0.0
 76
     0
330
70
  0
MATERIAL
  5
19
102
{ACAD_XDICTIONARY
360
1A
102
}
102
{ACAD_REACTORS
330
10
102
}
330
10
100
AcDbMaterial
  1
ByBlock
 72
     0
 43
0.0208333333333333
 43
0.0
 43
0.0
 43
0.0
 43
0.0
 43
0.0208333333333333
 43
0.0
 43
0.0
 43
0.0
 43
0.0
 43
1.0
 43
0.0
 43
0.0
 43
0.0
 43
0.0
 43
1.0
 77
     0
 47
0.0208333333333333
 47
0.0
 47
0.0
 47
0.0
 47
0.0
 47
0.0208333333333333
 47
0.0
 47
0.0
 47
0.0
 47
0.0
 47
1.0
 47
0.0
 47
0.0
 47
0.0
 47
0.0
 47
1.0
171
     0
 49
0.0208333333333333
 49
0.0
 49
0.0
 49
0.0
 49
0.0
 49
0.0208333333333333
 49
0.0
 49
0.0
 49
0.0
 49
0.0
 49
1.0
 49
0.0
 49
0.0
 49
0.0
 49
0.0
 49
1.0
175
     0
142
0.0208333333333333
142
0.0
142
0.0
142
0.0
142
0.0
142
0.0208333333333333
142
0.0
142
0.0
142
0.0
142
0.0
142
1.0
142
0.0
142
0.0
142
0.0
142
0.0
142
1.0
179
     0
144
0.0208333333333333
144
0.0
144
0.0
144
0.0
144
0.0
144
0.0208333333333333
144
0.0
144
0.0
144
0.0
144
0.0
144
1.0
144
0.0
144
0.0
144
0.0
144
0.0
144
1.0
147
0.0208333333333333
147
0.0
147
0.0
147
0.0
147
0.0
147
0.0208333333333333
147
0.0
147
0.0
147
0.0
147
0.0
147
1.0
147
0.0
147
0.0
147
0.0
147
0.0
147
1.0
  0
MATERIAL
  5
11
102
{ACAD_XDICTIONARY
360
12
102
}
102
{ACAD_REACTORS
330
10
102
}
330
10
100
AcDbMaterial
  1
ByLayer
 72
     0
 43
0.0208333333333333
 43
0.0
 43
0.0
 43
0.0
 43
0.0
 43
0.0208333333333333
 43
0.0
 43
0.0
 43
0.0
 43
0.0
 43
1.0
 43
0.0
 43
0.0
 43
0.0
 43
0.0
 43
1.0
 77
     0
 47
0.0208333333333333
 47
0.0
 47
0.0
 47
0.0
 47
0.0
 47
0.0208333333333333
 47
0.0
 47
0.0
 47
0.0
 47
0.0
 47
1.0
 47
0.0
 47
0.0
 47
0.0
 47
0.0
 47
1.0
171
     0
 49
0.0208333333333333
 49
0.0
 49
0.0
 49
0.0
 49
0.0
 49
0.0208333333333333
 49
0.0
 49
0.0
 49
0.0
 49
0.0
 49
1.0
 49
0.0
 49
0.0
 49
0.0
 49
0.0
 49
1.0
175
     0
142
0.0208333333333333
142
0.0
142
0.0
142
0.0
142
0.0
142
0.0208333333333333
142
0.0
142
0.0
142
0.0
142
0.0
142
1.0
142
0.0
142
0.0
142
0.0
142
0.0
142
1.0
179
     0
144
0.0208333333333333
144
0.0
144
0.0
144
0.0
144
0.0
144
0.0208333333333333
144
0.0
144
0.0
144
0.0
144
0.0
144
1.0
144
0.0
144
0.0
144
0.0
144
0.0
144
1.0
147
0.0208333333333333
147
0.0
147
0.0
147
0.0
147
0.0
147
0.0208333333333333
147
0.0
147
0.0
147
0.0
147
0.0
147
1.0
147
0.0
147
0.0
147
0.0
147
0.0
147
1.0
  0
MATERIAL
  5
21
102
{ACAD_XDICTIONARY
360
22
102
}
102
{ACAD_REACTORS
330
10
102
}
330
10
100
AcDbMaterial
  1
Global
 72
     0
 43
0.0208333333333333
 43
0.0
 43
0.0
 43
0.0
 43
0.0
 43
0.0208333333333333
 43
0.0
 43
0.0
 43
0.0
 43
0.0
 43
1.0
 43
0.0
 43
0.0
 43
0.0
 43
0.0
 43
1.0
 77
     0
 47
0.0208333333333333
 47
0.0
 47
0.0
 47
0.0
 47
0.0
 47
0.0208333333333333
 47
0.0
 47
0.0
 47
0.0
 47
0.0
 47
1.0
 47
0.0
 47
0.0
 47
0.0
 47
0.0
 47
1.0
171
     0
 49
0.0208333333333333
 49
0.0
 49
0.0
 49
0.0
 49
0.0
 49
0.0208333333333333
 49
0.0
 49
0.0
 49
0.0
 49
0.0
 49
1.0
 49
0.0
 49
0.0
 49
0.0
 49
0.0
 49
1.0
175
     0
142
0.0208333333333333
142
0.0
142
0.0
142
0.0
142
0.0
142
0.0208333333333333
142
0.0
142
0.0
142
0.0
142
0.0
142
1.0
142
0.0
142
0.0
142
0.0
142
0.0
142
1.0
179
     0
144
0.0208333333333333
144
0.0
144
0.0
144
0.0
144
0.0
144
0.0208333333333333
144
0.0
144
0.0
144
0.0
144
0.0
144
1.0
144
0.0
144
0.0
144
0.0
144
0.0
144
1.0
147
0.0208333333333333
147
0.0
147
0.0
147
0.0
147
0.0
147
0.0208333333333333
147
0.0
147
0.0
147
0.0
147
0.0
147
1.0
147
0.0
147
0.0
147
0.0
147
0.0
147
1.0
  0
MLEADERSTYLE
  5
67
102
{ACAD_REACTORS
330
66
102
}
330
66
100
AcDbMLeaderStyle
179
     2
170
     2
171
     1
172
     0
 90
        2
 40
0.0
 41
0.0
173
     1
 91
-1056964608
340
5B
 92
       -2
290
     1
 42
0.09
291
     1
 43
0.36
  3
Standard
 44
0.18
300

342
55
174
     1
178
     6
175
     1
176
     0
 93
-1056964608
 45
0.18
292
     0
297
     0
 46
0.18
 94
-1056964608
 47
1.0
 49
1.0
140
1.0
293
     1
141
0.0
294
     1
177
     0
142
1.0
295
     0
296
     0
143
0.125
271
     0
272
     9
273
     9
298
     1
  0
MLINESTYLE
  5
60
102
{ACAD_REACTORS
330
5F
102
}
330
5F
100
AcDbMlineStyle
  2
STANDARD
 70
     0
  3

 62
   256
 51
90.0
 52
90.0
 71
     2
 49
0.5
 62
   256
  6
BYLAYER
 49
-0.5
 62
   256
  6
BYLAYER
  0
ACDBPLACEHOLDER
  5
F
102
{ACAD_REACTORS
330
E
102
}
330
E
  0
SCALE
  5
43
102
{ACAD_REACTORS
330
42
102
}
330
42
100
AcDbScale
 70
     0
300
1:1
140
1.0
141
1.0
290
     1
  0
SCALE
  5
44
102
{ACAD_REACTORS
330
42
102
}
330
42
100
AcDbScale
 70
     0
300
1/128" = 1'-0"
140
0.0078125
141
12.0
290
     0
  0
SCALE
  5
45
102
{ACAD_REACTORS
330
42
102
}
330
42
100
AcDbScale
 70
     0
300
1/64" = 1'-0"
140
0.015625
141
12.0
290
     0
  0
SCALE
  5
46
102
{ACAD_REACTORS
330
42
102
}
330
42
100
AcDbScale
 70
     0
300
1/32" = 1'-0"
140
0.03125
141
12.0
290
     0
  0
SCALE
  5
47
102
{ACAD_REACTORS
330
42
102
}
330
42
100
AcDbScale
 70
     0
300
1/16" = 1'-0"
140
0.0625
141
12.0
290
     0
  0
SCALE
  5
48
102
{ACAD_REACTORS
330
42
102
}
330
42
100
AcDbScale
 70
     0
300
3/32" = 1'-0"
140
0.09375
141
12.0
290
     0
  0
SCALE
  5
49
102
{ACAD_REACTORS
330
42
102
}
330
42
100
AcDbScale
 70
     0
300
1/8" = 1'-0"
140
0.125
141
12.0
290
     0
  0
SCALE
  5
4A
102
{ACAD_REACTORS
330
42
102
}
330
42
100
AcDbScale
 70
     0
300
3/16" = 1'-0"
140
0.1875
141
12.0
290
     0
  0
SCALE
  5
4B
102
{ACAD_REACTORS
330
42
102
}
330
42
100
AcDbScale
 70
     0
300
1/4" = 1'-0"
140
0.25
141
12.0
290
     0
  0
SCALE
  5
4C
102
{ACAD_REACTORS
330
42
102
}
330
42
100
AcDbScale
 70
     0
300
3/8" = 1'-0"
140
0.375
141
12.0
290
     0
  0
SCALE
  5
4D
102
{ACAD_REACTORS
330
42
102
}
330
42
100
AcDbScale
 70
     0
300
1/2" = 1'-0"
140
0.5
141
12.0
290
     0
  0
SCALE
  5
4E
102
{ACAD_REACTORS
330
42
102
}
330
42
100
AcDbScale
 70
     0
300
3/4" = 1'-0"
140
0.75
141
12.0
290
     0
  0
SCALE
  5
4F
102
{ACAD_REACTORS
330
42
102
}
330
42
100
AcDbScale
 70
     0
300
1" = 1'-0"
140
1.0
141
12.0
290
     0
  0
SCALE
  5
50
102
{ACAD_REACTORS
330
42
102
}
330
42
100
AcDbScale
 70
     0
300
1-1/2" = 1'-0"
140
1.5
141
12.0
290
     0
  0
SCALE
  5
51
102
{ACAD_REACTORS
330
42
102
}
330
42
100
AcDbScale
 70
     0
300
3" = 1'-0"
140
3.0
141
12.0
290
     0
  0
SCALE
  5
52
102
{ACAD_REACTORS
330
42
102
}
330
42
100
AcDbScale
 70
     0
300
6" = 1'-0"
140
6.0
141
12.0
290
     0
  0
SCALE
  5
53
102
{ACAD_REACTORS
330
42
102
}
330
42
100
AcDbScale
 70
     0
300
1'-0" = 1'-0"
140
12.0
141
12.0
290
     0
  0
ACDBSECTIONVIEWSTYLE
  5
69
102
{ACAD_XDICTIONARY
360
84
102
}
102
{ACAD_REACTORS
330
68
102
}
330
68
100
AcDbModelDocViewStyle
 70
     0
  3
Imperial24
290
     0
100
AcDbSectionViewStyle
 70
     0
 71
     0
 90
       78
 71
     1
340
55
 62
   256
 40
0.24
340
0
340
0
 62
   256
 40
0.24
300
I, O, Q, S, X, Z
 40
0.48
 90
        3
 40
0.18
 90
        1
 71
     2
340
5D
 90
       25
 62
   256
340
5D
 90
       50
 62
   256
 40
0.24
 40
0.0
 40
0.24
 71
     3
340
55
 62
   256
 40
0.24
 90
        1
 40
0.75
 90
        1
300
%<\AcVar ViewType \f "%tc1">% %<\AcVar ViewSectionStartId>%-%<\AcVar ViewSectionEndId>%\PSCALE %<\AcVar ViewScale \f "%sn">%
 71
     4
 62
   256
 62
   257
300
ANSI31
 40
1.0
 90
        0
290
     0
290
     0
 90
        6
 40
0.0
 40
1.570796326794896
 40
0.2617993877991494
 40
1.308996938995747
 40
-0.2617993877991494
 40
1.832595714594046
  0
TABLESTYLE
  5
65
102
{ACAD_XDICTIONARY
360
81
102
}
102
{ACAD_REACTORS
330
64
102
}
330
64
100
AcDbTableStyle
280
     0
  3
Standard
 70
     0
 71
     0
 40
0.06
 41
0.06
280
     0
281
     0
  7
Standard
140
0.18
170
     2
 62
     0
 63
     7
283
     0
 90
      512
 91
        0
  1

274
    -2
284
     1
 64
     0
275
    -2
285
     1
 65
     0
276
    -2
286
     1
 66
     0
277
    -2
287
     1
 67
     0
278
    -2
288
     1
 68
     0
279
    -2
289
     1
 69
     0
  7
Standard
140
0.25
170
     5
 62
     0
 63
     7
283
     0
 90
      512
 91
        0
  1

274
    -2
284
     1
 64
     0
275
    -2
285
     1
 65
     0
276
    -2
286
     1
 66
     0
277
    -2
287
     1
 67
     0
278
    -2
288
     1
 68
     0
279
    -2
289
     1
 69
     0
  7
Standard
140
0.18
170
     5
 62
     0
 63
     7
283
     0
 90
      512
 91
        0
  1

274
    -2
284
     1
 64
     0
275
    -2
285
     1
 65
     0
276
    -2
286
     1
 66
     0
277
    -2
287
     1
 67
     0
278
    -2
288
     1
 68
     0
279
    -2
289
     1
 69
     0
  0
VISUALSTYLE
  5
2F
102
{ACAD_REACTORS
330
29
102
}
330
29
100
AcDbVisualStyle
  2
2dWireframe
 70
     4
177
     3
291
     0
 70
    58
 90
        0
176
     1
 90
        2
176
     1
 90
        0
176
     1
 90
        0
176
     1
 40
0.6
176
     1
 40
30.0
176
     1
 62
     7
420
 16777215
176
     1
 90
        1
176
     1
 90
        4
176
     1
 62
     7
176
     1
 62
   257
176
     1
 90
        1
176
     1
 90
        1
176
     1
 40
1.0
176
     1
 90
        0
176
     1
 62
   257
176
     1
 40
1.0
176
     1
 90
        1
176
     1
 90
        6
176
     1
 90
        2
176
     1
 62
     7
176
     1
 90
        5
176
     1
 90
        0
176
     1
 90
        0
176
     1
290
     0
176
     1
 90
        1
176
     1
 40
0.0
176
     1
 90
        0
176
     1
290
     1
176
     1
290
     1
176
     1
290
     0
176
     1
290
     0
176
     1
290
     0
176
     1
290
     0
176
     1
290
     0
176
     1
290
     0
176
     1
290
     0
176
     1
 90
       50
176
     1
 40
0.0
176
     1
 40
1.0
176
     1
 90
        0
176
     1
 62
    18
420
        0
176
     1
 90
       50
176
     1
 90
        3
176
     1
 62
     5
420
      255
176
     1
290
     0
176
     1
 90
       50
176
     1
 90
       50
176
     1
 90
       50
176
     1
290
     0
176
     1
 90
       50
176
     1
 62
   256
176
     0
 40
1.0
176
     0
 90
        2
176
     1
  1
strokes_ogs.tif
176
     1
290
     0
176
     1
 40
1.0
176
     1
 40
1.0
176
     1
1001
ACAD
1000
AcDbSavedByObjectVersion
1070
     0
  0
VISUALSTYLE
  5
2E
102
{ACAD_REACTORS
330
29
102
}
330
29
100
AcDbVisualStyle
  2
Basic
 70
     7
177
     3
291
     1
 70
    58
 90
        1
176
     1
 90
        0
176
     1
 90
        1
176
     1
 90
        0
176
     1
 40
0.6
176
     1
 40
30.0
176
     1
 62
     7
420
 16777215
176
     1
 90
        0
176
     1
 90
        4
176
     1
 62
     7
176
     1
 62
   257
176
     1
 90
        1
176
     1
 90
        1
176
     1
 40
1.0
176
     1
 90
        8
176
     1
 62
     7
176
     1
 40
1.0
176
     1
 90
        1
176
     1
 90
        6
176
     1
 90
        2
176
     1
 62
     7
176
     1
 90
        5
176
     1
 90
        0
176
     1
 90
        0
176
     1
290
     0
176
     1
 90
        1
176
     1
 40
0.0
176
     1
 90
        0
176
     1
290
     0
176
     1
290
     1
176
     1
290
     1
176
     1
290
     0
176
     1
290
     0
176
     1
290
     0
176
     1
290
     0
176
     1
290
     0
176
     1
290
     0
176
     1
 90
       50
176
     1
 40
0.0
176
     1
 40
1.0
176
     1
 90
        0
176
     1
 62
    18
420
        0
176
     1
 90
       50
176
     1
 90
        3
176
     1
 62
     5
420
      255
176
     1
290
     0
176
     1
 90
       50
176
     1
 90
       50
176
     1
 90
       50
176
     1
290
     0
176
     1
 90
       50
176
     1
 62
   256
176
     0
 40
1.0
176
     0
 90
        2
176
     1
  1
strokes_ogs.tif
176
     1
290
     0
176
     1
 40
1.0
176
     1
 40
1.0
176
     1
1001
ACAD
1000
AcDbSavedByObjectVersion
1070
     0
  0
VISUALSTYLE
  5
35
102
{ACAD_REACTORS
330
29
102
}
330
29
100
AcDbVisualStyle
  2
Brighten
 70
    12
177
     3
291
     1
 70
    58
 90
        2
176
     1
 90
        2
176
     1
 90
        0
176
     1
 90
        0
176
     1
 40
0.6
176
     1
 40
30.0
176
     1
 62
     7
420
 16777215
176
     1
 90
        1
176
     1
 90
        4
176
     1
 62
     7
176
     1
 62
   257
176
     1
 90
        1
176
     1
 90
        1
176
     1
 40
1.0
176
     1
 90
        8
176
     1
 62
     7
176
     1
 40
1.0
176
     1
 90
        1
176
     1
 90
        6
176
     1
 90
        2
176
     1
 62
     7
176
     1
 90
        5
176
     1
 90
        0
176
     1
 90
        0
176
     1
290
     0
176
     1
 90
        1
176
     1
 40
50.0
176
     1
 90
        0
176
     1
290
     0
176
     1
290
     1
176
     1
290
     1
176
     1
290
     0
176
     1
290
     0
176
     1
290
     0
176
     1
290
     0
176
     1
290
     0
176
     1
290
     0
176
     1
 90
       50
176
     1
 40
0.0
176
     1
 40
1.0
176
     1
 90
        0
176
     1
 62
    18
420
        0
176
     1
 90
       50
176
     1
 90
        3
176
     1
 62
     5
420
      255
176
     1
290
     0
176
     1
 90
       50
176
     1
 90
       50
176
     1
 90
       50
176
     1
290
     0
176
     1
 90
       50
176
     1
 62
   256
176
     0
 40
1.0
176
     0
 90
        2
176
     1
  1
strokes_ogs.tif
176
     1
290
     0
176
     1
 40
1.0
176
     1
 40
1.0
176
     1
1001
ACAD
1000
AcDbSavedByObjectVersion
1070
     0
  0
VISUALSTYLE
  5
39
102
{ACAD_REACTORS
330
29
102
}
330
29
100
AcDbVisualStyle
  2
ColorChange
 70
    16
177
     3
291
     1
 70
    58
 90
        2
176
     1
 90
        2
176
     1
 90
        3
176
     1
 90
        0
176
     1
 40
0.6
176
     1
 40
30.0
176
     1
 62
     8
420
  8421504
176
     1
 90
        1
176
     1
 90
        4
176
     1
 62
     7
176
     1
 62
   257
176
     1
 90
        1
176
     1
 90
        1
176
     1
 40
1.0
176
     1
 90
        8
176
     1
 62
     8
420
  8421504
176
     1
 40
1.0
176
     1
 90
        1
176
     1
 90
        6
176
     1
 90
        2
176
     1
 62
     7
176
     1
 90
        5
176
     1
 90
        0
176
     1
 90
        0
176
     1
290
     0
176
     1
 90
        1
176
     1
 40
0.0
176
     1
 90
        0
176
     1
290
     0
176
     1
290
     1
176
     1
290
     1
176
     1
290
     0
176
     1
290
     0
176
     1
290
     0
176
     1
290
     0
176
     1
290
     0
176
     1
290
     0
176
     1
 90
       50
176
     1
 40
0.0
176
     1
 40
1.0
176
     1
 90
        0
176
     1
 62
    18
420
        0
176
     1
 90
       50
176
     1
 90
        3
176
     1
 62
     5
420
      255
176
     1
290
     0
176
     1
 90
       50
176
     1
 90
       50
176
     1
 90
       50
176
     1
290
     0
176
     1
 90
       50
176
     1
 62
   256
176
     0
 40
1.0
176
     0
 90
        2
176
     1
  1
strokes_ogs.tif
176
     1
290
     0
176
     1
 40
1.0
176
     1
 40
1.0
176
     1
1001
ACAD
1000
AcDbSavedByObjectVersion
1070
     0
  0
VISUALSTYLE
  5
32
102
{ACAD_REACTORS
330
29
102
}
330
29
100
AcDbVisualStyle
  2
Conceptual
 70
     9
177
     3
291
     0
 70
    58
 90
        3
176
     1
 90
        2
176
     1
 90
        0
176
     1
 90
        0
176
     1
 40
0.6
176
     1
 40
30.0
176
     1
 62
     7
420
 16777215
176
     1
 90
        2
176
     1
 90
        2
176
     1
 62
     7
176
     1
 62
   257
176
     1
 90
        1
176
     1
 90
        1
176
     1
 40
179.0
176
     1
 90
        8
176
     1
 62
     7
176
     1
 40
1.0
176
     1
 90
        1
176
     1
 90
        6
176
     1
 90
        2
176
     1
 62
     7
176
     1
 90
        3
176
     1
 90
        0
176
     1
 90
        0
176
     1
290
     0
176
     1
 90
        1
176
     1
 40
0.0
176
     1
 90
        0
176
     1
290
     0
176
     1
290
     1
176
     1
290
     1
176
     1
290
     0
176
     1
290
     0
176
     1
290
     0
176
     1
290
     0
176
     1
290
     0
176
     1
290
     0
176
     1
 90
       50
176
     1
 40
0.0
176
     1
 40
1.0
176
     1
 90
        0
176
     1
 62
    18
420
        0
176
     1
 90
       50
176
     1
 90
        3
176
     1
 62
     5
420
      255
176
     1
290
     0
176
     1
 90
       50
176
     1
 90
       50
176
     1
 90
       50
176
     1
290
     0
176
     1
 90
       50
176
     1
 62
   256
176
     0
 40
1.0
176
     0
 90
        2
176
     1
  1
strokes_ogs.tif
176
     1
290
     0
176
     1
 40
1.0
176
     1
 40
1.0
176
     1
1001
ACAD
1000
AcDbSavedByObjectVersion
1070
     0
  0
VISUALSTYLE
  5
34
102
{ACAD_REACTORS
330
29
102
}
330
29
100
AcDbVisualStyle
  2
Dim
 70
    11
177
     3
291
     1
 70
    58
 90
        2
176
     1
 90
        2
176
     1
 90
        0
176
     1
 90
        0
176
     1
 40
0.6
176
     1
 40
30.0
176
     1
 62
     7
420
 16777215
176
     1
 90
        1
176
     1
 90
        4
176
     1
 62
     7
176
     1
 62
   257
176
     1
 90
        1
176
     1
 90
        1
176
     1
 40
1.0
176
     1
 90
        8
176
     1
 62
     7
176
     1
 40
1.0
176
     1
 90
        1
176
     1
 90
        6
176
     1
 90
        2
176
     1
 62
     7
176
     1
 90
        5
176
     1
 90
        0
176
     1
 90
        0
176
     1
290
     0
176
     1
 90
        1
176
     1
 40
-50.0
176
     1
 90
        0
176
     1
290
     0
176
     1
290
     1
176
     1
290
     1
176
     1
290
     0
176
     1
290
     0
176
     1
290
     0
176
     1
290
     0
176
     1
290
     0
176
     1
290
     0
176
     1
 90
       50
176
     1
 40
0.0
176
     1
 40
1.0
176
     1
 90
        0
176
     1
 62
    18
420
        0
176
     1
 90
       50
176
     1
 90
        3
176
     1
 62
     5
420
      255
176
     1
290
     0
176
     1
 90
       50
176
     1
 90
       50
176
     1
 90
       50
176
     1
290
     0
176
     1
 90
       50
176
     1
 62
   256
176
     0
 40
1.0
176
     0
 90
        2
176
     1
  1
strokes_ogs.tif
176
     1
290
     0
176
     1
 40
1.0
176
     1
 40
1.0
176
     1
1001
ACAD
1000
AcDbSavedByObjectVersion
1070
     0
  0
VISUALSTYLE
  5
41
102
{ACAD_REACTORS
330
29
102
}
330
29
100
AcDbVisualStyle
  2
EdgeColorOff
 70
    22
177
     3
291
     1
 70
    58
 90
        2
176
     0
 90
        2
176
     0
 90
        0
176
     0
 90
        0
176
     0
 40
0.6
176
     0
 40
30.0
176
     0
 62
     7
420
 16777215
176
     0
 90
        1
176
     0
 90
        4
176
     0
 62
     7
176
     0
 62
   257
176
     0
 90
        1
176
     0
 90
        1
176
     0
 40
1.0
176
     0
 90
        8
176
     2
 62
     7
176
     0
 40
1.0
176
     0
 90
        1
176
     0
 90
        6
176
     0
 90
        2
176
     0
 62
     7
176
     0
 90
        5
176
     0
 90
        0
176
     0
 90
        0
176
     0
290
     0
176
     0
 90
        1
176
     0
 40
0.0
176
     0
 90
        0
176
     0
290
     0
176
     0
290
     1
176
     0
290
     1
176
     0
290
     0
176
     0
290
     0
176
     0
290
     0
176
     0
290
     0
176
     0
290
     0
176
     0
290
     0
176
     0
 90
       50
176
     0
 40
0.0
176
     0
 40
1.0
176
     0
 90
        0
176
     0
 62
    18
420
        0
176
     0
 90
       50
176
     0
 90
        3
176
     0
 62
     5
420
      255
176
     0
290
     0
176
     0
 90
       50
176
     0
 90
       50
176
     0
 90
       50
176
     0
290
     0
176
     0
 90
       50
176
     0
 62
   256
176
     0
 40
1.0
176
     0
 90
        2
176
     0
  1
strokes_ogs.tif
176
     0
290
     0
176
     0
 40
1.0
176
     0
 40
1.0
176
     0
1001
ACAD
1000
AcDbSavedByObjectVersion
1070
     0
  0
VISUALSTYLE
  5
38
102
{ACAD_REACTORS
330
29
102
}
330
29
100
AcDbVisualStyle
  2
Facepattern
 70
    15
177
     3
291
     1
 70
    58
 90
        2
176
     1
 90
        2
176
     1
 90
        0
176
     1
 90
        0
176
     1
 40
0.6
176
     1
 40
30.0
176
     1
 62
     7
420
 16777215
176
     1
 90
        1
176
     1
 90
        4
176
     1
 62
     7
176
     1
 62
   257
176
     1
 90
        1
176
     1
 90
        1
176
     1
 40
1.0
176
     1
 90
        8
176
     1
 62
     7
176
     1
 40
1.0
176
     1
 90
        1
176
     1
 90
        6
176
     1
 90
        2
176
     1
 62
     7
176
     1
 90
        5
176
     1
 90
        0
176
     1
 90
        0
176
     1
290
     0
176
     1
 90
        1
176
     1
 40
0.0
176
     1
 90
        0
176
     1
290
     0
176
     1
290
     1
176
     1
290
     1
176
     1
290
     0
176
     1
290
     0
176
     1
290
     0
176
     1
290
     0
176
     1
290
     0
176
     1
290
     0
176
     1
 90
       50
176
     1
 40
0.0
176
     1
 40
1.0
176
     1
 90
        0
176
     1
 62
    18
420
        0
176
     1
 90
       50
176
     1
 90
        3
176
     1
 62
     5
420
      255
176
     1
290
     0
176
     1
 90
       50
176
     1
 90
       50
176
     1
 90
       50
176
     1
290
     0
176
     1
 90
       50
176
     1
 62
   256
176
     0
 40
1.0
176
     0
 90
        2
176
     1
  1
strokes_ogs.tif
176
     1
290
     0
176
     1
 40
1.0
176
     1
 40
1.0
176
     1
1001
ACAD
1000
AcDbSavedByObjectVersion
1070
     0
  0
VISUALSTYLE
  5
2A
102
{ACAD_REACTORS
330
29
102
}
330
29
100
AcDbVisualStyle
  2
Flat
 70
     0
177
     3
291
     1
 70
    58
 90
        2
176
     1
 90
        1
176
     1
 90
        1
176
     1
 90
        2
176
     1
 40
0.6
176
     1
 40
30.0
176
     1
 62
     7
420
 16777215
176
     1
 90
        0
176
     1
 90
        0
176
     1
 62
     7
176
     1
 62
   257
176
     1
 90
        1
176
     1
 90
        1
176
     1
 40
1.0
176
     1
 90
        8
176
     1
 62
     7
176
     1
 40
1.0
176
     1
 90
        1
176
     1
 90
        6
176
     1
 90
        2
176
     1
 62
     7
176
     1
 90
        5
176
     1
 90
        0
176
     1
 90
        0
176
     1
290
     0
176
     1
 90
       13
176
     1
 40
0.0
176
     1
 90
        0
176
     1
290
     0
176
     1
290
     1
176
     1
290
     1
176
     1
290
     0
176
     1
290
     0
176
     1
290
     0
176
     1
290
     0
176
     1
290
     0
176
     1
290
     0
176
     1
 90
       50
176
     1
 40
0.0
176
     1
 40
1.0
176
     1
 90
        0
176
     1
 62
    18
420
        0
176
     1
 90
       50
176
     1
 90
        3
176
     1
 62
     5
420
      255
176
     1
290
     0
176
     1
 90
       50
176
     1
 90
       50
176
     1
 90
       50
176
     1
290
     0
176
     1
 90
       50
176
     1
 62
   256
176
     0
 40
1.0
176
     0
 90
        2
176
     1
  1
strokes_ogs.tif
176
     1
290
     0
176
     1
 40
1.0
176
     1
 40
1.0
176
     1
1001
ACAD
1000
AcDbSavedByObjectVersion
1070
     0
  0
VISUALSTYLE
  5
2B
102
{ACAD_REACTORS
330
29
102
}
330
29
100
AcDbVisualStyle
  2
FlatWithEdges
 70
     1
177
     3
291
     1
 70
    58
 90
        2
176
     1
 90
        1
176
     1
 90
        1
176
     1
 90
        2
176
     1
 40
0.6
176
     1
 40
30.0
176
     1
 62
     7
420
 16777215
176
     1
 90
        1
176
     1
 90
        0
176
     1
 62
     7
176
     1
 62
   257
176
     1
 90
        1
176
     1
 90
        1
176
     1
 40
1.0
176
     1
 90
        0
176
     1
 62
   257
176
     1
 40
1.0
176
     1
 90
        1
176
     1
 90
        6
176
     1
 90
        2
176
     1
 62
     7
176
     1
 90
        5
176
     1
 90
        0
176
     1
 90
        0
176
     1
290
     0
176
     1
 90
       13
176
     1
 40
0.0
176
     1
 90
        0
176
     1
290
     0
176
     1
290
     1
176
     1
290
     1
176
     1
290
     0
176
     1
290
     0
176
     1
290
     0
176
     1
290
     0
176
     1
290
     0
176
     1
290
     0
176
     1
 90
       50
176
     1
 40
0.0
176
     1
 40
1.0
176
     1
 90
        0
176
     1
 62
    18
420
        0
176
     1
 90
       50
176
     1
 90
        3
176
     1
 62
     5
420
      255
176
     1
290
     0
176
     1
 90
       50
176
     1
 90
       50
176
     1
 90
       50
176
     1
290
     0
176
     1
 90
       50
176
     1
 62
   256
176
     0
 40
1.0
176
     0
 90
        2
176
     1
  1
strokes_ogs.tif
176
     1
290
     0
176
     1
 40
1.0
176
     1
 40
1.0
176
     1
1001
ACAD
1000
AcDbSavedByObjectVersion
1070
     0
  0
VISUALSTYLE
  5
2C
102
{ACAD_REACTORS
330
29
102
}
330
29
100
AcDbVisualStyle
  2
Gouraud
 70
     2
177
     3
291
     1
 70
    58
 90
        2
176
     1
 90
        2
176
     1
 90
        1
176
     1
 90
        2
176
     1
 40
0.6
176
     1
 40
30.0
176
     1
 62
     7
420
 16777215
176
     1
 90
        0
176
     1
 90
        0
176
     1
 62
     7
176
     1
 62
   257
176
     1
 90
        1
176
     1
 90
        1
176
     1
 40
1.0
176
     1
 90
        0
176
     1
 62
     7
176
     1
 40
1.0
176
     1
 90
        1
176
     1
 90
        6
176
     1
 90
        2
176
     1
 62
     7
176
     1
 90
        5
176
     1
 90
        0
176
     1
 90
        0
176
     1
290
     0
176
     1
 90
       13
176
     1
 40
0.0
176
     1
 90
        0
176
     1
290
     0
176
     1
290
     1
176
     1
290
     1
176
     1
290
     0
176
     1
290
     0
176
     1
290
     0
176
     1
290
     0
176
     1
290
     0
176
     1
290
     0
176
     1
 90
       50
176
     1
 40
0.0
176
     1
 40
1.0
176
     1
 90
        0
176
     1
 62
    18
420
        0
176
     1
 90
       50
176
     1
 90
        3
176
     1
 62
     5
420
      255
176
     1
290
     0
176
     1
 90
       50
176
     1
 90
       50
176
     1
 90
       50
176
     1
290
     0
176
     1
 90
       50
176
     1
 62
   256
176
     0
 40
1.0
176
     0
 90
        2
176
     1
  1
strokes_ogs.tif
176
     1
290
     0
176
     1
 40
1.0
176
     1
 40
1.0
176
     1
1001
ACAD
1000
AcDbSavedByObjectVersion
1070
     0
  0
VISUALSTYLE
  5
2D
102
{ACAD_REACTORS
330
29
102
}
330
29
100
AcDbVisualStyle
  2
GouraudWithEdges
 70
     3
177
     3
291
     1
 70
    58
 90
        2
176
     1
 90
        2
176
     1
 90
        1
176
     1
 90
        2
176
     1
 40
0.6
176
     1
 40
30.0
176
     1
 62
     7
420
 16777215
176
     1
 90
        1
176
     1
 90
        0
176
     1
 62
     7
176
     1
 62
   257
176
     1
 90
        1
176
     1
 90
        1
176
     1
 40
1.0
176
     1
 90
        0
176
     1
 62
   257
176
     1
 40
1.0
176
     1
 90
        1
176
     1
 90
        6
176
     1
 90
        2
176
     1
 62
     7
176
     1
 90
        5
176
     1
 90
        0
176
     1
 90
        0
176
     1
290
     0
176
     1
 90
       13
176
     1
 40
0.0
176
     1
 90
        0
176
     1
290
     0
176
     1
290
     1
176
     1
290
     1
176
     1
290
     0
176
     1
290
     0
176
     1
290
     0
176
     1
290
     0
176
     1
290
     0
176
     1
290
     0
176
     1
 90
       50
176
     1
 40
0.0
176
     1
 40
1.0
176
     1
 90
        0
176
     1
 62
    18
420
        0
176
     1
 90
       50
176
     1
 90
        3
176
     1
 62
     5
420
      255
176
     1
290
     0
176
     1
 90
       50
176
     1
 90
       50
176
     1
 90
       50
176
     1
290
     0
176
     1
 90
       50
176
     1
 62
   256
176
     0
 40
1.0
176
     0
 90
        2
176
     1
  1
strokes_ogs.tif
176
     1
290
     0
176
     1
 40
1.0
176
     1
 40
1.0
176
     1
1001
ACAD
1000
AcDbSavedByObjectVersion
1070
     0
  0
VISUALSTYLE
  5
31
102
{ACAD_REACTORS
330
29
102
}
330
29
100
AcDbVisualStyle
  2
Hidden
 70
     6
177
     3
291
     0
 70
    58
 90
        1
176
     1
 90
        2
176
     1
 90
        2
176
     1
 90
        0
176
     1
 40
0.6
176
     1
 40
30.0
176
     1
 62
     7
420
 16777215
176
     1
 90
        2
176
     1
 90
        2
176
     1
 62
     7
176
     1
 62
   257
176
     1
 90
        2
176
     1
 90
        1
176
     1
 40
40.0
176
     1
 90
        0
176
     1
 62
   257
176
     1
 40
1.0
176
     1
 90
        1
176
     1
 90
        6
176
     1
 90
        2
176
     1
 62
     7
176
     1
 90
        3
176
     1
 90
        0
176
     1
 90
        0
176
     1
290
     0
176
     1
 90
        1
176
     1
 40
0.0
176
     1
 90
        0
176
     1
290
     0
176
     1
290
     1
176
     1
290
     1
176
     1
290
     0
176
     1
290
     0
176
     1
290
     0
176
     1
290
     0
176
     1
290
     0
176
     1
290
     0
176
     1
 90
       50
176
     1
 40
0.0
176
     1
 40
1.0
176
     1
 90
        0
176
     1
 62
    18
420
        0
176
     1
 90
       50
176
     1
 90
        3
176
     1
 62
     5
420
      255
176
     1
290
     0
176
     1
 90
       50
176
     1
 90
       50
176
     1
 90
       50
176
     1
290
     0
176
     1
 90
       50
176
     1
 62
   256
176
     0
 40
1.0
176
     0
 90
        2
176
     1
  1
strokes_ogs.tif
176
     1
290
     0
176
     1
 40
1.0
176
     1
 40
1.0
176
     1
1001
ACAD
1000
AcDbSavedByObjectVersion
1070
     0
  0
VISUALSTYLE
  5
3F
102
{ACAD_REACTORS
330
29
102
}
330
29
100
AcDbVisualStyle
  2
JitterOff
 70
    20
177
     3
291
     1
 70
    58
 90
        2
176
     0
 90
        2
176
     0
 90
        0
176
     0
 90
        0
176
     0
 40
0.6
176
     0
 40
30.0
176
     0
 62
     7
420
 16777215
176
     0
 90
        1
176
     0
 90
        4
176
     0
 62
     7
176
     0
 62
   257
176
     0
 90
        1
176
     0
 90
        1
176
     0
 40
1.0
176
     0
 90
       10
176
     2
 62
     7
176
     0
 40
1.0
176
     0
 90
        1
176
     0
 90
        6
176
     0
 90
        2
176
     0
 62
     7
176
     0
 90
        5
176
     0
 90
        0
176
     0
 90
        0
176
     0
290
     0
176
     0
 90
        1
176
     0
 40
0.0
176
     0
 90
        0
176
     0
290
     0
176
     0
290
     1
176
     0
290
     1
176
     0
290
     0
176
     0
290
     0
176
     0
290
     0
176
     0
290
     0
176
     0
290
     0
176
     0
290
     0
176
     0
 90
       50
176
     0
 40
0.0
176
     0
 40
1.0
176
     0
 90
        0
176
     0
 62
    18
420
        0
176
     0
 90
       50
176
     0
 90
        3
176
     0
 62
     5
420
      255
176
     0
290
     0
176
     0
 90
       50
176
     0
 90
       50
176
     0
 90
       50
176
     0
290
     0
176
     0
 90
       50
176
     0
 62
   256
176
     0
 40
1.0
176
     0
 90
        2
176
     0
  1
strokes_ogs.tif
176
     0
290
     0
176
     0
 40
1.0
176
     0
 40
1.0
176
     0
1001
ACAD
1000
AcDbSavedByObjectVersion
1070
     0
  0
VISUALSTYLE
  5
37
102
{ACAD_REACTORS
330
29
102
}
330
29
100
AcDbVisualStyle
  2
Linepattern
 70
    14
177
     3
291
     1
 70
    58
 90
        2
176
     1
 90
        2
176
     1
 90
        0
176
     1
 90
        0
176
     1
 40
0.6
176
     1
 40
30.0
176
     1
 62
     7
420
 16777215
176
     1
 90
        1
176
     1
 90
        4
176
     1
 62
     7
176
     1
 62
   257
176
     1
 90
        7
176
     1
 90
        7
176
     1
 40
1.0
176
     1
 90
        8
176
     1
 62
     7
176
     1
 40
1.0
176
     1
 90
        1
176
     1
 90
        6
176
     1
 90
        2
176
     1
 62
     7
176
     1
 90
        5
176
     1
 90
        0
176
     1
 90
        0
176
     1
290
     0
176
     1
 90
        1
176
     1
 40
0.0
176
     1
 90
        0
176
     1
290
     0
176
     1
290
     1
176
     1
290
     1
176
     1
290
     0
176
     1
290
     0
176
     1
290
     0
176
     1
290
     0
176
     1
290
     0
176
     1
290
     0
176
     1
 90
       50
176
     1
 40
0.0
176
     1
 40
1.0
176
     1
 90
        0
176
     1
 62
    18
420
        0
176
     1
 90
       50
176
     1
 90
        3
176
     1
 62
     5
420
      255
176
     1
290
     0
176
     1
 90
       50
176
     1
 90
       50
176
     1
 90
       50
176
     1
290
     0
176
     1
 90
       50
176
     1
 62
   256
176
     0
 40
1.0
176
     0
 90
        2
176
     1
  1
strokes_ogs.tif
176
     1
290
     0
176
     1
 40
1.0
176
     1
 40
1.0
176
     1
1001
ACAD
1000
AcDbSavedByObjectVersion
1070
     0
  0
VISUALSTYLE
  5
40
102
{ACAD_REACTORS
330
29
102
}
330
29
100
AcDbVisualStyle
  2
OverhangOff
 70
    21
177
     3
291
     1
 70
    58
 90
        2
176
     0
 90
        2
176
     0
 90
        0
176
     0
 90
        0
176
     0
 40
0.6
176
     0
 40
30.0
176
     0
 62
     7
420
 16777215
176
     0
 90
        1
176
     0
 90
        4
176
     0
 62
     7
176
     0
 62
   257
176
     0
 90
        1
176
     0
 90
        1
176
     0
 40
1.0
176
     0
 90
        9
176
     2
 62
     7
176
     0
 40
1.0
176
     0
 90
        1
176
     0
 90
        6
176
     0
 90
        2
176
     0
 62
     7
176
     0
 90
        5
176
     0
 90
        0
176
     0
 90
        0
176
     0
290
     0
176
     0
 90
        1
176
     0
 40
0.0
176
     0
 90
        0
176
     0
290
     0
176
     0
290
     1
176
     0
290
     1
176
     0
290
     0
176
     0
290
     0
176
     0
290
     0
176
     0
290
     0
176
     0
290
     0
176
     0
290
     0
176
     0
 90
       50
176
     0
 40
0.0
176
     0
 40
1.0
176
     0
 90
        0
176
     0
 62
    18
420
        0
176
     0
 90
       50
176
     0
 90
        3
176
     0
 62
     5
420
      255
176
     0
290
     0
176
     0
 90
       50
176
     0
 90
       50
176
     0
 90
       50
176
     0
290
     0
176
     0
 90
       50
176
     0
 62
   256
176
     0
 40
1.0
176
     0
 90
        2
176
     0
  1
strokes_ogs.tif
176
     0
290
     0
176
     0
 40
1.0
176
     0
 40
1.0
176
     0
1001
ACAD
1000
AcDbSavedByObjectVersion
1070
     0
  0
VISUALSTYLE
  5
33
102
{ACAD_REACTORS
330
29
102
}
330
29
100
AcDbVisualStyle
  2
Realistic
 70
     8
177
     3
291
     0
 70
    58
 90
        2
176
     1
 90
        3
176
     1
 90
        0
176
     1
 90
        2
176
     1
 40
0.6
176
     1
 40
30.0
176
     1
 62
     7
420
 16777215
176
     1
 90
        0
176
     1
 90
        0
176
     1
 62
     7
176
     1
 62
   257
176
     1
 90
        1
176
     1
 90
        1
176
     1
 40
1.0
176
     1
 90
        8
176
     1
 62
   257
176
     1
 40
1.0
176
     1
 90
        1
176
     1
 90
        6
176
     1
 90
        2
176
     1
 62
     7
176
     1
 90
        3
176
     1
 90
        0
176
     1
 90
        0
176
     1
290
     0
176
     1
 90
       13
176
     1
 40
0.0
176
     1
 90
        0
176
     1
290
     0
176
     1
290
     1
176
     1
290
     1
176
     1
290
     0
176
     1
290
     0
176
     1
290
     0
176
     1
290
     0
176
     1
290
     0
176
     1
290
     0
176
     1
 90
       50
176
     1
 40
0.0
176
     1
 40
1.0
176
     1
 90
        0
176
     1
 62
    18
420
        0
176
     1
 90
       50
176
     1
 90
        3
176
     1
 62
     5
420
      255
176
     1
290
     0
176
     1
 90
       50
176
     1
 90
       50
176
     1
 90
       50
176
     1
290
     0
176
     1
 90
       50
176
     1
 62
   256
176
     0
 40
1.0
176
     0
 90
        2
176
     1
  1
strokes_ogs.tif
176
     1
290
     0
176
     1
 40
1.0
176
     1
 40
1.0
176
     1
1001
ACAD
1000
AcDbSavedByObjectVersion
1070
     0
  0
VISUALSTYLE
  5
3E
102
{ACAD_REACTORS
330
29
102
}
330
29
100
AcDbVisualStyle
  2
Shaded
 70
    27
177
     3
291
     0
 70
    58
 90
        2
176
     1
 90
        2
176
     1
 90
        1
176
     1
 90
        2
176
     1
 40
0.6
176
     1
 40
30.0
176
     1
 62
     7
420
 16777215
176
     1
 90
        0
176
     1
 90
        4
176
     1
 62
     7
176
     1
 62
   257
176
     1
 90
        1
176
     1
 90
        1
176
     1
 40
1.0
176
     1
 90
        8
176
     1
 62
   257
176
     1
 40
1.0
176
     1
 90
        1
176
     1
 90
        6
176
     1
 90
        2
176
     1
 62
     8
420
  7895160
176
     1
 90
        3
176
     1
 90
        0
176
     1
 90
        0
176
     1
290
     0
176
     1
 90
        5
176
     1
 40
0.0
176
     1
 90
        0
176
     1
290
     0
176
     1
290
     1
176
     1
290
     1
176
     1
290
     0
176
     1
290
     0
176
     1
290
     0
176
     1
290
     0
176
     1
290
     0
176
     1
290
     0
176
     1
 90
       50
176
     1
 40
0.0
176
     1
 40
1.0
176
     1
 90
        0
176
     1
 62
    18
420
        0
176
     1
 90
       50
176
     1
 90
        3
176
     1
 62
     5
420
      255
176
     1
290
     0
176
     1
 90
       50
176
     1
 90
       50
176
     1
 90
       50
176
     1
290
     0
176
     1
 90
       50
176
     1
 62
   256
176
     0
 40
1.0
176
     0
 90
        2
176
     1
  1
strokes_ogs.tif
176
     1
290
     0
176
     1
 40
1.0
176
     1
 40
1.0
176
     1
1001
ACAD
1000
AcDbSavedByObjectVersion
1070
     0
  0
VISUALSTYLE
  5
3D
102
{ACAD_REACTORS
330
29
102
}
330
29
100
AcDbVisualStyle
  2
Shaded with edges
 70
    26
177
     3
291
     0
 70
    58
 90
        2
176
     1
 90
        2
176
     1
 90
        1
176
     1
 90
        2
176
     1
 40
0.6
176
     1
 40
30.0
176
     1
 62
     7
420
 16777215
176
     1
 90
        1
176
     1
 90
        2
176
     1
 62
     7
176
     1
 62
   257
176
     1
 90
        2
176
     1
 90
        1
176
     1
 40
1.0
176
     1
 90
        8
176
     1
 62
   257
176
     1
 40
1.0
176
     1
 90
        1
176
     1
 90
        6
176
     1
 90
        2
176
     1
 62
     7
176
     1
 90
        3
176
     1
 90
        0
176
     1
 90
        0
176
     1
290
     0
176
     1
 90
        5
176
     1
 40
0.0
176
     1
 90
        0
176
     1
290
     0
176
     1
290
     1
176
     1
290
     1
176
     1
290
     0
176
     1
290
     0
176
     1
290
     0
176
     1
290
     0
176
     1
290
     0
176
     1
290
     0
176
     1
 90
       50
176
     1
 40
0.0
176
     1
 40
1.0
176
     1
 90
        0
176
     1
 62
    18
420
        0
176
     1
 90
       50
176
     1
 90
        3
176
     1
 62
     5
420
      255
176
     1
290
     0
176
     1
 90
       50
176
     1
 90
       50
176
     1
 90
       50
176
     1
290
     0
176
     1
 90
       50
176
     1
 62
   256
176
     0
 40
1.0
176
     0
 90
        2
176
     1
  1
strokes_ogs.tif
176
     1
290
     0
176
     1
 40
1.0
176
     1
 40
1.0
176
     1
1001
ACAD
1000
AcDbSavedByObjectVersion
1070
     0
  0
VISUALSTYLE
  5
3A
102
{ACAD_REACTORS
330
29
102
}
330
29
100
AcDbVisualStyle
  2
Shades of Gray
 70
    23
177
     3
291
     0
 70
    58
 90
        2
176
     1
 90
        2
176
     1
 90
        3
176
     1
 90
        0
176
     1
 40
0.6
176
     1
 40
30.0
176
     1
 62
     7
420
 16777215
176
     1
 90
        2
176
     1
 90
        2
176
     1
 62
     7
176
     1
 62
     7
176
     1
 90
        1
176
     1
 90
        1
176
     1
 40
40.0
176
     1
 90
        8
176
     1
 62
     7
176
     1
 40
1.0
176
     1
 90
        1
176
     1
 90
        6
176
     1
 90
        2
176
     1
 62
     7
176
     1
 90
        3
176
     1
 90
        0
176
     1
 90
        0
176
     1
290
     0
176
     1
 90
        1
176
     1
 40
0.0
176
     1
 90
        0
176
     1
290
     0
176
     1
290
     1
176
     1
290
     1
176
     1
290
     0
176
     1
290
     0
176
     1
290
     0
176
     1
290
     0
176
     1
290
     0
176
     1
290
     0
176
     1
 90
       50
176
     1
 40
0.0
176
     1
 40
1.0
176
     1
 90
        0
176
     1
 62
    18
420
        0
176
     1
 90
       50
176
     1
 90
        3
176
     1
 62
     5
420
      255
176
     1
290
     0
176
     1
 90
       50
176
     1
 90
       50
176
     1
 90
       50
176
     1
290
     0
176
     1
 90
       50
176
     1
 62
   256
176
     0
 40
1.0
176
     0
 90
        2
176
     1
  1
strokes_ogs.tif
176
     1
290
     0
176
     1
 40
1.0
176
     1
 40
1.0
176
     1
1001
ACAD
1000
AcDbSavedByObjectVersion
1070
     0
  0
VISUALSTYLE
  5
3B
102
{ACAD_REACTORS
330
29
102
}
330
29
100
AcDbVisualStyle
  2
Sketchy
 70
    24
177
     3
291
     0
 70
    58
 90
        1
176
     1
 90
        2
176
     1
 90
        2
176
     1
 90
        0
176
     1
 40
0.6
176
     1
 40
30.0
176
     1
 62
     7
420
 16777215
176
     1
 90
        2
176
     1
 90
        2
176
     1
 62
     7
176
     1
 62
     7
176
     1
 90
        1
176
     1
 90
        1
176
     1
 40
40.0
176
     1
 90
       11
176
     1
 62
     7
176
     1
 40
1.0
176
     1
 90
        1
176
     1
 90
        6
176
     1
 90
        2
176
     1
 62
     7
176
     1
 90
        6
176
     1
 90
        0
176
     1
 90
        0
176
     1
290
     0
176
     1
 90
        1
176
     1
 40
0.0
176
     1
 90
        0
176
     1
290
     0
176
     1
290
     1
176
     1
290
     1
176
     1
290
     0
176
     1
290
     0
176
     1
290
     0
176
     1
290
     0
176
     1
290
     0
176
     1
290
     0
176
     1
 90
       50
176
     1
 40
0.0
176
     1
 40
1.0
176
     1
 90
        0
176
     1
 62
    18
420
        0
176
     1
 90
       50
176
     1
 90
        3
176
     1
 62
     5
420
      255
176
     1
290
     0
176
     1
 90
       50
176
     1
 90
       50
176
     1
 90
       50
176
     1
290
     0
176
     1
 90
       50
176
     1
 62
   256
176
     0
 40
1.0
176
     0
 90
        2
176
     1
  1
strokes_ogs.tif
176
     1
290
     0
176
     1
 40
1.0
176
     1
 40
1.0
176
     1
1001
ACAD
1000
AcDbSavedByObjectVersion
1070
     0
  0
VISUALSTYLE
  5
36
102
{ACAD_REACTORS
330
29
102
}
330
29
100
AcDbVisualStyle
  2
Thicken
 70
    13
177
     3
291
     1
 70
    58
 90
        2
176
     1
 90
        2
176
     1
 90
        0
176
     1
 90
        0
176
     1
 40
0.6
176
     1
 40
30.0
176
     1
 62
     7
420
 16777215
176
     1
 90
        1
176
     1
 90
        4
176
     1
 62
     7
176
     1
 62
   257
176
     1
 90
        1
176
     1
 90
        1
176
     1
 40
1.0
176
     1
 90
       12
176
     1
 62
     7
176
     1
 40
1.0
176
     1
 90
        1
176
     1
 90
        6
176
     1
 90
        2
176
     1
 62
     7
176
     1
 90
        5
176
     1
 90
        0
176
     1
 90
        0
176
     1
290
     0
176
     1
 90
        1
176
     1
 40
0.0
176
     1
 90
        0
176
     1
290
     0
176
     1
290
     1
176
     1
290
     1
176
     1
290
     0
176
     1
290
     0
176
     1
290
     0
176
     1
290
     0
176
     1
290
     0
176
     1
290
     0
176
     1
 90
       50
176
     1
 40
0.0
176
     1
 40
1.0
176
     1
 90
        0
176
     1
 62
    18
420
        0
176
     1
 90
       50
176
     1
 90
        3
176
     1
 62
     5
420
      255
176
     1
290
     0
176
     1
 90
       50
176
     1
 90
       50
176
     1
 90
       50
176
     1
290
     0
176
     1
 90
       50
176
     1
 62
   256
176
     0
 40
1.0
176
     0
 90
        2
176
     1
  1
strokes_ogs.tif
176
     1
290
     0
176
     1
 40
1.0
176
     1
 40
1.0
176
     1
1001
ACAD
1000
AcDbSavedByObjectVersion
1070
     0
  0
VISUALSTYLE
  5
30
102
{ACAD_REACTORS
330
29
102
}
330
29
100
AcDbVisualStyle
  2
Wireframe
 70
     5
177
     3
291
     0
 70
    58
 90
        0
176
     1
 90
        2
176
     1
 90
        0
176
     1
 90
        0
176
     1
 40
0.6
176
     1
 40
30.0
176
     1
 62
     7
420
 16777215
176
     1
 90
        1
176
     1
 90
        4
176
     1
 62
     7
176
     1
 62
   257
176
     1
 90
        1
176
     1
 90
        1
176
     1
 40
1.0
176
     1
 90
        0
176
     1
 62
   257
176
     1
 40
1.0
176
     1
 90
        1
176
     1
 90
        6
176
     1
 90
        2
176
     1
 62
     7
176
     1
 90
        3
176
     1
 90
        0
176
     1
 90
        0
176
     1
290
     0
176
     1
 90
        1
176
     1
 40
0.0
176
     1
 90
        0
176
     1
290
     0
176
     1
290
     1
176
     1
290
     1
176
     1
290
     0
176
     1
290
     0
176
     1
290
     0
176
     1
290
     0
176
     1
290
     0
176
     1
290
     0
176
     1
 90
       50
176
     1
 40
0.0
176
     1
 40
1.0
176
     1
 90
        0
176
     1
 62
    18
420
        0
176
     1
 90
       50
176
     1
 90
        3
176
     1
 62
     5
420
      255
176
     1
290
     0
176
     1
 90
       50
176
     1
 90
       50
176
     1
 90
       50
176
     1
290
     0
176
     1
 90
       50
176
     1
 62
   256
176
     0
 40
1.0
176
     0
 90
        2
176
     1
  1
strokes_ogs.tif
176
     1
290
     0
176
     1
 40
1.0
176
     1
 40
1.0
176
     1
1001
ACAD
1000
AcDbSavedByObjectVersion
1070
     0
  0
VISUALSTYLE
  5
3C
102
{ACAD_REACTORS
330
29
102
}
330
29
100
AcDbVisualStyle
  2
X-Ray
 70
    25
177
     3
291
     0
 70
    58
 90
        2
176
     1
 90
        2
176
     1
 90
        1
176
     1
 90
        1
176
     1
 40
0.5
176
     1
 40
30.0
176
     1
 62
     7
420
 16777215
176
     1
 90
        1
176
     1
 90
        0
176
     1
 62
     7
176
     1
 62
   257
176
     1
 90
        1
176
     1
 90
        1
176
     1
 40
1.0
176
     1
 90
        8
176
     1
 62
     7
176
     1
 40
1.0
176
     1
 90
        1
176
     1
 90
        6
176
     1
 90
        2
176
     1
 62
     7
176
     1
 90
        3
176
     1
 90
        0
176
     1
 90
        0
176
     1
290
     0
176
     1
 90
       13
176
     1
 40
0.0
176
     1
 90
        0
176
     1
290
     0
176
     1
290
     1
176
     1
290
     1
176
     1
290
     0
176
     1
290
     0
176
     1
290
     0
176
     1
290
     0
176
     1
290
     0
176
     1
290
     0
176
     1
 90
       50
176
     1
 40
0.0
176
     1
 40
1.0
176
     1
 90
        0
176
     1
 62
    18
420
        0
176
     1
 90
       50
176
     1
 90
        3
176
     1
 62
     5
420
      255
176
     1
290
     0
176
     1
 90
       50
176
     1
 90
       50
176
     1
 90
       50
176
     1
290
     0
176
     1
 90
       50
176
     1
 62
   256
176
     0
 40
1.0
176
     0
 90
        2
176
     1
  1
strokes_ogs.tif
176
     1
290
     0
176
     1
 40
1.0
176
     1
 40
1.0
176
     1
1001
ACAD
1000
AcDbSavedByObjectVersion
1070
     0
  0
DICTIONARYVAR
  5
80
102
{ACAD_REACTORS
330
7B
102
}
330
7B
100
DictionaryVariables
280
     0
  1
1:1
  0
DICTIONARYVAR
  5
7D
102
{ACAD_REACTORS
330
7B
102
}
330
7B
100
DictionaryVariables
280
     0
  1
STANDARD
  0
DICTIONARYVAR
  5
7C
102
{ACAD_REACTORS
330
7B
102
}
330
7B
100
DictionaryVariables
280
     0
  1
STANDARD
  0
DICTIONARYVAR
  5
7E
102
{ACAD_REACTORS
330
7B
102
}
330
7B
100
DictionaryVariables
280
     0
  1
Imperial24
  0
DICTIONARYVAR
  5
7F
102
{ACAD_REACTORS
330
7B
102
}
330
7B
100
DictionaryVariables
280
     0
  1
Imperial24
  0
DICTIONARY
  5
86
330
6B
100
AcDbDictionary
280
     1
281
     1
  3
ACAD_XREC_ROUNDTRIP
360
87
  0
DICTIONARY
  5
1A
330
19
100
AcDbDictionary
280
     1
281
     1
  3
BUMPTILE
360
1C
  3
DIFFUSETILE
360
1B
  3
OPACITYTILE
360
1F
  3
REFLECTIONTILE
360
1E
  3
REFRACTIONTILE
360
20
  3
SPECULARTILE
360
1D
  0
DICTIONARY
  5
12
330
11
100
AcDbDictionary
280
     1
281
     1
  3
BUMPTILE
360
14
  3
DIFFUSETILE
360
13
  3
OPACITYTILE
360
17
  3
REFLECTIONTILE
360
16
  3
REFRACTIONTILE
360
18
  3
SPECULARTILE
360
15
  0
DICTIONARY
  5
22
330
21
100
AcDbDictionary
280
     1
281
     1
  3
BUMPTILE
360
24
  3
DIFFUSETILE
360
23
  3
OPACITYTILE
360
27
  3
REFLECTIONTILE
360
26
  3
REFRACTIONTILE
360
28
  3
SPECULARTILE
360
25
  0
DICTIONARY
  5
84
330
69
100
AcDbDictionary
280
     1
281
     1
  3
ACAD_XREC_ROUNDTRIP
360
85
  0
DICTIONARY
  5
81
330
65
100
AcDbDictionary
280
     1
281
     1
  3
ACAD_ROUNDTRIP_2008_TABLESTYLE_CELLSTYLEMAP
360
82
  0
XRECORD
  5
87
102
{ACAD_REACTORS
330
86
102
}
330
86
100
AcDbXrecord
280
     1
102
DISPLAYNAME
  1
Imperial24
102
FLAGS
 90
        0
  0
XRECORD
  5
1C
102
{ACAD_REACTORS
330
1A
102
}
330
1A
100
AcDbXrecord
280
     1
270
     1
271
     1
  0
XRECORD
  5
1B
102
{ACAD_REACTORS
330
1A
102
}
330
1A
100
AcDbXrecord
280
     1
270
     1
271
     1
  0
XRECORD
  5
1F
102
{ACAD_REACTORS
330
1A
102
}
330
1A
100
AcDbXrecord
280
     1
270
     1
271
     1
  0
XRECORD
  5
1E
102
{ACAD_REACTORS
330
1A
102
}
330
1A
100
AcDbXrecord
280
     1
270
     1
271
     1
  0
XRECORD
  5
20
102
{ACAD_REACTORS
330
1A
102
}
330
1A
100
AcDbXrecord
280
     1
270
     1
271
     1
  0
XRECORD
  5
1D
102
{ACAD_REACTORS
330
1A
102
}
330
1A
100
AcDbXrecord
280
     1
270
     1
271
     1
  0
XRECORD
  5
14
102
{ACAD_REACTORS
330
12
102
}
330
12
100
AcDbXrecord
280
     1
270
     1
271
     1
  0
XRECORD
  5
13
102
{ACAD_REACTORS
330
12
102
}
330
12
100
AcDbXrecord
280
     1
270
     1
271
     1
  0
XRECORD
  5
17
102
{ACAD_REACTORS
330
12
102
}
330
12
100
AcDbXrecord
280
     1
270
     1
271
     1
  0
XRECORD
  5
16
102
{ACAD_REACTORS
330
12
102
}
330
12
100
AcDbXrecord
280
     1
270
     1
271
     1
  0
XRECORD
  5
18
102
{ACAD_REACTORS
330
12
102
}
330
12
100
AcDbXrecord
280
     1
270
     1
271
     1
  0
XRECORD
  5
15
102
{ACAD_REACTORS
330
12
102
}
330
12
100
AcDbXrecord
280
     1
270
     1
271
     1
  0
XRECORD
  5
24
102
{ACAD_REACTORS
330
22
102
}
330
22
100
AcDbXrecord
280
     1
270
     1
271
     1
  0
XRECORD
  5
23
102
{ACAD_REACTORS
330
22
102
}
330
22
100
AcDbXrecord
280
     1
270
     1
271
     1
  0
XRECORD
  5
27
102
{ACAD_REACTORS
330
22
102
}
330
22
100
AcDbXrecord
280
     1
270
     1
271
     1
  0
XRECORD
  5
26
102
{ACAD_REACTORS
330
22
102
}
330
22
100
AcDbXrecord
280
     1
270
     1
271
     1
  0
XRECORD
  5
28
102
{ACAD_REACTORS
330
22
102
}
330
22
100
AcDbXrecord
280
     1
270
     1
271
     1
  0
XRECORD
  5
25
102
{ACAD_REACTORS
330
22
102
}
330
22
100
AcDbXrecord
280
     1
270
     1
271
     1
  0
XRECORD
  5
85
102
{ACAD_REACTORS
330
84
102
}
330
84
100
AcDbXrecord
280
     1
102
DISPLAYNAME
  1
Imperial24
102
FLAGS
 90
        0
  0
CELLSTYLEMAP
  5
82
102
{ACAD_REACTORS
330
81
102
}
330
81
100
AcDbCellStyleMap
 90
        3
300
CELLSTYLE
  1
TABLEFORMAT_BEGIN
 90
        5
170
     1
 91
        0
 92
    32768
 62
   257
 93
        1
300
CONTENTFORMAT
  1
CONTENTFORMAT_BEGIN
 90
        0
 91
        0
 92
      512
 93
        0
300

 40
0.0
140
1.0
 94
        5
 62
     0
340
55
144
0.25
309
CONTENTFORMAT_END
171
     0
 94
        0
309
TABLEFORMAT_END
  1
CELLSTYLE_BEGIN
 90
        1
 91
        1
300
_TITLE
309
CELLSTYLE_END
300
CELLSTYLE
  1
TABLEFORMAT_BEGIN
 90
        5
170
     1
 91
        0
 92
        0
 62
   257
 93
        1
300
CONTENTFORMAT
  1
CONTENTFORMAT_BEGIN
 90
        0
 91
        0
 92
      512
 93
        0
300

 40
0.0
140
1.0
 94
        5
 62
     0
340
55
144
0.18
309
CONTENTFORMAT_END
171
     0
 94
        0
309
TABLEFORMAT_END
  1
CELLSTYLE_BEGIN
 90
        2
 91
        1
300
_HEADER
309
CELLSTYLE_END
300
CELLSTYLE
  1
TABLEFORMAT_BEGIN
 90
        5
170
     1
 91
        0
 92
        0
 62
   257
 93
        1
300
CONTENTFORMAT
  1
CONTENTFORMAT_BEGIN
 90
        0
 91
        0
 92
      512
 93
        0
300

 40
0.0
140
1.0
 94
        2
 62
     0
340
55
144
0.18
309
CONTENTFORMAT_END
171
     0
 94
        0
309
TABLEFORMAT_END
  1
CELLSTYLE_BEGIN
 90
        3
 91
        2
300
_DATA
309
CELLSTYLE_END
  0
ENDSEC
  0
EOF
