<?xml version="1.0" encoding="utf-8"?>
<!-- Generator: Adobe Illustrator 25.4.8, SVG Export Plug-In . SVG Version: 6.00 Build 0)  -->
<svg version="1.1" id="Слой_1" xmlns="http://www.w3.org/2000/svg" xmlns:xlink="http://www.w3.org/1999/xlink" x="0px" y="0px"
	 viewBox="0 0 864 864" style="enable-background:new 0 0 864 864;" xml:space="preserve">
<g>
	<path d="M442.88,573.31c-92.95,0-185.9-0.17-278.86,0.1c-27.85,0.08-54.89-3.86-80.89-13.65C2.05,529.25-14.93,443,11.62,377.17
		c15.94-39.52,43.56-67.88,84.44-81.88c8.73-2.99,13.31-8.27,16.84-16.57c28.06-65.85,80.62-100.42,152.76-98.77
		c16.93,0.39,26.74-4.35,36.92-18.06c69.42-93.54,192.8-113.16,287.49-45.79c29.91,21.29,54.17,48.56,69.37,82.59
		c4.93,11.05,11.6,15.07,23.84,15c70.81-0.44,116.26,43.98,117.73,114.43c0.18,8.81,1.28,16.06,10.01,20.92
		c45.95,25.59,73.58,91.37,34.03,158.46c-25.56,43.35-63.43,66.54-115.51,66.07C633.98,572.69,538.42,573.31,442.88,573.31z"/>
	<path d="M692.21,676.22c0.95,18.3-0.83,36.34-6.45,53.8c-8.24,25.6-29.15,42.68-55.02,43.41c-24.83,0.7-44.17-9.82-55.82-32.52
		c-11.94-23.26-9.04-47.35,8.82-67.98c24.13-27.87,56.37-43.56,89.26-58.11c8.82-3.9,12.25,0.93,13.86,8.88
		C690.35,641.05,692.91,658.47,692.21,676.22z"/>
	<path d="M243.3,689.77c0.06,21.54-1.43,40.1-8.13,57.77c-9.65,25.46-29.61,39.77-55.32,40.27c-23.76,0.47-46.28-13.91-55.56-35.47
		c-10.24-23.8-5.41-47.55,13.29-67.15c23.35-24.47,51.87-40.78,82.72-53.78c11.45-4.83,16.08-1.31,17.78,10.26
		C240.56,658.58,243.65,675.39,243.3,689.77z"/>
	<path d="M452.21,671.76c0.71,14.14-0.99,27.42-5.47,40.26c-5.81,16.64-17.38,26.9-35.03,28.75c-17.3,1.81-31.82-4.16-40.98-19.47
		c-9.33-15.58-9.47-32.13,1.11-46.82c16.65-23.09,41.67-34.92,67.06-45.6c7.06-2.97,9.04,2.41,9.87,8.02
		C450.51,648.65,453.04,660.32,452.21,671.76z"/>
</g>
</svg>
