<?xml version="1.0" encoding="utf-8"?>
<!-- Generator: Adobe Illustrator 25.4.8, SVG Export Plug-In . SVG Version: 6.00 Build 0)  -->
<svg version="1.1" id="Слой_1" xmlns="http://www.w3.org/2000/svg" xmlns:xlink="http://www.w3.org/1999/xlink" x="0px" y="0px"
	 viewBox="0 0 864 864" style="enable-background:new 0 0 864 864;" xml:space="preserve">
<g>
	<path d="M58.49,558.93c-1.16-3.64,0.98-6.76,2.1-9.89c19.16-53.38,47.67-101.37,84.42-144.42
		c66.69-78.13,150.84-126.78,251.29-147.41c6.23-1.28,8.69-3.71,8.82-10.35c0.27-14.3,1.9-28.53,6.11-42.31
		c1-3.28,1.98-7.5,6.03-7.82c4.24-0.34,5.37,4.04,6.74,7.07c6.07,13.47,8.88,27.87,9.59,42.43c0.41,8.29,3.95,10.9,11.21,12.49
		c68.77,15.01,131.18,43.73,185.66,88.52c64.78,53.27,111.77,119.54,141.67,197.89c1.63,4.28,3.69,8.54,3.66,13.49
		c-3.81,1.22-6.09-1.69-8.69-3.08c-21.36-11.46-43.75-19.58-68.18-20.57c-16.63-0.68-32.74,2.19-47,11.19
		c-6.08,3.83-10.85,3.34-16.95,0.41c-24.49-11.78-49.99-19.49-77.67-17.83c-18.29,1.09-35.14,6.1-49.31,17.94
		c-4.25,3.55-7.7,3.79-12.63,2.19c-18.72-6.06-38-8.96-57.67-9.72c-5.79-0.23-7.58,1.53-7.56,7.32
		c0.16,66.01,0.1,132.02,0.14,198.03c0,2.01-0.26,4.77,0.87,5.92c8.29,8.45,6.12,18.99,6.24,29.04c0.15,11.97,0.05,23.95,0.03,35.92
		c-0.04,32.54-24.26,52.99-56.64,47.85c-26.53-4.21-40.28-20.05-39.03-44.97c0.5-9.87,7.15-16.69,16.53-16.94
		c9.18-0.25,16.69,6.47,17.73,15.88c1.17,10.54,2.73,11.8,14.02,11.36c9.4-0.37,12.85-3.49,12.97-12.68
		c0.2-15.77,0.02-31.54,0.11-47.32c0.02-3.18-0.59-7.18,1.02-9.4c6.65-9.2,4.88-19.51,4.9-29.56c0.08-59.88,0.05-119.75,0.03-179.63
		c0-11.76-0.03-11.4-11.51-10.92c-20.84,0.87-41.21,4.21-61.12,10.39c-2.85,0.88-5.52,1.53-8.2-0.79
		c-26.86-23.24-57.94-23.14-90.2-16.09c-14.63,3.19-28.4,8.89-41.93,15.17c-3.55,1.65-6.79,2.89-10.67,0.43
		c-26.54-16.88-54.72-15.81-83.46-7.18c-13.47,4.04-26.38,9.47-38.53,16.61C61.99,558.41,60.62,559.71,58.49,558.93z"/>
	<path d="M176.8,200.14c0.54,7.62-1.91,14.9-3.27,22.2c-3.79,20.36-7.93,40.66-12.42,60.89c-3.81,17.2-16.53,26.81-34.07,26.61
		c-17.28-0.2-30.98-11.26-34.32-28.04c-1.99-9.99,1.44-18.88,8.36-25.61c22.25-21.65,47.71-39.22,73.59-56.19
		C175.04,199.75,175.77,200.05,176.8,200.14z"/>
	<path d="M766,220.74c-0.27,10.87-2.89,19.18-4.29,27.65c-2.33,14.08-4.86,28.13-8.95,41.81c-3.82,12.77-13.14,19.52-25.82,19.48
		c-12.53-0.04-22.97-7.87-26.99-19.76c-2.62-7.74-0.93-15.07,3.98-20.52C721.35,250.07,743.35,236.5,766,220.74z"/>
	<path d="M525.77,0c-4.22,25.05-8.23,47.68-13.98,69.93c-3.02,11.65-13.59,19.49-24.92,20.09c-10.11,0.54-22.37-7.21-26.7-16.86
		c-4.54-10.13-1.98-20.88,7.86-29.9c12.92-11.84,27.38-21.74,41.43-32.16C514.09,7.65,519,4.58,525.77,0z"/>
	<path d="M200.26,62.17c-0.58-7.49,2.91-14.02,8.81-19.32c16.29-14.61,34.24-27.08,52.05-39.72c1.39-0.99,3.05-2.45,4.59-0.95
		c0.8,0.78,0.88,2.75,0.64,4.06c-3.89,21.19-7.06,42.56-13,63.27c-3.87,13.5-16.79,20.96-29.76,18.9
		C210.77,86.38,200.38,75.02,200.26,62.17z"/>
	<path d="M347.51,104.26c-3.59,17.02-6.74,34.15-10.94,51.01c-2.27,9.1-9.83,13.88-18.89,14.12c-8.69,0.23-16.9-4.92-20.22-12.69
		c-3.76-8.78-0.94-16.14,5.59-22.06c13.12-11.91,27.52-22.14,42.35-31.74C346.1,103.36,346.81,103.81,347.51,104.26z"/>
	<path d="M609.41,171.18c-4.45-0.13-9.66-4.42-12.99-11.06c-3.22-6.44-0.56-11.79,3.99-16.54c9.52-9.94,20.86-17.58,32.09-25.35
		c1.37-0.95,3.08-2.42,4.59-0.83c0.77,0.81,0.79,2.74,0.53,4.04c-2.4,12.26-4.56,24.58-7.56,36.7
		C627.88,166.99,621.36,171.38,609.41,171.18z"/>
	<path d="M805.85,82.25c-2.33,16.77-4.4,31.65-9.34,45.85c-2.38,6.85-8.1,10.28-15.78,10.01c-7.37-0.26-12.91-3.12-15.97-10.01
		c-3.17-7.13-0.94-13.02,4.39-18.11C779.87,99.77,791.98,91.45,805.85,82.25z"/>
</g>
</svg>
