<?xml version="1.0" encoding="utf-8"?>
<!-- Generator: Adobe Illustrator 25.4.8, SVG Export Plug-In . SVG Version: 6.00 Build 0)  -->
<svg version="1.1" id="Слой_1" xmlns="http://www.w3.org/2000/svg" xmlns:xlink="http://www.w3.org/1999/xlink" x="0px" y="0px"
	 viewBox="0 0 864 864" style="enable-background:new 0 0 864 864;" xml:space="preserve">
<g>
	<path d="M472.52,864c-0.94-0.54-1.84-1.2-2.83-1.61c-20.43-8.53-25.25-30.36-9.79-46.5c14.56-15.2,29.67-29.86,44.57-44.72
		c11.72-11.69,23.21-23.64,35.35-34.88c9.08-8.41,20.85-9.32,31.24-3.79c9.92,5.29,15.53,15.87,14.43,27.32
		c-0.68,7.02-3.99,12.76-8.88,17.66c-25.78,25.81-51.62,51.57-77.35,77.43c-4.28,4.3-9.65,6.54-14.91,9.09
		C480.39,864,476.45,864,472.52,864z"/>
	<path d="M131.82,864c-0.58-1.6-2.2-1.49-3.41-2.06c-19.12-9.02-23.38-30.75-8.47-45.93c25.58-26.04,51.45-51.81,77.4-77.49
		c12.47-12.34,29.21-12.51,40.47-0.98c10.98,11.24,10.73,27.76-1.25,39.91c-25.44,25.79-51.21,51.25-76.72,76.97
		c-4.23,4.26-9.55,6.58-14.52,9.58C140.81,864,136.32,864,131.82,864z"/>
	<path d="M302.17,864c-17.02-8.91-22.86-18.22-20.64-32.46c0.95-6.11,3.86-11.11,8.1-15.36c25.97-26.05,51.87-52.17,78.07-78
		c12.14-11.97,28.73-12.04,39.88-0.89c10.96,10.96,10.87,28.09-0.86,39.97c-25.64,25.98-51.62,51.63-77.33,77.54
		c-4.02,4.05-9.21,6.05-13.72,9.19C311.16,864,306.67,864,302.17,864z"/>
	<path d="M412.92,567.13c-76.17,0-152.34,0.37-228.5-0.11c-64.37-0.41-115-27.21-149.45-82.11
		C-7.42,417.36,8.65,324.18,70.56,273.75c26.6-21.67,56.61-35.23,90.81-38.74c6.46-0.66,7-4.09,7.08-8.92
		c0.47-26.38,5.59-51.84,15.43-76.31c25.24-62.74,69.29-107.77,132.07-131.79c88.73-33.95,171.07-19.54,244.78,40.56
		c25.82,21.05,45.46,47.37,59.28,77.75c2.55,5.62,5.38,7.69,11.81,7.66c76.01-0.38,137.14,29.69,182.49,90.85
		c47.29,63.79,51.42,158.54,9.72,225.85c-43.66,70.47-107.79,105.43-190.18,106.29C560.2,567.74,486.56,567.13,412.92,567.13z
		 M410.1,511.55c74.76,0,149.51-0.06,224.27,0.02c37.77,0.04,71.79-10.9,102.02-33.72c63.04-47.59,80.44-136.49,37.76-202.79
		c-36.89-57.31-90.89-81.18-158.53-74.3c-10.92,1.11-21.35,1.35-29.9-7.17c-5.2-5.19-7.13-11.97-9.49-18.56
		C534,57.3,381.6,17.01,286.89,98.74c-48.21,41.6-68.65,94.37-61.9,157.73c2.3,21.55-11.22,35.32-32.59,33.25
		c-10.16-0.99-20.15-0.53-30.23,0.84c-69.14,9.36-113.1,82.58-88.61,147.72c16.65,44.26,58.67,73.05,108.05,73.21
		C257.78,511.72,333.94,511.54,410.1,511.55z"/>
	<path d="M633.41,735.83c-9.1-0.52-17.49-5.36-22.57-15.17c-4.94-9.55-4.08-18.98,1.76-27.91c1.37-2.1,3.1-4,4.88-5.78
		c25.39-25.44,50.65-51,76.28-76.2c16.67-16.39,41.45-10.68,47.61,10.63c2.7,9.33,1.12,18.3-5.59,25.12
		c-27.35,27.83-55.03,55.34-82.77,82.79C648.3,733.98,642.02,735.89,633.41,735.83z"/>
	<path d="M125.68,735.86c-9.77-0.35-18.49-5.37-23.38-15.62c-5.03-10.53-3.87-20.96,3.84-29.87c5.86-6.78,12.48-12.91,18.82-19.27
		c20.23-20.27,40.45-40.55,60.76-60.73c8.44-8.39,18.46-11.76,30-7.55c10.34,3.77,16.42,11.42,18.1,22.35
		c1.22,7.95-0.62,15.48-6.17,21.1c-27.61,27.96-55.46,55.69-83.39,83.32C139.74,734.06,133.7,735.8,125.68,735.86z"/>
	<path d="M463.58,735.8c-9.29-0.52-17.93-5.7-22.59-16.05c-4.93-10.96-3.39-21.61,4.93-30.45c9.81-10.42,20.11-20.37,30.23-30.5
		c16.26-16.29,32.46-32.64,48.85-48.8c8.5-8.38,18.72-11.42,30.11-7.01c10.2,3.95,16.28,11.68,17.64,22.71
		c1.07,8.62-1.57,16.2-7.62,22.29c-26.51,26.69-53.1,53.29-79.75,79.83C480.02,733.17,473.35,735.9,463.58,735.8z"/>
	<path d="M403.51,625.96c-0.02,10.85-3,17.37-8.35,22.74c-26.16,26.25-52.24,52.58-78.66,78.57c-11.72,11.53-28.31,11.44-39.3,0.68
		c-11.09-10.85-11.61-27.5-0.1-39.25c26.33-26.87,52.99-53.42,79.82-79.78c8.56-8.41,19.14-10.28,30.32-5.22
		C398.06,608.6,402.97,617.49,403.51,625.96z"/>
</g>
</svg>
