<?xml version="1.0" encoding="utf-8"?>
<!-- Generator: Adobe Illustrator 25.4.8, SVG Export Plug-In . SVG Version: 6.00 Build 0)  -->
<svg version="1.1" id="Слой_1" xmlns="http://www.w3.org/2000/svg" xmlns:xlink="http://www.w3.org/1999/xlink" x="0px" y="0px"
	 viewBox="0 0 864 864" style="enable-background:new 0 0 864 864;" xml:space="preserve">
<g>
	<path d="M864,495.07c-3.97,16.38-8.46,32.5-18.41,46.59c-24.02,34-57.35,52.76-98.24,54.09c-57.03,1.85-114.16,0.64-171.25,0.63
		c-8.48,0-14.08-4.94-14.53-12.08c-0.47-7.5,4.02-12.75,12.51-14.19c2.74-0.47,5.6-0.34,8.41-0.34
		c51.18-0.02,102.36-0.03,153.55-0.01c32.3,0.01,60.18-10.48,81.52-35.36c31.52-36.77,25.62-90.24-18.88-120.89
		c-11.22-7.72-23.62-12.79-36.96-15.74c-17.56-3.89-18.73-5.71-20.32-23.36c-5.28-58.53-34.69-101.78-85.11-130.62
		c-59.95-34.29-120.5-12.55-159.17,28.6c-1.92,2.05-3.67,4.27-5.56,6.34c-6.35,6.96-14.06,8.28-19.98,3.46
		c-6.22-5.06-6.41-13.34-0.13-20.94c10.98-13.31,23.62-24.87,38.1-34.29c17.83-11.6,37.03-20.19,58.1-23.67
		c8.01-1.32,9.75-4.11,7.66-11.96c-20.86-78.63-71.65-128.6-149.23-148.48c-81.72-20.94-154.69-1.15-213.41,60.69
		C172.31,146,156.2,197.81,163.1,256.25c1.89,16.06-0.9,20.35-17.22,23.48c-61.76,11.85-109.71,61.09-117.26,120.4
		c-8.69,68.29,22.08,127.87,80.89,156.38c19.84,9.62,40.92,13.56,62.89,13.32c14.62-0.15,29.25,0.04,43.87-0.06
		c4.72-0.03,9.03,1.05,12.42,4.29c3.72,3.56,5.03,8.13,3.38,13.12c-1.75,5.29-5.74,8.89-11.16,8.89
		c-36.68-0.02-73.79,4.31-109.2-9.79C49.81,561.63,13.07,515.93,2.36,450.71c-12.74-77.59,27.03-151.19,97.55-184.6
		c9.16-4.34,18.68-7.9,28.59-9.88c5.69-1.14,7.04-3.68,6.72-9.13c-1.92-32.42,2.56-63.86,14.87-94.08
		c21.85-53.65,58.97-93.65,110.79-118.59c78.03-37.55,156.32-35.8,231.84,6.86c59.34,33.52,96.53,84.65,109.8,152.14
		c1.07,5.46,3.38,7.16,8.6,7.9c77.45,10.97,143.73,77.03,154.89,154.84c1.51,10.49,4.18,16.04,15.73,19.92
		c40.55,13.63,68.65,40.56,79.63,83.18c0.9,3.5,1.76,7.01,2.64,10.52C864,478.2,864,486.64,864,495.07z"/>
	<path d="M486.3,651.91c-8.78,2.35-16.22,4.42-23.71,6.32c-4.57,1.16-9.72,1.76-11.15-4.01c-1.4-5.68,3.31-7.61,7.9-8.85
		c5.95-1.61,11.85-3.48,17.86-4.79c5.03-1.1,4.54-2.95,1.51-5.92c-4.62-4.51-9.16-9.1-13.69-13.7c-3.19-3.23-5.57-7-1.65-10.93
		c3.95-3.96,7.83-1.57,10.95,1.66c5.45,5.63,10.68,11.47,16.97,18.26c4.15-8.67,5.05-16.38,7.25-23.65
		c1.45-4.82,3.22-9.92,9.49-7.93c5.65,1.79,4.61,6.8,3.31,11.36c-1.61,5.66-2.94,11.4-4.64,17.03c-1.57,5.19,0.58,5.91,4.96,4.69
		c6.48-1.8,12.98-3.53,19.5-5.21c3.99-1.02,7.49-0.2,8.77,4.1c1.27,4.27-1.03,7.08-5.04,8.28c-6.98,2.09-13.99,4.08-21.06,5.83
		c-4.07,1.01-4.49,2.36-1.45,5.25c4.27,4.06,8.36,8.32,12.53,12.48c3.65,3.64,8.19,7.71,3.06,12.69c-5.26,5.11-9.05-0.23-12.61-3.6
		c-4.08-3.86-8.04-7.84-11.92-11.9c-3.26-3.41-4.84-2.79-5.88,1.75c-1.5,6.55-3.32,13.04-5.19,19.5c-1.19,4.11-3.62,7.53-8.41,6.28
		c-4.73-1.24-5.39-5.39-4.37-9.56C481.56,669.27,483.81,661.27,486.3,651.91z"/>
	<path d="M608.95,774.67c-8.84,2.28-16.38,4.05-23.81,6.2c-4.87,1.41-9.44,1.6-10.96-4.06c-1.43-5.32,2.72-7.3,7.13-8.46
		c6.24-1.65,12.43-3.47,18.69-4.99c4.64-1.13,4.73-2.84,1.46-5.94c-4.89-4.64-9.59-9.48-14.31-14.3c-3.04-3.1-4.77-6.81-1.22-10.35
		c3.46-3.45,7.47-2.13,10.39,1.03c5.66,6.13,10.97,12.58,16.42,18.9c0.89-0.65,1.79-1.3,2.68-1.95c2.01-7.49,3.99-14.98,6.03-22.45
		c1.27-4.66,3.34-8.99,9.19-7.22c5.5,1.66,4.46,6.56,3.54,10.64c-1.4,6.29-3.19,12.5-4.96,18.7c-1.1,3.87-0.17,5.25,3.96,4.05
		c6.73-1.96,13.51-3.75,20.29-5.55c4.41-1.17,8.08-0.07,9.35,4.57c1.21,4.45-1.85,6.86-5.62,7.99c-8.02,2.39-16.13,4.49-24.93,6.91
		c4.88,7.16,11.09,11.93,16.37,17.53c3.26,3.46,6.6,7.3,2.32,11.55c-4.12,4.1-8.35,1.46-11.59-2.14
		c-5.21-5.78-10.23-11.74-15.33-17.62c-0.85,0.6-1.7,1.2-2.55,1.8c-2,7.48-3.97,14.98-6.03,22.45c-1.17,4.27-2.95,8.55-8.38,7.44
		c-6.27-1.27-5.35-6.45-4.35-10.85C604.45,791,606.61,783.55,608.95,774.67z"/>
	<path d="M270.91,662.51c-5.99-5.49-12.03-10.92-17.95-16.48c-3.23-3.03-4.65-6.67-1.14-10.3c3.62-3.73,7.36-1.95,10.29,1.07
		c5.67,5.83,11.04,11.94,17.39,18.88c4.57-8.71,5.35-16.48,7.59-23.76c1.36-4.42,2.79-9.53,8.65-8.2c6.58,1.49,5.16,7.15,4.09,11.78
		c-1.68,7.29-3.78,14.49-6.06,23.1c8.52-2.25,15.71-4.27,22.97-6.04c4.69-1.14,10.33-2.56,11.85,3.89c1.5,6.35-4.07,7.68-8.78,8.98
		c-6.97,1.92-13.94,3.82-21.68,5.94c4.71,7.24,11.09,11.88,16.32,17.55c3.18,3.46,6.63,7.08,2.29,11.54
		c-4.4,4.52-8.26,1.17-11.48-2.15c-5.4-5.57-10.58-11.35-17.2-18.51c-2.75,10.25-4.71,17.75-6.79,25.22
		c-1.28,4.61-3.32,9.06-9.17,7.32c-5.48-1.63-4.5-6.55-3.57-10.64c1.73-7.56,3.86-15.04,6.21-24.01c-8.61,2.27-15.8,4.29-23.06,6.04
		c-4.68,1.13-10.21,2.53-11.75-4.04c-1.39-5.91,3.72-7.47,8.12-8.73c7.21-2.07,14.48-3.92,21.72-5.86
		C270.15,664.23,270.53,663.37,270.91,662.51z"/>
	<path d="M194.53,824.17c-2.69,9.59-4.98,17.27-6.98,25.03c-1.2,4.68-3.52,8.19-8.69,6.81c-5.28-1.41-5.25-5.73-3.94-10.27
		c1.7-5.94,2.89-12.03,4.82-17.89c1.92-5.85-0.39-6.31-5.14-4.94c-5.66,1.64-11.4,3.02-17.07,4.63c-4.68,1.33-9.47,1.92-10.96-3.96
		c-1.49-5.92,3.35-7.62,7.82-8.88c7.29-2.05,14.62-3.93,23.5-6.31c-6.18-6.21-11.56-11.72-17.08-17.09
		c-3.49-3.39-6.47-7.36-2.6-11.61c4.56-5.01,8.68-1.16,12.04,2.41c5.15,5.47,10.07,11.17,16.51,18.35
		c2.9-10.35,5.13-17.81,7.06-25.35c1.23-4.83,3.33-9.23,8.93-7.58c5.48,1.62,5.08,6.45,3.68,11.25c-2.12,7.25-3.87,14.62-5.98,22.72
		c8.39-0.43,15.55-3.54,22.98-5.26c4.88-1.12,10.26-2.33,11.64,4.17c1.21,5.71-3.64,7.39-8.25,8.57c-5.98,1.53-11.88,3.41-17.89,4.8
		c-4.23,0.98-4.57,2.48-1.57,5.41c4.83,4.71,9.55,9.54,14.32,14.31c3.34,3.34,5.14,7.23,1.24,10.98c-3.63,3.49-7.41,1.43-10.38-1.54
		C206.86,837.2,201.33,831.26,194.53,824.17z"/>
	<path d="M390.51,782.34c-6.93-6.41-12.46-11.46-17.91-16.59c-3.63-3.41-7.43-7.38-2.58-12.06c4.89-4.72,8.65-0.3,12.08,3.02
		c4.44,4.3,8.79,8.71,13.15,13.09c2.53,2.54,4.03,2.48,4.95-1.39c1.56-6.55,3.39-13.04,5.2-19.53c1.21-4.35,3.31-8.41,8.64-7.11
		c5.5,1.34,5.12,6.16,4.14,10.37c-1.78,7.63-3.97,15.18-6.19,23.53c7.07,0.15,12.89-2.95,19.07-4.03c2.48-0.44,4.87-1.39,7.36-1.78
		c3.61-0.57,6.92,0.16,8.17,4.1c1.41,4.46-1.25,7.1-5.05,8.27c-8.23,2.55-16.57,4.73-28.24,8.01c7.43,6.49,13.36,11.52,19.1,16.76
		c3.47,3.17,6.69,7.02,2.37,11.48c-4.37,4.51-8.29,1.26-11.49-2.12c-5.34-5.64-10.43-11.52-17.07-18.91
		c-2.87,10.63-4.83,18.15-6.94,25.62c-1.29,4.57-3.32,9.11-9.17,7.3c-5.33-1.65-4.56-6.47-3.56-10.66
		c1.8-7.55,3.84-15.04,6.15-23.99c-8.63,2.28-15.82,4.33-23.08,6.05c-4.34,1.03-9.58,2.52-11.4-3.4c-1.99-6.47,3.31-8.07,8.02-9.41
		C373.4,786.91,380.63,785.02,390.51,782.34z"/>
</g>
</svg>
