<?xml version="1.0" encoding="utf-8"?>
<!-- Generator: Adobe Illustrator 25.4.8, SVG Export Plug-In . SVG Version: 6.00 Build 0)  -->
<svg version="1.1" id="Слой_1" xmlns="http://www.w3.org/2000/svg" xmlns:xlink="http://www.w3.org/1999/xlink" x="0px" y="0px"
	 viewBox="0 0 864 864" style="enable-background:new 0 0 864 864;" xml:space="preserve">
<g>
	<path d="M543.31,631.59c-64.85,0-129.7,0.33-194.55-0.13c-38.3-0.27-67.1-17.87-84.51-52.04c-28.61-56.18,7.37-125.01,69.55-134.11
		c6.74-0.99,13.54-1.68,20.33-0.32c2.26,0.45,3.04-0.21,3.24-2.63c3.73-45.53,34.52-79.85,79.36-88.46
		c7.58-1.46,15.27-2.08,22.95-0.76c2.19,0.38,3.08-0.39,4.01-2.24c23.41-46.54,60.6-75.67,111.64-85.56
		c80.32-15.57,157.36,31.37,180.98,108.71c1.06,3.47,2.5,4.96,6.12,5.73c55.18,11.68,95.25,56.65,100.92,112.98
		c6.53,64.79-39.31,125.18-103.71,136.7c-8.22,1.47-16.49,2.14-24.83,2.14C671,631.58,607.15,631.59,543.31,631.59z"/>
	<path d="M306.79,189.41c67.49,3.63,117.14,34.69,147.06,96.16c1.06,2.17,1.17,3.67-0.61,5.64c-5,5.52-9.41,11.54-13.51,17.76
		c-1.21,1.83-2.61,2.59-4.83,2.97c-53.48,9.02-90.7,38.41-110.76,89.05c-1.22,3.07-2.69,4.33-5.94,5.09
		c-44.98,10.59-76.49,37.41-94.81,79.75c-1.49,3.44-2.5,3.54-5.34,1.58c-41.17-28.41-66.02-67.06-72.41-116.87
		c-10.41-81.17,44.65-158.86,124.94-176.9C282.44,190.98,294.43,189.58,306.79,189.41z"/>
	<path d="M317.32,796.7c-0.04-2.7,0.6-5.27,1.6-7.74c14.84-36.69,29.65-73.39,44.59-110.04c3.73-9.16,11.73-13.99,21.18-13.33
		c8.85,0.62,16.11,6.42,18.57,14.88c1.5,5.17,1.09,10.23-0.91,15.19c-14.88,36.81-29.74,73.63-44.67,110.41
		c-3.38,8.33-12.96,13.38-21.59,11.65C324.84,815.48,317.27,807,317.32,796.7z"/>
	<path d="M514.95,686.93c0.2,3.65-1.13,7.32-2.61,10.96c-14.43,35.63-28.86,71.26-43.28,106.89c-4.6,11.38-15.63,16.02-27.31,11.45
		c-10.93-4.27-16.34-16.11-12.04-27.02c6.05-15.36,12.36-30.62,18.55-45.93c8.6-21.26,17.16-42.54,25.82-63.79
		c3.76-9.24,11.26-14.25,20.44-13.96C506.23,665.92,514.89,674.84,514.95,686.93z"/>
	<path d="M625.46,687.05c0.04,3.72-0.81,7.22-2.21,10.66c-14.48,35.75-28.93,71.52-43.39,107.28c-4.49,11.1-15.54,15.72-27.11,11.32
		c-10.96-4.17-16.51-16.03-12.21-26.92c7.45-18.88,15.16-37.65,22.77-56.47c7.23-17.88,14.39-35.79,21.73-53.62
		c4.93-11.96,16.53-16.76,28.24-11.94C620.86,670.47,625.43,677.86,625.46,687.05z"/>
	<path d="M736.23,688.6c0.01,2.68-0.88,6.04-2.22,9.36c-14.46,35.62-28.88,71.26-43.3,106.9c-4.58,11.32-15.71,15.95-27.35,11.34
		c-10.9-4.32-16.26-16.18-11.92-27.08c7.78-19.56,15.77-39.04,23.67-58.55c6.91-17.06,13.75-34.14,20.74-51.17
		c4.92-11.99,16.45-16.85,28.18-12.09C731.88,670.5,736.45,678.11,736.23,688.6z"/>
	<path d="M458.73,219.59c-9.14-0.32-16.04-4.37-19.62-12.9c-3.54-8.43-2.32-16.55,4.14-23.14c16-16.31,32.17-32.46,48.43-48.51
		c8.43-8.32,21.87-8.08,29.98,0.17c8.17,8.31,8.2,21.41-0.28,30.01c-15.87,16.09-31.98,31.94-47.83,48.04
		C469.38,217.51,464.63,219.66,458.73,219.59z"/>
	<path d="M103.72,129.03c6.22-0.06,11.25,2.01,15.37,6.11c16.09,16.03,32.18,32.06,48.15,48.21c7.16,7.24,8.12,18.04,2.74,26.47
		c-5.43,8.49-14.58,11.85-23.96,8.8c-2.44-0.79-4.62-2-6.45-3.81c-16.72-16.47-33.5-32.88-50.12-49.44
		c-9.32-9.29-8.45-24.27,1.63-32.01C94.89,130.41,99.24,128.92,103.72,129.03z"/>
	<path d="M54.77,372.42c-11.47,0-22.94,0.11-34.41-0.04c-10.73-0.14-19.27-8.19-20.25-18.74c-1-10.78,5.59-20.08,16.02-22.5
		c1.34-0.31,2.74-0.46,4.12-0.46c23.19-0.03,46.39-0.1,69.58,0.02c10.16,0.06,18.42,7.47,19.9,17.34c1.55,10.3-4,19.83-13.51,23.15
		c-2.52,0.88-5.11,1.25-7.79,1.24C77.2,372.4,65.99,372.42,54.77,372.42z"/>
	<path d="M83.92,552.51c0.05-5.55,1.95-10.4,5.86-14.33c16.2-16.28,32.37-32.58,48.71-48.71c7.73-7.63,19.39-7.83,27.47-0.88
		c8.3,7.14,9.85,19.49,3.49,28.4c-1.09,1.53-2.42,2.91-3.75,4.25c-15.84,15.92-31.7,31.82-47.55,47.72
		c-5.22,5.23-14.05,6.86-21.1,3.91C88.99,569.5,83.81,561.46,83.92,552.51z"/>
	<path d="M284.51,100.69c0-11.61-0.17-23.23,0.06-34.84c0.17-8.85,5.48-15.8,13.56-18.65c8.24-2.9,17.15-0.71,22.83,5.64
		c3.62,4.04,5.28,8.87,5.29,14.22c0.05,22.6,0.1,45.2-0.02,67.8c-0.07,12.31-9.07,21.15-21.04,21.06
		c-11.55-0.09-20.56-9.17-20.69-21.14c-0.13-11.36-0.03-22.72-0.03-34.09C284.49,100.69,284.5,100.69,284.51,100.69z"/>
</g>
</svg>
