  0
SECTION
  2
HEADER
  9
$ACADVER
  1
AC1027
  9
$ACADMAINTVER
 70
   125
  9
$DWGCODEPAGE
  3
ANSI_1251
  9
$REQUIREDVERSIONS
160
                 0
  9
$INSBASE
 10
0.0
 20
0.0
 30
0.0
  9
$EXTMIN
 10
1.000000000000000E+20
 20
1.000000000000000E+20
 30
1.000000000000000E+20
  9
$EXTMAX
 10
-1.000000000000000E+20
 20
-1.000000000000000E+20
 30
-1.000000000000000E+20
  9
$LIMMIN
 10
0.0
 20
0.0
  9
$LIMMAX
 10
12.0
 20
9.0
  9
$ORTHOMODE
 70
     0
  9
$REGENMODE
 70
     1
  9
$FILLMODE
 70
     1
  9
$QTEXTMODE
 70
     0
  9
$MIRRTEXT
 70
     0
  9
$LTSCALE
 40
1.0
  9
$ATTMODE
 70
     1
  9
$TEXTSIZE
 40
0.2
  9
$TRACEWID
 40
0.05
  9
$TEXTSTYLE
  7
Standard
  9
$CLAYER
  8
0
  9
$CELTYPE
  6
ByLayer
  9
$CECOLOR
 62
   256
  9
$CELTSCALE
 40
1.0
  9
$DISPSILH
 70
     0
  9
$DIMSCALE
 40
1.0
  9
$DIMASZ
 40
0.18
  9
$DIMEXO
 40
0.0625
  9
$DIMDLI
 40
0.38
  9
$DIMRND
 40
0.0
  9
$DIMDLE
 40
0.0
  9
$DIMEXE
 40
0.18
  9
$DIMTP
 40
0.0
  9
$DIMTM
 40
0.0
  9
$DIMTXT
 40
0.18
  9
$DIMCEN
 40
0.09
  9
$DIMTSZ
 40
0.0
  9
$DIMTOL
 70
     0
  9
$DIMLIM
 70
     0
  9
$DIMTIH
 70
     1
  9
$DIMTOH
 70
     1
  9
$DIMSE1
 70
     0
  9
$DIMSE2
 70
     0
  9
$DIMTAD
 70
     0
  9
$DIMZIN
 70
     0
  9
$DIMBLK
  1

  9
$DIMASO
 70
     1
  9
$DIMSHO
 70
     1
  9
$DIMPOST
  1

  9
$DIMAPOST
  1

  9
$DIMALT
 70
     0
  9
$DIMALTD
 70
     2
  9
$DIMALTF
 40
25.4
  9
$DIMLFAC
 40
1.0
  9
$DIMTOFL
 70
     0
  9
$DIMTVP
 40
0.0
  9
$DIMTIX
 70
     0
  9
$DIMSOXD
 70
     0
  9
$DIMSAH
 70
     0
  9
$DIMBLK1
  1

  9
$DIMBLK2
  1

  9
$DIMSTYLE
  2
Standard
  9
$DIMCLRD
 70
     0
  9
$DIMCLRE
 70
     0
  9
$DIMCLRT
 70
     0
  9
$DIMTFAC
 40
1.0
  9
$DIMGAP
 40
0.09
  9
$DIMJUST
 70
     0
  9
$DIMSD1
 70
     0
  9
$DIMSD2
 70
     0
  9
$DIMTOLJ
 70
     1
  9
$DIMTZIN
 70
     0
  9
$DIMALTZ
 70
     0
  9
$DIMALTTZ
 70
     0
  9
$DIMUPT
 70
     0
  9
$DIMDEC
 70
     4
  9
$DIMTDEC
 70
     4
  9
$DIMALTU
 70
     2
  9
$DIMALTTD
 70
     2
  9
$DIMTXSTY
  7
Standard
  9
$DIMAUNIT
 70
     0
  9
$DIMADEC
 70
     0
  9
$DIMALTRND
 40
0.0
  9
$DIMAZIN
 70
     0
  9
$DIMDSEP
 70
    46
  9
$DIMATFIT
 70
     3
  9
$DIMFRAC
 70
     0
  9
$DIMLDRBLK
  1

  9
$DIMLUNIT
 70
     2
  9
$DIMLWD
 70
    -2
  9
$DIMLWE
 70
    -2
  9
$DIMTMOVE
 70
     0
  9
$DIMFXL
 40
1.0
  9
$DIMFXLON
 70
     0
  9
$DIMJOGANG
 40
0.7853981633974483
  9
$DIMTFILL
 70
     0
  9
$DIMTFILLCLR
 70
     0
  9
$DIMARCSYM
 70
     0
  9
$DIMLTYPE
  6

  9
$DIMLTEX1
  6

  9
$DIMLTEX2
  6

  9
$DIMTXTDIRECTION
 70
     0
  9
$LUNITS
 70
     2
  9
$LUPREC
 70
     4
  9
$SKETCHINC
 40
0.1
  9
$FILLETRAD
 40
0.0
  9
$AUNITS
 70
     0
  9
$AUPREC
 70
     0
  9
$MENU
  1
.
  9
$ELEVATION
 40
0.0
  9
$PELEVATION
 40
0.0
  9
$THICKNESS
 40
0.0
  9
$LIMCHECK
 70
     0
  9
$CHAMFERA
 40
0.0
  9
$CHAMFERB
 40
0.0
  9
$CHAMFERC
 40
0.0
  9
$CHAMFERD
 40
0.0
  9
$SKPOLY
 70
     0
  9
$TDCREATE
 40
2459954.679942130
  9
$TDUCREATE
 40
2459954.596608796
  9
$TDUPDATE
 40
2459954.679942130
  9
$TDUUPDATE
 40
2459954.596608796
  9
$TDINDWG
 40
0.0000000000
  9
$TDUSRTIMER
 40
0.0000000000
  9
$USRTIMER
 70
     1
  9
$ANGBASE
 50
0.0
  9
$ANGDIR
 70
     0
  9
$PDMODE
 70
     0
  9
$PDSIZE
 40
0.0
  9
$PLINEWID
 40
0.0
  9
$SPLFRAME
 70
     0
  9
$SPLINETYPE
 70
     6
  9
$SPLINESEGS
 70
     8
  9
$HANDSEED
  5
A5
  9
$SURFTAB1
 70
     6
  9
$SURFTAB2
 70
     6
  9
$SURFTYPE
 70
     6
  9
$SURFU
 70
     6
  9
$SURFV
 70
     6
  9
$UCSBASE
  2

  9
$UCSNAME
  2

  9
$UCSORG
 10
0.0
 20
0.0
 30
0.0
  9
$UCSXDIR
 10
1.0
 20
0.0
 30
0.0
  9
$UCSYDIR
 10
0.0
 20
1.0
 30
0.0
  9
$UCSORTHOREF
  2

  9
$UCSORTHOVIEW
 70
     0
  9
$UCSORGTOP
 10
0.0
 20
0.0
 30
0.0
  9
$UCSORGBOTTOM
 10
0.0
 20
0.0
 30
0.0
  9
$UCSORGLEFT
 10
0.0
 20
0.0
 30
0.0
  9
$UCSORGRIGHT
 10
0.0
 20
0.0
 30
0.0
  9
$UCSORGFRONT
 10
0.0
 20
0.0
 30
0.0
  9
$UCSORGBACK
 10
0.0
 20
0.0
 30
0.0
  9
$PUCSBASE
  2

  9
$PUCSNAME
  2

  9
$PUCSORG
 10
0.0
 20
0.0
 30
0.0
  9
$PUCSXDIR
 10
1.0
 20
0.0
 30
0.0
  9
$PUCSYDIR
 10
0.0
 20
1.0
 30
0.0
  9
$PUCSORTHOREF
  2

  9
$PUCSORTHOVIEW
 70
     0
  9
$PUCSORGTOP
 10
0.0
 20
0.0
 30
0.0
  9
$PUCSORGBOTTOM
 10
0.0
 20
0.0
 30
0.0
  9
$PUCSORGLEFT
 10
0.0
 20
0.0
 30
0.0
  9
$PUCSORGRIGHT
 10
0.0
 20
0.0
 30
0.0
  9
$PUCSORGFRONT
 10
0.0
 20
0.0
 30
0.0
  9
$PUCSORGBACK
 10
0.0
 20
0.0
 30
0.0
  9
$USERI1
 70
     0
  9
$USERI2
 70
     0
  9
$USERI3
 70
     0
  9
$USERI4
 70
     0
  9
$USERI5
 70
     0
  9
$USERR1
 40
0.0
  9
$USERR2
 40
0.0
  9
$USERR3
 40
0.0
  9
$USERR4
 40
0.0
  9
$USERR5
 40
0.0
  9
$WORLDVIEW
 70
     1
  9
$SHADEDGE
 70
     3
  9
$SHADEDIF
 70
    70
  9
$TILEMODE
 70
     1
  9
$MAXACTVP
 70
    64
  9
$PINSBASE
 10
0.0
 20
0.0
 30
0.0
  9
$PLIMCHECK
 70
     0
  9
$PEXTMIN
 10
1.000000000000000E+20
 20
1.000000000000000E+20
 30
1.000000000000000E+20
  9
$PEXTMAX
 10
-1.000000000000000E+20
 20
-1.000000000000000E+20
 30
-1.000000000000000E+20
  9
$PLIMMIN
 10
0.0
 20
0.0
  9
$PLIMMAX
 10
12.0
 20
9.0
  9
$UNITMODE
 70
     0
  9
$VISRETAIN
 70
     1
  9
$PLINEGEN
 70
     0
  9
$PSLTSCALE
 70
     1
  9
$TREEDEPTH
 70
  3020
  9
$CMLSTYLE
  2
Standard
  9
$CMLJUST
 70
     0
  9
$CMLSCALE
 40
1.0
  9
$PROXYGRAPHICS
 70
     1
  9
$MEASUREMENT
 70
     0
  9
$CELWEIGHT
370
    -1
  9
$ENDCAPS
280
     0
  9
$JOINSTYLE
280
     0
  9
$LWDISPLAY
290
     1
  9
$INSUNITS
 70
     1
  9
$HYPERLINKBASE
  1

  9
$STYLESHEET
  1

  9
$XEDIT
290
     1
  9
$CEPSNTYPE
380
     0
  9
$PSTYLEMODE
290
     1
  9
$FINGERPRINTGUID
  2
{3981D695-911C-9C4B-9E18-77111A7150E1}
  9
$VERSIONGUID
  2
{4DE37718-396D-7149-B843-5F012C40B12F}
  9
$EXTNAMES
290
     1
  9
$PSVPSCALE
 40
0.0
  9
$OLESTARTUP
290
     0
  9
$SORTENTS
280
   127
  9
$INDEXCTL
280
     0
  9
$HIDETEXT
280
     1
  9
$XCLIPFRAME
280
     2
  9
$HALOGAP
280
     0
  9
$OBSCOLOR
 70
   257
  9
$OBSLTYPE
280
     0
  9
$INTERSECTIONDISPLAY
280
     0
  9
$INTERSECTIONCOLOR
 70
   257
  9
$DIMASSOC
280
     2
  9
$PROJECTNAME
  1

  9
$CAMERADISPLAY
290
     0
  9
$LENSLENGTH
 40
50.0
  9
$CAMERAHEIGHT
 40
0.0
  9
$STEPSPERSEC
 40
2.0
  9
$STEPSIZE
 40
6.0
  9
$3DDWFPREC
 40
2.0
  9
$PSOLWIDTH
 40
0.25
  9
$PSOLHEIGHT
 40
4.0
  9
$LOFTANG1
 40
1.570796326794896
  9
$LOFTANG2
 40
1.570796326794896
  9
$LOFTMAG1
 40
0.0
  9
$LOFTMAG2
 40
0.0
  9
$LOFTPARAM
 70
     7
  9
$LOFTNORMALS
280
     1
  9
$LATITUDE
 40
37.795
  9
$LONGITUDE
 40
-122.394
  9
$NORTHDIRECTION
 40
0.0
  9
$TIMEZONE
 70
 -8000
  9
$LIGHTGLYPHDISPLAY
280
     1
  9
$TILEMODELIGHTSYNCH
280
     1
  9
$CMATERIAL
347
11
  9
$SOLIDHIST
280
     0
  9
$SHOWHIST
280
     1
  9
$DWFFRAME
280
     2
  9
$DGNFRAME
280
     0
  9
$REALWORLDSCALE
290
     1
  9
$INTERFERECOLOR
 62
     1
  9
$INTERFEREOBJVS
345
33
  9
$INTERFEREVPVS
346
30
  9
$CSHADOW
280
     0
  9
$SHADOWPLANELOCATION
 40
0.0
  0
ENDSEC
  0
SECTION
  2
CLASSES
  0
CLASS
  1
ACDBDICTIONARYWDFLT
  2
AcDbDictionaryWithDefault
  3
ObjectDBX Classes
 90
        0
 91
        1
280
     0
281
     0
  0
CLASS
  1
MATERIAL
  2
AcDbMaterial
  3
ObjectDBX Classes
 90
     1153
 91
        3
280
     0
281
     0
  0
CLASS
  1
VISUALSTYLE
  2
AcDbVisualStyle
  3
ObjectDBX Classes
 90
     4095
 91
       24
280
     0
281
     0
  0
CLASS
  1
SCALE
  2
AcDbScale
  3
ObjectDBX Classes
 90
     1153
 91
       17
280
     0
281
     0
  0
CLASS
  1
TABLESTYLE
  2
AcDbTableStyle
  3
ObjectDBX Classes
 90
     4095
 91
        1
280
     0
281
     0
  0
CLASS
  1
MLEADERSTYLE
  2
AcDbMLeaderStyle
  3
ACDB_MLEADERSTYLE_CLASS
 90
     4095
 91
        1
280
     0
281
     0
  0
CLASS
  1
ACDBSECTIONVIEWSTYLE
  2
AcDbSectionViewStyle
  3
ObjectDBX Classes
 90
     1025
 91
        1
280
     0
281
     0
  0
CLASS
  1
ACDBDETAILVIEWSTYLE
  2
AcDbDetailViewStyle
  3
ObjectDBX Classes
 90
     1025
 91
        1
280
     0
281
     0
  0
CLASS
  1
DICTIONARYVAR
  2
AcDbDictionaryVar
  3
ObjectDBX Classes
 90
        0
 91
        5
280
     0
281
     0
  0
CLASS
  1
CELLSTYLEMAP
  2
AcDbCellStyleMap
  3
ObjectDBX Classes
 90
     1152
 91
        1
280
     0
281
     0
  0
ENDSEC
  0
SECTION
  2
TABLES
  0
TABLE
  2
VPORT
  5
8
330
0
100
AcDbSymbolTable
 70
     1
1001
ACAD
1000
DbSaveVer
1071
      278
  0
VPORT
  5
57
330
8
100
AcDbSymbolTableRecord
100
AcDbViewportTableRecord
  2
*Active
 70
     0
 10
0.0
 20
0.0
 11
1.0
 21
1.0
 12
0.0
 22
0.0
 13
0.0
 23
0.0
 14
1.0
 24
1.0
 15
0.0
 25
0.0
 16
0.0
 26
0.0
 36
1.0
 17
50.33333333333333
 27
-6.0
 37
0.0
 40
12.24
 41
1.0
 42
50.0
 43
0.0
 44
0.0
 50
0.0
 51
0.0
 71
     0
 72
   100
 73
     1
 74
     1
 75
     0
 76
     0
 77
     0
 78
     0
281
     0
 65
     1
110
0.0
120
0.0
130
0.0
111
1.0
121
0.0
131
0.0
112
0.0
122
1.0
132
0.0
 79
     0
146
0.0
 60
     3
 61
     5
292
     1
282
     1
141
0.0
142
0.0
 63
   250
421
  3355443
  0
ENDTAB
  0
TABLE
  2
LTYPE
  5
5
330
0
100
AcDbSymbolTable
 70
     1
  0
LTYPE
  5
5B
330
5
100
AcDbSymbolTableRecord
100
AcDbLinetypeTableRecord
  2
ByBlock
 70
     0
  3

 72
    65
 73
     0
 40
0.0
  0
LTYPE
  5
5C
330
5
100
AcDbSymbolTableRecord
100
AcDbLinetypeTableRecord
  2
ByLayer
 70
     0
  3

 72
    65
 73
     0
 40
0.0
  0
LTYPE
  5
5D
330
5
100
AcDbSymbolTableRecord
100
AcDbLinetypeTableRecord
  2
Continuous
 70
     0
  3
Solid line
 72
    65
 73
     0
 40
0.0
  0
ENDTAB
  0
TABLE
  2
LAYER
  5
2
330
0
100
AcDbSymbolTable
 70
     2
  0
LAYER
  5
54
330
2
100
AcDbSymbolTableRecord
100
AcDbLayerTableRecord
  2
0
 70
     0
 62
     7
  6
Continuous
370
    -3
390
F
347
21
348
0
  0
LAYER
  5
78
330
2
100
AcDbSymbolTableRecord
100
AcDbLayerTableRecord
  2
Слой 1
 70
     0
 62
     7
  6
Continuous
370
     0
390
F
347
21
348
0
  0
ENDTAB
  0
TABLE
  2
STYLE
  5
3
330
0
100
AcDbSymbolTable
 70
     2
  0
STYLE
  5
55
330
3
100
AcDbSymbolTableRecord
100
AcDbTextStyleTableRecord
  2
Standard
 70
     0
 40
0.0
 41
1.0
 50
0.0
 71
     0
 42
0.2
  3
txt
  4

  0
STYLE
  5
5A
330
3
100
AcDbSymbolTableRecord
100
AcDbTextStyleTableRecord
  2
Annotative
 70
     0
 40
0.0
 41
1.0
 50
0.0
 71
     0
 42
0.2
  3
txt
  4

1001
AcadAnnotative
1000
AnnotativeData
1002
{
1070
     1
1070
     1
1002
}
  0
ENDTAB
  0
TABLE
  2
VIEW
  5
6
330
0
100
AcDbSymbolTable
 70
     0
  0
ENDTAB
  0
TABLE
  2
UCS
  5
7
330
0
100
AcDbSymbolTable
 70
     0
  0
ENDTAB
  0
TABLE
  2
APPID
  5
9
330
0
100
AcDbSymbolTable
 70
     2
  0
APPID
  5
56
330
9
100
AcDbSymbolTableRecord
100
AcDbRegAppTableRecord
  2
ACAD
 70
     0
  0
APPID
  5
5E
330
9
100
AcDbSymbolTableRecord
100
AcDbRegAppTableRecord
  2
AcadAnnotative
 70
     0
  0
ENDTAB
  0
TABLE
  2
DIMSTYLE
  5
A
330
0
100
AcDbSymbolTable
 70
     2
100
AcDbDimStyleTable
 71
     0
  0
DIMSTYLE
105
58
330
A
100
AcDbSymbolTableRecord
100
AcDbDimStyleTableRecord
  2
Standard
 70
     0
340
55
  0
DIMSTYLE
105
59
330
A
100
AcDbSymbolTableRecord
100
AcDbDimStyleTableRecord
  2
Annotative
 70
     0
340
55
1001
AcadAnnotative
1000
AnnotativeData
1002
{
1070
     1
1070
     1
1002
}
  0
ENDTAB
  0
TABLE
  2
BLOCK_RECORD
  5
1
330
0
100
AcDbSymbolTable
 70
     2
  0
BLOCK_RECORD
  5
70
330
1
100
AcDbSymbolTableRecord
100
AcDbBlockTableRecord
  2
*Model_Space
340
73
 70
     0
280
     1
281
     0
  0
BLOCK_RECORD
  5
6C
330
1
100
AcDbSymbolTableRecord
100
AcDbBlockTableRecord
  2
*Paper_Space
340
6F
 70
     0
280
     1
281
     0
  0
BLOCK_RECORD
  5
74
330
1
100
AcDbSymbolTableRecord
100
AcDbBlockTableRecord
  2
*Paper_Space0
340
77
 70
     0
280
     1
281
     0
  0
BLOCK_RECORD
  5
79
330
1
100
AcDbSymbolTableRecord
100
AcDbBlockTableRecord
  2
Block_0
340
0
102
{BLKREFS
331
7A
102
}
 70
     0
280
     1
281
     0
  0
ENDTAB
  0
ENDSEC
  0
SECTION
  2
BLOCKS
  0
BLOCK
  5
71
330
70
100
AcDbEntity
  8
0
100
AcDbBlockBegin
  2
*Model_Space
 70
     0
 10
0.0
 20
0.0
 30
0.0
  3
*Model_Space
  1

  0
ENDBLK
  5
72
330
70
100
AcDbEntity
  8
0
100
AcDbBlockEnd
  0
BLOCK
  5
6D
330
6C
100
AcDbEntity
 67
     1
  8
0
100
AcDbBlockBegin
  2
*Paper_Space
 70
     0
 10
0.0
 20
0.0
 30
0.0
  3
*Paper_Space
  1

  0
ENDBLK
  5
6E
330
6C
100
AcDbEntity
 67
     1
  8
0
100
AcDbBlockEnd
  0
BLOCK
  5
75
330
74
100
AcDbEntity
 67
     1
  8
0
100
AcDbBlockBegin
  2
*Paper_Space0
 70
     0
 10
0.0
 20
0.0
 30
0.0
  3
*Paper_Space0
  1

  0
ENDBLK
  5
76
330
74
100
AcDbEntity
 67
     1
  8
0
100
AcDbBlockEnd
  0
BLOCK
  5
7B
330
79
100
AcDbEntity
  8
0
100
AcDbBlockBegin
  2
Block_0
 70
     0
 10
0.0
 20
0.0
 30
0.0
  3
Block_0
  1

  0
SPLINE
  5
7D
330
79
100
AcDbEntity
  8
Слой 1
100
AcDbSpline
210
0.0
220
0.0
230
1.0
 70
     9
 71
     3
 72
    17
 73
    13
 74
     0
 42
0.0000000001
 43
0.0000000001
 40
0.0
 40
0.0
 40
0.0
 40
0.0
 40
1.0
 40
1.0
 40
1.0
 40
2.0
 40
2.0
 40
2.0
 40
3.0
 40
3.0
 40
3.0
 40
4.0
 40
4.0
 40
4.0
 40
4.0
 10
49.83311828773013
 20
-10.18778426689818
 30
0.0
 10
50.00110639690138
 20
-10.66067460758937
 30
0.0
 10
50.16546250393096
 20
-11.12334293342961
 30
0.0
 10
50.33388830712207
 20
-11.59746682746388
 30
0.0
 10
50.50311283038207
 20
-11.1207156250118
 30
0.0
 10
50.66749468411818
 20
-10.65760788870433
 30
0.0
 10
50.83436996339554
 20
-10.18747530641382
 30
0.0
 10
50.66199175459625
 20
-10.20524740007239
 30
0.0
 10
50.49863347550306
 20
-10.21682769675812
 30
0.0
 10
50.33493991706847
 20
-10.21705083488591
 30
0.0
 10
50.16975762681735
 20
-10.21727626161014
 30
0.0
 10
50.00496039287362
 20
-10.20463977778589
 30
0.0
 10
49.83311828773013
 20
-10.18778426689818
 30
0.0
  0
SPLINE
  5
7E
330
79
100
AcDbEntity
  8
Слой 1
100
AcDbSpline
210
0.0
220
0.0
230
1.0
 70
     9
 71
     3
 72
    38
 73
    34
 74
     0
 42
0.0000000001
 43
0.0000000001
 40
0.0
 40
0.0
 40
0.0
 40
0.0
 40
1.0
 40
1.0
 40
1.0
 40
2.0
 40
2.0
 40
2.0
 40
3.0
 40
3.0
 40
3.0
 40
4.0
 40
4.0
 40
4.0
 40
5.0
 40
5.0
 40
5.0
 40
6.0
 40
6.0
 40
6.0
 40
7.0
 40
7.0
 40
7.0
 40
8.0
 40
8.0
 40
8.0
 40
9.0
 40
9.0
 40
9.0
 40
10.0
 40
10.0
 40
10.0
 40
11.0
 40
11.0
 40
11.0
 40
11.0
 10
50.25878687907971
 20
-12.0
 30
0.0
 10
50.22070063355181
 20
-11.86700166572084
 30
0.0
 10
50.16947841808248
 20
-11.73850843302797
 30
0.0
 10
50.12340439972695
 20
-11.60828616591854
 30
0.0
 10
49.93257552850097
 20
-11.06893499207364
 30
0.0
 10
49.74025563686028
 20
-10.53011248394728
 30
0.0
 10
49.54856224842569
 20
-9.991067981990832
 30
0.0
 10
49.53117749967055
 20
-9.942183567522786
 30
0.0
 10
49.53287277729375
 20
-9.939575712172274
 30
0.0
 10
49.58702668447277
 20
-9.948454321063865
 30
0.0
 10
49.86923290764611
 20
-9.994720581498818
 30
0.0
 10
50.15283403019263
 20
-10.02026017060219
 30
0.0
 10
50.43920206552527
 20
-10.01313119349298
 30
0.0
 10
50.62502348830306
 20
-10.00850479630859
 30
0.0
 10
50.80915421065166
 20
-9.988622616969196
 30
0.0
 10
50.99274654074765
 20
-9.961478721940995
 30
0.0
 10
51.02816886031835
 20
-9.956242413874683
 30
0.0
 10
51.06381660661387
 20
-9.952479961749833
 30
0.0
 10
51.09916569110666
 20
-9.946817974792994
 30
0.0
 10
51.12766157433028
 20
-9.942253369705969
 30
0.0
 10
51.13400327435318
 20
-9.948181978118428
 30
0.0
 10
51.12323771790807
 20
-9.977756362292792
 30
0.0
 10
51.06261108857431
 20
-10.14429292933525
 30
0.0
 10
51.00399842388125
 20
-10.31156299145439
 30
0.0
 10
50.94475353449264
 20
-10.47860304965714
 30
0.0
 10
50.76859055975557
 20
-10.97529593494955
 30
0.0
 10
50.59243616725376
 20
-11.47199110883818
 30
0.0
 10
50.41644026003804
 20
-11.96874349763129
 30
0.0
 10
50.41287519933444
 20
-11.97880531074926
 30
0.0
 10
50.4112840528382
 20
-11.98956514570379
 30
0.0
 10
50.40877231852721
 20
-12.0
 30
0.0
 10
50.35877736276082
 20
-12.0
 30
0.0
 10
50.30878183484623
 20
-12.0
 30
0.0
 10
50.25878687907971
 20
-12.0
 30
0.0
  0
HATCH
  5
7F
330
79
100
AcDbEntity
  8
Слой 1
 62
    18
420
        0
440
 33554687
100
AcDbHatch
 10
0.0
 20
0.0
 30
0.0
210
0.0
220
0.0
230
1.0
  2
SOLID
 70
     1
 71
     1
 91
        2
 92
        1
 93
        1
 72
     4
 94
        3
 73
     0
 74
     0
 95
       17
 96
       13
 40
0.0
 40
0.0
 40
0.0
 40
0.0
 40
1.0
 40
1.0
 40
1.0
 40
2.0
 40
2.0
 40
2.0
 40
3.0
 40
3.0
 40
3.0
 40
4.0
 40
4.0
 40
4.0
 40
4.0
 10
49.83311828773013
 20
-10.18778426689818
 10
50.00110639690138
 20
-10.66067460758937
 10
50.16546250393096
 20
-11.12334293342961
 10
50.33388830712207
 20
-11.59746682746388
 10
50.50311283038207
 20
-11.1207156250118
 10
50.66749468411818
 20
-10.65760788870433
 10
50.83436996339554
 20
-10.18747530641382
 10
50.66199175459625
 20
-10.20524740007239
 10
50.49863347550306
 20
-10.21682769675812
 10
50.33493991706847
 20
-10.21705083488591
 10
50.16975762681735
 20
-10.21727626161014
 10
50.00496039287362
 20
-10.20463977778589
 10
49.83311828773013
 20
-10.18778426689818
 97
        0
 97
        1
330
7D
 92
        1
 93
        1
 72
     4
 94
        3
 73
     0
 74
     0
 95
       38
 96
       34
 40
0.0
 40
0.0
 40
0.0
 40
0.0
 40
1.0
 40
1.0
 40
1.0
 40
2.0
 40
2.0
 40
2.0
 40
3.0
 40
3.0
 40
3.0
 40
4.0
 40
4.0
 40
4.0
 40
5.0
 40
5.0
 40
5.0
 40
6.0
 40
6.0
 40
6.0
 40
7.0
 40
7.0
 40
7.0
 40
8.0
 40
8.0
 40
8.0
 40
9.0
 40
9.0
 40
9.0
 40
10.0
 40
10.0
 40
10.0
 40
11.0
 40
11.0
 40
11.0
 40
11.0
 10
50.25878687907971
 20
-12.0
 10
50.22070063355181
 20
-11.86700166572084
 10
50.16947841808248
 20
-11.73850843302797
 10
50.12340439972695
 20
-11.60828616591854
 10
49.93257552850097
 20
-11.06893499207364
 10
49.74025563686028
 20
-10.53011248394728
 10
49.54856224842569
 20
-9.991067981990832
 10
49.53117749967055
 20
-9.942183567522786
 10
49.53287277729375
 20
-9.939575712172274
 10
49.58702668447277
 20
-9.948454321063865
 10
49.86923290764611
 20
-9.994720581498818
 10
50.15283403019263
 20
-10.02026017060219
 10
50.43920206552527
 20
-10.01313119349298
 10
50.62502348830306
 20
-10.00850479630859
 10
50.80915421065166
 20
-9.988622616969196
 10
50.99274654074765
 20
-9.961478721940995
 10
51.02816886031835
 20
-9.956242413874683
 10
51.06381660661387
 20
-9.952479961749833
 10
51.09916569110666
 20
-9.946817974792994
 10
51.12766157433028
 20
-9.942253369705969
 10
51.13400327435318
 20
-9.948181978118428
 10
51.12323771790807
 20
-9.977756362292792
 10
51.06261108857431
 20
-10.14429292933525
 10
51.00399842388125
 20
-10.31156299145439
 10
50.94475353449264
 20
-10.47860304965714
 10
50.76859055975557
 20
-10.97529593494955
 10
50.59243616725376
 20
-11.47199110883818
 10
50.41644026003804
 20
-11.96874349763129
 10
50.41287519933444
 20
-11.97880531074926
 10
50.4112840528382
 20
-11.98956514570379
 10
50.40877231852721
 20
-12.0
 10
50.35877736276082
 20
-12.0
 10
50.30878183484623
 20
-12.0
 10
50.25878687907971
 20
-12.0
 97
        0
 97
        1
330
7E
 75
     2
 76
     1
 98
        1
 10
0.0
 20
0.0
450
        0
451
        0
460
0.0
461
0.0
452
        0
462
0.0
453
        0
470

  0
SPLINE
  5
80
330
79
100
AcDbEntity
  8
Слой 1
100
AcDbSpline
210
0.0
220
0.0
230
1.0
 70
     9
 71
     3
 72
    14
 73
    10
 74
     0
 42
0.0000000001
 43
0.0000000001
 40
0.0
 40
0.0
 40
0.0
 40
0.0
 40
1.0
 40
1.0
 40
1.0
 40
2.0
 40
2.0
 40
2.0
 40
3.0
 40
3.0
 40
3.0
 40
3.0
 10
54.5197559003368
 20
-5.499574388713918
 30
0.0
 10
54.55884397884346
 20
-5.835852701753272
 30
0.0
 10
54.55871238456304
 20
-6.165364208028449
 30
0.0
 10
54.51982799111652
 20
-6.501572718884138
 30
0.0
 10
54.99173881264126
 20
-6.334000562068972
 30
0.0
 10
55.45500217348888
 20
-6.169498557033016
 30
0.0
 10
55.93069833310056
 20
-6.000581849959997
 30
0.0
 10
55.45481908579404
 20
-5.831603350790373
 30
0.0
 10
54.99149164425375
 20
-5.667081892687128
 30
0.0
 10
54.5197559003368
 20
-5.499574388713918
 30
0.0
  0
SPLINE
  5
81
330
79
100
AcDbEntity
  8
Слой 1
100
AcDbSpline
210
0.0
220
0.0
230
1.0
 70
     9
 71
     3
 72
    38
 73
    34
 74
     0
 42
0.0000000001
 43
0.0000000001
 40
0.0
 40
0.0
 40
0.0
 40
0.0
 40
1.0
 40
1.0
 40
1.0
 40
2.0
 40
2.0
 40
2.0
 40
3.0
 40
3.0
 40
3.0
 40
4.0
 40
4.0
 40
4.0
 40
5.0
 40
5.0
 40
5.0
 40
6.0
 40
6.0
 40
6.0
 40
7.0
 40
7.0
 40
7.0
 40
8.0
 40
8.0
 40
8.0
 40
9.0
 40
9.0
 40
9.0
 40
10.0
 40
10.0
 40
10.0
 40
11.0
 40
11.0
 40
11.0
 40
11.0
 10
56.33319717669444
 20
-6.075575141832865
 30
0.0
 10
56.20151364092195
 20
-6.112779705681608
 30
0.0
 10
56.07450112995972
 20
-6.163678084790817
 30
0.0
 10
55.94570694686874
 20
-6.209198262870156
 30
0.0
 10
55.40476405437875
 20
-6.400387015846288
 30
0.0
 10
54.86451803942597
 20
-6.593546822285512
 30
0.0
 10
54.32398823854651
 20
-6.785906764358994
 30
0.0
 10
54.27449276889763
 20
-6.803520372731731
 30
0.0
 10
54.27262527441222
 20
-6.802336596355896
 30
0.0
 10
54.28165035346029
 20
-6.747351928762301
 30
0.0
 10
54.32797382879972
 20
-6.465146849886675
 30
0.0
 10
54.35346650168195
 20
-6.181527418570541
 30
0.0
 10
54.34632036010055
 20
-5.89515366174842
 30
0.0
 10
54.34168366423361
 20
-5.709331666820654
 30
0.0
 10
54.32188959584735
 20
-5.525184924299158
 30
0.0
 10
54.29467475433721
 20
-5.341594310650571
 30
0.0
 10
54.28942357039568
 20
-5.306174851824898
 30
0.0
 10
54.28566912835736
 20
-5.270525961231188
 30
0.0
 10
54.28002087297805
 20
-5.235175732440362
 30
0.0
 10
54.27554209024766
 20
-5.207155877223031
 30
0.0
 10
54.28047172642598
 20
-5.199887867895275
 30
0.0
 10
54.31070637059916
 20
-5.210920617944339
 30
0.0
 10
54.46551731509806
 20
-5.267413470422663
 30
0.0
 10
54.62121509061805
 20
-5.321471256562921
 30
0.0
 10
54.77650435171931
 20
-5.376656176322563
 30
0.0
 10
55.28196141609416
 20
-5.556276647743073
 30
0.0
 10
55.78736240986291
 20
-5.736047594362895
 30
0.0
 10
56.29286181326748
 20
-5.915546198036698
 30
0.0
 10
56.30585646239458
 20
-5.920160580090471
 30
0.0
 10
56.31973222105153
 20
-5.922297556776331
 30
0.0
 10
56.33319717669444
 20
-5.92558970238536
 30
0.0
 10
56.33319717669444
 20
-5.975584658151849
 30
0.0
 10
56.33319717669444
 20
-6.02558018606664
 30
0.0
 10
56.33319717669444
 20
-6.075575141832865
 30
0.0
  0
HATCH
  5
82
330
79
100
AcDbEntity
  8
Слой 1
 62
    18
420
        0
440
 33554687
100
AcDbHatch
 10
0.0
 20
0.0
 30
0.0
210
0.0
220
0.0
230
1.0
  2
SOLID
 70
     1
 71
     1
 91
        2
 92
        1
 93
        1
 72
     4
 94
        3
 73
     0
 74
     0
 95
       14
 96
       10
 40
0.0
 40
0.0
 40
0.0
 40
0.0
 40
1.0
 40
1.0
 40
1.0
 40
2.0
 40
2.0
 40
2.0
 40
3.0
 40
3.0
 40
3.0
 40
3.0
 10
54.5197559003368
 20
-5.499574388713918
 10
54.55884397884346
 20
-5.835852701753272
 10
54.55871238456304
 20
-6.165364208028449
 10
54.51982799111652
 20
-6.501572718884138
 10
54.99173881264126
 20
-6.334000562068972
 10
55.45500217348888
 20
-6.169498557033016
 10
55.93069833310056
 20
-6.000581849959997
 10
55.45481908579404
 20
-5.831603350790373
 10
54.99149164425375
 20
-5.667081892687128
 10
54.5197559003368
 20
-5.499574388713918
 97
        0
 97
        1
330
80
 92
        1
 93
        1
 72
     4
 94
        3
 73
     0
 74
     0
 95
       38
 96
       34
 40
0.0
 40
0.0
 40
0.0
 40
0.0
 40
1.0
 40
1.0
 40
1.0
 40
2.0
 40
2.0
 40
2.0
 40
3.0
 40
3.0
 40
3.0
 40
4.0
 40
4.0
 40
4.0
 40
5.0
 40
5.0
 40
5.0
 40
6.0
 40
6.0
 40
6.0
 40
7.0
 40
7.0
 40
7.0
 40
8.0
 40
8.0
 40
8.0
 40
9.0
 40
9.0
 40
9.0
 40
10.0
 40
10.0
 40
10.0
 40
11.0
 40
11.0
 40
11.0
 40
11.0
 10
56.33319717669444
 20
-6.075575141832865
 10
56.20151364092195
 20
-6.112779705681608
 10
56.07450112995972
 20
-6.163678084790817
 10
55.94570694686874
 20
-6.209198262870156
 10
55.40476405437875
 20
-6.400387015846288
 10
54.86451803942597
 20
-6.593546822285512
 10
54.32398823854651
 20
-6.785906764358994
 10
54.27449276889763
 20
-6.803520372731731
 10
54.27262527441222
 20
-6.802336596355896
 10
54.28165035346029
 20
-6.747351928762301
 10
54.32797382879972
 20
-6.465146849886675
 10
54.35346650168195
 20
-6.181527418570541
 10
54.34632036010055
 20
-5.89515366174842
 10
54.34168366423361
 20
-5.709331666820654
 10
54.32188959584735
 20
-5.525184924299158
 10
54.29467475433721
 20
-5.341594310650571
 10
54.28942357039568
 20
-5.306174851824898
 10
54.28566912835736
 20
-5.270525961231188
 10
54.28002087297805
 20
-5.235175732440362
 10
54.27554209024766
 20
-5.207155877223031
 10
54.28047172642598
 20
-5.199887867895275
 10
54.31070637059916
 20
-5.210920617944339
 10
54.46551731509806
 20
-5.267413470422663
 10
54.62121509061805
 20
-5.321471256562921
 10
54.77650435171931
 20
-5.376656176322563
 10
55.28196141609416
 20
-5.556276647743073
 10
55.78736240986291
 20
-5.736047594362895
 10
56.29286181326748
 20
-5.915546198036698
 10
56.30585646239458
 20
-5.920160580090471
 10
56.31973222105153
 20
-5.922297556776331
 10
56.33319717669444
 20
-5.92558970238536
 10
56.33319717669444
 20
-5.975584658151849
 10
56.33319717669444
 20
-6.02558018606664
 10
56.33319717669444
 20
-6.075575141832865
 97
        0
 97
        1
330
81
 75
     2
 76
     1
 98
        1
 10
0.0
 20
0.0
450
        0
451
        0
460
0.0
461
0.0
452
        0
462
0.0
453
        0
470

  0
SPLINE
  5
83
330
79
100
AcDbEntity
  8
Слой 1
100
AcDbSpline
210
0.0
220
0.0
230
1.0
 70
     9
 71
     3
 72
    17
 73
    13
 74
     0
 42
0.0000000001
 43
0.0000000001
 40
0.0
 40
0.0
 40
0.0
 40
0.0
 40
1.0
 40
1.0
 40
1.0
 40
2.0
 40
2.0
 40
2.0
 40
3.0
 40
3.0
 40
3.0
 40
4.0
 40
4.0
 40
4.0
 40
4.0
 10
47.04370631344166
 20
-6.005476585046304
 30
0.0
 10
47.05741614887553
 20
-7.773136211211244
 30
0.0
 10
48.44029781776609
 20
-9.254032447053329
 30
0.0
 10
50.28287206530916
 20
-9.286755367426342
 30
0.0
 10
52.08106213670443
 20
-9.31869043856323
 30
0.0
 10
53.65664961176541
 20
-7.903863685927793
 30
0.0
 10
53.62611745008877
 20
-5.919959755775594
 30
0.0
 10
53.60005091171347
 20
-4.226257259561634
 30
0.0
 10
52.2483453582514
 20
-2.710763170923352
 30
0.0
 10
50.32125811693749
 20
-2.708014566907472
 30
0.0
 10
48.54992243315375
 20
-2.705487670647597
 30
0.0
 10
47.05653132037638
 20
-4.126206128081725
 30
0.0
 10
47.04370631344166
 20
-6.005476585046304
 30
0.0
  0
SPLINE
  5
84
330
79
100
AcDbEntity
  8
Слой 1
100
AcDbSpline
210
0.0
220
0.0
230
1.0
 70
     9
 71
     3
 72
   344
 73
   340
 74
     0
 42
0.0000000001
 43
0.0000000001
 40
0.0
 40
0.0
 40
0.0
 40
0.0
 40
1.0
 40
1.0
 40
1.0
 40
2.0
 40
2.0
 40
2.0
 40
3.0
 40
3.0
 40
3.0
 40
4.0
 40
4.0
 40
4.0
 40
5.0
 40
5.0
 40
5.0
 40
6.0
 40
6.0
 40
6.0
 40
7.0
 40
7.0
 40
7.0
 40
8.0
 40
8.0
 40
8.0
 40
9.0
 40
9.0
 40
9.0
 40
10.0
 40
10.0
 40
10.0
 40
11.0
 40
11.0
 40
11.0
 40
12.0
 40
12.0
 40
12.0
 40
13.0
 40
13.0
 40
13.0
 40
14.0
 40
14.0
 40
14.0
 40
15.0
 40
15.0
 40
15.0
 40
16.0
 40
16.0
 40
16.0
 40
17.0
 40
17.0
 40
17.0
 40
18.0
 40
18.0
 40
18.0
 40
19.0
 40
19.0
 40
19.0
 40
20.0
 40
20.0
 40
20.0
 40
21.0
 40
21.0
 40
21.0
 40
22.0
 40
22.0
 40
22.0
 40
23.0
 40
23.0
 40
23.0
 40
24.0
 40
24.0
 40
24.0
 40
25.0
 40
25.0
 40
25.0
 40
26.0
 40
26.0
 40
26.0
 40
27.0
 40
27.0
 40
27.0
 40
28.0
 40
28.0
 40
28.0
 40
29.0
 40
29.0
 40
29.0
 40
30.0
 40
30.0
 40
30.0
 40
31.0
 40
31.0
 40
31.0
 40
32.0
 40
32.0
 40
32.0
 40
33.0
 40
33.0
 40
33.0
 40
34.0
 40
34.0
 40
34.0
 40
35.0
 40
35.0
 40
35.0
 40
36.0
 40
36.0
 40
36.0
 40
37.0
 40
37.0
 40
37.0
 40
38.0
 40
38.0
 40
38.0
 40
39.0
 40
39.0
 40
39.0
 40
40.0
 40
40.0
 40
40.0
 40
41.0
 40
41.0
 40
41.0
 40
42.0
 40
42.0
 40
42.0
 40
43.0
 40
43.0
 40
43.0
 40
44.0
 40
44.0
 40
44.0
 40
45.0
 40
45.0
 40
45.0
 40
46.0
 40
46.0
 40
46.0
 40
47.0
 40
47.0
 40
47.0
 40
48.0
 40
48.0
 40
48.0
 40
49.0
 40
49.0
 40
49.0
 40
50.0
 40
50.0
 40
50.0
 40
51.0
 40
51.0
 40
51.0
 40
52.0
 40
52.0
 40
52.0
 40
53.0
 40
53.0
 40
53.0
 40
54.0
 40
54.0
 40
54.0
 40
55.0
 40
55.0
 40
55.0
 40
56.0
 40
56.0
 40
56.0
 40
57.0
 40
57.0
 40
57.0
 40
58.0
 40
58.0
 40
58.0
 40
59.0
 40
59.0
 40
59.0
 40
60.0
 40
60.0
 40
60.0
 40
61.0
 40
61.0
 40
61.0
 40
62.0
 40
62.0
 40
62.0
 40
63.0
 40
63.0
 40
63.0
 40
64.0
 40
64.0
 40
64.0
 40
65.0
 40
65.0
 40
65.0
 40
66.0
 40
66.0
 40
66.0
 40
67.0
 40
67.0
 40
67.0
 40
68.0
 40
68.0
 40
68.0
 40
69.0
 40
69.0
 40
69.0
 40
70.0
 40
70.0
 40
70.0
 40
71.0
 40
71.0
 40
71.0
 40
72.0
 40
72.0
 40
72.0
 40
73.0
 40
73.0
 40
73.0
 40
74.0
 40
74.0
 40
74.0
 40
75.0
 40
75.0
 40
75.0
 40
76.0
 40
76.0
 40
76.0
 40
77.0
 40
77.0
 40
77.0
 40
78.0
 40
78.0
 40
78.0
 40
79.0
 40
79.0
 40
79.0
 40
80.0
 40
80.0
 40
80.0
 40
81.0
 40
81.0
 40
81.0
 40
82.0
 40
82.0
 40
82.0
 40
83.0
 40
83.0
 40
83.0
 40
84.0
 40
84.0
 40
84.0
 40
85.0
 40
85.0
 40
85.0
 40
86.0
 40
86.0
 40
86.0
 40
87.0
 40
87.0
 40
87.0
 40
88.0
 40
88.0
 40
88.0
 40
89.0
 40
89.0
 40
89.0
 40
90.0
 40
90.0
 40
90.0
 40
91.0
 40
91.0
 40
91.0
 40
92.0
 40
92.0
 40
92.0
 40
93.0
 40
93.0
 40
93.0
 40
94.0
 40
94.0
 40
94.0
 40
95.0
 40
95.0
 40
95.0
 40
96.0
 40
96.0
 40
96.0
 40
97.0
 40
97.0
 40
97.0
 40
98.0
 40
98.0
 40
98.0
 40
99.0
 40
99.0
 40
99.0
 40
100.0
 40
100.0
 40
100.0
 40
101.0
 40
101.0
 40
101.0
 40
102.0
 40
102.0
 40
102.0
 40
103.0
 40
103.0
 40
103.0
 40
104.0
 40
104.0
 40
104.0
 40
105.0
 40
105.0
 40
105.0
 40
106.0
 40
106.0
 40
106.0
 40
107.0
 40
107.0
 40
107.0
 40
108.0
 40
108.0
 40
108.0
 40
109.0
 40
109.0
 40
109.0
 40
110.0
 40
110.0
 40
110.0
 40
111.0
 40
111.0
 40
111.0
 40
112.0
 40
112.0
 40
112.0
 40
113.0
 40
113.0
 40
113.0
 40
113.0
 10
50.29330291456265
 20
-9.477450355776074
 30
0.0
 10
50.27684905230472
 20
-9.570467486888167
 30
0.0
 10
50.27706990183666
 20
-9.568046152126523
 30
0.0
 10
50.18285526277264
 20
-9.559450184863129
 30
0.0
 10
50.04780234126986
 20
-9.547127238716155
 30
0.0
 10
49.9128203662493
 20
-9.535021709205819
 30
0.0
 10
49.77815536179971
 20
-9.518500905510057
 30
0.0
 10
49.73772158873708
 20
-9.513540945432724
 30
0.0
 10
49.72603143943444
 20
-9.502442970392367
 30
0.0
 10
49.7384259042122
 20
-9.46492830176127
 30
0.0
 10
49.74125003190195
 20
-9.45638153931582
 30
0.0
 10
49.74079345696388
 20
-9.44675112657771
 30
0.0
 10
49.74219693857278
 20
-9.434584949269213
 30
0.0
 10
49.73798649374501
 20
-9.438575116714268
 30
0.0
 10
49.73566871796068
 20
-9.439742872916667
 30
0.0
 10
49.73505079699195
 20
-9.441505664126326
 30
0.0
 10
49.71219115401792
 20
-9.506736376831616
 30
0.0
 10
49.712504691695
 20
-9.505315158601735
 30
0.0
 10
49.64314020213401
 20
-9.491129867310796
 30
0.0
 10
49.50594401030624
 20
-9.463074538853005
 30
0.0
 10
49.37070399606596
 20
-9.428202054515168
 30
0.0
 10
49.23727540570457
 20
-9.385499138336676
 30
0.0
 10
48.86301068714583
 20
-9.265718591312582
 30
0.0
 10
48.51908560210985
 20
-9.087132565366598
 30
0.0
 10
48.20223575421707
 20
-8.855463695254659
 30
0.0
 10
48.17738188574431
 20
-8.837292241561954
 30
0.0
 10
48.17745912586542
 20
-8.837186393988455
 30
0.0
 10
48.19422967261999
 20
-8.793984563842588
 30
0.0
 10
48.16816055957431
 20
-8.834984764460411
 30
0.0
 10
48.14738010623278
 20
-8.817004408548957
 30
0.0
 10
48.12143286093388
 20
-8.79501042708163
 30
0.0
 10
48.00701993018222
 20
-8.698026586635629
 30
0.0
 10
47.89695189928402
 20
-8.596388885851865
 30
0.0
 10
47.78734244584541
 20
-8.494085203578681
 30
0.0
 10
47.75641063806001
 20
-8.465215134879498
 30
0.0
 10
47.75176879285209
 20
-8.445415917151345
 30
0.0
 10
47.78604652825666
 20
-8.419676648030568
 30
0.0
 10
47.79199258721498
 20
-8.415211024728755
 30
0.0
 10
47.79631545933026
 20
-8.40858439448084
 30
0.0
 10
47.80300388167486
 20
-8.401163049208763
 30
0.0
 10
47.79745889919763
 20
-8.401163049208763
 30
0.0
 10
47.79417133078097
 20
-8.400117160752996
 30
0.0
 10
47.79264998646847
 20
-8.401314668705733
 30
0.0
 10
47.7410836233482
 20
-8.441920086482088
 30
0.0
 10
47.74121521762903
 20
-8.44185486149081
 30
0.0
 10
47.69673549258873
 20
-8.392241529138244
 30
0.0
 10
47.46757692641555
 20
-8.136632798654646
 30
0.0
 10
47.27818901256028
 20
-7.854276100282302
 30
0.0
 10
47.12727154231791
 20
-7.546018214609122
 30
0.0
 10
47.11249379068943
 20
-7.515833347402677
 30
0.0
 10
47.11237421153903
 20
-7.515891706605366
 30
0.0
 10
47.15926125368848
 20
-7.485271433975235
 30
0.0
 10
47.15651865723778
 20
-7.484248431481723
 30
0.0
 10
47.15275248614431
 20
-7.481597092803692
 30
0.0
 10
47.15114131443152
 20
-7.48255715890261
 30
0.0
 10
47.1098221407207
 20
-7.50719961830239
 30
0.0
 10
47.09369039837596
 20
-7.491684080480151
 30
0.0
 10
47.07757496227903
 20
-7.448824967612507
 30
0.0
 10
47.02668573755459
 20
-7.313484827289307
 30
0.0
 10
46.97231956307875
 20
-7.179524710464116
 30
0.0
 10
46.92683314179359
 20
-7.042090504633177
 30
0.0
 10
46.91354154731125
 20
-7.001931363112639
 30
0.0
 10
46.90041044063748
 20
-6.970118731871302
 30
0.0
 10
46.96157288755292
 20
-6.964953942435234
 30
0.0
 10
46.95788996414512
 20
-6.960711457260963
 30
0.0
 10
46.95582107319569
 20
-6.957426177440765
 30
0.0
 10
46.95515623600472
 20
-6.95769051029937
 30
0.0
 10
46.90417661173111
 20
-6.97786162490724
 30
0.0
 10
46.89514838586334
 20
-6.946606838985593
 30
0.0
 10
46.88616535977098
 20
-6.906403641988163
 30
0.0
 10
46.8532602099268
 20
-6.759147353488994
 30
0.0
 10
46.82268828389139
 20
-6.611530038942267
 30
0.0
 10
46.79721363370375
 20
-6.462760416217128
 30
0.0
 10
46.7919481460354
 20
-6.432010265753786
 30
0.0
 10
46.79348865734123
 20
-6.419889860368508
 30
0.0
 10
46.82672651185582
 20
-6.420185089276198
 30
0.0
 10
46.84007331872041
 20
-6.420304096277832
 30
0.0
 10
46.85348306198
 20
-6.413327882962802
 30
0.0
 10
46.86830944627695
 20
-6.409176369486835
 30
0.0
 10
46.86444400732387
 20
-6.407120637965968
 30
0.0
 10
46.86228700542112
 20
-6.404975651193252
 30
0.0
 10
46.86012113520862
 20
-6.404966496808482
 30
0.0
 10
46.79405050770443
 20
-6.404673556497274
 30
0.0
 10
46.79557127986792
 20
-6.404533952130097
 30
0.0
 10
46.78802749469958
 20
-6.337871150363272
 30
0.0
 10
46.77113193337903
 20
-6.188564279684214
 30
0.0
 10
46.77001996170873
 20
-6.038852899630025
 30
0.0
 10
46.77229654276152
 20
-5.888917809298933
 30
0.0
 10
46.77268703448569
 20
-5.863177968028518
 30
0.0
 10
46.77371947743818
 20
-5.84162511347578
 30
0.0
 10
46.81187323655346
 20
-5.846139369446657
 30
0.0
 10
46.7828395332275
 20
-5.847224736186388
 30
0.0
 10
46.77500423812041
 20
-5.838195079946419
 30
0.0
 10
46.77684169478096
 20
-5.810203832181715
 30
0.0
 10
46.78736895114833
 20
-5.649839036895665
 30
0.0
 10
46.80807044792125
 20
-5.490988720133296
 30
0.0
 10
46.83524180610334
 20
-5.332622441463942
 30
0.0
 10
46.84216023236444
 20
-5.292299093167444
 30
0.0
 10
46.85308427409473
 20
-5.279847413484945
 30
0.0
 10
46.89091562722319
 20
-5.295132947390785
 30
0.0
 10
46.89609758113056
 20
-5.297225868600005
 30
0.0
 10
46.9028543752861
 20
-5.295421310509886
 30
0.0
 10
46.91020963734346
 20
-5.295421310509886
 30
0.0
 10
46.90783722132583
 20
-5.29230023746542
 30
0.0
 10
46.90684454273109
 20
-5.289532180382492
 30
0.0
 10
46.90506401490069
 20
-5.288863338147709
 30
0.0
 10
46.84445769685776
 20
-5.266111831343474
 30
0.0
 10
46.84501611432637
 20
-5.266288053249809
 30
0.0
 10
46.86218373251833
 20
-5.2000606569072
 30
0.0
 10
46.89613076577514
 20
-5.069103178273709
 30
0.0
 10
46.93209834338682
 20
-4.938795660956833
 30
0.0
 10
46.97617956661583
 20
-4.810776739822787
 30
0.0
 10
46.99973723142526
 20
-4.742361159454503
 30
0.0
 10
46.9984862275368
 20
-4.74193033122295
 30
0.0
 10
47.06858535647236
 20
-4.759537073807576
 30
0.0
 10
47.06710892585973
 20
-4.757259920605469
 30
0.0
 10
47.06642721027193
 20
-4.754875775531862
 30
0.0
 10
47.06490014446873
 20
-4.754045873341005
 30
0.0
 10
47.00592073223762
 20
-4.721983212966821
 30
0.0
 10
47.00669885493986
 20
-4.722326216319629
 30
0.0
 10
47.03316561157221
 20
-4.658072448110311
 30
0.0
 10
47.08655312510485
 20
-4.528460950107501
 30
0.0
 10
47.14932216654056
 20
-4.403279602165828
 30
0.0
 10
47.2093082750182
 20
-4.276737969867667
 30
0.0
 10
47.22883629409832
 20
-4.235542666425291
 30
0.0
 10
47.24542918857403
 20
-4.213411369186764
 30
0.0
 10
47.28978161045013
 20
-4.250456589526012
 30
0.0
 10
47.28806888228263
 20
-4.222101168893535
 30
0.0
 10
47.24688959901305
 20
-4.229363456731221
 30
0.0
 10
47.25409638839333
 20
-4.203910834281891
 30
0.0
 10
47.25939992397262
 20
-4.185179818822385
 30
0.0
 10
47.27478615611096
 20
-4.169395084874332
 30
0.0
 10
47.28518496501762
 20
-4.152001753883849
 30
0.0
 10
47.46174014792513
 20
-3.856693603637141
 30
0.0
 10
47.68072247117139
 20
-3.596273385753622
 30
0.0
 10
47.93329337629721
 20
-3.363446485972922
 30
0.0
 10
47.95701009854083
 20
-3.341583526637047
 30
0.0
 10
47.95693056982375
 20
-3.341497418205398
 30
0.0
 10
48.00118572636276
 20
-3.372737042177845
 30
0.0
 10
47.95188135449541
 20
-3.328831182631044
 30
0.0
 10
47.98838389146403
 20
-3.310001757535474
 30
0.0
 10
48.01930997775889
 20
-3.285566988238934
 30
0.0
 10
48.13075431318722
 20
-3.197515538695332
 30
0.0
 10
48.24414166677471
 20
-3.112183513566113
 30
0.0
 10
48.35995693483707
 20
-3.029953966637246
 30
0.0
 10
48.39162938956249
 20
-3.007466506617813
 30
0.0
 10
48.41931854263112
 20
-2.982039630875836
 30
0.0
 10
48.43373927325458
 20
-3.01605646631626
 30
0.0
 10
48.40781205317209
 20
-2.987400095285503
 30
0.0
 10
48.44684778004193
 20
-2.973835585708861
 30
0.0
 10
48.47871905655986
 20
-2.955186673637753
 30
0.0
 10
48.60118298260901
 20
-2.883529010701737
 30
0.0
 10
48.72659433446708
 20
-2.817492426065528
 30
0.0
 10
48.85339515028292
 20
-2.753888905246538
 30
0.0
 10
48.89212191666764
 20
-2.734463300845239
 30
0.0
 10
48.92904698570721
 20
-2.70614993316782
 30
0.0
 10
48.93611731754013
 20
-2.783563987653224
 30
0.0
 10
48.95178733560472
 20
-2.766633239165735
 30
0.0
 10
48.94084555725402
 20
-2.756674698950215
 30
0.0
 10
48.93652497373569
 20
-2.74964613399796
 30
0.0
 10
48.92118708819124
 20
-2.724694428038219
 30
0.0
 10
48.93697039176709
 20
-2.718506063959555
 30
0.0
 10
48.95554091941932
 20
-2.710835833852102
 30
0.0
 10
49.26762219109084
 20
-2.581937805709571
 30
0.0
 10
49.5898639715907
 20
-2.491883262356623
 30
0.0
 10
49.92635912911848
 20
-2.456074742179592
 30
0.0
 10
49.92946475413848
 20
-2.455744326106014
 30
0.0
 10
49.93258239428875
 20
-2.455480851470307
 30
0.0
 10
49.93566856624137
 20
-2.455016266445404
 30
0.0
 10
50.0164863354
 20
-2.442846942316792
 30
0.0
 10
50.01648576325083
 20
-2.44284293727325
 30
0.0
 10
50.02907933589666
 20
-2.523755111024355
 30
0.0
 10
50.03036552695165
 20
-2.521345791392819
 30
0.0
 10
50.03234802339513
 20
-2.51930808256644
 30
0.0
 10
50.0324664582479
 20
-2.517167386911864
 30
0.0
 10
50.03679705437527
 20
-2.439014115859663
 30
0.0
 10
50.03682451752916
 20
-2.440442199877641
 30
0.0
 10
50.11570384572081
 20
-2.437597474822155
 30
0.0
 10
50.25147366997708
 20
-2.432700737214468
 30
0.0
 10
50.38714451244903
 20
-2.433721737186323
 30
0.0
 10
50.52293779481639
 20
-2.436619672103018
 30
0.0
 10
50.56694063362652
 20
-2.437558568687272
 30
0.0
 10
50.60307756735596
 20
-2.436736390508674
 30
0.0
 10
50.58512467459847
 20
-2.497827604867388
 30
0.0
 10
50.59719759161263
 20
-2.496509659540783
 30
0.0
 10
50.59495648380084
 20
-2.489606109154755
 30
0.0
 10
50.59566079927597
 20
-2.485065820402281
 30
0.0
 10
50.59661285528778
 20
-2.478922370023446
 30
0.0
 10
50.59669638904819
 20
-2.472622150806614
 30
0.0
 10
50.59685544648345
 20
-2.46638172116449
 30
0.0
 10
50.59734291747069
 20
-2.447309990948383
 30
0.0
 10
50.60347578309221
 20
-2.439760198215051
 30
0.0
 10
50.62567344961917
 20
-2.442538840055842
 30
0.0
 10
50.78936357515959
 20
-2.463028355607421
 30
0.0
 10
50.95257938914028
 20
-2.484766300376476
 30
0.0
 10
51.11400151586305
 20
-2.520768493005511
 30
0.0
 10
51.48684473011735
 20
-2.603924349239441
 30
0.0
 10
51.83634941264735
 20
-2.744786300003271
 30
0.0
 10
52.16643707301182
 20
-2.935656079886573
 30
0.0
 10
52.19855637614195
 20
-2.954228610060731
 30
0.0
 10
52.19862045683445
 20
-2.95411789922025
 30
0.0
 10
52.18829030581375
 20
-2.998560148497567
 30
0.0
 10
52.21130557332778
 20
-2.959931219599815
 30
0.0
 10
52.22829153419805
 20
-2.969933243142577
 30
0.0
 10
52.25252090198735
 20
-2.985183303808007
 30
0.0
 10
52.34485030994541
 20
-3.043295338085853
 30
0.0
 10
52.43301447285166
 20
-3.107423519580013
 30
0.0
 10
52.51943186472054
 20
-3.173376570455565
 30
0.0
 10
52.60105464758609
 20
-3.235669583885131
 30
0.0
 10
52.67583052282208
 20
-3.306902426154515
 30
0.0
 10
52.75420349910735
 20
-3.373514592730657
 30
0.0
 10
52.76856901734848
 20
-3.385724539441209
 30
0.0
 10
52.76834587922015
 20
-3.394208079417289
 30
0.0
 10
52.75494500427041
 20
-3.40637625924766
 30
0.0
 10
52.74470811354401
 20
-3.415671106570433
 30
0.0
 10
52.73660819950348
 20
-3.427320633290769
 30
0.0
 10
52.72702298654055
 20
-3.438549916536872
 30
0.0
 10
52.73120654036251
 20
-3.439493962462127
 30
0.0
 10
52.73483968680347
 20
-3.441421246522824
 30
0.0
 10
52.73603719475598
 20
-3.440423990736134
 30
0.0
 10
52.78414177007501
 20
-3.400362972776608
 30
0.0
 10
52.78328640725168
 20
-3.401155113130824
 30
0.0
 10
52.82657234330751
 20
-3.444478524949052
 30
0.0
 10
52.92822720856262
 20
-3.546221787231779
 30
0.0
 10
53.02269588180347
 20
-3.654424612240859
 30
0.0
 10
53.11619762315666
 20
-3.763524853028318
 30
0.0
 10
53.13723840431374
 20
-3.788076340730286
 30
0.0
 10
53.1766405926475
 20
-3.812112322142082
 30
0.0
 10
53.11299644924555
 20
-3.847951452292591
 30
0.0
 10
53.15651296136667
 20
-3.811802217359222
 30
0.0
 10
53.17165603016082
 20
-3.836512190346777
 30
0.0
 10
53.19148328319167
 20
-3.863624617177277
 30
0.0
 10
53.3915700981275
 20
-4.137226863000667
 30
0.0
 10
53.55407701944111
 20
-4.431127526594663
 30
0.0
 10
53.6743038427214
 20
-4.748256583221922
 30
0.0
 10
53.69641397044471
 20
-4.806576021528952
 30
0.0
 10
53.6971457490743
 20
-4.806298529241757
 30
0.0
 10
53.64401370009015
 20
-4.833670139590126
 30
0.0
 10
53.64636466051958
 20
-4.835008968357366
 30
0.0
 10
53.64942050857277
 20
-4.837946381558304
 30
0.0
 10
53.65070784392543
 20
-4.83730957967009
 30
0.0
 10
53.70429703999722
 20
-4.810796765039236
 30
0.0
 10
53.71540474157083
 20
-4.843496799450766
 30
0.0
 10
53.72740900069958
 20
-4.886716366217101
 30
0.0
 10
53.7661028685143
 20
-5.026027793067176
 30
0.0
 10
53.80361582069832
 20
-5.165571512429588
 30
0.0
 10
53.83731597164165
 20
-5.306198882084623
 30
0.0
 10
53.84618027680764
 20
-5.343188317891645
 30
0.0
 10
53.8468102129068
 20
-5.367953789337093
 30
0.0
 10
53.80012685581762
 20
-5.369258289160787
 30
0.0
 10
53.79278904430568
 20
-5.3694625463704
 30
0.0
 10
53.78555879681431
 20
-5.373501346484216
 30
0.0
 10
53.77726435209876
 20
-5.376082882978809
 30
0.0
 10
53.77958327218069
 20
-5.378118017134434
 30
0.0
 10
53.78091924020292
 20
-5.379880236195238
 30
0.0
 10
53.78269290224499
 20
-5.380758484980345
 30
0.0
 10
53.80497867972528
 20
-5.391780936346637
 30
0.0
 10
53.83378810062527
 20
-5.357736351677772
 30
0.0
 10
53.84965036077012
 20
-5.385161744036432
 30
0.0
 10
53.86042793234459
 20
-5.403794922009258
 30
0.0
 10
53.85608989827986
 20
-5.430792919030813
 30
0.0
 10
53.86012869839388
 20
-5.453765275366373
 30
0.0
 10
53.88474312249069
 20
-5.593772435455977
 30
0.0
 10
53.88691843316252
 20
-5.736141426806018
 30
0.0
 10
53.90513680307665
 20
-5.876696705681941
 30
0.0
 10
53.91242540977055
 20
-5.932927513897336
 30
0.0
 10
53.87843632355902
 20
-5.926601834047245
 30
0.0
 10
53.84429561785083
 20
-5.927605383473443
 30
0.0
 10
53.84714835299263
 20
-5.931647616481389
 30
0.0
 10
53.84878298281693
 20
-5.935910699021797
 30
0.0
 10
53.8503352231775
 20
-5.935880947271432
 30
0.0
 10
53.9019608037239
 20
-5.934888268676862
 30
0.0
 10
53.90195508223389
 20
-5.963995207081059
 30
0.0
 10
53.9009131988214
 20
-6.006307345460564
 30
0.0
 10
53.89706835723389
 20
-6.162439954255609
 30
0.0
 10
53.88908516159876
 20
-6.318081087020168
 30
0.0
 10
53.86742073798179
 20
-6.47278904469115
 30
0.0
 10
53.84118770423444
 20
-6.660128378887368
 30
0.0
 10
53.79944313770748
 20
-6.844057704771961
 30
0.0
 10
53.7484640855829
 20
-7.026251702599741
 30
0.0
 10
53.73493962643985
 20
-7.074586281835358
 30
0.0
 10
53.70686141201986
 20
-7.029304689907853
 30
0.0
 10
53.68971238867207
 20
-7.0445169887361
 30
0.0
 10
53.6989548843568
 20
-7.062832051839475
 30
0.0
 10
53.73261784561236
 20
-7.052336549744596
 30
0.0
 10
53.73376843734305
 20
-7.073496337903229
 30
0.0
 10
53.73478400189929
 20
-7.092160984073213
 30
0.0
 10
53.72341082316804
 20
-7.111758233188462
 30
0.0
 10
53.71646264515653
 20
-7.130556762235199
 30
0.0
 10
53.66577653334292
 20
-7.267693450562521
 30
0.0
 10
53.61202599124097
 20
-7.403545664281485
 30
0.0
 10
53.55309120663514
 20
-7.537441128264465
 30
0.0
 10
53.53844647966027
 20
-7.570712739572122
 30
0.0
 10
53.5263649804104
 20
-7.588306894878061
 30
0.0
 10
53.4855163992893
 20
-7.564943188594926
 30
0.0
 10
53.52815180188013
 20
-7.588223361117418
 30
0.0
 10
53.51766602631889
 20
-7.612265636168684
 30
0.0
 10
53.50075272837736
 20
-7.642904217568179
 30
0.0
 10
53.42991781576986
 20
-7.771222372652927
 30
0.0
 10
53.35353706246097
 20
-7.89614139025712
 30
0.0
 10
53.27700468965526
 20
-8.021058119265665
 30
0.0
 10
53.25582945347193
 20
-8.055620498820619
 30
0.0
 10
53.23925257916986
 20
-8.086590354517889
 30
0.0
 10
53.19134940031487
 20
-8.043146505325516
 30
0.0
 10
53.23981099663847
 20
-8.074512288161916
 30
0.0
 10
53.21886290362653
 20
-8.098532821549168
 30
0.0
 10
53.19640147638875
 20
-8.128324050212135
 30
0.0
 10
52.99038776948847
 20
-8.401570419328916
 30
0.0
 10
52.74905987918597
 20
-8.638997969586423
 30
0.0
 10
52.47770102977139
 20
-8.846950689603065
 30
0.0
 10
52.44346992451347
 20
-8.873183151201121
 30
0.0
 10
52.42141472309832
 20
-8.879266812004491
 30
0.0
 10
52.40203260202431
 20
-8.833673398847571
 30
0.0
 10
52.39977604618792
 20
-8.839049883430384
 30
0.0
 10
52.39716132504888
 20
-8.842965099350445
 30
0.0
 10
52.39792285542873
 20
-8.843799292659392
 30
0.0
 10
52.42873651443612
 20
-8.877557230655762
 30
0.0
 10
52.41787941414457
 20
-8.895854557138665
 30
0.0
 10
52.3807023134504
 20
-8.919161048517555
 30
0.0
 10
52.25784875390139
 20
-8.996180320160975
 30
0.0
 10
52.13511820639681
 20
-9.073225338511974
 30
0.0
 10
52.00887924094389
 20
-9.14466730125711
 30
0.0
 10
51.97408113598208
 20
-9.164361243561112
 30
0.0
 10
51.94082153980374
 20
-9.193717066799838
 30
0.0
 10
51.93051370259596
 20
-9.148544183191434
 30
0.0
 10
51.95951536557569
 20
-9.186353508581078
 30
0.0
 10
51.91184905642568
 20
-9.194268618479831
 30
0.0
 10
51.87670937848345
 20
-9.21081688533003
 30
0.0
 10
51.61001354379098
 20
-9.336406461615801
 30
0.0
 10
51.33354826414263
 20
-9.43300867864789
 30
0.0
 10
51.04429373687473
 20
-9.491465146652091
 30
0.0
 10
50.81697205521237
 20
-9.537405282130571
 30
0.0
 10
50.5871769732257
 20
-9.559396975001668
 30
0.0
 10
50.35532501541931
 20
-9.563705257316415
 30
0.0
 10
50.31073343524123
 20
-9.564534301283602
 30
0.0
 10
50.28703673821347
 20
-9.55663349511115
 30
0.0
 10
50.29633473235556
 20
-9.506958370661449
 30
0.0
 10
50.29768157121
 20
-9.499765312858395
 30
0.0
 10
50.29492324066012
 20
-9.491804431035916
 30
0.0
 10
50.29330291456265
 20
-9.477450355776074
 30
0.0
  0
HATCH
  5
85
330
79
100
AcDbEntity
  8
Слой 1
 62
    18
420
        0
440
 33554687
100
AcDbHatch
 10
0.0
 20
0.0
 30
0.0
210
0.0
220
0.0
230
1.0
  2
SOLID
 70
     1
 71
     1
 91
        2
 92
        1
 93
        1
 72
     4
 94
        3
 73
     0
 74
     0
 95
       17
 96
       13
 40
0.0
 40
0.0
 40
0.0
 40
0.0
 40
1.0
 40
1.0
 40
1.0
 40
2.0
 40
2.0
 40
2.0
 40
3.0
 40
3.0
 40
3.0
 40
4.0
 40
4.0
 40
4.0
 40
4.0
 10
47.04370631344166
 20
-6.005476585046304
 10
47.05741614887553
 20
-7.773136211211244
 10
48.44029781776609
 20
-9.254032447053329
 10
50.28287206530916
 20
-9.286755367426342
 10
52.08106213670443
 20
-9.31869043856323
 10
53.65664961176541
 20
-7.903863685927793
 10
53.62611745008877
 20
-5.919959755775594
 10
53.60005091171347
 20
-4.226257259561634
 10
52.2483453582514
 20
-2.710763170923352
 10
50.32125811693749
 20
-2.708014566907472
 10
48.54992243315375
 20
-2.705487670647597
 10
47.05653132037638
 20
-4.126206128081725
 10
47.04370631344166
 20
-6.005476585046304
 97
        0
 97
        1
330
83
 92
        1
 93
        1
 72
     4
 94
        3
 73
     0
 74
     0
 95
      344
 96
      340
 40
0.0
 40
0.0
 40
0.0
 40
0.0
 40
1.0
 40
1.0
 40
1.0
 40
2.0
 40
2.0
 40
2.0
 40
3.0
 40
3.0
 40
3.0
 40
4.0
 40
4.0
 40
4.0
 40
5.0
 40
5.0
 40
5.0
 40
6.0
 40
6.0
 40
6.0
 40
7.0
 40
7.0
 40
7.0
 40
8.0
 40
8.0
 40
8.0
 40
9.0
 40
9.0
 40
9.0
 40
10.0
 40
10.0
 40
10.0
 40
11.0
 40
11.0
 40
11.0
 40
12.0
 40
12.0
 40
12.0
 40
13.0
 40
13.0
 40
13.0
 40
14.0
 40
14.0
 40
14.0
 40
15.0
 40
15.0
 40
15.0
 40
16.0
 40
16.0
 40
16.0
 40
17.0
 40
17.0
 40
17.0
 40
18.0
 40
18.0
 40
18.0
 40
19.0
 40
19.0
 40
19.0
 40
20.0
 40
20.0
 40
20.0
 40
21.0
 40
21.0
 40
21.0
 40
22.0
 40
22.0
 40
22.0
 40
23.0
 40
23.0
 40
23.0
 40
24.0
 40
24.0
 40
24.0
 40
25.0
 40
25.0
 40
25.0
 40
26.0
 40
26.0
 40
26.0
 40
27.0
 40
27.0
 40
27.0
 40
28.0
 40
28.0
 40
28.0
 40
29.0
 40
29.0
 40
29.0
 40
30.0
 40
30.0
 40
30.0
 40
31.0
 40
31.0
 40
31.0
 40
32.0
 40
32.0
 40
32.0
 40
33.0
 40
33.0
 40
33.0
 40
34.0
 40
34.0
 40
34.0
 40
35.0
 40
35.0
 40
35.0
 40
36.0
 40
36.0
 40
36.0
 40
37.0
 40
37.0
 40
37.0
 40
38.0
 40
38.0
 40
38.0
 40
39.0
 40
39.0
 40
39.0
 40
40.0
 40
40.0
 40
40.0
 40
41.0
 40
41.0
 40
41.0
 40
42.0
 40
42.0
 40
42.0
 40
43.0
 40
43.0
 40
43.0
 40
44.0
 40
44.0
 40
44.0
 40
45.0
 40
45.0
 40
45.0
 40
46.0
 40
46.0
 40
46.0
 40
47.0
 40
47.0
 40
47.0
 40
48.0
 40
48.0
 40
48.0
 40
49.0
 40
49.0
 40
49.0
 40
50.0
 40
50.0
 40
50.0
 40
51.0
 40
51.0
 40
51.0
 40
52.0
 40
52.0
 40
52.0
 40
53.0
 40
53.0
 40
53.0
 40
54.0
 40
54.0
 40
54.0
 40
55.0
 40
55.0
 40
55.0
 40
56.0
 40
56.0
 40
56.0
 40
57.0
 40
57.0
 40
57.0
 40
58.0
 40
58.0
 40
58.0
 40
59.0
 40
59.0
 40
59.0
 40
60.0
 40
60.0
 40
60.0
 40
61.0
 40
61.0
 40
61.0
 40
62.0
 40
62.0
 40
62.0
 40
63.0
 40
63.0
 40
63.0
 40
64.0
 40
64.0
 40
64.0
 40
65.0
 40
65.0
 40
65.0
 40
66.0
 40
66.0
 40
66.0
 40
67.0
 40
67.0
 40
67.0
 40
68.0
 40
68.0
 40
68.0
 40
69.0
 40
69.0
 40
69.0
 40
70.0
 40
70.0
 40
70.0
 40
71.0
 40
71.0
 40
71.0
 40
72.0
 40
72.0
 40
72.0
 40
73.0
 40
73.0
 40
73.0
 40
74.0
 40
74.0
 40
74.0
 40
75.0
 40
75.0
 40
75.0
 40
76.0
 40
76.0
 40
76.0
 40
77.0
 40
77.0
 40
77.0
 40
78.0
 40
78.0
 40
78.0
 40
79.0
 40
79.0
 40
79.0
 40
80.0
 40
80.0
 40
80.0
 40
81.0
 40
81.0
 40
81.0
 40
82.0
 40
82.0
 40
82.0
 40
83.0
 40
83.0
 40
83.0
 40
84.0
 40
84.0
 40
84.0
 40
85.0
 40
85.0
 40
85.0
 40
86.0
 40
86.0
 40
86.0
 40
87.0
 40
87.0
 40
87.0
 40
88.0
 40
88.0
 40
88.0
 40
89.0
 40
89.0
 40
89.0
 40
90.0
 40
90.0
 40
90.0
 40
91.0
 40
91.0
 40
91.0
 40
92.0
 40
92.0
 40
92.0
 40
93.0
 40
93.0
 40
93.0
 40
94.0
 40
94.0
 40
94.0
 40
95.0
 40
95.0
 40
95.0
 40
96.0
 40
96.0
 40
96.0
 40
97.0
 40
97.0
 40
97.0
 40
98.0
 40
98.0
 40
98.0
 40
99.0
 40
99.0
 40
99.0
 40
100.0
 40
100.0
 40
100.0
 40
101.0
 40
101.0
 40
101.0
 40
102.0
 40
102.0
 40
102.0
 40
103.0
 40
103.0
 40
103.0
 40
104.0
 40
104.0
 40
104.0
 40
105.0
 40
105.0
 40
105.0
 40
106.0
 40
106.0
 40
106.0
 40
107.0
 40
107.0
 40
107.0
 40
108.0
 40
108.0
 40
108.0
 40
109.0
 40
109.0
 40
109.0
 40
110.0
 40
110.0
 40
110.0
 40
111.0
 40
111.0
 40
111.0
 40
112.0
 40
112.0
 40
112.0
 40
113.0
 40
113.0
 40
113.0
 40
113.0
 10
50.29330291456265
 20
-9.477450355776074
 10
50.27684905230472
 20
-9.570467486888167
 10
50.27706990183666
 20
-9.568046152126523
 10
50.18285526277264
 20
-9.559450184863129
 10
50.04780234126986
 20
-9.547127238716155
 10
49.9128203662493
 20
-9.535021709205819
 10
49.77815536179971
 20
-9.518500905510057
 10
49.73772158873708
 20
-9.513540945432724
 10
49.72603143943444
 20
-9.502442970392367
 10
49.7384259042122
 20
-9.46492830176127
 10
49.74125003190195
 20
-9.45638153931582
 10
49.74079345696388
 20
-9.44675112657771
 10
49.74219693857278
 20
-9.434584949269213
 10
49.73798649374501
 20
-9.438575116714268
 10
49.73566871796068
 20
-9.439742872916667
 10
49.73505079699195
 20
-9.441505664126326
 10
49.71219115401792
 20
-9.506736376831616
 10
49.712504691695
 20
-9.505315158601735
 10
49.64314020213401
 20
-9.491129867310796
 10
49.50594401030624
 20
-9.463074538853005
 10
49.37070399606596
 20
-9.428202054515168
 10
49.23727540570457
 20
-9.385499138336676
 10
48.86301068714583
 20
-9.265718591312582
 10
48.51908560210985
 20
-9.087132565366598
 10
48.20223575421707
 20
-8.855463695254659
 10
48.17738188574431
 20
-8.837292241561954
 10
48.17745912586542
 20
-8.837186393988455
 10
48.19422967261999
 20
-8.793984563842588
 10
48.16816055957431
 20
-8.834984764460411
 10
48.14738010623278
 20
-8.817004408548957
 10
48.12143286093388
 20
-8.79501042708163
 10
48.00701993018222
 20
-8.698026586635629
 10
47.89695189928402
 20
-8.596388885851865
 10
47.78734244584541
 20
-8.494085203578681
 10
47.75641063806001
 20
-8.465215134879498
 10
47.75176879285209
 20
-8.445415917151345
 10
47.78604652825666
 20
-8.419676648030568
 10
47.79199258721498
 20
-8.415211024728755
 10
47.79631545933026
 20
-8.40858439448084
 10
47.80300388167486
 20
-8.401163049208763
 10
47.79745889919763
 20
-8.401163049208763
 10
47.79417133078097
 20
-8.400117160752996
 10
47.79264998646847
 20
-8.401314668705733
 10
47.7410836233482
 20
-8.441920086482088
 10
47.74121521762903
 20
-8.44185486149081
 10
47.69673549258873
 20
-8.392241529138244
 10
47.46757692641555
 20
-8.136632798654646
 10
47.27818901256028
 20
-7.854276100282302
 10
47.12727154231791
 20
-7.546018214609122
 10
47.11249379068943
 20
-7.515833347402677
 10
47.11237421153903
 20
-7.515891706605366
 10
47.15926125368848
 20
-7.485271433975235
 10
47.15651865723778
 20
-7.484248431481723
 10
47.15275248614431
 20
-7.481597092803692
 10
47.15114131443152
 20
-7.48255715890261
 10
47.1098221407207
 20
-7.50719961830239
 10
47.09369039837596
 20
-7.491684080480151
 10
47.07757496227903
 20
-7.448824967612507
 10
47.02668573755459
 20
-7.313484827289307
 10
46.97231956307875
 20
-7.179524710464116
 10
46.92683314179359
 20
-7.042090504633177
 10
46.91354154731125
 20
-7.001931363112639
 10
46.90041044063748
 20
-6.970118731871302
 10
46.96157288755292
 20
-6.964953942435234
 10
46.95788996414512
 20
-6.960711457260963
 10
46.95582107319569
 20
-6.957426177440765
 10
46.95515623600472
 20
-6.95769051029937
 10
46.90417661173111
 20
-6.97786162490724
 10
46.89514838586334
 20
-6.946606838985593
 10
46.88616535977098
 20
-6.906403641988163
 10
46.8532602099268
 20
-6.759147353488994
 10
46.82268828389139
 20
-6.611530038942267
 10
46.79721363370375
 20
-6.462760416217128
 10
46.7919481460354
 20
-6.432010265753786
 10
46.79348865734123
 20
-6.419889860368508
 10
46.82672651185582
 20
-6.420185089276198
 10
46.84007331872041
 20
-6.420304096277832
 10
46.85348306198
 20
-6.413327882962802
 10
46.86830944627695
 20
-6.409176369486835
 10
46.86444400732387
 20
-6.407120637965968
 10
46.86228700542112
 20
-6.404975651193252
 10
46.86012113520862
 20
-6.404966496808482
 10
46.79405050770443
 20
-6.404673556497274
 10
46.79557127986792
 20
-6.404533952130097
 10
46.78802749469958
 20
-6.337871150363272
 10
46.77113193337903
 20
-6.188564279684214
 10
46.77001996170873
 20
-6.038852899630025
 10
46.77229654276152
 20
-5.888917809298933
 10
46.77268703448569
 20
-5.863177968028518
 10
46.77371947743818
 20
-5.84162511347578
 10
46.81187323655346
 20
-5.846139369446657
 10
46.7828395332275
 20
-5.847224736186388
 10
46.77500423812041
 20
-5.838195079946419
 10
46.77684169478096
 20
-5.810203832181715
 10
46.78736895114833
 20
-5.649839036895665
 10
46.80807044792125
 20
-5.490988720133296
 10
46.83524180610334
 20
-5.332622441463942
 10
46.84216023236444
 20
-5.292299093167444
 10
46.85308427409473
 20
-5.279847413484945
 10
46.89091562722319
 20
-5.295132947390785
 10
46.89609758113056
 20
-5.297225868600005
 10
46.9028543752861
 20
-5.295421310509886
 10
46.91020963734346
 20
-5.295421310509886
 10
46.90783722132583
 20
-5.29230023746542
 10
46.90684454273109
 20
-5.289532180382492
 10
46.90506401490069
 20
-5.288863338147709
 10
46.84445769685776
 20
-5.266111831343474
 10
46.84501611432637
 20
-5.266288053249809
 10
46.86218373251833
 20
-5.2000606569072
 10
46.89613076577514
 20
-5.069103178273709
 10
46.93209834338682
 20
-4.938795660956833
 10
46.97617956661583
 20
-4.810776739822787
 10
46.99973723142526
 20
-4.742361159454503
 10
46.9984862275368
 20
-4.74193033122295
 10
47.06858535647236
 20
-4.759537073807576
 10
47.06710892585973
 20
-4.757259920605469
 10
47.06642721027193
 20
-4.754875775531862
 10
47.06490014446873
 20
-4.754045873341005
 10
47.00592073223762
 20
-4.721983212966821
 10
47.00669885493986
 20
-4.722326216319629
 10
47.03316561157221
 20
-4.658072448110311
 10
47.08655312510485
 20
-4.528460950107501
 10
47.14932216654056
 20
-4.403279602165828
 10
47.2093082750182
 20
-4.276737969867667
 10
47.22883629409832
 20
-4.235542666425291
 10
47.24542918857403
 20
-4.213411369186764
 10
47.28978161045013
 20
-4.250456589526012
 10
47.28806888228263
 20
-4.222101168893535
 10
47.24688959901305
 20
-4.229363456731221
 10
47.25409638839333
 20
-4.203910834281891
 10
47.25939992397262
 20
-4.185179818822385
 10
47.27478615611096
 20
-4.169395084874332
 10
47.28518496501762
 20
-4.152001753883849
 10
47.46174014792513
 20
-3.856693603637141
 10
47.68072247117139
 20
-3.596273385753622
 10
47.93329337629721
 20
-3.363446485972922
 10
47.95701009854083
 20
-3.341583526637047
 10
47.95693056982375
 20
-3.341497418205398
 10
48.00118572636276
 20
-3.372737042177845
 10
47.95188135449541
 20
-3.328831182631044
 10
47.98838389146403
 20
-3.310001757535474
 10
48.01930997775889
 20
-3.285566988238934
 10
48.13075431318722
 20
-3.197515538695332
 10
48.24414166677471
 20
-3.112183513566113
 10
48.35995693483707
 20
-3.029953966637246
 10
48.39162938956249
 20
-3.007466506617813
 10
48.41931854263112
 20
-2.982039630875836
 10
48.43373927325458
 20
-3.01605646631626
 10
48.40781205317209
 20
-2.987400095285503
 10
48.44684778004193
 20
-2.973835585708861
 10
48.47871905655986
 20
-2.955186673637753
 10
48.60118298260901
 20
-2.883529010701737
 10
48.72659433446708
 20
-2.817492426065528
 10
48.85339515028292
 20
-2.753888905246538
 10
48.89212191666764
 20
-2.734463300845239
 10
48.92904698570721
 20
-2.70614993316782
 10
48.93611731754013
 20
-2.783563987653224
 10
48.95178733560472
 20
-2.766633239165735
 10
48.94084555725402
 20
-2.756674698950215
 10
48.93652497373569
 20
-2.74964613399796
 10
48.92118708819124
 20
-2.724694428038219
 10
48.93697039176709
 20
-2.718506063959555
 10
48.95554091941932
 20
-2.710835833852102
 10
49.26762219109084
 20
-2.581937805709571
 10
49.5898639715907
 20
-2.491883262356623
 10
49.92635912911848
 20
-2.456074742179592
 10
49.92946475413848
 20
-2.455744326106014
 10
49.93258239428875
 20
-2.455480851470307
 10
49.93566856624137
 20
-2.455016266445404
 10
50.0164863354
 20
-2.442846942316792
 10
50.01648576325083
 20
-2.44284293727325
 10
50.02907933589666
 20
-2.523755111024355
 10
50.03036552695165
 20
-2.521345791392819
 10
50.03234802339513
 20
-2.51930808256644
 10
50.0324664582479
 20
-2.517167386911864
 10
50.03679705437527
 20
-2.439014115859663
 10
50.03682451752916
 20
-2.440442199877641
 10
50.11570384572081
 20
-2.437597474822155
 10
50.25147366997708
 20
-2.432700737214468
 10
50.38714451244903
 20
-2.433721737186323
 10
50.52293779481639
 20
-2.436619672103018
 10
50.56694063362652
 20
-2.437558568687272
 10
50.60307756735596
 20
-2.436736390508674
 10
50.58512467459847
 20
-2.497827604867388
 10
50.59719759161263
 20
-2.496509659540783
 10
50.59495648380084
 20
-2.489606109154755
 10
50.59566079927597
 20
-2.485065820402281
 10
50.59661285528778
 20
-2.478922370023446
 10
50.59669638904819
 20
-2.472622150806614
 10
50.59685544648345
 20
-2.46638172116449
 10
50.59734291747069
 20
-2.447309990948383
 10
50.60347578309221
 20
-2.439760198215051
 10
50.62567344961917
 20
-2.442538840055842
 10
50.78936357515959
 20
-2.463028355607421
 10
50.95257938914028
 20
-2.484766300376476
 10
51.11400151586305
 20
-2.520768493005511
 10
51.48684473011735
 20
-2.603924349239441
 10
51.83634941264735
 20
-2.744786300003271
 10
52.16643707301182
 20
-2.935656079886573
 10
52.19855637614195
 20
-2.954228610060731
 10
52.19862045683445
 20
-2.95411789922025
 10
52.18829030581375
 20
-2.998560148497567
 10
52.21130557332778
 20
-2.959931219599815
 10
52.22829153419805
 20
-2.969933243142577
 10
52.25252090198735
 20
-2.985183303808007
 10
52.34485030994541
 20
-3.043295338085853
 10
52.43301447285166
 20
-3.107423519580013
 10
52.51943186472054
 20
-3.173376570455565
 10
52.60105464758609
 20
-3.235669583885131
 10
52.67583052282208
 20
-3.306902426154515
 10
52.75420349910735
 20
-3.373514592730657
 10
52.76856901734848
 20
-3.385724539441209
 10
52.76834587922015
 20
-3.394208079417289
 10
52.75494500427041
 20
-3.40637625924766
 10
52.74470811354401
 20
-3.415671106570433
 10
52.73660819950348
 20
-3.427320633290769
 10
52.72702298654055
 20
-3.438549916536872
 10
52.73120654036251
 20
-3.439493962462127
 10
52.73483968680347
 20
-3.441421246522824
 10
52.73603719475598
 20
-3.440423990736134
 10
52.78414177007501
 20
-3.400362972776608
 10
52.78328640725168
 20
-3.401155113130824
 10
52.82657234330751
 20
-3.444478524949052
 10
52.92822720856262
 20
-3.546221787231779
 10
53.02269588180347
 20
-3.654424612240859
 10
53.11619762315666
 20
-3.763524853028318
 10
53.13723840431374
 20
-3.788076340730286
 10
53.1766405926475
 20
-3.812112322142082
 10
53.11299644924555
 20
-3.847951452292591
 10
53.15651296136667
 20
-3.811802217359222
 10
53.17165603016082
 20
-3.836512190346777
 10
53.19148328319167
 20
-3.863624617177277
 10
53.3915700981275
 20
-4.137226863000667
 10
53.55407701944111
 20
-4.431127526594663
 10
53.6743038427214
 20
-4.748256583221922
 10
53.69641397044471
 20
-4.806576021528952
 10
53.6971457490743
 20
-4.806298529241757
 10
53.64401370009015
 20
-4.833670139590126
 10
53.64636466051958
 20
-4.835008968357366
 10
53.64942050857277
 20
-4.837946381558304
 10
53.65070784392543
 20
-4.83730957967009
 10
53.70429703999722
 20
-4.810796765039236
 10
53.71540474157083
 20
-4.843496799450766
 10
53.72740900069958
 20
-4.886716366217101
 10
53.7661028685143
 20
-5.026027793067176
 10
53.80361582069832
 20
-5.165571512429588
 10
53.83731597164165
 20
-5.306198882084623
 10
53.84618027680764
 20
-5.343188317891645
 10
53.8468102129068
 20
-5.367953789337093
 10
53.80012685581762
 20
-5.369258289160787
 10
53.79278904430568
 20
-5.3694625463704
 10
53.78555879681431
 20
-5.373501346484216
 10
53.77726435209876
 20
-5.376082882978809
 10
53.77958327218069
 20
-5.378118017134434
 10
53.78091924020292
 20
-5.379880236195238
 10
53.78269290224499
 20
-5.380758484980345
 10
53.80497867972528
 20
-5.391780936346637
 10
53.83378810062527
 20
-5.357736351677772
 10
53.84965036077012
 20
-5.385161744036432
 10
53.86042793234459
 20
-5.403794922009258
 10
53.85608989827986
 20
-5.430792919030813
 10
53.86012869839388
 20
-5.453765275366373
 10
53.88474312249069
 20
-5.593772435455977
 10
53.88691843316252
 20
-5.736141426806018
 10
53.90513680307665
 20
-5.876696705681941
 10
53.91242540977055
 20
-5.932927513897336
 10
53.87843632355902
 20
-5.926601834047245
 10
53.84429561785083
 20
-5.927605383473443
 10
53.84714835299263
 20
-5.931647616481389
 10
53.84878298281693
 20
-5.935910699021797
 10
53.8503352231775
 20
-5.935880947271432
 10
53.9019608037239
 20
-5.934888268676862
 10
53.90195508223389
 20
-5.963995207081059
 10
53.9009131988214
 20
-6.006307345460564
 10
53.89706835723389
 20
-6.162439954255609
 10
53.88908516159876
 20
-6.318081087020168
 10
53.86742073798179
 20
-6.47278904469115
 10
53.84118770423444
 20
-6.660128378887368
 10
53.79944313770748
 20
-6.844057704771961
 10
53.7484640855829
 20
-7.026251702599741
 10
53.73493962643985
 20
-7.074586281835358
 10
53.70686141201986
 20
-7.029304689907853
 10
53.68971238867207
 20
-7.0445169887361
 10
53.6989548843568
 20
-7.062832051839475
 10
53.73261784561236
 20
-7.052336549744596
 10
53.73376843734305
 20
-7.073496337903229
 10
53.73478400189929
 20
-7.092160984073213
 10
53.72341082316804
 20
-7.111758233188462
 10
53.71646264515653
 20
-7.130556762235199
 10
53.66577653334292
 20
-7.267693450562521
 10
53.61202599124097
 20
-7.403545664281485
 10
53.55309120663514
 20
-7.537441128264465
 10
53.53844647966027
 20
-7.570712739572122
 10
53.5263649804104
 20
-7.588306894878061
 10
53.4855163992893
 20
-7.564943188594926
 10
53.52815180188013
 20
-7.588223361117418
 10
53.51766602631889
 20
-7.612265636168684
 10
53.50075272837736
 20
-7.642904217568179
 10
53.42991781576986
 20
-7.771222372652927
 10
53.35353706246097
 20
-7.89614139025712
 10
53.27700468965526
 20
-8.021058119265665
 10
53.25582945347193
 20
-8.055620498820619
 10
53.23925257916986
 20
-8.086590354517889
 10
53.19134940031487
 20
-8.043146505325516
 10
53.23981099663847
 20
-8.074512288161916
 10
53.21886290362653
 20
-8.098532821549168
 10
53.19640147638875
 20
-8.128324050212135
 10
52.99038776948847
 20
-8.401570419328916
 10
52.74905987918597
 20
-8.638997969586423
 10
52.47770102977139
 20
-8.846950689603065
 10
52.44346992451347
 20
-8.873183151201121
 10
52.42141472309832
 20
-8.879266812004491
 10
52.40203260202431
 20
-8.833673398847571
 10
52.39977604618792
 20
-8.839049883430384
 10
52.39716132504888
 20
-8.842965099350445
 10
52.39792285542873
 20
-8.843799292659392
 10
52.42873651443612
 20
-8.877557230655762
 10
52.41787941414457
 20
-8.895854557138665
 10
52.3807023134504
 20
-8.919161048517555
 10
52.25784875390139
 20
-8.996180320160975
 10
52.13511820639681
 20
-9.073225338511974
 10
52.00887924094389
 20
-9.14466730125711
 10
51.97408113598208
 20
-9.164361243561112
 10
51.94082153980374
 20
-9.193717066799838
 10
51.93051370259596
 20
-9.148544183191434
 10
51.95951536557569
 20
-9.186353508581078
 10
51.91184905642568
 20
-9.194268618479831
 10
51.87670937848345
 20
-9.21081688533003
 10
51.61001354379098
 20
-9.336406461615801
 10
51.33354826414263
 20
-9.43300867864789
 10
51.04429373687473
 20
-9.491465146652091
 10
50.81697205521237
 20
-9.537405282130571
 10
50.5871769732257
 20
-9.559396975001668
 10
50.35532501541931
 20
-9.563705257316415
 10
50.31073343524123
 20
-9.564534301283602
 10
50.28703673821347
 20
-9.55663349511115
 10
50.29633473235556
 20
-9.506958370661449
 10
50.29768157121
 20
-9.499765312858395
 10
50.29492324066012
 20
-9.491804431035916
 10
50.29330291456265
 20
-9.477450355776074
 97
        0
 97
        1
330
84
 75
     2
 76
     1
 98
        1
 10
0.0
 20
0.0
450
        0
451
        0
460
0.0
461
0.0
452
        0
462
0.0
453
        0
470

  0
SPLINE
  5
86
330
79
100
AcDbEntity
  8
Слой 1
100
AcDbSpline
210
0.0
220
0.0
230
1.0
 70
     9
 71
     3
 72
    17
 73
    13
 74
     0
 42
0.0000000001
 43
0.0000000001
 40
0.0
 40
0.0
 40
0.0
 40
0.0
 40
1.0
 40
1.0
 40
1.0
 40
2.0
 40
2.0
 40
2.0
 40
3.0
 40
3.0
 40
3.0
 40
4.0
 40
4.0
 40
4.0
 40
4.0
 10
52.9361795081497
 20
-2.685441570606017
 30
0.0
 10
53.0714172337936
 20
-2.793748526741814
 30
0.0
 10
53.19644667616376
 20
-2.904252535212726
 30
0.0
 10
53.31475393939513
 20
-3.022324645186813
 30
0.0
 10
53.43233628978583
 20
-3.139673844841531
 30
0.0
 10
53.54113672447319
 20
-3.264946736630703
 30
0.0
 10
53.64927289411929
 20
-3.397426989948712
 30
0.0
 10
53.86496335783014
 20
-2.943995724377373
 30
0.0
 10
54.07766319847958
 20
-2.496851804669896
 30
0.0
 10
54.29561193447458
 20
-2.038674705802021
 30
0.0
 10
53.83681820197193
 20
-2.25695142623686
 30
0.0
 10
53.39020037331223
 20
-2.469435566695993
 30
0.0
 10
52.9361795081497
 20
-2.685441570606017
 30
0.0
  0
SPLINE
  5
87
330
79
100
AcDbEntity
  8
Слой 1
100
AcDbSpline
210
0.0
220
0.0
230
1.0
 70
     9
 71
     3
 72
    17
 73
    13
 74
     0
 42
0.0000000001
 43
0.0000000001
 40
0.0
 40
0.0
 40
0.0
 40
0.0
 40
1.0
 40
1.0
 40
1.0
 40
2.0
 40
2.0
 40
2.0
 40
3.0
 40
3.0
 40
3.0
 40
4.0
 40
4.0
 40
4.0
 40
4.0
 10
52.54505498758486
 20
-2.648039901411367
 30
0.0
 10
53.27340415571026
 20
-2.301546010197828
 30
0.0
 10
53.98986120592
 20
-1.960709242673652
 30
0.0
 10
54.70631882827763
 20
-1.619872475149754
 30
0.0
 10
54.70922648972833
 20
-1.622189678784972
 30
0.0
 10
54.71213415117889
 20
-1.62450702545723
 30
0.0
 10
54.71504181263
 20
-1.626824229092449
 30
0.0
 10
54.37402496119332
 20
-2.343723264439871
 30
0.0
 10
54.0330069654593
 20
-3.060622299787054
 30
0.0
 10
53.68672405420557
 20
-3.78859156094586
 30
0.0
 10
53.37600249474195
 20
-3.335828851534743
 30
0.0
 10
53.00081575799625
 20
-2.958634729861879
 30
0.0
 10
52.54505498758486
 20
-2.648039901411367
 30
0.0
  0
HATCH
  5
88
330
79
100
AcDbEntity
  8
Слой 1
 62
    18
420
        0
440
 33554687
100
AcDbHatch
 10
0.0
 20
0.0
 30
0.0
210
0.0
220
0.0
230
1.0
  2
SOLID
 70
     1
 71
     1
 91
        2
 92
        1
 93
        1
 72
     4
 94
        3
 73
     0
 74
     0
 95
       17
 96
       13
 40
0.0
 40
0.0
 40
0.0
 40
0.0
 40
1.0
 40
1.0
 40
1.0
 40
2.0
 40
2.0
 40
2.0
 40
3.0
 40
3.0
 40
3.0
 40
4.0
 40
4.0
 40
4.0
 40
4.0
 10
52.9361795081497
 20
-2.685441570606017
 10
53.0714172337936
 20
-2.793748526741814
 10
53.19644667616376
 20
-2.904252535212726
 10
53.31475393939513
 20
-3.022324645186813
 10
53.43233628978583
 20
-3.139673844841531
 10
53.54113672447319
 20
-3.264946736630703
 10
53.64927289411929
 20
-3.397426989948712
 10
53.86496335783014
 20
-2.943995724377373
 10
54.07766319847958
 20
-2.496851804669896
 10
54.29561193447458
 20
-2.038674705802021
 10
53.83681820197193
 20
-2.25695142623686
 10
53.39020037331223
 20
-2.469435566695993
 10
52.9361795081497
 20
-2.685441570606017
 97
        0
 97
        1
330
86
 92
        1
 93
        1
 72
     4
 94
        3
 73
     0
 74
     0
 95
       17
 96
       13
 40
0.0
 40
0.0
 40
0.0
 40
0.0
 40
1.0
 40
1.0
 40
1.0
 40
2.0
 40
2.0
 40
2.0
 40
3.0
 40
3.0
 40
3.0
 40
4.0
 40
4.0
 40
4.0
 40
4.0
 10
52.54505498758486
 20
-2.648039901411367
 10
53.27340415571026
 20
-2.301546010197828
 10
53.98986120592
 20
-1.960709242673652
 10
54.70631882827763
 20
-1.619872475149754
 10
54.70922648972833
 20
-1.622189678784972
 10
54.71213415117889
 20
-1.62450702545723
 10
54.71504181263
 20
-1.626824229092449
 10
54.37402496119332
 20
-2.343723264439871
 10
54.0330069654593
 20
-3.060622299787054
 10
53.68672405420557
 20
-3.78859156094586
 10
53.37600249474195
 20
-3.335828851534743
 10
53.00081575799625
 20
-2.958634729861879
 10
52.54505498758486
 20
-2.648039901411367
 97
        0
 97
        1
330
87
 75
     2
 76
     1
 98
        1
 10
0.0
 20
0.0
450
        0
451
        0
460
0.0
461
0.0
452
        0
462
0.0
453
        0
470

  0
SPLINE
  5
89
330
79
100
AcDbEntity
  8
Слой 1
100
AcDbSpline
210
0.0
220
0.0
230
1.0
 70
     9
 71
     3
 72
    14
 73
    10
 74
     0
 42
0.0000000001
 43
0.0000000001
 40
0.0
 40
0.0
 40
0.0
 40
0.0
 40
1.0
 40
1.0
 40
1.0
 40
2.0
 40
2.0
 40
2.0
 40
3.0
 40
3.0
 40
3.0
 40
3.0
 10
47.01924007594791
 20
-3.397933055779528
 30
0.0
 10
47.23041771406069
 20
-3.130815547240432
 30
0.0
 10
47.46597776983223
 20
-2.896495624525275
 30
0.0
 10
47.7315845188161
 20
-2.685187536429667
 30
0.0
 10
47.28035802959291
 20
-2.469566016678602
 30
0.0
 10
46.83559367776694
 20
-2.257032385327015
 30
0.0
 10
46.37931811625195
 20
-2.038997970012713
 30
0.0
 10
46.59555770000999
 20
-2.498203220715822
 30
0.0
 10
46.8055095087922
 20
-2.944055513952624
 30
0.0
 10
47.01924007594791
 20
-3.397933055779528
 30
0.0
  0
SPLINE
  5
8A
330
79
100
AcDbEntity
  8
Слой 1
100
AcDbSpline
210
0.0
220
0.0
230
1.0
 70
     9
 71
     3
 72
    17
 73
    13
 74
     0
 42
0.0000000001
 43
0.0000000001
 40
0.0
 40
0.0
 40
0.0
 40
0.0
 40
1.0
 40
1.0
 40
1.0
 40
2.0
 40
2.0
 40
2.0
 40
3.0
 40
3.0
 40
3.0
 40
4.0
 40
4.0
 40
4.0
 40
4.0
 10
45.97103055468806
 20
-1.61982827663558
 30
0.0
 10
46.6848412725239
 20
-1.961054677659944
 30
0.0
 10
47.39865213339625
 20
-2.302281221721336
 30
0.0
 10
48.12184395002304
 20
-2.647992126965972
 30
0.0
 10
47.66794209186248
 20
-2.958489117929552
 30
0.0
 10
47.29130695980653
 20
-3.334740910124512
 30
0.0
 10
46.98070097445
 20
-3.789767327234863
 30
0.0
 10
46.63851736807237
 20
-3.063098560857244
 30
0.0
 10
46.30084472780832
 20
-2.346009285952226
 30
0.0
 10
45.96317208754486
 20
-1.628920154084767
 30
0.0
 10
45.96579152891346
 20
-1.625889480589282
 30
0.0
 10
45.96841111331943
 20
-1.622858950131583
 30
0.0
 10
45.97103055468806
 20
-1.61982827663558
 30
0.0
  0
HATCH
  5
8B
330
79
100
AcDbEntity
  8
Слой 1
 62
    18
420
        0
440
 33554687
100
AcDbHatch
 10
0.0
 20
0.0
 30
0.0
210
0.0
220
0.0
230
1.0
  2
SOLID
 70
     1
 71
     1
 91
        2
 92
        1
 93
        1
 72
     4
 94
        3
 73
     0
 74
     0
 95
       14
 96
       10
 40
0.0
 40
0.0
 40
0.0
 40
0.0
 40
1.0
 40
1.0
 40
1.0
 40
2.0
 40
2.0
 40
2.0
 40
3.0
 40
3.0
 40
3.0
 40
3.0
 10
47.01924007594791
 20
-3.397933055779528
 10
47.23041771406069
 20
-3.130815547240432
 10
47.46597776983223
 20
-2.896495624525275
 10
47.7315845188161
 20
-2.685187536429667
 10
47.28035802959291
 20
-2.469566016678602
 10
46.83559367776694
 20
-2.257032385327015
 10
46.37931811625195
 20
-2.038997970012713
 10
46.59555770000999
 20
-2.498203220715822
 10
46.8055095087922
 20
-2.944055513952624
 10
47.01924007594791
 20
-3.397933055779528
 97
        0
 97
        1
330
89
 92
        1
 93
        1
 72
     4
 94
        3
 73
     0
 74
     0
 95
       17
 96
       13
 40
0.0
 40
0.0
 40
0.0
 40
0.0
 40
1.0
 40
1.0
 40
1.0
 40
2.0
 40
2.0
 40
2.0
 40
3.0
 40
3.0
 40
3.0
 40
4.0
 40
4.0
 40
4.0
 40
4.0
 10
45.97103055468806
 20
-1.61982827663558
 10
46.6848412725239
 20
-1.961054677659944
 10
47.39865213339625
 20
-2.302281221721336
 10
48.12184395002304
 20
-2.647992126965972
 10
47.66794209186248
 20
-2.958489117929552
 10
47.29130695980653
 20
-3.334740910124512
 10
46.98070097445
 20
-3.789767327234863
 10
46.63851736807237
 20
-3.063098560857244
 10
46.30084472780832
 20
-2.346009285952226
 10
45.96317208754486
 20
-1.628920154084767
 10
45.96579152891346
 20
-1.625889480589282
 10
45.96841111331943
 20
-1.622858950131583
 10
45.97103055468806
 20
-1.61982827663558
 97
        0
 97
        1
330
8A
 75
     2
 76
     1
 98
        1
 10
0.0
 20
0.0
450
        0
451
        0
460
0.0
461
0.0
452
        0
462
0.0
453
        0
470

  0
SPLINE
  5
8C
330
79
100
AcDbEntity
  8
Слой 1
100
AcDbSpline
210
0.0
220
0.0
230
1.0
 70
     9
 71
     3
 72
    14
 73
    10
 74
     0
 42
0.0000000001
 43
0.0000000001
 40
0.0
 40
0.0
 40
0.0
 40
0.0
 40
1.0
 40
1.0
 40
1.0
 40
2.0
 40
2.0
 40
2.0
 40
3.0
 40
3.0
 40
3.0
 40
3.0
 10
53.64892388320082
 20
-8.602560085459419
 30
0.0
 10
53.44002654510944
 20
-8.865734914923752
 30
0.0
 10
53.20750402862095
 20
-9.097717894861842
 30
0.0
 10
52.94390523671429
 20
-9.306944218654658
 30
0.0
 10
53.39440280805291
 20
-9.52231141815456
 30
0.0
 10
53.8393511057975
 20
-9.735026706828572
 30
0.0
 10
54.29435549516998
 20
-9.952548619635054
 30
0.0
 10
54.07626257761513
 20
-9.496384484147204
 30
0.0
 10
53.86375040185304
 20
-9.0518927613412
 30
0.0
 10
53.64892388320082
 20
-8.602560085459419
 30
0.0
  0
SPLINE
  5
8D
330
79
100
AcDbEntity
  8
Слой 1
100
AcDbSpline
210
0.0
220
0.0
230
1.0
 70
     9
 71
     3
 72
    14
 73
    10
 74
     0
 42
0.0000000001
 43
0.0000000001
 40
0.0
 40
0.0
 40
0.0
 40
0.0
 40
1.0
 40
1.0
 40
1.0
 40
2.0
 40
2.0
 40
2.0
 40
3.0
 40
3.0
 40
3.0
 40
3.0
 10
53.68637504328818
 20
-8.212491752033352
 30
0.0
 10
54.03343607724347
 20
-8.938466501618778
 30
0.0
 10
54.37557548510707
 20
-9.6541454291263
 30
0.0
 10
54.72322812117596
 20
-10.38135830924643
 30
0.0
 10
53.99755546628681
 20
-10.03449523886067
 30
0.0
 10
53.28159904649293
 20
-9.692276874428392
 30
0.0
 10
52.5550841882075
 20
-9.345012155413087
 30
0.0
 10
53.00339386159624
 20
-9.035260960730333
 30
0.0
 10
53.37857716544777
 20
-8.663065991344764
 30
0.0
 10
53.68637504328818
 20
-8.212491752033352
 30
0.0
  0
HATCH
  5
8E
330
79
100
AcDbEntity
  8
Слой 1
 62
    18
420
        0
440
 33554687
100
AcDbHatch
 10
0.0
 20
0.0
 30
0.0
210
0.0
220
0.0
230
1.0
  2
SOLID
 70
     1
 71
     1
 91
        2
 92
        1
 93
        1
 72
     4
 94
        3
 73
     0
 74
     0
 95
       14
 96
       10
 40
0.0
 40
0.0
 40
0.0
 40
0.0
 40
1.0
 40
1.0
 40
1.0
 40
2.0
 40
2.0
 40
2.0
 40
3.0
 40
3.0
 40
3.0
 40
3.0
 10
53.64892388320082
 20
-8.602560085459419
 10
53.44002654510944
 20
-8.865734914923752
 10
53.20750402862095
 20
-9.097717894861842
 10
52.94390523671429
 20
-9.306944218654658
 10
53.39440280805291
 20
-9.52231141815456
 10
53.8393511057975
 20
-9.735026706828572
 10
54.29435549516998
 20
-9.952548619635054
 10
54.07626257761513
 20
-9.496384484147204
 10
53.86375040185304
 20
-9.0518927613412
 10
53.64892388320082
 20
-8.602560085459419
 97
        0
 97
        1
330
8C
 92
        1
 93
        1
 72
     4
 94
        3
 73
     0
 74
     0
 95
       14
 96
       10
 40
0.0
 40
0.0
 40
0.0
 40
0.0
 40
1.0
 40
1.0
 40
1.0
 40
2.0
 40
2.0
 40
2.0
 40
3.0
 40
3.0
 40
3.0
 40
3.0
 10
53.68637504328818
 20
-8.212491752033352
 10
54.03343607724347
 20
-8.938466501618778
 10
54.37557548510707
 20
-9.6541454291263
 10
54.72322812117596
 20
-10.38135830924643
 10
53.99755546628681
 20
-10.03449523886067
 10
53.28159904649293
 20
-9.692276874428392
 10
52.5550841882075
 20
-9.345012155413087
 10
53.00339386159624
 20
-9.035260960730333
 10
53.37857716544777
 20
-8.663065991344764
 10
53.68637504328818
 20
-8.212491752033352
 97
        0
 97
        1
330
8D
 75
     2
 76
     1
 98
        1
 10
0.0
 20
0.0
450
        0
451
        0
460
0.0
461
0.0
452
        0
462
0.0
453
        0
470

  0
SPLINE
  5
8F
330
79
100
AcDbEntity
  8
Слой 1
100
AcDbSpline
210
0.0
220
0.0
230
1.0
 70
     9
 71
     3
 72
    17
 73
    13
 74
     0
 42
0.0000000001
 43
0.0000000001
 40
0.0
 40
0.0
 40
0.0
 40
0.0
 40
1.0
 40
1.0
 40
1.0
 40
2.0
 40
2.0
 40
2.0
 40
3.0
 40
3.0
 40
3.0
 40
4.0
 40
4.0
 40
4.0
 40
4.0
 10
46.3857304766822
 20
-9.941163997922961
 30
0.0
 10
46.38817026325056
 20
-9.94368946381107
 30
0.0
 10
46.39061004981888
 20
-9.946216073997144
 30
0.0
 10
46.39304997942417
 20
-9.948741539884951
 30
0.0
 10
46.83740710416721
 20
-9.738400097602051
 30
0.0
 10
47.28176408587276
 20
-9.528059227468524
 30
0.0
 10
47.73139513748193
 20
-9.315220926750145
 30
0.0
 10
47.46328266175289
 20
-9.103173908162286
 30
0.0
 10
47.22942875443514
 20
-8.868207170950427
 30
0.0
 10
47.01893998377305
 20
-8.603284998300422
 30
0.0
 10
46.80613515377401
 20
-9.052910614493661
 30
0.0
 10
46.59593274370902
 20
-9.497037306208058
 30
0.0
 10
46.3857304766822
 20
-9.941163997922961
 30
0.0
  0
SPLINE
  5
90
330
79
100
AcDbEntity
  8
Слой 1
100
AcDbSpline
210
0.0
220
0.0
230
1.0
 70
     9
 71
     3
 72
    17
 73
    13
 74
     0
 42
0.0000000001
 43
0.0000000001
 40
0.0
 40
0.0
 40
0.0
 40
0.0
 40
1.0
 40
1.0
 40
1.0
 40
2.0
 40
2.0
 40
2.0
 40
3.0
 40
3.0
 40
3.0
 40
4.0
 40
4.0
 40
4.0
 40
4.0
 10
45.96259164233805
 20
-10.36367661513686
 30
0.0
 10
46.3002007740575
 20
-9.650130087123063
 30
0.0
 10
46.6378099057775
 20
-8.936582986960173
 30
0.0
 10
46.98064004057666
 20
-8.212001992450243
 30
0.0
 10
47.29130467121055
 20
-8.665997110905966
 30
0.0
 10
47.66821186013736
 20
-9.043091392570506
 30
0.0
 10
48.122373473965
 20
-9.353695089331267
 30
0.0
 10
47.39803335420333
 20
-9.69640779053879
 30
0.0
 10
46.68434350285376
 20
-10.03408214724959
 30
0.0
 10
45.97065365150458
 20
-10.37175650396069
 30
0.0
 10
45.96796626743624
 20
-10.36906282625331
 30
0.0
 10
45.96527902640582
 20
-10.36636914854597
 30
0.0
 10
45.96259164233805
 20
-10.36367661513686
 30
0.0
  0
HATCH
  5
91
330
79
100
AcDbEntity
  8
Слой 1
 62
    18
420
        0
440
 33554687
100
AcDbHatch
 10
0.0
 20
0.0
 30
0.0
210
0.0
220
0.0
230
1.0
  2
SOLID
 70
     1
 71
     1
 91
        2
 92
        1
 93
        1
 72
     4
 94
        3
 73
     0
 74
     0
 95
       17
 96
       13
 40
0.0
 40
0.0
 40
0.0
 40
0.0
 40
1.0
 40
1.0
 40
1.0
 40
2.0
 40
2.0
 40
2.0
 40
3.0
 40
3.0
 40
3.0
 40
4.0
 40
4.0
 40
4.0
 40
4.0
 10
46.3857304766822
 20
-9.941163997922961
 10
46.38817026325056
 20
-9.94368946381107
 10
46.39061004981888
 20
-9.946216073997144
 10
46.39304997942417
 20
-9.948741539884951
 10
46.83740710416721
 20
-9.738400097602051
 10
47.28176408587276
 20
-9.528059227468524
 10
47.73139513748193
 20
-9.315220926750145
 10
47.46328266175289
 20
-9.103173908162286
 10
47.22942875443514
 20
-8.868207170950427
 10
47.01893998377305
 20
-8.603284998300422
 10
46.80613515377401
 20
-9.052910614493661
 10
46.59593274370902
 20
-9.497037306208058
 10
46.3857304766822
 20
-9.941163997922961
 97
        0
 97
        1
330
8F
 92
        1
 93
        1
 72
     4
 94
        3
 73
     0
 74
     0
 95
       17
 96
       13
 40
0.0
 40
0.0
 40
0.0
 40
0.0
 40
1.0
 40
1.0
 40
1.0
 40
2.0
 40
2.0
 40
2.0
 40
3.0
 40
3.0
 40
3.0
 40
4.0
 40
4.0
 40
4.0
 40
4.0
 10
45.96259164233805
 20
-10.36367661513686
 10
46.3002007740575
 20
-9.650130087123063
 10
46.6378099057775
 20
-8.936582986960173
 10
46.98064004057666
 20
-8.212001992450243
 10
47.29130467121055
 20
-8.665997110905966
 10
47.66821186013736
 20
-9.043091392570506
 10
48.122373473965
 20
-9.353695089331267
 10
47.39803335420333
 20
-9.69640779053879
 10
46.68434350285376
 20
-10.03408214724959
 10
45.97065365150458
 20
-10.37175650396069
 10
45.96796626743624
 20
-10.36906282625331
 10
45.96527902640582
 20
-10.36636914854597
 10
45.96259164233805
 20
-10.36367661513686
 97
        0
 97
        1
330
90
 75
     2
 76
     1
 98
        1
 10
0.0
 20
0.0
450
        0
451
        0
460
0.0
461
0.0
452
        0
462
0.0
453
        0
470

  0
SPLINE
  5
92
330
79
100
AcDbEntity
  8
Слой 1
100
AcDbSpline
210
0.0
220
0.0
230
1.0
 70
     9
 71
     3
 72
    26
 73
    22
 74
     0
 42
0.0000000001
 43
0.0000000001
 40
0.0
 40
0.0
 40
0.0
 40
0.0
 40
1.0
 40
1.0
 40
1.0
 40
2.0
 40
2.0
 40
2.0
 40
3.0
 40
3.0
 40
3.0
 40
4.0
 40
4.0
 40
4.0
 40
5.0
 40
5.0
 40
5.0
 40
6.0
 40
6.0
 40
6.0
 40
7.0
 40
7.0
 40
7.0
 40
7.0
 10
44.73720626373347
 20
-5.991869736440611
 30
0.0
 10
44.93534323048096
 20
-6.062467207194812
 30
0.0
 10
45.12098743009206
 20
-6.128740375461171
 30
0.0
 10
45.30672059888014
 20
-6.194762942445877
 30
0.0
 10
45.5718823589436
 20
-6.289018776241542
 30
0.0
 10
45.83725724452652
 20
-6.3826790028808
 30
0.0
 10
46.10212534909194
 20
-6.477752437662906
 30
0.0
 10
46.13633070764293
 20
-6.490030184035276
 30
0.0
 10
46.1493472414707
 20
-6.487038988824274
 30
0.0
 10
46.14402825786694
 20
-6.44692962427027
 30
0.0
 10
46.13727046245028
 20
-6.395971741660635
 30
0.0
 10
46.13450240536708
 20
-6.344484049034235
 30
0.0
 10
46.13005037060484
 20
-6.293221210982462
 30
0.0
 10
46.11285800696653
 20
-6.095258785453274
 30
0.0
 10
46.11449850131748
 20
-5.897259742385446
 30
0.0
 10
46.12914809155984
 20
-5.699254405678124
 30
0.0
 10
46.13412936418929
 20
-5.631927911018553
 30
0.0
 10
46.13958380407916
 20
-5.564636889599682
 30
0.0
 10
46.14525308593624
 20
-5.491791445244327
 30
0.0
 10
45.6748997971511
 20
-5.658841229981235
 30
0.0
 10
45.21248972508667
 20
-5.823069175624153
 30
0.0
 10
44.73720626373347
 20
-5.991869736440611
 30
0.0
  0
SPLINE
  5
93
330
79
100
AcDbEntity
  8
Слой 1
100
AcDbSpline
210
0.0
220
0.0
230
1.0
 70
     9
 71
     3
 72
    26
 73
    22
 74
     0
 42
0.0000000001
 43
0.0000000001
 40
0.0
 40
0.0
 40
0.0
 40
0.0
 40
1.0
 40
1.0
 40
1.0
 40
2.0
 40
2.0
 40
2.0
 40
3.0
 40
3.0
 40
3.0
 40
4.0
 40
4.0
 40
4.0
 40
5.0
 40
5.0
 40
5.0
 40
6.0
 40
6.0
 40
6.0
 40
7.0
 40
7.0
 40
7.0
 40
7.0
 10
46.39629163288026
 20
-5.190139592453811
 30
0.0
 10
46.29571212175667
 20
-5.727921361466187
 30
0.0
 10
46.29648595334056
 20
-6.256601955608099
 30
0.0
 10
46.39605733784583
 20
-6.794403177687803
 30
0.0
 10
46.32646613422583
 20
-6.770220726120542
 30
0.0
 10
46.26825397386485
 20
-6.750392900940292
 30
0.0
 10
46.21031487163597
 20
-6.7297966795918
 30
0.0
 10
45.59931790694751
 20
-6.512603752486079
 30
0.0
 10
44.98850181287651
 20
-6.294899324133766
 30
0.0
 10
44.37703941387957
 20
-6.079025772727996
 30
0.0
 10
44.34234294136138
 20
-6.066776633807497
 30
0.0
 10
44.3327100399989
 20
-6.051306295759634
 30
0.0
 10
44.33351527161444
 20
-6.016388039498072
 30
0.0
 10
44.33570376182903
 20
-5.921486249429638
 30
0.0
 10
44.33387105221805
 20
-5.9208643234171
 30
0.0
 10
44.41482661319292
 20
-5.892113261719019
 30
0.0
 10
45.06399544908971
 20
-5.661565803736885
 30
0.0
 10
45.71324837301665
 20
-5.431254071161535
 30
0.0
 10
46.36248735081054
 20
-5.200904004600437
 30
0.0
 10
46.36957112814626
 20
-5.198390553842449
 30
0.0
 10
46.37681324772986
 20
-5.196322807190918
 30
0.0
 10
46.39629163288026
 20
-5.190139592453811
 30
0.0
  0
HATCH
  5
94
330
79
100
AcDbEntity
  8
Слой 1
 62
    18
420
        0
440
 33554687
100
AcDbHatch
 10
0.0
 20
0.0
 30
0.0
210
0.0
220
0.0
230
1.0
  2
SOLID
 70
     1
 71
     1
 91
        2
 92
        1
 93
        1
 72
     4
 94
        3
 73
     0
 74
     0
 95
       26
 96
       22
 40
0.0
 40
0.0
 40
0.0
 40
0.0
 40
1.0
 40
1.0
 40
1.0
 40
2.0
 40
2.0
 40
2.0
 40
3.0
 40
3.0
 40
3.0
 40
4.0
 40
4.0
 40
4.0
 40
5.0
 40
5.0
 40
5.0
 40
6.0
 40
6.0
 40
6.0
 40
7.0
 40
7.0
 40
7.0
 40
7.0
 10
44.73720626373347
 20
-5.991869736440611
 10
44.93534323048096
 20
-6.062467207194812
 10
45.12098743009206
 20
-6.128740375461171
 10
45.30672059888014
 20
-6.194762942445877
 10
45.5718823589436
 20
-6.289018776241542
 10
45.83725724452652
 20
-6.3826790028808
 10
46.10212534909194
 20
-6.477752437662906
 10
46.13633070764293
 20
-6.490030184035276
 10
46.1493472414707
 20
-6.487038988824274
 10
46.14402825786694
 20
-6.44692962427027
 10
46.13727046245028
 20
-6.395971741660635
 10
46.13450240536708
 20
-6.344484049034235
 10
46.13005037060484
 20
-6.293221210982462
 10
46.11285800696653
 20
-6.095258785453274
 10
46.11449850131748
 20
-5.897259742385446
 10
46.12914809155984
 20
-5.699254405678124
 10
46.13412936418929
 20
-5.631927911018553
 10
46.13958380407916
 20
-5.564636889599682
 10
46.14525308593624
 20
-5.491791445244327
 10
45.6748997971511
 20
-5.658841229981235
 10
45.21248972508667
 20
-5.823069175624153
 10
44.73720626373347
 20
-5.991869736440611
 97
        0
 97
        1
330
92
 92
        1
 93
        1
 72
     4
 94
        3
 73
     0
 74
     0
 95
       26
 96
       22
 40
0.0
 40
0.0
 40
0.0
 40
0.0
 40
1.0
 40
1.0
 40
1.0
 40
2.0
 40
2.0
 40
2.0
 40
3.0
 40
3.0
 40
3.0
 40
4.0
 40
4.0
 40
4.0
 40
5.0
 40
5.0
 40
5.0
 40
6.0
 40
6.0
 40
6.0
 40
7.0
 40
7.0
 40
7.0
 40
7.0
 10
46.39629163288026
 20
-5.190139592453811
 10
46.29571212175667
 20
-5.727921361466187
 10
46.29648595334056
 20
-6.256601955608099
 10
46.39605733784583
 20
-6.794403177687803
 10
46.32646613422583
 20
-6.770220726120542
 10
46.26825397386485
 20
-6.750392900940292
 10
46.21031487163597
 20
-6.7297966795918
 10
45.59931790694751
 20
-6.512603752486079
 10
44.98850181287651
 20
-6.294899324133766
 10
44.37703941387957
 20
-6.079025772727996
 10
44.34234294136138
 20
-6.066776633807497
 10
44.3327100399989
 20
-6.051306295759634
 10
44.33351527161444
 20
-6.016388039498072
 10
44.33570376182903
 20
-5.921486249429638
 10
44.33387105221805
 20
-5.9208643234171
 10
44.41482661319292
 20
-5.892113261719019
 10
45.06399544908971
 20
-5.661565803736885
 10
45.71324837301665
 20
-5.431254071161535
 10
46.36248735081054
 20
-5.200904004600437
 10
46.36957112814626
 20
-5.198390553842449
 10
46.37681324772986
 20
-5.196322807190918
 10
46.39629163288026
 20
-5.190139592453811
 97
        0
 97
        1
330
93
 75
     2
 76
     1
 98
        1
 10
0.0
 20
0.0
450
        0
451
        0
460
0.0
461
0.0
452
        0
462
0.0
453
        0
470

  0
SPLINE
  5
95
330
79
100
AcDbEntity
  8
Слой 1
100
AcDbSpline
210
0.0
220
0.0
230
1.0
 70
     9
 71
     3
 72
    14
 73
    10
 74
     0
 42
0.0000000001
 43
0.0000000001
 40
0.0
 40
0.0
 40
0.0
 40
0.0
 40
1.0
 40
1.0
 40
1.0
 40
2.0
 40
2.0
 40
2.0
 40
3.0
 40
3.0
 40
3.0
 40
3.0
 10
50.83483855346401
 20
-1.814509856499411
 30
0.0
 10
50.66645108425831
 20
-1.340492811299883
 30
0.0
 10
50.50209440508013
 20
-0.8778239133105216
 30
0.0
 10
50.33367260693234
 20
-0.4037114980166305
 30
0.0
 10
50.16445151656706
 20
-0.8804515793214148
 30
0.0
 10
50.00006966283041
 20
-1.343558528923735
 30
0.0
 10
49.8326044978868
 20
-1.815351058633735
 30
0.0
 10
50.17067821463193
 20
-1.774605464341397
 30
0.0
 10
50.49899221295444
 20
-1.776230081556428
 30
0.0
 10
50.83483855346401
 20
-1.814509856499411
 30
0.0
  0
SPLINE
  5
96
330
79
100
AcDbEntity
  8
Слой 1
100
AcDbSpline
210
0.0
220
0.0
230
1.0
 70
     9
 71
     3
 72
    32
 73
    28
 74
     0
 42
0.0000000001
 43
0.0000000001
 40
0.0
 40
0.0
 40
0.0
 40
0.0
 40
1.0
 40
1.0
 40
1.0
 40
2.0
 40
2.0
 40
2.0
 40
3.0
 40
3.0
 40
3.0
 40
4.0
 40
4.0
 40
4.0
 40
5.0
 40
5.0
 40
5.0
 40
6.0
 40
6.0
 40
6.0
 40
7.0
 40
7.0
 40
7.0
 40
8.0
 40
8.0
 40
8.0
 40
9.0
 40
9.0
 40
9.0
 40
9.0
 10
51.13348147442333
 20
-2.058208303334999
 30
0.0
 10
51.01598780713498
 20
-2.042612378571473
 30
0.0
 10
50.90529870844749
 20
-2.026629394978752
 30
0.0
 10
50.79427604686651
 20
-2.013449226523789
 30
0.0
 10
50.55814040915402
 20
-1.985416354916158
 30
0.0
 10
50.32143834388694
 20
-1.981458943003543
 30
0.0
 10
50.08398504692235
 20
-1.995130587489218
 30
0.0
 10
49.91563076236166
 20
-2.004823507510334
 30
0.0
 10
49.74934308015417
 20
-2.029378714180754
 30
0.0
 10
49.58278419929931
 20
-2.053132197001104
 30
0.0
 10
49.53183547107374
 20
-2.060398346845039
 30
0.0
 10
49.5311580466032
 20
-2.059018466384259
 30
0.0
 10
49.54841692256806
 20
-2.010473050225249
 30
0.0
 10
49.78072373886568
 20
-1.357053379354195
 30
0.0
 10
50.01357581320429
 20
-0.7038259505626331
 30
0.0
 10
50.24438131040636
 20
-0.0498766797607636
 30
0.0
 10
50.25845960982554
 20
-0.0099887592372549
 30
0.0
 10
50.27637760149125
 20
0.0013947517010896
 30
0.0
 10
50.31686973375639
 20
-0.0001324191450623
 30
0.0
 10
50.40426378404693
 20
-0.0034284803991922
 30
0.0
 10
50.40482735085707
 20
-0.0009332534824454
 30
0.0
 10
50.43443263107986
 20
-0.0842730779840066
 30
0.0
 10
50.66500984081193
 20
-0.7333657912382325
 30
0.0
 10
50.89539137557125
 20
-1.382528029541301
 30
0.0
 10
51.12578664190738
 20
-2.031685619133225
 30
0.0
 10
51.12780804448597
 20
-2.037381505920987
 30
0.0
 10
51.12918463509014
 20
-2.04330639536445
 30
0.0
 10
51.13348147442333
 20
-2.058208303334999
 30
0.0
  0
HATCH
  5
97
330
79
100
AcDbEntity
  8
Слой 1
 62
    18
420
        0
440
 33554687
100
AcDbHatch
 10
0.0
 20
0.0
 30
0.0
210
0.0
220
0.0
230
1.0
  2
SOLID
 70
     1
 71
     1
 91
        2
 92
        1
 93
        1
 72
     4
 94
        3
 73
     0
 74
     0
 95
       14
 96
       10
 40
0.0
 40
0.0
 40
0.0
 40
0.0
 40
1.0
 40
1.0
 40
1.0
 40
2.0
 40
2.0
 40
2.0
 40
3.0
 40
3.0
 40
3.0
 40
3.0
 10
50.83483855346401
 20
-1.814509856499411
 10
50.66645108425831
 20
-1.340492811299883
 10
50.50209440508013
 20
-0.8778239133105216
 10
50.33367260693234
 20
-0.4037114980166305
 10
50.16445151656706
 20
-0.8804515793214148
 10
50.00006966283041
 20
-1.343558528923735
 10
49.8326044978868
 20
-1.815351058633735
 10
50.17067821463193
 20
-1.774605464341397
 10
50.49899221295444
 20
-1.776230081556428
 10
50.83483855346401
 20
-1.814509856499411
 97
        0
 97
        1
330
95
 92
        1
 93
        1
 72
     4
 94
        3
 73
     0
 74
     0
 95
       32
 96
       28
 40
0.0
 40
0.0
 40
0.0
 40
0.0
 40
1.0
 40
1.0
 40
1.0
 40
2.0
 40
2.0
 40
2.0
 40
3.0
 40
3.0
 40
3.0
 40
4.0
 40
4.0
 40
4.0
 40
5.0
 40
5.0
 40
5.0
 40
6.0
 40
6.0
 40
6.0
 40
7.0
 40
7.0
 40
7.0
 40
8.0
 40
8.0
 40
8.0
 40
9.0
 40
9.0
 40
9.0
 40
9.0
 10
51.13348147442333
 20
-2.058208303334999
 10
51.01598780713498
 20
-2.042612378571473
 10
50.90529870844749
 20
-2.026629394978752
 10
50.79427604686651
 20
-2.013449226523789
 10
50.55814040915402
 20
-1.985416354916158
 10
50.32143834388694
 20
-1.981458943003543
 10
50.08398504692235
 20
-1.995130587489218
 10
49.91563076236166
 20
-2.004823507510334
 10
49.74934308015417
 20
-2.029378714180754
 10
49.58278419929931
 20
-2.053132197001104
 10
49.53183547107374
 20
-2.060398346845039
 10
49.5311580466032
 20
-2.059018466384259
 10
49.54841692256806
 20
-2.010473050225249
 10
49.78072373886568
 20
-1.357053379354195
 10
50.01357581320429
 20
-0.7038259505626331
 10
50.24438131040636
 20
-0.0498766797607636
 10
50.25845960982554
 20
-0.0099887592372549
 10
50.27637760149125
 20
0.0013947517010896
 10
50.31686973375639
 20
-0.0001324191450623
 10
50.40426378404693
 20
-0.0034284803991922
 10
50.40482735085707
 20
-0.0009332534824454
 10
50.43443263107986
 20
-0.0842730779840066
 10
50.66500984081193
 20
-0.7333657912382325
 10
50.89539137557125
 20
-1.382528029541301
 10
51.12578664190738
 20
-2.031685619133225
 10
51.12780804448597
 20
-2.037381505920987
 10
51.12918463509014
 20
-2.04330639536445
 10
51.13348147442333
 20
-2.058208303334999
 97
        0
 97
        1
330
96
 75
     2
 76
     1
 98
        1
 10
0.0
 20
0.0
450
        0
451
        0
460
0.0
461
0.0
452
        0
462
0.0
453
        0
470

  0
ENDBLK
  5
7C
330
79
100
AcDbEntity
  8
0
100
AcDbBlockEnd
  0
ENDSEC
  0
SECTION
  2
ENTITIES
  0
INSERT
  5
7A
330
70
100
AcDbEntity
  8
Слой 1
100
AcDbBlockReference
  2
Block_0
 10
0.0
 20
0.0
 30
0.0
  0
ENDSEC
  0
SECTION
  2
OBJECTS
  0
DICTIONARY
  5
C
330
0
100
AcDbDictionary
281
     1
  3
ACAD_COLOR
350
63
  3
ACAD_DETAILVIEWSTYLE
350
6A
  3
ACAD_GROUP
350
D
  3
ACAD_LAYOUT
350
62
  3
ACAD_MATERIAL
350
10
  3
ACAD_MLEADERSTYLE
350
66
  3
ACAD_MLINESTYLE
350
5F
  3
ACAD_PLOTSETTINGS
350
61
  3
ACAD_PLOTSTYLENAME
350
E
  3
ACAD_SCALELIST
350
42
  3
ACAD_SECTIONVIEWSTYLE
350
68
  3
ACAD_TABLESTYLE
350
64
  3
ACAD_VISUALSTYLE
350
29
  3
ACDB_RECOMPOSE_DATA
350
A0
  3
AcDbVariableDictionary
350
98
  0
DICTIONARY
  5
63
102
{ACAD_REACTORS
330
C
102
}
330
C
100
AcDbDictionary
281
     1
  0
DICTIONARY
  5
6A
102
{ACAD_REACTORS
330
C
102
}
330
C
100
AcDbDictionary
281
     1
  3
Imperial24
350
6B
  0
DICTIONARY
  5
D
102
{ACAD_REACTORS
330
C
102
}
330
C
100
AcDbDictionary
281
     1
  0
DICTIONARY
  5
62
102
{ACAD_REACTORS
330
C
102
}
330
C
100
AcDbDictionary
281
     1
  3
Layout1
350
6F
  3
Layout2
350
77
  3
Model
350
73
  0
DICTIONARY
  5
10
102
{ACAD_REACTORS
330
C
102
}
330
C
100
AcDbDictionary
281
     1
  3
ByBlock
350
19
  3
ByLayer
350
11
  3
Global
350
21
  0
DICTIONARY
  5
66
102
{ACAD_REACTORS
330
C
102
}
330
C
100
AcDbDictionary
281
     1
  3
Standard
350
67
  0
DICTIONARY
  5
5F
102
{ACAD_REACTORS
330
C
102
}
330
C
100
AcDbDictionary
281
     1
  3
Standard
350
60
  0
DICTIONARY
  5
61
102
{ACAD_REACTORS
330
C
102
}
330
C
100
AcDbDictionary
281
     1
  0
ACDBDICTIONARYWDFLT
  5
E
102
{ACAD_REACTORS
330
C
102
}
330
C
100
AcDbDictionary
281
     1
  3
Normal
350
F
100
AcDbDictionaryWithDefault
340
F
  0
DICTIONARY
  5
42
102
{ACAD_REACTORS
330
C
102
}
330
C
100
AcDbDictionary
281
     1
  3
A0
350
43
  3
A1
350
44
  3
A2
350
45
  3
A3
350
46
  3
A4
350
47
  3
A5
350
48
  3
A6
350
49
  3
A7
350
4A
  3
A8
350
4B
  3
A9
350
4C
  3
B0
350
4D
  3
B1
350
4E
  3
B2
350
4F
  3
B3
350
50
  3
B4
350
51
  3
B5
350
52
  3
B6
350
53
  0
DICTIONARY
  5
68
102
{ACAD_REACTORS
330
C
102
}
330
C
100
AcDbDictionary
281
     1
  3
Imperial24
350
69
  0
DICTIONARY
  5
64
102
{ACAD_REACTORS
330
C
102
}
330
C
100
AcDbDictionary
281
     1
  3
Standard
350
65
  0
DICTIONARY
  5
29
102
{ACAD_REACTORS
330
C
102
}
330
C
100
AcDbDictionary
281
     1
  3
2dWireframe
350
2F
  3
Basic
350
2E
  3
Brighten
350
35
  3
ColorChange
350
39
  3
Conceptual
350
32
  3
Dim
350
34
  3
EdgeColorOff
350
41
  3
Facepattern
350
38
  3
Flat
350
2A
  3
FlatWithEdges
350
2B
  3
Gouraud
350
2C
  3
GouraudWithEdges
350
2D
  3
Hidden
350
31
  3
JitterOff
350
3F
  3
Linepattern
350
37
  3
OverhangOff
350
40
  3
Realistic
350
33
  3
Shaded
350
3E
  3
Shaded with edges
350
3D
  3
Shades of Gray
350
3A
  3
Sketchy
350
3B
  3
Thicken
350
36
  3
Wireframe
350
30
  3
X-Ray
350
3C
  0
XRECORD
  5
A0
102
{ACAD_REACTORS
330
C
102
}
330
C
100
AcDbXrecord
280
     1
 90
        1
330
65
  0
DICTIONARY
  5
98
102
{ACAD_REACTORS
330
C
102
}
330
C
100
AcDbDictionary
281
     1
  3
CANNOSCALE
350
9D
  3
CMLEADERSTYLE
350
9A
  3
CTABLESTYLE
350
99
  3
CVIEWDETAILSTYLE
350
9B
  3
CVIEWSECTIONSTYLE
350
9C
  0
ACDBDETAILVIEWSTYLE
  5
6B
102
{ACAD_XDICTIONARY
360
A3
102
}
102
{ACAD_REACTORS
330
6A
102
}
330
6A
100
AcDbModelDocViewStyle
 70
     0
  3
Imperial24
290
     0
100
AcDbDetailViewStyle
 70
     0
 71
     0
 90
        3
 71
     1
340
55
 62
   256
 40
0.24
340
0
 62
   256
 40
0.24
300

 40
0.36
280
     3
 71
     2
340
5D
 90
       25
 62
   256
 71
     3
340
55
 62
   256
 40
0.24
 90
        1
 40
0.75
 90
        1
300
%<\AcVar ViewType \f "%tc1">% %<\AcVar ViewDetailId>%\PSCALE %<\AcVar ViewScale \f "%sn">%
 71
     4
340
5D
 90
       25
 62
   256
340
5D
 90
       25
 62
   256
280
     0
  0
LAYOUT
  5
6F
102
{ACAD_REACTORS
330
62
102
}
330
62
100
AcDbPlotSettings
  1

  2

  4

  6

 40
0.0
 41
0.0
 42
0.0
 43
0.0
 44
0.0
 45
0.0
 46
0.0
 47
0.0
 48
0.0
 49
0.0
140
0.0
141
0.0
142
1.0
143
1.0
 70
   688
 72
     0
 73
     0
 74
     5
  7

 75
    16
147
1.0
 76
     0
 77
     2
 78
   300
148
0.0
149
0.0
100
AcDbLayout
  1
Layout1
 70
     1
 71
     1
 10
0.0
 20
0.0
 11
12.0
 21
9.0
 12
0.0
 22
0.0
 32
0.0
 14
0.0
 24
0.0
 34
0.0
 15
0.0
 25
0.0
 35
0.0
146
0.0
 13
0.0
 23
0.0
 33
0.0
 16
1.0
 26
0.0
 36
0.0
 17
0.0
 27
1.0
 37
0.0
 76
     0
330
6C
  0
LAYOUT
  5
77
102
{ACAD_REACTORS
330
62
102
}
330
62
100
AcDbPlotSettings
  1

  2

  4

  6

 40
0.0
 41
0.0
 42
0.0
 43
0.0
 44
0.0
 45
0.0
 46
0.0
 47
0.0
 48
0.0
 49
0.0
140
0.0
141
0.0
142
1.0
143
1.0
 70
   688
 72
     0
 73
     0
 74
     5
  7

 75
    16
147
1.0
 76
     0
 77
     2
 78
   300
148
0.0
149
0.0
100
AcDbLayout
  1
Layout2
 70
     1
 71
     2
 10
0.0
 20
0.0
 11
12.0
 21
9.0
 12
0.0
 22
0.0
 32
0.0
 14
0.0
 24
0.0
 34
0.0
 15
0.0
 25
0.0
 35
0.0
146
0.0
 13
0.0
 23
0.0
 33
0.0
 16
1.0
 26
0.0
 36
0.0
 17
0.0
 27
1.0
 37
0.0
 76
     0
330
74
  0
LAYOUT
  5
73
102
{ACAD_REACTORS
330
62
102
}
330
62
100
AcDbPlotSettings
  1

  2

  4

  6

 40
0.0
 41
0.0
 42
0.0
 43
0.0
 44
0.0
 45
0.0
 46
0.0
 47
0.0
 48
0.0
 49
0.0
140
0.0
141
0.0
142
1.0
143
1.0
 70
  1712
 72
     0
 73
     0
 74
     0
  7

 75
     0
147
1.0
 76
     0
 77
     2
 78
   300
148
0.0
149
0.0
100
AcDbLayout
  1
Model
 70
     1
 71
     0
 10
0.0
 20
0.0
 11
12.0
 21
9.0
 12
0.0
 22
0.0
 32
0.0
 14
0.0
 24
0.0
 34
0.0
 15
0.0
 25
0.0
 35
0.0
146
0.0
 13
0.0
 23
0.0
 33
0.0
 16
1.0
 26
0.0
 36
0.0
 17
0.0
 27
1.0
 37
0.0
 76
     0
330
70
  0
MATERIAL
  5
19
102
{ACAD_XDICTIONARY
360
1A
102
}
102
{ACAD_REACTORS
330
10
102
}
330
10
100
AcDbMaterial
  1
ByBlock
 72
     0
 43
0.0208333333333333
 43
0.0
 43
0.0
 43
0.0
 43
0.0
 43
0.0208333333333333
 43
0.0
 43
0.0
 43
0.0
 43
0.0
 43
1.0
 43
0.0
 43
0.0
 43
0.0
 43
0.0
 43
1.0
 77
     0
 47
0.0208333333333333
 47
0.0
 47
0.0
 47
0.0
 47
0.0
 47
0.0208333333333333
 47
0.0
 47
0.0
 47
0.0
 47
0.0
 47
1.0
 47
0.0
 47
0.0
 47
0.0
 47
0.0
 47
1.0
171
     0
 49
0.0208333333333333
 49
0.0
 49
0.0
 49
0.0
 49
0.0
 49
0.0208333333333333
 49
0.0
 49
0.0
 49
0.0
 49
0.0
 49
1.0
 49
0.0
 49
0.0
 49
0.0
 49
0.0
 49
1.0
175
     0
142
0.0208333333333333
142
0.0
142
0.0
142
0.0
142
0.0
142
0.0208333333333333
142
0.0
142
0.0
142
0.0
142
0.0
142
1.0
142
0.0
142
0.0
142
0.0
142
0.0
142
1.0
179
     0
144
0.0208333333333333
144
0.0
144
0.0
144
0.0
144
0.0
144
0.0208333333333333
144
0.0
144
0.0
144
0.0
144
0.0
144
1.0
144
0.0
144
0.0
144
0.0
144
0.0
144
1.0
147
0.0208333333333333
147
0.0
147
0.0
147
0.0
147
0.0
147
0.0208333333333333
147
0.0
147
0.0
147
0.0
147
0.0
147
1.0
147
0.0
147
0.0
147
0.0
147
0.0
147
1.0
  0
MATERIAL
  5
11
102
{ACAD_XDICTIONARY
360
12
102
}
102
{ACAD_REACTORS
330
10
102
}
330
10
100
AcDbMaterial
  1
ByLayer
 72
     0
 43
0.0208333333333333
 43
0.0
 43
0.0
 43
0.0
 43
0.0
 43
0.0208333333333333
 43
0.0
 43
0.0
 43
0.0
 43
0.0
 43
1.0
 43
0.0
 43
0.0
 43
0.0
 43
0.0
 43
1.0
 77
     0
 47
0.0208333333333333
 47
0.0
 47
0.0
 47
0.0
 47
0.0
 47
0.0208333333333333
 47
0.0
 47
0.0
 47
0.0
 47
0.0
 47
1.0
 47
0.0
 47
0.0
 47
0.0
 47
0.0
 47
1.0
171
     0
 49
0.0208333333333333
 49
0.0
 49
0.0
 49
0.0
 49
0.0
 49
0.0208333333333333
 49
0.0
 49
0.0
 49
0.0
 49
0.0
 49
1.0
 49
0.0
 49
0.0
 49
0.0
 49
0.0
 49
1.0
175
     0
142
0.0208333333333333
142
0.0
142
0.0
142
0.0
142
0.0
142
0.0208333333333333
142
0.0
142
0.0
142
0.0
142
0.0
142
1.0
142
0.0
142
0.0
142
0.0
142
0.0
142
1.0
179
     0
144
0.0208333333333333
144
0.0
144
0.0
144
0.0
144
0.0
144
0.0208333333333333
144
0.0
144
0.0
144
0.0
144
0.0
144
1.0
144
0.0
144
0.0
144
0.0
144
0.0
144
1.0
147
0.0208333333333333
147
0.0
147
0.0
147
0.0
147
0.0
147
0.0208333333333333
147
0.0
147
0.0
147
0.0
147
0.0
147
1.0
147
0.0
147
0.0
147
0.0
147
0.0
147
1.0
  0
MATERIAL
  5
21
102
{ACAD_XDICTIONARY
360
22
102
}
102
{ACAD_REACTORS
330
10
102
}
330
10
100
AcDbMaterial
  1
Global
 72
     0
 43
0.0208333333333333
 43
0.0
 43
0.0
 43
0.0
 43
0.0
 43
0.0208333333333333
 43
0.0
 43
0.0
 43
0.0
 43
0.0
 43
1.0
 43
0.0
 43
0.0
 43
0.0
 43
0.0
 43
1.0
 77
     0
 47
0.0208333333333333
 47
0.0
 47
0.0
 47
0.0
 47
0.0
 47
0.0208333333333333
 47
0.0
 47
0.0
 47
0.0
 47
0.0
 47
1.0
 47
0.0
 47
0.0
 47
0.0
 47
0.0
 47
1.0
171
     0
 49
0.0208333333333333
 49
0.0
 49
0.0
 49
0.0
 49
0.0
 49
0.0208333333333333
 49
0.0
 49
0.0
 49
0.0
 49
0.0
 49
1.0
 49
0.0
 49
0.0
 49
0.0
 49
0.0
 49
1.0
175
     0
142
0.0208333333333333
142
0.0
142
0.0
142
0.0
142
0.0
142
0.0208333333333333
142
0.0
142
0.0
142
0.0
142
0.0
142
1.0
142
0.0
142
0.0
142
0.0
142
0.0
142
1.0
179
     0
144
0.0208333333333333
144
0.0
144
0.0
144
0.0
144
0.0
144
0.0208333333333333
144
0.0
144
0.0
144
0.0
144
0.0
144
1.0
144
0.0
144
0.0
144
0.0
144
0.0
144
1.0
147
0.0208333333333333
147
0.0
147
0.0
147
0.0
147
0.0
147
0.0208333333333333
147
0.0
147
0.0
147
0.0
147
0.0
147
1.0
147
0.0
147
0.0
147
0.0
147
0.0
147
1.0
  0
MLEADERSTYLE
  5
67
102
{ACAD_REACTORS
330
66
102
}
330
66
100
AcDbMLeaderStyle
179
     2
170
     2
171
     1
172
     0
 90
        2
 40
0.0
 41
0.0
173
     1
 91
-1056964608
340
5B
 92
       -2
290
     1
 42
0.09
291
     1
 43
0.36
  3
Standard
 44
0.18
300

342
55
174
     1
178
     6
175
     1
176
     0
 93
-1056964608
 45
0.18
292
     0
297
     0
 46
0.18
 94
-1056964608
 47
1.0
 49
1.0
140
1.0
293
     1
141
0.0
294
     1
177
     0
142
1.0
295
     0
296
     0
143
0.125
271
     0
272
     9
273
     9
298
     1
  0
MLINESTYLE
  5
60
102
{ACAD_REACTORS
330
5F
102
}
330
5F
100
AcDbMlineStyle
  2
STANDARD
 70
     0
  3

 62
   256
 51
90.0
 52
90.0
 71
     2
 49
0.5
 62
   256
  6
BYLAYER
 49
-0.5
 62
   256
  6
BYLAYER
  0
ACDBPLACEHOLDER
  5
F
102
{ACAD_REACTORS
330
E
102
}
330
E
  0
SCALE
  5
43
102
{ACAD_REACTORS
330
42
102
}
330
42
100
AcDbScale
 70
     0
300
1:1
140
1.0
141
1.0
290
     1
  0
SCALE
  5
44
102
{ACAD_REACTORS
330
42
102
}
330
42
100
AcDbScale
 70
     0
300
1/128" = 1'-0"
140
0.0078125
141
12.0
290
     0
  0
SCALE
  5
45
102
{ACAD_REACTORS
330
42
102
}
330
42
100
AcDbScale
 70
     0
300
1/64" = 1'-0"
140
0.015625
141
12.0
290
     0
  0
SCALE
  5
46
102
{ACAD_REACTORS
330
42
102
}
330
42
100
AcDbScale
 70
     0
300
1/32" = 1'-0"
140
0.03125
141
12.0
290
     0
  0
SCALE
  5
47
102
{ACAD_REACTORS
330
42
102
}
330
42
100
AcDbScale
 70
     0
300
1/16" = 1'-0"
140
0.0625
141
12.0
290
     0
  0
SCALE
  5
48
102
{ACAD_REACTORS
330
42
102
}
330
42
100
AcDbScale
 70
     0
300
3/32" = 1'-0"
140
0.09375
141
12.0
290
     0
  0
SCALE
  5
49
102
{ACAD_REACTORS
330
42
102
}
330
42
100
AcDbScale
 70
     0
300
1/8" = 1'-0"
140
0.125
141
12.0
290
     0
  0
SCALE
  5
4A
102
{ACAD_REACTORS
330
42
102
}
330
42
100
AcDbScale
 70
     0
300
3/16" = 1'-0"
140
0.1875
141
12.0
290
     0
  0
SCALE
  5
4B
102
{ACAD_REACTORS
330
42
102
}
330
42
100
AcDbScale
 70
     0
300
1/4" = 1'-0"
140
0.25
141
12.0
290
     0
  0
SCALE
  5
4C
102
{ACAD_REACTORS
330
42
102
}
330
42
100
AcDbScale
 70
     0
300
3/8" = 1'-0"
140
0.375
141
12.0
290
     0
  0
SCALE
  5
4D
102
{ACAD_REACTORS
330
42
102
}
330
42
100
AcDbScale
 70
     0
300
1/2" = 1'-0"
140
0.5
141
12.0
290
     0
  0
SCALE
  5
4E
102
{ACAD_REACTORS
330
42
102
}
330
42
100
AcDbScale
 70
     0
300
3/4" = 1'-0"
140
0.75
141
12.0
290
     0
  0
SCALE
  5
4F
102
{ACAD_REACTORS
330
42
102
}
330
42
100
AcDbScale
 70
     0
300
1" = 1'-0"
140
1.0
141
12.0
290
     0
  0
SCALE
  5
50
102
{ACAD_REACTORS
330
42
102
}
330
42
100
AcDbScale
 70
     0
300
1-1/2" = 1'-0"
140
1.5
141
12.0
290
     0
  0
SCALE
  5
51
102
{ACAD_REACTORS
330
42
102
}
330
42
100
AcDbScale
 70
     0
300
3" = 1'-0"
140
3.0
141
12.0
290
     0
  0
SCALE
  5
52
102
{ACAD_REACTORS
330
42
102
}
330
42
100
AcDbScale
 70
     0
300
6" = 1'-0"
140
6.0
141
12.0
290
     0
  0
SCALE
  5
53
102
{ACAD_REACTORS
330
42
102
}
330
42
100
AcDbScale
 70
     0
300
1'-0" = 1'-0"
140
12.0
141
12.0
290
     0
  0
ACDBSECTIONVIEWSTYLE
  5
69
102
{ACAD_XDICTIONARY
360
A1
102
}
102
{ACAD_REACTORS
330
68
102
}
330
68
100
AcDbModelDocViewStyle
 70
     0
  3
Imperial24
290
     0
100
AcDbSectionViewStyle
 70
     0
 71
     0
 90
       78
 71
     1
340
55
 62
   256
 40
0.24
340
0
340
0
 62
   256
 40
0.24
300
I, O, Q, S, X, Z
 40
0.48
 90
        3
 40
0.18
 90
        1
 71
     2
340
5D
 90
       25
 62
   256
340
5D
 90
       50
 62
   256
 40
0.24
 40
0.0
 40
0.24
 71
     3
340
55
 62
   256
 40
0.24
 90
        1
 40
0.75
 90
        1
300
%<\AcVar ViewType \f "%tc1">% %<\AcVar ViewSectionStartId>%-%<\AcVar ViewSectionEndId>%\PSCALE %<\AcVar ViewScale \f "%sn">%
 71
     4
 62
   256
 62
   257
300
ANSI31
 40
1.0
 90
        0
290
     0
290
     0
 90
        6
 40
0.0
 40
1.570796326794896
 40
0.2617993877991494
 40
1.308996938995747
 40
-0.2617993877991494
 40
1.832595714594046
  0
TABLESTYLE
  5
65
102
{ACAD_XDICTIONARY
360
9E
102
}
102
{ACAD_REACTORS
330
64
102
}
330
64
100
AcDbTableStyle
280
     0
  3
Standard
 70
     0
 71
     0
 40
0.06
 41
0.06
280
     0
281
     0
  7
Standard
140
0.18
170
     2
 62
     0
 63
     7
283
     0
 90
      512
 91
        0
  1

274
    -2
284
     1
 64
     0
275
    -2
285
     1
 65
     0
276
    -2
286
     1
 66
     0
277
    -2
287
     1
 67
     0
278
    -2
288
     1
 68
     0
279
    -2
289
     1
 69
     0
  7
Standard
140
0.25
170
     5
 62
     0
 63
     7
283
     0
 90
      512
 91
        0
  1

274
    -2
284
     1
 64
     0
275
    -2
285
     1
 65
     0
276
    -2
286
     1
 66
     0
277
    -2
287
     1
 67
     0
278
    -2
288
     1
 68
     0
279
    -2
289
     1
 69
     0
  7
Standard
140
0.18
170
     5
 62
     0
 63
     7
283
     0
 90
      512
 91
        0
  1

274
    -2
284
     1
 64
     0
275
    -2
285
     1
 65
     0
276
    -2
286
     1
 66
     0
277
    -2
287
     1
 67
     0
278
    -2
288
     1
 68
     0
279
    -2
289
     1
 69
     0
  0
VISUALSTYLE
  5
2F
102
{ACAD_REACTORS
330
29
102
}
330
29
100
AcDbVisualStyle
  2
2dWireframe
 70
     4
177
     3
291
     0
 70
    58
 90
        0
176
     1
 90
        2
176
     1
 90
        0
176
     1
 90
        0
176
     1
 40
0.6
176
     1
 40
30.0
176
     1
 62
     7
420
 16777215
176
     1
 90
        1
176
     1
 90
        4
176
     1
 62
     7
176
     1
 62
   257
176
     1
 90
        1
176
     1
 90
        1
176
     1
 40
1.0
176
     1
 90
        0
176
     1
 62
   257
176
     1
 40
1.0
176
     1
 90
        1
176
     1
 90
        6
176
     1
 90
        2
176
     1
 62
     7
176
     1
 90
        5
176
     1
 90
        0
176
     1
 90
        0
176
     1
290
     0
176
     1
 90
        1
176
     1
 40
0.0
176
     1
 90
        0
176
     1
290
     1
176
     1
290
     1
176
     1
290
     0
176
     1
290
     0
176
     1
290
     0
176
     1
290
     0
176
     1
290
     0
176
     1
290
     0
176
     1
290
     0
176
     1
 90
       50
176
     1
 40
0.0
176
     1
 40
1.0
176
     1
 90
        0
176
     1
 62
    18
420
        0
176
     1
 90
       50
176
     1
 90
        3
176
     1
 62
     5
420
      255
176
     1
290
     0
176
     1
 90
       50
176
     1
 90
       50
176
     1
 90
       50
176
     1
290
     0
176
     1
 90
       50
176
     1
 62
   256
176
     0
 40
1.0
176
     0
 90
        2
176
     1
  1
strokes_ogs.tif
176
     1
290
     0
176
     1
 40
1.0
176
     1
 40
1.0
176
     1
1001
ACAD
1000
AcDbSavedByObjectVersion
1070
     0
  0
VISUALSTYLE
  5
2E
102
{ACAD_REACTORS
330
29
102
}
330
29
100
AcDbVisualStyle
  2
Basic
 70
     7
177
     3
291
     1
 70
    58
 90
        1
176
     1
 90
        0
176
     1
 90
        1
176
     1
 90
        0
176
     1
 40
0.6
176
     1
 40
30.0
176
     1
 62
     7
420
 16777215
176
     1
 90
        0
176
     1
 90
        4
176
     1
 62
     7
176
     1
 62
   257
176
     1
 90
        1
176
     1
 90
        1
176
     1
 40
1.0
176
     1
 90
        8
176
     1
 62
     7
176
     1
 40
1.0
176
     1
 90
        1
176
     1
 90
        6
176
     1
 90
        2
176
     1
 62
     7
176
     1
 90
        5
176
     1
 90
        0
176
     1
 90
        0
176
     1
290
     0
176
     1
 90
        1
176
     1
 40
0.0
176
     1
 90
        0
176
     1
290
     0
176
     1
290
     1
176
     1
290
     1
176
     1
290
     0
176
     1
290
     0
176
     1
290
     0
176
     1
290
     0
176
     1
290
     0
176
     1
290
     0
176
     1
 90
       50
176
     1
 40
0.0
176
     1
 40
1.0
176
     1
 90
        0
176
     1
 62
    18
420
        0
176
     1
 90
       50
176
     1
 90
        3
176
     1
 62
     5
420
      255
176
     1
290
     0
176
     1
 90
       50
176
     1
 90
       50
176
     1
 90
       50
176
     1
290
     0
176
     1
 90
       50
176
     1
 62
   256
176
     0
 40
1.0
176
     0
 90
        2
176
     1
  1
strokes_ogs.tif
176
     1
290
     0
176
     1
 40
1.0
176
     1
 40
1.0
176
     1
1001
ACAD
1000
AcDbSavedByObjectVersion
1070
     0
  0
VISUALSTYLE
  5
35
102
{ACAD_REACTORS
330
29
102
}
330
29
100
AcDbVisualStyle
  2
Brighten
 70
    12
177
     3
291
     1
 70
    58
 90
        2
176
     1
 90
        2
176
     1
 90
        0
176
     1
 90
        0
176
     1
 40
0.6
176
     1
 40
30.0
176
     1
 62
     7
420
 16777215
176
     1
 90
        1
176
     1
 90
        4
176
     1
 62
     7
176
     1
 62
   257
176
     1
 90
        1
176
     1
 90
        1
176
     1
 40
1.0
176
     1
 90
        8
176
     1
 62
     7
176
     1
 40
1.0
176
     1
 90
        1
176
     1
 90
        6
176
     1
 90
        2
176
     1
 62
     7
176
     1
 90
        5
176
     1
 90
        0
176
     1
 90
        0
176
     1
290
     0
176
     1
 90
        1
176
     1
 40
50.0
176
     1
 90
        0
176
     1
290
     0
176
     1
290
     1
176
     1
290
     1
176
     1
290
     0
176
     1
290
     0
176
     1
290
     0
176
     1
290
     0
176
     1
290
     0
176
     1
290
     0
176
     1
 90
       50
176
     1
 40
0.0
176
     1
 40
1.0
176
     1
 90
        0
176
     1
 62
    18
420
        0
176
     1
 90
       50
176
     1
 90
        3
176
     1
 62
     5
420
      255
176
     1
290
     0
176
     1
 90
       50
176
     1
 90
       50
176
     1
 90
       50
176
     1
290
     0
176
     1
 90
       50
176
     1
 62
   256
176
     0
 40
1.0
176
     0
 90
        2
176
     1
  1
strokes_ogs.tif
176
     1
290
     0
176
     1
 40
1.0
176
     1
 40
1.0
176
     1
1001
ACAD
1000
AcDbSavedByObjectVersion
1070
     0
  0
VISUALSTYLE
  5
39
102
{ACAD_REACTORS
330
29
102
}
330
29
100
AcDbVisualStyle
  2
ColorChange
 70
    16
177
     3
291
     1
 70
    58
 90
        2
176
     1
 90
        2
176
     1
 90
        3
176
     1
 90
        0
176
     1
 40
0.6
176
     1
 40
30.0
176
     1
 62
     8
420
  8421504
176
     1
 90
        1
176
     1
 90
        4
176
     1
 62
     7
176
     1
 62
   257
176
     1
 90
        1
176
     1
 90
        1
176
     1
 40
1.0
176
     1
 90
        8
176
     1
 62
     8
420
  8421504
176
     1
 40
1.0
176
     1
 90
        1
176
     1
 90
        6
176
     1
 90
        2
176
     1
 62
     7
176
     1
 90
        5
176
     1
 90
        0
176
     1
 90
        0
176
     1
290
     0
176
     1
 90
        1
176
     1
 40
0.0
176
     1
 90
        0
176
     1
290
     0
176
     1
290
     1
176
     1
290
     1
176
     1
290
     0
176
     1
290
     0
176
     1
290
     0
176
     1
290
     0
176
     1
290
     0
176
     1
290
     0
176
     1
 90
       50
176
     1
 40
0.0
176
     1
 40
1.0
176
     1
 90
        0
176
     1
 62
    18
420
        0
176
     1
 90
       50
176
     1
 90
        3
176
     1
 62
     5
420
      255
176
     1
290
     0
176
     1
 90
       50
176
     1
 90
       50
176
     1
 90
       50
176
     1
290
     0
176
     1
 90
       50
176
     1
 62
   256
176
     0
 40
1.0
176
     0
 90
        2
176
     1
  1
strokes_ogs.tif
176
     1
290
     0
176
     1
 40
1.0
176
     1
 40
1.0
176
     1
1001
ACAD
1000
AcDbSavedByObjectVersion
1070
     0
  0
VISUALSTYLE
  5
32
102
{ACAD_REACTORS
330
29
102
}
330
29
100
AcDbVisualStyle
  2
Conceptual
 70
     9
177
     3
291
     0
 70
    58
 90
        3
176
     1
 90
        2
176
     1
 90
        0
176
     1
 90
        0
176
     1
 40
0.6
176
     1
 40
30.0
176
     1
 62
     7
420
 16777215
176
     1
 90
        2
176
     1
 90
        2
176
     1
 62
     7
176
     1
 62
   257
176
     1
 90
        1
176
     1
 90
        1
176
     1
 40
179.0
176
     1
 90
        8
176
     1
 62
     7
176
     1
 40
1.0
176
     1
 90
        1
176
     1
 90
        6
176
     1
 90
        2
176
     1
 62
     7
176
     1
 90
        3
176
     1
 90
        0
176
     1
 90
        0
176
     1
290
     0
176
     1
 90
        1
176
     1
 40
0.0
176
     1
 90
        0
176
     1
290
     0
176
     1
290
     1
176
     1
290
     1
176
     1
290
     0
176
     1
290
     0
176
     1
290
     0
176
     1
290
     0
176
     1
290
     0
176
     1
290
     0
176
     1
 90
       50
176
     1
 40
0.0
176
     1
 40
1.0
176
     1
 90
        0
176
     1
 62
    18
420
        0
176
     1
 90
       50
176
     1
 90
        3
176
     1
 62
     5
420
      255
176
     1
290
     0
176
     1
 90
       50
176
     1
 90
       50
176
     1
 90
       50
176
     1
290
     0
176
     1
 90
       50
176
     1
 62
   256
176
     0
 40
1.0
176
     0
 90
        2
176
     1
  1
strokes_ogs.tif
176
     1
290
     0
176
     1
 40
1.0
176
     1
 40
1.0
176
     1
1001
ACAD
1000
AcDbSavedByObjectVersion
1070
     0
  0
VISUALSTYLE
  5
34
102
{ACAD_REACTORS
330
29
102
}
330
29
100
AcDbVisualStyle
  2
Dim
 70
    11
177
     3
291
     1
 70
    58
 90
        2
176
     1
 90
        2
176
     1
 90
        0
176
     1
 90
        0
176
     1
 40
0.6
176
     1
 40
30.0
176
     1
 62
     7
420
 16777215
176
     1
 90
        1
176
     1
 90
        4
176
     1
 62
     7
176
     1
 62
   257
176
     1
 90
        1
176
     1
 90
        1
176
     1
 40
1.0
176
     1
 90
        8
176
     1
 62
     7
176
     1
 40
1.0
176
     1
 90
        1
176
     1
 90
        6
176
     1
 90
        2
176
     1
 62
     7
176
     1
 90
        5
176
     1
 90
        0
176
     1
 90
        0
176
     1
290
     0
176
     1
 90
        1
176
     1
 40
-50.0
176
     1
 90
        0
176
     1
290
     0
176
     1
290
     1
176
     1
290
     1
176
     1
290
     0
176
     1
290
     0
176
     1
290
     0
176
     1
290
     0
176
     1
290
     0
176
     1
290
     0
176
     1
 90
       50
176
     1
 40
0.0
176
     1
 40
1.0
176
     1
 90
        0
176
     1
 62
    18
420
        0
176
     1
 90
       50
176
     1
 90
        3
176
     1
 62
     5
420
      255
176
     1
290
     0
176
     1
 90
       50
176
     1
 90
       50
176
     1
 90
       50
176
     1
290
     0
176
     1
 90
       50
176
     1
 62
   256
176
     0
 40
1.0
176
     0
 90
        2
176
     1
  1
strokes_ogs.tif
176
     1
290
     0
176
     1
 40
1.0
176
     1
 40
1.0
176
     1
1001
ACAD
1000
AcDbSavedByObjectVersion
1070
     0
  0
VISUALSTYLE
  5
41
102
{ACAD_REACTORS
330
29
102
}
330
29
100
AcDbVisualStyle
  2
EdgeColorOff
 70
    22
177
     3
291
     1
 70
    58
 90
        2
176
     0
 90
        2
176
     0
 90
        0
176
     0
 90
        0
176
     0
 40
0.6
176
     0
 40
30.0
176
     0
 62
     7
420
 16777215
176
     0
 90
        1
176
     0
 90
        4
176
     0
 62
     7
176
     0
 62
   257
176
     0
 90
        1
176
     0
 90
        1
176
     0
 40
1.0
176
     0
 90
        8
176
     2
 62
     7
176
     0
 40
1.0
176
     0
 90
        1
176
     0
 90
        6
176
     0
 90
        2
176
     0
 62
     7
176
     0
 90
        5
176
     0
 90
        0
176
     0
 90
        0
176
     0
290
     0
176
     0
 90
        1
176
     0
 40
0.0
176
     0
 90
        0
176
     0
290
     0
176
     0
290
     1
176
     0
290
     1
176
     0
290
     0
176
     0
290
     0
176
     0
290
     0
176
     0
290
     0
176
     0
290
     0
176
     0
290
     0
176
     0
 90
       50
176
     0
 40
0.0
176
     0
 40
1.0
176
     0
 90
        0
176
     0
 62
    18
420
        0
176
     0
 90
       50
176
     0
 90
        3
176
     0
 62
     5
420
      255
176
     0
290
     0
176
     0
 90
       50
176
     0
 90
       50
176
     0
 90
       50
176
     0
290
     0
176
     0
 90
       50
176
     0
 62
   256
176
     0
 40
1.0
176
     0
 90
        2
176
     0
  1
strokes_ogs.tif
176
     0
290
     0
176
     0
 40
1.0
176
     0
 40
1.0
176
     0
1001
ACAD
1000
AcDbSavedByObjectVersion
1070
     0
  0
VISUALSTYLE
  5
38
102
{ACAD_REACTORS
330
29
102
}
330
29
100
AcDbVisualStyle
  2
Facepattern
 70
    15
177
     3
291
     1
 70
    58
 90
        2
176
     1
 90
        2
176
     1
 90
        0
176
     1
 90
        0
176
     1
 40
0.6
176
     1
 40
30.0
176
     1
 62
     7
420
 16777215
176
     1
 90
        1
176
     1
 90
        4
176
     1
 62
     7
176
     1
 62
   257
176
     1
 90
        1
176
     1
 90
        1
176
     1
 40
1.0
176
     1
 90
        8
176
     1
 62
     7
176
     1
 40
1.0
176
     1
 90
        1
176
     1
 90
        6
176
     1
 90
        2
176
     1
 62
     7
176
     1
 90
        5
176
     1
 90
        0
176
     1
 90
        0
176
     1
290
     0
176
     1
 90
        1
176
     1
 40
0.0
176
     1
 90
        0
176
     1
290
     0
176
     1
290
     1
176
     1
290
     1
176
     1
290
     0
176
     1
290
     0
176
     1
290
     0
176
     1
290
     0
176
     1
290
     0
176
     1
290
     0
176
     1
 90
       50
176
     1
 40
0.0
176
     1
 40
1.0
176
     1
 90
        0
176
     1
 62
    18
420
        0
176
     1
 90
       50
176
     1
 90
        3
176
     1
 62
     5
420
      255
176
     1
290
     0
176
     1
 90
       50
176
     1
 90
       50
176
     1
 90
       50
176
     1
290
     0
176
     1
 90
       50
176
     1
 62
   256
176
     0
 40
1.0
176
     0
 90
        2
176
     1
  1
strokes_ogs.tif
176
     1
290
     0
176
     1
 40
1.0
176
     1
 40
1.0
176
     1
1001
ACAD
1000
AcDbSavedByObjectVersion
1070
     0
  0
VISUALSTYLE
  5
2A
102
{ACAD_REACTORS
330
29
102
}
330
29
100
AcDbVisualStyle
  2
Flat
 70
     0
177
     3
291
     1
 70
    58
 90
        2
176
     1
 90
        1
176
     1
 90
        1
176
     1
 90
        2
176
     1
 40
0.6
176
     1
 40
30.0
176
     1
 62
     7
420
 16777215
176
     1
 90
        0
176
     1
 90
        0
176
     1
 62
     7
176
     1
 62
   257
176
     1
 90
        1
176
     1
 90
        1
176
     1
 40
1.0
176
     1
 90
        8
176
     1
 62
     7
176
     1
 40
1.0
176
     1
 90
        1
176
     1
 90
        6
176
     1
 90
        2
176
     1
 62
     7
176
     1
 90
        5
176
     1
 90
        0
176
     1
 90
        0
176
     1
290
     0
176
     1
 90
       13
176
     1
 40
0.0
176
     1
 90
        0
176
     1
290
     0
176
     1
290
     1
176
     1
290
     1
176
     1
290
     0
176
     1
290
     0
176
     1
290
     0
176
     1
290
     0
176
     1
290
     0
176
     1
290
     0
176
     1
 90
       50
176
     1
 40
0.0
176
     1
 40
1.0
176
     1
 90
        0
176
     1
 62
    18
420
        0
176
     1
 90
       50
176
     1
 90
        3
176
     1
 62
     5
420
      255
176
     1
290
     0
176
     1
 90
       50
176
     1
 90
       50
176
     1
 90
       50
176
     1
290
     0
176
     1
 90
       50
176
     1
 62
   256
176
     0
 40
1.0
176
     0
 90
        2
176
     1
  1
strokes_ogs.tif
176
     1
290
     0
176
     1
 40
1.0
176
     1
 40
1.0
176
     1
1001
ACAD
1000
AcDbSavedByObjectVersion
1070
     0
  0
VISUALSTYLE
  5
2B
102
{ACAD_REACTORS
330
29
102
}
330
29
100
AcDbVisualStyle
  2
FlatWithEdges
 70
     1
177
     3
291
     1
 70
    58
 90
        2
176
     1
 90
        1
176
     1
 90
        1
176
     1
 90
        2
176
     1
 40
0.6
176
     1
 40
30.0
176
     1
 62
     7
420
 16777215
176
     1
 90
        1
176
     1
 90
        0
176
     1
 62
     7
176
     1
 62
   257
176
     1
 90
        1
176
     1
 90
        1
176
     1
 40
1.0
176
     1
 90
        0
176
     1
 62
   257
176
     1
 40
1.0
176
     1
 90
        1
176
     1
 90
        6
176
     1
 90
        2
176
     1
 62
     7
176
     1
 90
        5
176
     1
 90
        0
176
     1
 90
        0
176
     1
290
     0
176
     1
 90
       13
176
     1
 40
0.0
176
     1
 90
        0
176
     1
290
     0
176
     1
290
     1
176
     1
290
     1
176
     1
290
     0
176
     1
290
     0
176
     1
290
     0
176
     1
290
     0
176
     1
290
     0
176
     1
290
     0
176
     1
 90
       50
176
     1
 40
0.0
176
     1
 40
1.0
176
     1
 90
        0
176
     1
 62
    18
420
        0
176
     1
 90
       50
176
     1
 90
        3
176
     1
 62
     5
420
      255
176
     1
290
     0
176
     1
 90
       50
176
     1
 90
       50
176
     1
 90
       50
176
     1
290
     0
176
     1
 90
       50
176
     1
 62
   256
176
     0
 40
1.0
176
     0
 90
        2
176
     1
  1
strokes_ogs.tif
176
     1
290
     0
176
     1
 40
1.0
176
     1
 40
1.0
176
     1
1001
ACAD
1000
AcDbSavedByObjectVersion
1070
     0
  0
VISUALSTYLE
  5
2C
102
{ACAD_REACTORS
330
29
102
}
330
29
100
AcDbVisualStyle
  2
Gouraud
 70
     2
177
     3
291
     1
 70
    58
 90
        2
176
     1
 90
        2
176
     1
 90
        1
176
     1
 90
        2
176
     1
 40
0.6
176
     1
 40
30.0
176
     1
 62
     7
420
 16777215
176
     1
 90
        0
176
     1
 90
        0
176
     1
 62
     7
176
     1
 62
   257
176
     1
 90
        1
176
     1
 90
        1
176
     1
 40
1.0
176
     1
 90
        0
176
     1
 62
     7
176
     1
 40
1.0
176
     1
 90
        1
176
     1
 90
        6
176
     1
 90
        2
176
     1
 62
     7
176
     1
 90
        5
176
     1
 90
        0
176
     1
 90
        0
176
     1
290
     0
176
     1
 90
       13
176
     1
 40
0.0
176
     1
 90
        0
176
     1
290
     0
176
     1
290
     1
176
     1
290
     1
176
     1
290
     0
176
     1
290
     0
176
     1
290
     0
176
     1
290
     0
176
     1
290
     0
176
     1
290
     0
176
     1
 90
       50
176
     1
 40
0.0
176
     1
 40
1.0
176
     1
 90
        0
176
     1
 62
    18
420
        0
176
     1
 90
       50
176
     1
 90
        3
176
     1
 62
     5
420
      255
176
     1
290
     0
176
     1
 90
       50
176
     1
 90
       50
176
     1
 90
       50
176
     1
290
     0
176
     1
 90
       50
176
     1
 62
   256
176
     0
 40
1.0
176
     0
 90
        2
176
     1
  1
strokes_ogs.tif
176
     1
290
     0
176
     1
 40
1.0
176
     1
 40
1.0
176
     1
1001
ACAD
1000
AcDbSavedByObjectVersion
1070
     0
  0
VISUALSTYLE
  5
2D
102
{ACAD_REACTORS
330
29
102
}
330
29
100
AcDbVisualStyle
  2
GouraudWithEdges
 70
     3
177
     3
291
     1
 70
    58
 90
        2
176
     1
 90
        2
176
     1
 90
        1
176
     1
 90
        2
176
     1
 40
0.6
176
     1
 40
30.0
176
     1
 62
     7
420
 16777215
176
     1
 90
        1
176
     1
 90
        0
176
     1
 62
     7
176
     1
 62
   257
176
     1
 90
        1
176
     1
 90
        1
176
     1
 40
1.0
176
     1
 90
        0
176
     1
 62
   257
176
     1
 40
1.0
176
     1
 90
        1
176
     1
 90
        6
176
     1
 90
        2
176
     1
 62
     7
176
     1
 90
        5
176
     1
 90
        0
176
     1
 90
        0
176
     1
290
     0
176
     1
 90
       13
176
     1
 40
0.0
176
     1
 90
        0
176
     1
290
     0
176
     1
290
     1
176
     1
290
     1
176
     1
290
     0
176
     1
290
     0
176
     1
290
     0
176
     1
290
     0
176
     1
290
     0
176
     1
290
     0
176
     1
 90
       50
176
     1
 40
0.0
176
     1
 40
1.0
176
     1
 90
        0
176
     1
 62
    18
420
        0
176
     1
 90
       50
176
     1
 90
        3
176
     1
 62
     5
420
      255
176
     1
290
     0
176
     1
 90
       50
176
     1
 90
       50
176
     1
 90
       50
176
     1
290
     0
176
     1
 90
       50
176
     1
 62
   256
176
     0
 40
1.0
176
     0
 90
        2
176
     1
  1
strokes_ogs.tif
176
     1
290
     0
176
     1
 40
1.0
176
     1
 40
1.0
176
     1
1001
ACAD
1000
AcDbSavedByObjectVersion
1070
     0
  0
VISUALSTYLE
  5
31
102
{ACAD_REACTORS
330
29
102
}
330
29
100
AcDbVisualStyle
  2
Hidden
 70
     6
177
     3
291
     0
 70
    58
 90
        1
176
     1
 90
        2
176
     1
 90
        2
176
     1
 90
        0
176
     1
 40
0.6
176
     1
 40
30.0
176
     1
 62
     7
420
 16777215
176
     1
 90
        2
176
     1
 90
        2
176
     1
 62
     7
176
     1
 62
   257
176
     1
 90
        2
176
     1
 90
        1
176
     1
 40
40.0
176
     1
 90
        0
176
     1
 62
   257
176
     1
 40
1.0
176
     1
 90
        1
176
     1
 90
        6
176
     1
 90
        2
176
     1
 62
     7
176
     1
 90
        3
176
     1
 90
        0
176
     1
 90
        0
176
     1
290
     0
176
     1
 90
        1
176
     1
 40
0.0
176
     1
 90
        0
176
     1
290
     0
176
     1
290
     1
176
     1
290
     1
176
     1
290
     0
176
     1
290
     0
176
     1
290
     0
176
     1
290
     0
176
     1
290
     0
176
     1
290
     0
176
     1
 90
       50
176
     1
 40
0.0
176
     1
 40
1.0
176
     1
 90
        0
176
     1
 62
    18
420
        0
176
     1
 90
       50
176
     1
 90
        3
176
     1
 62
     5
420
      255
176
     1
290
     0
176
     1
 90
       50
176
     1
 90
       50
176
     1
 90
       50
176
     1
290
     0
176
     1
 90
       50
176
     1
 62
   256
176
     0
 40
1.0
176
     0
 90
        2
176
     1
  1
strokes_ogs.tif
176
     1
290
     0
176
     1
 40
1.0
176
     1
 40
1.0
176
     1
1001
ACAD
1000
AcDbSavedByObjectVersion
1070
     0
  0
VISUALSTYLE
  5
3F
102
{ACAD_REACTORS
330
29
102
}
330
29
100
AcDbVisualStyle
  2
JitterOff
 70
    20
177
     3
291
     1
 70
    58
 90
        2
176
     0
 90
        2
176
     0
 90
        0
176
     0
 90
        0
176
     0
 40
0.6
176
     0
 40
30.0
176
     0
 62
     7
420
 16777215
176
     0
 90
        1
176
     0
 90
        4
176
     0
 62
     7
176
     0
 62
   257
176
     0
 90
        1
176
     0
 90
        1
176
     0
 40
1.0
176
     0
 90
       10
176
     2
 62
     7
176
     0
 40
1.0
176
     0
 90
        1
176
     0
 90
        6
176
     0
 90
        2
176
     0
 62
     7
176
     0
 90
        5
176
     0
 90
        0
176
     0
 90
        0
176
     0
290
     0
176
     0
 90
        1
176
     0
 40
0.0
176
     0
 90
        0
176
     0
290
     0
176
     0
290
     1
176
     0
290
     1
176
     0
290
     0
176
     0
290
     0
176
     0
290
     0
176
     0
290
     0
176
     0
290
     0
176
     0
290
     0
176
     0
 90
       50
176
     0
 40
0.0
176
     0
 40
1.0
176
     0
 90
        0
176
     0
 62
    18
420
        0
176
     0
 90
       50
176
     0
 90
        3
176
     0
 62
     5
420
      255
176
     0
290
     0
176
     0
 90
       50
176
     0
 90
       50
176
     0
 90
       50
176
     0
290
     0
176
     0
 90
       50
176
     0
 62
   256
176
     0
 40
1.0
176
     0
 90
        2
176
     0
  1
strokes_ogs.tif
176
     0
290
     0
176
     0
 40
1.0
176
     0
 40
1.0
176
     0
1001
ACAD
1000
AcDbSavedByObjectVersion
1070
     0
  0
VISUALSTYLE
  5
37
102
{ACAD_REACTORS
330
29
102
}
330
29
100
AcDbVisualStyle
  2
Linepattern
 70
    14
177
     3
291
     1
 70
    58
 90
        2
176
     1
 90
        2
176
     1
 90
        0
176
     1
 90
        0
176
     1
 40
0.6
176
     1
 40
30.0
176
     1
 62
     7
420
 16777215
176
     1
 90
        1
176
     1
 90
        4
176
     1
 62
     7
176
     1
 62
   257
176
     1
 90
        7
176
     1
 90
        7
176
     1
 40
1.0
176
     1
 90
        8
176
     1
 62
     7
176
     1
 40
1.0
176
     1
 90
        1
176
     1
 90
        6
176
     1
 90
        2
176
     1
 62
     7
176
     1
 90
        5
176
     1
 90
        0
176
     1
 90
        0
176
     1
290
     0
176
     1
 90
        1
176
     1
 40
0.0
176
     1
 90
        0
176
     1
290
     0
176
     1
290
     1
176
     1
290
     1
176
     1
290
     0
176
     1
290
     0
176
     1
290
     0
176
     1
290
     0
176
     1
290
     0
176
     1
290
     0
176
     1
 90
       50
176
     1
 40
0.0
176
     1
 40
1.0
176
     1
 90
        0
176
     1
 62
    18
420
        0
176
     1
 90
       50
176
     1
 90
        3
176
     1
 62
     5
420
      255
176
     1
290
     0
176
     1
 90
       50
176
     1
 90
       50
176
     1
 90
       50
176
     1
290
     0
176
     1
 90
       50
176
     1
 62
   256
176
     0
 40
1.0
176
     0
 90
        2
176
     1
  1
strokes_ogs.tif
176
     1
290
     0
176
     1
 40
1.0
176
     1
 40
1.0
176
     1
1001
ACAD
1000
AcDbSavedByObjectVersion
1070
     0
  0
VISUALSTYLE
  5
40
102
{ACAD_REACTORS
330
29
102
}
330
29
100
AcDbVisualStyle
  2
OverhangOff
 70
    21
177
     3
291
     1
 70
    58
 90
        2
176
     0
 90
        2
176
     0
 90
        0
176
     0
 90
        0
176
     0
 40
0.6
176
     0
 40
30.0
176
     0
 62
     7
420
 16777215
176
     0
 90
        1
176
     0
 90
        4
176
     0
 62
     7
176
     0
 62
   257
176
     0
 90
        1
176
     0
 90
        1
176
     0
 40
1.0
176
     0
 90
        9
176
     2
 62
     7
176
     0
 40
1.0
176
     0
 90
        1
176
     0
 90
        6
176
     0
 90
        2
176
     0
 62
     7
176
     0
 90
        5
176
     0
 90
        0
176
     0
 90
        0
176
     0
290
     0
176
     0
 90
        1
176
     0
 40
0.0
176
     0
 90
        0
176
     0
290
     0
176
     0
290
     1
176
     0
290
     1
176
     0
290
     0
176
     0
290
     0
176
     0
290
     0
176
     0
290
     0
176
     0
290
     0
176
     0
290
     0
176
     0
 90
       50
176
     0
 40
0.0
176
     0
 40
1.0
176
     0
 90
        0
176
     0
 62
    18
420
        0
176
     0
 90
       50
176
     0
 90
        3
176
     0
 62
     5
420
      255
176
     0
290
     0
176
     0
 90
       50
176
     0
 90
       50
176
     0
 90
       50
176
     0
290
     0
176
     0
 90
       50
176
     0
 62
   256
176
     0
 40
1.0
176
     0
 90
        2
176
     0
  1
strokes_ogs.tif
176
     0
290
     0
176
     0
 40
1.0
176
     0
 40
1.0
176
     0
1001
ACAD
1000
AcDbSavedByObjectVersion
1070
     0
  0
VISUALSTYLE
  5
33
102
{ACAD_REACTORS
330
29
102
}
330
29
100
AcDbVisualStyle
  2
Realistic
 70
     8
177
     3
291
     0
 70
    58
 90
        2
176
     1
 90
        3
176
     1
 90
        0
176
     1
 90
        2
176
     1
 40
0.6
176
     1
 40
30.0
176
     1
 62
     7
420
 16777215
176
     1
 90
        0
176
     1
 90
        0
176
     1
 62
     7
176
     1
 62
   257
176
     1
 90
        1
176
     1
 90
        1
176
     1
 40
1.0
176
     1
 90
        8
176
     1
 62
   257
176
     1
 40
1.0
176
     1
 90
        1
176
     1
 90
        6
176
     1
 90
        2
176
     1
 62
     7
176
     1
 90
        3
176
     1
 90
        0
176
     1
 90
        0
176
     1
290
     0
176
     1
 90
       13
176
     1
 40
0.0
176
     1
 90
        0
176
     1
290
     0
176
     1
290
     1
176
     1
290
     1
176
     1
290
     0
176
     1
290
     0
176
     1
290
     0
176
     1
290
     0
176
     1
290
     0
176
     1
290
     0
176
     1
 90
       50
176
     1
 40
0.0
176
     1
 40
1.0
176
     1
 90
        0
176
     1
 62
    18
420
        0
176
     1
 90
       50
176
     1
 90
        3
176
     1
 62
     5
420
      255
176
     1
290
     0
176
     1
 90
       50
176
     1
 90
       50
176
     1
 90
       50
176
     1
290
     0
176
     1
 90
       50
176
     1
 62
   256
176
     0
 40
1.0
176
     0
 90
        2
176
     1
  1
strokes_ogs.tif
176
     1
290
     0
176
     1
 40
1.0
176
     1
 40
1.0
176
     1
1001
ACAD
1000
AcDbSavedByObjectVersion
1070
     0
  0
VISUALSTYLE
  5
3E
102
{ACAD_REACTORS
330
29
102
}
330
29
100
AcDbVisualStyle
  2
Shaded
 70
    27
177
     3
291
     0
 70
    58
 90
        2
176
     1
 90
        2
176
     1
 90
        1
176
     1
 90
        2
176
     1
 40
0.6
176
     1
 40
30.0
176
     1
 62
     7
420
 16777215
176
     1
 90
        0
176
     1
 90
        4
176
     1
 62
     7
176
     1
 62
   257
176
     1
 90
        1
176
     1
 90
        1
176
     1
 40
1.0
176
     1
 90
        8
176
     1
 62
   257
176
     1
 40
1.0
176
     1
 90
        1
176
     1
 90
        6
176
     1
 90
        2
176
     1
 62
     8
420
  7895160
176
     1
 90
        3
176
     1
 90
        0
176
     1
 90
        0
176
     1
290
     0
176
     1
 90
        5
176
     1
 40
0.0
176
     1
 90
        0
176
     1
290
     0
176
     1
290
     1
176
     1
290
     1
176
     1
290
     0
176
     1
290
     0
176
     1
290
     0
176
     1
290
     0
176
     1
290
     0
176
     1
290
     0
176
     1
 90
       50
176
     1
 40
0.0
176
     1
 40
1.0
176
     1
 90
        0
176
     1
 62
    18
420
        0
176
     1
 90
       50
176
     1
 90
        3
176
     1
 62
     5
420
      255
176
     1
290
     0
176
     1
 90
       50
176
     1
 90
       50
176
     1
 90
       50
176
     1
290
     0
176
     1
 90
       50
176
     1
 62
   256
176
     0
 40
1.0
176
     0
 90
        2
176
     1
  1
strokes_ogs.tif
176
     1
290
     0
176
     1
 40
1.0
176
     1
 40
1.0
176
     1
1001
ACAD
1000
AcDbSavedByObjectVersion
1070
     0
  0
VISUALSTYLE
  5
3D
102
{ACAD_REACTORS
330
29
102
}
330
29
100
AcDbVisualStyle
  2
Shaded with edges
 70
    26
177
     3
291
     0
 70
    58
 90
        2
176
     1
 90
        2
176
     1
 90
        1
176
     1
 90
        2
176
     1
 40
0.6
176
     1
 40
30.0
176
     1
 62
     7
420
 16777215
176
     1
 90
        1
176
     1
 90
        2
176
     1
 62
     7
176
     1
 62
   257
176
     1
 90
        2
176
     1
 90
        1
176
     1
 40
1.0
176
     1
 90
        8
176
     1
 62
   257
176
     1
 40
1.0
176
     1
 90
        1
176
     1
 90
        6
176
     1
 90
        2
176
     1
 62
     7
176
     1
 90
        3
176
     1
 90
        0
176
     1
 90
        0
176
     1
290
     0
176
     1
 90
        5
176
     1
 40
0.0
176
     1
 90
        0
176
     1
290
     0
176
     1
290
     1
176
     1
290
     1
176
     1
290
     0
176
     1
290
     0
176
     1
290
     0
176
     1
290
     0
176
     1
290
     0
176
     1
290
     0
176
     1
 90
       50
176
     1
 40
0.0
176
     1
 40
1.0
176
     1
 90
        0
176
     1
 62
    18
420
        0
176
     1
 90
       50
176
     1
 90
        3
176
     1
 62
     5
420
      255
176
     1
290
     0
176
     1
 90
       50
176
     1
 90
       50
176
     1
 90
       50
176
     1
290
     0
176
     1
 90
       50
176
     1
 62
   256
176
     0
 40
1.0
176
     0
 90
        2
176
     1
  1
strokes_ogs.tif
176
     1
290
     0
176
     1
 40
1.0
176
     1
 40
1.0
176
     1
1001
ACAD
1000
AcDbSavedByObjectVersion
1070
     0
  0
VISUALSTYLE
  5
3A
102
{ACAD_REACTORS
330
29
102
}
330
29
100
AcDbVisualStyle
  2
Shades of Gray
 70
    23
177
     3
291
     0
 70
    58
 90
        2
176
     1
 90
        2
176
     1
 90
        3
176
     1
 90
        0
176
     1
 40
0.6
176
     1
 40
30.0
176
     1
 62
     7
420
 16777215
176
     1
 90
        2
176
     1
 90
        2
176
     1
 62
     7
176
     1
 62
     7
176
     1
 90
        1
176
     1
 90
        1
176
     1
 40
40.0
176
     1
 90
        8
176
     1
 62
     7
176
     1
 40
1.0
176
     1
 90
        1
176
     1
 90
        6
176
     1
 90
        2
176
     1
 62
     7
176
     1
 90
        3
176
     1
 90
        0
176
     1
 90
        0
176
     1
290
     0
176
     1
 90
        1
176
     1
 40
0.0
176
     1
 90
        0
176
     1
290
     0
176
     1
290
     1
176
     1
290
     1
176
     1
290
     0
176
     1
290
     0
176
     1
290
     0
176
     1
290
     0
176
     1
290
     0
176
     1
290
     0
176
     1
 90
       50
176
     1
 40
0.0
176
     1
 40
1.0
176
     1
 90
        0
176
     1
 62
    18
420
        0
176
     1
 90
       50
176
     1
 90
        3
176
     1
 62
     5
420
      255
176
     1
290
     0
176
     1
 90
       50
176
     1
 90
       50
176
     1
 90
       50
176
     1
290
     0
176
     1
 90
       50
176
     1
 62
   256
176
     0
 40
1.0
176
     0
 90
        2
176
     1
  1
strokes_ogs.tif
176
     1
290
     0
176
     1
 40
1.0
176
     1
 40
1.0
176
     1
1001
ACAD
1000
AcDbSavedByObjectVersion
1070
     0
  0
VISUALSTYLE
  5
3B
102
{ACAD_REACTORS
330
29
102
}
330
29
100
AcDbVisualStyle
  2
Sketchy
 70
    24
177
     3
291
     0
 70
    58
 90
        1
176
     1
 90
        2
176
     1
 90
        2
176
     1
 90
        0
176
     1
 40
0.6
176
     1
 40
30.0
176
     1
 62
     7
420
 16777215
176
     1
 90
        2
176
     1
 90
        2
176
     1
 62
     7
176
     1
 62
     7
176
     1
 90
        1
176
     1
 90
        1
176
     1
 40
40.0
176
     1
 90
       11
176
     1
 62
     7
176
     1
 40
1.0
176
     1
 90
        1
176
     1
 90
        6
176
     1
 90
        2
176
     1
 62
     7
176
     1
 90
        6
176
     1
 90
        0
176
     1
 90
        0
176
     1
290
     0
176
     1
 90
        1
176
     1
 40
0.0
176
     1
 90
        0
176
     1
290
     0
176
     1
290
     1
176
     1
290
     1
176
     1
290
     0
176
     1
290
     0
176
     1
290
     0
176
     1
290
     0
176
     1
290
     0
176
     1
290
     0
176
     1
 90
       50
176
     1
 40
0.0
176
     1
 40
1.0
176
     1
 90
        0
176
     1
 62
    18
420
        0
176
     1
 90
       50
176
     1
 90
        3
176
     1
 62
     5
420
      255
176
     1
290
     0
176
     1
 90
       50
176
     1
 90
       50
176
     1
 90
       50
176
     1
290
     0
176
     1
 90
       50
176
     1
 62
   256
176
     0
 40
1.0
176
     0
 90
        2
176
     1
  1
strokes_ogs.tif
176
     1
290
     0
176
     1
 40
1.0
176
     1
 40
1.0
176
     1
1001
ACAD
1000
AcDbSavedByObjectVersion
1070
     0
  0
VISUALSTYLE
  5
36
102
{ACAD_REACTORS
330
29
102
}
330
29
100
AcDbVisualStyle
  2
Thicken
 70
    13
177
     3
291
     1
 70
    58
 90
        2
176
     1
 90
        2
176
     1
 90
        0
176
     1
 90
        0
176
     1
 40
0.6
176
     1
 40
30.0
176
     1
 62
     7
420
 16777215
176
     1
 90
        1
176
     1
 90
        4
176
     1
 62
     7
176
     1
 62
   257
176
     1
 90
        1
176
     1
 90
        1
176
     1
 40
1.0
176
     1
 90
       12
176
     1
 62
     7
176
     1
 40
1.0
176
     1
 90
        1
176
     1
 90
        6
176
     1
 90
        2
176
     1
 62
     7
176
     1
 90
        5
176
     1
 90
        0
176
     1
 90
        0
176
     1
290
     0
176
     1
 90
        1
176
     1
 40
0.0
176
     1
 90
        0
176
     1
290
     0
176
     1
290
     1
176
     1
290
     1
176
     1
290
     0
176
     1
290
     0
176
     1
290
     0
176
     1
290
     0
176
     1
290
     0
176
     1
290
     0
176
     1
 90
       50
176
     1
 40
0.0
176
     1
 40
1.0
176
     1
 90
        0
176
     1
 62
    18
420
        0
176
     1
 90
       50
176
     1
 90
        3
176
     1
 62
     5
420
      255
176
     1
290
     0
176
     1
 90
       50
176
     1
 90
       50
176
     1
 90
       50
176
     1
290
     0
176
     1
 90
       50
176
     1
 62
   256
176
     0
 40
1.0
176
     0
 90
        2
176
     1
  1
strokes_ogs.tif
176
     1
290
     0
176
     1
 40
1.0
176
     1
 40
1.0
176
     1
1001
ACAD
1000
AcDbSavedByObjectVersion
1070
     0
  0
VISUALSTYLE
  5
30
102
{ACAD_REACTORS
330
29
102
}
330
29
100
AcDbVisualStyle
  2
Wireframe
 70
     5
177
     3
291
     0
 70
    58
 90
        0
176
     1
 90
        2
176
     1
 90
        0
176
     1
 90
        0
176
     1
 40
0.6
176
     1
 40
30.0
176
     1
 62
     7
420
 16777215
176
     1
 90
        1
176
     1
 90
        4
176
     1
 62
     7
176
     1
 62
   257
176
     1
 90
        1
176
     1
 90
        1
176
     1
 40
1.0
176
     1
 90
        0
176
     1
 62
   257
176
     1
 40
1.0
176
     1
 90
        1
176
     1
 90
        6
176
     1
 90
        2
176
     1
 62
     7
176
     1
 90
        3
176
     1
 90
        0
176
     1
 90
        0
176
     1
290
     0
176
     1
 90
        1
176
     1
 40
0.0
176
     1
 90
        0
176
     1
290
     0
176
     1
290
     1
176
     1
290
     1
176
     1
290
     0
176
     1
290
     0
176
     1
290
     0
176
     1
290
     0
176
     1
290
     0
176
     1
290
     0
176
     1
 90
       50
176
     1
 40
0.0
176
     1
 40
1.0
176
     1
 90
        0
176
     1
 62
    18
420
        0
176
     1
 90
       50
176
     1
 90
        3
176
     1
 62
     5
420
      255
176
     1
290
     0
176
     1
 90
       50
176
     1
 90
       50
176
     1
 90
       50
176
     1
290
     0
176
     1
 90
       50
176
     1
 62
   256
176
     0
 40
1.0
176
     0
 90
        2
176
     1
  1
strokes_ogs.tif
176
     1
290
     0
176
     1
 40
1.0
176
     1
 40
1.0
176
     1
1001
ACAD
1000
AcDbSavedByObjectVersion
1070
     0
  0
VISUALSTYLE
  5
3C
102
{ACAD_REACTORS
330
29
102
}
330
29
100
AcDbVisualStyle
  2
X-Ray
 70
    25
177
     3
291
     0
 70
    58
 90
        2
176
     1
 90
        2
176
     1
 90
        1
176
     1
 90
        1
176
     1
 40
0.5
176
     1
 40
30.0
176
     1
 62
     7
420
 16777215
176
     1
 90
        1
176
     1
 90
        0
176
     1
 62
     7
176
     1
 62
   257
176
     1
 90
        1
176
     1
 90
        1
176
     1
 40
1.0
176
     1
 90
        8
176
     1
 62
     7
176
     1
 40
1.0
176
     1
 90
        1
176
     1
 90
        6
176
     1
 90
        2
176
     1
 62
     7
176
     1
 90
        3
176
     1
 90
        0
176
     1
 90
        0
176
     1
290
     0
176
     1
 90
       13
176
     1
 40
0.0
176
     1
 90
        0
176
     1
290
     0
176
     1
290
     1
176
     1
290
     1
176
     1
290
     0
176
     1
290
     0
176
     1
290
     0
176
     1
290
     0
176
     1
290
     0
176
     1
290
     0
176
     1
 90
       50
176
     1
 40
0.0
176
     1
 40
1.0
176
     1
 90
        0
176
     1
 62
    18
420
        0
176
     1
 90
       50
176
     1
 90
        3
176
     1
 62
     5
420
      255
176
     1
290
     0
176
     1
 90
       50
176
     1
 90
       50
176
     1
 90
       50
176
     1
290
     0
176
     1
 90
       50
176
     1
 62
   256
176
     0
 40
1.0
176
     0
 90
        2
176
     1
  1
strokes_ogs.tif
176
     1
290
     0
176
     1
 40
1.0
176
     1
 40
1.0
176
     1
1001
ACAD
1000
AcDbSavedByObjectVersion
1070
     0
  0
DICTIONARYVAR
  5
9D
102
{ACAD_REACTORS
330
98
102
}
330
98
100
DictionaryVariables
280
     0
  1
1:1
  0
DICTIONARYVAR
  5
9A
102
{ACAD_REACTORS
330
98
102
}
330
98
100
DictionaryVariables
280
     0
  1
STANDARD
  0
DICTIONARYVAR
  5
99
102
{ACAD_REACTORS
330
98
102
}
330
98
100
DictionaryVariables
280
     0
  1
STANDARD
  0
DICTIONARYVAR
  5
9B
102
{ACAD_REACTORS
330
98
102
}
330
98
100
DictionaryVariables
280
     0
  1
Imperial24
  0
DICTIONARYVAR
  5
9C
102
{ACAD_REACTORS
330
98
102
}
330
98
100
DictionaryVariables
280
     0
  1
Imperial24
  0
DICTIONARY
  5
A3
330
6B
100
AcDbDictionary
280
     1
281
     1
  3
ACAD_XREC_ROUNDTRIP
360
A4
  0
DICTIONARY
  5
1A
330
19
100
AcDbDictionary
280
     1
281
     1
  3
BUMPTILE
360
1C
  3
DIFFUSETILE
360
1B
  3
OPACITYTILE
360
1F
  3
REFLECTIONTILE
360
1E
  3
REFRACTIONTILE
360
20
  3
SPECULARTILE
360
1D
  0
DICTIONARY
  5
12
330
11
100
AcDbDictionary
280
     1
281
     1
  3
BUMPTILE
360
14
  3
DIFFUSETILE
360
13
  3
OPACITYTILE
360
17
  3
REFLECTIONTILE
360
16
  3
REFRACTIONTILE
360
18
  3
SPECULARTILE
360
15
  0
DICTIONARY
  5
22
330
21
100
AcDbDictionary
280
     1
281
     1
  3
BUMPTILE
360
24
  3
DIFFUSETILE
360
23
  3
OPACITYTILE
360
27
  3
REFLECTIONTILE
360
26
  3
REFRACTIONTILE
360
28
  3
SPECULARTILE
360
25
  0
DICTIONARY
  5
A1
330
69
100
AcDbDictionary
280
     1
281
     1
  3
ACAD_XREC_ROUNDTRIP
360
A2
  0
DICTIONARY
  5
9E
330
65
100
AcDbDictionary
280
     1
281
     1
  3
ACAD_ROUNDTRIP_2008_TABLESTYLE_CELLSTYLEMAP
360
9F
  0
XRECORD
  5
A4
102
{ACAD_REACTORS
330
A3
102
}
330
A3
100
AcDbXrecord
280
     1
102
DISPLAYNAME
  1
Imperial24
102
FLAGS
 90
        0
  0
XRECORD
  5
1C
102
{ACAD_REACTORS
330
1A
102
}
330
1A
100
AcDbXrecord
280
     1
270
     1
271
     1
  0
XRECORD
  5
1B
102
{ACAD_REACTORS
330
1A
102
}
330
1A
100
AcDbXrecord
280
     1
270
     1
271
     1
  0
XRECORD
  5
1F
102
{ACAD_REACTORS
330
1A
102
}
330
1A
100
AcDbXrecord
280
     1
270
     1
271
     1
  0
XRECORD
  5
1E
102
{ACAD_REACTORS
330
1A
102
}
330
1A
100
AcDbXrecord
280
     1
270
     1
271
     1
  0
XRECORD
  5
20
102
{ACAD_REACTORS
330
1A
102
}
330
1A
100
AcDbXrecord
280
     1
270
     1
271
     1
  0
XRECORD
  5
1D
102
{ACAD_REACTORS
330
1A
102
}
330
1A
100
AcDbXrecord
280
     1
270
     1
271
     1
  0
XRECORD
  5
14
102
{ACAD_REACTORS
330
12
102
}
330
12
100
AcDbXrecord
280
     1
270
     1
271
     1
  0
XRECORD
  5
13
102
{ACAD_REACTORS
330
12
102
}
330
12
100
AcDbXrecord
280
     1
270
     1
271
     1
  0
XRECORD
  5
17
102
{ACAD_REACTORS
330
12
102
}
330
12
100
AcDbXrecord
280
     1
270
     1
271
     1
  0
XRECORD
  5
16
102
{ACAD_REACTORS
330
12
102
}
330
12
100
AcDbXrecord
280
     1
270
     1
271
     1
  0
XRECORD
  5
18
102
{ACAD_REACTORS
330
12
102
}
330
12
100
AcDbXrecord
280
     1
270
     1
271
     1
  0
XRECORD
  5
15
102
{ACAD_REACTORS
330
12
102
}
330
12
100
AcDbXrecord
280
     1
270
     1
271
     1
  0
XRECORD
  5
24
102
{ACAD_REACTORS
330
22
102
}
330
22
100
AcDbXrecord
280
     1
270
     1
271
     1
  0
XRECORD
  5
23
102
{ACAD_REACTORS
330
22
102
}
330
22
100
AcDbXrecord
280
     1
270
     1
271
     1
  0
XRECORD
  5
27
102
{ACAD_REACTORS
330
22
102
}
330
22
100
AcDbXrecord
280
     1
270
     1
271
     1
  0
XRECORD
  5
26
102
{ACAD_REACTORS
330
22
102
}
330
22
100
AcDbXrecord
280
     1
270
     1
271
     1
  0
XRECORD
  5
28
102
{ACAD_REACTORS
330
22
102
}
330
22
100
AcDbXrecord
280
     1
270
     1
271
     1
  0
XRECORD
  5
25
102
{ACAD_REACTORS
330
22
102
}
330
22
100
AcDbXrecord
280
     1
270
     1
271
     1
  0
XRECORD
  5
A2
102
{ACAD_REACTORS
330
A1
102
}
330
A1
100
AcDbXrecord
280
     1
102
DISPLAYNAME
  1
Imperial24
102
FLAGS
 90
        0
  0
CELLSTYLEMAP
  5
9F
102
{ACAD_REACTORS
330
9E
102
}
330
9E
100
AcDbCellStyleMap
 90
        3
300
CELLSTYLE
  1
TABLEFORMAT_BEGIN
 90
        5
170
     1
 91
        0
 92
    32768
 62
   257
 93
        1
300
CONTENTFORMAT
  1
CONTENTFORMAT_BEGIN
 90
        0
 91
        0
 92
      512
 93
        0
300

 40
0.0
140
1.0
 94
        5
 62
     0
340
55
144
0.25
309
CONTENTFORMAT_END
171
     0
 94
        0
309
TABLEFORMAT_END
  1
CELLSTYLE_BEGIN
 90
        1
 91
        1
300
_TITLE
309
CELLSTYLE_END
300
CELLSTYLE
  1
TABLEFORMAT_BEGIN
 90
        5
170
     1
 91
        0
 92
        0
 62
   257
 93
        1
300
CONTENTFORMAT
  1
CONTENTFORMAT_BEGIN
 90
        0
 91
        0
 92
      512
 93
        0
300

 40
0.0
140
1.0
 94
        5
 62
     0
340
55
144
0.18
309
CONTENTFORMAT_END
171
     0
 94
        0
309
TABLEFORMAT_END
  1
CELLSTYLE_BEGIN
 90
        2
 91
        1
300
_HEADER
309
CELLSTYLE_END
300
CELLSTYLE
  1
TABLEFORMAT_BEGIN
 90
        5
170
     1
 91
        0
 92
        0
 62
   257
 93
        1
300
CONTENTFORMAT
  1
CONTENTFORMAT_BEGIN
 90
        0
 91
        0
 92
      512
 93
        0
300

 40
0.0
140
1.0
 94
        2
 62
     0
340
55
144
0.18
309
CONTENTFORMAT_END
171
     0
 94
        0
309
TABLEFORMAT_END
  1
CELLSTYLE_BEGIN
 90
        3
 91
        2
300
_DATA
309
CELLSTYLE_END
  0
ENDSEC
  0
EOF
