<?xml version="1.0" encoding="utf-8"?>
<!-- Generator: Adobe Illustrator 25.4.8, SVG Export Plug-In . SVG Version: 6.00 Build 0)  -->
<svg version="1.1" id="Слой_1" xmlns="http://www.w3.org/2000/svg" xmlns:xlink="http://www.w3.org/1999/xlink" x="0px" y="0px"
	 viewBox="0 0 864 864" style="enable-background:new 0 0 864 864;" xml:space="preserve">
<g>
	<path d="M421.3,746.11c0-25.39,0.03-48.73-0.03-72.07c-0.01-4.07,3.12-5.35,5.74-7.08c13.9-9.19,27.76-18.45,41.82-27.39
		c4.09-2.6,5.69-5.58,5.76-10.44c0.62-43.02,1.51-86.03,2.27-129.05c0.15-8.7-0.18-8.87-7.51-4.61
		c-15.52,9.01-31.01,18.07-48.07,28.01c0-6.95,0-12.47,0-17.99c0-16.94,0.36-33.89-0.17-50.82c-0.23-7.38,1.61-12.13,8.77-14.99
		c4.08-1.63,10.66-3.29,10.77-7.16c0.12-4.1-6.57-5.41-10.53-7.16c-6.76-2.98-9.28-7.17-9.05-14.81c0.61-20.15,0.15-40.33,0.27-60.5
		c0.02-2.82-1.55-6.81,1.32-8.19c2.55-1.23,5.22,1.96,7.7,3.41c13.22,7.74,26.45,15.47,39.5,23.48c5.19,3.18,7.28,3.14,7.12-3.86
		c-0.98-43.82-1.76-87.64-2.41-131.47c-0.07-4.48-2.18-6.75-5.55-8.91c-14.27-9.11-28.44-18.38-42.68-27.56
		c-2.77-1.79-5.14-3.48-5.12-7.45c0.16-22.59,0.11-45.17,0.17-67.76c0-0.72,0.48-1.43,1.09-3.1c13.16,9.44,25.89,18.7,38.78,27.73
		c3.63,2.54,7.54,8.19,11.15,6.4c3.74-1.85,1.42-8.3,1.37-12.68c-0.31-29.31-0.72-58.62-1.44-87.92c-0.14-5.87,1.28-7.97,7.52-7.86
		c20.43,0.38,40.87,0.32,61.31,0.03c5.79-0.08,7.18,1.97,7.11,7.48c-0.4,30.92-0.47,61.85-0.56,92.77
		c-0.01,2.85-1.47,6.94,1.03,8.28c3.1,1.66,5.57-2.22,8.04-3.97c22.34-15.89,44.57-31.95,66.87-47.91c2.35-1.68,4.41-3.95,7.97-4.49
		c6.47,19.88,12.88,39.8,19.46,59.66c1.52,4.58-2,5.52-4.54,7.19c-30.58,20.03-61.11,40.14-91.85,59.93
		c-5.06,3.25-7.23,6.65-7.3,12.87c-0.46,42.48-1.39,84.96-2.12,127.44c-0.04,2.35-1.16,5.49,0.81,6.88c2.67,1.89,4.87-1.23,6.98-2.5
		c36.59-22.07,73.08-44.32,109.71-66.33c4.43-2.66,6.2-5.73,6.47-10.9c1.97-37.04,4.34-74.07,6.37-111.11
		c0.23-4.14,1.28-6.21,5.59-7.12c17.87-3.78,35.71-7.72,53.47-11.97c6.56-1.57,6.98,1.08,6.38,6.49
		c-3.13,28.58-6.01,57.19-8.87,85.8c-0.23,2.25-1.58,5.32,0.79,6.67c2.31,1.32,4.38-1.34,6.37-2.5
		c26.67-15.63,53.36-31.21,79.85-47.12c5.26-3.16,7.82-3.06,11.11,2.7c10.14,17.72,20.76,35.18,31.68,52.44
		c3.35,5.3,2.32,7.21-2.9,10.05c-27.62,15.03-54.99,30.49-82.44,45.83c-2.3,1.28-4.52,2.71-8.31,5c31.62,14,61.91,27.41,93.09,41.2
		c-14.24,16.49-27.94,32.25-41.49,48.14c-3.21,3.76-5.8,1.02-8.45-0.31c-32.66-16.4-65.37-32.72-97.84-49.49
		c-5.98-3.09-10.39-2.96-16.23,0.32c-36.56,20.51-73.36,40.59-110.07,60.83c-2.3,1.27-4.53,2.69-6.7,3.99
		c0.35,3.17,2.84,3.47,4.56,4.42c38.11,21.05,76.3,41.96,114.31,63.17c4.67,2.6,8.09,2.18,12.58-0.12
		c32.54-16.62,65.32-32.8,97.78-49.58c6.03-3.12,9.14-2.35,13.32,2.79c10.5,12.93,21.48,25.5,32.73,37.8
		c4.59,5.03,5.18,7.18-1.93,10.26c-25.64,11.11-50.99,22.87-76.44,34.4c-2.63,1.19-5.19,2.51-7.89,3.83
		c1.82,3.45,4.83,4.21,7.29,5.59c27.45,15.34,54.87,30.73,82.48,45.76c4.89,2.66,5.87,4.55,2.76,9.51
		c-10.99,17.53-21.71,35.24-32.06,53.16c-2.99,5.18-5.32,6.04-10.52,2.87c-26.38-16.1-52.96-31.88-79.49-47.73
		c-2.45-1.47-4.72-3.52-8.95-3.7c1.54,15.33,2.97,30.22,4.55,45.09c1.73,16.3,3.45,32.6,5.46,48.86c0.64,5.15-1.34,5.97-5.75,5.08
		c-18.44-3.71-36.87-7.44-55.37-10.83c-4.09-0.75-4.21-3.01-4.39-6.17c-2.12-37.31-4.45-74.6-6.39-111.91
		c-0.3-5.7-1.99-9.22-7.05-12.2c-36.56-21.6-72.93-43.51-109.4-65.26c-1.97-1.17-3.98-3.75-6.37-2.47
		c-2.49,1.33-1.23,4.39-1.19,6.68c0.72,43.02,1.61,86.03,2.16,129.05c0.07,5.28,1.98,8.19,6.23,10.99
		c30.76,20.24,61.29,40.84,92.09,61.03c5.2,3.41,6.32,6.38,4.09,12.36c-6,16.1-11.35,32.45-16.56,48.82
		c-1.78,5.6-3.74,5.58-8.08,2.42c-23.26-16.92-46.67-33.63-70.09-50.34c-1.88-1.34-3.74-4.11-6.13-3.05
		c-2.55,1.13-1.29,4.3-1.28,6.54c0.08,31.19,0.11,62.39,0.55,93.58c0.09,6.07-1.08,8.53-7.81,8.39c-20.16-0.43-40.34-0.38-60.5-0.02
		c-6.08,0.11-7.79-1.73-7.64-7.75c0.75-31.18,1.13-62.37,1.52-93.56c0.03-2.47,1.53-5.96-1.45-7.24c-2.25-0.96-4.2,1.82-6.12,3.17
		C451.79,724.47,437.36,734.73,421.3,746.11z"/>
	<path d="M0.2,648.97c0-10.75,0.39-21.52-0.15-32.24c-0.31-6.26,2.26-8.92,7.76-11.06c49.44-19.28,98.58-17.93,147.79,0.97
		c27.4,10.52,53.21,24.34,79.53,37.12c26.42,12.83,53.32,24,82.98,27.14c22.1,2.34,43.42-0.9,64.26-7.72
		c6.13-2.01,7.23-0.7,7.16,5.26c-0.26,22.3-0.35,44.61,0.06,66.9c0.11,5.96-2.05,8.39-7.36,10.25
		c-36.16,12.73-72.08,12.57-108.02-0.88c-28.24-10.57-54.72-24.89-81.78-37.99c-27.66-13.38-55.98-24.6-86.62-29.25
		c-33.49-5.08-65.88-0.94-97.27,11.18c-7.03,2.71-8.76,1.48-8.46-5.85C0.55,671.56,0.2,660.26,0.2,648.97z"/>
	<path d="M0.2,150.52c0-11.02,0.46-22.07-0.17-33.05c-0.38-6.69,2.39-9.31,8.21-11.55c46.64-17.98,93.33-17.99,140.3-1.43
		c27.46,9.68,53.18,23.11,79.16,36.01c26.27,13.04,52.83,25.26,82.22,29.72c24.38,3.7,48.26,1.71,71.5-6.45
		c6.26-2.2,8.29-1.51,8.15,5.69c-0.41,22.04-0.36,44.09,0,66.12c0.09,5.8-1.73,8.36-7.21,10.34
		c-39.95,14.43-79.08,11.78-117.84-4.47c-29.27-12.27-57.04-27.65-85.88-40.8c-34.61-15.78-70.4-26.4-108.98-24.63
		c-21.66,0.99-42.6,5.51-62.69,13.6c-5.19,2.09-7.07,1.73-6.88-4.42C0.45,173.65,0.2,162.08,0.2,150.52z"/>
	<path d="M0.2,321.48c0-11.02,0.35-22.06-0.14-33.06c-0.26-5.86,1.93-8.4,7.24-10.51c54.7-21.82,108.26-17.06,161.35,5.9
		c26.16,11.31,51.21,24.9,76.99,36.97c31.79,14.89,64.47,25.43,100.28,22.16c12.92-1.18,25.53-3.71,37.69-8.19
		c4.63-1.71,5.96-0.73,5.92,4.28c-0.21,23.39-0.31,46.78,0.07,70.17c0.09,5.6-3.05,6.65-6.94,8.08
		c-35.76,13.12-71.43,13.03-107.22-0.13c-25.55-9.39-49.59-21.99-73.92-33.97c-29.72-14.64-59.86-27.93-92.95-33.25
		c-34.27-5.51-67.46-1.68-99.81,10.55c-8.48,3.21-8.52,3.15-8.54-5.92C0.19,343.53,0.2,332.51,0.2,321.48z"/>
	<path d="M0.2,483.08c0-11.02,0.37-22.06-0.14-33.06c-0.29-6.25,2.21-8.82,7.78-11c46.58-18.23,93.25-18.29,140.27-1.79
		c30.28,10.63,58.4,25.9,87.14,39.84c17.18,8.33,34.57,16.05,52.99,21.35c30.84,8.87,61.48,8.57,92.07-1.13
		c9.08-2.88,9.12-2.79,9.12,7.05c0,20.97-0.39,41.95,0.21,62.9c0.21,7.43-2.64,10.04-9.13,12.28
		c-40.15,13.87-79.21,10.59-117.82-5.96c-24.96-10.7-48.98-23.32-73.45-35.04c-29.22-13.99-59.23-25.18-91.77-28.79
		c-30.91-3.43-60.59,1.33-89.29,12.41c-7.69,2.97-8.31,0.63-8.08-6C0.48,505.14,0.2,494.11,0.2,483.08z"/>
</g>
</svg>
