<?xml version="1.0" encoding="utf-8"?>
<!-- Generator: Adobe Illustrator 25.4.8, SVG Export Plug-In . SVG Version: 6.00 Build 0)  -->
<svg version="1.1" id="Слой_1" xmlns="http://www.w3.org/2000/svg" xmlns:xlink="http://www.w3.org/1999/xlink" x="0px" y="0px"
	 viewBox="0 0 864 864" style="enable-background:new 0 0 864 864;" xml:space="preserve">
<g>
	<path d="M27.75,328.2c18.47,0.06,36.93,0.13,55.4,0.17c0.88,0,2.14,0.27,2.33-0.98c0.19-1.2-0.99-1.83-1.73-2.57
		c-14.58-14.6-29.17-29.18-43.76-43.76c-7.47-7.47-7.48-7.47-0.09-14.83c8.79-8.76,17.67-17.42,26.32-26.3
		c2.3-2.36,3.55-2.47,5.97-0.04c28.13,28.31,56.42,56.46,84.56,84.76c2.67,2.69,5.34,3.86,9.18,3.84
		c29.26-0.15,58.51-0.09,87.77-0.08c5.47,0,5.42,0,4.53,5.26c-2.35,13.94-2.54,27.9,0.29,41.78c0.74,3.64-0.35,4.41-3.75,4.4
		c-29.8-0.09-59.59,0-89.39-0.12c-3.39-0.01-5.77,1.04-8.14,3.42c-28.25,28.38-56.63,56.63-84.85,85.04
		c-2.48,2.49-3.76,2.72-6.3,0.11c-10.17-10.42-20.53-20.66-30.96-30.82c-2.18-2.12-2.15-3.34-0.01-5.46
		c16.08-15.95,32.05-32.01,48.02-48.08c0.95-0.96,2.96-1.74,2.12-3.45c-0.65-1.32-2.46-0.66-3.74-0.66
		c-17.93,0.03-35.85,0.11-53.78,0.17C27.75,362.72,27.75,345.46,27.75,328.2z"/>
	<path d="M747.83,339.12c0,62.17,0.04,124.33-0.08,186.5c-0.01,4.37,1.25,6.91,5.09,9.39c44.56,28.84,72.42,69.33,80.99,121.76
		c15.92,97.34-48.43,185.05-140.06,203.58c-94.28,19.06-185.8-38.1-208.75-131.54c-14.99-61-0.02-115.45,41.15-162.72
		c9.6-11.03,20.59-20.61,32.86-28.59c3.01-1.96,3.9-4.12,3.9-7.58c-0.08-123.25-0.07-246.5-0.07-369.76
		c0-47.02,32.46-85.74,78.95-92.76c48.3-7.29,93.72,24.09,104.11,72.03c1.52,7.02,1.93,14.13,1.93,21.28
		C747.83,220.18,747.83,279.65,747.83,339.12z M699.22,387.68c0-63.91,0.04-127.81-0.05-191.72c-0.01-8.6-0.4-17.21-2.06-25.73
		c-4.21-21.53-15.26-33.34-35.22-36.06c-16.61-2.26-34.21,4.01-42.23,23.29c-4.69,11.29-6.2,23.14-6.21,35.16
		c-0.08,129.97-0.08,259.94,0.05,389.92c0,4.52-1.1,6.72-5.59,8.45c-14.36,5.53-27.4,13.43-37.56,25.2
		c-22.4,25.95-29.33,56.38-23.01,89.44c11.46,59.95,69.2,99.68,128.97,89.54c63.8-10.82,106.39-73.29,91.08-135.89
		c-8.43-34.45-28.6-59-62.81-70.62c-4.34-1.47-5.44-3.39-5.44-7.65C699.26,516.57,699.22,452.13,699.22,387.68z"/>
	<path d="M287.35,354.05c0.08-52.73,42.53-95.43,95.15-95.01c55.62,0.44,95.14,45.47,94.88,95.36
		c-0.27,52.51-42.81,95.22-95.44,94.8C327.45,448.75,286.99,404.76,287.35,354.05z"/>
	<path d="M189.91,581.25c-6.27,6.2-12.39,12.23-18.5,18.28c-6.71,6.64-13.45,13.25-20.06,19.98c-1.69,1.72-2.71,1.92-4.51,0.07
		c-10.53-10.82-21.13-21.58-31.84-32.23c-2.05-2.04-1.88-3.21,0.1-5.14c11.88-11.58,23.64-23.27,35.41-34.95
		c0.91-0.91,2.66-1.75,2.15-3.13c-0.64-1.72-2.6-0.89-3.96-0.9c-22.38-0.08-44.77-0.15-67.15-0.04c-3.41,0.02-4.31-1.03-4.27-4.37
		c0.19-14.29,0.24-28.59,0.02-42.88c-0.06-3.99,1.24-4.9,5.03-4.87c39.77,0.38,79.54,0.54,119.3,0.9c3.4,0.03,5.75-1.04,8.12-3.41
		c21.3-21.22,42.74-42.31,64.04-63.52c2.22-2.21,3.31-2.6,5.3,0.34c8.3,12.3,18.62,22.71,30.82,31.17c2.68,1.86,2.96,2.93,0.53,5.31
		c-20.86,20.52-41.54,41.22-62.44,61.69c-3.59,3.52-5.39,6.97-5.35,12.24c0.2,33.31,0.02,66.61-0.08,99.92
		c-0.02,6.06-0.34,12.12-0.36,18.18c-0.01,2.63-1.06,3.53-3.63,3.51c-14.83-0.1-29.66-0.18-44.5-0.05
		c-3.53,0.03-3.46-1.88-3.45-4.36c0.07-22.79,0.09-45.58,0.11-68.37C190.74,583.72,191.1,582.74,189.91,581.25z"/>
	<path d="M190.74,126.56c0-8.54,0.01-16.97,0-25.4c-0.02-15.37,0.02-30.74-0.14-46.11c-0.03-3.12,0.79-4.22,4.07-4.19
		c14.29,0.13,28.58,0.12,42.87-0.14c3.92-0.07,4.65,1.45,4.72,4.95c0.7,39.63,0.31,79.27,0.47,118.91c0.01,3.53,1.09,5.97,3.61,8.44
		c21.46,21.06,42.76,42.28,64.17,63.38c2.04,2.02,2.61,3.06-0.26,5.04c-12.33,8.49-22.76,18.99-31.14,31.4
		c-1.98,2.94-3.07,2.53-5.3,0.3c-21.39-21.32-42.92-42.5-64.33-63.8c-2.15-2.14-4.29-3.17-7.41-3.15c-27.64,0.21-55.28,0-82.91,0.45
		c-12.13,0.2-24.25,0.15-36.38,0.36c-5.36,0.09-5.36,0.01-5.37-5.16c-0.02-14.16,0.08-28.32-0.12-42.47
		c-0.05-3.48,1.12-4.31,4.38-4.3c22.38,0.07,44.76-0.03,67.14-0.1c1.29,0,3.11,0.65,3.75-0.63c0.85-1.68-1.14-2.5-2.1-3.46
		c-11.66-11.61-23.31-23.22-35.12-34.67c-2.31-2.24-2.24-3.51,0.01-5.73c10.46-10.32,20.82-20.75,31.05-31.3
		c2.17-2.24,3.32-2.04,5.4,0.05c11.6,11.66,23.33,23.19,35.06,34.73C187.84,124.95,188.59,126.38,190.74,126.56z"/>
	<path d="M356.49,180.93c0-14.7-0.09-29.4,0.07-44.09c0.04-3.27-1.09-5.51-3.34-7.75c-28.38-28.25-56.64-56.63-85.08-84.82
		c-2.67-2.64-2.35-3.88,0.09-6.27c10.4-10.19,20.66-20.52,30.83-30.94c2.13-2.18,3.34-2.1,5.46,0.04
		c15.93,16.1,31.99,32.08,48.03,48.07c0.89,0.89,1.65,2.67,3.12,2.1c1.51-0.58,0.79-2.38,0.79-3.63c0.04-16.45,0.12-32.9-0.04-49.35
		c-0.03-3.43,1.1-4.33,4.4-4.29c14.02,0.15,28.04,0.06,42.07,0.07c5.23,0,5.24,0.01,5.25,5.49c0.01,15.91-0.01,31.82,0.03,47.73
		c0,1.41-0.66,3.47,0.88,4.05c1.48,0.55,2.4-1.41,3.41-2.41c15.85-15.8,31.72-31.58,47.45-47.5c2.3-2.33,3.58-2.61,6.01-0.11
		c10.14,10.45,20.44,20.75,30.85,30.93c2.31,2.26,2.21,3.49-0.03,5.71c-28.2,28.05-56.26,56.24-84.51,84.24
		c-3.07,3.04-4.17,6.11-4.15,10.31c0.14,28.85,0.07,57.71,0.07,86.56c0,5.85-0.02,5.9-5.62,5c-14.23-2.29-28.43-2.39-42.57,0.55
		c-3.41,0.71-3.47-1.12-3.47-3.56C356.52,211.67,356.49,196.3,356.49,180.93z"/>
	<path d="M447.24,687.14c-1.74-0.27-2.4-1.56-3.3-2.46c-10.61-10.55-21.17-21.15-31.78-31.71c-0.91-0.91-1.75-2.65-3.14-2.12
		c-1.42,0.54-0.86,2.38-0.87,3.67c-0.03,16.18-0.15,32.36,0.07,48.53c0.05,4.14-1.24,5.26-5.3,5.19
		c-13.75-0.24-27.5-0.09-41.25-0.09c-5.17,0-5.18-0.01-5.18-5.38c0-16.04,0.01-32.08-0.03-48.13c0-1.26,0.71-3.04-0.71-3.69
		c-1.5-0.69-2.25,1.11-3.14,1.99c-15.86,15.79-31.76,31.54-47.43,47.51c-2.84,2.9-4.29,2.6-6.93-0.11
		c-9.76-10.06-19.67-19.99-29.75-29.73c-2.9-2.8-2.54-4.36,0.14-7.02c28.22-28.02,56.28-56.2,84.48-84.24
		c2.38-2.37,3.44-4.72,3.43-8.12c-0.12-29.79-0.02-59.59-0.14-89.38c-0.02-3.81,0.69-4.76,4.77-3.97
		c14.01,2.71,28.16,2.69,42.17,0.01c4.17-0.8,4.83,0.43,4.82,4.08c-0.09,28.04,0.19,56.08-0.21,84.12
		c-0.1,7.08,1.9,12.03,7.04,16.86c12.17,11.45,23.73,23.55,35.6,35.31c1.79,1.77,2.46,3.29,1.79,5.97
		c-3.89,15.62-5.12,31.58-5.55,47.62C446.71,676.92,447.74,681.97,447.24,687.14z"/>
	<path d="M522.32,92.35c0-12.4,0.1-24.81-0.07-37.21c-0.04-3.32,0.95-4.44,4.34-4.39c14.02,0.2,28.04,0.1,42.06,0.24
		c1.76,0.02,4.59-1.27,5,1.76c0.4,3.02,1.22,6.24-2.78,8.33c-8.44,4.4-15.67,10.46-21.87,17.7c-11.29,13.18-17.44,28.6-19.93,45.63
		c-1.22,8.3-1.35,16.63-1.34,24.99c0.03,30.87-0.03,61.75,0.07,92.62c0.01,3.23-0.95,5.52-3.26,7.77
		c-11.4,11.1-22.69,22.3-33.87,33.62c-2.2,2.23-3.19,2.28-5.02-0.42c-8.48-12.51-18.97-23.11-31.42-31.69
		c-2.51-1.73-2.39-2.66-0.32-4.7c21.73-21.36,43.34-42.83,65.03-64.22c1.72-1.69,2.75-3.34,2.74-5.92
		c-0.09-28.03-0.06-56.07-0.06-84.1C521.86,92.35,522.09,92.35,522.32,92.35z"/>
	<path d="M527.73,487.71c0,7.14-0.13,14.28,0.06,21.42c0.08,3.13-0.74,5.4-3.45,7.11c-2.94,1.85-5.11,6.15-8.26,5.95
		c-3.12-0.19-5.19-4.32-7.67-6.76c-17.93-17.69-35.78-35.47-53.77-53.11c-2.48-2.43-3-3.67,0.29-5.93
		c12.21-8.41,22.41-18.93,30.74-31.19c1.63-2.39,2.58-2.67,4.73-0.52c11.69,11.74,23.5,23.36,35.35,34.95
		c1.63,1.59,2,3.34,1.99,5.44C527.7,472.62,527.73,480.17,527.73,487.71z"/>
	<path d="M527.73,354.09c0,7.27-0.09,14.54,0.04,21.81c0.05,2.92-0.9,4.14-3.94,4.03c-5.11-0.17-10.23-0.11-15.34-0.03
		c-2.34,0.04-2.97-0.68-2.52-3.11c2.76-15.09,2.75-30.23-0.04-45.31c-0.54-2.94,0.68-3.14,2.91-3.11c4.98,0.07,9.97,0.16,14.94-0.03
		c2.98-0.11,4.05,0.94,3.99,3.94C527.63,339.55,527.73,346.82,527.73,354.09z"/>
	<path d="M683.14,281.6c0,32.5,0,64.99,0,97.49c0,5.75-0.02,5.76-5.85,5.76c-14.43,0.01-28.85-0.09-43.28,0.07
		c-3.59,0.04-4.88-0.88-4.87-4.75c0.12-62.03,0.05-124.05,0.12-186.08c0.01-9.43,0.62-18.85,3.8-27.89
		c4.26-12.09,11.09-16.7,24.53-16.57c11.35,0.11,18.31,5.55,22.18,17.05c2.88,8.57,3.35,17.42,3.36,26.32
		C683.16,222.54,683.14,252.07,683.14,281.6z"/>
	<path d="M741.91,680.11c-0.03,28.72-10.39,53.53-28.93,75.1c-8.15,9.48-25.21,9.45-33.7,0.23c-4.18-4.54-4.34-9.68-0.34-14.99
		c2.11-2.79,4.47-5.39,6.55-8.2c13.42-18.12,19.45-38.43,18.04-60.97c-0.62-9.94,4.24-15.25,14.24-16.07
		c3.24-0.26,6.49-0.31,9.65,0.4c9.7,2.2,14.26,7.94,14.48,18.03C741.95,675.8,741.91,677.96,741.91,680.11z"/>
</g>
</svg>
