<?xml version="1.0" encoding="utf-8"?>
<!-- Generator: Adobe Illustrator 25.4.8, SVG Export Plug-In . SVG Version: 6.00 Build 0)  -->
<svg version="1.1" id="Слой_1" xmlns="http://www.w3.org/2000/svg" xmlns:xlink="http://www.w3.org/1999/xlink" x="0px" y="0px"
	 viewBox="0 0 864 864" style="enable-background:new 0 0 864 864;" xml:space="preserve">
<g>
	<path d="M332,228.51c-11.12-6.72-22.24-13.44-33.36-20.14c-6.45-3.89-12.96-7.69-19.37-11.65c-4.72-2.92-8.59-6.62-9.55-12.45
		c-2.08-12.64,9.39-22.36,21.41-17.86c10.15,3.8,18.8,10.44,28.04,15.92c29.95,17.77,59.74,35.8,89.57,53.76
		c1.84,1.11,3.48,2.59,5.36,3.6c2.18,1.17,3,4.97,5.5,4.27c1.82-0.51,2.95-3.43,4.4-5.27c8.66-10.95,18.46-20.75,29.62-29.13
		c2.29-1.72,2.99-2.5,0.36-4.97c-6.8-6.38-9.88-15.28-14.31-23.22c-18.26-32.73-36.33-65.57-54.51-98.34
		c-1.51-2.72-2.67-5.49-3.07-8.57c-0.92-7.08,2.42-13.55,8.55-16.66c6.27-3.18,13.82-1.88,18.91,3.25c1.92,1.93,3.36,4.18,4.68,6.56
		c21.01,37.98,42.05,75.94,63.09,113.9c1.84,3.32,2.88,6.93,3.89,10.89c13.44-5.91,27.11-10.77,41.53-13.3
		c3.35-0.59,7.96,0.38,9.66-2.11c1.22-1.78-1.09-5.92-1.69-9.03c-0.23-1.22-0.13-2.52-0.09-3.78c1.26-40.74,1.9-81.49,2.23-122.24
		c0.03-3.97,0.23-7.92,1.19-11.77c1.82-7.3,8.5-12.45,15.85-12.36c7.52,0.09,13.77,5.17,15.51,12.67c1.74,7.5,0.78,15.09,0.66,22.63
		c-0.59,35.52-1.3,71.03-1.88,106.55c-0.08,4.7,0.06,9.44-1.56,13.87c-1.23,3.37,0.42,3.64,2.92,3.82
		c16.33,1.12,31.97,5.15,47.08,11.31c2.68,1.09,3.92,0.9,4.32-2.19c0.45-3.44,2.2-6.4,3.98-9.35
		c21.32-35.34,42.58-70.72,63.91-106.06c5.25-8.69,12.39-12.05,20.14-9.72c11.18,3.36,14.93,14.93,8.16,26.36
		c-13.27,22.38-26.78,44.61-40.2,66.9c-8.06,13.38-16.12,26.75-24.21,40.11c-0.92,1.53-1.73,3.34-3.09,4.35
		c-5.31,3.95-2.93,5.96,1.27,8.91c13.83,9.7,25.34,21.87,35.69,35.62c3.39-4.92,8.17-7.63,13.04-10.31
		c34.08-18.8,68.11-37.68,102.16-56.53c3.48-1.93,7.04-3.59,11.15-3.68c6.88-0.15,12.82,3.6,15.4,9.8
		c2.65,6.35,1.08,13.65-4.16,18.25c-1.87,1.64-4,3.06-6.18,4.27c-35.13,19.49-70.3,38.93-105.44,58.4
		c-3.49,1.93-7.23,3.1-11.44,4.08c8.42,18.24,13.88,37.17,15.46,57.41c5.83-2.14,11.52-2.11,17.29-2
		c38.77,0.7,77.55,0.23,116.31,1.46c12.87,0.41,20.99,10.99,16.66,22.12c-2.56,6.57-8.23,10.33-16.18,10.36
		c-27.95,0.09-55.9,0.1-83.85-0.84c-11.89-0.4-23.81-0.23-35.71-0.18c-4,0.02-7.99-0.02-11.69-1.53c-2.49-1.02-3.1-0.25-3.35,2.07
		c-1.97,17.89-7.01,34.91-14.62,51.2c-0.58,1.25-1.51,2.53,0.91,3.22c13,3.72,23.47,12.25,34.92,18.85
		c25.03,14.42,49.75,29.39,74.57,44.18c2.47,1.47,4.93,3.01,7.14,4.83c6.47,5.33,7.98,14.04,3.83,20.94
		c-4.19,6.96-12.44,9.89-20.23,6.44c-10.19-4.52-19.35-10.96-28.93-16.61c-26.12-15.4-52.15-30.97-78.27-46.37
		c-3.79-2.23-6.96-5.02-9.86-8.73c-12.25,15.65-26.2,29.27-42.93,39.84c9.96,11.15,15.5,24.56,22.64,36.94
		c14.97,25.94,29.41,52.18,44.05,78.31c6.58,11.73,2.71,23.5-8.72,26.61c-7.57,2.06-14.99-1.5-19.67-9.79
		c-10.31-18.27-20.48-36.62-30.74-54.91c-7.08-12.62-14.23-25.19-21.88-38.71c-3.97,18.95-10.18,35.85-19.99,51.32
		c-11.18,17.62-25.39,32.27-42.92,43.59c-2.78,1.79-3.76,3.65-3.78,6.91c-0.06,8.98,0.9,18.03-0.95,26.95
		c-1.69,8.14-8,13.36-16.01,13.29c-7.78-0.06-13.7-5.25-15.68-13.09c-1.34-5.31-0.21-10.72-1.21-16.48
		c-23.15,7.5-46.85,6.02-70.42,6.07c-37.7,0.07-75.4,0.01-113.1,0.05c-2.08,0-4.3-0.65-6.64,0.92c4.25,7.13,8.53,14.17,12.66,21.3
		c12.36,21.31,22.56,43.5,26.88,67.97c3.57,20.24,2.59,40.2-4.53,59.67c-7.89,21.59-28.75,35.36-51.76,34.15
		c-19.1-1.01-34.52-8.55-44.23-25.58c-6.75-11.85-5.54-24.72-3.42-37.44c2.37-14.2,7.92-27.38,15.16-39.67
		c14.49-24.59,25.11-51.04,37.59-76.58c2.24-4.59,0.69-4.84-3.34-4.83c-56.82,0.09-113.64,0.38-170.45-0.02
		c-62.06-0.44-108.35-27.99-134.77-84.37C-26,463.19,25.58,364.23,116.54,346.69c2.48-0.48,5.01-1.26,7.47-1.1
		c6.77,0.44,8.98-2.68,10.94-9.14c19.21-63.37,61.55-101.37,126.86-112.92c21.94-3.88,43.85-1.81,65.31,4.36
		c1.52,0.44,3.03,0.9,4.55,1.35C331.77,228.99,331.88,228.75,332,228.51z M313.22,598.99c0,0.08,0,0.16,0,0.24
		c54.11,0,108.21,0.03,162.32-0.03c8.1-0.01,16.2-0.14,24.26-1.42c53.84-8.57,92.43-53.03,94.09-108.56
		c1.56-52.12-36.43-99.47-88.72-110.31c-21.42-4.44-43.16-1.52-64.74-2.3c-1.65-0.06-2.36,0.74-3.19,2.2
		c-4.59,8.11-11.04,11.34-18.54,9.61c-7.65-1.77-12.24-8.07-12.62-17.35c-2.83-69.85-64.71-123.5-134.3-116.42
		c-84.39,8.59-134.74,99.03-97.63,175.27c4.37,8.97,10.01,17.05,15.97,25c4.28,5.72,4.51,12.12,0.68,18.23
		c-3.58,5.71-9.02,8.14-15.71,7.37c-5.39-0.62-9.09-3.94-12.29-8.07c-20.5-26.44-31.69-56.32-32.99-89.79
		c-0.15-3.93-0.97-5.39-5.29-4.62c-56.4,10.11-95.67,60.85-91.7,118.67c3.83,55.89,50.85,101.19,107.81,102.06
		C198.15,599.67,255.69,598.99,313.22,598.99z M620.8,446.86c0.99-0.51,1.67-0.76,2.24-1.16c42.45-30.28,62.3-71.67,56.21-123.27
		c-8.71-73.78-76.32-123.12-149.61-111.21c-49.88,8.11-91.54,46.68-103.47,95.74c-0.79,3.25-0.78,6.26,0.6,9.45
		c3.22,7.44,5.93,15.1,7.61,23.03c0.74,3.48,2.24,4.6,5.81,4.56c15.15-0.17,30.31-0.48,45.45,0.06
		c50.86,1.81,90.23,24.37,118.47,66.55C611.56,421.72,616.55,434.04,620.8,446.86z M330.89,695.4c-9,18.01-19.88,33.92-26.58,52.03
		c-1.82,4.92-3.11,9.98-3.73,15.14c-0.58,4.79-1.28,9.91,2.18,13.97c5.37,6.31,12.69,7.05,20.27,5.89
		c6.81-1.04,12.15-4.44,14.59-11.25C346.91,745.29,341.69,720.67,330.89,695.4z M391.23,264.76c3.53,3.81,6.01,6.54,8.57,9.21
		c0.64,0.67,1.36,2.27,2.44,1.05c1.01-1.14,1.49-2.8,2.05-4.29c0.47-1.26-0.66-1.5-1.46-1.62
		C399.17,268.56,395.97,266.65,391.23,264.76z"/>
	<path d="M440.23,654c19.52,31.67,39.18,62.55,45.38,99.6c3.34,19.94,2,39.47-4.84,58.57c-7.63,21.34-29.8,35.57-52.53,33.87
		c-18.62-1.4-33.76-8.77-43.27-25.37c-7.08-12.36-5.6-25.79-3.3-39.01c2.09-11.98,6.48-23.32,12.54-33.78
		c16.56-28.57,29.24-59.01,43.42-88.73C438.33,657.69,439.08,656.27,440.23,654z M443.21,725.78
		c-8.18,15.97-17.17,30.08-23.99,45.37c-2.8,6.28-5.19,12.74-5.99,19.55c-0.68,5.76-2.22,11.93,2.4,17
		c8.16,8.96,30.13,7.48,34.93-7.59C458.69,774.56,453.58,750.76,443.21,725.78z"/>
	<path d="M197.05,644.64c2.67,4.37,4.98,8.15,7.29,11.94c12.69,20.75,24.94,41.71,32.45,65.06c8.68,26.96,10.57,53.97,0.7,81.04
		c-8.38,23-31.75,36.88-56.12,33.7c-17.29-2.26-31.15-9.89-39.82-25.39c-6.65-11.87-5.45-24.71-3.36-37.42
		c2.07-12.55,6.58-24.42,12.92-35.33c16.49-28.39,29.04-58.67,43.17-88.19C195.04,648.48,195.87,646.95,197.05,644.64z
		 M199.93,716.46c-8.7,17.28-19.02,32.77-25.9,50.07c-2.14,5.38-3.65,10.95-4.37,16.68c-0.61,4.81-1.39,9.95,1.89,14.07
		c4.84,6.07,11.76,7.53,19.03,6.57c7.31-0.97,13.43-4.18,16.12-11.74C215.95,766.15,210.65,741.51,199.93,716.46z"/>
</g>
</svg>
