<?xml version="1.0" encoding="utf-8"?>
<!-- Generator: Adobe Illustrator 25.4.8, SVG Export Plug-In . SVG Version: 6.00 Build 0)  -->
<svg version="1.1" id="Слой_1" xmlns="http://www.w3.org/2000/svg" xmlns:xlink="http://www.w3.org/1999/xlink" x="0px" y="0px"
	 viewBox="0 0 864 864" style="enable-background:new 0 0 864 864;" xml:space="preserve">
<path d="M438.82,0.51c8.3,80.89,16.59,161.79,25.46,248.23c42.3-47.32,81.54-91.22,120.79-135.12c1.26,0.63,2.51,1.26,3.77,1.89
	c-13.89,52.76-27.79,105.52-41.68,158.28c0.98,0.83,1.95,1.66,2.93,2.49c61.86-50.27,123.72-100.54,185.58-150.81
	c1.16,1.05,2.33,2.11,3.49,3.16c-49.76,63.48-99.52,126.97-151.33,193.07c50.68-0.18,97.23-9.49,147.76-8.36
	c-13.41,15.44-28.36,23.9-41.29,34.54c-19.05,15.66-38.87,30.37-58.27,45.61c-3.04,2.38-8.36,4.22-7.42,8.63
	c1.26,5.9,7.36,3.99,11.61,4.45c71.23,7.71,142.46,15.33,213.69,23.02c3.29,0.36,6.54,1.13,9.81,1.71c0.09,1.45,0.19,2.9,0.28,4.35
	c-79.35,9.91-158.7,19.82-242.57,30.3c45.44,39.61,86.99,75.83,128.53,112.05c-0.74,1.38-1.49,2.77-2.23,4.15
	c-27.1-6.2-54.21-12.32-81.28-18.64c-18.44-4.31-36.8-8.96-55.21-13.37c-4.38-1.05-9.9-3.68-13,0.33
	c-4.35,5.61,2.12,9.33,4.99,12.93c44.35,55.61,88.92,111.06,133.43,166.55c1.75,2.18,3.38,4.47,5.06,6.71
	c-0.98,1.17-1.96,2.35-2.95,3.52c-62.89-50.09-125.79-100.18-192.31-153.16c10.06,56.09,19.38,108.07,28.7,160.05
	c-1.42,0.8-2.84,1.61-4.26,2.41c-34.44-41.87-68.88-83.73-106.15-129.04c-9.12,84.11-17.72,163.44-26.32,242.76
	c-1.75,0.09-3.5,0.18-5.26,0.27c-9.73-79.4-19.47-158.8-29.82-243.29c-39.05,52.36-75.04,100.61-111.02,148.85
	c-1.33-0.66-2.67-1.32-4-1.98c11.57-57.9,23.13-115.81,34.7-173.71c-1.18-0.59-2.36-1.17-3.54-1.76
	C257.67,641,195.85,690.4,134.03,739.81c-1.26-1.24-2.53-2.47-3.79-3.71c48.95-62.28,97.91-124.57,149.35-190.02
	c-28.1-3.31-52.1,3.27-76.21,3.57c-10.7,0.13-26.98,7.05-30.71-0.64c-5.14-10.62,10.45-18,17.88-25.99
	c14.84-15.97,30.53-31.13,45.81-46.7c2.75-2.81,7.25-5.49,6.2-9.72c-1.44-5.81-7.46-4.12-11.7-4.61
	c-67.75-7.93-135.51-15.76-203.28-23.55c-7.88-0.91-15.91-0.96-27.57-7.37c82.92-8.96,161.57-17.46,240.23-25.96
	c0.73-1.16,1.47-2.32,2.2-3.48c-44.16-28.17-88.32-56.34-132.48-84.51c29.41-5.41,57.39-0.02,85.48,1.6
	c21.16,1.22,42.24,3.7,63.39,5.16c4.72,0.33,11.35,2.73,13.76-3.45c1.84-4.71-3.19-8.1-5.99-11.59
	C224.97,256.91,183.32,205,141.7,153.07c-5.17-6.45-10.17-13.02-15.25-19.54c1.09-1.05,2.19-2.11,3.28-3.16
	c19.67,15.25,39.43,30.39,59,45.77c39.24,30.84,78.36,61.85,117.61,92.68c3.82,3,7.65,9.3,12.98,5.48c4.39-3.14,2.24-9.71,1.6-14.69
	c-4.77-36.96-9.77-73.89-14.7-110.83c-0.74-5.52-3.41-11.07,0.24-16.71c6.59-0.67,8.53,4.98,11.56,8.72
	c24.55,30.31,48.92,60.76,73.44,91.1c3.13,3.87,5.63,10.49,11.41,8.93c6.06-1.64,4.15-8.61,4.71-13.5
	c8.15-71.19,16.19-142.38,24.41-213.56c0.52-4.49,2.24-8.85,3.4-13.26C436.53,0.51,437.67,0.51,438.82,0.51z"/>
</svg>
