<?xml version="1.0" encoding="utf-8"?>
<!-- Generator: Adobe Illustrator 25.4.8, SVG Export Plug-In . SVG Version: 6.00 Build 0)  -->
<svg version="1.1" id="Слой_1" xmlns="http://www.w3.org/2000/svg" xmlns:xlink="http://www.w3.org/1999/xlink" x="0px" y="0px"
	 viewBox="0 0 864 864" style="enable-background:new 0 0 864 864;" xml:space="preserve">
<g>
	<path d="M197.39,431.18c0.42-132.51,103.69-235.13,235.8-234.32c128.68,0.79,235.93,109.58,234.85,238.23
		c-1.1,130.73-105.89,232.59-238.8,232.12C295.33,666.73,196.97,566.6,197.39,431.18z M226.55,435.24
		c0.29,3.12-0.72,18.67,3.59,32.57c5.96,19.21,7.15,49.28,37.81,42.26c29.7-6.8,15.75-31.35,12.24-50.46
		c-14.31-78.04,18.1-142.76,84.68-170.71c27.15-11.39,55.3-12.79,83.93-9.66c16.77,1.83,31.46-1.46,33.93-20.02
		c2.52-18.93-12.08-25.4-27.97-28.1c-11.97-2.03-24.09-4.96-36.09-4.7C312.3,228.68,226.65,316.82,226.55,435.24z"/>
	<path d="M626.91,829.38c0.93,17.96-3.19,27.85-14.97,31.57c-14.16,4.47-28.11,2.04-34.49-12.68
		c-15.49-35.75-29.32-72.22-44.33-108.19c-7.22-17.29,4.69-21.42,16.52-24.79c9.86-2.81,21.81-18.68,30.12,0.27
		C597.03,754.9,612.73,794.93,626.91,829.38z"/>
	<path d="M863.22,264.98c-3.42,11.87-10.99,20.51-23.31,25.46c-31.45,12.63-62.84,25.4-94.05,38.61
		c-17.15,7.26-26.42,3.74-33.8-14.96c-6.76-17.13-7.46-27.51,11.44-34.79c32.9-12.67,65.14-27.14,98.36-38.87
		C843.81,232.67,864.42,245.92,863.22,264.98z"/>
	<path d="M620.49,39.95c-13.9,32.81-29.33,70.43-45.8,107.59c-8.22,18.55-21.05,4.67-31.01,1.8c-11.48-3.31-24.43-8.28-17.02-25.38
		c15.64-36.09,30.92-72.34,47.17-108.15c5.67-12.49,17.1-17.97,30.55-13.98C620.73,6.67,622.31,20.23,620.49,39.95z"/>
	<path d="M863.95,601.29c-6.17,16.94-18.13,28.97-38.93,20.93c-35.15-13.59-69.32-29.69-104.31-43.72
		c-13.87-5.56-15.38-13.25-8.25-24.54c6.34-10.03,3.51-33.23,22.14-26.56c40.42,14.48,79.28,33.43,118.36,51.44
		C860.1,582.13,864.53,590.07,863.95,601.29z"/>
	<path d="M237.44,41.65c-1.04-23.01,3.44-33.77,16.84-38.44c14.37-5.01,24.52,3.24,29.59,14.62
		c15.93,35.72,30.05,72.23,45.41,108.21c7.55,17.69-5.73,21.03-16.75,25.44c-10.46,4.19-23.44,15.09-31.01-2.3
		C264.86,110.9,249.76,71.93,237.44,41.65z"/>
	<path d="M337.04,741.76c-15.9,34.48-33.28,74.14-52.63,112.82c-5.36,10.71-18.96,9.95-29.71,6.89
		c-12.48-3.55-18.38-14.9-14.36-25.55c14.79-39.26,30.99-78.03,47.91-116.44c6.39-14.5,18.05-7.18,27.83-2.61
		C325.08,721.08,339,719.99,337.04,741.76z"/>
	<path d="M38.12,244.38c31.38,13.24,67.64,27.96,103.38,43.87c18.42,8.2,9.24,21.4,4.72,34.22c-5.03,14.3-13.01,20.26-27.46,14.1
		c-34.76-14.82-69.53-29.64-104-45.11c-15.12-6.78-17.37-20.07-12.36-34.21C7.51,242.83,20.1,242.64,38.12,244.38z"/>
	<path d="M37.32,627.59c-20.75-0.23-31.91-3.58-34.78-18.53c-2.58-13.42,1.53-24.34,14.62-29.89
		c35.94-15.23,72.05-30.05,108.11-44.99c14.78-6.13,18.78,4.07,22.63,14.84c3.84,10.76,16.35,25.2,2.11,32.02
		C111.3,599.55,70.69,614.09,37.32,627.59z"/>
	<path d="M771.42,445.99c-14.11-2.65-33.1,6.13-33.05-18.76c0.05-25.07,19.02-17.14,31.87-17.59c15.39-0.54,36.61-3.56,35.2,20.24
		C804.18,451.16,783.39,443.1,771.42,445.99z"/>
	<path d="M671.92,164.51c15.65-0.87,22.2,3.38,20.42,13.5c-3.76,21.39-18.95,34.98-37.56,42.04c-7.62,2.89-19.9-9.61-18.13-17.37
		C641.36,182,659.85,172.64,671.92,164.51z"/>
	<path d="M700.58,677.99c-0.13,11.85-1.04,21.7-12.28,19.26c-22.3-4.85-37.43-20.45-44.43-41.09c-1.97-5.82,10.39-19.35,18.96-16.67
		C682.44,645.62,695.88,660.3,700.58,677.99z"/>
	<path d="M455.54,772.25c-0.63,14.84,1.52,33.37-20.16,32.81c-20-0.51-15.96-18.58-15.89-31.38c0.07-13.93-4.99-32.67,19.31-31.81
		C460.39,742.63,454.07,759.81,455.54,772.25z"/>
	<path d="M187.16,706.16c-15.39-3.75-17.47-13.32-15.16-22.84c4.4-18.11,16.53-32.23,34.32-35.56c8.89-1.67,23.41,9.1,18.22,20.9
		C217.06,685.69,201.41,697.42,187.16,706.16z"/>
	<path d="M441.01,93c-3.98,11.67,7.8,33.65-17.21,32.36c-20.74-1.07-13.15-20.31-13.23-31.95c-0.09-13.07-6.66-34.56,16.32-33.54
		C445.81,60.71,438.53,80.32,441.01,93z"/>
	<path d="M218.36,207.14c-4.16,11.57-12.12,23.65-18.94,20.79c-17.14-7.2-32.36-19.77-35.37-40.39
		c-1.32-9.05,3.54-16.68,13.93-14.68C198.3,176.77,207.26,193.92,218.36,207.14z"/>
	<path d="M89.69,454.99c-12.1-2.6-31.43,4.62-30.16-16.96c1.12-19.21,19.36-15.69,31.97-15.9c12.66-0.21,30.73-3.29,29.78,17.45
		C120.29,460.78,101.46,452.12,89.69,454.99z"/>
</g>
</svg>
