<?xml version="1.0" encoding="utf-8"?>
<!-- Generator: Adobe Illustrator 25.4.8, SVG Export Plug-In . SVG Version: 6.00 Build 0)  -->
<svg version="1.1" id="Слой_1" xmlns="http://www.w3.org/2000/svg" xmlns:xlink="http://www.w3.org/1999/xlink" x="0px" y="0px"
	 viewBox="0 0 864 864" style="enable-background:new 0 0 864 864;" xml:space="preserve">
<g>
	<path d="M567.75,283.41c4.41,12.59-5.79,19.08-11.37,26.74C439.44,470.59,322.35,630.93,204.9,791
		c-10.22,13.93-21.73,27.61-35.04,38.46c-40.97,33.42-100.9,29.68-138.08-7.08c-37.5-37.07-42.22-96.53-8.74-137.92
		c12.95-16.01,29.6-29.59,46.3-41.92c155.5-114.85,311.3-229.29,467.32-343.44C545.76,292.42,553.76,281.75,567.75,283.41z"/>
	<path d="M628.62,23.11C560.7,115.07,493.5,207.59,424.46,298.71c-24.6,32.46-58.54,40.65-89.96,10.77
		c-30.88-29.36-27.62-64.64,5.28-90.03c91.53-70.63,184.99-138.74,277.69-207.85C621.19,15.44,624.91,19.28,628.62,23.11z"/>
	<path d="M864,453.57c-71.07,95.39-140.83,191.82-213.97,285.6c-24.02,30.8-59.54,30.52-86.57,1.76
		c-27.41-29.16-22.56-62.91,7.72-86.86c62.75-49.62,127.8-96.36,192.11-144c30.1-22.3,60.68-43.94,91.05-65.88
		C857.56,447.32,860.78,450.45,864,453.57z"/>
	<path d="M221.99,234.27c-46.34,62.93-92.29,126.15-139.2,188.66c-18.32,24.41-43.23,32.4-67.32,10.45
		C-9.38,410.73-2.17,385.02,22,366.49c63.12-48.42,127.48-95.21,191.34-142.65C216.22,227.31,219.11,230.79,221.99,234.27z"/>
	<path d="M421.47,722.53c-25.72,34.98-51.03,70.27-77.34,104.8c-12.93,16.97-28.72,36.32-50.42,13.06
		c-17.99-19.28-3.75-35.32,12.74-47.65c35.78-26.76,71.95-53.01,107.96-79.47C416.75,716.35,419.11,719.44,421.47,722.53z"/>
	<path d="M772.46,266.27c-26.58,36.01-52.83,72.28-79.89,107.94c-13.06,17.22-30.15,26.55-47.78,7.34
		c-16.03-17.47-4.19-32.65,10.48-43.85c35.74-27.28,72.22-53.6,108.4-80.3C766.6,260.35,769.53,263.31,772.46,266.27z"/>
</g>
</svg>
