<?xml version="1.0" encoding="utf-8"?>
<!-- Generator: Adobe Illustrator 25.4.8, SVG Export Plug-In . SVG Version: 6.00 Build 0)  -->
<svg version="1.1" id="Слой_1" xmlns="http://www.w3.org/2000/svg" xmlns:xlink="http://www.w3.org/1999/xlink" x="0px" y="0px"
	 viewBox="0 0 864 864" style="enable-background:new 0 0 864 864;" xml:space="preserve">
<path d="M418.15,0C528.71,4.01,625.5,13.33,717.63,50.1c38.46,15.35,74.84,34.16,103.9,64.44c46.02,47.95,47.55,103.53,0.18,149.9
	c-13.08,12.81-28.71,26.02-36.09,43.24c-7.16,16.69-2.8,34.24-8.72,49.53c-7.3,18.88-26.6,37.24-35.52,56.8
	c-9.63,21.11-16.8,43.31-23.22,65.57c-22.95,79.56-32.64,159.3-39.64,241.47c-4.76,55.82-27.15,118.91-84.96,139.63
	c-17.48,6.26-36.86,2.6-54.73-2.42c-120.22-33.75-243.29-125.4-308.69-231.89c-13.93-22.68-26.36-47.08-46.54-64.44
	c-21.07-18.14-46.38-28.3-60.51-53.47c-14.73-26.24-13.63-58.59-27.95-85.13c-22.16-41.05-66.47-69.45-45.56-125.19
	c5.95-15.85-3.32-24.91-11.7-36.19C-8.71,199.25-2.26,146.88,59.41,98.11c66.64-52.71,146.71-72.45,228.18-85.58
	C334.76,4.92,382.89,3.22,418.15,0z M808.73,190.55c-1.42-21.75-14.76-39.13-32.34-53.67c-30.85-25.51-67.02-41.02-104.7-52.97
	C553.55,46.45,432.59,43.7,310.86,57.75c-66.55,7.68-131.38,23.64-190.76,56.43c-24.13,13.32-46.3,28.9-59.8,54.47
	c-12.65,23.96-2.5,42.38,11.53,61.05c17.81,23.7,32.48,5.72,47.96-2.8c68.98-37.96,144.48-53.48,221.58-58.75
	c132.98-9.08,263.94-1.63,382.45,69.84C760.58,260.15,806.31,236.54,808.73,190.55z M138.43,276.78
	c62.24,22.77,116.87,48.22,178.96,38.73c66.63-10.19,132.97-11,199.35,0.67c63.36,11.14,121.32-6.63,179.76-30.28
	C622.11,198.27,257.55,187.99,138.43,276.78z M637.97,407.73c-36.06-23.92-69.85-39.52-109.21-34.29
	c-68.47,9.09-136.68,7.61-204.96-1.17c-47.72-6.14-89.68,7.99-130.16,35.53C292.27,458.64,518.82,459.44,637.97,407.73z
	 M280.12,538.54c41.7,14.19,279.02,3.11,308.06-14.39C502.42,476.12,348.09,483.33,280.12,538.54z M605.46,616.17
	c-56.86-25.44-242.27-13.89-275.9,15.51C422.08,656.98,508.62,654.92,605.46,616.17z M185.37,347.4
	c-25.52-10.75-45.62-19.65-66.08-27.61c-7.11-2.77-15.25-11.39-22.67-2.67c-7.23,8.48-5.18,19.39-1.58,29.24
	C109.84,386.88,136.83,388.46,185.37,347.4z M151.08,452.84c34.62,71.95,62.59,78.39,100.08,29.02
	C219.89,472.8,189.69,464.04,151.08,452.84z M654.67,352.75c47.14,38.33,62.16,33.28,73.9-24.35
	C704.63,336.29,682.54,343.57,654.67,352.75z"/>
</svg>
