  0
SECTION
  2
HEADER
  9
$ACADVER
  1
AC1027
  9
$ACADMAINTVER
 70
   125
  9
$DWGCODEPAGE
  3
ANSI_1251
  9
$REQUIREDVERSIONS
160
                 0
  9
$INSBASE
 10
0.0
 20
0.0
 30
0.0
  9
$EXTMIN
 10
1.000000000000000E+20
 20
1.000000000000000E+20
 30
1.000000000000000E+20
  9
$EXTMAX
 10
-1.000000000000000E+20
 20
-1.000000000000000E+20
 30
-1.000000000000000E+20
  9
$LIMMIN
 10
0.0
 20
0.0
  9
$LIMMAX
 10
12.0
 20
9.0
  9
$ORTHOMODE
 70
     0
  9
$REGENMODE
 70
     1
  9
$FILLMODE
 70
     1
  9
$QTEXTMODE
 70
     0
  9
$MIRRTEXT
 70
     0
  9
$LTSCALE
 40
1.0
  9
$ATTMODE
 70
     1
  9
$TEXTSIZE
 40
0.2
  9
$TRACEWID
 40
0.05
  9
$TEXTSTYLE
  7
Standard
  9
$CLAYER
  8
0
  9
$CELTYPE
  6
ByLayer
  9
$CECOLOR
 62
   256
  9
$CELTSCALE
 40
1.0
  9
$DISPSILH
 70
     0
  9
$DIMSCALE
 40
1.0
  9
$DIMASZ
 40
0.18
  9
$DIMEXO
 40
0.0625
  9
$DIMDLI
 40
0.38
  9
$DIMRND
 40
0.0
  9
$DIMDLE
 40
0.0
  9
$DIMEXE
 40
0.18
  9
$DIMTP
 40
0.0
  9
$DIMTM
 40
0.0
  9
$DIMTXT
 40
0.18
  9
$DIMCEN
 40
0.09
  9
$DIMTSZ
 40
0.0
  9
$DIMTOL
 70
     0
  9
$DIMLIM
 70
     0
  9
$DIMTIH
 70
     1
  9
$DIMTOH
 70
     1
  9
$DIMSE1
 70
     0
  9
$DIMSE2
 70
     0
  9
$DIMTAD
 70
     0
  9
$DIMZIN
 70
     0
  9
$DIMBLK
  1

  9
$DIMASO
 70
     1
  9
$DIMSHO
 70
     1
  9
$DIMPOST
  1

  9
$DIMAPOST
  1

  9
$DIMALT
 70
     0
  9
$DIMALTD
 70
     2
  9
$DIMALTF
 40
25.4
  9
$DIMLFAC
 40
1.0
  9
$DIMTOFL
 70
     0
  9
$DIMTVP
 40
0.0
  9
$DIMTIX
 70
     0
  9
$DIMSOXD
 70
     0
  9
$DIMSAH
 70
     0
  9
$DIMBLK1
  1

  9
$DIMBLK2
  1

  9
$DIMSTYLE
  2
Standard
  9
$DIMCLRD
 70
     0
  9
$DIMCLRE
 70
     0
  9
$DIMCLRT
 70
     0
  9
$DIMTFAC
 40
1.0
  9
$DIMGAP
 40
0.09
  9
$DIMJUST
 70
     0
  9
$DIMSD1
 70
     0
  9
$DIMSD2
 70
     0
  9
$DIMTOLJ
 70
     1
  9
$DIMTZIN
 70
     0
  9
$DIMALTZ
 70
     0
  9
$DIMALTTZ
 70
     0
  9
$DIMUPT
 70
     0
  9
$DIMDEC
 70
     4
  9
$DIMTDEC
 70
     4
  9
$DIMALTU
 70
     2
  9
$DIMALTTD
 70
     2
  9
$DIMTXSTY
  7
Standard
  9
$DIMAUNIT
 70
     0
  9
$DIMADEC
 70
     0
  9
$DIMALTRND
 40
0.0
  9
$DIMAZIN
 70
     0
  9
$DIMDSEP
 70
    46
  9
$DIMATFIT
 70
     3
  9
$DIMFRAC
 70
     0
  9
$DIMLDRBLK
  1

  9
$DIMLUNIT
 70
     2
  9
$DIMLWD
 70
    -2
  9
$DIMLWE
 70
    -2
  9
$DIMTMOVE
 70
     0
  9
$DIMFXL
 40
1.0
  9
$DIMFXLON
 70
     0
  9
$DIMJOGANG
 40
0.7853981633974483
  9
$DIMTFILL
 70
     0
  9
$DIMTFILLCLR
 70
     0
  9
$DIMARCSYM
 70
     0
  9
$DIMLTYPE
  6

  9
$DIMLTEX1
  6

  9
$DIMLTEX2
  6

  9
$DIMTXTDIRECTION
 70
     0
  9
$LUNITS
 70
     2
  9
$LUPREC
 70
     4
  9
$SKETCHINC
 40
0.1
  9
$FILLETRAD
 40
0.0
  9
$AUNITS
 70
     0
  9
$AUPREC
 70
     0
  9
$MENU
  1
.
  9
$ELEVATION
 40
0.0
  9
$PELEVATION
 40
0.0
  9
$THICKNESS
 40
0.0
  9
$LIMCHECK
 70
     0
  9
$CHAMFERA
 40
0.0
  9
$CHAMFERB
 40
0.0
  9
$CHAMFERC
 40
0.0
  9
$CHAMFERD
 40
0.0
  9
$SKPOLY
 70
     0
  9
$TDCREATE
 40
2459954.680046296
  9
$TDUCREATE
 40
2459954.596712963
  9
$TDUPDATE
 40
2459954.680046296
  9
$TDUUPDATE
 40
2459954.596712963
  9
$TDINDWG
 40
0.0000000000
  9
$TDUSRTIMER
 40
0.0000000000
  9
$USRTIMER
 70
     1
  9
$ANGBASE
 50
0.0
  9
$ANGDIR
 70
     0
  9
$PDMODE
 70
     0
  9
$PDSIZE
 40
0.0
  9
$PLINEWID
 40
0.0
  9
$SPLFRAME
 70
     0
  9
$SPLINETYPE
 70
     6
  9
$SPLINESEGS
 70
     8
  9
$HANDSEED
  5
90
  9
$SURFTAB1
 70
     6
  9
$SURFTAB2
 70
     6
  9
$SURFTYPE
 70
     6
  9
$SURFU
 70
     6
  9
$SURFV
 70
     6
  9
$UCSBASE
  2

  9
$UCSNAME
  2

  9
$UCSORG
 10
0.0
 20
0.0
 30
0.0
  9
$UCSXDIR
 10
1.0
 20
0.0
 30
0.0
  9
$UCSYDIR
 10
0.0
 20
1.0
 30
0.0
  9
$UCSORTHOREF
  2

  9
$UCSORTHOVIEW
 70
     0
  9
$UCSORGTOP
 10
0.0
 20
0.0
 30
0.0
  9
$UCSORGBOTTOM
 10
0.0
 20
0.0
 30
0.0
  9
$UCSORGLEFT
 10
0.0
 20
0.0
 30
0.0
  9
$UCSORGRIGHT
 10
0.0
 20
0.0
 30
0.0
  9
$UCSORGFRONT
 10
0.0
 20
0.0
 30
0.0
  9
$UCSORGBACK
 10
0.0
 20
0.0
 30
0.0
  9
$PUCSBASE
  2

  9
$PUCSNAME
  2

  9
$PUCSORG
 10
0.0
 20
0.0
 30
0.0
  9
$PUCSXDIR
 10
1.0
 20
0.0
 30
0.0
  9
$PUCSYDIR
 10
0.0
 20
1.0
 30
0.0
  9
$PUCSORTHOREF
  2

  9
$PUCSORTHOVIEW
 70
     0
  9
$PUCSORGTOP
 10
0.0
 20
0.0
 30
0.0
  9
$PUCSORGBOTTOM
 10
0.0
 20
0.0
 30
0.0
  9
$PUCSORGLEFT
 10
0.0
 20
0.0
 30
0.0
  9
$PUCSORGRIGHT
 10
0.0
 20
0.0
 30
0.0
  9
$PUCSORGFRONT
 10
0.0
 20
0.0
 30
0.0
  9
$PUCSORGBACK
 10
0.0
 20
0.0
 30
0.0
  9
$USERI1
 70
     0
  9
$USERI2
 70
     0
  9
$USERI3
 70
     0
  9
$USERI4
 70
     0
  9
$USERI5
 70
     0
  9
$USERR1
 40
0.0
  9
$USERR2
 40
0.0
  9
$USERR3
 40
0.0
  9
$USERR4
 40
0.0
  9
$USERR5
 40
0.0
  9
$WORLDVIEW
 70
     1
  9
$SHADEDGE
 70
     3
  9
$SHADEDIF
 70
    70
  9
$TILEMODE
 70
     1
  9
$MAXACTVP
 70
    64
  9
$PINSBASE
 10
0.0
 20
0.0
 30
0.0
  9
$PLIMCHECK
 70
     0
  9
$PEXTMIN
 10
1.000000000000000E+20
 20
1.000000000000000E+20
 30
1.000000000000000E+20
  9
$PEXTMAX
 10
-1.000000000000000E+20
 20
-1.000000000000000E+20
 30
-1.000000000000000E+20
  9
$PLIMMIN
 10
0.0
 20
0.0
  9
$PLIMMAX
 10
12.0
 20
9.0
  9
$UNITMODE
 70
     0
  9
$VISRETAIN
 70
     1
  9
$PLINEGEN
 70
     0
  9
$PSLTSCALE
 70
     1
  9
$TREEDEPTH
 70
  3020
  9
$CMLSTYLE
  2
Standard
  9
$CMLJUST
 70
     0
  9
$CMLSCALE
 40
1.0
  9
$PROXYGRAPHICS
 70
     1
  9
$MEASUREMENT
 70
     0
  9
$CELWEIGHT
370
    -1
  9
$ENDCAPS
280
     0
  9
$JOINSTYLE
280
     0
  9
$LWDISPLAY
290
     1
  9
$INSUNITS
 70
     1
  9
$HYPERLINKBASE
  1

  9
$STYLESHEET
  1

  9
$XEDIT
290
     1
  9
$CEPSNTYPE
380
     0
  9
$PSTYLEMODE
290
     1
  9
$FINGERPRINTGUID
  2
{905C8C0B-54DA-8748-924A-71BFCC020ACE}
  9
$VERSIONGUID
  2
{330323FE-DFCE-D043-8F52-0029B7FE77C6}
  9
$EXTNAMES
290
     1
  9
$PSVPSCALE
 40
0.0
  9
$OLESTARTUP
290
     0
  9
$SORTENTS
280
   127
  9
$INDEXCTL
280
     0
  9
$HIDETEXT
280
     1
  9
$XCLIPFRAME
280
     2
  9
$HALOGAP
280
     0
  9
$OBSCOLOR
 70
   257
  9
$OBSLTYPE
280
     0
  9
$INTERSECTIONDISPLAY
280
     0
  9
$INTERSECTIONCOLOR
 70
   257
  9
$DIMASSOC
280
     2
  9
$PROJECTNAME
  1

  9
$CAMERADISPLAY
290
     0
  9
$LENSLENGTH
 40
50.0
  9
$CAMERAHEIGHT
 40
0.0
  9
$STEPSPERSEC
 40
2.0
  9
$STEPSIZE
 40
6.0
  9
$3DDWFPREC
 40
2.0
  9
$PSOLWIDTH
 40
0.25
  9
$PSOLHEIGHT
 40
4.0
  9
$LOFTANG1
 40
1.570796326794896
  9
$LOFTANG2
 40
1.570796326794896
  9
$LOFTMAG1
 40
0.0
  9
$LOFTMAG2
 40
0.0
  9
$LOFTPARAM
 70
     7
  9
$LOFTNORMALS
280
     1
  9
$LATITUDE
 40
37.795
  9
$LONGITUDE
 40
-122.394
  9
$NORTHDIRECTION
 40
0.0
  9
$TIMEZONE
 70
 -8000
  9
$LIGHTGLYPHDISPLAY
280
     1
  9
$TILEMODELIGHTSYNCH
280
     1
  9
$CMATERIAL
347
11
  9
$SOLIDHIST
280
     0
  9
$SHOWHIST
280
     1
  9
$DWFFRAME
280
     2
  9
$DGNFRAME
280
     0
  9
$REALWORLDSCALE
290
     1
  9
$INTERFERECOLOR
 62
     1
  9
$INTERFEREOBJVS
345
33
  9
$INTERFEREVPVS
346
30
  9
$CSHADOW
280
     0
  9
$SHADOWPLANELOCATION
 40
0.0
  0
ENDSEC
  0
SECTION
  2
CLASSES
  0
CLASS
  1
ACDBDICTIONARYWDFLT
  2
AcDbDictionaryWithDefault
  3
ObjectDBX Classes
 90
        0
 91
        1
280
     0
281
     0
  0
CLASS
  1
MATERIAL
  2
AcDbMaterial
  3
ObjectDBX Classes
 90
     1153
 91
        3
280
     0
281
     0
  0
CLASS
  1
VISUALSTYLE
  2
AcDbVisualStyle
  3
ObjectDBX Classes
 90
     4095
 91
       24
280
     0
281
     0
  0
CLASS
  1
SCALE
  2
AcDbScale
  3
ObjectDBX Classes
 90
     1153
 91
       17
280
     0
281
     0
  0
CLASS
  1
TABLESTYLE
  2
AcDbTableStyle
  3
ObjectDBX Classes
 90
     4095
 91
        1
280
     0
281
     0
  0
CLASS
  1
MLEADERSTYLE
  2
AcDbMLeaderStyle
  3
ACDB_MLEADERSTYLE_CLASS
 90
     4095
 91
        1
280
     0
281
     0
  0
CLASS
  1
ACDBSECTIONVIEWSTYLE
  2
AcDbSectionViewStyle
  3
ObjectDBX Classes
 90
     1025
 91
        1
280
     0
281
     0
  0
CLASS
  1
ACDBDETAILVIEWSTYLE
  2
AcDbDetailViewStyle
  3
ObjectDBX Classes
 90
     1025
 91
        1
280
     0
281
     0
  0
CLASS
  1
DICTIONARYVAR
  2
AcDbDictionaryVar
  3
ObjectDBX Classes
 90
        0
 91
        5
280
     0
281
     0
  0
CLASS
  1
CELLSTYLEMAP
  2
AcDbCellStyleMap
  3
ObjectDBX Classes
 90
     1152
 91
        1
280
     0
281
     0
  0
ENDSEC
  0
SECTION
  2
TABLES
  0
TABLE
  2
VPORT
  5
8
330
0
100
AcDbSymbolTable
 70
     1
1001
ACAD
1000
DbSaveVer
1071
      278
  0
VPORT
  5
57
330
8
100
AcDbSymbolTableRecord
100
AcDbViewportTableRecord
  2
*Active
 70
     0
 10
0.0
 20
0.0
 11
1.0
 21
1.0
 12
0.0
 22
0.0
 13
0.0
 23
0.0
 14
1.0
 24
1.0
 15
0.0
 25
0.0
 16
0.0
 26
0.0
 36
1.0
 17
35.55555555555555
 27
-50.33333333333333
 37
0.0
 40
12.24
 41
0.9999999999999996
 42
50.0
 43
0.0
 44
0.0
 50
0.0
 51
0.0
 71
     0
 72
   100
 73
     1
 74
     1
 75
     0
 76
     0
 77
     0
 78
     0
281
     0
 65
     1
110
0.0
120
0.0
130
0.0
111
1.0
121
0.0
131
0.0
112
0.0
122
1.0
132
0.0
 79
     0
146
0.0
 60
     3
 61
     5
292
     1
282
     1
141
0.0
142
0.0
 63
   250
421
  3355443
  0
ENDTAB
  0
TABLE
  2
LTYPE
  5
5
330
0
100
AcDbSymbolTable
 70
     1
  0
LTYPE
  5
5B
330
5
100
AcDbSymbolTableRecord
100
AcDbLinetypeTableRecord
  2
ByBlock
 70
     0
  3

 72
    65
 73
     0
 40
0.0
  0
LTYPE
  5
5C
330
5
100
AcDbSymbolTableRecord
100
AcDbLinetypeTableRecord
  2
ByLayer
 70
     0
  3

 72
    65
 73
     0
 40
0.0
  0
LTYPE
  5
5D
330
5
100
AcDbSymbolTableRecord
100
AcDbLinetypeTableRecord
  2
Continuous
 70
     0
  3
Solid line
 72
    65
 73
     0
 40
0.0
  0
ENDTAB
  0
TABLE
  2
LAYER
  5
2
330
0
100
AcDbSymbolTable
 70
     2
  0
LAYER
  5
54
330
2
100
AcDbSymbolTableRecord
100
AcDbLayerTableRecord
  2
0
 70
     0
 62
     7
  6
Continuous
370
    -3
390
F
347
21
348
0
  0
LAYER
  5
78
330
2
100
AcDbSymbolTableRecord
100
AcDbLayerTableRecord
  2
Слой 1
 70
     0
 62
     7
  6
Continuous
370
     0
390
F
347
21
348
0
  0
ENDTAB
  0
TABLE
  2
STYLE
  5
3
330
0
100
AcDbSymbolTable
 70
     2
  0
STYLE
  5
55
330
3
100
AcDbSymbolTableRecord
100
AcDbTextStyleTableRecord
  2
Standard
 70
     0
 40
0.0
 41
1.0
 50
0.0
 71
     0
 42
0.2
  3
txt
  4

  0
STYLE
  5
5A
330
3
100
AcDbSymbolTableRecord
100
AcDbTextStyleTableRecord
  2
Annotative
 70
     0
 40
0.0
 41
1.0
 50
0.0
 71
     0
 42
0.2
  3
txt
  4

1001
AcadAnnotative
1000
AnnotativeData
1002
{
1070
     1
1070
     1
1002
}
  0
ENDTAB
  0
TABLE
  2
VIEW
  5
6
330
0
100
AcDbSymbolTable
 70
     0
  0
ENDTAB
  0
TABLE
  2
UCS
  5
7
330
0
100
AcDbSymbolTable
 70
     0
  0
ENDTAB
  0
TABLE
  2
APPID
  5
9
330
0
100
AcDbSymbolTable
 70
     2
  0
APPID
  5
56
330
9
100
AcDbSymbolTableRecord
100
AcDbRegAppTableRecord
  2
ACAD
 70
     0
  0
APPID
  5
5E
330
9
100
AcDbSymbolTableRecord
100
AcDbRegAppTableRecord
  2
AcadAnnotative
 70
     0
  0
ENDTAB
  0
TABLE
  2
DIMSTYLE
  5
A
330
0
100
AcDbSymbolTable
 70
     2
100
AcDbDimStyleTable
 71
     0
  0
DIMSTYLE
105
58
330
A
100
AcDbSymbolTableRecord
100
AcDbDimStyleTableRecord
  2
Standard
 70
     0
340
55
  0
DIMSTYLE
105
59
330
A
100
AcDbSymbolTableRecord
100
AcDbDimStyleTableRecord
  2
Annotative
 70
     0
340
55
1001
AcadAnnotative
1000
AnnotativeData
1002
{
1070
     1
1070
     1
1002
}
  0
ENDTAB
  0
TABLE
  2
BLOCK_RECORD
  5
1
330
0
100
AcDbSymbolTable
 70
     2
  0
BLOCK_RECORD
  5
70
330
1
100
AcDbSymbolTableRecord
100
AcDbBlockTableRecord
  2
*Model_Space
340
73
 70
     0
280
     1
281
     0
  0
BLOCK_RECORD
  5
6C
330
1
100
AcDbSymbolTableRecord
100
AcDbBlockTableRecord
  2
*Paper_Space
340
6F
 70
     0
280
     1
281
     0
  0
BLOCK_RECORD
  5
74
330
1
100
AcDbSymbolTableRecord
100
AcDbBlockTableRecord
  2
*Paper_Space0
340
77
 70
     0
280
     1
281
     0
  0
BLOCK_RECORD
  5
79
330
1
100
AcDbSymbolTableRecord
100
AcDbBlockTableRecord
  2
Block_0
340
0
102
{BLKREFS
331
7A
102
}
 70
     0
280
     1
281
     0
  0
ENDTAB
  0
ENDSEC
  0
SECTION
  2
BLOCKS
  0
BLOCK
  5
71
330
70
100
AcDbEntity
  8
0
100
AcDbBlockBegin
  2
*Model_Space
 70
     0
 10
0.0
 20
0.0
 30
0.0
  3
*Model_Space
  1

  0
ENDBLK
  5
72
330
70
100
AcDbEntity
  8
0
100
AcDbBlockEnd
  0
BLOCK
  5
6D
330
6C
100
AcDbEntity
 67
     1
  8
0
100
AcDbBlockBegin
  2
*Paper_Space
 70
     0
 10
0.0
 20
0.0
 30
0.0
  3
*Paper_Space
  1

  0
ENDBLK
  5
6E
330
6C
100
AcDbEntity
 67
     1
  8
0
100
AcDbBlockEnd
  0
BLOCK
  5
75
330
74
100
AcDbEntity
 67
     1
  8
0
100
AcDbBlockBegin
  2
*Paper_Space0
 70
     0
 10
0.0
 20
0.0
 30
0.0
  3
*Paper_Space0
  1

  0
ENDBLK
  5
76
330
74
100
AcDbEntity
 67
     1
  8
0
100
AcDbBlockEnd
  0
BLOCK
  5
7B
330
79
100
AcDbEntity
  8
0
100
AcDbBlockBegin
  2
Block_0
 70
     0
 10
0.0
 20
0.0
 30
0.0
  3
Block_0
  1

  0
SPLINE
  5
7D
330
79
100
AcDbEntity
  8
Слой 1
100
AcDbSpline
210
0.0
220
0.0
230
1.0
 70
     9
 71
     3
 72
   260
 73
   256
 74
     0
 42
0.0000000001
 43
0.0000000001
 40
0.0
 40
0.0
 40
0.0
 40
0.0
 40
1.0
 40
1.0
 40
1.0
 40
2.0
 40
2.0
 40
2.0
 40
3.0
 40
3.0
 40
3.0
 40
4.0
 40
4.0
 40
4.0
 40
5.0
 40
5.0
 40
5.0
 40
6.0
 40
6.0
 40
6.0
 40
7.0
 40
7.0
 40
7.0
 40
8.0
 40
8.0
 40
8.0
 40
9.0
 40
9.0
 40
9.0
 40
10.0
 40
10.0
 40
10.0
 40
11.0
 40
11.0
 40
11.0
 40
12.0
 40
12.0
 40
12.0
 40
13.0
 40
13.0
 40
13.0
 40
14.0
 40
14.0
 40
14.0
 40
15.0
 40
15.0
 40
15.0
 40
16.0
 40
16.0
 40
16.0
 40
17.0
 40
17.0
 40
17.0
 40
18.0
 40
18.0
 40
18.0
 40
19.0
 40
19.0
 40
19.0
 40
20.0
 40
20.0
 40
20.0
 40
21.0
 40
21.0
 40
21.0
 40
22.0
 40
22.0
 40
22.0
 40
23.0
 40
23.0
 40
23.0
 40
24.0
 40
24.0
 40
24.0
 40
25.0
 40
25.0
 40
25.0
 40
26.0
 40
26.0
 40
26.0
 40
27.0
 40
27.0
 40
27.0
 40
28.0
 40
28.0
 40
28.0
 40
29.0
 40
29.0
 40
29.0
 40
30.0
 40
30.0
 40
30.0
 40
31.0
 40
31.0
 40
31.0
 40
32.0
 40
32.0
 40
32.0
 40
33.0
 40
33.0
 40
33.0
 40
34.0
 40
34.0
 40
34.0
 40
35.0
 40
35.0
 40
35.0
 40
36.0
 40
36.0
 40
36.0
 40
37.0
 40
37.0
 40
37.0
 40
38.0
 40
38.0
 40
38.0
 40
39.0
 40
39.0
 40
39.0
 40
40.0
 40
40.0
 40
40.0
 40
41.0
 40
41.0
 40
41.0
 40
42.0
 40
42.0
 40
42.0
 40
43.0
 40
43.0
 40
43.0
 40
44.0
 40
44.0
 40
44.0
 40
45.0
 40
45.0
 40
45.0
 40
46.0
 40
46.0
 40
46.0
 40
47.0
 40
47.0
 40
47.0
 40
48.0
 40
48.0
 40
48.0
 40
49.0
 40
49.0
 40
49.0
 40
50.0
 40
50.0
 40
50.0
 40
51.0
 40
51.0
 40
51.0
 40
52.0
 40
52.0
 40
52.0
 40
53.0
 40
53.0
 40
53.0
 40
54.0
 40
54.0
 40
54.0
 40
55.0
 40
55.0
 40
55.0
 40
56.0
 40
56.0
 40
56.0
 40
57.0
 40
57.0
 40
57.0
 40
58.0
 40
58.0
 40
58.0
 40
59.0
 40
59.0
 40
59.0
 40
60.0
 40
60.0
 40
60.0
 40
61.0
 40
61.0
 40
61.0
 40
62.0
 40
62.0
 40
62.0
 40
63.0
 40
63.0
 40
63.0
 40
64.0
 40
64.0
 40
64.0
 40
65.0
 40
65.0
 40
65.0
 40
66.0
 40
66.0
 40
66.0
 40
67.0
 40
67.0
 40
67.0
 40
68.0
 40
68.0
 40
68.0
 40
69.0
 40
69.0
 40
69.0
 40
70.0
 40
70.0
 40
70.0
 40
71.0
 40
71.0
 40
71.0
 40
72.0
 40
72.0
 40
72.0
 40
73.0
 40
73.0
 40
73.0
 40
74.0
 40
74.0
 40
74.0
 40
75.0
 40
75.0
 40
75.0
 40
76.0
 40
76.0
 40
76.0
 40
77.0
 40
77.0
 40
77.0
 40
78.0
 40
78.0
 40
78.0
 40
79.0
 40
79.0
 40
79.0
 40
80.0
 40
80.0
 40
80.0
 40
81.0
 40
81.0
 40
81.0
 40
82.0
 40
82.0
 40
82.0
 40
83.0
 40
83.0
 40
83.0
 40
84.0
 40
84.0
 40
84.0
 40
85.0
 40
85.0
 40
85.0
 40
85.0
 10
36.66831087910888
 20
-46.29527225141999
 30
0.0
 10
36.40749875572985
 20
-45.89736896752568
 30
0.0
 10
36.5068191887686
 20
-45.39841233929513
 30
0.0
 10
36.30010139703624
 20
-44.88607967021041
 30
0.0
 10
36.15127994485361
 20
-45.22025896661054
 30
0.0
 10
36.04449128200624
 20
-45.47519586842665
 30
0.0
 10
35.92461097618514
 20
-45.72382677197595
 30
0.0
 10
35.84697884438265
 20
-45.88483068430347
 30
0.0
 10
35.75909252870611
 20
-46.05738184533584
 30
0.0
 10
35.55008978641208
 20
-46.06798369157291
 30
0.0
 10
35.33017734163887
 20
-46.07913897267041
 30
0.0
 10
35.25237664791055
 20
-45.89544013588223
 30
0.0
 10
35.17420137212277
 20
-45.73776034287472
 30
0.0
 10
35.04662340498152
 20
-45.48044589425873
 30
0.0
 10
34.93301734865374
 20
-45.21620765962499
 30
0.0
 10
34.79287215342098
 20
-44.90974749337361
 30
0.0
 10
34.59138446369236
 20
-45.22514744620209
 30
0.0
 10
34.69342529893722
 20
-45.53860160162472
 30
0.0
 10
34.60254700906194
 20
-45.81487792201151
 30
0.0
 10
34.54642993429416
 20
-45.98547334019167
 30
0.0
 10
34.54244999991362
 20
-46.19338524463525
 30
0.0
 10
34.34745662663888
 20
-46.25164099149499
 30
0.0
 10
34.13253548780709
 20
-46.31584879572222
 30
0.0
 10
33.99861771931124
 20
-46.14091891783765
 30
0.0
 10
33.87070262831584
 20
-45.99945137308749
 30
0.0
 10
33.68816879079125
 20
-45.79757752487431
 30
0.0
 10
33.51120686139931
 20
-45.59066777044722
 30
0.0
 10
33.30739676290278
 20
-45.35797064264625
 30
0.0
 10
33.2401920591782
 20
-45.56735505823556
 30
0.0
 10
33.28586765904154
 20
-45.71514732209318
 30
0.0
 10
33.3014830486407
 20
-45.86260319584027
 30
0.0
 10
33.31888238529806
 20
-46.02687916014903
 30
0.0
 10
33.35613457110096
 20
-46.19037118924359
 30
0.0
 10
33.35885029103125
 20
-46.35463252789541
 30
0.0
 10
33.36635129676971
 20
-46.8080524656086
 30
0.0
 10
33.19548569039403
 20
-46.90555294534944
 30
0.0
 10
32.79493572977167
 20
-46.69304331937485
 30
0.0
 10
32.53104266895416
 20
-46.55303717027098
 30
0.0
 10
32.31538173055487
 20
-46.32627864423304
 30
0.0
 10
31.9401254234907
 20
-46.21295437368457
 30
0.0
 10
32.09000506999097
 20
-46.54869276511943
 30
0.0
 10
32.22171748661263
 20
-46.8175673330182
 30
0.0
 10
32.32955497922555
 20
-47.09569233644845
 30
0.0
 10
32.38887004832514
 20
-47.24868372885207
 30
0.0
 10
32.43089815538527
 20
-47.42480355018915
 30
0.0
 10
32.29713021971265
 20
-47.56630970667389
 30
0.0
 10
32.17267064821585
 20
-47.69797221097959
 30
0.0
 10
32.01458765461487
 20
-47.65210615066709
 30
0.0
 10
31.86574747332944
 20
-47.61064299813415
 30
0.0
 10
31.57670122722667
 20
-47.53012349118181
 30
0.0
 10
31.28857270716834
 20
-47.4463360274325
 30
0.0
 10
30.94845219727237
 20
-47.34915614209277
 30
0.0
 10
31.08441612026751
 20
-47.68803144443833
 30
0.0
 10
31.35106704149681
 20
-47.84415038733209
 30
0.0
 10
31.51100421629068
 20
-48.08197059026265
 30
0.0
 10
31.61143903095611
 20
-48.23131609889262
 30
0.0
 10
31.73828656308196
 20
-48.37721463268346
 30
0.0
 10
31.65738620281207
 20
-48.57010247724348
 30
0.0
 10
31.57665440446903
 20
-48.76258665367069
 30
0.0
 10
31.38116939224195
 20
-48.71674750456737
 30
0.0
 10
31.22314258595027
 20
-48.74324802497611
 30
0.0
 10
30.94026289699958
 20
-48.79068663592776
 30
0.0
 10
30.64630494364277
 20
-48.67071646684389
 30
0.0
 10
30.31330149287416
 20
-48.79472916751903
 30
0.0
 10
30.48360522616124
 20
-48.98839275692583
 30
0.0
 10
30.6842641530832
 20
-49.06830266649457
 30
0.0
 10
30.854694307815
 20
-49.18710863328222
 30
0.0
 10
31.05856527589597
 20
-49.32922906736028
 30
0.0
 10
31.36894397027959
 20
-49.43127169113484
 30
0.0
 10
31.32461686583027
 20
-49.7277864106347
 30
0.0
 10
31.28386702004804
 20
-50.0004285477736
 30
0.0
 10
30.973366586495
 20
-50.01956826753374
 30
0.0
 10
30.74826149792431
 20
-50.10173871864668
 30
0.0
 10
30.54081327117638
 20
-50.17746335021193
 30
0.0
 10
30.30578644030834
 20
-50.17902303027318
 30
0.0
 10
30.09890476892514
 20
-50.33065131144541
 30
0.0
 10
30.28924396011209
 20
-50.49279953517583
 30
0.0
 10
30.51781861500778
 20
-50.48128972815291
 30
0.0
 10
30.71492837691721
 20
-50.55370896123915
 30
0.0
 10
30.94899534125819
 20
-50.63970548422
 30
0.0
 10
31.28208775526613
 20
-50.65367942193223
 30
0.0
 10
31.32689713411666
 20
-50.9430287395607
 30
0.0
 10
31.37227775060779
 20
-51.23609882432679
 30
0.0
 10
31.06062079494652
 20
-51.34263913013835
 30
0.0
 10
30.85356587936111
 20
-51.48251072319819
 30
0.0
 10
30.68082268041278
 20
-51.59920123495887
 30
0.0
 10
30.50359386130347
 20
-51.70925403855264
 30
0.0
 10
30.32835032710849
 20
-51.82224484412209
 30
0.0
 10
30.61484941520818
 20
-51.90947460250001
 30
0.0
 10
30.87659799373597
 20
-51.90747264257152
 30
0.0
 10
31.13830911405722
 20
-51.91014153245845
 30
0.0
 10
31.3297018172857
 20
-51.9120931801272
 30
0.0
 10
31.54671593337485
 20
-51.89419371607957
 30
0.0
 10
31.64753469465055
 20
-52.09527543871028
 30
0.0
 10
31.75836416146333
 20
-52.31632293820762
 30
0.0
 10
31.5975233074511
 20
-52.48301564607722
 30
0.0
 10
31.46716406851874
 20
-52.63997819686597
 30
0.0
 10
31.2998991321882
 20
-52.84138870426583
 30
0.0
 10
31.12486630040237
 20
-53.03635690227583
 30
0.0
 10
30.91118596464195
 20
-53.28247511795471
 30
0.0
 10
31.30890314844015
 20
-53.28106403456861
 30
0.0
 10
31.58602832050418
 20
-53.09215670881402
 30
0.0
 10
31.89869664772555
 20
-53.05708672346347
 30
0.0
 10
32.34053023356528
 20
-53.00752914732735
 30
0.0
 10
32.47667208303862
 20
-53.16097452012389
 30
0.0
 10
32.32867002911071
 20
-53.57904131976723
 30
0.0
 10
32.26090813457292
 20
-53.77043617726207
 30
0.0
 10
32.14650609136945
 20
-53.94506769174416
 30
0.0
 10
32.07445054997626
 20
-54.13532291804651
 30
0.0
 10
32.04029803071459
 20
-54.22550822918861
 30
0.0
 10
31.90687190117112
 20
-54.31774581251903
 30
0.0
 10
32.04652545745125
 20
-54.44912750421083
 30
0.0
 10
32.16270676543667
 20
-54.37549609667333
 30
0.0
 10
32.27952486292277
 20
-54.30143879000431
 30
0.0
 10
32.39636637178862
 20
-54.2274212651225
 30
0.0
 10
32.5258032023989
 20
-54.14542164168318
 30
0.0
 10
32.65102130256638
 20
-54.05561074736027
 30
0.0
 10
32.78551499097876
 20
-53.98295282355194
 30
0.0
 10
33.17344153620111
 20
-53.77338470971054
 30
0.0
 10
33.38027638482638
 20
-53.88963645176222
 30
0.0
 10
33.35979142845541
 20
-54.32029652709792
 30
0.0
 10
33.34493456752653
 20
-54.63271109082193
 30
0.0
 10
33.2917158214432
 20
-54.94330037255359
 30
0.0
 10
33.255601428645
 20
-55.25470401086693
 30
0.0
 10
33.49450518382764
 20
-55.09545400732526
 30
0.0
 10
33.66400824796235
 20
-54.89693001958833
 30
0.0
 10
33.83855880534738
 20
-54.70295519620069
 30
0.0
 10
33.9751782469468
 20
-54.55113619646137
 30
0.0
 10
34.11404049862611
 20
-54.36808732386973
 30
0.0
 10
34.34911415225194
 20
-54.43647221573276
 30
0.0
 10
34.5720138889482
 20
-54.50131418844694
 30
0.0
 10
34.55088277852487
 20
-54.73010392572724
 30
0.0
 10
34.60943931895374
 20
-54.9082888898311
 30
0.0
 10
34.69217044903806
 20
-55.16004207863417
 30
0.0
 10
34.58917911181806
 20
-55.4584253720707
 30
0.0
 10
34.80653971631222
 20
-55.73583430333458
 30
0.0
 10
34.92842871842665
 20
-55.46716800479139
 30
0.0
 10
35.02044948358389
 20
-55.24520552419292
 30
0.0
 10
35.12872242784084
 20
-55.0314720232418
 30
0.0
 10
35.22338399651653
 20
-54.84460643920278
 30
0.0
 10
35.27789036842874
 20
-54.59169840852402
 30
0.0
 10
35.55593794881348
 20
-54.60459121767138
 30
0.0
 10
35.82111863546
 20
-54.61688612996137
 30
0.0
 10
35.87406580955028
 20
-54.86489983078596
 30
0.0
 10
35.97596149424721
 20
-55.04981727731415
 30
0.0
 10
36.09520969284388
 20
-55.26621849809986
 30
0.0
 10
36.13366990578778
 20
-55.52719053101514
 30
0.0
 10
36.35945860661696
 20
-55.76566596337875
 30
0.0
 10
36.40322383797722
 20
-55.4430789627068
 30
0.0
 10
36.42804926396138
 20
-55.18034249053264
 30
0.0
 10
36.47755964765694
 20
-54.92234005101206
 30
0.0
 10
36.51231618048902
 20
-54.74121357477486
 30
0.0
 10
36.50920714939709
 20
-54.51819453671568
 30
0.0
 10
36.72862327294125
 20
-54.44137824611264
 30
0.0
 10
36.97034107584487
 20
-54.35675419478346
 30
0.0
 10
37.09517054712542
 20
-54.5531744280193
 30
0.0
 10
37.24428230040417
 20
-54.68968094991931
 30
0.0
 10
37.44090978791235
 20
-54.86968768585736
 30
0.0
 10
37.5434844025918
 20
-55.14694334023609
 30
0.0
 10
37.8598329985461
 20
-55.2952393117204
 30
0.0
 10
37.80437144238279
 20
-54.94280310021611
 30
0.0
 10
37.75937009022654
 20
-54.6440161386468
 30
0.0
 10
37.70965368639847
 20
-54.34601545239694
 30
0.0
 10
37.68254799212792
 20
-54.1835244032668
 30
0.0
 10
37.71011254942098
 20
-54.0246780678582
 30
0.0
 10
37.83812596820639
 20
-53.93018462319403
 30
0.0
 10
37.95654540399639
 20
-53.84277350666916
 30
0.0
 10
38.11244177482556
 20
-53.87616212649264
 30
0.0
 10
38.23876957434388
 20
-53.94874633698972
 30
0.0
 10
38.42672548717776
 20
-54.05673867802695
 30
0.0
 10
38.60533557763069
 20
-54.18086370374776
 30
0.0
 10
38.79114232589945
 20
-54.29277221069999
 30
0.0
 10
38.88880055104972
 20
-54.3515930929457
 30
0.0
 10
38.97051562729873
 20
-54.4731264522482
 30
0.0
 10
39.12888892199486
 20
-54.4036218200864
 30
0.0
 10
38.99692834475917
 20
-54.09772327906347
 30
0.0
 10
38.85926007339334
 20
-53.81105221174236
 30
0.0
 10
38.74881923546791
 20
-53.51425901973346
 30
0.0
 10
38.61362320569444
 20
-53.15094950979847
 30
0.0
 10
38.73112959771444
 20
-53.00373232677318
 30
0.0
 10
39.1194635009261
 20
-53.05462493287945
 30
0.0
 10
39.33179065899763
 20
-53.08245112283735
 30
0.0
 10
39.53655125946918
 20
-53.16400378619902
 30
0.0
 10
39.74745032343902
 20
-53.208348778185
 30
0.0
 10
39.85920688084833
 20
-53.23184694372723
 30
0.0
 10
39.96904838747916
 20
-53.35162405413873
 30
0.0
 10
40.12072134558861
 20
-53.2144353915968
 30
0.0
 10
39.95175206088834
 20
-53.02193717453889
 30
0.0
 10
39.77383026496916
 20
-52.84137115347764
 30
0.0
 10
39.62312653793834
 20
-52.64041696657568
 30
0.0
 10
39.50692650084971
 20
-52.48547158639846
 30
0.0
 10
39.30090168592708
 20
-52.33211981780681
 30
0.0
 10
39.42231309591681
 20
-52.105926427155
 30
0.0
 10
39.53255259598569
 20
-51.9005459314225
 30
0.0
 10
39.75801353751305
 20
-51.90556896705832
 30
0.0
 10
39.96722698221513
 20
-51.90903466273791
 30
0.0
 10
40.22560432220888
 20
-51.91331588505111
 30
0.0
 10
40.4841174481986
 20
-51.91005845872693
 30
0.0
 10
40.74256970460374
 20
-51.91005845872693
 30
0.0
 10
40.52701645854638
 20
-51.66877256011667
 30
0.0
 10
40.28943778739888
 20
-51.52741968051749
 30
0.0
 10
40.0642718292436
 20
-51.36850197190235
 30
0.0
 10
39.9122757941079
 20
-51.26122687308389
 30
0.0
 10
39.72398275742014
 20
-51.15945921166041
 30
0.0
 10
39.77339013104973
 20
-50.92067839557888
 30
0.0
 10
39.81742225212737
 20
-50.70787625646471
 30
0.0
 10
40.01372666260904
 20
-50.67670722634557
 30
0.0
 10
40.1755367477
 20
-50.61296861319457
 30
0.0
 10
40.43891475818582
 20
-50.50922239289376
 30
0.0
 10
40.74543525735818
 20
-50.51964405103666
 30
0.0
 10
41.02178317164862
 20
-50.3006628643586
 30
0.0
 10
40.72400448128708
 20
-50.211144483175
 30
0.0
 10
40.47006125642125
 20
-50.13528997577555
 30
0.0
 10
40.21643642630611
 20
-50.05840348201915
 30
0.0
 10
40.02018352085721
 20
-49.99890630939429
 30
0.0
 10
39.79675000472612
 20
-49.95210537708736
 30
0.0
 10
39.76972859141915
 20
-49.70378278238722
 30
0.0
 10
39.7449687172957
 20
-49.47623447087194
 30
0.0
 10
39.9532925296075
 20
-49.39214162340459
 30
0.0
 10
40.09905645573068
 20
-49.27302910284667
 30
0.0
 10
40.30539498312749
 20
-49.10441984888555
 30
0.0
 10
40.59571012595708
 20
-49.04166290983153
 30
0.0
 10
40.76092890778818
 20
-48.7770403129322
 30
0.0
 10
40.41396291075625
 20
-48.68051799713068
 30
0.0
 10
40.09502033404098
 20
-48.7854307598325
 30
0.0
 10
39.77966906281956
 20
-48.74084005680957
 30
0.0
 10
39.37623482034014
 20
-48.68379297424346
 30
0.0
 10
39.29902409335485
 20
-48.52746459194137
 30
0.0
 10
39.50722616649751
 20
-48.18683655086235
 30
0.0
 10
39.67962287704096
 20
-47.90479304141206
 30
0.0
 10
39.97434872361875
 20
-47.71761505333999
 30
0.0
 10
40.12527251761
 20
-47.38649251925027
 30
0.0
 10
39.81398077945666
 20
-47.38623627773985
 30
0.0
 10
39.56682685441681
 20
-47.53870348659694
 30
0.0
 10
39.29598997867429
 20
-47.5929611638625
 30
0.0
 10
39.10563205838472
 20
-47.63109434681275
 30
0.0
 10
38.91807882126401
 20
-47.71463843962985
 30
0.0
 10
38.76359649770931
 20
-47.53904046173389
 30
0.0
 10
38.60409009228334
 20
-47.35771858671943
 30
0.0
 10
38.73594297717737
 20
-47.17713384481708
 30
0.0
 10
38.79623195963096
 20
-47.00165872243986
 30
0.0
 10
38.8841838271682
 20
-46.74567930379374
 30
0.0
 10
39.06633371808223
 20
-46.52470785771277
 30
0.0
 10
39.12274109394583
 20
-46.19993870901832
 30
0.0
 10
38.64551886804861
 20
-46.4076581398164
 30
0.0
 10
38.31992745977903
 20
-46.80548069008389
 30
0.0
 10
37.82006643066999
 20
-46.83286343012193
 30
0.0
 10
37.56498541279876
 20
-46.36815131516182
 30
0.0
 10
37.86519420427041
 20
-45.88997248027387
 30
0.0
 10
37.81276676278791
 20
-45.3212181217157
 30
0.0
 10
37.61811051336668
 20
-45.54940703700696
 30
0.0
 10
37.48237602188293
 20
-45.70778008615555
 30
0.0
 10
37.34746561092985
 20
-45.86685224170833
 30
0.0
 10
37.16591973358625
 20
-46.08090458198166
 30
0.0
 10
36.98031900545112
 20
-46.28806121749888
 30
0.0
 10
36.66831087910888
 20
-46.29527225141999
 30
0.0
  0
SPLINE
  5
7E
330
79
100
AcDbEntity
  8
Слой 1
100
AcDbSpline
210
0.0
220
0.0
230
1.0
 70
     9
 71
     3
 72
   356
 73
   352
 74
     0
 42
0.0000000001
 43
0.0000000001
 40
0.0
 40
0.0
 40
0.0
 40
0.0
 40
1.0
 40
1.0
 40
1.0
 40
2.0
 40
2.0
 40
2.0
 40
3.0
 40
3.0
 40
3.0
 40
4.0
 40
4.0
 40
4.0
 40
5.0
 40
5.0
 40
5.0
 40
6.0
 40
6.0
 40
6.0
 40
7.0
 40
7.0
 40
7.0
 40
8.0
 40
8.0
 40
8.0
 40
9.0
 40
9.0
 40
9.0
 40
10.0
 40
10.0
 40
10.0
 40
11.0
 40
11.0
 40
11.0
 40
12.0
 40
12.0
 40
12.0
 40
13.0
 40
13.0
 40
13.0
 40
14.0
 40
14.0
 40
14.0
 40
15.0
 40
15.0
 40
15.0
 40
16.0
 40
16.0
 40
16.0
 40
17.0
 40
17.0
 40
17.0
 40
18.0
 40
18.0
 40
18.0
 40
19.0
 40
19.0
 40
19.0
 40
20.0
 40
20.0
 40
20.0
 40
21.0
 40
21.0
 40
21.0
 40
22.0
 40
22.0
 40
22.0
 40
23.0
 40
23.0
 40
23.0
 40
24.0
 40
24.0
 40
24.0
 40
25.0
 40
25.0
 40
25.0
 40
26.0
 40
26.0
 40
26.0
 40
27.0
 40
27.0
 40
27.0
 40
28.0
 40
28.0
 40
28.0
 40
29.0
 40
29.0
 40
29.0
 40
30.0
 40
30.0
 40
30.0
 40
31.0
 40
31.0
 40
31.0
 40
32.0
 40
32.0
 40
32.0
 40
33.0
 40
33.0
 40
33.0
 40
34.0
 40
34.0
 40
34.0
 40
35.0
 40
35.0
 40
35.0
 40
36.0
 40
36.0
 40
36.0
 40
37.0
 40
37.0
 40
37.0
 40
38.0
 40
38.0
 40
38.0
 40
39.0
 40
39.0
 40
39.0
 40
40.0
 40
40.0
 40
40.0
 40
41.0
 40
41.0
 40
41.0
 40
42.0
 40
42.0
 40
42.0
 40
43.0
 40
43.0
 40
43.0
 40
44.0
 40
44.0
 40
44.0
 40
45.0
 40
45.0
 40
45.0
 40
46.0
 40
46.0
 40
46.0
 40
47.0
 40
47.0
 40
47.0
 40
48.0
 40
48.0
 40
48.0
 40
49.0
 40
49.0
 40
49.0
 40
50.0
 40
50.0
 40
50.0
 40
51.0
 40
51.0
 40
51.0
 40
52.0
 40
52.0
 40
52.0
 40
53.0
 40
53.0
 40
53.0
 40
54.0
 40
54.0
 40
54.0
 40
55.0
 40
55.0
 40
55.0
 40
56.0
 40
56.0
 40
56.0
 40
57.0
 40
57.0
 40
57.0
 40
58.0
 40
58.0
 40
58.0
 40
59.0
 40
59.0
 40
59.0
 40
60.0
 40
60.0
 40
60.0
 40
61.0
 40
61.0
 40
61.0
 40
62.0
 40
62.0
 40
62.0
 40
63.0
 40
63.0
 40
63.0
 40
64.0
 40
64.0
 40
64.0
 40
65.0
 40
65.0
 40
65.0
 40
66.0
 40
66.0
 40
66.0
 40
67.0
 40
67.0
 40
67.0
 40
68.0
 40
68.0
 40
68.0
 40
69.0
 40
69.0
 40
69.0
 40
70.0
 40
70.0
 40
70.0
 40
71.0
 40
71.0
 40
71.0
 40
72.0
 40
72.0
 40
72.0
 40
73.0
 40
73.0
 40
73.0
 40
74.0
 40
74.0
 40
74.0
 40
75.0
 40
75.0
 40
75.0
 40
76.0
 40
76.0
 40
76.0
 40
77.0
 40
77.0
 40
77.0
 40
78.0
 40
78.0
 40
78.0
 40
79.0
 40
79.0
 40
79.0
 40
80.0
 40
80.0
 40
80.0
 40
81.0
 40
81.0
 40
81.0
 40
82.0
 40
82.0
 40
82.0
 40
83.0
 40
83.0
 40
83.0
 40
84.0
 40
84.0
 40
84.0
 40
85.0
 40
85.0
 40
85.0
 40
86.0
 40
86.0
 40
86.0
 40
87.0
 40
87.0
 40
87.0
 40
88.0
 40
88.0
 40
88.0
 40
89.0
 40
89.0
 40
89.0
 40
90.0
 40
90.0
 40
90.0
 40
91.0
 40
91.0
 40
91.0
 40
92.0
 40
92.0
 40
92.0
 40
93.0
 40
93.0
 40
93.0
 40
94.0
 40
94.0
 40
94.0
 40
95.0
 40
95.0
 40
95.0
 40
96.0
 40
96.0
 40
96.0
 40
97.0
 40
97.0
 40
97.0
 40
98.0
 40
98.0
 40
98.0
 40
99.0
 40
99.0
 40
99.0
 40
100.0
 40
100.0
 40
100.0
 40
101.0
 40
101.0
 40
101.0
 40
102.0
 40
102.0
 40
102.0
 40
103.0
 40
103.0
 40
103.0
 40
104.0
 40
104.0
 40
104.0
 40
105.0
 40
105.0
 40
105.0
 40
106.0
 40
106.0
 40
106.0
 40
107.0
 40
107.0
 40
107.0
 40
108.0
 40
108.0
 40
108.0
 40
109.0
 40
109.0
 40
109.0
 40
110.0
 40
110.0
 40
110.0
 40
111.0
 40
111.0
 40
111.0
 40
112.0
 40
112.0
 40
112.0
 40
113.0
 40
113.0
 40
113.0
 40
114.0
 40
114.0
 40
114.0
 40
115.0
 40
115.0
 40
115.0
 40
116.0
 40
116.0
 40
116.0
 40
117.0
 40
117.0
 40
117.0
 40
117.0
 10
35.55029112426888
 20
-55.03181484864166
 30
0.0
 10
35.30974857257681
 20
-55.32106237169751
 30
0.0
 10
35.24734788376362
 20
-55.65717283984625
 30
0.0
 10
35.08728896980013
 20
-55.94291371538277
 30
0.0
 10
34.99236051140737
 20
-56.11239114834276
 30
0.0
 10
34.9010889103689
 20
-56.3059693239125
 30
0.0
 10
34.66543933682722
 20
-56.26381467031721
 30
0.0
 10
34.44647271175457
 20
-56.22464599085237
 30
0.0
 10
34.43434093530722
 20
-56.0101028135304
 30
0.0
 10
34.40115764712404
 20
-55.84189371754443
 30
0.0
 10
34.35691014136207
 20
-55.61757826124987
 30
0.0
 10
34.34188940078153
 20
-55.38749795599708
 30
0.0
 10
34.31440444217653
 20
-55.15988295148609
 30
0.0
 10
34.30233821758945
 20
-55.05998035384138
 30
0.0
 10
34.32067400939501
 20
-54.93021450473401
 30
0.0
 10
34.21633417676084
 20
-54.88643347808167
 30
0.0
 10
34.09114417024777
 20
-54.83390396844568
 30
0.0
 10
34.05438362339793
 20
-54.97994758875387
 30
0.0
 10
33.99163176390402
 20
-55.04721157026541
 30
0.0
 10
33.83503773398916
 20
-55.21506848043085
 30
0.0
 10
33.69235942758042
 20
-55.39580181900848
 30
0.0
 10
33.54077543270973
 20
-55.56845828477083
 30
0.0
 10
33.41086569224861
 20
-55.71643366185401
 30
0.0
 10
33.26051781817445
 20
-55.87054596460928
 30
0.0
 10
33.05008698177848
 20
-55.77363870151556
 30
0.0
 10
32.83046952037736
 20
-55.67250052836903
 30
0.0
 10
32.90795650163139
 20
-55.44792532040638
 30
0.0
 10
32.90809228762777
 20
-55.26308860750458
 30
0.0
 10
32.90831703686305
 20
-54.9492313689754
 30
0.0
 10
33.06840404448151
 20
-54.6467645921079
 30
0.0
 10
32.98456789732154
 20
-54.30529879339681
 30
0.0
 10
32.64172230294263
 20
-54.40089559762416
 30
0.0
 10
32.41609748176458
 20
-54.66461023373762
 30
0.0
 10
32.12318367589889
 20
-54.80984768783264
 30
0.0
 10
31.96557359214848
 20
-54.88799549824792
 30
0.0
 10
31.79595347111985
 20
-55.02073094075012
 30
0.0
 10
31.6304443881929
 20
-54.87644239928027
 30
0.0
 10
31.45736874766653
 20
-54.72555944158805
 30
0.0
 10
31.53657880639346
 20
-54.52078620313361
 30
0.0
 10
31.60931796004499
 20
-54.3445692674339
 30
0.0
 10
31.71140561804721
 20
-54.09723770725137
 30
0.0
 10
31.82863575579874
 20
-53.85596233911431
 30
0.0
 10
31.94466254868459
 20
-53.61462846834903
 30
0.0
 10
32.03675354797765
 20
-53.42307331365375
 30
0.0
 10
31.9541862975436
 20
-53.37698026314431
 30
0.0
 10
31.78370932005459
 20
-53.42433463031208
 30
0.0
 10
31.50128381185042
 20
-53.50278431428751
 30
0.0
 10
31.22300211767818
 20
-53.59598368082152
 30
0.0
 10
30.94184082392429
 20
-53.67914750655694
 30
0.0
 10
30.78949361810805
 20
-53.72420857070887
 30
0.0
 10
30.62684072338362
 20
-53.74597973867402
 30
0.0
 10
30.51935908372681
 20
-53.60223293153901
 30
0.0
 10
30.39879984792249
 20
-53.4409891584368
 30
0.0
 10
30.47799585982193
 20
-53.28172979447471
 30
0.0
 10
30.58606746622235
 20
-53.14806416018806
 30
0.0
 10
30.80804479459751
 20
-52.87350430690513
 30
0.0
 10
31.03933048714763
 20
-52.60646321136611
 30
0.0
 10
31.33921620159402
 20
-52.25029687230388
 30
0.0
 10
30.92331305881347
 20
-52.25029687230388
 30
0.0
 10
30.60098987901223
 20
-52.25160967127514
 30
0.0
 10
30.27869011058945
 20
-52.2498042801764
 30
0.0
 10
30.08552282485458
 20
-52.2487219815593
 30
0.0
 10
29.8687381402771
 20
-52.25081988579763
 30
0.0
 10
29.79924848599015
 20
-52.02947051274001
 30
0.0
 10
29.72841970084179
 20
-51.80387033873555
 30
0.0
 10
29.91989668503389
 20
-51.69334249380277
 30
0.0
 10
30.07194890747847
 20
-51.57388129758238
 30
0.0
 10
30.3283362802818
 20
-51.37244738913124
 30
0.0
 10
30.65718187019181
 20
-51.27143675171333
 30
0.0
 10
30.89323411944709
 20
-50.99836871544332
 30
0.0
 10
30.57790625960443
 20
-50.82541271622555
 30
0.0
 10
30.23963056635027
 20
-50.80413063023026
 30
0.0
 10
29.93494083699279
 20
-50.68559611563639
 30
0.0
 10
29.76185583191528
 20
-50.61825959086625
 30
0.0
 10
29.5435587722732
 20
-50.57320437697707
 30
0.0
 10
29.5560698130557
 20
-50.3192982914657
 30
0.0
 10
29.56713871290973
 20
-50.09481902781264
 30
0.0
 10
29.75988459382764
 20
-50.0449350070125
 30
0.0
 10
29.92791274110416
 20
-49.98956694986848
 30
0.0
 10
30.16936365429013
 20
-49.91000337585708
 30
0.0
 10
30.41480386640862
 20
-49.84239773899862
 30
0.0
 10
30.65923738924221
 20
-49.77210098125417
 30
0.0
 10
30.73219192757804
 20
-49.75111842871375
 30
0.0
 10
30.82626352950971
 20
-49.75043628807195
 30
0.0
 10
30.84617724824028
 20
-49.6636417892457
 30
0.0
 10
30.87281003266041
 20
-49.54757959570916
 30
0.0
 10
30.7545076537643
 20
-49.52431076046847
 30
0.0
 10
30.68780395354404
 20
-49.48009681436944
 30
0.0
 10
30.46459050437278
 20
-49.33213898807444
 30
0.0
 10
30.23129611552918
 20
-49.19933568252346
 30
0.0
 10
30.00855557620793
 20
-49.05071326637514
 30
0.0
 10
29.86715084880057
 20
-48.95636139807068
 30
0.0
 10
29.74519161254946
 20
-48.83875122499848
 30
0.0
 10
29.79208928638124
 20
-48.64126975409181
 30
0.0
 10
29.84474615937569
 20
-48.41951671290123
 30
0.0
 10
30.04476361452056
 20
-48.44023132340569
 30
0.0
 10
30.19636633849417
 20
-48.43115405565304
 30
0.0
 10
30.46298448379333
 20
-48.4151921986432
 30
0.0
 10
30.73196249606639
 20
-48.44090176352195
 30
0.0
 10
31.00001341774292
 20
-48.44497120632207
 30
0.0
 10
31.08715525157625
 20
-48.44629336571375
 30
0.0
 10
31.1947211721968
 20
-48.46015965859042
 30
0.0
 10
31.23014258818443
 20
-48.3551497815261
 30
0.0
 10
31.25714059011292
 20
-48.27509478543985
 30
0.0
 10
31.18188237211249
 20
-48.21593458795208
 30
0.0
 10
31.13295727288444
 20
-48.15939998840652
 30
0.0
 10
30.96594517944403
 20
-47.96639630864304
 30
0.0
 10
30.79330030828624
 20
-47.7782038850022
 30
0.0
 10
30.62850761354735
 20
-47.58335737245832
 30
0.0
 10
30.51011627141209
 20
-47.44337930461557
 30
0.0
 10
30.39953964748972
 20
-47.28296392872526
 30
0.0
 10
30.50826677249403
 20
-47.09915335191804
 30
0.0
 10
30.62525811418249
 20
-46.90137585771374
 30
0.0
 10
30.83229898294096
 20
-46.97304625716221
 30
0.0
 10
30.99697462078598
 20
-47.00996258545124
 30
0.0
 10
31.3163854250761
 20
-47.08156746195638
 30
0.0
 10
31.62871662844388
 20
-47.18474152655569
 30
0.0
 10
31.98371741064835
 20
-47.28618859357807
 30
0.0
 10
31.96792409457056
 20
-46.989838851489
 30
0.0
 10
31.8096303985621
 20
-46.79991123990318
 30
0.0
 10
31.72438956867944
 20
-46.58488483087431
 30
0.0
 10
31.6822584515532
 20
-46.47861363715111
 30
0.0
 10
31.6157748182932
 20
-46.38040761571722
 30
0.0
 10
31.58506377170152
 20
-46.27157400688999
 30
0.0
 10
31.54056810532585
 20
-46.1139047443557
 30
0.0
 10
31.47510989045291
 20
-45.92570647045193
 30
0.0
 10
31.62213334875029
 20
-45.80461363593778
 30
0.0
 10
31.76429660482846
 20
-45.68752413625429
 30
0.0
 10
31.94002709570026
 20
-45.75076255193625
 30
0.0
 10
32.08735958419695
 20
-45.84277431512305
 30
0.0
 10
32.30375563988779
 20
-45.97791831081804
 30
0.0
 10
32.51484667716292
 20
-46.1215416774082
 30
0.0
 10
32.73139724795293
 20
-46.25642650646123
 30
0.0
 10
32.80367753858208
 20
-46.30144661877375
 30
0.0
 10
32.87624813030652
 20
-46.40124274163528
 30
0.0
 10
32.96455585080027
 20
-46.35223392014929
 30
0.0
 10
33.07453314342749
 20
-46.29119695835695
 30
0.0
 10
33.02119265817471
 20
-46.16216824236137
 30
0.0
 10
33.00377927469084
 20
-46.07334955260845
 30
0.0
 10
32.94956788615001
 20
-45.79688777889082
 30
0.0
 10
32.90982941192821
 20
-45.51990006654791
 30
0.0
 10
32.90929095021779
 20
-45.23855858863305
 30
0.0
 10
32.90902406050054
 20
-45.10044441451721
 30
0.0
 10
32.8918728844575
 20
-44.93978683774694
 30
0.0
 10
33.05243280192569
 20
-44.87316404503791
 30
0.0
 10
33.21859740345667
 20
-44.80421460281553
 30
0.0
 10
33.3518549710732
 20
-44.89684064359542
 30
0.0
 10
33.45869513895306
 20
-45.01439582419735
 30
0.0
 10
33.63888783860708
 20
-45.21267000571293
 30
0.0
 10
33.80641498237903
 20
-45.42250723164236
 30
0.0
 10
33.98826988992111
 20
-45.61917259088944
 30
0.0
 10
34.04987927413387
 20
-45.68580181888748
 30
0.0
 10
34.08304383321446
 20
-45.82920931078041
 30
0.0
 10
34.21732681921819
 20
-45.77090500673959
 30
0.0
 10
34.31073353799487
 20
-45.73035040001847
 30
0.0
 10
34.3004091199839
 20
-45.62198071703096
 30
0.0
 10
34.31110343777833
 20
-45.53422502002778
 30
0.0
 10
34.33884123927388
 20
-45.30659714493847
 30
0.0
 10
34.35487335141417
 20
-45.07673563951417
 30
0.0
 10
34.39787068955249
 20
-44.85202821561236
 30
0.0
 10
34.43249143638887
 20
-44.67111878412485
 30
0.0
 10
34.44074160624611
 20
-44.44529981029179
 30
0.0
 10
34.6796359968771
 20
-44.40282573234804
 30
0.0
 10
34.92095580634249
 20
-44.35992049003597
 30
0.0
 10
35.01119730671709
 20
-44.56240510568473
 30
0.0
 10
35.09498663112001
 20
-44.73100967943582
 30
0.0
 10
35.21391175269027
 20
-44.97030824377457
 30
0.0
 10
35.3084468999204
 20
-45.22161447250012
 30
0.0
 10
35.4195432564507
 20
-45.46498715984944
 30
0.0
 10
35.44427971919529
 20
-45.51916644359347
 30
0.0
 10
35.48709444857973
 20
-45.59133236030068
 30
0.0
 10
35.53468041694527
 20
-45.60333534447706
 30
0.0
 10
35.63054064821042
 20
-45.62751097045111
 30
0.0
 10
35.65102092230611
 20
-45.52463175909639
 30
0.0
 10
35.6797560485343
 20
-45.46181456233569
 30
0.0
 10
35.79100692016375
 20
-45.21858930160889
 30
0.0
 10
35.8871480879736
 20
-44.96825304645471
 30
0.0
 10
36.00376484760305
 20
-44.72775868840055
 30
0.0
 10
36.08036219646571
 20
-44.56980217796292
 30
0.0
 10
36.1610190783968
 20
-44.38076380632166
 30
0.0
 10
36.379639215065
 20
-44.4001837536697
 30
0.0
 10
36.60228610887139
 20
-44.41996232212694
 30
0.0
 10
36.64408478441972
 20
-44.61503699491987
 30
0.0
 10
36.67602726953166
 20
-44.79292184054222
 30
0.0
 10
36.72321992673472
 20
-45.05571564529208
 30
0.0
 10
36.75766274709306
 20
-45.32077291671693
 30
0.0
 10
36.80145138983153
 20
-45.58421551561069
 30
0.0
 10
36.81314771463513
 20
-45.65458481661347
 30
0.0
 10
36.78084469429152
 20
-45.75496128554443
 30
0.0
 10
36.87017783317237
 20
-45.78446825600333
 30
0.0
 10
36.97779525882584
 20
-45.82001445274555
 30
0.0
 10
37.02468356810596
 20
-45.71233802589929
 30
0.0
 10
37.08028091026611
 20
-45.65047383694763
 30
0.0
 10
37.26798398021015
 20
-45.44159897924749
 30
0.0
 10
37.44637400370319
 20
-45.22439802753792
 30
0.0
 10
37.63191854453028
 20
-45.01353759064527
 30
0.0
 10
37.73884767564944
 20
-44.89202061207874
 30
0.0
 10
37.87022296841776
 20
-44.80472123557347
 30
0.0
 10
38.03631733581235
 20
-44.87493667466472
 30
0.0
 10
38.19110400729083
 20
-44.94036835386875
 30
0.0
 10
38.20423779074668
 20
-45.09114951698848
 30
0.0
 10
38.19071069612834
 20
-45.23415860598499
 30
0.0
 10
38.16437289507985
 20
-45.512722379125
 30
0.0
 10
38.1259688694439
 20
-45.79012721520514
 30
0.0
 10
38.09472872569348
 20
-46.06825514376653
 30
0.0
 10
38.08417487617124
 20
-46.16221504446389
 30
0.0
 10
37.99394274034749
 20
-46.27958769686665
 30
0.0
 10
38.11530732757945
 20
-46.34328301807277
 30
0.0
 10
38.21760568799
 20
-46.39697087974248
 30
0.0
 10
38.3031274544168
 20
-46.29146373034041
 30
0.0
 10
38.38629871842181
 20
-46.24003173000472
 30
0.0
 10
38.58167135603124
 20
-46.11921678297347
 30
0.0
 10
38.76612024433404
 20
-45.97998930384751
 30
0.0
 10
38.96541194673973
 20
-45.8665059061507
 30
0.0
 10
39.12756383796
 20
-45.77417530364209
 30
0.0
 10
39.31126356214458
 20
-45.64662670413361
 30
0.0
 10
39.48995325128554
 20
-45.81456434792582
 30
0.0
 10
39.65153858714042
 20
-45.96644126526694
 30
0.0
 10
39.54874858777695
 20
-46.14807963949862
 30
0.0
 10
39.4891151239275
 20
-46.31403170409804
 30
0.0
 10
39.37805622560389
 20
-46.62311044797666
 30
0.0
 10
39.17278993935153
 20
-46.89364766056168
 30
0.0
 10
39.09659058392708
 20
-47.24214430509984
 30
0.0
 10
39.3881418475518
 20
-47.27299976113292
 30
0.0
 10
39.62004091822457
 20
-47.11998613773085
 30
0.0
 10
39.8728416678093
 20
-47.0686828431768
 30
0.0
 10
39.99755408219653
 20
-47.04337343627305
 30
0.0
 10
40.12030930532389
 20
-47.00702809363292
 30
0.0
 10
40.24578493065665
 20
-46.98728462675262
 30
0.0
 10
40.38924517711499
 20
-46.96470963267958
 30
0.0
 10
40.54098368708471
 20
-46.96748967755957
 30
0.0
 10
40.61920110335472
 20
-47.11227549136721
 30
0.0
 10
40.6869349042375
 20
-47.23764194285263
 30
0.0
 10
40.62651481806334
 20
-47.3683847858472
 30
0.0
 10
40.54662114707818
 20
-47.46862903883902
 30
0.0
 10
40.37174751266721
 20
-47.68803729470111
 30
0.0
 10
40.1816939403007
 20
-47.89528636437014
 30
0.0
 10
40.00156211023123
 20
-48.11061464695929
 30
0.0
 10
39.93926443148459
 20
-48.18509317254943
 30
0.0
 10
39.82187041408209
 20
-48.24881306485958
 30
0.0
 10
39.87058481090111
 20
-48.36454413352208
 30
0.0
 10
39.91995004404902
 20
-48.48182201166749
 30
0.0
 10
40.04765443263543
 20
-48.44171143989292
 30
0.0
 10
40.14399225602612
 20
-48.44363734640485
 30
0.0
 10
40.42448866662446
 20
-48.44924306821513
 30
0.0
 10
40.70516300370124
 20
-48.44651099548986
 30
0.0
 10
40.98576710664181
 20
-48.44588735747596
 30
0.0
 10
41.1403383934354
 20
-48.4455445320761
 30
0.0
 10
41.26754646079333
 20
-48.49968754419084
 30
0.0
 10
41.31461737882735
 20
-48.65371326305666
 30
0.0
 10
41.35806421543679
 20
-48.79588517944721
 30
0.0
 10
41.27050097678637
 20
-48.90699220039667
 30
0.0
 10
41.16536515727637
 20
-48.98035800600307
 30
0.0
 10
40.90421591004402
 20
-49.16260188243416
 30
0.0
 10
40.63129073932014
 20
-49.32791158817874
 30
0.0
 10
40.36721506974902
 20
-49.50611761322875
 30
0.0
 10
40.31149598841916
 20
-49.54371959231695
 30
0.0
 10
40.21312137508068
 20
-49.56907463127027
 30
0.0
 10
40.2466464693936
 20
-49.67130446345471
 30
0.0
 10
40.26924313212374
 20
-49.74020066828582
 30
0.0
 10
40.34032476016277
 20
-49.74809150274374
 30
0.0
 10
40.40155956231612
 20
-49.76639580497653
 30
0.0
 10
40.69399109378069
 20
-49.85381160171138
 30
0.0
 10
40.9869517224043
 20
-49.93975313222193
 30
0.0
 10
41.27742606260888
 20
-50.03333744604777
 30
0.0
 10
41.41648965214527
 20
-50.0781422686893
 30
0.0
 10
41.54694721886804
 20
-50.16042036463778
 30
0.0
 10
41.55512715458917
 20
-50.31750343084028
 30
0.0
 10
41.56454321110651
 20
-50.49846726977153
 30
0.0
 10
41.41713580619736
 20
-50.58738658404473
 30
0.0
 10
41.2710441207725
 20
-50.63761577034971
 30
0.0
 10
40.92429350842485
 20
-50.75683359563805
 30
0.0
 10
40.57191480063653
 20
-50.85968355567875
 30
0.0
 10
40.21441836546111
 20
-50.97145984669166
 30
0.0
 10
40.29281370820861
 20
-51.18605567637874
 30
0.0
 10
40.48721711474001
 20
-51.22279415667859
 30
0.0
 10
40.62614960055568
 20
-51.32354153227055
 30
0.0
 10
40.78084730879443
 20
-51.43571681120625
 30
0.0
 10
40.95232629329249
 20
-51.52533113669957
 30
0.0
 10
41.10339523783138
 20
-51.64175955668735
 30
0.0
 10
41.22220330250777
 20
-51.73332904000654
 30
0.0
 10
41.36387023735722
 20
-51.83727065908457
 30
0.0
 10
41.31530567336166
 20
-52.01747747401026
 30
0.0
 10
41.26221803099845
 20
-52.21446986294751
 30
0.0
 10
41.08166011383707
 20
-52.24007178299082
 30
0.0
 10
40.91540186679109
 20
-52.24448171108555
 30
0.0
 10
40.56272817563055
 20
-52.25383628129485
 30
0.0
 10
40.20963776192861
 20
-52.24733546927708
 30
0.0
 10
39.74582089148056
 20
-52.24733546927708
 30
0.0
 10
40.01777214885012
 20
-52.56252188751333
 30
0.0
 10
40.22719161368541
 20
-52.79259283234569
 30
0.0
 10
40.42136090642873
 20
-53.03486742536835
 30
0.0
 10
40.54423318645013
 20
-53.18818526243583
 30
0.0
 10
40.73950281399278
 20
-53.34745983708126
 30
0.0
 10
40.59806062837944
 20
-53.56968440945305
 30
0.0
 10
40.45989603578543
 20
-53.78676309067042
 30
0.0
 10
40.23991803915193
 20
-53.70704857987874
 30
0.0
 10
40.0415862032736
 20
-53.64666099725638
 30
0.0
 10
39.79807508876125
 20
-53.57251827675069
 30
0.0
 10
39.55622618213722
 20
-53.49239190745862
 30
0.0
 10
39.31081874594873
 20
-53.42522387025693
 30
0.0
 10
39.14193374221168
 20
-53.37900094391403
 30
0.0
 10
39.05601398234681
 20
-53.42158968700889
 30
0.0
 10
39.14635849278819
 20
-53.61494906275012
 30
0.0
 10
39.27028896712666
 20
-53.88020465808388
 30
0.0
 10
39.38891910532472
 20
-54.14793374452735
 30
0.0
 10
39.5097873713282
 20
-54.41461680398333
 30
0.0
 10
39.58163689258903
 20
-54.57313552467556
 30
0.0
 10
39.62699877997708
 20
-54.73780638172304
 30
0.0
 10
39.47471712602098
 20
-54.86992637657944
 30
0.0
 10
39.31851172499306
 20
-55.00544771422458
 30
0.0
 10
39.15975448368597
 20
-54.91887552538486
 30
0.0
 10
39.01631296633056
 20
-54.83159428469416
 30
0.0
 10
38.80926741529654
 20
-54.70561004545707
 30
0.0
 10
38.61089812121251
 20
-54.56535584521068
 30
0.0
 10
38.40370273735473
 20
-54.43963252769471
 30
0.0
 10
38.31029133630237
 20
-54.38295635178931
 30
0.0
 10
38.21223979998957
 20
-54.26019209719485
 30
0.0
 10
38.0991394294425
 20
-54.33512109302029
 30
0.0
 10
37.99840494912986
 20
-54.40186089098514
 30
0.0
 10
38.08913808845793
 20
-54.5230514248879
 30
0.0
 10
38.09995414542209
 20
-54.61997272861223
 30
0.0
 10
38.13098826903959
 20
-54.89816208493291
 30
0.0
 10
38.16741637431194
 20
-55.1758483186532
 30
0.0
 10
38.19244782042834
 20
-55.45456536867833
 30
0.0
 10
38.20411136930167
 20
-55.58441195141262
 30
0.0
 10
38.18905317051556
 20
-55.71749489952501
 30
0.0
 10
38.04594409473806
 20
-55.77867577778222
 30
0.0
 10
37.91371194550917
 20
-55.83520452706486
 30
0.0
 10
37.7852630750797
 20
-55.79725738247167
 30
0.0
 10
37.6934015072982
 20
-55.70078888908776
 30
0.0
 10
37.48262886477306
 20
-55.47943951602999
 30
0.0
 10
37.28680204641694
 20
-55.24394186742902
 30
0.0
 10
37.07984545862196
 20
-55.0188366256572
 30
0.0
 10
37.02433707970097
 20
-54.95846776387596
 30
0.0
 10
36.98235579539806
 20
-54.84706237952402
 30
0.0
 10
36.8699484016611
 20
-54.89403179939973
 30
0.0
 10
36.78641660242417
 20
-54.92893563728709
 30
0.0
 10
36.80675640824721
 20
-55.02441192610083
 30
0.0
 10
36.79649754209652
 20
-55.0958600155632
 30
0.0
 10
36.76390890293265
 20
-55.32281628048346
 30
0.0
 10
36.75596308099819
 20
-55.55516531764806
 30
0.0
 10
36.7022714250657
 20
-55.77665626706541
 30
0.0
 10
36.65755569172958
 20
-55.96113377383153
 30
0.0
 10
36.6789162336646
 20
-56.21708277111082
 30
0.0
 10
36.40154290098583
 20
-56.25249090165137
 30
0.0
 10
36.13485452155055
 20
-56.28653943111792
 30
0.0
 10
36.07240700998015
 20
-56.05982302697222
 30
0.0
 10
35.97579761459611
 20
-55.88442512806389
 30
0.0
 10
35.82915810290931
 20
-55.61819721905347
 30
0.0
 10
35.77195474016973
 20
-55.30771324205195
 30
0.0
 10
35.55029112426888
 20
-55.03181484864166
 30
0.0
  0
HATCH
  5
7F
330
79
100
AcDbEntity
  8
Слой 1
 62
    18
420
        0
440
 33554687
100
AcDbHatch
 10
0.0
 20
0.0
 30
0.0
210
0.0
220
0.0
230
1.0
  2
SOLID
 70
     1
 71
     1
 91
        2
 92
        1
 93
        1
 72
     4
 94
        3
 73
     0
 74
     0
 95
      260
 96
      256
 40
0.0
 40
0.0
 40
0.0
 40
0.0
 40
1.0
 40
1.0
 40
1.0
 40
2.0
 40
2.0
 40
2.0
 40
3.0
 40
3.0
 40
3.0
 40
4.0
 40
4.0
 40
4.0
 40
5.0
 40
5.0
 40
5.0
 40
6.0
 40
6.0
 40
6.0
 40
7.0
 40
7.0
 40
7.0
 40
8.0
 40
8.0
 40
8.0
 40
9.0
 40
9.0
 40
9.0
 40
10.0
 40
10.0
 40
10.0
 40
11.0
 40
11.0
 40
11.0
 40
12.0
 40
12.0
 40
12.0
 40
13.0
 40
13.0
 40
13.0
 40
14.0
 40
14.0
 40
14.0
 40
15.0
 40
15.0
 40
15.0
 40
16.0
 40
16.0
 40
16.0
 40
17.0
 40
17.0
 40
17.0
 40
18.0
 40
18.0
 40
18.0
 40
19.0
 40
19.0
 40
19.0
 40
20.0
 40
20.0
 40
20.0
 40
21.0
 40
21.0
 40
21.0
 40
22.0
 40
22.0
 40
22.0
 40
23.0
 40
23.0
 40
23.0
 40
24.0
 40
24.0
 40
24.0
 40
25.0
 40
25.0
 40
25.0
 40
26.0
 40
26.0
 40
26.0
 40
27.0
 40
27.0
 40
27.0
 40
28.0
 40
28.0
 40
28.0
 40
29.0
 40
29.0
 40
29.0
 40
30.0
 40
30.0
 40
30.0
 40
31.0
 40
31.0
 40
31.0
 40
32.0
 40
32.0
 40
32.0
 40
33.0
 40
33.0
 40
33.0
 40
34.0
 40
34.0
 40
34.0
 40
35.0
 40
35.0
 40
35.0
 40
36.0
 40
36.0
 40
36.0
 40
37.0
 40
37.0
 40
37.0
 40
38.0
 40
38.0
 40
38.0
 40
39.0
 40
39.0
 40
39.0
 40
40.0
 40
40.0
 40
40.0
 40
41.0
 40
41.0
 40
41.0
 40
42.0
 40
42.0
 40
42.0
 40
43.0
 40
43.0
 40
43.0
 40
44.0
 40
44.0
 40
44.0
 40
45.0
 40
45.0
 40
45.0
 40
46.0
 40
46.0
 40
46.0
 40
47.0
 40
47.0
 40
47.0
 40
48.0
 40
48.0
 40
48.0
 40
49.0
 40
49.0
 40
49.0
 40
50.0
 40
50.0
 40
50.0
 40
51.0
 40
51.0
 40
51.0
 40
52.0
 40
52.0
 40
52.0
 40
53.0
 40
53.0
 40
53.0
 40
54.0
 40
54.0
 40
54.0
 40
55.0
 40
55.0
 40
55.0
 40
56.0
 40
56.0
 40
56.0
 40
57.0
 40
57.0
 40
57.0
 40
58.0
 40
58.0
 40
58.0
 40
59.0
 40
59.0
 40
59.0
 40
60.0
 40
60.0
 40
60.0
 40
61.0
 40
61.0
 40
61.0
 40
62.0
 40
62.0
 40
62.0
 40
63.0
 40
63.0
 40
63.0
 40
64.0
 40
64.0
 40
64.0
 40
65.0
 40
65.0
 40
65.0
 40
66.0
 40
66.0
 40
66.0
 40
67.0
 40
67.0
 40
67.0
 40
68.0
 40
68.0
 40
68.0
 40
69.0
 40
69.0
 40
69.0
 40
70.0
 40
70.0
 40
70.0
 40
71.0
 40
71.0
 40
71.0
 40
72.0
 40
72.0
 40
72.0
 40
73.0
 40
73.0
 40
73.0
 40
74.0
 40
74.0
 40
74.0
 40
75.0
 40
75.0
 40
75.0
 40
76.0
 40
76.0
 40
76.0
 40
77.0
 40
77.0
 40
77.0
 40
78.0
 40
78.0
 40
78.0
 40
79.0
 40
79.0
 40
79.0
 40
80.0
 40
80.0
 40
80.0
 40
81.0
 40
81.0
 40
81.0
 40
82.0
 40
82.0
 40
82.0
 40
83.0
 40
83.0
 40
83.0
 40
84.0
 40
84.0
 40
84.0
 40
85.0
 40
85.0
 40
85.0
 40
85.0
 10
36.66831087910888
 20
-46.29527225141999
 10
36.40749875572985
 20
-45.89736896752568
 10
36.5068191887686
 20
-45.39841233929513
 10
36.30010139703624
 20
-44.88607967021041
 10
36.15127994485361
 20
-45.22025896661054
 10
36.04449128200624
 20
-45.47519586842665
 10
35.92461097618514
 20
-45.72382677197595
 10
35.84697884438265
 20
-45.88483068430347
 10
35.75909252870611
 20
-46.05738184533584
 10
35.55008978641208
 20
-46.06798369157291
 10
35.33017734163887
 20
-46.07913897267041
 10
35.25237664791055
 20
-45.89544013588223
 10
35.17420137212277
 20
-45.73776034287472
 10
35.04662340498152
 20
-45.48044589425873
 10
34.93301734865374
 20
-45.21620765962499
 10
34.79287215342098
 20
-44.90974749337361
 10
34.59138446369236
 20
-45.22514744620209
 10
34.69342529893722
 20
-45.53860160162472
 10
34.60254700906194
 20
-45.81487792201151
 10
34.54642993429416
 20
-45.98547334019167
 10
34.54244999991362
 20
-46.19338524463525
 10
34.34745662663888
 20
-46.25164099149499
 10
34.13253548780709
 20
-46.31584879572222
 10
33.99861771931124
 20
-46.14091891783765
 10
33.87070262831584
 20
-45.99945137308749
 10
33.68816879079125
 20
-45.79757752487431
 10
33.51120686139931
 20
-45.59066777044722
 10
33.30739676290278
 20
-45.35797064264625
 10
33.2401920591782
 20
-45.56735505823556
 10
33.28586765904154
 20
-45.71514732209318
 10
33.3014830486407
 20
-45.86260319584027
 10
33.31888238529806
 20
-46.02687916014903
 10
33.35613457110096
 20
-46.19037118924359
 10
33.35885029103125
 20
-46.35463252789541
 10
33.36635129676971
 20
-46.8080524656086
 10
33.19548569039403
 20
-46.90555294534944
 10
32.79493572977167
 20
-46.69304331937485
 10
32.53104266895416
 20
-46.55303717027098
 10
32.31538173055487
 20
-46.32627864423304
 10
31.9401254234907
 20
-46.21295437368457
 10
32.09000506999097
 20
-46.54869276511943
 10
32.22171748661263
 20
-46.8175673330182
 10
32.32955497922555
 20
-47.09569233644845
 10
32.38887004832514
 20
-47.24868372885207
 10
32.43089815538527
 20
-47.42480355018915
 10
32.29713021971265
 20
-47.56630970667389
 10
32.17267064821585
 20
-47.69797221097959
 10
32.01458765461487
 20
-47.65210615066709
 10
31.86574747332944
 20
-47.61064299813415
 10
31.57670122722667
 20
-47.53012349118181
 10
31.28857270716834
 20
-47.4463360274325
 10
30.94845219727237
 20
-47.34915614209277
 10
31.08441612026751
 20
-47.68803144443833
 10
31.35106704149681
 20
-47.84415038733209
 10
31.51100421629068
 20
-48.08197059026265
 10
31.61143903095611
 20
-48.23131609889262
 10
31.73828656308196
 20
-48.37721463268346
 10
31.65738620281207
 20
-48.57010247724348
 10
31.57665440446903
 20
-48.76258665367069
 10
31.38116939224195
 20
-48.71674750456737
 10
31.22314258595027
 20
-48.74324802497611
 10
30.94026289699958
 20
-48.79068663592776
 10
30.64630494364277
 20
-48.67071646684389
 10
30.31330149287416
 20
-48.79472916751903
 10
30.48360522616124
 20
-48.98839275692583
 10
30.6842641530832
 20
-49.06830266649457
 10
30.854694307815
 20
-49.18710863328222
 10
31.05856527589597
 20
-49.32922906736028
 10
31.36894397027959
 20
-49.43127169113484
 10
31.32461686583027
 20
-49.7277864106347
 10
31.28386702004804
 20
-50.0004285477736
 10
30.973366586495
 20
-50.01956826753374
 10
30.74826149792431
 20
-50.10173871864668
 10
30.54081327117638
 20
-50.17746335021193
 10
30.30578644030834
 20
-50.17902303027318
 10
30.09890476892514
 20
-50.33065131144541
 10
30.28924396011209
 20
-50.49279953517583
 10
30.51781861500778
 20
-50.48128972815291
 10
30.71492837691721
 20
-50.55370896123915
 10
30.94899534125819
 20
-50.63970548422
 10
31.28208775526613
 20
-50.65367942193223
 10
31.32689713411666
 20
-50.9430287395607
 10
31.37227775060779
 20
-51.23609882432679
 10
31.06062079494652
 20
-51.34263913013835
 10
30.85356587936111
 20
-51.48251072319819
 10
30.68082268041278
 20
-51.59920123495887
 10
30.50359386130347
 20
-51.70925403855264
 10
30.32835032710849
 20
-51.82224484412209
 10
30.61484941520818
 20
-51.90947460250001
 10
30.87659799373597
 20
-51.90747264257152
 10
31.13830911405722
 20
-51.91014153245845
 10
31.3297018172857
 20
-51.9120931801272
 10
31.54671593337485
 20
-51.89419371607957
 10
31.64753469465055
 20
-52.09527543871028
 10
31.75836416146333
 20
-52.31632293820762
 10
31.5975233074511
 20
-52.48301564607722
 10
31.46716406851874
 20
-52.63997819686597
 10
31.2998991321882
 20
-52.84138870426583
 10
31.12486630040237
 20
-53.03635690227583
 10
30.91118596464195
 20
-53.28247511795471
 10
31.30890314844015
 20
-53.28106403456861
 10
31.58602832050418
 20
-53.09215670881402
 10
31.89869664772555
 20
-53.05708672346347
 10
32.34053023356528
 20
-53.00752914732735
 10
32.47667208303862
 20
-53.16097452012389
 10
32.32867002911071
 20
-53.57904131976723
 10
32.26090813457292
 20
-53.77043617726207
 10
32.14650609136945
 20
-53.94506769174416
 10
32.07445054997626
 20
-54.13532291804651
 10
32.04029803071459
 20
-54.22550822918861
 10
31.90687190117112
 20
-54.31774581251903
 10
32.04652545745125
 20
-54.44912750421083
 10
32.16270676543667
 20
-54.37549609667333
 10
32.27952486292277
 20
-54.30143879000431
 10
32.39636637178862
 20
-54.2274212651225
 10
32.5258032023989
 20
-54.14542164168318
 10
32.65102130256638
 20
-54.05561074736027
 10
32.78551499097876
 20
-53.98295282355194
 10
33.17344153620111
 20
-53.77338470971054
 10
33.38027638482638
 20
-53.88963645176222
 10
33.35979142845541
 20
-54.32029652709792
 10
33.34493456752653
 20
-54.63271109082193
 10
33.2917158214432
 20
-54.94330037255359
 10
33.255601428645
 20
-55.25470401086693
 10
33.49450518382764
 20
-55.09545400732526
 10
33.66400824796235
 20
-54.89693001958833
 10
33.83855880534738
 20
-54.70295519620069
 10
33.9751782469468
 20
-54.55113619646137
 10
34.11404049862611
 20
-54.36808732386973
 10
34.34911415225194
 20
-54.43647221573276
 10
34.5720138889482
 20
-54.50131418844694
 10
34.55088277852487
 20
-54.73010392572724
 10
34.60943931895374
 20
-54.9082888898311
 10
34.69217044903806
 20
-55.16004207863417
 10
34.58917911181806
 20
-55.4584253720707
 10
34.80653971631222
 20
-55.73583430333458
 10
34.92842871842665
 20
-55.46716800479139
 10
35.02044948358389
 20
-55.24520552419292
 10
35.12872242784084
 20
-55.0314720232418
 10
35.22338399651653
 20
-54.84460643920278
 10
35.27789036842874
 20
-54.59169840852402
 10
35.55593794881348
 20
-54.60459121767138
 10
35.82111863546
 20
-54.61688612996137
 10
35.87406580955028
 20
-54.86489983078596
 10
35.97596149424721
 20
-55.04981727731415
 10
36.09520969284388
 20
-55.26621849809986
 10
36.13366990578778
 20
-55.52719053101514
 10
36.35945860661696
 20
-55.76566596337875
 10
36.40322383797722
 20
-55.4430789627068
 10
36.42804926396138
 20
-55.18034249053264
 10
36.47755964765694
 20
-54.92234005101206
 10
36.51231618048902
 20
-54.74121357477486
 10
36.50920714939709
 20
-54.51819453671568
 10
36.72862327294125
 20
-54.44137824611264
 10
36.97034107584487
 20
-54.35675419478346
 10
37.09517054712542
 20
-54.5531744280193
 10
37.24428230040417
 20
-54.68968094991931
 10
37.44090978791235
 20
-54.86968768585736
 10
37.5434844025918
 20
-55.14694334023609
 10
37.8598329985461
 20
-55.2952393117204
 10
37.80437144238279
 20
-54.94280310021611
 10
37.75937009022654
 20
-54.6440161386468
 10
37.70965368639847
 20
-54.34601545239694
 10
37.68254799212792
 20
-54.1835244032668
 10
37.71011254942098
 20
-54.0246780678582
 10
37.83812596820639
 20
-53.93018462319403
 10
37.95654540399639
 20
-53.84277350666916
 10
38.11244177482556
 20
-53.87616212649264
 10
38.23876957434388
 20
-53.94874633698972
 10
38.42672548717776
 20
-54.05673867802695
 10
38.60533557763069
 20
-54.18086370374776
 10
38.79114232589945
 20
-54.29277221069999
 10
38.88880055104972
 20
-54.3515930929457
 10
38.97051562729873
 20
-54.4731264522482
 10
39.12888892199486
 20
-54.4036218200864
 10
38.99692834475917
 20
-54.09772327906347
 10
38.85926007339334
 20
-53.81105221174236
 10
38.74881923546791
 20
-53.51425901973346
 10
38.61362320569444
 20
-53.15094950979847
 10
38.73112959771444
 20
-53.00373232677318
 10
39.1194635009261
 20
-53.05462493287945
 10
39.33179065899763
 20
-53.08245112283735
 10
39.53655125946918
 20
-53.16400378619902
 10
39.74745032343902
 20
-53.208348778185
 10
39.85920688084833
 20
-53.23184694372723
 10
39.96904838747916
 20
-53.35162405413873
 10
40.12072134558861
 20
-53.2144353915968
 10
39.95175206088834
 20
-53.02193717453889
 10
39.77383026496916
 20
-52.84137115347764
 10
39.62312653793834
 20
-52.64041696657568
 10
39.50692650084971
 20
-52.48547158639846
 10
39.30090168592708
 20
-52.33211981780681
 10
39.42231309591681
 20
-52.105926427155
 10
39.53255259598569
 20
-51.9005459314225
 10
39.75801353751305
 20
-51.90556896705832
 10
39.96722698221513
 20
-51.90903466273791
 10
40.22560432220888
 20
-51.91331588505111
 10
40.4841174481986
 20
-51.91005845872693
 10
40.74256970460374
 20
-51.91005845872693
 10
40.52701645854638
 20
-51.66877256011667
 10
40.28943778739888
 20
-51.52741968051749
 10
40.0642718292436
 20
-51.36850197190235
 10
39.9122757941079
 20
-51.26122687308389
 10
39.72398275742014
 20
-51.15945921166041
 10
39.77339013104973
 20
-50.92067839557888
 10
39.81742225212737
 20
-50.70787625646471
 10
40.01372666260904
 20
-50.67670722634557
 10
40.1755367477
 20
-50.61296861319457
 10
40.43891475818582
 20
-50.50922239289376
 10
40.74543525735818
 20
-50.51964405103666
 10
41.02178317164862
 20
-50.3006628643586
 10
40.72400448128708
 20
-50.211144483175
 10
40.47006125642125
 20
-50.13528997577555
 10
40.21643642630611
 20
-50.05840348201915
 10
40.02018352085721
 20
-49.99890630939429
 10
39.79675000472612
 20
-49.95210537708736
 10
39.76972859141915
 20
-49.70378278238722
 10
39.7449687172957
 20
-49.47623447087194
 10
39.9532925296075
 20
-49.39214162340459
 10
40.09905645573068
 20
-49.27302910284667
 10
40.30539498312749
 20
-49.10441984888555
 10
40.59571012595708
 20
-49.04166290983153
 10
40.76092890778818
 20
-48.7770403129322
 10
40.41396291075625
 20
-48.68051799713068
 10
40.09502033404098
 20
-48.7854307598325
 10
39.77966906281956
 20
-48.74084005680957
 10
39.37623482034014
 20
-48.68379297424346
 10
39.29902409335485
 20
-48.52746459194137
 10
39.50722616649751
 20
-48.18683655086235
 10
39.67962287704096
 20
-47.90479304141206
 10
39.97434872361875
 20
-47.71761505333999
 10
40.12527251761
 20
-47.38649251925027
 10
39.81398077945666
 20
-47.38623627773985
 10
39.56682685441681
 20
-47.53870348659694
 10
39.29598997867429
 20
-47.5929611638625
 10
39.10563205838472
 20
-47.63109434681275
 10
38.91807882126401
 20
-47.71463843962985
 10
38.76359649770931
 20
-47.53904046173389
 10
38.60409009228334
 20
-47.35771858671943
 10
38.73594297717737
 20
-47.17713384481708
 10
38.79623195963096
 20
-47.00165872243986
 10
38.8841838271682
 20
-46.74567930379374
 10
39.06633371808223
 20
-46.52470785771277
 10
39.12274109394583
 20
-46.19993870901832
 10
38.64551886804861
 20
-46.4076581398164
 10
38.31992745977903
 20
-46.80548069008389
 10
37.82006643066999
 20
-46.83286343012193
 10
37.56498541279876
 20
-46.36815131516182
 10
37.86519420427041
 20
-45.88997248027387
 10
37.81276676278791
 20
-45.3212181217157
 10
37.61811051336668
 20
-45.54940703700696
 10
37.48237602188293
 20
-45.70778008615555
 10
37.34746561092985
 20
-45.86685224170833
 10
37.16591973358625
 20
-46.08090458198166
 10
36.98031900545112
 20
-46.28806121749888
 10
36.66831087910888
 20
-46.29527225141999
 97
        0
 97
        1
330
7D
 92
        1
 93
        1
 72
     4
 94
        3
 73
     0
 74
     0
 95
      356
 96
      352
 40
0.0
 40
0.0
 40
0.0
 40
0.0
 40
1.0
 40
1.0
 40
1.0
 40
2.0
 40
2.0
 40
2.0
 40
3.0
 40
3.0
 40
3.0
 40
4.0
 40
4.0
 40
4.0
 40
5.0
 40
5.0
 40
5.0
 40
6.0
 40
6.0
 40
6.0
 40
7.0
 40
7.0
 40
7.0
 40
8.0
 40
8.0
 40
8.0
 40
9.0
 40
9.0
 40
9.0
 40
10.0
 40
10.0
 40
10.0
 40
11.0
 40
11.0
 40
11.0
 40
12.0
 40
12.0
 40
12.0
 40
13.0
 40
13.0
 40
13.0
 40
14.0
 40
14.0
 40
14.0
 40
15.0
 40
15.0
 40
15.0
 40
16.0
 40
16.0
 40
16.0
 40
17.0
 40
17.0
 40
17.0
 40
18.0
 40
18.0
 40
18.0
 40
19.0
 40
19.0
 40
19.0
 40
20.0
 40
20.0
 40
20.0
 40
21.0
 40
21.0
 40
21.0
 40
22.0
 40
22.0
 40
22.0
 40
23.0
 40
23.0
 40
23.0
 40
24.0
 40
24.0
 40
24.0
 40
25.0
 40
25.0
 40
25.0
 40
26.0
 40
26.0
 40
26.0
 40
27.0
 40
27.0
 40
27.0
 40
28.0
 40
28.0
 40
28.0
 40
29.0
 40
29.0
 40
29.0
 40
30.0
 40
30.0
 40
30.0
 40
31.0
 40
31.0
 40
31.0
 40
32.0
 40
32.0
 40
32.0
 40
33.0
 40
33.0
 40
33.0
 40
34.0
 40
34.0
 40
34.0
 40
35.0
 40
35.0
 40
35.0
 40
36.0
 40
36.0
 40
36.0
 40
37.0
 40
37.0
 40
37.0
 40
38.0
 40
38.0
 40
38.0
 40
39.0
 40
39.0
 40
39.0
 40
40.0
 40
40.0
 40
40.0
 40
41.0
 40
41.0
 40
41.0
 40
42.0
 40
42.0
 40
42.0
 40
43.0
 40
43.0
 40
43.0
 40
44.0
 40
44.0
 40
44.0
 40
45.0
 40
45.0
 40
45.0
 40
46.0
 40
46.0
 40
46.0
 40
47.0
 40
47.0
 40
47.0
 40
48.0
 40
48.0
 40
48.0
 40
49.0
 40
49.0
 40
49.0
 40
50.0
 40
50.0
 40
50.0
 40
51.0
 40
51.0
 40
51.0
 40
52.0
 40
52.0
 40
52.0
 40
53.0
 40
53.0
 40
53.0
 40
54.0
 40
54.0
 40
54.0
 40
55.0
 40
55.0
 40
55.0
 40
56.0
 40
56.0
 40
56.0
 40
57.0
 40
57.0
 40
57.0
 40
58.0
 40
58.0
 40
58.0
 40
59.0
 40
59.0
 40
59.0
 40
60.0
 40
60.0
 40
60.0
 40
61.0
 40
61.0
 40
61.0
 40
62.0
 40
62.0
 40
62.0
 40
63.0
 40
63.0
 40
63.0
 40
64.0
 40
64.0
 40
64.0
 40
65.0
 40
65.0
 40
65.0
 40
66.0
 40
66.0
 40
66.0
 40
67.0
 40
67.0
 40
67.0
 40
68.0
 40
68.0
 40
68.0
 40
69.0
 40
69.0
 40
69.0
 40
70.0
 40
70.0
 40
70.0
 40
71.0
 40
71.0
 40
71.0
 40
72.0
 40
72.0
 40
72.0
 40
73.0
 40
73.0
 40
73.0
 40
74.0
 40
74.0
 40
74.0
 40
75.0
 40
75.0
 40
75.0
 40
76.0
 40
76.0
 40
76.0
 40
77.0
 40
77.0
 40
77.0
 40
78.0
 40
78.0
 40
78.0
 40
79.0
 40
79.0
 40
79.0
 40
80.0
 40
80.0
 40
80.0
 40
81.0
 40
81.0
 40
81.0
 40
82.0
 40
82.0
 40
82.0
 40
83.0
 40
83.0
 40
83.0
 40
84.0
 40
84.0
 40
84.0
 40
85.0
 40
85.0
 40
85.0
 40
86.0
 40
86.0
 40
86.0
 40
87.0
 40
87.0
 40
87.0
 40
88.0
 40
88.0
 40
88.0
 40
89.0
 40
89.0
 40
89.0
 40
90.0
 40
90.0
 40
90.0
 40
91.0
 40
91.0
 40
91.0
 40
92.0
 40
92.0
 40
92.0
 40
93.0
 40
93.0
 40
93.0
 40
94.0
 40
94.0
 40
94.0
 40
95.0
 40
95.0
 40
95.0
 40
96.0
 40
96.0
 40
96.0
 40
97.0
 40
97.0
 40
97.0
 40
98.0
 40
98.0
 40
98.0
 40
99.0
 40
99.0
 40
99.0
 40
100.0
 40
100.0
 40
100.0
 40
101.0
 40
101.0
 40
101.0
 40
102.0
 40
102.0
 40
102.0
 40
103.0
 40
103.0
 40
103.0
 40
104.0
 40
104.0
 40
104.0
 40
105.0
 40
105.0
 40
105.0
 40
106.0
 40
106.0
 40
106.0
 40
107.0
 40
107.0
 40
107.0
 40
108.0
 40
108.0
 40
108.0
 40
109.0
 40
109.0
 40
109.0
 40
110.0
 40
110.0
 40
110.0
 40
111.0
 40
111.0
 40
111.0
 40
112.0
 40
112.0
 40
112.0
 40
113.0
 40
113.0
 40
113.0
 40
114.0
 40
114.0
 40
114.0
 40
115.0
 40
115.0
 40
115.0
 40
116.0
 40
116.0
 40
116.0
 40
117.0
 40
117.0
 40
117.0
 40
117.0
 10
35.55029112426888
 20
-55.03181484864166
 10
35.30974857257681
 20
-55.32106237169751
 10
35.24734788376362
 20
-55.65717283984625
 10
35.08728896980013
 20
-55.94291371538277
 10
34.99236051140737
 20
-56.11239114834276
 10
34.9010889103689
 20
-56.3059693239125
 10
34.66543933682722
 20
-56.26381467031721
 10
34.44647271175457
 20
-56.22464599085237
 10
34.43434093530722
 20
-56.0101028135304
 10
34.40115764712404
 20
-55.84189371754443
 10
34.35691014136207
 20
-55.61757826124987
 10
34.34188940078153
 20
-55.38749795599708
 10
34.31440444217653
 20
-55.15988295148609
 10
34.30233821758945
 20
-55.05998035384138
 10
34.32067400939501
 20
-54.93021450473401
 10
34.21633417676084
 20
-54.88643347808167
 10
34.09114417024777
 20
-54.83390396844568
 10
34.05438362339793
 20
-54.97994758875387
 10
33.99163176390402
 20
-55.04721157026541
 10
33.83503773398916
 20
-55.21506848043085
 10
33.69235942758042
 20
-55.39580181900848
 10
33.54077543270973
 20
-55.56845828477083
 10
33.41086569224861
 20
-55.71643366185401
 10
33.26051781817445
 20
-55.87054596460928
 10
33.05008698177848
 20
-55.77363870151556
 10
32.83046952037736
 20
-55.67250052836903
 10
32.90795650163139
 20
-55.44792532040638
 10
32.90809228762777
 20
-55.26308860750458
 10
32.90831703686305
 20
-54.9492313689754
 10
33.06840404448151
 20
-54.6467645921079
 10
32.98456789732154
 20
-54.30529879339681
 10
32.64172230294263
 20
-54.40089559762416
 10
32.41609748176458
 20
-54.66461023373762
 10
32.12318367589889
 20
-54.80984768783264
 10
31.96557359214848
 20
-54.88799549824792
 10
31.79595347111985
 20
-55.02073094075012
 10
31.6304443881929
 20
-54.87644239928027
 10
31.45736874766653
 20
-54.72555944158805
 10
31.53657880639346
 20
-54.52078620313361
 10
31.60931796004499
 20
-54.3445692674339
 10
31.71140561804721
 20
-54.09723770725137
 10
31.82863575579874
 20
-53.85596233911431
 10
31.94466254868459
 20
-53.61462846834903
 10
32.03675354797765
 20
-53.42307331365375
 10
31.9541862975436
 20
-53.37698026314431
 10
31.78370932005459
 20
-53.42433463031208
 10
31.50128381185042
 20
-53.50278431428751
 10
31.22300211767818
 20
-53.59598368082152
 10
30.94184082392429
 20
-53.67914750655694
 10
30.78949361810805
 20
-53.72420857070887
 10
30.62684072338362
 20
-53.74597973867402
 10
30.51935908372681
 20
-53.60223293153901
 10
30.39879984792249
 20
-53.4409891584368
 10
30.47799585982193
 20
-53.28172979447471
 10
30.58606746622235
 20
-53.14806416018806
 10
30.80804479459751
 20
-52.87350430690513
 10
31.03933048714763
 20
-52.60646321136611
 10
31.33921620159402
 20
-52.25029687230388
 10
30.92331305881347
 20
-52.25029687230388
 10
30.60098987901223
 20
-52.25160967127514
 10
30.27869011058945
 20
-52.2498042801764
 10
30.08552282485458
 20
-52.2487219815593
 10
29.8687381402771
 20
-52.25081988579763
 10
29.79924848599015
 20
-52.02947051274001
 10
29.72841970084179
 20
-51.80387033873555
 10
29.91989668503389
 20
-51.69334249380277
 10
30.07194890747847
 20
-51.57388129758238
 10
30.3283362802818
 20
-51.37244738913124
 10
30.65718187019181
 20
-51.27143675171333
 10
30.89323411944709
 20
-50.99836871544332
 10
30.57790625960443
 20
-50.82541271622555
 10
30.23963056635027
 20
-50.80413063023026
 10
29.93494083699279
 20
-50.68559611563639
 10
29.76185583191528
 20
-50.61825959086625
 10
29.5435587722732
 20
-50.57320437697707
 10
29.5560698130557
 20
-50.3192982914657
 10
29.56713871290973
 20
-50.09481902781264
 10
29.75988459382764
 20
-50.0449350070125
 10
29.92791274110416
 20
-49.98956694986848
 10
30.16936365429013
 20
-49.91000337585708
 10
30.41480386640862
 20
-49.84239773899862
 10
30.65923738924221
 20
-49.77210098125417
 10
30.73219192757804
 20
-49.75111842871375
 10
30.82626352950971
 20
-49.75043628807195
 10
30.84617724824028
 20
-49.6636417892457
 10
30.87281003266041
 20
-49.54757959570916
 10
30.7545076537643
 20
-49.52431076046847
 10
30.68780395354404
 20
-49.48009681436944
 10
30.46459050437278
 20
-49.33213898807444
 10
30.23129611552918
 20
-49.19933568252346
 10
30.00855557620793
 20
-49.05071326637514
 10
29.86715084880057
 20
-48.95636139807068
 10
29.74519161254946
 20
-48.83875122499848
 10
29.79208928638124
 20
-48.64126975409181
 10
29.84474615937569
 20
-48.41951671290123
 10
30.04476361452056
 20
-48.44023132340569
 10
30.19636633849417
 20
-48.43115405565304
 10
30.46298448379333
 20
-48.4151921986432
 10
30.73196249606639
 20
-48.44090176352195
 10
31.00001341774292
 20
-48.44497120632207
 10
31.08715525157625
 20
-48.44629336571375
 10
31.1947211721968
 20
-48.46015965859042
 10
31.23014258818443
 20
-48.3551497815261
 10
31.25714059011292
 20
-48.27509478543985
 10
31.18188237211249
 20
-48.21593458795208
 10
31.13295727288444
 20
-48.15939998840652
 10
30.96594517944403
 20
-47.96639630864304
 10
30.79330030828624
 20
-47.7782038850022
 10
30.62850761354735
 20
-47.58335737245832
 10
30.51011627141209
 20
-47.44337930461557
 10
30.39953964748972
 20
-47.28296392872526
 10
30.50826677249403
 20
-47.09915335191804
 10
30.62525811418249
 20
-46.90137585771374
 10
30.83229898294096
 20
-46.97304625716221
 10
30.99697462078598
 20
-47.00996258545124
 10
31.3163854250761
 20
-47.08156746195638
 10
31.62871662844388
 20
-47.18474152655569
 10
31.98371741064835
 20
-47.28618859357807
 10
31.96792409457056
 20
-46.989838851489
 10
31.8096303985621
 20
-46.79991123990318
 10
31.72438956867944
 20
-46.58488483087431
 10
31.6822584515532
 20
-46.47861363715111
 10
31.6157748182932
 20
-46.38040761571722
 10
31.58506377170152
 20
-46.27157400688999
 10
31.54056810532585
 20
-46.1139047443557
 10
31.47510989045291
 20
-45.92570647045193
 10
31.62213334875029
 20
-45.80461363593778
 10
31.76429660482846
 20
-45.68752413625429
 10
31.94002709570026
 20
-45.75076255193625
 10
32.08735958419695
 20
-45.84277431512305
 10
32.30375563988779
 20
-45.97791831081804
 10
32.51484667716292
 20
-46.1215416774082
 10
32.73139724795293
 20
-46.25642650646123
 10
32.80367753858208
 20
-46.30144661877375
 10
32.87624813030652
 20
-46.40124274163528
 10
32.96455585080027
 20
-46.35223392014929
 10
33.07453314342749
 20
-46.29119695835695
 10
33.02119265817471
 20
-46.16216824236137
 10
33.00377927469084
 20
-46.07334955260845
 10
32.94956788615001
 20
-45.79688777889082
 10
32.90982941192821
 20
-45.51990006654791
 10
32.90929095021779
 20
-45.23855858863305
 10
32.90902406050054
 20
-45.10044441451721
 10
32.8918728844575
 20
-44.93978683774694
 10
33.05243280192569
 20
-44.87316404503791
 10
33.21859740345667
 20
-44.80421460281553
 10
33.3518549710732
 20
-44.89684064359542
 10
33.45869513895306
 20
-45.01439582419735
 10
33.63888783860708
 20
-45.21267000571293
 10
33.80641498237903
 20
-45.42250723164236
 10
33.98826988992111
 20
-45.61917259088944
 10
34.04987927413387
 20
-45.68580181888748
 10
34.08304383321446
 20
-45.82920931078041
 10
34.21732681921819
 20
-45.77090500673959
 10
34.31073353799487
 20
-45.73035040001847
 10
34.3004091199839
 20
-45.62198071703096
 10
34.31110343777833
 20
-45.53422502002778
 10
34.33884123927388
 20
-45.30659714493847
 10
34.35487335141417
 20
-45.07673563951417
 10
34.39787068955249
 20
-44.85202821561236
 10
34.43249143638887
 20
-44.67111878412485
 10
34.44074160624611
 20
-44.44529981029179
 10
34.6796359968771
 20
-44.40282573234804
 10
34.92095580634249
 20
-44.35992049003597
 10
35.01119730671709
 20
-44.56240510568473
 10
35.09498663112001
 20
-44.73100967943582
 10
35.21391175269027
 20
-44.97030824377457
 10
35.3084468999204
 20
-45.22161447250012
 10
35.4195432564507
 20
-45.46498715984944
 10
35.44427971919529
 20
-45.51916644359347
 10
35.48709444857973
 20
-45.59133236030068
 10
35.53468041694527
 20
-45.60333534447706
 10
35.63054064821042
 20
-45.62751097045111
 10
35.65102092230611
 20
-45.52463175909639
 10
35.6797560485343
 20
-45.46181456233569
 10
35.79100692016375
 20
-45.21858930160889
 10
35.8871480879736
 20
-44.96825304645471
 10
36.00376484760305
 20
-44.72775868840055
 10
36.08036219646571
 20
-44.56980217796292
 10
36.1610190783968
 20
-44.38076380632166
 10
36.379639215065
 20
-44.4001837536697
 10
36.60228610887139
 20
-44.41996232212694
 10
36.64408478441972
 20
-44.61503699491987
 10
36.67602726953166
 20
-44.79292184054222
 10
36.72321992673472
 20
-45.05571564529208
 10
36.75766274709306
 20
-45.32077291671693
 10
36.80145138983153
 20
-45.58421551561069
 10
36.81314771463513
 20
-45.65458481661347
 10
36.78084469429152
 20
-45.75496128554443
 10
36.87017783317237
 20
-45.78446825600333
 10
36.97779525882584
 20
-45.82001445274555
 10
37.02468356810596
 20
-45.71233802589929
 10
37.08028091026611
 20
-45.65047383694763
 10
37.26798398021015
 20
-45.44159897924749
 10
37.44637400370319
 20
-45.22439802753792
 10
37.63191854453028
 20
-45.01353759064527
 10
37.73884767564944
 20
-44.89202061207874
 10
37.87022296841776
 20
-44.80472123557347
 10
38.03631733581235
 20
-44.87493667466472
 10
38.19110400729083
 20
-44.94036835386875
 10
38.20423779074668
 20
-45.09114951698848
 10
38.19071069612834
 20
-45.23415860598499
 10
38.16437289507985
 20
-45.512722379125
 10
38.1259688694439
 20
-45.79012721520514
 10
38.09472872569348
 20
-46.06825514376653
 10
38.08417487617124
 20
-46.16221504446389
 10
37.99394274034749
 20
-46.27958769686665
 10
38.11530732757945
 20
-46.34328301807277
 10
38.21760568799
 20
-46.39697087974248
 10
38.3031274544168
 20
-46.29146373034041
 10
38.38629871842181
 20
-46.24003173000472
 10
38.58167135603124
 20
-46.11921678297347
 10
38.76612024433404
 20
-45.97998930384751
 10
38.96541194673973
 20
-45.8665059061507
 10
39.12756383796
 20
-45.77417530364209
 10
39.31126356214458
 20
-45.64662670413361
 10
39.48995325128554
 20
-45.81456434792582
 10
39.65153858714042
 20
-45.96644126526694
 10
39.54874858777695
 20
-46.14807963949862
 10
39.4891151239275
 20
-46.31403170409804
 10
39.37805622560389
 20
-46.62311044797666
 10
39.17278993935153
 20
-46.89364766056168
 10
39.09659058392708
 20
-47.24214430509984
 10
39.3881418475518
 20
-47.27299976113292
 10
39.62004091822457
 20
-47.11998613773085
 10
39.8728416678093
 20
-47.0686828431768
 10
39.99755408219653
 20
-47.04337343627305
 10
40.12030930532389
 20
-47.00702809363292
 10
40.24578493065665
 20
-46.98728462675262
 10
40.38924517711499
 20
-46.96470963267958
 10
40.54098368708471
 20
-46.96748967755957
 10
40.61920110335472
 20
-47.11227549136721
 10
40.6869349042375
 20
-47.23764194285263
 10
40.62651481806334
 20
-47.3683847858472
 10
40.54662114707818
 20
-47.46862903883902
 10
40.37174751266721
 20
-47.68803729470111
 10
40.1816939403007
 20
-47.89528636437014
 10
40.00156211023123
 20
-48.11061464695929
 10
39.93926443148459
 20
-48.18509317254943
 10
39.82187041408209
 20
-48.24881306485958
 10
39.87058481090111
 20
-48.36454413352208
 10
39.91995004404902
 20
-48.48182201166749
 10
40.04765443263543
 20
-48.44171143989292
 10
40.14399225602612
 20
-48.44363734640485
 10
40.42448866662446
 20
-48.44924306821513
 10
40.70516300370124
 20
-48.44651099548986
 10
40.98576710664181
 20
-48.44588735747596
 10
41.1403383934354
 20
-48.4455445320761
 10
41.26754646079333
 20
-48.49968754419084
 10
41.31461737882735
 20
-48.65371326305666
 10
41.35806421543679
 20
-48.79588517944721
 10
41.27050097678637
 20
-48.90699220039667
 10
41.16536515727637
 20
-48.98035800600307
 10
40.90421591004402
 20
-49.16260188243416
 10
40.63129073932014
 20
-49.32791158817874
 10
40.36721506974902
 20
-49.50611761322875
 10
40.31149598841916
 20
-49.54371959231695
 10
40.21312137508068
 20
-49.56907463127027
 10
40.2466464693936
 20
-49.67130446345471
 10
40.26924313212374
 20
-49.74020066828582
 10
40.34032476016277
 20
-49.74809150274374
 10
40.40155956231612
 20
-49.76639580497653
 10
40.69399109378069
 20
-49.85381160171138
 10
40.9869517224043
 20
-49.93975313222193
 10
41.27742606260888
 20
-50.03333744604777
 10
41.41648965214527
 20
-50.0781422686893
 10
41.54694721886804
 20
-50.16042036463778
 10
41.55512715458917
 20
-50.31750343084028
 10
41.56454321110651
 20
-50.49846726977153
 10
41.41713580619736
 20
-50.58738658404473
 10
41.2710441207725
 20
-50.63761577034971
 10
40.92429350842485
 20
-50.75683359563805
 10
40.57191480063653
 20
-50.85968355567875
 10
40.21441836546111
 20
-50.97145984669166
 10
40.29281370820861
 20
-51.18605567637874
 10
40.48721711474001
 20
-51.22279415667859
 10
40.62614960055568
 20
-51.32354153227055
 10
40.78084730879443
 20
-51.43571681120625
 10
40.95232629329249
 20
-51.52533113669957
 10
41.10339523783138
 20
-51.64175955668735
 10
41.22220330250777
 20
-51.73332904000654
 10
41.36387023735722
 20
-51.83727065908457
 10
41.31530567336166
 20
-52.01747747401026
 10
41.26221803099845
 20
-52.21446986294751
 10
41.08166011383707
 20
-52.24007178299082
 10
40.91540186679109
 20
-52.24448171108555
 10
40.56272817563055
 20
-52.25383628129485
 10
40.20963776192861
 20
-52.24733546927708
 10
39.74582089148056
 20
-52.24733546927708
 10
40.01777214885012
 20
-52.56252188751333
 10
40.22719161368541
 20
-52.79259283234569
 10
40.42136090642873
 20
-53.03486742536835
 10
40.54423318645013
 20
-53.18818526243583
 10
40.73950281399278
 20
-53.34745983708126
 10
40.59806062837944
 20
-53.56968440945305
 10
40.45989603578543
 20
-53.78676309067042
 10
40.23991803915193
 20
-53.70704857987874
 10
40.0415862032736
 20
-53.64666099725638
 10
39.79807508876125
 20
-53.57251827675069
 10
39.55622618213722
 20
-53.49239190745862
 10
39.31081874594873
 20
-53.42522387025693
 10
39.14193374221168
 20
-53.37900094391403
 10
39.05601398234681
 20
-53.42158968700889
 10
39.14635849278819
 20
-53.61494906275012
 10
39.27028896712666
 20
-53.88020465808388
 10
39.38891910532472
 20
-54.14793374452735
 10
39.5097873713282
 20
-54.41461680398333
 10
39.58163689258903
 20
-54.57313552467556
 10
39.62699877997708
 20
-54.73780638172304
 10
39.47471712602098
 20
-54.86992637657944
 10
39.31851172499306
 20
-55.00544771422458
 10
39.15975448368597
 20
-54.91887552538486
 10
39.01631296633056
 20
-54.83159428469416
 10
38.80926741529654
 20
-54.70561004545707
 10
38.61089812121251
 20
-54.56535584521068
 10
38.40370273735473
 20
-54.43963252769471
 10
38.31029133630237
 20
-54.38295635178931
 10
38.21223979998957
 20
-54.26019209719485
 10
38.0991394294425
 20
-54.33512109302029
 10
37.99840494912986
 20
-54.40186089098514
 10
38.08913808845793
 20
-54.5230514248879
 10
38.09995414542209
 20
-54.61997272861223
 10
38.13098826903959
 20
-54.89816208493291
 10
38.16741637431194
 20
-55.1758483186532
 10
38.19244782042834
 20
-55.45456536867833
 10
38.20411136930167
 20
-55.58441195141262
 10
38.18905317051556
 20
-55.71749489952501
 10
38.04594409473806
 20
-55.77867577778222
 10
37.91371194550917
 20
-55.83520452706486
 10
37.7852630750797
 20
-55.79725738247167
 10
37.6934015072982
 20
-55.70078888908776
 10
37.48262886477306
 20
-55.47943951602999
 10
37.28680204641694
 20
-55.24394186742902
 10
37.07984545862196
 20
-55.0188366256572
 10
37.02433707970097
 20
-54.95846776387596
 10
36.98235579539806
 20
-54.84706237952402
 10
36.8699484016611
 20
-54.89403179939973
 10
36.78641660242417
 20
-54.92893563728709
 10
36.80675640824721
 20
-55.02441192610083
 10
36.79649754209652
 20
-55.0958600155632
 10
36.76390890293265
 20
-55.32281628048346
 10
36.75596308099819
 20
-55.55516531764806
 10
36.7022714250657
 20
-55.77665626706541
 10
36.65755569172958
 20
-55.96113377383153
 10
36.6789162336646
 20
-56.21708277111082
 10
36.40154290098583
 20
-56.25249090165137
 10
36.13485452155055
 20
-56.28653943111792
 10
36.07240700998015
 20
-56.05982302697222
 10
35.97579761459611
 20
-55.88442512806389
 10
35.82915810290931
 20
-55.61819721905347
 10
35.77195474016973
 20
-55.30771324205195
 10
35.55029112426888
 20
-55.03181484864166
 97
        0
 97
        1
330
7E
 75
     2
 76
     1
 98
        1
 10
0.0
 20
0.0
450
        0
451
        0
460
0.0
461
0.0
452
        0
462
0.0
453
        0
470

  0
SPLINE
  5
80
330
79
100
AcDbEntity
  8
Слой 1
100
AcDbSpline
210
0.0
220
0.0
230
1.0
 70
     9
 71
     3
 72
    17
 73
    13
 74
     0
 42
0.0000000001
 43
0.0000000001
 40
0.0
 40
0.0
 40
0.0
 40
0.0
 40
1.0
 40
1.0
 40
1.0
 40
2.0
 40
2.0
 40
2.0
 40
3.0
 40
3.0
 40
3.0
 40
4.0
 40
4.0
 40
4.0
 40
4.0
 10
39.30549968070611
 20
-50.30001465524097
 30
0.0
 10
39.30910503302751
 20
-48.22188547526694
 30
0.0
 10
37.61069378859209
 20
-46.51079242262848
 30
0.0
 10
35.54360483450973
 20
-46.51002837830749
 30
0.0
 10
33.50049849677751
 20
-46.50927369440695
 30
0.0
 10
31.74574542833888
 20
-48.26642820613513
 30
0.0
 10
31.75712335839181
 20
-50.30169134055778
 30
0.0
 10
31.76854342892653
 20
-52.34481839822958
 30
0.0
 10
33.48473795662986
 20
-54.0561513116425
 30
0.0
 10
35.52460884182417
 20
-54.05849960712834
 30
0.0
 10
37.6175533225536
 20
-54.0609099153997
 30
0.0
 10
39.30188028155751
 20
-52.38656353342918
 30
0.0
 10
39.30549968070611
 20
-50.30001465524097
 30
0.0
  0
SPLINE
  5
81
330
79
100
AcDbEntity
  8
Слой 1
100
AcDbSpline
210
0.0
220
0.0
230
1.0
 70
     9
 71
     3
 72
    29
 73
    25
 74
     0
 42
0.0000000001
 43
0.0000000001
 40
0.0
 40
0.0
 40
0.0
 40
0.0
 40
1.0
 40
1.0
 40
1.0
 40
2.0
 40
2.0
 40
2.0
 40
3.0
 40
3.0
 40
3.0
 40
4.0
 40
4.0
 40
4.0
 40
5.0
 40
5.0
 40
5.0
 40
6.0
 40
6.0
 40
6.0
 40
7.0
 40
7.0
 40
7.0
 40
8.0
 40
8.0
 40
8.0
 40
8.0
 10
36.67618646690681
 20
-46.28659865180012
 30
0.0
 10
37.06008625499069
 20
-46.46579805147236
 30
0.0
 10
37.44398136079929
 20
-46.644997451145
 30
0.0
 10
37.82788114888293
 20
-46.82419802086986
 30
0.0
 10
37.949971488855
 20
-47.02610346050222
 30
0.0
 10
38.16922841502416
 20
-47.12088473809639
 30
0.0
 10
38.3309308077729
 20
-47.28056064076918
 30
0.0
 10
39.526648246275
 20
-48.46128290904708
 30
0.0
 10
39.94818884904847
 20
-49.88002896940082
 30
0.0
 10
39.46133986422625
 20
-51.47839798845319
 30
0.0
 10
38.97530091310682
 20
-53.07409577751362
 30
0.0
 10
37.84764035251444
 20
-54.02562347032582
 30
0.0
 10
36.18842443831472
 20
-54.33379425341819
 30
0.0
 10
34.20973685024097
 20
-54.70130191193486
 30
0.0
 10
31.89173878597333
 20
-53.40773509465778
 30
0.0
 10
31.49962628623777
 20
-50.9623158859432
 30
0.0
 10
31.12426228683138
 20
-48.62137067022111
 30
0.0
 10
32.65711762558279
 20
-46.6765432381879
 30
0.0
 10
34.77792164697722
 20
-46.26448465843514
 30
0.0
 10
35.29143619215001
 20
-46.16471193662472
 30
0.0
 10
35.81937682888431
 20
-46.17152632272832
 30
0.0
 10
36.33878635921681
 20
-46.27337237767334
 30
0.0
 10
36.45163856914971
 20
-46.29550158172153
 30
0.0
 10
36.56161117950084
 20
-46.33296081439763
 30
0.0
 10
36.67618646690681
 20
-46.28659865180012
 30
0.0
  0
HATCH
  5
82
330
79
100
AcDbEntity
  8
Слой 1
 62
    18
420
        0
440
 33554687
100
AcDbHatch
 10
0.0
 20
0.0
 30
0.0
210
0.0
220
0.0
230
1.0
  2
SOLID
 70
     1
 71
     1
 91
        2
 92
        1
 93
        1
 72
     4
 94
        3
 73
     0
 74
     0
 95
       17
 96
       13
 40
0.0
 40
0.0
 40
0.0
 40
0.0
 40
1.0
 40
1.0
 40
1.0
 40
2.0
 40
2.0
 40
2.0
 40
3.0
 40
3.0
 40
3.0
 40
4.0
 40
4.0
 40
4.0
 40
4.0
 10
39.30549968070611
 20
-50.30001465524097
 10
39.30910503302751
 20
-48.22188547526694
 10
37.61069378859209
 20
-46.51079242262848
 10
35.54360483450973
 20
-46.51002837830749
 10
33.50049849677751
 20
-46.50927369440695
 10
31.74574542833888
 20
-48.26642820613513
 10
31.75712335839181
 20
-50.30169134055778
 10
31.76854342892653
 20
-52.34481839822958
 10
33.48473795662986
 20
-54.0561513116425
 10
35.52460884182417
 20
-54.05849960712834
 10
37.6175533225536
 20
-54.0609099153997
 10
39.30188028155751
 20
-52.38656353342918
 10
39.30549968070611
 20
-50.30001465524097
 97
        0
 97
        1
330
80
 92
        1
 93
        1
 72
     4
 94
        3
 73
     0
 74
     0
 95
       29
 96
       25
 40
0.0
 40
0.0
 40
0.0
 40
0.0
 40
1.0
 40
1.0
 40
1.0
 40
2.0
 40
2.0
 40
2.0
 40
3.0
 40
3.0
 40
3.0
 40
4.0
 40
4.0
 40
4.0
 40
5.0
 40
5.0
 40
5.0
 40
6.0
 40
6.0
 40
6.0
 40
7.0
 40
7.0
 40
7.0
 40
8.0
 40
8.0
 40
8.0
 40
8.0
 10
36.67618646690681
 20
-46.28659865180012
 10
37.06008625499069
 20
-46.46579805147236
 10
37.44398136079929
 20
-46.644997451145
 10
37.82788114888293
 20
-46.82419802086986
 10
37.949971488855
 20
-47.02610346050222
 10
38.16922841502416
 20
-47.12088473809639
 10
38.3309308077729
 20
-47.28056064076918
 10
39.526648246275
 20
-48.46128290904708
 10
39.94818884904847
 20
-49.88002896940082
 10
39.46133986422625
 20
-51.47839798845319
 10
38.97530091310682
 20
-53.07409577751362
 10
37.84764035251444
 20
-54.02562347032582
 10
36.18842443831472
 20
-54.33379425341819
 10
34.20973685024097
 20
-54.70130191193486
 10
31.89173878597333
 20
-53.40773509465778
 10
31.49962628623777
 20
-50.9623158859432
 10
31.12426228683138
 20
-48.62137067022111
 10
32.65711762558279
 20
-46.6765432381879
 10
34.77792164697722
 20
-46.26448465843514
 10
35.29143619215001
 20
-46.16471193662472
 10
35.81937682888431
 20
-46.17152632272832
 10
36.33878635921681
 20
-46.27337237767334
 10
36.45163856914971
 20
-46.29550158172153
 10
36.56161117950084
 20
-46.33296081439763
 10
36.67618646690681
 20
-46.28659865180012
 97
        0
 97
        1
330
81
 75
     2
 76
     1
 98
        1
 10
0.0
 20
0.0
450
        0
451
        0
460
0.0
461
0.0
452
        0
462
0.0
453
        0
470

  0
ENDBLK
  5
7C
330
79
100
AcDbEntity
  8
0
100
AcDbBlockEnd
  0
ENDSEC
  0
SECTION
  2
ENTITIES
  0
INSERT
  5
7A
330
70
100
AcDbEntity
  8
Слой 1
100
AcDbBlockReference
  2
Block_0
 10
0.0
 20
0.0
 30
0.0
  0
ENDSEC
  0
SECTION
  2
OBJECTS
  0
DICTIONARY
  5
C
330
0
100
AcDbDictionary
281
     1
  3
ACAD_COLOR
350
63
  3
ACAD_DETAILVIEWSTYLE
350
6A
  3
ACAD_GROUP
350
D
  3
ACAD_LAYOUT
350
62
  3
ACAD_MATERIAL
350
10
  3
ACAD_MLEADERSTYLE
350
66
  3
ACAD_MLINESTYLE
350
5F
  3
ACAD_PLOTSETTINGS
350
61
  3
ACAD_PLOTSTYLENAME
350
E
  3
ACAD_SCALELIST
350
42
  3
ACAD_SECTIONVIEWSTYLE
350
68
  3
ACAD_TABLESTYLE
350
64
  3
ACAD_VISUALSTYLE
350
29
  3
ACDB_RECOMPOSE_DATA
350
8B
  3
AcDbVariableDictionary
350
83
  0
DICTIONARY
  5
63
102
{ACAD_REACTORS
330
C
102
}
330
C
100
AcDbDictionary
281
     1
  0
DICTIONARY
  5
6A
102
{ACAD_REACTORS
330
C
102
}
330
C
100
AcDbDictionary
281
     1
  3
Imperial24
350
6B
  0
DICTIONARY
  5
D
102
{ACAD_REACTORS
330
C
102
}
330
C
100
AcDbDictionary
281
     1
  0
DICTIONARY
  5
62
102
{ACAD_REACTORS
330
C
102
}
330
C
100
AcDbDictionary
281
     1
  3
Layout1
350
6F
  3
Layout2
350
77
  3
Model
350
73
  0
DICTIONARY
  5
10
102
{ACAD_REACTORS
330
C
102
}
330
C
100
AcDbDictionary
281
     1
  3
ByBlock
350
19
  3
ByLayer
350
11
  3
Global
350
21
  0
DICTIONARY
  5
66
102
{ACAD_REACTORS
330
C
102
}
330
C
100
AcDbDictionary
281
     1
  3
Standard
350
67
  0
DICTIONARY
  5
5F
102
{ACAD_REACTORS
330
C
102
}
330
C
100
AcDbDictionary
281
     1
  3
Standard
350
60
  0
DICTIONARY
  5
61
102
{ACAD_REACTORS
330
C
102
}
330
C
100
AcDbDictionary
281
     1
  0
ACDBDICTIONARYWDFLT
  5
E
102
{ACAD_REACTORS
330
C
102
}
330
C
100
AcDbDictionary
281
     1
  3
Normal
350
F
100
AcDbDictionaryWithDefault
340
F
  0
DICTIONARY
  5
42
102
{ACAD_REACTORS
330
C
102
}
330
C
100
AcDbDictionary
281
     1
  3
A0
350
43
  3
A1
350
44
  3
A2
350
45
  3
A3
350
46
  3
A4
350
47
  3
A5
350
48
  3
A6
350
49
  3
A7
350
4A
  3
A8
350
4B
  3
A9
350
4C
  3
B0
350
4D
  3
B1
350
4E
  3
B2
350
4F
  3
B3
350
50
  3
B4
350
51
  3
B5
350
52
  3
B6
350
53
  0
DICTIONARY
  5
68
102
{ACAD_REACTORS
330
C
102
}
330
C
100
AcDbDictionary
281
     1
  3
Imperial24
350
69
  0
DICTIONARY
  5
64
102
{ACAD_REACTORS
330
C
102
}
330
C
100
AcDbDictionary
281
     1
  3
Standard
350
65
  0
DICTIONARY
  5
29
102
{ACAD_REACTORS
330
C
102
}
330
C
100
AcDbDictionary
281
     1
  3
2dWireframe
350
2F
  3
Basic
350
2E
  3
Brighten
350
35
  3
ColorChange
350
39
  3
Conceptual
350
32
  3
Dim
350
34
  3
EdgeColorOff
350
41
  3
Facepattern
350
38
  3
Flat
350
2A
  3
FlatWithEdges
350
2B
  3
Gouraud
350
2C
  3
GouraudWithEdges
350
2D
  3
Hidden
350
31
  3
JitterOff
350
3F
  3
Linepattern
350
37
  3
OverhangOff
350
40
  3
Realistic
350
33
  3
Shaded
350
3E
  3
Shaded with edges
350
3D
  3
Shades of Gray
350
3A
  3
Sketchy
350
3B
  3
Thicken
350
36
  3
Wireframe
350
30
  3
X-Ray
350
3C
  0
XRECORD
  5
8B
102
{ACAD_REACTORS
330
C
102
}
330
C
100
AcDbXrecord
280
     1
 90
        1
330
65
  0
DICTIONARY
  5
83
102
{ACAD_REACTORS
330
C
102
}
330
C
100
AcDbDictionary
281
     1
  3
CANNOSCALE
350
88
  3
CMLEADERSTYLE
350
85
  3
CTABLESTYLE
350
84
  3
CVIEWDETAILSTYLE
350
86
  3
CVIEWSECTIONSTYLE
350
87
  0
ACDBDETAILVIEWSTYLE
  5
6B
102
{ACAD_XDICTIONARY
360
8E
102
}
102
{ACAD_REACTORS
330
6A
102
}
330
6A
100
AcDbModelDocViewStyle
 70
     0
  3
Imperial24
290
     0
100
AcDbDetailViewStyle
 70
     0
 71
     0
 90
        3
 71
     1
340
55
 62
   256
 40
0.24
340
0
 62
   256
 40
0.24
300

 40
0.36
280
     3
 71
     2
340
5D
 90
       25
 62
   256
 71
     3
340
55
 62
   256
 40
0.24
 90
        1
 40
0.75
 90
        1
300
%<\AcVar ViewType \f "%tc1">% %<\AcVar ViewDetailId>%\PSCALE %<\AcVar ViewScale \f "%sn">%
 71
     4
340
5D
 90
       25
 62
   256
340
5D
 90
       25
 62
   256
280
     0
  0
LAYOUT
  5
6F
102
{ACAD_REACTORS
330
62
102
}
330
62
100
AcDbPlotSettings
  1

  2

  4

  6

 40
0.0
 41
0.0
 42
0.0
 43
0.0
 44
0.0
 45
0.0
 46
0.0
 47
0.0
 48
0.0
 49
0.0
140
0.0
141
0.0
142
1.0
143
1.0
 70
   688
 72
     0
 73
     0
 74
     5
  7

 75
    16
147
1.0
 76
     0
 77
     2
 78
   300
148
0.0
149
0.0
100
AcDbLayout
  1
Layout1
 70
     1
 71
     1
 10
0.0
 20
0.0
 11
12.0
 21
9.0
 12
0.0
 22
0.0
 32
0.0
 14
0.0
 24
0.0
 34
0.0
 15
0.0
 25
0.0
 35
0.0
146
0.0
 13
0.0
 23
0.0
 33
0.0
 16
1.0
 26
0.0
 36
0.0
 17
0.0
 27
1.0
 37
0.0
 76
     0
330
6C
  0
LAYOUT
  5
77
102
{ACAD_REACTORS
330
62
102
}
330
62
100
AcDbPlotSettings
  1

  2

  4

  6

 40
0.0
 41
0.0
 42
0.0
 43
0.0
 44
0.0
 45
0.0
 46
0.0
 47
0.0
 48
0.0
 49
0.0
140
0.0
141
0.0
142
1.0
143
1.0
 70
   688
 72
     0
 73
     0
 74
     5
  7

 75
    16
147
1.0
 76
     0
 77
     2
 78
   300
148
0.0
149
0.0
100
AcDbLayout
  1
Layout2
 70
     1
 71
     2
 10
0.0
 20
0.0
 11
12.0
 21
9.0
 12
0.0
 22
0.0
 32
0.0
 14
0.0
 24
0.0
 34
0.0
 15
0.0
 25
0.0
 35
0.0
146
0.0
 13
0.0
 23
0.0
 33
0.0
 16
1.0
 26
0.0
 36
0.0
 17
0.0
 27
1.0
 37
0.0
 76
     0
330
74
  0
LAYOUT
  5
73
102
{ACAD_REACTORS
330
62
102
}
330
62
100
AcDbPlotSettings
  1

  2

  4

  6

 40
0.0
 41
0.0
 42
0.0
 43
0.0
 44
0.0
 45
0.0
 46
0.0
 47
0.0
 48
0.0
 49
0.0
140
0.0
141
0.0
142
1.0
143
1.0
 70
  1712
 72
     0
 73
     0
 74
     0
  7

 75
     0
147
1.0
 76
     0
 77
     2
 78
   300
148
0.0
149
0.0
100
AcDbLayout
  1
Model
 70
     1
 71
     0
 10
0.0
 20
0.0
 11
12.0
 21
9.0
 12
0.0
 22
0.0
 32
0.0
 14
0.0
 24
0.0
 34
0.0
 15
0.0
 25
0.0
 35
0.0
146
0.0
 13
0.0
 23
0.0
 33
0.0
 16
1.0
 26
0.0
 36
0.0
 17
0.0
 27
1.0
 37
0.0
 76
     0
330
70
  0
MATERIAL
  5
19
102
{ACAD_XDICTIONARY
360
1A
102
}
102
{ACAD_REACTORS
330
10
102
}
330
10
100
AcDbMaterial
  1
ByBlock
 72
     0
 43
0.0208333333333333
 43
0.0
 43
0.0
 43
0.0
 43
0.0
 43
0.0208333333333333
 43
0.0
 43
0.0
 43
0.0
 43
0.0
 43
1.0
 43
0.0
 43
0.0
 43
0.0
 43
0.0
 43
1.0
 77
     0
 47
0.0208333333333333
 47
0.0
 47
0.0
 47
0.0
 47
0.0
 47
0.0208333333333333
 47
0.0
 47
0.0
 47
0.0
 47
0.0
 47
1.0
 47
0.0
 47
0.0
 47
0.0
 47
0.0
 47
1.0
171
     0
 49
0.0208333333333333
 49
0.0
 49
0.0
 49
0.0
 49
0.0
 49
0.0208333333333333
 49
0.0
 49
0.0
 49
0.0
 49
0.0
 49
1.0
 49
0.0
 49
0.0
 49
0.0
 49
0.0
 49
1.0
175
     0
142
0.0208333333333333
142
0.0
142
0.0
142
0.0
142
0.0
142
0.0208333333333333
142
0.0
142
0.0
142
0.0
142
0.0
142
1.0
142
0.0
142
0.0
142
0.0
142
0.0
142
1.0
179
     0
144
0.0208333333333333
144
0.0
144
0.0
144
0.0
144
0.0
144
0.0208333333333333
144
0.0
144
0.0
144
0.0
144
0.0
144
1.0
144
0.0
144
0.0
144
0.0
144
0.0
144
1.0
147
0.0208333333333333
147
0.0
147
0.0
147
0.0
147
0.0
147
0.0208333333333333
147
0.0
147
0.0
147
0.0
147
0.0
147
1.0
147
0.0
147
0.0
147
0.0
147
0.0
147
1.0
  0
MATERIAL
  5
11
102
{ACAD_XDICTIONARY
360
12
102
}
102
{ACAD_REACTORS
330
10
102
}
330
10
100
AcDbMaterial
  1
ByLayer
 72
     0
 43
0.0208333333333333
 43
0.0
 43
0.0
 43
0.0
 43
0.0
 43
0.0208333333333333
 43
0.0
 43
0.0
 43
0.0
 43
0.0
 43
1.0
 43
0.0
 43
0.0
 43
0.0
 43
0.0
 43
1.0
 77
     0
 47
0.0208333333333333
 47
0.0
 47
0.0
 47
0.0
 47
0.0
 47
0.0208333333333333
 47
0.0
 47
0.0
 47
0.0
 47
0.0
 47
1.0
 47
0.0
 47
0.0
 47
0.0
 47
0.0
 47
1.0
171
     0
 49
0.0208333333333333
 49
0.0
 49
0.0
 49
0.0
 49
0.0
 49
0.0208333333333333
 49
0.0
 49
0.0
 49
0.0
 49
0.0
 49
1.0
 49
0.0
 49
0.0
 49
0.0
 49
0.0
 49
1.0
175
     0
142
0.0208333333333333
142
0.0
142
0.0
142
0.0
142
0.0
142
0.0208333333333333
142
0.0
142
0.0
142
0.0
142
0.0
142
1.0
142
0.0
142
0.0
142
0.0
142
0.0
142
1.0
179
     0
144
0.0208333333333333
144
0.0
144
0.0
144
0.0
144
0.0
144
0.0208333333333333
144
0.0
144
0.0
144
0.0
144
0.0
144
1.0
144
0.0
144
0.0
144
0.0
144
0.0
144
1.0
147
0.0208333333333333
147
0.0
147
0.0
147
0.0
147
0.0
147
0.0208333333333333
147
0.0
147
0.0
147
0.0
147
0.0
147
1.0
147
0.0
147
0.0
147
0.0
147
0.0
147
1.0
  0
MATERIAL
  5
21
102
{ACAD_XDICTIONARY
360
22
102
}
102
{ACAD_REACTORS
330
10
102
}
330
10
100
AcDbMaterial
  1
Global
 72
     0
 43
0.0208333333333333
 43
0.0
 43
0.0
 43
0.0
 43
0.0
 43
0.0208333333333333
 43
0.0
 43
0.0
 43
0.0
 43
0.0
 43
1.0
 43
0.0
 43
0.0
 43
0.0
 43
0.0
 43
1.0
 77
     0
 47
0.0208333333333333
 47
0.0
 47
0.0
 47
0.0
 47
0.0
 47
0.0208333333333333
 47
0.0
 47
0.0
 47
0.0
 47
0.0
 47
1.0
 47
0.0
 47
0.0
 47
0.0
 47
0.0
 47
1.0
171
     0
 49
0.0208333333333333
 49
0.0
 49
0.0
 49
0.0
 49
0.0
 49
0.0208333333333333
 49
0.0
 49
0.0
 49
0.0
 49
0.0
 49
1.0
 49
0.0
 49
0.0
 49
0.0
 49
0.0
 49
1.0
175
     0
142
0.0208333333333333
142
0.0
142
0.0
142
0.0
142
0.0
142
0.0208333333333333
142
0.0
142
0.0
142
0.0
142
0.0
142
1.0
142
0.0
142
0.0
142
0.0
142
0.0
142
1.0
179
     0
144
0.0208333333333333
144
0.0
144
0.0
144
0.0
144
0.0
144
0.0208333333333333
144
0.0
144
0.0
144
0.0
144
0.0
144
1.0
144
0.0
144
0.0
144
0.0
144
0.0
144
1.0
147
0.0208333333333333
147
0.0
147
0.0
147
0.0
147
0.0
147
0.0208333333333333
147
0.0
147
0.0
147
0.0
147
0.0
147
1.0
147
0.0
147
0.0
147
0.0
147
0.0
147
1.0
  0
MLEADERSTYLE
  5
67
102
{ACAD_REACTORS
330
66
102
}
330
66
100
AcDbMLeaderStyle
179
     2
170
     2
171
     1
172
     0
 90
        2
 40
0.0
 41
0.0
173
     1
 91
-1056964608
340
5B
 92
       -2
290
     1
 42
0.09
291
     1
 43
0.36
  3
Standard
 44
0.18
300

342
55
174
     1
178
     6
175
     1
176
     0
 93
-1056964608
 45
0.18
292
     0
297
     0
 46
0.18
 94
-1056964608
 47
1.0
 49
1.0
140
1.0
293
     1
141
0.0
294
     1
177
     0
142
1.0
295
     0
296
     0
143
0.125
271
     0
272
     9
273
     9
298
     1
  0
MLINESTYLE
  5
60
102
{ACAD_REACTORS
330
5F
102
}
330
5F
100
AcDbMlineStyle
  2
STANDARD
 70
     0
  3

 62
   256
 51
90.0
 52
90.0
 71
     2
 49
0.5
 62
   256
  6
BYLAYER
 49
-0.5
 62
   256
  6
BYLAYER
  0
ACDBPLACEHOLDER
  5
F
102
{ACAD_REACTORS
330
E
102
}
330
E
  0
SCALE
  5
43
102
{ACAD_REACTORS
330
42
102
}
330
42
100
AcDbScale
 70
     0
300
1:1
140
1.0
141
1.0
290
     1
  0
SCALE
  5
44
102
{ACAD_REACTORS
330
42
102
}
330
42
100
AcDbScale
 70
     0
300
1/128" = 1'-0"
140
0.0078125
141
12.0
290
     0
  0
SCALE
  5
45
102
{ACAD_REACTORS
330
42
102
}
330
42
100
AcDbScale
 70
     0
300
1/64" = 1'-0"
140
0.015625
141
12.0
290
     0
  0
SCALE
  5
46
102
{ACAD_REACTORS
330
42
102
}
330
42
100
AcDbScale
 70
     0
300
1/32" = 1'-0"
140
0.03125
141
12.0
290
     0
  0
SCALE
  5
47
102
{ACAD_REACTORS
330
42
102
}
330
42
100
AcDbScale
 70
     0
300
1/16" = 1'-0"
140
0.0625
141
12.0
290
     0
  0
SCALE
  5
48
102
{ACAD_REACTORS
330
42
102
}
330
42
100
AcDbScale
 70
     0
300
3/32" = 1'-0"
140
0.09375
141
12.0
290
     0
  0
SCALE
  5
49
102
{ACAD_REACTORS
330
42
102
}
330
42
100
AcDbScale
 70
     0
300
1/8" = 1'-0"
140
0.125
141
12.0
290
     0
  0
SCALE
  5
4A
102
{ACAD_REACTORS
330
42
102
}
330
42
100
AcDbScale
 70
     0
300
3/16" = 1'-0"
140
0.1875
141
12.0
290
     0
  0
SCALE
  5
4B
102
{ACAD_REACTORS
330
42
102
}
330
42
100
AcDbScale
 70
     0
300
1/4" = 1'-0"
140
0.25
141
12.0
290
     0
  0
SCALE
  5
4C
102
{ACAD_REACTORS
330
42
102
}
330
42
100
AcDbScale
 70
     0
300
3/8" = 1'-0"
140
0.375
141
12.0
290
     0
  0
SCALE
  5
4D
102
{ACAD_REACTORS
330
42
102
}
330
42
100
AcDbScale
 70
     0
300
1/2" = 1'-0"
140
0.5
141
12.0
290
     0
  0
SCALE
  5
4E
102
{ACAD_REACTORS
330
42
102
}
330
42
100
AcDbScale
 70
     0
300
3/4" = 1'-0"
140
0.75
141
12.0
290
     0
  0
SCALE
  5
4F
102
{ACAD_REACTORS
330
42
102
}
330
42
100
AcDbScale
 70
     0
300
1" = 1'-0"
140
1.0
141
12.0
290
     0
  0
SCALE
  5
50
102
{ACAD_REACTORS
330
42
102
}
330
42
100
AcDbScale
 70
     0
300
1-1/2" = 1'-0"
140
1.5
141
12.0
290
     0
  0
SCALE
  5
51
102
{ACAD_REACTORS
330
42
102
}
330
42
100
AcDbScale
 70
     0
300
3" = 1'-0"
140
3.0
141
12.0
290
     0
  0
SCALE
  5
52
102
{ACAD_REACTORS
330
42
102
}
330
42
100
AcDbScale
 70
     0
300
6" = 1'-0"
140
6.0
141
12.0
290
     0
  0
SCALE
  5
53
102
{ACAD_REACTORS
330
42
102
}
330
42
100
AcDbScale
 70
     0
300
1'-0" = 1'-0"
140
12.0
141
12.0
290
     0
  0
ACDBSECTIONVIEWSTYLE
  5
69
102
{ACAD_XDICTIONARY
360
8C
102
}
102
{ACAD_REACTORS
330
68
102
}
330
68
100
AcDbModelDocViewStyle
 70
     0
  3
Imperial24
290
     0
100
AcDbSectionViewStyle
 70
     0
 71
     0
 90
       78
 71
     1
340
55
 62
   256
 40
0.24
340
0
340
0
 62
   256
 40
0.24
300
I, O, Q, S, X, Z
 40
0.48
 90
        3
 40
0.18
 90
        1
 71
     2
340
5D
 90
       25
 62
   256
340
5D
 90
       50
 62
   256
 40
0.24
 40
0.0
 40
0.24
 71
     3
340
55
 62
   256
 40
0.24
 90
        1
 40
0.75
 90
        1
300
%<\AcVar ViewType \f "%tc1">% %<\AcVar ViewSectionStartId>%-%<\AcVar ViewSectionEndId>%\PSCALE %<\AcVar ViewScale \f "%sn">%
 71
     4
 62
   256
 62
   257
300
ANSI31
 40
1.0
 90
        0
290
     0
290
     0
 90
        6
 40
0.0
 40
1.570796326794896
 40
0.2617993877991494
 40
1.308996938995747
 40
-0.2617993877991494
 40
1.832595714594046
  0
TABLESTYLE
  5
65
102
{ACAD_XDICTIONARY
360
89
102
}
102
{ACAD_REACTORS
330
64
102
}
330
64
100
AcDbTableStyle
280
     0
  3
Standard
 70
     0
 71
     0
 40
0.06
 41
0.06
280
     0
281
     0
  7
Standard
140
0.18
170
     2
 62
     0
 63
     7
283
     0
 90
      512
 91
        0
  1

274
    -2
284
     1
 64
     0
275
    -2
285
     1
 65
     0
276
    -2
286
     1
 66
     0
277
    -2
287
     1
 67
     0
278
    -2
288
     1
 68
     0
279
    -2
289
     1
 69
     0
  7
Standard
140
0.25
170
     5
 62
     0
 63
     7
283
     0
 90
      512
 91
        0
  1

274
    -2
284
     1
 64
     0
275
    -2
285
     1
 65
     0
276
    -2
286
     1
 66
     0
277
    -2
287
     1
 67
     0
278
    -2
288
     1
 68
     0
279
    -2
289
     1
 69
     0
  7
Standard
140
0.18
170
     5
 62
     0
 63
     7
283
     0
 90
      512
 91
        0
  1

274
    -2
284
     1
 64
     0
275
    -2
285
     1
 65
     0
276
    -2
286
     1
 66
     0
277
    -2
287
     1
 67
     0
278
    -2
288
     1
 68
     0
279
    -2
289
     1
 69
     0
  0
VISUALSTYLE
  5
2F
102
{ACAD_REACTORS
330
29
102
}
330
29
100
AcDbVisualStyle
  2
2dWireframe
 70
     4
177
     3
291
     0
 70
    58
 90
        0
176
     1
 90
        2
176
     1
 90
        0
176
     1
 90
        0
176
     1
 40
0.6
176
     1
 40
30.0
176
     1
 62
     7
420
 16777215
176
     1
 90
        1
176
     1
 90
        4
176
     1
 62
     7
176
     1
 62
   257
176
     1
 90
        1
176
     1
 90
        1
176
     1
 40
1.0
176
     1
 90
        0
176
     1
 62
   257
176
     1
 40
1.0
176
     1
 90
        1
176
     1
 90
        6
176
     1
 90
        2
176
     1
 62
     7
176
     1
 90
        5
176
     1
 90
        0
176
     1
 90
        0
176
     1
290
     0
176
     1
 90
        1
176
     1
 40
0.0
176
     1
 90
        0
176
     1
290
     1
176
     1
290
     1
176
     1
290
     0
176
     1
290
     0
176
     1
290
     0
176
     1
290
     0
176
     1
290
     0
176
     1
290
     0
176
     1
290
     0
176
     1
 90
       50
176
     1
 40
0.0
176
     1
 40
1.0
176
     1
 90
        0
176
     1
 62
    18
420
        0
176
     1
 90
       50
176
     1
 90
        3
176
     1
 62
     5
420
      255
176
     1
290
     0
176
     1
 90
       50
176
     1
 90
       50
176
     1
 90
       50
176
     1
290
     0
176
     1
 90
       50
176
     1
 62
   256
176
     0
 40
1.0
176
     0
 90
        2
176
     1
  1
strokes_ogs.tif
176
     1
290
     0
176
     1
 40
1.0
176
     1
 40
1.0
176
     1
1001
ACAD
1000
AcDbSavedByObjectVersion
1070
     0
  0
VISUALSTYLE
  5
2E
102
{ACAD_REACTORS
330
29
102
}
330
29
100
AcDbVisualStyle
  2
Basic
 70
     7
177
     3
291
     1
 70
    58
 90
        1
176
     1
 90
        0
176
     1
 90
        1
176
     1
 90
        0
176
     1
 40
0.6
176
     1
 40
30.0
176
     1
 62
     7
420
 16777215
176
     1
 90
        0
176
     1
 90
        4
176
     1
 62
     7
176
     1
 62
   257
176
     1
 90
        1
176
     1
 90
        1
176
     1
 40
1.0
176
     1
 90
        8
176
     1
 62
     7
176
     1
 40
1.0
176
     1
 90
        1
176
     1
 90
        6
176
     1
 90
        2
176
     1
 62
     7
176
     1
 90
        5
176
     1
 90
        0
176
     1
 90
        0
176
     1
290
     0
176
     1
 90
        1
176
     1
 40
0.0
176
     1
 90
        0
176
     1
290
     0
176
     1
290
     1
176
     1
290
     1
176
     1
290
     0
176
     1
290
     0
176
     1
290
     0
176
     1
290
     0
176
     1
290
     0
176
     1
290
     0
176
     1
 90
       50
176
     1
 40
0.0
176
     1
 40
1.0
176
     1
 90
        0
176
     1
 62
    18
420
        0
176
     1
 90
       50
176
     1
 90
        3
176
     1
 62
     5
420
      255
176
     1
290
     0
176
     1
 90
       50
176
     1
 90
       50
176
     1
 90
       50
176
     1
290
     0
176
     1
 90
       50
176
     1
 62
   256
176
     0
 40
1.0
176
     0
 90
        2
176
     1
  1
strokes_ogs.tif
176
     1
290
     0
176
     1
 40
1.0
176
     1
 40
1.0
176
     1
1001
ACAD
1000
AcDbSavedByObjectVersion
1070
     0
  0
VISUALSTYLE
  5
35
102
{ACAD_REACTORS
330
29
102
}
330
29
100
AcDbVisualStyle
  2
Brighten
 70
    12
177
     3
291
     1
 70
    58
 90
        2
176
     1
 90
        2
176
     1
 90
        0
176
     1
 90
        0
176
     1
 40
0.6
176
     1
 40
30.0
176
     1
 62
     7
420
 16777215
176
     1
 90
        1
176
     1
 90
        4
176
     1
 62
     7
176
     1
 62
   257
176
     1
 90
        1
176
     1
 90
        1
176
     1
 40
1.0
176
     1
 90
        8
176
     1
 62
     7
176
     1
 40
1.0
176
     1
 90
        1
176
     1
 90
        6
176
     1
 90
        2
176
     1
 62
     7
176
     1
 90
        5
176
     1
 90
        0
176
     1
 90
        0
176
     1
290
     0
176
     1
 90
        1
176
     1
 40
50.0
176
     1
 90
        0
176
     1
290
     0
176
     1
290
     1
176
     1
290
     1
176
     1
290
     0
176
     1
290
     0
176
     1
290
     0
176
     1
290
     0
176
     1
290
     0
176
     1
290
     0
176
     1
 90
       50
176
     1
 40
0.0
176
     1
 40
1.0
176
     1
 90
        0
176
     1
 62
    18
420
        0
176
     1
 90
       50
176
     1
 90
        3
176
     1
 62
     5
420
      255
176
     1
290
     0
176
     1
 90
       50
176
     1
 90
       50
176
     1
 90
       50
176
     1
290
     0
176
     1
 90
       50
176
     1
 62
   256
176
     0
 40
1.0
176
     0
 90
        2
176
     1
  1
strokes_ogs.tif
176
     1
290
     0
176
     1
 40
1.0
176
     1
 40
1.0
176
     1
1001
ACAD
1000
AcDbSavedByObjectVersion
1070
     0
  0
VISUALSTYLE
  5
39
102
{ACAD_REACTORS
330
29
102
}
330
29
100
AcDbVisualStyle
  2
ColorChange
 70
    16
177
     3
291
     1
 70
    58
 90
        2
176
     1
 90
        2
176
     1
 90
        3
176
     1
 90
        0
176
     1
 40
0.6
176
     1
 40
30.0
176
     1
 62
     8
420
  8421504
176
     1
 90
        1
176
     1
 90
        4
176
     1
 62
     7
176
     1
 62
   257
176
     1
 90
        1
176
     1
 90
        1
176
     1
 40
1.0
176
     1
 90
        8
176
     1
 62
     8
420
  8421504
176
     1
 40
1.0
176
     1
 90
        1
176
     1
 90
        6
176
     1
 90
        2
176
     1
 62
     7
176
     1
 90
        5
176
     1
 90
        0
176
     1
 90
        0
176
     1
290
     0
176
     1
 90
        1
176
     1
 40
0.0
176
     1
 90
        0
176
     1
290
     0
176
     1
290
     1
176
     1
290
     1
176
     1
290
     0
176
     1
290
     0
176
     1
290
     0
176
     1
290
     0
176
     1
290
     0
176
     1
290
     0
176
     1
 90
       50
176
     1
 40
0.0
176
     1
 40
1.0
176
     1
 90
        0
176
     1
 62
    18
420
        0
176
     1
 90
       50
176
     1
 90
        3
176
     1
 62
     5
420
      255
176
     1
290
     0
176
     1
 90
       50
176
     1
 90
       50
176
     1
 90
       50
176
     1
290
     0
176
     1
 90
       50
176
     1
 62
   256
176
     0
 40
1.0
176
     0
 90
        2
176
     1
  1
strokes_ogs.tif
176
     1
290
     0
176
     1
 40
1.0
176
     1
 40
1.0
176
     1
1001
ACAD
1000
AcDbSavedByObjectVersion
1070
     0
  0
VISUALSTYLE
  5
32
102
{ACAD_REACTORS
330
29
102
}
330
29
100
AcDbVisualStyle
  2
Conceptual
 70
     9
177
     3
291
     0
 70
    58
 90
        3
176
     1
 90
        2
176
     1
 90
        0
176
     1
 90
        0
176
     1
 40
0.6
176
     1
 40
30.0
176
     1
 62
     7
420
 16777215
176
     1
 90
        2
176
     1
 90
        2
176
     1
 62
     7
176
     1
 62
   257
176
     1
 90
        1
176
     1
 90
        1
176
     1
 40
179.0
176
     1
 90
        8
176
     1
 62
     7
176
     1
 40
1.0
176
     1
 90
        1
176
     1
 90
        6
176
     1
 90
        2
176
     1
 62
     7
176
     1
 90
        3
176
     1
 90
        0
176
     1
 90
        0
176
     1
290
     0
176
     1
 90
        1
176
     1
 40
0.0
176
     1
 90
        0
176
     1
290
     0
176
     1
290
     1
176
     1
290
     1
176
     1
290
     0
176
     1
290
     0
176
     1
290
     0
176
     1
290
     0
176
     1
290
     0
176
     1
290
     0
176
     1
 90
       50
176
     1
 40
0.0
176
     1
 40
1.0
176
     1
 90
        0
176
     1
 62
    18
420
        0
176
     1
 90
       50
176
     1
 90
        3
176
     1
 62
     5
420
      255
176
     1
290
     0
176
     1
 90
       50
176
     1
 90
       50
176
     1
 90
       50
176
     1
290
     0
176
     1
 90
       50
176
     1
 62
   256
176
     0
 40
1.0
176
     0
 90
        2
176
     1
  1
strokes_ogs.tif
176
     1
290
     0
176
     1
 40
1.0
176
     1
 40
1.0
176
     1
1001
ACAD
1000
AcDbSavedByObjectVersion
1070
     0
  0
VISUALSTYLE
  5
34
102
{ACAD_REACTORS
330
29
102
}
330
29
100
AcDbVisualStyle
  2
Dim
 70
    11
177
     3
291
     1
 70
    58
 90
        2
176
     1
 90
        2
176
     1
 90
        0
176
     1
 90
        0
176
     1
 40
0.6
176
     1
 40
30.0
176
     1
 62
     7
420
 16777215
176
     1
 90
        1
176
     1
 90
        4
176
     1
 62
     7
176
     1
 62
   257
176
     1
 90
        1
176
     1
 90
        1
176
     1
 40
1.0
176
     1
 90
        8
176
     1
 62
     7
176
     1
 40
1.0
176
     1
 90
        1
176
     1
 90
        6
176
     1
 90
        2
176
     1
 62
     7
176
     1
 90
        5
176
     1
 90
        0
176
     1
 90
        0
176
     1
290
     0
176
     1
 90
        1
176
     1
 40
-50.0
176
     1
 90
        0
176
     1
290
     0
176
     1
290
     1
176
     1
290
     1
176
     1
290
     0
176
     1
290
     0
176
     1
290
     0
176
     1
290
     0
176
     1
290
     0
176
     1
290
     0
176
     1
 90
       50
176
     1
 40
0.0
176
     1
 40
1.0
176
     1
 90
        0
176
     1
 62
    18
420
        0
176
     1
 90
       50
176
     1
 90
        3
176
     1
 62
     5
420
      255
176
     1
290
     0
176
     1
 90
       50
176
     1
 90
       50
176
     1
 90
       50
176
     1
290
     0
176
     1
 90
       50
176
     1
 62
   256
176
     0
 40
1.0
176
     0
 90
        2
176
     1
  1
strokes_ogs.tif
176
     1
290
     0
176
     1
 40
1.0
176
     1
 40
1.0
176
     1
1001
ACAD
1000
AcDbSavedByObjectVersion
1070
     0
  0
VISUALSTYLE
  5
41
102
{ACAD_REACTORS
330
29
102
}
330
29
100
AcDbVisualStyle
  2
EdgeColorOff
 70
    22
177
     3
291
     1
 70
    58
 90
        2
176
     0
 90
        2
176
     0
 90
        0
176
     0
 90
        0
176
     0
 40
0.6
176
     0
 40
30.0
176
     0
 62
     7
420
 16777215
176
     0
 90
        1
176
     0
 90
        4
176
     0
 62
     7
176
     0
 62
   257
176
     0
 90
        1
176
     0
 90
        1
176
     0
 40
1.0
176
     0
 90
        8
176
     2
 62
     7
176
     0
 40
1.0
176
     0
 90
        1
176
     0
 90
        6
176
     0
 90
        2
176
     0
 62
     7
176
     0
 90
        5
176
     0
 90
        0
176
     0
 90
        0
176
     0
290
     0
176
     0
 90
        1
176
     0
 40
0.0
176
     0
 90
        0
176
     0
290
     0
176
     0
290
     1
176
     0
290
     1
176
     0
290
     0
176
     0
290
     0
176
     0
290
     0
176
     0
290
     0
176
     0
290
     0
176
     0
290
     0
176
     0
 90
       50
176
     0
 40
0.0
176
     0
 40
1.0
176
     0
 90
        0
176
     0
 62
    18
420
        0
176
     0
 90
       50
176
     0
 90
        3
176
     0
 62
     5
420
      255
176
     0
290
     0
176
     0
 90
       50
176
     0
 90
       50
176
     0
 90
       50
176
     0
290
     0
176
     0
 90
       50
176
     0
 62
   256
176
     0
 40
1.0
176
     0
 90
        2
176
     0
  1
strokes_ogs.tif
176
     0
290
     0
176
     0
 40
1.0
176
     0
 40
1.0
176
     0
1001
ACAD
1000
AcDbSavedByObjectVersion
1070
     0
  0
VISUALSTYLE
  5
38
102
{ACAD_REACTORS
330
29
102
}
330
29
100
AcDbVisualStyle
  2
Facepattern
 70
    15
177
     3
291
     1
 70
    58
 90
        2
176
     1
 90
        2
176
     1
 90
        0
176
     1
 90
        0
176
     1
 40
0.6
176
     1
 40
30.0
176
     1
 62
     7
420
 16777215
176
     1
 90
        1
176
     1
 90
        4
176
     1
 62
     7
176
     1
 62
   257
176
     1
 90
        1
176
     1
 90
        1
176
     1
 40
1.0
176
     1
 90
        8
176
     1
 62
     7
176
     1
 40
1.0
176
     1
 90
        1
176
     1
 90
        6
176
     1
 90
        2
176
     1
 62
     7
176
     1
 90
        5
176
     1
 90
        0
176
     1
 90
        0
176
     1
290
     0
176
     1
 90
        1
176
     1
 40
0.0
176
     1
 90
        0
176
     1
290
     0
176
     1
290
     1
176
     1
290
     1
176
     1
290
     0
176
     1
290
     0
176
     1
290
     0
176
     1
290
     0
176
     1
290
     0
176
     1
290
     0
176
     1
 90
       50
176
     1
 40
0.0
176
     1
 40
1.0
176
     1
 90
        0
176
     1
 62
    18
420
        0
176
     1
 90
       50
176
     1
 90
        3
176
     1
 62
     5
420
      255
176
     1
290
     0
176
     1
 90
       50
176
     1
 90
       50
176
     1
 90
       50
176
     1
290
     0
176
     1
 90
       50
176
     1
 62
   256
176
     0
 40
1.0
176
     0
 90
        2
176
     1
  1
strokes_ogs.tif
176
     1
290
     0
176
     1
 40
1.0
176
     1
 40
1.0
176
     1
1001
ACAD
1000
AcDbSavedByObjectVersion
1070
     0
  0
VISUALSTYLE
  5
2A
102
{ACAD_REACTORS
330
29
102
}
330
29
100
AcDbVisualStyle
  2
Flat
 70
     0
177
     3
291
     1
 70
    58
 90
        2
176
     1
 90
        1
176
     1
 90
        1
176
     1
 90
        2
176
     1
 40
0.6
176
     1
 40
30.0
176
     1
 62
     7
420
 16777215
176
     1
 90
        0
176
     1
 90
        0
176
     1
 62
     7
176
     1
 62
   257
176
     1
 90
        1
176
     1
 90
        1
176
     1
 40
1.0
176
     1
 90
        8
176
     1
 62
     7
176
     1
 40
1.0
176
     1
 90
        1
176
     1
 90
        6
176
     1
 90
        2
176
     1
 62
     7
176
     1
 90
        5
176
     1
 90
        0
176
     1
 90
        0
176
     1
290
     0
176
     1
 90
       13
176
     1
 40
0.0
176
     1
 90
        0
176
     1
290
     0
176
     1
290
     1
176
     1
290
     1
176
     1
290
     0
176
     1
290
     0
176
     1
290
     0
176
     1
290
     0
176
     1
290
     0
176
     1
290
     0
176
     1
 90
       50
176
     1
 40
0.0
176
     1
 40
1.0
176
     1
 90
        0
176
     1
 62
    18
420
        0
176
     1
 90
       50
176
     1
 90
        3
176
     1
 62
     5
420
      255
176
     1
290
     0
176
     1
 90
       50
176
     1
 90
       50
176
     1
 90
       50
176
     1
290
     0
176
     1
 90
       50
176
     1
 62
   256
176
     0
 40
1.0
176
     0
 90
        2
176
     1
  1
strokes_ogs.tif
176
     1
290
     0
176
     1
 40
1.0
176
     1
 40
1.0
176
     1
1001
ACAD
1000
AcDbSavedByObjectVersion
1070
     0
  0
VISUALSTYLE
  5
2B
102
{ACAD_REACTORS
330
29
102
}
330
29
100
AcDbVisualStyle
  2
FlatWithEdges
 70
     1
177
     3
291
     1
 70
    58
 90
        2
176
     1
 90
        1
176
     1
 90
        1
176
     1
 90
        2
176
     1
 40
0.6
176
     1
 40
30.0
176
     1
 62
     7
420
 16777215
176
     1
 90
        1
176
     1
 90
        0
176
     1
 62
     7
176
     1
 62
   257
176
     1
 90
        1
176
     1
 90
        1
176
     1
 40
1.0
176
     1
 90
        0
176
     1
 62
   257
176
     1
 40
1.0
176
     1
 90
        1
176
     1
 90
        6
176
     1
 90
        2
176
     1
 62
     7
176
     1
 90
        5
176
     1
 90
        0
176
     1
 90
        0
176
     1
290
     0
176
     1
 90
       13
176
     1
 40
0.0
176
     1
 90
        0
176
     1
290
     0
176
     1
290
     1
176
     1
290
     1
176
     1
290
     0
176
     1
290
     0
176
     1
290
     0
176
     1
290
     0
176
     1
290
     0
176
     1
290
     0
176
     1
 90
       50
176
     1
 40
0.0
176
     1
 40
1.0
176
     1
 90
        0
176
     1
 62
    18
420
        0
176
     1
 90
       50
176
     1
 90
        3
176
     1
 62
     5
420
      255
176
     1
290
     0
176
     1
 90
       50
176
     1
 90
       50
176
     1
 90
       50
176
     1
290
     0
176
     1
 90
       50
176
     1
 62
   256
176
     0
 40
1.0
176
     0
 90
        2
176
     1
  1
strokes_ogs.tif
176
     1
290
     0
176
     1
 40
1.0
176
     1
 40
1.0
176
     1
1001
ACAD
1000
AcDbSavedByObjectVersion
1070
     0
  0
VISUALSTYLE
  5
2C
102
{ACAD_REACTORS
330
29
102
}
330
29
100
AcDbVisualStyle
  2
Gouraud
 70
     2
177
     3
291
     1
 70
    58
 90
        2
176
     1
 90
        2
176
     1
 90
        1
176
     1
 90
        2
176
     1
 40
0.6
176
     1
 40
30.0
176
     1
 62
     7
420
 16777215
176
     1
 90
        0
176
     1
 90
        0
176
     1
 62
     7
176
     1
 62
   257
176
     1
 90
        1
176
     1
 90
        1
176
     1
 40
1.0
176
     1
 90
        0
176
     1
 62
     7
176
     1
 40
1.0
176
     1
 90
        1
176
     1
 90
        6
176
     1
 90
        2
176
     1
 62
     7
176
     1
 90
        5
176
     1
 90
        0
176
     1
 90
        0
176
     1
290
     0
176
     1
 90
       13
176
     1
 40
0.0
176
     1
 90
        0
176
     1
290
     0
176
     1
290
     1
176
     1
290
     1
176
     1
290
     0
176
     1
290
     0
176
     1
290
     0
176
     1
290
     0
176
     1
290
     0
176
     1
290
     0
176
     1
 90
       50
176
     1
 40
0.0
176
     1
 40
1.0
176
     1
 90
        0
176
     1
 62
    18
420
        0
176
     1
 90
       50
176
     1
 90
        3
176
     1
 62
     5
420
      255
176
     1
290
     0
176
     1
 90
       50
176
     1
 90
       50
176
     1
 90
       50
176
     1
290
     0
176
     1
 90
       50
176
     1
 62
   256
176
     0
 40
1.0
176
     0
 90
        2
176
     1
  1
strokes_ogs.tif
176
     1
290
     0
176
     1
 40
1.0
176
     1
 40
1.0
176
     1
1001
ACAD
1000
AcDbSavedByObjectVersion
1070
     0
  0
VISUALSTYLE
  5
2D
102
{ACAD_REACTORS
330
29
102
}
330
29
100
AcDbVisualStyle
  2
GouraudWithEdges
 70
     3
177
     3
291
     1
 70
    58
 90
        2
176
     1
 90
        2
176
     1
 90
        1
176
     1
 90
        2
176
     1
 40
0.6
176
     1
 40
30.0
176
     1
 62
     7
420
 16777215
176
     1
 90
        1
176
     1
 90
        0
176
     1
 62
     7
176
     1
 62
   257
176
     1
 90
        1
176
     1
 90
        1
176
     1
 40
1.0
176
     1
 90
        0
176
     1
 62
   257
176
     1
 40
1.0
176
     1
 90
        1
176
     1
 90
        6
176
     1
 90
        2
176
     1
 62
     7
176
     1
 90
        5
176
     1
 90
        0
176
     1
 90
        0
176
     1
290
     0
176
     1
 90
       13
176
     1
 40
0.0
176
     1
 90
        0
176
     1
290
     0
176
     1
290
     1
176
     1
290
     1
176
     1
290
     0
176
     1
290
     0
176
     1
290
     0
176
     1
290
     0
176
     1
290
     0
176
     1
290
     0
176
     1
 90
       50
176
     1
 40
0.0
176
     1
 40
1.0
176
     1
 90
        0
176
     1
 62
    18
420
        0
176
     1
 90
       50
176
     1
 90
        3
176
     1
 62
     5
420
      255
176
     1
290
     0
176
     1
 90
       50
176
     1
 90
       50
176
     1
 90
       50
176
     1
290
     0
176
     1
 90
       50
176
     1
 62
   256
176
     0
 40
1.0
176
     0
 90
        2
176
     1
  1
strokes_ogs.tif
176
     1
290
     0
176
     1
 40
1.0
176
     1
 40
1.0
176
     1
1001
ACAD
1000
AcDbSavedByObjectVersion
1070
     0
  0
VISUALSTYLE
  5
31
102
{ACAD_REACTORS
330
29
102
}
330
29
100
AcDbVisualStyle
  2
Hidden
 70
     6
177
     3
291
     0
 70
    58
 90
        1
176
     1
 90
        2
176
     1
 90
        2
176
     1
 90
        0
176
     1
 40
0.6
176
     1
 40
30.0
176
     1
 62
     7
420
 16777215
176
     1
 90
        2
176
     1
 90
        2
176
     1
 62
     7
176
     1
 62
   257
176
     1
 90
        2
176
     1
 90
        1
176
     1
 40
40.0
176
     1
 90
        0
176
     1
 62
   257
176
     1
 40
1.0
176
     1
 90
        1
176
     1
 90
        6
176
     1
 90
        2
176
     1
 62
     7
176
     1
 90
        3
176
     1
 90
        0
176
     1
 90
        0
176
     1
290
     0
176
     1
 90
        1
176
     1
 40
0.0
176
     1
 90
        0
176
     1
290
     0
176
     1
290
     1
176
     1
290
     1
176
     1
290
     0
176
     1
290
     0
176
     1
290
     0
176
     1
290
     0
176
     1
290
     0
176
     1
290
     0
176
     1
 90
       50
176
     1
 40
0.0
176
     1
 40
1.0
176
     1
 90
        0
176
     1
 62
    18
420
        0
176
     1
 90
       50
176
     1
 90
        3
176
     1
 62
     5
420
      255
176
     1
290
     0
176
     1
 90
       50
176
     1
 90
       50
176
     1
 90
       50
176
     1
290
     0
176
     1
 90
       50
176
     1
 62
   256
176
     0
 40
1.0
176
     0
 90
        2
176
     1
  1
strokes_ogs.tif
176
     1
290
     0
176
     1
 40
1.0
176
     1
 40
1.0
176
     1
1001
ACAD
1000
AcDbSavedByObjectVersion
1070
     0
  0
VISUALSTYLE
  5
3F
102
{ACAD_REACTORS
330
29
102
}
330
29
100
AcDbVisualStyle
  2
JitterOff
 70
    20
177
     3
291
     1
 70
    58
 90
        2
176
     0
 90
        2
176
     0
 90
        0
176
     0
 90
        0
176
     0
 40
0.6
176
     0
 40
30.0
176
     0
 62
     7
420
 16777215
176
     0
 90
        1
176
     0
 90
        4
176
     0
 62
     7
176
     0
 62
   257
176
     0
 90
        1
176
     0
 90
        1
176
     0
 40
1.0
176
     0
 90
       10
176
     2
 62
     7
176
     0
 40
1.0
176
     0
 90
        1
176
     0
 90
        6
176
     0
 90
        2
176
     0
 62
     7
176
     0
 90
        5
176
     0
 90
        0
176
     0
 90
        0
176
     0
290
     0
176
     0
 90
        1
176
     0
 40
0.0
176
     0
 90
        0
176
     0
290
     0
176
     0
290
     1
176
     0
290
     1
176
     0
290
     0
176
     0
290
     0
176
     0
290
     0
176
     0
290
     0
176
     0
290
     0
176
     0
290
     0
176
     0
 90
       50
176
     0
 40
0.0
176
     0
 40
1.0
176
     0
 90
        0
176
     0
 62
    18
420
        0
176
     0
 90
       50
176
     0
 90
        3
176
     0
 62
     5
420
      255
176
     0
290
     0
176
     0
 90
       50
176
     0
 90
       50
176
     0
 90
       50
176
     0
290
     0
176
     0
 90
       50
176
     0
 62
   256
176
     0
 40
1.0
176
     0
 90
        2
176
     0
  1
strokes_ogs.tif
176
     0
290
     0
176
     0
 40
1.0
176
     0
 40
1.0
176
     0
1001
ACAD
1000
AcDbSavedByObjectVersion
1070
     0
  0
VISUALSTYLE
  5
37
102
{ACAD_REACTORS
330
29
102
}
330
29
100
AcDbVisualStyle
  2
Linepattern
 70
    14
177
     3
291
     1
 70
    58
 90
        2
176
     1
 90
        2
176
     1
 90
        0
176
     1
 90
        0
176
     1
 40
0.6
176
     1
 40
30.0
176
     1
 62
     7
420
 16777215
176
     1
 90
        1
176
     1
 90
        4
176
     1
 62
     7
176
     1
 62
   257
176
     1
 90
        7
176
     1
 90
        7
176
     1
 40
1.0
176
     1
 90
        8
176
     1
 62
     7
176
     1
 40
1.0
176
     1
 90
        1
176
     1
 90
        6
176
     1
 90
        2
176
     1
 62
     7
176
     1
 90
        5
176
     1
 90
        0
176
     1
 90
        0
176
     1
290
     0
176
     1
 90
        1
176
     1
 40
0.0
176
     1
 90
        0
176
     1
290
     0
176
     1
290
     1
176
     1
290
     1
176
     1
290
     0
176
     1
290
     0
176
     1
290
     0
176
     1
290
     0
176
     1
290
     0
176
     1
290
     0
176
     1
 90
       50
176
     1
 40
0.0
176
     1
 40
1.0
176
     1
 90
        0
176
     1
 62
    18
420
        0
176
     1
 90
       50
176
     1
 90
        3
176
     1
 62
     5
420
      255
176
     1
290
     0
176
     1
 90
       50
176
     1
 90
       50
176
     1
 90
       50
176
     1
290
     0
176
     1
 90
       50
176
     1
 62
   256
176
     0
 40
1.0
176
     0
 90
        2
176
     1
  1
strokes_ogs.tif
176
     1
290
     0
176
     1
 40
1.0
176
     1
 40
1.0
176
     1
1001
ACAD
1000
AcDbSavedByObjectVersion
1070
     0
  0
VISUALSTYLE
  5
40
102
{ACAD_REACTORS
330
29
102
}
330
29
100
AcDbVisualStyle
  2
OverhangOff
 70
    21
177
     3
291
     1
 70
    58
 90
        2
176
     0
 90
        2
176
     0
 90
        0
176
     0
 90
        0
176
     0
 40
0.6
176
     0
 40
30.0
176
     0
 62
     7
420
 16777215
176
     0
 90
        1
176
     0
 90
        4
176
     0
 62
     7
176
     0
 62
   257
176
     0
 90
        1
176
     0
 90
        1
176
     0
 40
1.0
176
     0
 90
        9
176
     2
 62
     7
176
     0
 40
1.0
176
     0
 90
        1
176
     0
 90
        6
176
     0
 90
        2
176
     0
 62
     7
176
     0
 90
        5
176
     0
 90
        0
176
     0
 90
        0
176
     0
290
     0
176
     0
 90
        1
176
     0
 40
0.0
176
     0
 90
        0
176
     0
290
     0
176
     0
290
     1
176
     0
290
     1
176
     0
290
     0
176
     0
290
     0
176
     0
290
     0
176
     0
290
     0
176
     0
290
     0
176
     0
290
     0
176
     0
 90
       50
176
     0
 40
0.0
176
     0
 40
1.0
176
     0
 90
        0
176
     0
 62
    18
420
        0
176
     0
 90
       50
176
     0
 90
        3
176
     0
 62
     5
420
      255
176
     0
290
     0
176
     0
 90
       50
176
     0
 90
       50
176
     0
 90
       50
176
     0
290
     0
176
     0
 90
       50
176
     0
 62
   256
176
     0
 40
1.0
176
     0
 90
        2
176
     0
  1
strokes_ogs.tif
176
     0
290
     0
176
     0
 40
1.0
176
     0
 40
1.0
176
     0
1001
ACAD
1000
AcDbSavedByObjectVersion
1070
     0
  0
VISUALSTYLE
  5
33
102
{ACAD_REACTORS
330
29
102
}
330
29
100
AcDbVisualStyle
  2
Realistic
 70
     8
177
     3
291
     0
 70
    58
 90
        2
176
     1
 90
        3
176
     1
 90
        0
176
     1
 90
        2
176
     1
 40
0.6
176
     1
 40
30.0
176
     1
 62
     7
420
 16777215
176
     1
 90
        0
176
     1
 90
        0
176
     1
 62
     7
176
     1
 62
   257
176
     1
 90
        1
176
     1
 90
        1
176
     1
 40
1.0
176
     1
 90
        8
176
     1
 62
   257
176
     1
 40
1.0
176
     1
 90
        1
176
     1
 90
        6
176
     1
 90
        2
176
     1
 62
     7
176
     1
 90
        3
176
     1
 90
        0
176
     1
 90
        0
176
     1
290
     0
176
     1
 90
       13
176
     1
 40
0.0
176
     1
 90
        0
176
     1
290
     0
176
     1
290
     1
176
     1
290
     1
176
     1
290
     0
176
     1
290
     0
176
     1
290
     0
176
     1
290
     0
176
     1
290
     0
176
     1
290
     0
176
     1
 90
       50
176
     1
 40
0.0
176
     1
 40
1.0
176
     1
 90
        0
176
     1
 62
    18
420
        0
176
     1
 90
       50
176
     1
 90
        3
176
     1
 62
     5
420
      255
176
     1
290
     0
176
     1
 90
       50
176
     1
 90
       50
176
     1
 90
       50
176
     1
290
     0
176
     1
 90
       50
176
     1
 62
   256
176
     0
 40
1.0
176
     0
 90
        2
176
     1
  1
strokes_ogs.tif
176
     1
290
     0
176
     1
 40
1.0
176
     1
 40
1.0
176
     1
1001
ACAD
1000
AcDbSavedByObjectVersion
1070
     0
  0
VISUALSTYLE
  5
3E
102
{ACAD_REACTORS
330
29
102
}
330
29
100
AcDbVisualStyle
  2
Shaded
 70
    27
177
     3
291
     0
 70
    58
 90
        2
176
     1
 90
        2
176
     1
 90
        1
176
     1
 90
        2
176
     1
 40
0.6
176
     1
 40
30.0
176
     1
 62
     7
420
 16777215
176
     1
 90
        0
176
     1
 90
        4
176
     1
 62
     7
176
     1
 62
   257
176
     1
 90
        1
176
     1
 90
        1
176
     1
 40
1.0
176
     1
 90
        8
176
     1
 62
   257
176
     1
 40
1.0
176
     1
 90
        1
176
     1
 90
        6
176
     1
 90
        2
176
     1
 62
     8
420
  7895160
176
     1
 90
        3
176
     1
 90
        0
176
     1
 90
        0
176
     1
290
     0
176
     1
 90
        5
176
     1
 40
0.0
176
     1
 90
        0
176
     1
290
     0
176
     1
290
     1
176
     1
290
     1
176
     1
290
     0
176
     1
290
     0
176
     1
290
     0
176
     1
290
     0
176
     1
290
     0
176
     1
290
     0
176
     1
 90
       50
176
     1
 40
0.0
176
     1
 40
1.0
176
     1
 90
        0
176
     1
 62
    18
420
        0
176
     1
 90
       50
176
     1
 90
        3
176
     1
 62
     5
420
      255
176
     1
290
     0
176
     1
 90
       50
176
     1
 90
       50
176
     1
 90
       50
176
     1
290
     0
176
     1
 90
       50
176
     1
 62
   256
176
     0
 40
1.0
176
     0
 90
        2
176
     1
  1
strokes_ogs.tif
176
     1
290
     0
176
     1
 40
1.0
176
     1
 40
1.0
176
     1
1001
ACAD
1000
AcDbSavedByObjectVersion
1070
     0
  0
VISUALSTYLE
  5
3D
102
{ACAD_REACTORS
330
29
102
}
330
29
100
AcDbVisualStyle
  2
Shaded with edges
 70
    26
177
     3
291
     0
 70
    58
 90
        2
176
     1
 90
        2
176
     1
 90
        1
176
     1
 90
        2
176
     1
 40
0.6
176
     1
 40
30.0
176
     1
 62
     7
420
 16777215
176
     1
 90
        1
176
     1
 90
        2
176
     1
 62
     7
176
     1
 62
   257
176
     1
 90
        2
176
     1
 90
        1
176
     1
 40
1.0
176
     1
 90
        8
176
     1
 62
   257
176
     1
 40
1.0
176
     1
 90
        1
176
     1
 90
        6
176
     1
 90
        2
176
     1
 62
     7
176
     1
 90
        3
176
     1
 90
        0
176
     1
 90
        0
176
     1
290
     0
176
     1
 90
        5
176
     1
 40
0.0
176
     1
 90
        0
176
     1
290
     0
176
     1
290
     1
176
     1
290
     1
176
     1
290
     0
176
     1
290
     0
176
     1
290
     0
176
     1
290
     0
176
     1
290
     0
176
     1
290
     0
176
     1
 90
       50
176
     1
 40
0.0
176
     1
 40
1.0
176
     1
 90
        0
176
     1
 62
    18
420
        0
176
     1
 90
       50
176
     1
 90
        3
176
     1
 62
     5
420
      255
176
     1
290
     0
176
     1
 90
       50
176
     1
 90
       50
176
     1
 90
       50
176
     1
290
     0
176
     1
 90
       50
176
     1
 62
   256
176
     0
 40
1.0
176
     0
 90
        2
176
     1
  1
strokes_ogs.tif
176
     1
290
     0
176
     1
 40
1.0
176
     1
 40
1.0
176
     1
1001
ACAD
1000
AcDbSavedByObjectVersion
1070
     0
  0
VISUALSTYLE
  5
3A
102
{ACAD_REACTORS
330
29
102
}
330
29
100
AcDbVisualStyle
  2
Shades of Gray
 70
    23
177
     3
291
     0
 70
    58
 90
        2
176
     1
 90
        2
176
     1
 90
        3
176
     1
 90
        0
176
     1
 40
0.6
176
     1
 40
30.0
176
     1
 62
     7
420
 16777215
176
     1
 90
        2
176
     1
 90
        2
176
     1
 62
     7
176
     1
 62
     7
176
     1
 90
        1
176
     1
 90
        1
176
     1
 40
40.0
176
     1
 90
        8
176
     1
 62
     7
176
     1
 40
1.0
176
     1
 90
        1
176
     1
 90
        6
176
     1
 90
        2
176
     1
 62
     7
176
     1
 90
        3
176
     1
 90
        0
176
     1
 90
        0
176
     1
290
     0
176
     1
 90
        1
176
     1
 40
0.0
176
     1
 90
        0
176
     1
290
     0
176
     1
290
     1
176
     1
290
     1
176
     1
290
     0
176
     1
290
     0
176
     1
290
     0
176
     1
290
     0
176
     1
290
     0
176
     1
290
     0
176
     1
 90
       50
176
     1
 40
0.0
176
     1
 40
1.0
176
     1
 90
        0
176
     1
 62
    18
420
        0
176
     1
 90
       50
176
     1
 90
        3
176
     1
 62
     5
420
      255
176
     1
290
     0
176
     1
 90
       50
176
     1
 90
       50
176
     1
 90
       50
176
     1
290
     0
176
     1
 90
       50
176
     1
 62
   256
176
     0
 40
1.0
176
     0
 90
        2
176
     1
  1
strokes_ogs.tif
176
     1
290
     0
176
     1
 40
1.0
176
     1
 40
1.0
176
     1
1001
ACAD
1000
AcDbSavedByObjectVersion
1070
     0
  0
VISUALSTYLE
  5
3B
102
{ACAD_REACTORS
330
29
102
}
330
29
100
AcDbVisualStyle
  2
Sketchy
 70
    24
177
     3
291
     0
 70
    58
 90
        1
176
     1
 90
        2
176
     1
 90
        2
176
     1
 90
        0
176
     1
 40
0.6
176
     1
 40
30.0
176
     1
 62
     7
420
 16777215
176
     1
 90
        2
176
     1
 90
        2
176
     1
 62
     7
176
     1
 62
     7
176
     1
 90
        1
176
     1
 90
        1
176
     1
 40
40.0
176
     1
 90
       11
176
     1
 62
     7
176
     1
 40
1.0
176
     1
 90
        1
176
     1
 90
        6
176
     1
 90
        2
176
     1
 62
     7
176
     1
 90
        6
176
     1
 90
        0
176
     1
 90
        0
176
     1
290
     0
176
     1
 90
        1
176
     1
 40
0.0
176
     1
 90
        0
176
     1
290
     0
176
     1
290
     1
176
     1
290
     1
176
     1
290
     0
176
     1
290
     0
176
     1
290
     0
176
     1
290
     0
176
     1
290
     0
176
     1
290
     0
176
     1
 90
       50
176
     1
 40
0.0
176
     1
 40
1.0
176
     1
 90
        0
176
     1
 62
    18
420
        0
176
     1
 90
       50
176
     1
 90
        3
176
     1
 62
     5
420
      255
176
     1
290
     0
176
     1
 90
       50
176
     1
 90
       50
176
     1
 90
       50
176
     1
290
     0
176
     1
 90
       50
176
     1
 62
   256
176
     0
 40
1.0
176
     0
 90
        2
176
     1
  1
strokes_ogs.tif
176
     1
290
     0
176
     1
 40
1.0
176
     1
 40
1.0
176
     1
1001
ACAD
1000
AcDbSavedByObjectVersion
1070
     0
  0
VISUALSTYLE
  5
36
102
{ACAD_REACTORS
330
29
102
}
330
29
100
AcDbVisualStyle
  2
Thicken
 70
    13
177
     3
291
     1
 70
    58
 90
        2
176
     1
 90
        2
176
     1
 90
        0
176
     1
 90
        0
176
     1
 40
0.6
176
     1
 40
30.0
176
     1
 62
     7
420
 16777215
176
     1
 90
        1
176
     1
 90
        4
176
     1
 62
     7
176
     1
 62
   257
176
     1
 90
        1
176
     1
 90
        1
176
     1
 40
1.0
176
     1
 90
       12
176
     1
 62
     7
176
     1
 40
1.0
176
     1
 90
        1
176
     1
 90
        6
176
     1
 90
        2
176
     1
 62
     7
176
     1
 90
        5
176
     1
 90
        0
176
     1
 90
        0
176
     1
290
     0
176
     1
 90
        1
176
     1
 40
0.0
176
     1
 90
        0
176
     1
290
     0
176
     1
290
     1
176
     1
290
     1
176
     1
290
     0
176
     1
290
     0
176
     1
290
     0
176
     1
290
     0
176
     1
290
     0
176
     1
290
     0
176
     1
 90
       50
176
     1
 40
0.0
176
     1
 40
1.0
176
     1
 90
        0
176
     1
 62
    18
420
        0
176
     1
 90
       50
176
     1
 90
        3
176
     1
 62
     5
420
      255
176
     1
290
     0
176
     1
 90
       50
176
     1
 90
       50
176
     1
 90
       50
176
     1
290
     0
176
     1
 90
       50
176
     1
 62
   256
176
     0
 40
1.0
176
     0
 90
        2
176
     1
  1
strokes_ogs.tif
176
     1
290
     0
176
     1
 40
1.0
176
     1
 40
1.0
176
     1
1001
ACAD
1000
AcDbSavedByObjectVersion
1070
     0
  0
VISUALSTYLE
  5
30
102
{ACAD_REACTORS
330
29
102
}
330
29
100
AcDbVisualStyle
  2
Wireframe
 70
     5
177
     3
291
     0
 70
    58
 90
        0
176
     1
 90
        2
176
     1
 90
        0
176
     1
 90
        0
176
     1
 40
0.6
176
     1
 40
30.0
176
     1
 62
     7
420
 16777215
176
     1
 90
        1
176
     1
 90
        4
176
     1
 62
     7
176
     1
 62
   257
176
     1
 90
        1
176
     1
 90
        1
176
     1
 40
1.0
176
     1
 90
        0
176
     1
 62
   257
176
     1
 40
1.0
176
     1
 90
        1
176
     1
 90
        6
176
     1
 90
        2
176
     1
 62
     7
176
     1
 90
        3
176
     1
 90
        0
176
     1
 90
        0
176
     1
290
     0
176
     1
 90
        1
176
     1
 40
0.0
176
     1
 90
        0
176
     1
290
     0
176
     1
290
     1
176
     1
290
     1
176
     1
290
     0
176
     1
290
     0
176
     1
290
     0
176
     1
290
     0
176
     1
290
     0
176
     1
290
     0
176
     1
 90
       50
176
     1
 40
0.0
176
     1
 40
1.0
176
     1
 90
        0
176
     1
 62
    18
420
        0
176
     1
 90
       50
176
     1
 90
        3
176
     1
 62
     5
420
      255
176
     1
290
     0
176
     1
 90
       50
176
     1
 90
       50
176
     1
 90
       50
176
     1
290
     0
176
     1
 90
       50
176
     1
 62
   256
176
     0
 40
1.0
176
     0
 90
        2
176
     1
  1
strokes_ogs.tif
176
     1
290
     0
176
     1
 40
1.0
176
     1
 40
1.0
176
     1
1001
ACAD
1000
AcDbSavedByObjectVersion
1070
     0
  0
VISUALSTYLE
  5
3C
102
{ACAD_REACTORS
330
29
102
}
330
29
100
AcDbVisualStyle
  2
X-Ray
 70
    25
177
     3
291
     0
 70
    58
 90
        2
176
     1
 90
        2
176
     1
 90
        1
176
     1
 90
        1
176
     1
 40
0.5
176
     1
 40
30.0
176
     1
 62
     7
420
 16777215
176
     1
 90
        1
176
     1
 90
        0
176
     1
 62
     7
176
     1
 62
   257
176
     1
 90
        1
176
     1
 90
        1
176
     1
 40
1.0
176
     1
 90
        8
176
     1
 62
     7
176
     1
 40
1.0
176
     1
 90
        1
176
     1
 90
        6
176
     1
 90
        2
176
     1
 62
     7
176
     1
 90
        3
176
     1
 90
        0
176
     1
 90
        0
176
     1
290
     0
176
     1
 90
       13
176
     1
 40
0.0
176
     1
 90
        0
176
     1
290
     0
176
     1
290
     1
176
     1
290
     1
176
     1
290
     0
176
     1
290
     0
176
     1
290
     0
176
     1
290
     0
176
     1
290
     0
176
     1
290
     0
176
     1
 90
       50
176
     1
 40
0.0
176
     1
 40
1.0
176
     1
 90
        0
176
     1
 62
    18
420
        0
176
     1
 90
       50
176
     1
 90
        3
176
     1
 62
     5
420
      255
176
     1
290
     0
176
     1
 90
       50
176
     1
 90
       50
176
     1
 90
       50
176
     1
290
     0
176
     1
 90
       50
176
     1
 62
   256
176
     0
 40
1.0
176
     0
 90
        2
176
     1
  1
strokes_ogs.tif
176
     1
290
     0
176
     1
 40
1.0
176
     1
 40
1.0
176
     1
1001
ACAD
1000
AcDbSavedByObjectVersion
1070
     0
  0
DICTIONARYVAR
  5
88
102
{ACAD_REACTORS
330
83
102
}
330
83
100
DictionaryVariables
280
     0
  1
1:1
  0
DICTIONARYVAR
  5
85
102
{ACAD_REACTORS
330
83
102
}
330
83
100
DictionaryVariables
280
     0
  1
STANDARD
  0
DICTIONARYVAR
  5
84
102
{ACAD_REACTORS
330
83
102
}
330
83
100
DictionaryVariables
280
     0
  1
STANDARD
  0
DICTIONARYVAR
  5
86
102
{ACAD_REACTORS
330
83
102
}
330
83
100
DictionaryVariables
280
     0
  1
Imperial24
  0
DICTIONARYVAR
  5
87
102
{ACAD_REACTORS
330
83
102
}
330
83
100
DictionaryVariables
280
     0
  1
Imperial24
  0
DICTIONARY
  5
8E
330
6B
100
AcDbDictionary
280
     1
281
     1
  3
ACAD_XREC_ROUNDTRIP
360
8F
  0
DICTIONARY
  5
1A
330
19
100
AcDbDictionary
280
     1
281
     1
  3
BUMPTILE
360
1C
  3
DIFFUSETILE
360
1B
  3
OPACITYTILE
360
1F
  3
REFLECTIONTILE
360
1E
  3
REFRACTIONTILE
360
20
  3
SPECULARTILE
360
1D
  0
DICTIONARY
  5
12
330
11
100
AcDbDictionary
280
     1
281
     1
  3
BUMPTILE
360
14
  3
DIFFUSETILE
360
13
  3
OPACITYTILE
360
17
  3
REFLECTIONTILE
360
16
  3
REFRACTIONTILE
360
18
  3
SPECULARTILE
360
15
  0
DICTIONARY
  5
22
330
21
100
AcDbDictionary
280
     1
281
     1
  3
BUMPTILE
360
24
  3
DIFFUSETILE
360
23
  3
OPACITYTILE
360
27
  3
REFLECTIONTILE
360
26
  3
REFRACTIONTILE
360
28
  3
SPECULARTILE
360
25
  0
DICTIONARY
  5
8C
330
69
100
AcDbDictionary
280
     1
281
     1
  3
ACAD_XREC_ROUNDTRIP
360
8D
  0
DICTIONARY
  5
89
330
65
100
AcDbDictionary
280
     1
281
     1
  3
ACAD_ROUNDTRIP_2008_TABLESTYLE_CELLSTYLEMAP
360
8A
  0
XRECORD
  5
8F
102
{ACAD_REACTORS
330
8E
102
}
330
8E
100
AcDbXrecord
280
     1
102
DISPLAYNAME
  1
Imperial24
102
FLAGS
 90
        0
  0
XRECORD
  5
1C
102
{ACAD_REACTORS
330
1A
102
}
330
1A
100
AcDbXrecord
280
     1
270
     1
271
     1
  0
XRECORD
  5
1B
102
{ACAD_REACTORS
330
1A
102
}
330
1A
100
AcDbXrecord
280
     1
270
     1
271
     1
  0
XRECORD
  5
1F
102
{ACAD_REACTORS
330
1A
102
}
330
1A
100
AcDbXrecord
280
     1
270
     1
271
     1
  0
XRECORD
  5
1E
102
{ACAD_REACTORS
330
1A
102
}
330
1A
100
AcDbXrecord
280
     1
270
     1
271
     1
  0
XRECORD
  5
20
102
{ACAD_REACTORS
330
1A
102
}
330
1A
100
AcDbXrecord
280
     1
270
     1
271
     1
  0
XRECORD
  5
1D
102
{ACAD_REACTORS
330
1A
102
}
330
1A
100
AcDbXrecord
280
     1
270
     1
271
     1
  0
XRECORD
  5
14
102
{ACAD_REACTORS
330
12
102
}
330
12
100
AcDbXrecord
280
     1
270
     1
271
     1
  0
XRECORD
  5
13
102
{ACAD_REACTORS
330
12
102
}
330
12
100
AcDbXrecord
280
     1
270
     1
271
     1
  0
XRECORD
  5
17
102
{ACAD_REACTORS
330
12
102
}
330
12
100
AcDbXrecord
280
     1
270
     1
271
     1
  0
XRECORD
  5
16
102
{ACAD_REACTORS
330
12
102
}
330
12
100
AcDbXrecord
280
     1
270
     1
271
     1
  0
XRECORD
  5
18
102
{ACAD_REACTORS
330
12
102
}
330
12
100
AcDbXrecord
280
     1
270
     1
271
     1
  0
XRECORD
  5
15
102
{ACAD_REACTORS
330
12
102
}
330
12
100
AcDbXrecord
280
     1
270
     1
271
     1
  0
XRECORD
  5
24
102
{ACAD_REACTORS
330
22
102
}
330
22
100
AcDbXrecord
280
     1
270
     1
271
     1
  0
XRECORD
  5
23
102
{ACAD_REACTORS
330
22
102
}
330
22
100
AcDbXrecord
280
     1
270
     1
271
     1
  0
XRECORD
  5
27
102
{ACAD_REACTORS
330
22
102
}
330
22
100
AcDbXrecord
280
     1
270
     1
271
     1
  0
XRECORD
  5
26
102
{ACAD_REACTORS
330
22
102
}
330
22
100
AcDbXrecord
280
     1
270
     1
271
     1
  0
XRECORD
  5
28
102
{ACAD_REACTORS
330
22
102
}
330
22
100
AcDbXrecord
280
     1
270
     1
271
     1
  0
XRECORD
  5
25
102
{ACAD_REACTORS
330
22
102
}
330
22
100
AcDbXrecord
280
     1
270
     1
271
     1
  0
XRECORD
  5
8D
102
{ACAD_REACTORS
330
8C
102
}
330
8C
100
AcDbXrecord
280
     1
102
DISPLAYNAME
  1
Imperial24
102
FLAGS
 90
        0
  0
CELLSTYLEMAP
  5
8A
102
{ACAD_REACTORS
330
89
102
}
330
89
100
AcDbCellStyleMap
 90
        3
300
CELLSTYLE
  1
TABLEFORMAT_BEGIN
 90
        5
170
     1
 91
        0
 92
    32768
 62
   257
 93
        1
300
CONTENTFORMAT
  1
CONTENTFORMAT_BEGIN
 90
        0
 91
        0
 92
      512
 93
        0
300

 40
0.0
140
1.0
 94
        5
 62
     0
340
55
144
0.25
309
CONTENTFORMAT_END
171
     0
 94
        0
309
TABLEFORMAT_END
  1
CELLSTYLE_BEGIN
 90
        1
 91
        1
300
_TITLE
309
CELLSTYLE_END
300
CELLSTYLE
  1
TABLEFORMAT_BEGIN
 90
        5
170
     1
 91
        0
 92
        0
 62
   257
 93
        1
300
CONTENTFORMAT
  1
CONTENTFORMAT_BEGIN
 90
        0
 91
        0
 92
      512
 93
        0
300

 40
0.0
140
1.0
 94
        5
 62
     0
340
55
144
0.18
309
CONTENTFORMAT_END
171
     0
 94
        0
309
TABLEFORMAT_END
  1
CELLSTYLE_BEGIN
 90
        2
 91
        1
300
_HEADER
309
CELLSTYLE_END
300
CELLSTYLE
  1
TABLEFORMAT_BEGIN
 90
        5
170
     1
 91
        0
 92
        0
 62
   257
 93
        1
300
CONTENTFORMAT
  1
CONTENTFORMAT_BEGIN
 90
        0
 91
        0
 92
      512
 93
        0
300

 40
0.0
140
1.0
 94
        2
 62
     0
340
55
144
0.18
309
CONTENTFORMAT_END
171
     0
 94
        0
309
TABLEFORMAT_END
  1
CELLSTYLE_BEGIN
 90
        3
 91
        2
300
_DATA
309
CELLSTYLE_END
  0
ENDSEC
  0
EOF
