<?xml version="1.0" encoding="utf-8"?>
<!-- Generator: Adobe Illustrator 25.4.8, SVG Export Plug-In . SVG Version: 6.00 Build 0)  -->
<svg version="1.1" id="Слой_1" xmlns="http://www.w3.org/2000/svg" xmlns:xlink="http://www.w3.org/1999/xlink" x="0px" y="0px"
	 viewBox="0 0 864 864" style="enable-background:new 0 0 864 864;" xml:space="preserve">
<path d="M587.25,163.23c13.29-4.42,26.1-15.45,40.64-2.99c15.57,13.35,8.02,28.91,5.05,44.62c-5.33,28.22-20.04,54.72-17.71,85.27
	c19.6-2.65,31.06-11.18,34.86-29.67c2.93-14.28,7.48-28.25,11.73-42.23c5.42-17.81,7.51-41.66,33.93-37.16
	c29.22,4.98,23.08,28.18,16.09,51.98c22.83-2.02,36.34-16.35,52.67-23.75c16.11-7.3,32.34-10.29,41.48,8.55
	c7.67,15.81-1,27.86-15.21,36.35c-13.73,8.2-27.2,16.81-40.23,24.9c-1.44,14.51,10.29,12.96,16.86,16.69
	c13.44,7.61,18.64,18.83,13.18,33.09c-5.71,14.92-18.42,17.5-32.6,14.22c-18.52-4.28-37.46-7.55-55.22-14
	c-19.63-7.13-33.53-0.67-52.24,16.59c34.17,9.92,63.83,19.02,93.78,27.06c18.76,5.04,35.12,12.78,28.52,35.43
	c-6.63,22.78-24.93,19.75-43.24,14.59c-29.55-8.33-61.2-11.67-88.69-24.27c-56.33-25.82-97.24-0.28-139.84,33.05
	c42.23,35.11,83.37,59.18,139.9,33.88c30.29-13.56,64.59-18.21,97.12-26.7c16.19-4.23,29.91-0.7,34.99,16.65
	c5.04,17.19-3.9,28.27-20.21,33.03c-32.21,9.4-64.58,18.23-99.28,27.97c12.9,19.99,27.51,26.09,48.06,18.49
	c9.55-3.53,19.63-6.02,29.69-7.68c20.24-3.33,44.89-20.7,58.48,6.96C794.62,564.24,759.7,566,745,581.56
	c17.41,10.63,33.84,19.97,49.51,30.44c14.07,9.4,19.07,23.04,9.32,37.74c-8.57,12.92-22,13.25-35.14,6.55
	c-16.66-8.5-33.01-17.61-51.57-27.57c-0.67,7.67-2.09,12-1.2,15.78c4.2,17.78,2.3,33.32-18.18,37.79
	c-20.41,4.45-28.48-9.33-32.97-26.68c-4.39-16.98-10.58-33.54-14.13-50.67c-4.11-19.78-15.61-29.54-39.43-32.67
	c7.83,31.68,14.62,61.25,22.56,90.5c4.91,18.09,8.97,37.03-13.35,44.04c-25.91,8.14-31.84-12.88-37.11-31.88
	c-7.03-25.36-17.66-50.38-20.18-76.19c-6.08-62.14-41.47-96.58-101.64-114.64c-6.98,47.23-14.01,91.99,32.13,128.02
	c27.47,21.45,50.07,49.16,74.72,74.2c12.81,13.01,25.89,27.61,9.06,45.08c-16.77,17.4-32.42,6.16-44.97-7.57
	c-21.37-23.38-41.78-47.64-66.7-76.24c-12.01,32.21-8.42,47.65,6.28,60.87c8.7,7.82,17.26,15.96,24.75,24.91
	c13.06,15.6,40.34,28.25,19.39,54.08c-19.36,23.87-35.71-2.53-58.97-10.1c0,20.7,0.07,38.89-0.02,57.08
	c-0.08,16.82-7.15,29.5-25.03,29.56c-18.03,0.06-24.58-13.6-25.81-29.64c-1.23-15.92-1.61-31.9-2.28-45.87
	c-7.2-7.78-12.3-3.93-16.73-0.8c-14.96,10.57-29.98,14.26-41.89-3.01c-10.43-15.11-1.66-27.7,9.13-38.76
	c11.24-11.53,22.32-23.25,34.1-34.21c14.02-13.06,21.35-27.5,12.28-49.54c-29.79,14.55-46.7,42.49-69.84,62.96
	c-14.55,12.88-29.38,22.74-45.21,5.12c-14.05-15.64-3.98-29.6,8.25-41.84c21.73-21.74,41.14-46.49,65.38-64.89
	c47.63-36.16,54.37-82.39,41.41-138.29c-49.26,17.22-89.48,39.08-96.12,98.96c-3.66,33.03-16.24,65.13-25.49,97.46
	c-4.74,16.57-13.47,31.09-33.94,25.82c-20.68-5.33-20.81-22.35-16.69-39.03c7.66-31.01,16.26-61.79,24.9-94.32
	c-27.86-0.41-36.36,16.34-41.91,36.29c-2.74,9.85-5.21,19.79-8.02,29.62c-5.47,19.1-5.66,44.88-34.32,42.47
	c-31.27-2.62-17.85-31.24-23.5-49.05c-17.5,0.32-29.28,12.67-43.38,19.66c-15.33,7.6-31.47,13.85-42.52-4.15
	c-12.47-20.32,1.41-32.28,17.8-42.03c13.6-8.09,26.99-16.53,43.74-26.82c-11.16-5.53-19.07-8.88-26.4-13.22
	c-10.99-6.51-17.48-16-13.25-29.19c4.8-14.95,16.38-20.34,31.06-17.39c18.62,3.74,37.55,7.17,55.31,13.59
	c20.59,7.45,36.73,4.29,54.18-16.61c-33.62-9.6-64.83-18.71-96.16-27.4c-17.37-4.82-30.91-13.77-25.38-33.65
	c5.37-19.32,20.71-21.82,38.78-16.64c28.1,8.04,58.27,11.25,84.4,23.35c57.8,26.76,103.98,8.45,149.4-31.28
	c-42.63-32.57-83.3-60.55-141.26-32.98c-28.55,13.59-61.74,17.38-92.78,25.79c-17.82,4.83-33.43,2.23-38.55-17.41
	c-5.26-20.19,8.73-28.68,25.87-33.4c30.88-8.5,61.7-17.19,95.22-26.55c-14.64-19.51-29.76-25.34-50.22-17.82
	c-10.93,4.02-22.38,7.14-33.87,8.97c-18.96,3.03-42.03,17.71-54.1-9.1c-12.93-28.72,16.68-31.35,35.4-45.73
	c-18.16-11.6-34.86-21.53-50.72-32.66c-11.92-8.37-17.29-20.13-9.75-34.29c7.73-14.51,20.99-15.56,34.03-9.91
	c17.15,7.43,33.41,16.89,53.32,27.16c0.56-10.64,1.29-17.41,1.2-24.18c-0.2-14.85,4.69-26.19,20.7-28.73
	c18.58-2.95,26.46,9.62,31.12,24.36c4.85,15.31,8.54,31.01,12.2,46.66c4.63,19.84,13.66,35.35,38.58,40.13
	c0.8-32.79-13.52-61.46-20.07-91.57c-3.93-18.04-7.52-37.21,14.83-44.02c22.81-6.95,30.6,10.94,35.57,28.85
	c9,32.4,21.73,64.45,25.39,97.48c6.49,58.68,48.38,77.17,95.64,97.38c9.56-53.95,10.58-100.31-37.35-136
	c-24.39-18.17-43.96-42.83-65.63-64.63c-13.72-13.81-30.22-29.17-10.05-47.79c19.38-17.88,34.75-1.69,48.27,12.31
	c19.15,19.84,37.97,40.01,58.16,61.35c19.93-26.47,6.19-40.98-8.42-55.36c-7.3-7.19-14.76-14.25-21.64-21.83
	c-13.29-14.63-35.08-28.19-17-51.43c16.36-21.02,33.89-3.81,49.65,5.86c13.72-17.57,6.45-35.63,8.69-52.09
	c2.16-15.87,7.14-30.15,25.16-30.47c20.64-0.36,26.5,14.45,26.29,32.74c-0.18,16.05-0.04,32.11-0.04,46.91
	c12.42,9.46,17.09-1.79,23.32-5.97c12.64-8.47,24.46-9.91,35.34,1.87c12.69,13.75,7.95,26.93-3.18,38.79
	c-12.02,12.8-24.04,25.71-37.11,37.39c-15.75,14.07-22.83,29.93-14.59,53.3c27.57-15.5,44.94-41.3,67.08-61.51
	c33.97-31.01,48.48-26.27,59.83,20.34c-33.7,21.03-54.63,56.27-85.96,79.21c-48.76,35.69-50.05,82.86-41.12,139.26
	c33.06-19.23,74.08-24.62,86.56-62.82C564.11,268.52,574.29,215.42,587.25,163.23z"/>
</svg>
