<?xml version="1.0" encoding="utf-8"?>
<!-- Generator: Adobe Illustrator 25.4.8, SVG Export Plug-In . SVG Version: 6.00 Build 0)  -->
<svg version="1.1" id="Слой_1" xmlns="http://www.w3.org/2000/svg" xmlns:xlink="http://www.w3.org/1999/xlink" x="0px" y="0px"
	 viewBox="0 0 864 864" style="enable-background:new 0 0 864 864;" xml:space="preserve">
<g>
	<path d="M426.63,864c-2.74-9.58-6.43-18.83-9.75-28.2c-13.74-38.83-27.59-77.63-41.39-116.44c-1.25-3.52-1.13-3.71,2.77-3.07
		c20.32,3.33,40.74,5.17,61.36,4.66c13.38-0.33,26.64-1.76,39.86-3.72c2.55-0.38,5.12-0.65,7.66-1.06c2.05-0.33,2.51,0.1,1.73,2.23
		c-4.37,11.99-8.59,24.03-12.85,36.06c-12.68,35.76-25.37,71.52-38.04,107.29c-0.26,0.72-0.37,1.5-0.55,2.25
		C433.83,864,430.23,864,426.63,864z M395.98,733.52c12.1,34.05,23.93,67.36,36.06,101.5c12.18-34.33,24.02-67.67,36.03-101.52
		c-12.41,1.28-24.17,2.11-35.96,2.13C420.22,735.64,408.36,734.73,395.98,733.52z"/>
	<path d="M863.99,437.44c-9.48,2.68-18.63,6.34-27.9,9.62c-38.95,13.77-77.85,27.67-116.76,41.52c-3.56,1.27-3.7,1.18-3.05-2.78
		c3.34-20.32,5.17-40.74,4.66-61.36c-0.33-13.38-1.76-26.64-3.72-39.86c-0.38-2.55-0.65-5.12-1.06-7.66
		c-0.32-2.02,0.03-2.54,2.21-1.75c11.15,4.07,22.36,7.96,33.54,11.93c36.39,12.93,72.78,25.88,109.18,38.8
		c0.94,0.33,1.93,0.49,2.9,0.72C863.99,430.24,863.99,433.84,863.99,437.44z M733.42,395.97c2.81,24.21,2.8,47.94,0.01,72.14
		c33.98-12.07,67.33-23.91,101.58-36.07C800.75,419.88,767.39,408.03,733.42,395.97z"/>
	<path d="M429.12,682.38c-1.18,6.7-1.17,6.52-7.95,5.9c-9.72-0.89-19.44-1.76-29.14-2.95c-2.91-0.36-3.75-1.16-2.86-3.86
		c0.2-0.62,0.17-1.31,0.27-2.18c-0.3,0.29-0.47,0.37-0.51,0.5c-1.65,4.7-1.62,4.59-6.62,3.57c-9.88-2.02-19.62-4.53-29.22-7.61
		c-26.95-8.62-51.71-21.48-74.52-38.16c-1.79-1.31-1.78-1.32-0.58-4.43c-1.88,2.95-3.37,1.66-5.24,0.07
		c-8.24-6.98-16.16-14.3-24.05-21.67c-2.23-2.08-2.56-3.5-0.09-5.36c0.43-0.32,0.74-0.8,1.22-1.33c-0.4,0-0.64-0.08-0.75,0.01
		c-3.71,2.92-3.7,2.92-6.91-0.65c-16.5-18.4-30.14-38.73-41-60.93c-1.06-2.17-1.07-2.17,2.3-4.37c-0.2-0.07-0.47-0.26-0.58-0.2
		c-2.97,1.77-4.14,0.66-5.3-2.43c-3.66-9.74-7.58-19.39-10.85-29.28c-0.96-2.89-1.9-5.18,2.5-5.55c-0.27-0.31-0.41-0.54-0.46-0.52
		c-3.67,1.45-4.32-0.8-4.97-3.69c-2.37-10.6-4.57-21.23-6.4-31.94c-0.38-2.21-0.27-3.09,2.12-3.07c0.96,0.01,1.93-0.49,2.99-0.79
		c-0.28-0.15-0.43-0.3-0.59-0.3c-4.76-0.02-4.65-0.03-5.19-4.83c-1.22-10.75-1.3-21.53-1.13-32.32c0.03-1.85,0.1-3.41,2.85-3.08
		c-2.09,0.08-2.65-0.57-2.52-2.59c0.76-11.55,2.25-22.98,4.2-34.39c0.5-2.9,1.28-3.8,4.01-2.7c0.37,0.15,0.86,0.02,1.39,0.02
		c-0.17-0.22-0.24-0.42-0.37-0.47c-4.36-1.64-4.32-1.63-3.09-6.39c2.44-9.43,5.03-18.81,8.21-28.03c1.7-4.93,1.61-4.96,6.65-3.69
		c-0.11-0.16-0.16-0.34-0.27-0.4c-4.25-2.31-4.19-2.28-2.28-6.91c3.84-9.33,8.36-18.35,12.68-27.46c1.41-2.97,2.6-4.56,5.79-1.89
		c-0.12-2.04-3.09-1.52-2.57-3.35c0.38-1.35,1.49-2.49,2.24-3.74c12.71-21.26,28.48-40.01,46.66-56.78c1.71-1.57,1.7-1.58,4.89,0.67
		c-3.55-3.16-0.92-4.52,1.3-6.28c8.02-6.34,16.19-12.48,24.53-18.4c2.28-1.62,4.27-3.45,5.31-1c-1.87-2.06,0.94-3.04,3.24-4.38
		c8.82-5.16,17.85-9.91,26.98-14.49c2.79-1.4,5.45-3.44,5.96,2.14c1.13-1.22,0.34-1.94,0.03-2.44c-1.1-1.8,0.03-2.24,1.37-2.79
		c22.47-9.28,45.67-15.76,69.9-18.34c0.22-0.02,0.45-0.04,0.67-0.08c5.82-0.88,5.82-0.88,6.73,4.95c0.09-0.17,0.24-0.32,0.24-0.47
		c0.31-5.63,0.31-5.52,5.99-5.73c9.78-0.35,19.54-0.28,29.32-0.07c3.17,0.07,5.77,0.01,4.48,4.41c0.87-0.09,0.71-0.59,0.76-0.92
		c0.07-0.44,0.07-0.9,0.09-1.35c0.04-1.37,0.48-1.92,2.07-1.72c11.79,1.48,23.54,3.04,35.16,5.63
		c26.84,5.99,52.01,16.13,75.78,29.87c2.31,1.34,2.32,1.33,1.57,4.53c1.66-2.78,2.88-2.06,4.62-0.96c6.65,4.18,13,8.8,19.22,13.55
		c5.88,4.49,11.26,9.61,16.9,14.41c1.03,0.88,1.02,1.49,0.05,2.37c-0.74,0.67-1.32,1.51-2.01,2.32c0.3,0.07,0.56,0.21,0.65,0.13
		c3.46-2.88,3.4-2.83,6.52,0.29c7.32,7.33,14.12,15.12,20.85,22.97c1.51,1.77,4.35,3.5-0.23,6.08c3.13-2.6,4.22-0.82,5.65,1.13
		c14.41,19.7,26.11,40.86,34.76,63.69c1.59,4.2,1.64,4.18-2.18,6.15c0.17,0.1,0.39,0.31,0.48,0.26c3.86-1.91,4.66,0.45,5.52,3.56
		c2.79,10.03,5.49,20.08,7.91,30.2c0.64,2.66,0.68,4.45-2.68,4.54c-0.53,0.01-1.05,0.31-1.65,0.49c0.17,0.15,0.26,0.27,0.39,0.34
		c1.6,0.79,3.68-1.66,4.82,0.32c0.78,1.34,0.46,3.29,0.75,4.94c1.77,10.08,1.93,20.33,3.24,30.45c0.52,4.05-1.92,3.59-4.38,3.67
		c0.21,0.29,0.32,0.6,0.43,0.6c3.72-0.07,3.72,2.02,3.64,5.07c-0.28,11.24-0.85,22.45-2.41,33.59c-1.89,13.49-4.89,26.73-8.56,39.85
		c-0.97,3.48-3,0.22-4.23,1.32c0.67,1.32,3.09,0.56,3.17,2.09c0.07,1.34-0.75,2.75-1.25,4.11c-3.65,9.87-7.52,19.66-11.76,29.3
		c-1.05,2.4-1.92,3.66-4.87,1.98c3.07,1.68,2.31,3.41,1.1,5.61c-5.1,9.24-10.6,18.23-16.11,27.23c-1.52,2.49-2.72,4.72-6.17,1.59
		c3.49,2.26,1.98,3.99,0.36,6.13c-14.83,19.67-32.21,36.77-51.75,51.74c-2.46,1.89-4.05,2.33-5.45-0.96
		c-0.16,0.39-0.35,0.67-0.3,0.73c2.22,2.43,1.44,3.75-1.24,5.43c-8.85,5.55-17.68,11.09-26.77,16.24c-2.51,1.42-4.9,3.53-5.64,0.28
		c2.09,2.72-1.34,3.29-3.87,4.48c-19.2,9.04-39.11,16-59.93,20.21c-16.37,3.31-32.91,4.89-49.61,5.2c-3.21,0.06-4.92-0.51-4.25-4.09
		C429.43,683.98,429.23,683.41,429.12,682.38z M195.15,432.39c0.99,127.27,100.55,233.9,233.22,236.25
		c129.47,2.3,242.91-99.57,240.71-242.41c-1.88-121.95-99.2-231.06-237.95-231.26C303.59,194.8,196.07,297.09,195.15,432.39z"/>
	<path d="M591.24,190.66c52.44-24.95,104.03-49.49,155.61-74.03c0.21,0.17,0.42,0.33,0.63,0.5
		c-24.55,51.62-49.11,103.23-74.04,155.65C651.07,240.18,624.06,213.02,591.24,190.66z M619.4,193.35
		c9.74,7.8,18.74,15.75,27.26,24.26c8.47,8.45,16.3,17.47,24.09,27.01c15.53-32.65,30.84-64.84,46.54-97.83
		C684.25,162.5,652.09,177.8,619.4,193.35z"/>
	<path d="M117.91,116.63c51.39,24.57,102.79,49.14,154.86,74.03c-32.68,22.36-59.8,49.45-82.16,82.21
		c-24.64-52.32-48.95-103.95-73.26-155.58C117.54,117.06,117.73,116.85,117.91,116.63z M193.39,244.65
		c15.2-19.23,32.17-36.1,51.29-51.32c-32.49-15.52-64.51-30.83-97.36-46.53C162.88,179.87,178,211.97,193.39,244.65z"/>
	<path d="M673.42,591.3c24.99,52.27,49.62,103.8,74.65,156.16c-52.25-24.97-103.8-49.61-156.11-74.62
		C624.24,650.54,651.26,623.74,673.42,591.3z M670.72,619.38c-15.04,18.95-31.78,35.65-50.76,50.72
		c32.44,15.51,64.47,30.82,97.23,46.48C701.49,683.74,686.19,651.74,670.72,619.38z"/>
	<path d="M117.31,746.18c24.31-51.38,48.62-102.75,73.3-154.92c22.37,32.69,49.51,59.84,82.2,82.2
		c-52.15,24.68-103.54,48.99-154.92,73.3C117.69,746.57,117.5,746.38,117.31,746.18z M147.77,715.76c0.18,0.18,0.35,0.36,0.53,0.55
		c31.99-15.14,63.99-30.29,96.36-45.61c-19.3-15.27-36.14-32.18-51.3-51.26C178.04,651.81,162.91,683.79,147.77,715.76z"/>
	<path d="M148.53,373.69c-7.24,38.72-7.19,76.79-0.02,115.51c-5.01-1.74-9.2-3.17-13.37-4.65c-43.99-15.64-87.97-31.31-132-46.86
		c-2.5-0.88-3.19-2-3.13-4.51c0.16-6.83,0.03-6.88,5.85-8.95c46.74-16.6,93.49-33.18,140.23-49.77
		C146.61,374.28,147.13,374.14,148.53,373.69z M29.08,431.41c14.27,5.08,27.63,9.85,41.01,14.61c19.09,6.79,38.2,13.53,57.27,20.38
		c2.46,0.88,3.4,0.67,3.02-2.22c-0.49-3.67-0.69-7.38-1.01-11.07c-1.24-14.25-1.12-28.51-0.06-42.77c0.36-4.85,0.75-9.69,1.16-14.94
		C96.59,407.44,63.3,419.26,29.08,431.41z"/>
	<path d="M489.61,148.19c-8.46-1.12-16.43-2.27-24.42-3.22c-17-2.02-34.04-2.3-51.14-1.32c-12.12,0.7-24.09,2.47-36.09,4.18
		c-3.67,0.52-3.72,0.42-2.47-3.07c16.73-47.05,33.49-94.08,50.11-141.16c1.01-2.87,2.3-3.69,5.22-3.58
		c6.29,0.24,6.33,0.06,8.46,6.06c16.6,46.73,33.19,93.47,49.78,140.21C489.2,146.69,489.3,147.12,489.61,148.19z M468.11,130.64
		c-12.12-34.13-23.96-67.44-36.08-101.58c-12.18,34.33-24.02,67.67-36.08,101.64C420.29,127.77,443.93,127.89,468.11,130.64z"/>
</g>
</svg>
