<?xml version="1.0" encoding="utf-8"?>
<!-- Generator: Adobe Illustrator 25.4.8, SVG Export Plug-In . SVG Version: 6.00 Build 0)  -->
<svg version="1.1" id="Слой_1" xmlns="http://www.w3.org/2000/svg" xmlns:xlink="http://www.w3.org/1999/xlink" x="0px" y="0px"
	 viewBox="0 0 864 864" style="enable-background:new 0 0 864 864;" xml:space="preserve">
<g>
	<path d="M494.68,68.37c174.23,2.4,295.05,120.44,300.59,276.72c0.85,23.91-2.73,47.57-9.12,70.36
		c-5.09,18.14-2.01,29.32,13.06,42.42c66.71,58,83.24,147.61,43.38,222.61c-56.22,105.77-203.13,140.49-304.27,69.69
		c-22.67-15.87-34.02-16.25-55.69,2.68c-76.23,66.6-203.37,53.4-267.59-25.66c-11.11-13.68-22.03-19.15-39.57-19.64
		C84.11,705.02,8.42,636.1,0.58,544.77c-6.9-80.33,48.81-156.64,135.23-177.79c15.85-3.88,23.48-11.11,26.7-26.71
		c8.87-43,33.86-74.99,71.41-96.79c13.43-7.79,22.76-17.42,30.74-30.93C320.19,118.55,402.98,70.43,494.68,68.37z M657.53,763.95
		c39.29,0.05,74.22-10.36,107.07-32c75.66-49.86,98.2-143.69,51.36-219.65c-26.68-43.27-66.75-68.6-116.2-80.36
		c-12.48-2.97-26.15-1.88-35.21-18.06c-37.14-66.28-101.92-96.1-175.72-80.84c-20.55,4.25-29.77,2.22-39.82-18.01
		c-27.2-54.77-94.09-83.75-154.68-70.88c-60.98,12.94-108.25,59.57-111.89,114.53c-1.31,19.75-8.57,24.34-26.24,27.11
		C51.71,402.17-8,511.22,40.15,599.48c31.24,57.26,82.42,85,147.69,84.99c15.88,0,26.56,2.5,37.18,17.22
		c67,92.91,197.48,95.98,269.89,6.56c11.84-14.62,16.13-11.02,27.29-0.18C559.61,744.41,604.59,764.32,657.53,763.95z
		 M288.66,218.85c16.33,0,28.31-0.42,40.25,0.07c53.3,2.18,98.43,23.21,128.4,67.02c13.93,20.36,27.31,24.07,49.3,22.19
		c69.3-5.93,125.97,18.53,166.84,75.75c9.32,13.04,16.63,25.38,35.7,27.11c16.2,1.47,38.92,17.69,46.38,11.78
		c18.13-14.37,12.98-41.5,16.43-63.67c0.13-0.86,0.04-1.76,0.06-2.64c3.09-175.22-165.18-304.89-333.14-255.52
		C375.35,119.6,324.99,157.03,288.66,218.85z"/>
	<path d="M444.68,698.86c2.04,20.22-11.46,26.51-23.17,32.58c-64.57,33.5-162.39-6.36-182.28-76.1
		c-5.9-20.7-12.44-21.21-30.63-16.61c-68.41,17.29-138.24-19.84-153.56-81.17c-4.94-19.77-8.18-41.18,7.92-58.38
		c6.27,0.92,7.13,4.26,6.4,7.89c-15.34,76.47,52.76,140.84,129.12,121.96c2.56-0.63,5.05-1.54,7.58-2.29
		c34.36-10.22,34.45-10.24,44.78,24.68c19.46,65.81,128.23,111.3,183.52,53.86C436.55,703.01,439.84,701.82,444.68,698.86z"/>
</g>
</svg>
