<?xml version="1.0" encoding="utf-8"?>
<!-- Generator: Adobe Illustrator 25.4.8, SVG Export Plug-In . SVG Version: 6.00 Build 0)  -->
<svg version="1.1" id="Слой_1" xmlns="http://www.w3.org/2000/svg" xmlns:xlink="http://www.w3.org/1999/xlink" x="0px" y="0px"
	 viewBox="0 0 864 864" style="enable-background:new 0 0 864 864;" xml:space="preserve">
<g>
	<path d="M30.32,323.77c2.08-58.36,32.7-103.64,85.85-134.01c13.51-7.72,19.09-14.45,17.83-30.96
		c-5.03-66.04,24.73-115.53,83.92-143.75C274.6-11.97,339.28-2.34,385.69,41.79c10.62,10.1,17.78,10.8,30.57,4.49
		c69.66-34.39,136.39-25.71,193.38,25.69c11.52,10.39,22.56,9.02,35.21,8.28c82.99-4.88,154.04,39.03,179.8,110.9
		c34.92,97.41-35.46,210.38-142.09,230.32c-42.59,7.96-82.91,3.85-121.69-14.23c-13.21-6.16-19.47-6.07-27.29,8.54
		C479.4,516.86,364.06,543.7,271.8,476.63c-12.97-9.43-23.28-6.14-35.43-2.77c-89.55,24.84-178.43-22.8-202.14-107.87
		C30.71,353.36,31.61,340.73,30.32,323.77z M378.02,494.56c10.49-1.4,20.8-1.89,30.66-4.27c30.6-7.39,57.96-19.92,72.68-50.38
		c3.08-6.37,5.78-13.55-2.36-17.72c-6.95-3.56-11.82-0.77-16.26,6.7c-40.48,68.01-151.35,47.65-180.56-9.45
		c-14.87-29.06-16.35-28.3-42.6-10.59c-68.12,45.96-144.19,14.27-158.28-65.99c-1.07-6.08-1.82-12.29-9.5-12.96
		c-9.02-0.79-11.52,5.35-12.26,12.83c-2.8,28.15,7.36,51.73,26.33,71.71c37.33,39.32,104.54,47.74,155.55,18.46
		c12.74-7.31,18.5-8.01,27.5,5.65C294.43,477.32,334.54,490.16,378.02,494.56z"/>
	<path d="M407.37,695.09C365.34,754.24,326.34,809.12,287.34,864c-1.81-0.88-3.62-1.75-5.44-2.63c9.24-22.3,18.46-44.6,27.72-66.89
		c5.2-12.53,10.11-25.19,15.76-37.51c6.71-14.64,2.06-19.9-13.5-19.27c-17.61,0.71-35.26,0.16-58.66,0.16
		c29.32-47.42,54.98-91.92,83.96-134.15c9.98-14.54,29.93-4.74,48.79-5.9c-12.09,28.76-28.82,52.01-43.77,76.17
		c-9.68,15.64-10.89,24.14,12.36,21.46C370.16,693.63,386.16,695.09,407.37,695.09z"/>
	<path d="M596.13,553.33c-40.59,56.81-79.93,111.85-119.27,166.9c-1.63-0.9-3.25-1.8-4.88-2.7c13.86-33.06,27.72-66.11,41.59-99.17
		c11.72-27.94,11.57-27.5-17.48-28.66c-14.71-0.58-35.36,7.96-42.53-4.82c-5.68-10.13,10.96-24.69,18.11-36.97
		c13.26-22.74,29.82-43.83,40.85-67.53c13.66-29.33,34.31-36.54,64.64-28.52c-9.96,27.49-28.84,49.79-42.24,75.05
		c-11.94,22.49-10.89,24.72,15.17,24.48c12.73-0.12,25.44-0.9,38.17-1.19C589.77,550.18,591.29,551.36,596.13,553.33z"/>
</g>
</svg>
