<?xml version="1.0" encoding="utf-8"?>
<!-- Generator: Adobe Illustrator 25.4.8, SVG Export Plug-In . SVG Version: 6.00 Build 0)  -->
<svg version="1.1" id="Слой_1" xmlns="http://www.w3.org/2000/svg" xmlns:xlink="http://www.w3.org/1999/xlink" x="0px" y="0px"
	 viewBox="0 0 864 864" style="enable-background:new 0 0 864 864;" xml:space="preserve">
<g>
	<path d="M0,528.05c2.79-11.4,3.99-23.14,7.71-34.36c13.8-41.55,40.55-71.97,79.18-91.99c6.8-3.52,9.28-7.45,9.4-15.32
		c1.26-87.09,38.08-155.02,114.33-197.64c69.55-38.88,141.56-39.1,212.56-1.34c6.63,3.52,10.3,3.61,15.39-2.25
		c8.83-10.17,20.31-16.87,33.55-19.75c6.02-1.31,7.8-4.23,8.2-10.17c3.78-56.07,45.63-93.7,101.51-90.8
		c25.06,1.3,46.94,10.71,63.62,30.16c2.78,3.24,5.19,3.93,9.33,3.03c40.69-8.9,86.25,14.65,102.47,53.26
		c2.8,6.67,6.51,9.81,13.56,11.39c37.49,8.43,63.62,44.26,60.55,82.23c-3.33,41.21-32.76,71.44-72.5,74.47
		c-10.3,0.79-10.34,0.81-5.68,10.31c8.55,17.4,13.27,35.9,13.78,55.13c0.24,9.03,3.17,13.6,11.23,17.86
		c42.22,22.28,69.6,56.62,81.08,103.26c22.78,92.6-38.95,183.56-133.25,196.54c-9.25,1.27-18.47,1.51-27.73,1.51
		c-70.54,0.05-141.09,0.09-211.63-0.07c-6.5-0.01-9.42-0.26-7.79,8.58c6.09,33.06-18.4,71.79-50.71,82.45
		c-10.24,3.38-20.69,5.1-31.44,5.1c-83.19,0.01-166.38,0.1-249.58-0.04c-40.53-0.07-69.83-21.88-80.28-60.07
		c-5.12-18.69-3.45-37.35,4.18-55.23c1.82-4.26,1.97-6.77-2.41-9.64C28.05,648.16,7.26,609.67,1.26,562.34
		c-0.24-1.89-0.83-3.75-1.26-5.62C0,547.17,0,537.61,0,528.05z M493.25,297.27c-1.45-2.33-2.55-3.94-3.5-5.64
		c-39.36-70.07-115.19-108.08-194.87-97.67c-104.64,13.67-179.72,112.05-164.85,216.55c1.04,7.28-0.72,9.11-7.29,11.23
		C73.4,437.7,42.76,471.69,34.43,522.49c-8.58,52.34,10.02,95.37,52.89,127.46c5.79,4.34,10.59,5.9,17.16,1.39
		c4.02-2.76,9.22-4.18,14.1-5.24c6.95-1.51,10.39-4.43,9.97-12.32c-0.32-6.02,1.18-12.29,2.74-18.22
		c9.49-36,32.36-59.67,68.36-68.39c36.08-8.73,68.53-0.71,94.41,27.56c2.14,2.34,3.67,3.83,7.67,3.04
		c44.58-8.86,87.14,13.71,104.97,55.47c1.95,4.57,4.52,6.84,9.56,7.98c16.56,3.76,30.78,12.08,42.16,24.73
		c3.69,4.11,7.52,5.72,13.07,5.71c76.45-0.17,152.9-0.14,229.36-0.09c9.87,0.01,19.67-0.58,29.29-2.76
		c56.44-12.8,99.02-61.43,101.49-115.81c2.86-62.83-31.14-113.15-89.65-132.16c-4.74-1.54-6.02-3.69-5.98-8.29
		c0.11-12.35-0.19-24.66-1.99-36.97c-11.58-79.25-94.37-135.07-172.19-116.16C535.78,265.73,513.26,278.11,493.25,297.27z
		 M169.2,671.59c-9.42,0-17.29-0.35-25.13,0.07c-20.68,1.11-35.86,11.24-44.1,30.08c-7.99,18.28-4,35.28,9.24,49.93
		c10.42,11.53,23.78,16.03,39.24,16c82.32-0.16,164.64-0.07,246.97-0.09c2.81,0,5.63-0.01,8.42-0.29
		c35.67-3.56,55.37-43.5,35.81-73.03c-11.27-17.01-27.94-23.49-47.88-22.6c-4.6,0.2-8.32,0.64-9-6.35
		c-4.22-43.61-50.58-69.92-90.76-51.53c-5.74,2.63-7.86,2.42-11.21-3.42c-12.52-21.79-31.63-34.58-57.01-34.29
		c-25.9,0.3-45.7,12.67-57.17,36.34C157.22,631.81,157.73,651.4,169.2,671.59z M738.97,288.12c5.04,0,8.13,0.13,11.22-0.02
		c35.28-1.65,58.06-33.88,45.94-64.98c-7.84-20.12-25.63-31.07-51.08-30.85c-6.41,0.05-9.55-0.6-10.58-8.48
		c-5.22-40.11-44.82-64.65-83.63-52.48c-4.76,1.49-10.12,5.86-13.79,4.64c-3.72-1.24-5.53-7.86-8.43-11.94
		c-18.33-25.77-52.01-35.13-79.24-22.11c-28.16,13.47-42.92,44.58-35.55,73.51c1.42,5.55,8.57,11.84,4.21,15.82
		c-3.4,3.1-11.8,0.9-17.98,0.73c-14.26-0.38-27.16,3.12-38.41,12.27c-3.32,2.7-4.22,4.4-0.35,7.54
		c12.45,10.13,23.73,21.5,33.91,33.91c2.63,3.2,4.89,3.68,8.5,1.7c10.1-5.54,20.71-9.9,31.56-13.81
		c61.22-22.06,136.41-4.2,180.59,43.65C722.98,284.95,729.63,291.19,738.97,288.12z"/>
</g>
</svg>
