<?xml version="1.0" encoding="utf-8"?>
<!-- Generator: Adobe Illustrator 25.4.8, SVG Export Plug-In . SVG Version: 6.00 Build 0)  -->
<svg version="1.1" id="Слой_1" xmlns="http://www.w3.org/2000/svg" xmlns:xlink="http://www.w3.org/1999/xlink" x="0px" y="0px"
	 viewBox="0 0 864 864" style="enable-background:new 0 0 864 864;" xml:space="preserve">
<g>
	<path d="M864,367.52c-5.33,23.37-12.53,45.88-28.34,64.7c-27.88,33.19-63.46,47.95-106.72,47.88
		c-238.46-0.36-476.91-0.17-715.37-0.2c-4.52,0-9.05-0.43-13.57-0.66c0-10.76,0-21.52,0-32.28c4.5,0.36,9,1.04,13.5,1.04
		c237.82,0.05,475.63-0.08,713.45,0.17c37.12,0.04,68.16-10.98,89.51-42.95c21.59-32.34,20.2-78.29-3.29-110.81
		c-23.01-31.86-64.68-45.45-104.95-34.24c-37.79,10.52-64.87,42.87-67.56,82.72c-0.71,10.52-6.15,9.49-12.9,9.51
		c-22.03,0.07-22.03,0.13-18.12-20.45c12.13-63.86,64.09-108.31,126.37-108.08c62.59,0.23,114.12,44.53,126.11,108.34
		c0.2,1.09,1.24,2.02,1.89,3.03C864,346,864,356.76,864,367.52z"/>
	<path d="M291.54,416.6c-60.73,0-121.46-0.22-182.19,0.21c-10,0.07-14.94-2.07-12.99-12.84c0.36-1.99,0.2-4.15-0.08-6.18
		c-1.42-10.3,1.82-13.94,13.27-13.89c120.41,0.49,240.82,0.23,361.23,0.36c28.02,0.03,51.36-8.52,65.14-34.53
		c12.4-23.42,10.59-46.53-5.41-67.53c-16.21-21.28-38.15-29.86-64.56-23.91c-26.39,5.95-43.41,23.05-47.91,49.26
		c-2.12,12.36-7.07,13.04-16.69,12.79c-19.32-0.5-19.33-0.16-15.83-19.28c9.49-51.9,59.53-85.19,113.16-75.25
		c51.3,9.5,85.52,59.43,75.67,110.42c-9.86,51.02-45.9,80.07-100.56,80.31C413.04,416.81,352.29,416.6,291.54,416.6z"/>
	<path d="M419.65,512.08c71.52,0,143.05-0.11,214.57,0.04c39.45,0.08,67.05,24.57,69.31,60.95c2.11,33.88-24.39,63.67-59.44,66.83
		c-31.9,2.88-63.31-22.88-67.46-54.87c-0.94-7.27,1.26-9.79,8.37-9.1c4.09,0.4,8.28,0.32,12.39-0.02
		c7.03-0.59,10.61,0.79,12.18,9.28c2.86,15.45,17.39,24.33,33.51,22.8c16.94-1.61,27.46-12.77,28.46-30.21
		c0.97-16.97-7.75-29.03-24.02-32.33c-5.6-1.14-11.47-1.3-17.22-1.31c-141.81-0.07-283.61-0.02-425.42-0.19
		c-4.34-0.01-11.54,3.03-12.54-3.69c-1.31-8.77-2.6-18.27,1.06-26.75c1.47-3.41,6.87-1.35,10.43-1.35
		C275.78,512.06,347.71,512.08,419.65,512.08z"/>
</g>
</svg>
