<?xml version="1.0" encoding="utf-8"?>
<!-- Generator: Adobe Illustrator 25.4.8, SVG Export Plug-In . SVG Version: 6.00 Build 0)  -->
<svg version="1.1" id="Слой_1" xmlns="http://www.w3.org/2000/svg" xmlns:xlink="http://www.w3.org/1999/xlink" x="0px" y="0px"
	 viewBox="0 0 864 864" style="enable-background:new 0 0 864 864;" xml:space="preserve">
<g>
	<path d="M746.65,509.76c27.05,27.18,45.4,56.77,43.93,95.76c-2.18,57.69-42.48,102.95-99.91,103.06
		c-155.99,0.3-312.17,2.41-467.94-4.12C59.54,697.61-42.47,533.86,17.7,383.08c7.29-18.26,3.93-31.81-1.79-47.89
		c-50.64-142.34,23.46-290,167.27-323.55c92.65-21.61,177.54,2.12,244.96,71.97c17.25,17.87,31.31,22.09,55.16,16.25
		c105.38-25.82,206.11,48.83,211.34,156.86c1.33,27.38,8.51,38.94,36.94,35.54c22.56-2.7,45.31,0.48,66.71,8.56
		c39.09,14.76,65.62,55.08,65.69,98.29c0.08,44.79-27.11,84.95-68.71,99.32C780.67,503.48,765.02,505.59,746.65,509.76z
		 M451.62,682.77c0,0.26,0,0.51,0,0.77c76.88,0,153.77,0.79,230.63-0.29c49.38-0.69,81.99-34.32,81.82-80.96
		c-0.16-44.72-31.85-77.36-79.05-80.63c-14.63-1.01-29.45-1.23-44.06-0.16c-22.26,1.62-30.8-3.2-29.35-29.73
		c5.21-95.16-83.95-162.42-173.46-130.09c-27,9.75-39.49,3.78-56.17-15.94c-59.38-70.25-171.48-92.16-250.12-51.01
		C50.97,337.06,10.16,427.8,31.22,518.5c21.08,90.78,107.19,162.36,199.95,164.01C304.63,683.81,378.14,682.77,451.62,682.77z
		 M41.86,327.93c130.55-111.07,238.08-110.78,361.15-2.16c8.26,7.29,15.14,10.05,26.94,7.81c115.51-21.9,172.62,13.32,209.55,129.09
		c3.7,11.61,8.02,17.3,20.38,17.09c35.01-0.59,70.24,1.64,105.01-1.48c42.68-3.83,70.2-36.06,70.96-77.18
		c0.76-40.94-25.84-72.28-68.55-78.7c-17.76-2.67-35.97-2.92-54-3.15c-44.06-0.57-44.06-0.31-44.04-43.94
		c0.05-111.83-97.34-181.07-202.05-142.47c-17.71,6.53-28.07,5.93-39.83-9.84c-39.22-52.59-92.92-80.79-157.6-89.1
		c-80.63-10.37-147.59,14.7-197.31,79.34C23.35,177.08,15.1,247.97,41.86,327.93z"/>
	<path d="M406.48,860.07c-10.9-3.2-16.72-8.96-10.66-19.7c15.92-28.17,32.07-56.23,48.85-83.9c3.21-5.3,9.14-10.33,17-5.89
		c5.34,3.01,10.01,8.41,7.15,13.52c-17.37,31.1-35.54,61.76-53.84,92.33C413.65,858.64,409.18,858.98,406.48,860.07z"/>
	<path d="M804.62,748.68c12.11,4.14,14.81,11.94,9.48,21.51c-15.37,27.56-31.14,54.92-47.27,82.04c-3.58,6.01-9.93,9.43-17.49,6.52
		c-6.14-2.37-9.35-8.29-6.92-13.51c15.14-32.66,32.15-64.34,54.14-93.01C798.26,750,802.36,749.62,804.62,748.68z"/>
	<path d="M59.43,859.88c-13.07-1.9-16.52-10.05-11.36-19.46c15.67-28.57,32.27-56.65,49.28-84.46c3.35-5.47,10.14-9.69,17.48-4.7
		c5.12,3.48,7.85,9.35,4.87,14.68c-16.95,30.32-34.38,60.38-52.05,90.28C66.31,858.48,61.82,858.88,59.43,859.88z"/>
	<path d="M381.23,767.82c-8.37,14.53-18.22,34.86-31.12,53.01c-9.99,14.06-13.59,47.56-35.19,35.35
		c-22.33-12.62,5.82-32.08,12.33-47.84c7.24-17.54,18.63-33.4,28.56-49.78c3.59-5.93,8.91-11.1,16.43-9.17
		C377.64,750.79,382.21,754.79,381.23,767.82z"/>
	<path d="M206.52,770.29c-15.25,25.31-33.32,55.94-52.22,86.05c-2.98,4.74-10.25,4.64-15.39,1.4c-5.44-3.43-6.8-10.1-4.14-14.84
		c16.88-30.12,34.27-59.96,52.16-89.49c1.57-2.59,8.18-3.73,11.96-3.01C205.26,751.62,206.79,757.45,206.52,770.29z"/>
	<path d="M555.07,762.31c0.45,7.55-48.36,92.79-55.03,95.76c-5.49,2.45-11.01,2.44-15.68-1.84c-4.87-4.47-4.81-10.53-2.01-15.47
		c16.07-28.36,32.39-56.59,49.19-84.52c2.71-4.51,8.05-8.42,14.41-6.56C551.96,751.45,554.92,756.02,555.07,762.31z"/>
	<path d="M581.13,859.88c-15.63-2.53-15.05-13.03-9.97-22.45c14.34-26.55,29.82-52.5,45.18-78.49c4.21-7.13,10.37-12.36,19.33-7.7
		c5.73,2.98,7.23,9.38,5.07,14.56c-13.34,32.06-32.02,61.19-51.1,90.03C588.11,858.15,583.85,858.66,581.13,859.88z"/>
	<path d="M667.25,859.59c-12.99-1.2-14.25-11.21-9.98-19.29c15.16-28.67,31.73-56.61,48.17-84.58c2.88-4.9,8.42-7.62,14.43-5.97
		c6.01,1.65,8.67,6.08,8.75,12.52c0.1,7.98-47.45,91.79-54.66,95.28C672,858.5,669.74,858.86,667.25,859.59z"/>
	<path d="M232.69,859.73c-11.75-1.63-14.22-10.2-10.45-17.35c15.65-29.65,32.44-58.71,49.45-87.61c2.64-4.48,8.46-7.12,14.78-4.66
		c6.31,2.46,9.34,7.99,7.27,13.27c-13.14,33.42-32.24,63.6-52.73,92.89C239.45,858.52,235.08,858.8,232.69,859.73z"/>
</g>
</svg>
