<?xml version="1.0" encoding="utf-8"?>
<!-- Generator: Adobe Illustrator 25.4.8, SVG Export Plug-In . SVG Version: 6.00 Build 0)  -->
<svg version="1.1" id="Слой_1" xmlns="http://www.w3.org/2000/svg" xmlns:xlink="http://www.w3.org/1999/xlink" x="0px" y="0px"
	 viewBox="0 0 864 864" style="enable-background:new 0 0 864 864;" xml:space="preserve">
<g>
	<path d="M0,381.55c3.27-8.61,4.08-17.88,7.57-26.48c14.86-36.61,41.14-60.38,79.28-70.63c5.39-1.45,8.71-3.95,11.61-8.49
		c27.13-42.48,65.49-68.68,114.98-78.35c5.01-0.98,7.62-3.21,9.63-7.86c33.24-76.91,89.72-129.28,169.23-154.97
		C465.61,11.1,537.17,18.54,605.4,54.51c36.66,19.33,66.98,46.22,91.22,79.85c3.19,4.43,6.98,6.56,12.25,7.81
		c103.45,24.51,169.31,123.34,152.53,228.62c-15.4,96.61-99.52,169.01-197.05,169.23c-14.31,0.03-28.71-1.39-42.54-5.4
		c-7.13-2.07-13.12-1.24-19.08,2.84c-2.53,1.73-5.35,3.13-8.18,4.33c-5.77,2.43-11.24,3.68-4.53,11.98
		c4.37,5.41,1.13,12.33-3.79,17.44c-9.14,9.49-18.22,19.03-28.35,29.63c13.48,2.99,25.64,5.89,37.9,8.31
		c7.23,1.43,12.86,4.47,14.57,12.05c1.66,7.35-2.56,12.23-7.89,16.43c-52.35,41.26-104.71,82.51-157.02,123.83
		c-6.12,4.84-12.34,5.25-18.57,0.83c-5.89-4.18-6.99-11.31-3.17-18.92c12.23-24.35,24.41-48.73,36.94-72.93
		c2.94-5.69,2.49-6.97-4.18-9.26c-14.64-5.03-24.29-0.88-35.35,9.63c-57.9,55.04-116.74,109.1-175.27,163.49
		c-2.26,2.1-4.47,4.35-7.04,6.01c-5.18,3.35-10.72,3.55-15.8-0.12c-5.23-3.78-7.63-8.97-5.56-15.45c0.93-2.92,2.19-5.76,3.56-8.51
		c18.94-37.96,37.74-75.99,57.07-113.74c3.57-6.97,1.93-8.89-4.94-9.95c-9.13-1.41-19.63-7.01-26.81-4.09
		c-6.6,2.69-9.61,14.26-14.14,21.96c-5.84,9.93-11.51,19.97-17.45,29.84c-5.51,9.15-13.56,11.71-21.14,7.04
		c-7.12-4.38-8.66-12.69-3.64-21.51c8.2-14.41,16.61-28.7,24.9-43.05c0.27-0.46,0.29-1.07,0.54-2.07
		c-5.43-1.31-10.92-2.38-16.26-3.97c-10.02-2.99-14.48-12.01-9.55-21.13c9.09-16.8,18.74-33.32,28.62-49.66
		c4.31-7.13,12.53-8.76,19.16-4.97c6.99,4,9.39,11.81,5.22,19.71c-5.61,10.62-11.83,20.92-18.15,31.99
		c25.65,5.45,50.3,10.76,74.99,15.93c17.11,3.58,21.11,11.47,13.42,26.98c-9.23,18.63-18.51,37.23-27.74,55.85
		c-1.2,2.42-2.22,4.92-2.01,8.35c39.2-36.41,78.41-72.81,118.96-110.47c-15.2-3.29-28.95-6.3-42.72-9.24
		c-8.79-1.87-17.62-3.59-26.41-5.45c-15.18-3.22-19.5-12.41-11.89-25.84c11.36-20.05,22.77-40.07,34.49-59.92
		c2.76-4.68,2.57-6.89-2.57-9.48c-9.02-4.54-17.71-9.76-26.3-15.08c-3.23-2-5.8-2.29-9.26-0.69
		c-37.11,17.13-75.54,20.71-115.1,10.36c-5.49-1.44-7.45,1.12-9.73,5.12c-15.18,26.61-30.52,53.12-45.81,79.67
		c-1.12,1.95-2.18,3.94-3.39,5.83c-5.35,8.42-13.42,10.92-20.73,6.48c-6.91-4.2-8.83-12.48-4.22-20.75
		c8.07-14.48,16.49-28.77,24.75-43.14c7.7-13.4,15.28-26.88,23.17-40.17c2.17-3.65,2.24-5.55-1.98-7.57
		c-5.56-2.66-10.82-5.96-16.03-9.28c-2.82-1.79-5.55-2.36-8.77-1.63C74.3,523.2,8.97,476.92,1.16,410.73
		c-0.09-0.76-0.76-1.45-1.16-2.17C0,399.56,0,390.55,0,381.55z M638.08,478.62c2.46,2.51,4.82,2.26,7.01,2.53
		c60.32,7.42,117.08-22.6,145.73-76.54c47.37-89.19-11.45-206.83-125.81-210.01c-23.13-0.64-45.08,4.77-66.07,14.54
		c-9.87,4.59-17.97,1.92-21.54-6.16c-3.52-7.99,0.13-15.52,9.89-20.16c16.36-7.78,33.52-12.88,51.45-15.47
		c2.67-0.39,6.6,0.97,7.72-1.71c1.33-3.18-2.48-5.29-4.36-7.5c-43.24-50.82-98.12-77.58-164.96-78.78
		C378.35,77.6,289.67,146.1,265.9,241.9c-3.13,12.61-4.67,25.38-6.25,38.21c-1.2,9.77-8.16,15.8-16.1,14.79
		c-8.48-1.08-13.27-7.77-12.39-17.85c0.54-6.15,1.21-12.35,2.54-18.36c1.15-5.21-0.8-5.75-5.15-5.01
		c-35.89,6.1-63.48,24.38-82.54,55.54c-2.4,3.93-2.09,5.71,2.32,7.19c6.71,2.26,12.71,6.04,18.31,10.27
		c6.45,4.87,7.82,13.23,3.7,19.54c-3.95,6.06-11.48,7.95-18.6,4.57c-2.02-0.96-3.91-2.21-5.83-3.38
		c-23.23-14.12-51.04-11.43-70.88,6.85c-17.92,16.52-23.21,44.93-12.4,66.65c11.32,22.75,35.63,35.62,58.87,31.76
		c6.03-1,6.47-2.76,3.24-7.27c-6.76-9.44-11.63-19.89-15.5-30.76c-2.62-7.35,0.65-14.57,7.28-17.7c6.79-3.21,14.08-1.13,18.22,5.7
		c2.31,3.82,3.84,8.11,5.79,12.15c15.42,31.86,40.12,53.26,73.98,63.1c32.07,9.32,63.01,5.15,91.58-12.4
		c14.25-8.75,27.4-8.62,40.47,1.78c2.2,1.75,4.44,3.46,6.8,5c74.48,48.51,151.31,52.87,229.52,10.29
		c25.51-13.89,47.25-33.36,64.78-56.99c3.01-4.05,6.06-8.2,9.76-11.57c5.18-4.71,11.3-4.8,17.03-0.8c5.42,3.78,7.26,9.34,5.45,15.6
		c-0.83,2.87-2.8,5.47-4.54,8C664.82,452.15,652.07,465.58,638.08,478.62z M557.22,558.49c-0.36-0.7-0.72-1.4-1.07-2.1
		c-13.13,4.07-26.46,7.18-40,9.23c-42.11,6.4-83.46,3.1-123.94-10.13c-4.85-1.59-7.35-0.82-9.89,3.81
		c-8.26,15-16.94,29.77-25.66,44.51c-2.42,4.08-2.67,6.18,2.86,7.25c15.43,2.98,30.81,6.21,46.13,9.72c4.54,1.04,6.54-0.6,8.55-4.3
		c4.56-8.38,9.4-16.62,14.37-24.77c5.15-8.44,13.46-10.93,20.66-6.53c7.01,4.29,8.79,12.31,4.2,20.71
		c-3.37,6.15-7.11,12.11-10.88,18.03c-2.35,3.7-1.69,5.12,2.76,5.97c12.4,2.36,24.72,5.16,37.06,7.85
		c16.5,3.6,20.19,11.43,12.64,26.69c-4.91,9.94-9.82,19.87-14.73,29.81c0.44,0.32,0.87,0.63,1.31,0.95
		c26.33-20.77,52.66-41.54,80.46-63.46c-12.67-2.74-23.56-4.92-34.36-7.47c-12.46-2.94-17.07-13.84-10.08-23.51
		c1.8-2.49,4.02-4.69,6.14-6.93C534.89,582.03,546.06,570.27,557.22,558.49z"/>
	<path d="M594.13,726.7c-10.65,0.25-17.46-10.53-12.73-20.82c2.68-5.84,6.3-11.24,9.53-16.82c7.73-13.34,15.43-26.7,23.22-40.01
		c3.47-5.94,8.72-8.67,15.56-7.46c5.78,1.03,9.36,4.8,11.08,10.33c1.36,4.38-0.11,8.35-2.23,12.04
		c-10.44,18.25-20.93,36.48-31.49,54.65C604.24,723.5,600.15,726.71,594.13,726.7z"/>
	<path d="M706.47,687.3c-9.4-0.04-16.88-9.1-13.39-17.74c5.46-13.48,13.07-25.98,21.59-37.75c4.39-6.05,12.32-6.84,18.06-2.74
		c6.14,4.39,8.89,10.55,5.19,17.56c-6.26,11.86-13.06,23.44-19.96,34.93C715.54,685.62,711.34,687.45,706.47,687.3z"/>
	<path d="M662.69,611.39c-11.05-0.24-17.96-9.09-14.54-18.06c4.58-12.02,11.22-23.15,18.77-33.56c4.16-5.74,12.5-6.62,18.16-2.72
		c5.89,4.06,8.77,9.7,5.74,16.69c-4.9,11.31-11.5,21.74-18.12,32.09C670.13,609.82,665.93,611.58,662.69,611.39z"/>
	<path d="M74.08,593.07c-12.1-0.25-18.96-10.35-14.48-19.85c4.54-9.61,10.12-18.81,16.04-27.66c4.24-6.34,12.81-7.56,18.77-3.41
		c6.25,4.35,8.86,10.48,5.22,17.58c-4.73,9.23-9.97,18.22-15.4,27.07C81.6,591.06,77.36,593.4,74.08,593.07z"/>
	<path d="M782.64,555.76c-0.45,1.33-0.98,4.15-2.29,6.54c-4.31,7.87-8.64,15.75-13.45,23.33c-4.72,7.44-12.9,9.51-19.66,5.62
		c-6.87-3.96-9.26-11.89-5.12-19.72c4.58-8.67,9.56-17.17,14.97-25.34c3.57-5.39,9.19-7.28,15.57-5.14
		C778.92,543.15,782.11,547.75,782.64,555.76z"/>
	<path d="M583.69,756.96c-0.45,1.54-0.75,4.16-1.94,6.29c-4.62,8.33-9.21,16.7-14.39,24.67c-4.66,7.16-12.31,8.9-19.04,5.18
		c-6.52-3.61-9.47-11.73-5.78-18.92c4.6-8.95,9.87-17.59,15.36-26.03c3.85-5.93,9.99-7.11,16.41-4.98
		C580.23,745.13,582.99,749.9,583.69,756.96z"/>
	<path d="M86.76,708.37c-10.27,0.23-17.57-10.36-12.94-20.07c4.44-9.32,9.87-18.24,15.64-26.82c4.37-6.51,12.56-7.83,18.61-3.72
		c6.29,4.27,9.01,10.48,5.48,17.49c-4.77,9.48-10.33,18.58-15.89,27.64C95.31,706.71,91.14,708.02,86.76,708.37z"/>
	<path d="M270.13,570.57c-2.93,8.8-6.85,18.42-15.27,24.95c-4.77,3.7-10.64,3.14-15.55-0.81c-5.02-4.03-7.29-9.17-4.97-15.55
		c2.49-6.87,6.19-13.16,10.72-18.82c4.1-5.12,9.77-6.34,15.86-3.93C266.64,558.68,269.57,563.2,270.13,570.57z"/>
	<path d="M194.25,772.54c-2.96,8.41-6.71,17.88-15.06,24.14c-4.83,3.62-10.69,3.09-15.67-0.78c-4.9-3.81-6.91-8.94-4.98-14.9
		c2.44-7.52,6.42-14.38,11.75-20.18c4.14-4.51,9.6-5.57,15.4-2.91C191.37,760.51,194.12,765.01,194.25,772.54z"/>
	<path d="M232.6,325.93c0.1-9.24,4.63-14.88,12-16.03c7.17-1.12,14.02,2.96,15.84,10.65c2.44,10.36,4.35,20.88,5.75,31.43
		c0.95,7.18-4.24,13.32-11.1,14.69c-7.45,1.49-14.22-2.02-16.56-9.6C235.31,346.6,233.41,335.8,232.6,325.93z"/>
	<path d="M560.98,232.22c0.08,1.84-1.28,4.92-3.4,7.6c-4.52,5.72-8.97,11.52-13.85,16.94c-5.46,6.08-13.83,6.9-19.7,2.44
		c-6.02-4.58-7.37-12.48-2.91-19.55c4.5-7.14,9.87-13.67,15.88-19.57c4.37-4.29,9.77-5.37,15.53-2.87
		C558.29,219.72,560.98,224.29,560.98,232.22z"/>
</g>
</svg>
